<svg width="1400" height="3291" viewBox="0 0 1400 3291" fill="none" xmlns="http://www.w3.org/2000/svg">
<path fill-rule="evenodd" clip-rule="evenodd" d="M2121.98 3245.73C2163.1 3194.37 2154.8 3119.4 2103.44 3078.28L1441.83 2548.54L2024.53 2089.79C2058.54 2063.02 2075.35 2019.9 2068.44 1977.17C2061.53 1934.44 2031.99 1898.82 1991.27 1884.13L1249.5 1616.47L1417.05 931.806C1427.23 890.238 1414.32 846.409 1383.25 816.984C1352.18 787.559 1307.71 777.061 1266.76 789.482L464.051 1032.94L183.578 252.371C169.189 212.326 134.535 182.997 92.6635 175.424C50.7918 167.852 8.06034 183.187 -19.442 215.655L-461.968 738.089L-687.104 81.1483C-708.434 18.9062 -776.183 -14.259 -838.425 7.07153C-900.667 28.402 -933.832 96.1508 -912.502 158.393L-619.355 1013.79C-605.458 1054.34 -570.848 1084.3 -528.723 1092.24C-486.599 1100.18 -443.457 1084.88 -415.751 1052.17L29.0807 527.011L278.122 1220.1C299.581 1279.82 364.087 1312.24 424.814 1293.82L1135.94 1078.14L992.606 1663.86C978.129 1723.01 1010.6 1783.56 1067.89 1804.24L1708.46 2035.38L1176.55 2454.15C1147.99 2476.63 1131.26 2510.92 1131.11 2547.27C1130.96 2583.61 1147.41 2618.04 1175.78 2640.75L1954.52 3264.27C2005.88 3305.39 2080.85 3297.09 2121.98 3245.73Z" fill="#BEBCF5" fill-opacity="0.15"/>
</svg>
