<svg width="669" height="100" viewBox="0 0 669 100" fill="none" xmlns="http://www.w3.org/2000/svg">
<path d="M-8.75982 19.2693C-12.1662 18.1499 -16.3886 17.5 -20.9659 17.5C-25.5432 17.5 -29.7657 18.1499 -33.172 19.2693C-42.2202 22.2302 -48.4297 28.3686 -48.4297 35.4458C-48.4297 45.4117 -36.1526 53.5 -21.0014 53.5C-5.85022 53.5 6.42686 45.4117 6.42686 35.4458C6.49782 28.3686 0.288315 22.2302 -8.75982 19.2693ZM-20.9659 45.7728C-23.2368 45.7728 -25.0819 41.2593 -25.1884 35.5542C-23.84 35.6625 -22.4207 35.7347 -20.9659 35.7347C-19.5111 35.7347 -18.1273 35.6625 -16.7435 35.5542C-16.8499 41.2232 -18.695 45.7728 -20.9659 45.7728ZM-24.9045 31.0767C-24.3013 27.0687 -22.7756 24.2523 -20.9659 24.2523C-19.1918 24.2523 -17.666 27.0687 -17.0273 31.0767C-18.2692 31.1851 -19.6176 31.2573 -20.9659 31.2573C-22.3143 31.2573 -23.6271 31.2212 -24.9045 31.0767ZM-14.6145 30.7879C-15.5371 24.505 -18.0209 20.0276 -20.9659 20.0276C-23.911 20.0276 -26.3948 24.505 -27.3174 30.7879C-32.8882 29.8852 -36.7913 27.8992 -36.7913 25.5522C-36.7913 22.3746 -29.7302 19.8109 -21.0014 19.8109C-12.2726 19.8109 -5.21153 22.3746 -5.21153 25.5522C-5.14056 27.8992 -9.04368 29.9213 -14.6145 30.7879ZM-44.3846 34.7959C-44.3846 31.7267 -43.2137 28.8741 -41.2267 26.4188C-41.2621 26.5993 -41.2621 26.7798 -41.2621 26.9243C-41.2621 30.7879 -35.5849 34.0376 -27.6722 35.2292C-27.6722 35.5181 -27.6722 35.8069 -27.6722 36.0958C-27.6722 43.2452 -25.7206 49.3114 -23.0239 51.4057C-35.0172 50.6836 -44.3846 43.5341 -44.3846 34.7959ZM-18.8724 51.4057C-16.1757 49.3114 -14.2242 43.2452 -14.2242 36.0958C-14.2242 35.8069 -14.2242 35.5181 -14.2242 35.2292C-6.3115 34.0376 -0.634239 30.7518 -0.634239 26.9243C-0.634239 26.7437 -0.634239 26.5632 -0.66972 26.4188C1.35281 28.8741 2.48825 31.7628 2.48825 34.7959C2.48825 43.5341 -6.91471 50.6836 -18.8724 51.4057Z" fill="#242424"/>
<path d="M-37.9658 70.77V72.072H-40.5558V80.5H-42.1518V72.072H-44.7558V70.77H-37.9658ZM-33.0034 80.626C-33.7314 80.626 -34.3894 80.4627 -34.9774 80.136C-35.5654 79.8 -36.0274 79.3333 -36.3634 78.736C-36.6994 78.1293 -36.8674 77.4293 -36.8674 76.636C-36.8674 75.852 -36.6947 75.1567 -36.3494 74.55C-36.0041 73.9433 -35.5327 73.4767 -34.9354 73.15C-34.3381 72.8233 -33.6707 72.66 -32.9334 72.66C-32.1961 72.66 -31.5287 72.8233 -30.9314 73.15C-30.3341 73.4767 -29.8627 73.9433 -29.5174 74.55C-29.1721 75.1567 -28.9994 75.852 -28.9994 76.636C-28.9994 77.42 -29.1767 78.1153 -29.5314 78.722C-29.8861 79.3287 -30.3714 79.8 -30.9874 80.136C-31.5941 80.4627 -32.2661 80.626 -33.0034 80.626ZM-33.0034 79.24C-32.5927 79.24 -32.2101 79.142 -31.8554 78.946C-31.4914 78.75 -31.1974 78.456 -30.9734 78.064C-30.7494 77.672 -30.6374 77.196 -30.6374 76.636C-30.6374 76.076 -30.7447 75.6047 -30.9594 75.222C-31.1741 74.83 -31.4587 74.536 -31.8134 74.34C-32.1681 74.144 -32.5507 74.046 -32.9614 74.046C-33.3721 74.046 -33.7547 74.144 -34.1094 74.34C-34.4547 74.536 -34.7301 74.83 -34.9354 75.222C-35.1407 75.6047 -35.2434 76.076 -35.2434 76.636C-35.2434 77.4667 -35.0334 78.1107 -34.6134 78.568C-34.1841 79.016 -33.6474 79.24 -33.0034 79.24ZM-20.4777 72.786L-25.2097 84.126H-26.8617L-25.2937 80.374L-28.3317 72.786H-26.5537L-24.3837 78.666L-22.1297 72.786H-20.4777ZM-15.9272 80.626C-16.6552 80.626 -17.3132 80.4627 -17.9012 80.136C-18.4892 79.8 -18.9512 79.3333 -19.2872 78.736C-19.6232 78.1293 -19.7912 77.4293 -19.7912 76.636C-19.7912 75.852 -19.6186 75.1567 -19.2732 74.55C-18.9279 73.9433 -18.4566 73.4767 -17.8592 73.15C-17.2619 72.8233 -16.5946 72.66 -15.8572 72.66C-15.1199 72.66 -14.4526 72.8233 -13.8552 73.15C-13.2579 73.4767 -12.7866 73.9433 -12.4412 74.55C-12.0959 75.1567 -11.9232 75.852 -11.9232 76.636C-11.9232 77.42 -12.1006 78.1153 -12.4552 78.722C-12.8099 79.3287 -13.2952 79.8 -13.9112 80.136C-14.5179 80.4627 -15.1899 80.626 -15.9272 80.626ZM-15.9272 79.24C-15.5166 79.24 -15.1339 79.142 -14.7792 78.946C-14.4152 78.75 -14.1212 78.456 -13.8972 78.064C-13.6732 77.672 -13.5612 77.196 -13.5612 76.636C-13.5612 76.076 -13.6686 75.6047 -13.8832 75.222C-14.0979 74.83 -14.3826 74.536 -14.7372 74.34C-15.0919 74.144 -15.4746 74.046 -15.8852 74.046C-16.2959 74.046 -16.6786 74.144 -17.0332 74.34C-17.3786 74.536 -17.6539 74.83 -17.8592 75.222C-18.0646 75.6047 -18.1672 76.076 -18.1672 76.636C-18.1672 77.4667 -17.9572 78.1107 -17.5372 78.568C-17.1079 79.016 -16.5712 79.24 -15.9272 79.24ZM-8.48351 74.088V78.358C-8.48351 78.6473 -8.41817 78.8573 -8.28751 78.988C-8.14751 79.1093 -7.91417 79.17 -7.58751 79.17H-6.60751V80.5H-7.86751C-8.58617 80.5 -9.13684 80.332 -9.51951 79.996C-9.90217 79.66 -10.0935 79.114 -10.0935 78.358V74.088H-11.0035V72.786H-10.0935V70.868H-8.48351V72.786H-6.60751V74.088H-8.48351ZM-5.66852 76.608C-5.66852 75.8333 -5.50986 75.1473 -5.19252 74.55C-4.86586 73.9527 -4.42719 73.4907 -3.87652 73.164C-3.31652 72.828 -2.70052 72.66 -2.02852 72.66C-1.42186 72.66 -0.894523 72.7813 -0.446523 73.024C0.0108102 73.2573 0.37481 73.5513 0.645477 73.906V72.786H2.25548V80.5H0.645477V79.352C0.37481 79.716 0.00614347 80.0193 -0.460523 80.262C-0.92719 80.5047 -1.45919 80.626 -2.05652 80.626C-2.71919 80.626 -3.32586 80.458 -3.87652 80.122C-4.42719 79.7767 -4.86586 79.3007 -5.19252 78.694C-5.50986 78.078 -5.66852 77.3827 -5.66852 76.608ZM0.645477 76.636C0.645477 76.104 0.533477 75.642 0.309477 75.25C0.0948101 74.858 -0.189857 74.5593 -0.544523 74.354C-0.89919 74.1487 -1.28186 74.046 -1.69252 74.046C-2.10319 74.046 -2.48586 74.1487 -2.84052 74.354C-3.19519 74.55 -3.48452 74.844 -3.70852 75.236C-3.92319 75.6187 -4.03052 76.076 -4.03052 76.608C-4.03052 77.14 -3.92319 77.6067 -3.70852 78.008C-3.48452 78.4093 -3.19519 78.7173 -2.84052 78.932C-2.47652 79.1373 -2.09386 79.24 -1.69252 79.24C-1.28186 79.24 -0.89919 79.1373 -0.544523 78.932C-0.189857 78.7267 0.0948101 78.428 0.309477 78.036C0.533477 77.6347 0.645477 77.168 0.645477 76.636Z" fill="#242424"/>
<path fill-rule="evenodd" clip-rule="evenodd" d="M126.891 28.7344V24.4893H151.967V28.7344H167.728L174.412 42.5764H151.967V47.036H126.891V42.5764H111.379L104.412 28.7344H126.891ZM114.279 38.2972H130.56V42.5764H148.027V38.2972H167.728L165.097 32.7989H148.027V28.7344H130.56V32.7989H111.378L114.279 38.2972Z" fill="#242424"/>
<path d="M105.284 75.614C105.284 74.662 105.503 73.808 105.942 73.052C106.39 72.296 106.992 71.708 107.748 71.288C108.513 70.8587 109.348 70.644 110.254 70.644C111.29 70.644 112.209 70.9007 113.012 71.414C113.824 71.918 114.412 72.6367 114.776 73.57H112.858C112.606 73.0567 112.256 72.674 111.808 72.422C111.36 72.17 110.842 72.044 110.254 72.044C109.61 72.044 109.036 72.1887 108.532 72.478C108.028 72.7673 107.631 73.1827 107.342 73.724C107.062 74.2653 106.922 74.8953 106.922 75.614C106.922 76.3327 107.062 76.9627 107.342 77.504C107.631 78.0453 108.028 78.4653 108.532 78.764C109.036 79.0533 109.61 79.198 110.254 79.198C110.842 79.198 111.36 79.072 111.808 78.82C112.256 78.568 112.606 78.1853 112.858 77.672H114.776C114.412 78.6053 113.824 79.324 113.012 79.828C112.209 80.332 111.29 80.584 110.254 80.584C109.339 80.584 108.504 80.374 107.748 79.954C106.992 79.5247 106.39 78.932 105.942 78.176C105.503 77.42 105.284 76.566 105.284 75.614ZM120.634 72.66C121.222 72.66 121.744 72.786 122.202 73.038C122.668 73.29 123.032 73.6633 123.294 74.158C123.564 74.6527 123.7 75.25 123.7 75.95V80.5H122.118V76.188C122.118 75.4973 121.945 74.97 121.6 74.606C121.254 74.2327 120.783 74.046 120.186 74.046C119.588 74.046 119.112 74.2327 118.758 74.606C118.412 74.97 118.24 75.4973 118.24 76.188V80.5H116.644V70.14H118.24V73.682C118.51 73.3553 118.851 73.1033 119.262 72.926C119.682 72.7487 120.139 72.66 120.634 72.66ZM132.806 76.454C132.806 76.7433 132.787 77.0047 132.75 77.238H126.856C126.902 77.854 127.131 78.3487 127.542 78.722C127.952 79.0953 128.456 79.282 129.054 79.282C129.912 79.282 130.519 78.9227 130.874 78.204H132.596C132.362 78.9133 131.938 79.4967 131.322 79.954C130.715 80.402 129.959 80.626 129.054 80.626C128.316 80.626 127.654 80.4627 127.066 80.136C126.487 79.8 126.03 79.3333 125.694 78.736C125.367 78.1293 125.204 77.4293 125.204 76.636C125.204 75.8427 125.362 75.1473 125.68 74.55C126.006 73.9433 126.459 73.4767 127.038 73.15C127.626 72.8233 128.298 72.66 129.054 72.66C129.782 72.66 130.43 72.8187 131 73.136C131.569 73.4533 132.012 73.9013 132.33 74.48C132.647 75.0493 132.806 75.7073 132.806 76.454ZM131.14 75.95C131.13 75.362 130.92 74.8907 130.51 74.536C130.099 74.1813 129.59 74.004 128.984 74.004C128.433 74.004 127.962 74.1813 127.57 74.536C127.178 74.8813 126.944 75.3527 126.87 75.95H131.14ZM137.358 79.072L139.542 72.786H141.236L138.296 80.5H136.392L133.466 72.786H135.174L137.358 79.072ZM144.039 73.906C144.272 73.514 144.58 73.2107 144.963 72.996C145.355 72.772 145.817 72.66 146.349 72.66V74.312H145.943C145.317 74.312 144.841 74.4707 144.515 74.788C144.197 75.1053 144.039 75.656 144.039 76.44V80.5H142.443V72.786H144.039V73.906ZM151.162 80.626C150.434 80.626 149.776 80.4627 149.188 80.136C148.6 79.8 148.138 79.3333 147.802 78.736C147.466 78.1293 147.298 77.4293 147.298 76.636C147.298 75.852 147.47 75.1567 147.816 74.55C148.161 73.9433 148.632 73.4767 149.23 73.15C149.827 72.8233 150.494 72.66 151.232 72.66C151.969 72.66 152.636 72.8233 153.234 73.15C153.831 73.4767 154.302 73.9433 154.648 74.55C154.993 75.1567 155.166 75.852 155.166 76.636C155.166 77.42 154.988 78.1153 154.634 78.722C154.279 79.3287 153.794 79.8 153.178 80.136C152.571 80.4627 151.899 80.626 151.162 80.626ZM151.162 79.24C151.572 79.24 151.955 79.142 152.31 78.946C152.674 78.75 152.968 78.456 153.192 78.064C153.416 77.672 153.528 77.196 153.528 76.636C153.528 76.076 153.42 75.6047 153.206 75.222C152.991 74.83 152.706 74.536 152.352 74.34C151.997 74.144 151.614 74.046 151.204 74.046C150.793 74.046 150.41 74.144 150.056 74.34C149.71 74.536 149.435 74.83 149.23 75.222C149.024 75.6047 148.922 76.076 148.922 76.636C148.922 77.4667 149.132 78.1107 149.552 78.568C149.981 79.016 150.518 79.24 151.162 79.24ZM158.339 70.14V80.5H156.743V70.14H158.339ZM167.505 76.454C167.505 76.7433 167.486 77.0047 167.449 77.238H161.555C161.601 77.854 161.83 78.3487 162.241 78.722C162.651 79.0953 163.155 79.282 163.753 79.282C164.611 79.282 165.218 78.9227 165.573 78.204H167.295C167.061 78.9133 166.637 79.4967 166.021 79.954C165.414 80.402 164.658 80.626 163.753 80.626C163.015 80.626 162.353 80.4627 161.765 80.136C161.186 79.8 160.729 79.3333 160.393 78.736C160.066 78.1293 159.903 77.4293 159.903 76.636C159.903 75.8427 160.061 75.1473 160.379 74.55C160.705 73.9433 161.158 73.4767 161.737 73.15C162.325 72.8233 162.997 72.66 163.753 72.66C164.481 72.66 165.129 72.8187 165.699 73.136C166.268 73.4533 166.711 73.9013 167.029 74.48C167.346 75.0493 167.505 75.7073 167.505 76.454ZM165.839 75.95C165.829 75.362 165.619 74.8907 165.209 74.536C164.798 74.1813 164.289 74.004 163.683 74.004C163.132 74.004 162.661 74.1813 162.269 74.536C161.877 74.8813 161.643 75.3527 161.569 75.95H165.839ZM170.937 74.088V78.358C170.937 78.6473 171.003 78.8573 171.133 78.988C171.273 79.1093 171.507 79.17 171.833 79.17H172.813V80.5H171.553C170.835 80.5 170.284 80.332 169.901 79.996C169.519 79.66 169.327 79.114 169.327 78.358V74.088H168.417V72.786H169.327V70.868H170.937V72.786H172.813V74.088H170.937Z" fill="#242424"/>
<path d="M308.567 18.1938C305.837 16.78 302.766 16 299.5 16C296.234 16 293.163 16.78 290.432 18.1938C284.241 21.46 280 27.9925 280 35.5C280 43.0075 284.241 49.54 290.481 52.8063C293.163 54.1712 296.234 55 299.5 55C302.766 55 305.789 54.1713 308.519 52.7575C314.759 49.54 319 43.0075 319 35.5C319 27.9925 314.759 21.46 308.567 18.1938ZM281.95 35.5C281.95 29.1138 285.363 23.5563 290.481 20.4363C292.968 18.925 295.844 18.0475 299.013 17.95L296.819 33.8913L290.481 38.815L284.046 43.8363C282.73 41.35 281.95 38.5225 281.95 35.5ZM308.567 50.515C305.886 52.1238 302.815 53.05 299.5 53.05C296.185 53.05 293.065 52.1238 290.432 50.515C288.044 49.1013 286.094 47.1513 284.631 44.8113L290.432 42.4225L299.5 38.7175L308.567 42.3738L314.417 44.7625C312.955 47.1513 310.907 49.1013 308.567 50.515ZM308.567 38.815L302.279 33.94L300.036 17.95C303.108 18.0475 306.033 18.925 308.519 20.4363C313.638 23.5075 317.05 29.1138 317.05 35.5C317.05 38.5225 316.319 41.35 314.954 43.8363L308.567 38.815Z" fill="#242424"/>
<path d="M255.132 70.77V80.5H253.536V73.836L250.568 80.5H249.462L246.48 73.836V80.5H244.884V70.77H246.606L250.022 78.4L253.424 70.77H255.132ZM264.3 76.454C264.3 76.7433 264.281 77.0047 264.244 77.238H258.35C258.396 77.854 258.625 78.3487 259.036 78.722C259.446 79.0953 259.95 79.282 260.548 79.282C261.406 79.282 262.013 78.9227 262.368 78.204H264.09C263.856 78.9133 263.432 79.4967 262.816 79.954C262.209 80.402 261.453 80.626 260.548 80.626C259.81 80.626 259.148 80.4627 258.56 80.136C257.981 79.8 257.524 79.3333 257.188 78.736C256.861 78.1293 256.698 77.4293 256.698 76.636C256.698 75.8427 256.856 75.1473 257.174 74.55C257.5 73.9433 257.953 73.4767 258.532 73.15C259.12 72.8233 259.792 72.66 260.548 72.66C261.276 72.66 261.924 72.8187 262.494 73.136C263.063 73.4533 263.506 73.9013 263.824 74.48C264.141 75.0493 264.3 75.7073 264.3 76.454ZM262.634 75.95C262.624 75.362 262.414 74.8907 262.004 74.536C261.593 74.1813 261.084 74.004 260.478 74.004C259.927 74.004 259.456 74.1813 259.064 74.536C258.672 74.8813 258.438 75.3527 258.364 75.95H262.634ZM267.466 73.906C267.7 73.514 268.008 73.2107 268.39 72.996C268.782 72.772 269.244 72.66 269.776 72.66V74.312H269.37C268.745 74.312 268.269 74.4707 267.942 74.788C267.625 75.1053 267.466 75.656 267.466 76.44V80.5H265.87V72.786H267.466V73.906ZM270.711 76.636C270.711 75.8427 270.87 75.1473 271.187 74.55C271.514 73.9433 271.962 73.4767 272.531 73.15C273.101 72.8233 273.754 72.66 274.491 72.66C275.425 72.66 276.195 72.884 276.801 73.332C277.417 73.7707 277.833 74.4007 278.047 75.222H276.325C276.185 74.8393 275.961 74.5407 275.653 74.326C275.345 74.1113 274.958 74.004 274.491 74.004C273.838 74.004 273.315 74.2373 272.923 74.704C272.541 75.1613 272.349 75.8053 272.349 76.636C272.349 77.4667 272.541 78.1153 272.923 78.582C273.315 79.0487 273.838 79.282 274.491 79.282C275.415 79.282 276.027 78.876 276.325 78.064H278.047C277.823 78.848 277.403 79.4733 276.787 79.94C276.171 80.3973 275.406 80.626 274.491 80.626C273.754 80.626 273.101 80.4627 272.531 80.136C271.962 79.8 271.514 79.3333 271.187 78.736C270.87 78.1293 270.711 77.4293 270.711 76.636ZM286.708 76.454C286.708 76.7433 286.689 77.0047 286.652 77.238H280.758C280.805 77.854 281.033 78.3487 281.444 78.722C281.855 79.0953 282.359 79.282 282.956 79.282C283.815 79.282 284.421 78.9227 284.776 78.204H286.498C286.265 78.9133 285.84 79.4967 285.224 79.954C284.617 80.402 283.861 80.626 282.956 80.626C282.219 80.626 281.556 80.4627 280.968 80.136C280.389 79.8 279.932 79.3333 279.596 78.736C279.269 78.1293 279.106 77.4293 279.106 76.636C279.106 75.8427 279.265 75.1473 279.582 74.55C279.909 73.9433 280.361 73.4767 280.94 73.15C281.528 72.8233 282.2 72.66 282.956 72.66C283.684 72.66 284.333 72.8187 284.902 73.136C285.471 73.4533 285.915 73.9013 286.232 74.48C286.549 75.0493 286.708 75.7073 286.708 76.454ZM285.042 75.95C285.033 75.362 284.823 74.8907 284.412 74.536C284.001 74.1813 283.493 74.004 282.886 74.004C282.335 74.004 281.864 74.1813 281.472 74.536C281.08 74.8813 280.847 75.3527 280.772 75.95H285.042ZM287.747 76.608C287.747 75.8333 287.905 75.1473 288.223 74.55C288.549 73.9527 288.988 73.4907 289.539 73.164C290.099 72.828 290.719 72.66 291.401 72.66C291.905 72.66 292.399 72.772 292.885 72.996C293.379 73.2107 293.771 73.5 294.061 73.864V70.14H295.671V80.5H294.061V79.338C293.799 79.7113 293.435 80.0193 292.969 80.262C292.511 80.5047 291.984 80.626 291.387 80.626C290.715 80.626 290.099 80.458 289.539 80.122C288.988 79.7767 288.549 79.3007 288.223 78.694C287.905 78.078 287.747 77.3827 287.747 76.608ZM294.061 76.636C294.061 76.104 293.949 75.642 293.725 75.25C293.51 74.858 293.225 74.5593 292.871 74.354C292.516 74.1487 292.133 74.046 291.723 74.046C291.312 74.046 290.929 74.1487 290.575 74.354C290.22 74.55 289.931 74.844 289.707 75.236C289.492 75.6187 289.385 76.076 289.385 76.608C289.385 77.14 289.492 77.6067 289.707 78.008C289.931 78.4093 290.22 78.7173 290.575 78.932C290.939 79.1373 291.321 79.24 291.723 79.24C292.133 79.24 292.516 79.1373 292.871 78.932C293.225 78.7267 293.51 78.428 293.725 78.036C293.949 77.6347 294.061 77.168 294.061 76.636ZM304.837 76.454C304.837 76.7433 304.818 77.0047 304.781 77.238H298.887C298.933 77.854 299.162 78.3487 299.573 78.722C299.983 79.0953 300.487 79.282 301.085 79.282C301.943 79.282 302.55 78.9227 302.905 78.204H304.627C304.393 78.9133 303.969 79.4967 303.353 79.954C302.746 80.402 301.99 80.626 301.085 80.626C300.347 80.626 299.685 80.4627 299.097 80.136C298.518 79.8 298.061 79.3333 297.725 78.736C297.398 78.1293 297.235 77.4293 297.235 76.636C297.235 75.8427 297.393 75.1473 297.711 74.55C298.037 73.9433 298.49 73.4767 299.069 73.15C299.657 72.8233 300.329 72.66 301.085 72.66C301.813 72.66 302.461 72.8187 303.031 73.136C303.6 73.4533 304.043 73.9013 304.361 74.48C304.678 75.0493 304.837 75.7073 304.837 76.454ZM303.171 75.95C303.161 75.362 302.951 74.8907 302.541 74.536C302.13 74.1813 301.621 74.004 301.015 74.004C300.464 74.004 299.993 74.1813 299.601 74.536C299.209 74.8813 298.975 75.3527 298.901 75.95H303.171ZM309.207 80.626C308.601 80.626 308.055 80.5187 307.569 80.304C307.093 80.08 306.715 79.7813 306.435 79.408C306.155 79.0253 306.006 78.6007 305.987 78.134H307.639C307.667 78.4607 307.821 78.736 308.101 78.96C308.391 79.1747 308.75 79.282 309.179 79.282C309.627 79.282 309.973 79.198 310.215 79.03C310.467 78.8527 310.593 78.6287 310.593 78.358C310.593 78.0687 310.453 77.854 310.173 77.714C309.903 77.574 309.469 77.42 308.871 77.252C308.293 77.0933 307.821 76.9393 307.457 76.79C307.093 76.6407 306.776 76.412 306.505 76.104C306.244 75.796 306.113 75.39 306.113 74.886C306.113 74.4753 306.235 74.102 306.477 73.766C306.72 73.4207 307.065 73.15 307.513 72.954C307.971 72.758 308.493 72.66 309.081 72.66C309.959 72.66 310.663 72.884 311.195 73.332C311.737 73.7707 312.026 74.3727 312.063 75.138H310.467C310.439 74.7927 310.299 74.5173 310.047 74.312C309.795 74.1067 309.455 74.004 309.025 74.004C308.605 74.004 308.283 74.0833 308.059 74.242C307.835 74.4007 307.723 74.6107 307.723 74.872C307.723 75.0773 307.798 75.25 307.947 75.39C308.097 75.53 308.279 75.642 308.493 75.726C308.708 75.8007 309.025 75.8987 309.445 76.02C310.005 76.1693 310.463 76.3233 310.817 76.482C311.181 76.6313 311.494 76.8553 311.755 77.154C312.017 77.4527 312.152 77.8493 312.161 78.344C312.161 78.7827 312.04 79.1747 311.797 79.52C311.555 79.8653 311.209 80.136 310.761 80.332C310.323 80.528 309.805 80.626 309.207 80.626ZM319.808 74.76V76.104H314.054V74.76H319.808ZM327.283 75.502C327.806 75.5953 328.249 75.8707 328.613 76.328C328.977 76.7853 329.159 77.3033 329.159 77.882C329.159 78.3767 329.029 78.8247 328.767 79.226C328.515 79.618 328.147 79.9307 327.661 80.164C327.176 80.388 326.611 80.5 325.967 80.5H322.075V70.77H325.785C326.448 70.77 327.017 70.882 327.493 71.106C327.969 71.33 328.329 71.6333 328.571 72.016C328.814 72.3893 328.935 72.8093 328.935 73.276C328.935 73.836 328.786 74.3027 328.487 74.676C328.189 75.0493 327.787 75.3247 327.283 75.502ZM323.671 74.858H325.645C326.168 74.858 326.574 74.7413 326.863 74.508C327.162 74.2653 327.311 73.92 327.311 73.472C327.311 73.0333 327.162 72.6927 326.863 72.45C326.574 72.198 326.168 72.072 325.645 72.072H323.671V74.858ZM325.827 79.198C326.369 79.198 326.793 79.0673 327.101 78.806C327.409 78.5447 327.563 78.1807 327.563 77.714C327.563 77.238 327.4 76.86 327.073 76.58C326.747 76.3 326.313 76.16 325.771 76.16H323.671V79.198H325.827ZM337.964 76.454C337.964 76.7433 337.945 77.0047 337.908 77.238H332.014C332.06 77.854 332.289 78.3487 332.7 78.722C333.11 79.0953 333.614 79.282 334.212 79.282C335.07 79.282 335.677 78.9227 336.032 78.204H337.754C337.52 78.9133 337.096 79.4967 336.48 79.954C335.873 80.402 335.117 80.626 334.212 80.626C333.474 80.626 332.812 80.4627 332.224 80.136C331.645 79.8 331.188 79.3333 330.852 78.736C330.525 78.1293 330.362 77.4293 330.362 76.636C330.362 75.8427 330.52 75.1473 330.838 74.55C331.164 73.9433 331.617 73.4767 332.196 73.15C332.784 72.8233 333.456 72.66 334.212 72.66C334.94 72.66 335.588 72.8187 336.158 73.136C336.727 73.4533 337.17 73.9013 337.488 74.48C337.805 75.0493 337.964 75.7073 337.964 76.454ZM336.298 75.95C336.288 75.362 336.078 74.8907 335.668 74.536C335.257 74.1813 334.748 74.004 334.142 74.004C333.591 74.004 333.12 74.1813 332.728 74.536C332.336 74.8813 332.102 75.3527 332.028 75.95H336.298ZM343.426 72.66C344.033 72.66 344.574 72.786 345.05 73.038C345.536 73.29 345.914 73.6633 346.184 74.158C346.455 74.6527 346.59 75.25 346.59 75.95V80.5H345.008V76.188C345.008 75.4973 344.836 74.97 344.49 74.606C344.145 74.2327 343.674 74.046 343.076 74.046C342.479 74.046 342.003 74.2327 341.648 74.606C341.303 74.97 341.13 75.4973 341.13 76.188V80.5H339.534V72.786H341.13V73.668C341.392 73.3507 341.723 73.1033 342.124 72.926C342.535 72.7487 342.969 72.66 343.426 72.66ZM350.04 79.198H353.54V80.5H348.192V79.198L351.706 74.088H348.192V72.786H353.54V74.088L350.04 79.198Z" fill="#242424"/>
<path d="M459.5 16C448.759 16 440 24.7592 440 35.5C440 46.2408 448.759 55 459.5 55C470.241 55 479 46.2408 479 35.5C478.992 24.7592 470.233 16 459.5 16ZM459.5 52.7483C449.998 52.7483 442.252 45.0023 442.252 35.5C442.252 25.9977 449.998 18.2517 459.5 18.2517C469.002 18.2517 476.748 25.9977 476.748 35.5C476.748 45.0023 468.995 52.7483 459.5 52.7483Z" fill="#242424"/>
<path d="M453.916 48.6801C448.789 46.496 445.186 41.407 445.186 35.5C445.186 33.9988 445.419 32.5502 445.854 31.1842L453.916 48.6801Z" fill="#242424"/>
<path d="M463.471 49.2506C462.21 49.6184 460.874 49.8135 459.492 49.8135C458.111 49.8135 456.783 49.6184 455.522 49.2506L459.492 39.9809L463.471 49.2506Z" fill="#242424"/>
<path d="M473.146 31.1917C473.581 32.5502 473.814 33.9988 473.814 35.5C473.814 41.407 470.203 46.496 465.084 48.6726L473.146 31.1917Z" fill="#242424"/>
<path d="M466.713 23.1455C468.462 24.1738 469.971 25.5548 471.149 27.1986L464.018 42.3528L461.617 36.5658H457.383L454.982 42.3528L447.851 27.1986C449.029 25.5548 450.538 24.1663 452.287 23.1455L457.286 34.817H461.714L466.713 23.1455Z" fill="#242424"/>
<path d="M459.5 21.1865C460.896 21.1865 462.255 21.3891 463.531 21.7644L459.5 31.4694L455.469 21.7644C456.745 21.3891 458.096 21.1865 459.5 21.1865Z" fill="#242424"/>
<path d="M425.52 70.77L421.866 80.5H420.018L416.35 70.77H418.058L420.942 78.862L423.84 70.77H425.52ZM430.201 80.626C429.473 80.626 428.815 80.4627 428.227 80.136C427.639 79.8 427.177 79.3333 426.841 78.736C426.505 78.1293 426.337 77.4293 426.337 76.636C426.337 75.852 426.509 75.1567 426.855 74.55C427.2 73.9433 427.671 73.4767 428.269 73.15C428.866 72.8233 429.533 72.66 430.271 72.66C431.008 72.66 431.675 72.8233 432.273 73.15C432.87 73.4767 433.341 73.9433 433.687 74.55C434.032 75.1567 434.205 75.852 434.205 76.636C434.205 77.42 434.027 78.1153 433.673 78.722C433.318 79.3287 432.833 79.8 432.217 80.136C431.61 80.4627 430.938 80.626 430.201 80.626ZM430.201 79.24C430.611 79.24 430.994 79.142 431.349 78.946C431.713 78.75 432.007 78.456 432.231 78.064C432.455 77.672 432.567 77.196 432.567 76.636C432.567 76.076 432.459 75.6047 432.245 75.222C432.03 74.83 431.745 74.536 431.391 74.34C431.036 74.144 430.653 74.046 430.243 74.046C429.832 74.046 429.449 74.144 429.095 74.34C428.749 74.536 428.474 74.83 428.269 75.222C428.063 75.6047 427.961 76.076 427.961 76.636C427.961 77.4667 428.171 78.1107 428.591 78.568C429.02 79.016 429.557 79.24 430.201 79.24ZM437.378 70.14V80.5H435.782V70.14H437.378ZM442.526 76.65L446.082 80.5H443.926L441.07 77.182V80.5H439.474V70.14H441.07V76.16L443.87 72.786H446.082L442.526 76.65ZM450.026 80.626C449.419 80.626 448.873 80.5187 448.388 80.304C447.912 80.08 447.534 79.7813 447.254 79.408C446.974 79.0253 446.824 78.6007 446.806 78.134H448.458C448.486 78.4607 448.64 78.736 448.92 78.96C449.209 79.1747 449.568 79.282 449.998 79.282C450.446 79.282 450.791 79.198 451.034 79.03C451.286 78.8527 451.412 78.6287 451.412 78.358C451.412 78.0687 451.272 77.854 450.992 77.714C450.721 77.574 450.287 77.42 449.69 77.252C449.111 77.0933 448.64 76.9393 448.276 76.79C447.912 76.6407 447.594 76.412 447.324 76.104C447.062 75.796 446.932 75.39 446.932 74.886C446.932 74.4753 447.053 74.102 447.296 73.766C447.538 73.4207 447.884 73.15 448.332 72.954C448.789 72.758 449.312 72.66 449.9 72.66C450.777 72.66 451.482 72.884 452.014 73.332C452.555 73.7707 452.844 74.3727 452.882 75.138H451.286C451.258 74.7927 451.118 74.5173 450.866 74.312C450.614 74.1067 450.273 74.004 449.844 74.004C449.424 74.004 449.102 74.0833 448.878 74.242C448.654 74.4007 448.542 74.6107 448.542 74.872C448.542 75.0773 448.616 75.25 448.766 75.39C448.915 75.53 449.097 75.642 449.312 75.726C449.526 75.8007 449.844 75.8987 450.264 76.02C450.824 76.1693 451.281 76.3233 451.636 76.482C452 76.6313 452.312 76.8553 452.574 77.154C452.835 77.4527 452.97 77.8493 452.98 78.344C452.98 78.7827 452.858 79.1747 452.616 79.52C452.373 79.8653 452.028 80.136 451.58 80.332C451.141 80.528 450.623 80.626 450.026 80.626ZM465.064 72.786L462.67 80.5H460.99L459.436 74.802L457.882 80.5H456.202L453.794 72.786H455.418L457.028 78.988L458.666 72.786H460.332L461.9 78.96L463.496 72.786H465.064ZM465.725 76.608C465.725 75.8333 465.884 75.1473 466.201 74.55C466.528 73.9527 466.966 73.4907 467.517 73.164C468.077 72.828 468.693 72.66 469.365 72.66C469.972 72.66 470.499 72.7813 470.947 73.024C471.404 73.2573 471.768 73.5513 472.039 73.906V72.786H473.649V80.5H472.039V79.352C471.768 79.716 471.4 80.0193 470.933 80.262C470.466 80.5047 469.934 80.626 469.337 80.626C468.674 80.626 468.068 80.458 467.517 80.122C466.966 79.7767 466.528 79.3007 466.201 78.694C465.884 78.078 465.725 77.3827 465.725 76.608ZM472.039 76.636C472.039 76.104 471.927 75.642 471.703 75.25C471.488 74.858 471.204 74.5593 470.849 74.354C470.494 74.1487 470.112 74.046 469.701 74.046C469.29 74.046 468.908 74.1487 468.553 74.354C468.198 74.55 467.909 74.844 467.685 75.236C467.47 75.6187 467.363 76.076 467.363 76.608C467.363 77.14 467.47 77.6067 467.685 78.008C467.909 78.4093 468.198 78.7173 468.553 78.932C468.917 79.1373 469.3 79.24 469.701 79.24C470.112 79.24 470.494 79.1373 470.849 78.932C471.204 78.7267 471.488 78.428 471.703 78.036C471.927 77.6347 472.039 77.168 472.039 76.636ZM478.853 72.66C479.451 72.66 479.978 72.7813 480.435 73.024C480.902 73.2573 481.266 73.5513 481.527 73.906V72.786H483.137V80.626C483.137 81.3353 482.988 81.9653 482.689 82.516C482.391 83.076 481.957 83.5147 481.387 83.832C480.827 84.1493 480.155 84.308 479.371 84.308C478.326 84.308 477.458 84.0607 476.767 83.566C476.077 83.0807 475.685 82.418 475.591 81.578H477.173C477.295 81.9793 477.551 82.3013 477.943 82.544C478.345 82.796 478.821 82.922 479.371 82.922C480.015 82.922 480.533 82.726 480.925 82.334C481.327 81.942 481.527 81.3727 481.527 80.626V79.338C481.257 79.702 480.888 80.01 480.421 80.262C479.964 80.5047 479.441 80.626 478.853 80.626C478.181 80.626 477.565 80.458 477.005 80.122C476.455 79.7767 476.016 79.3007 475.689 78.694C475.372 78.078 475.213 77.3827 475.213 76.608C475.213 75.8333 475.372 75.1473 475.689 74.55C476.016 73.9527 476.455 73.4907 477.005 73.164C477.565 72.828 478.181 72.66 478.853 72.66ZM481.527 76.636C481.527 76.104 481.415 75.642 481.191 75.25C480.977 74.858 480.692 74.5593 480.337 74.354C479.983 74.1487 479.6 74.046 479.189 74.046C478.779 74.046 478.396 74.1487 478.041 74.354C477.687 74.55 477.397 74.844 477.173 75.236C476.959 75.6187 476.851 76.076 476.851 76.608C476.851 77.14 476.959 77.6067 477.173 78.008C477.397 78.4093 477.687 78.7173 478.041 78.932C478.405 79.1373 478.788 79.24 479.189 79.24C479.6 79.24 479.983 79.1373 480.337 78.932C480.692 78.7267 480.977 78.428 481.191 78.036C481.415 77.6347 481.527 77.168 481.527 76.636ZM492.304 76.454C492.304 76.7433 492.285 77.0047 492.248 77.238H486.354C486.4 77.854 486.629 78.3487 487.04 78.722C487.45 79.0953 487.954 79.282 488.552 79.282C489.41 79.282 490.017 78.9227 490.372 78.204H492.094C491.86 78.9133 491.436 79.4967 490.82 79.954C490.213 80.402 489.457 80.626 488.552 80.626C487.814 80.626 487.152 80.4627 486.564 80.136C485.985 79.8 485.528 79.3333 485.192 78.736C484.865 78.1293 484.702 77.4293 484.702 76.636C484.702 75.8427 484.86 75.1473 485.178 74.55C485.504 73.9433 485.957 73.4767 486.536 73.15C487.124 72.8233 487.796 72.66 488.552 72.66C489.28 72.66 489.928 72.8187 490.498 73.136C491.067 73.4533 491.51 73.9013 491.828 74.48C492.145 75.0493 492.304 75.7073 492.304 76.454ZM490.638 75.95C490.628 75.362 490.418 74.8907 490.008 74.536C489.597 74.1813 489.088 74.004 488.482 74.004C487.931 74.004 487.46 74.1813 487.068 74.536C486.676 74.8813 486.442 75.3527 486.368 75.95H490.638ZM497.766 72.66C498.373 72.66 498.914 72.786 499.39 73.038C499.876 73.29 500.254 73.6633 500.524 74.158C500.795 74.6527 500.93 75.25 500.93 75.95V80.5H499.348V76.188C499.348 75.4973 499.176 74.97 498.83 74.606C498.485 74.2327 498.014 74.046 497.416 74.046C496.819 74.046 496.343 74.2327 495.988 74.606C495.643 74.97 495.47 75.4973 495.47 76.188V80.5H493.874V72.786H495.47V73.668C495.732 73.3507 496.063 73.1033 496.464 72.926C496.875 72.7487 497.309 72.66 497.766 72.66Z" fill="#242424"/>
<path fill-rule="evenodd" clip-rule="evenodd" d="M596.228 24C589.522 24 583.888 29.2913 584.002 35.6892C584.113 41.968 589.557 47 596.229 47C599.094 47 601.732 46.0723 603.819 44.516C605.906 46.0721 608.545 47 611.41 47C614.275 47 616.913 46.0723 619 44.516C621.087 46.0721 623.726 47 626.591 47C629.456 47 632.094 46.0723 634.181 44.516C636.269 46.0721 638.907 47 641.772 47C648.443 47 653.887 41.9689 653.998 35.6892C654.112 29.2908 648.478 24 641.772 24C638.931 24 636.282 24.9497 634.181 26.5308C632.08 24.9497 629.431 24 626.59 24C623.749 24 621.101 24.9497 619 26.5308C616.899 24.9497 614.251 24 611.409 24C608.568 24 605.92 24.9497 603.819 26.531C601.718 24.9497 599.069 24 596.228 24ZM611.41 44.3901C609.31 44.3901 607.37 43.7468 605.799 42.6576C607.422 40.7413 608.408 38.3252 608.455 35.6892C608.504 32.942 607.493 30.399 605.793 28.3913C607.376 27.2754 609.327 26.6099 611.409 26.6099C613.492 26.6099 615.443 27.2754 617.026 28.3911C615.326 30.399 614.315 32.9424 614.363 35.6894C614.41 38.3252 615.397 40.7415 617.02 42.6578C615.449 43.747 613.509 44.3901 611.41 44.3901ZM605.686 35.6457C605.721 33.6395 605.017 31.7675 603.819 30.2535C602.621 31.7675 601.916 33.6395 601.952 35.6457C601.986 37.579 602.675 39.3607 603.819 40.8042C604.963 39.3607 605.652 37.5792 605.686 35.6457ZM599.183 35.6892C599.134 32.942 600.145 30.399 601.845 28.3913C600.262 27.2754 598.311 26.6099 596.228 26.6099C591.05 26.6099 586.684 30.7248 586.771 35.6457C586.857 40.4954 591.063 44.3901 596.229 44.3901C598.328 44.3901 600.269 43.747 601.839 42.6576C600.216 40.7413 599.229 38.3252 599.183 35.6892ZM623.636 35.6892C623.685 32.942 622.674 30.399 620.974 28.3911C622.556 27.2754 624.508 26.6099 626.59 26.6099C628.673 26.6099 630.624 27.2754 632.208 28.3913C630.507 30.399 629.497 32.942 629.545 35.6892C629.592 38.3252 630.578 40.7413 632.201 42.6576C630.631 43.747 628.69 44.3901 626.591 44.3901C624.492 44.3901 622.551 43.7468 620.981 42.6576C622.603 40.7413 623.589 38.3252 623.636 35.6892ZM632.314 35.6457C632.279 33.6395 632.983 31.7673 634.181 30.2533C635.379 31.7673 636.084 33.6395 636.048 35.6457C636.014 37.5792 635.325 39.3607 634.181 40.8042C633.038 39.3607 632.349 37.579 632.314 35.6457ZM641.772 44.3901C639.673 44.3901 637.732 43.7468 636.162 42.6576C637.784 40.7415 638.77 38.3254 638.817 35.6894C638.866 32.9418 637.855 30.3988 636.155 28.3911C637.738 27.2754 639.689 26.6099 641.772 26.6099C646.95 26.6099 651.316 30.7244 651.229 35.6457C651.143 40.4962 646.937 44.3901 641.772 44.3901ZM620.867 35.707C620.902 33.7008 620.198 31.8288 619 30.3148C617.802 31.8288 617.098 33.7008 617.133 35.707C617.167 37.6403 617.856 39.4219 619 40.8655C620.143 39.4219 620.833 37.6405 620.867 35.707Z" fill="#242424"/>
<path d="M609.899 78.512H605.825L605.125 80.5H603.459L606.945 70.756H608.793L612.279 80.5H610.599L609.899 78.512ZM609.451 77.21L607.869 72.688L606.273 77.21H609.451ZM620.781 72.786V80.5H619.185V79.59C618.933 79.9073 618.602 80.1593 618.191 80.346C617.79 80.5233 617.36 80.612 616.903 80.612C616.296 80.612 615.75 80.486 615.265 80.234C614.789 79.982 614.411 79.6087 614.131 79.114C613.86 78.6193 613.725 78.022 613.725 77.322V72.786H615.307V77.084C615.307 77.7747 615.48 78.3067 615.825 78.68C616.17 79.044 616.642 79.226 617.239 79.226C617.836 79.226 618.308 79.044 618.653 78.68C619.008 78.3067 619.185 77.7747 619.185 77.084V72.786H620.781ZM622.355 76.608C622.355 75.8333 622.514 75.1473 622.831 74.55C623.158 73.9527 623.596 73.4907 624.147 73.164C624.707 72.828 625.328 72.66 626.009 72.66C626.513 72.66 627.008 72.772 627.493 72.996C627.988 73.2107 628.38 73.5 628.669 73.864V70.14H630.279V80.5H628.669V79.338C628.408 79.7113 628.044 80.0193 627.577 80.262C627.12 80.5047 626.592 80.626 625.995 80.626C625.323 80.626 624.707 80.458 624.147 80.122C623.596 79.7767 623.158 79.3007 622.831 78.694C622.514 78.078 622.355 77.3827 622.355 76.608ZM628.669 76.636C628.669 76.104 628.557 75.642 628.333 75.25C628.118 74.858 627.834 74.5593 627.479 74.354C627.124 74.1487 626.742 74.046 626.331 74.046C625.92 74.046 625.538 74.1487 625.183 74.354C624.828 74.55 624.539 74.844 624.315 75.236C624.1 75.6187 623.993 76.076 623.993 76.608C623.993 77.14 624.1 77.6067 624.315 78.008C624.539 78.4093 624.828 78.7173 625.183 78.932C625.547 79.1373 625.93 79.24 626.331 79.24C626.742 79.24 627.124 79.1373 627.479 78.932C627.834 78.7267 628.118 78.428 628.333 78.036C628.557 77.6347 628.669 77.168 628.669 76.636ZM633.187 71.764C632.898 71.764 632.655 71.666 632.459 71.47C632.263 71.274 632.165 71.0313 632.165 70.742C632.165 70.4527 632.263 70.21 632.459 70.014C632.655 69.818 632.898 69.72 633.187 69.72C633.467 69.72 633.705 69.818 633.901 70.014C634.097 70.21 634.195 70.4527 634.195 70.742C634.195 71.0313 634.097 71.274 633.901 71.47C633.705 71.666 633.467 71.764 633.187 71.764ZM633.971 72.786V80.5H632.375V72.786H633.971Z" fill="#242424"/>
</svg>
