<svg width="738" height="475" viewBox="0 0 738 475" fill="none" xmlns="http://www.w3.org/2000/svg">
<g clip-path="url(#clip0_818_238)" filter="url(#filter0_d_818_238)">
<rect width="658" height="395" transform="translate(40)" fill="#4842FB"/>
<path fill-rule="evenodd" clip-rule="evenodd" d="M-171.021 124.285C-166.12 120.701 -159.241 121.769 -155.657 126.67L-78.132 232.69L-42.7119 148.981C-41.024 144.992 -37.1511 142.366 -32.8205 142.274C-28.4899 142.182 -24.5087 144.641 -22.6526 148.555L19.232 236.87L87.0411 147.673C89.8925 143.922 94.817 142.405 99.2848 143.901C103.753 145.397 106.77 149.574 106.788 154.285L107.256 278.873L180.139 209.377C183.57 206.106 188.71 205.402 192.894 207.63C197.078 209.858 199.363 214.517 198.563 219.189L179.088 332.979L284.199 322.282C288.947 321.799 293.465 324.434 295.381 328.806C297.298 333.177 296.175 338.286 292.601 341.45L224.728 401.563L345.716 420.156C350.239 420.851 353.858 424.274 354.803 428.752C355.749 433.229 353.822 437.823 349.966 440.287L227.124 518.783C222.007 522.052 215.209 520.555 211.939 515.438C208.67 510.322 210.167 503.523 215.284 500.254L313.553 437.46L198.225 419.737C194.011 419.089 190.551 416.064 189.348 411.973C188.144 407.883 189.414 403.466 192.606 400.639L252.478 347.613L166.925 356.32C163.506 356.668 160.122 355.398 157.777 352.887C155.432 350.376 154.395 346.914 154.974 343.527L171.29 248.198L103.944 312.413C100.766 315.444 96.0886 316.292 92.0481 314.571C88.0077 312.85 85.3792 308.889 85.3627 304.497L84.9209 186.796L25.7969 264.569C23.4739 267.625 19.7254 269.248 15.9076 268.851C12.0897 268.454 8.7552 266.095 7.11039 262.626L-32.0149 180.129L-65.4369 259.115C-66.9795 262.761 -70.3627 265.296 -74.2948 265.752C-78.2269 266.208 -82.1007 264.516 -84.4373 261.32L-173.406 139.65C-176.991 134.748 -175.923 127.869 -171.021 124.285Z" fill="#BEBCF5" fill-opacity="0.08"/>
<path fill-rule="evenodd" clip-rule="evenodd" d="M805.122 303.12C799.46 305.313 793.092 302.501 790.899 296.839L743.456 174.367L687.577 246.056C684.914 249.472 680.494 251.007 676.287 249.975C672.08 248.943 668.871 245.537 668.091 241.276L650.491 145.129L561.907 213.737C558.182 216.622 553.032 216.813 549.104 214.212C545.176 211.61 543.342 206.795 544.544 202.239L576.338 81.776L487.951 130.04C483.791 132.311 478.643 131.661 475.179 128.426C471.714 125.191 470.713 120.1 472.694 115.794L520.957 10.9212L416.659 -5.95025C411.947 -6.71246 408.266 -10.4277 407.546 -15.1462C406.827 -19.8648 409.234 -24.5085 413.504 -26.6405L494.622 -67.1376L382.57 -116.411C378.381 -118.253 375.771 -122.497 376.017 -127.066C376.262 -131.635 379.313 -135.575 383.675 -136.957L522.647 -180.984C528.436 -182.818 534.615 -179.612 536.449 -173.823C538.283 -168.034 535.077 -161.855 529.288 -160.021L418.116 -124.801L524.927 -77.833C528.829 -76.1167 531.388 -72.2988 531.492 -68.0365C531.596 -63.7742 529.226 -59.8361 525.412 -57.9317L453.855 -22.2082L538.747 -8.47582C542.139 -7.92718 545.079 -5.82458 546.694 -2.79242C548.31 0.239752 548.415 3.85284 546.979 6.97393L506.547 94.8318L588.217 50.2354C592.072 48.1306 596.809 48.5217 600.267 51.23C603.724 53.9384 605.238 58.4444 604.117 62.6908L574.08 176.496L651.319 116.675C654.354 114.325 658.395 113.728 661.98 115.099C665.565 116.471 668.175 119.612 668.866 123.388L685.306 213.201L738.033 145.556C740.466 142.434 744.39 140.861 748.306 141.438C752.223 142.015 755.526 144.653 756.956 148.344L811.403 288.896C813.596 294.558 810.785 300.926 805.122 303.12Z" fill="#BEBCF5" fill-opacity="0.08"/>
</g>
<defs>
<filter id="filter0_d_818_238" x="0" y="0" width="738" height="475" filterUnits="userSpaceOnUse" color-interpolation-filters="sRGB">
<feFlood flood-opacity="0" result="BackgroundImageFix"/>
<feColorMatrix in="SourceAlpha" type="matrix" values="0 0 0 0 0 0 0 0 0 0 0 0 0 0 0 0 0 0 127 0" result="hardAlpha"/>
<feOffset dy="40"/>
<feGaussianBlur stdDeviation="20"/>
<feComposite in2="hardAlpha" operator="out"/>
<feColorMatrix type="matrix" values="0 0 0 0 0.0784314 0 0 0 0 0.0784314 0 0 0 0 0.0784314 0 0 0 0.04 0"/>
<feBlend mode="normal" in2="BackgroundImageFix" result="effect1_dropShadow_818_238"/>
<feBlend mode="normal" in="SourceGraphic" in2="effect1_dropShadow_818_238" result="shape"/>
</filter>
<clipPath id="clip0_818_238">
<rect width="658" height="395" fill="white" transform="translate(40)"/>
</clipPath>
</defs>
</svg>
