<svg width="63" height="63" viewBox="0 0 63 63" fill="none" xmlns="http://www.w3.org/2000/svg">
<path d="M56.737 58.1572L48.6207 57.1793C43.482 60.6061 37.254 62.5568 30.5209 62.3882C14.6396 61.9898 1.42461 49.3492 0.309079 33.5241C-0.97903 15.2388 13.7292 -0.231713 32.2167 0.24409C47.9116 0.647461 61.019 12.9909 62.3647 28.6112C63.0325 36.3627 60.8139 43.6258 56.647 49.4216L56.6607 49.4104L56.737 58.1572Z" fill="#D3FF3C"/>
<path d="M56.7363 58.1572C56.7363 58.1572 56.7213 57.9499 56.7101 57.5665C56.7001 57.1619 56.6863 56.6011 56.6688 55.8756C56.64 54.3795 56.5988 52.2115 56.5463 49.4116L56.7326 49.4991C56.7326 49.4991 56.7238 49.5066 56.7188 49.5103C56.6701 49.5503 56.5975 49.5428 56.5575 49.4953C56.5237 49.4541 56.525 49.3967 56.5538 49.3555C58.7635 46.2222 61.2147 41.574 62.0151 35.506C62.424 32.4901 62.3753 29.1594 61.755 25.6952C61.1059 22.2397 59.7928 18.6718 57.7343 15.31C55.6633 11.9619 52.8282 8.84478 49.3303 6.33339C45.8387 3.83324 41.688 1.88384 37.1333 1.07085C32.5999 0.220399 27.7226 0.391488 23.0229 1.67903C18.3094 2.93784 13.8511 5.49795 10.1706 8.98467C8.25843 10.7056 6.72021 12.7561 5.30704 14.8329C4.67924 15.9206 4.03519 16.9996 3.49868 18.1211L2.76208 19.8307L2.39941 20.6836L2.12429 21.5653C0.561047 26.2359 0.212128 31.1463 0.846178 35.7533C1.45772 40.3802 3.26857 44.6411 5.64845 48.2552C8.04708 51.8743 11.0898 54.8403 14.3901 57.0445C17.7016 59.2387 21.2496 60.6861 24.7025 61.4629C25.5741 61.6152 26.432 61.7663 27.2749 61.9137C28.1203 62.0423 28.9645 62.0598 29.7861 62.1372C31.4331 62.2646 33.0314 62.1884 34.5496 62.0473C40.6613 61.4466 45.386 59.1613 48.5587 57.0845C48.5812 57.0695 48.6087 57.0632 48.6338 57.067C51.215 57.4066 53.2247 57.6701 54.6153 57.8525C55.2869 57.9449 55.8097 58.0161 56.1873 58.0673C56.5437 58.121 56.7363 58.1572 56.7363 58.1572C56.7363 58.1572 56.57 58.1497 56.2236 58.116C55.8509 58.0773 55.3357 58.0236 54.6716 57.9549C53.2609 57.8 51.225 57.5765 48.6063 57.2893L48.6813 57.2718C45.5135 59.4048 40.7638 61.7576 34.5859 62.4069C33.0502 62.5593 31.4344 62.6467 29.7661 62.5281C28.9332 62.4557 28.0778 62.4407 27.2199 62.3158C26.3645 62.1709 25.4953 62.0223 24.6099 61.8724C21.1058 61.1019 17.5003 59.6508 14.13 57.4366C10.7721 55.2124 7.67191 52.2103 5.2245 48.5387C2.7946 44.8734 0.944977 40.5413 0.312177 35.8332C-0.341882 31.1463 0.00703503 26.1485 1.59404 21.3905L1.87417 20.4926L2.24184 19.6234C2.49071 19.0439 2.74082 18.4645 2.99094 17.8813C3.5362 16.7399 4.19151 15.6397 4.83056 14.5332C6.26749 12.4164 7.83574 10.3296 9.78041 8.57753C13.5284 5.02711 18.0706 2.42332 22.8703 1.14452C27.6576 -0.164251 32.6187 -0.330339 37.2321 0.542591C41.8656 1.37806 46.0851 3.37119 49.6255 5.92129C53.1734 8.48264 56.041 11.6584 58.132 15.0652C60.2092 18.4845 61.5249 22.1111 62.1664 25.6178C62.778 29.1332 62.8067 32.5038 62.374 35.5534C61.5236 41.6877 59.0037 46.3608 56.7388 49.4878L56.5738 49.333C56.5788 49.3292 56.5875 49.3217 56.5875 49.3217C56.6363 49.2818 56.7076 49.288 56.7476 49.3367C56.7651 49.358 56.7739 49.3842 56.7739 49.4092C56.7689 52.2403 56.7664 54.4332 56.7639 55.9455C56.7589 56.6586 56.7551 57.2106 56.7514 57.6089C56.7476 57.9811 56.7363 58.1572 56.7363 58.1572Z" fill="#8AB200"/>
<path d="M17.6035 33.2207L21.5029 29.0521L29.5229 35.6983L44.3036 20.4951L48.1892 24.399L29.2115 43.4923L17.6035 33.2207Z" fill="#4842FB"/>
</svg>
