<svg width="64" height="64" viewBox="0 0 64 64" fill="none" xmlns="http://www.w3.org/2000/svg">
<g clip-path="url(#clip0_646_637)">
<rect width="64" height="64" fill="#5915EC"/>
<g clip-path="url(#clip1_646_637)">
<path d="M125.736 27.8682C125.736 22.9708 121.691 19 116.702 19H88.5135V43.631H94.2282V24.329H116.89C118.842 24.329 120.423 25.8812 120.423 27.798C120.423 29.7148 118.842 31.267 116.89 31.267H100.941C99.2921 31.267 98.5117 34.0435 99.9191 34.8899C101.327 35.7362 114.732 43.6276 114.732 43.6276H125.242L115.397 36.7331H116.706C121.694 36.7331 125.739 32.7623 125.739 27.8649L125.736 27.8682Z" fill="white"/>
<path d="M78.0109 19H60.0284C55.1145 19 51.1342 22.9106 51.1342 27.7311V43.6276H56.7331V37.7467H81.2687V43.6276H86.905V27.7311C86.905 22.9072 82.9214 19 78.0109 19ZM56.7331 32.391V28.0422C56.7331 25.9447 58.4642 24.242 60.6043 24.242H77.4009C79.5376 24.242 81.2721 25.9414 81.2721 28.0422V32.391H56.7331Z" fill="white"/>
<path d="M127.188 19V34.6724C127.188 39.62 131.274 43.631 136.314 43.631H157.458V38.2485H136.61C134.572 38.2485 132.923 36.6261 132.923 34.629V19H127.188Z" fill="white"/>
<path d="M188.298 19.0234H169.287C162.359 19.0234 156.743 24.5364 156.743 31.3372C156.743 38.1381 162.359 43.6511 169.287 43.6511H188.298C195.226 43.6511 200.842 38.1381 200.842 31.3372C200.842 24.5364 195.226 19.0234 188.298 19.0234ZM195.206 31.3372C195.206 35.1809 192.033 38.2953 188.118 38.2953H169.467C165.552 38.2953 162.379 35.1809 162.379 31.3372C162.379 27.4936 165.552 24.3791 169.467 24.3791H188.118C192.033 24.3791 195.206 27.4936 195.206 31.3372Z" fill="white"/>
<path d="M49.6076 19V24.4962H21.3065C19.313 24.4962 17.6943 26.0819 17.6943 28.0422V34.6825C17.6943 36.6394 19.3096 38.2284 21.3065 38.2284H49.6076V43.631H21.5825C16.2903 43.631 12 39.4193 12 34.2242V28.4102C12 23.2117 16.2903 19 21.5825 19H49.6076Z" fill="white"/>
<path d="M129.663 47.5116V46.7676H135.758V47.5116H133.203V53.6933H132.219V47.5116H129.663Z" fill="white"/>
<path d="M139.715 51.5696V48.499H140.652V53.6933H139.715V52.814H139.652C139.509 53.0778 139.287 53.3021 138.985 53.487C138.683 53.6696 138.302 53.7609 137.842 53.7609C137.461 53.7609 137.123 53.6899 136.826 53.5479C136.53 53.4036 136.297 53.1872 136.128 52.8986C135.959 52.6078 135.874 52.2414 135.874 51.7995V48.499H136.81V51.7454C136.81 52.1242 136.935 52.4263 137.183 52.6517C137.435 52.8772 137.755 52.9899 138.144 52.9899C138.377 52.9899 138.613 52.9392 138.854 52.8377C139.097 52.7363 139.301 52.5807 139.465 52.371C139.632 52.1614 139.715 51.8942 139.715 51.5696Z" fill="white"/>
<path d="M144.743 53.6933V46.7676H147.489C148.126 46.7676 148.648 46.8657 149.052 47.0618C149.46 47.2557 149.761 47.5183 149.957 47.8497C150.153 48.1811 150.251 48.5509 150.251 48.9589C150.251 49.367 150.153 49.7378 149.957 50.0715C149.764 50.4052 149.465 50.6712 149.06 50.8696C148.655 51.0657 148.137 51.1638 147.505 51.1638H145.536V50.4198H147.473C147.909 50.4198 148.26 50.3556 148.524 50.2271C148.789 50.0986 148.981 49.925 149.1 49.7063C149.222 49.4853 149.282 49.2362 149.282 48.9589C149.282 48.6816 149.222 48.4336 149.1 48.215C148.981 47.9963 148.788 47.8249 148.521 47.7009C148.253 47.5747 147.899 47.5116 147.457 47.5116H145.727V53.6933H144.743Z" fill="white"/>
<path d="M151.262 53.6933V48.499H152.167V49.2836H152.23C152.341 49.0266 152.542 48.818 152.833 48.658C153.124 48.4979 153.452 48.4179 153.818 48.4179C153.886 48.4179 153.972 48.419 154.075 48.4212C154.179 48.4235 154.257 48.4269 154.31 48.4314V49.243C154.278 49.2362 154.205 49.2261 154.091 49.2126C153.98 49.1968 153.863 49.1889 153.738 49.1889C153.442 49.1889 153.177 49.2419 152.945 49.3478C152.714 49.4515 152.532 49.5958 152.397 49.7807C152.265 49.9633 152.199 50.1718 152.199 50.4063V53.6933H151.262Z" fill="white"/>
<path d="M154.973 53.6933V48.499H155.909V53.6933H154.973ZM155.449 47.6333C155.266 47.6333 155.109 47.5803 154.977 47.4744C154.847 47.3684 154.782 47.241 154.782 47.0922C154.782 46.9435 154.847 46.8161 154.977 46.7101C155.109 46.6042 155.266 46.5512 155.449 46.5512C155.631 46.5512 155.788 46.6042 155.917 46.7101C156.049 46.8161 156.116 46.9435 156.116 47.0922C156.116 47.241 156.049 47.3684 155.917 47.4744C155.788 47.5803 155.631 47.6333 155.449 47.6333Z" fill="white"/>
<path d="M157.178 53.6933V48.499H158.082V49.3106H158.162C158.289 49.0333 158.494 48.818 158.777 48.6647C159.06 48.5092 159.4 48.4314 159.797 48.4314C160.199 48.4314 160.533 48.5092 160.801 48.6647C161.07 48.818 161.281 49.0333 161.431 49.3106H161.495C161.651 49.0423 161.885 48.8293 162.197 48.6715C162.51 48.5114 162.884 48.4314 163.32 48.4314C163.865 48.4314 164.311 48.5768 164.658 48.8676C165.004 49.1562 165.178 49.606 165.178 50.2169V53.6933H164.241V50.2169C164.241 49.8337 164.118 49.5597 163.872 49.3952C163.626 49.2306 163.336 49.1483 163.003 49.1483C162.574 49.1483 162.242 49.2588 162.007 49.4797C161.771 49.6984 161.654 49.9757 161.654 50.3116V53.6933H160.701V50.1358C160.701 49.8404 160.589 49.6026 160.364 49.4222C160.139 49.2396 159.85 49.1483 159.495 49.1483C159.252 49.1483 159.024 49.2035 158.812 49.314C158.603 49.4245 158.434 49.5778 158.305 49.7739C158.178 49.9678 158.114 50.1921 158.114 50.4469V53.6933H157.178Z" fill="white"/>
<path d="M168.998 53.8015C168.411 53.8015 167.904 53.691 167.479 53.4701C167.055 53.2469 166.729 52.9358 166.498 52.5367C166.271 52.1355 166.157 51.6688 166.157 51.1367C166.157 50.6047 166.271 50.1358 166.498 49.73C166.729 49.3219 167.049 49.004 167.459 48.7763C167.871 48.5464 168.353 48.4314 168.903 48.4314C169.221 48.4314 169.534 48.4765 169.844 48.5667C170.153 48.6568 170.435 48.8034 170.689 49.0063C170.943 49.2069 171.145 49.4729 171.296 49.8044C171.447 50.1358 171.522 50.5438 171.522 51.0285V51.3667H166.824V50.6768H170.57C170.57 50.3837 170.501 50.1222 170.363 49.8923C170.229 49.6623 170.035 49.4808 169.784 49.3478C169.535 49.2148 169.242 49.1483 168.903 49.1483C168.53 49.1483 168.207 49.2272 167.935 49.385C167.665 49.5406 167.457 49.7435 167.312 49.9937C167.166 50.244 167.094 50.5122 167.094 50.7986V51.2585C167.094 51.6507 167.173 51.9833 167.332 52.2561C167.493 52.5266 167.717 52.7329 168.002 52.8749C168.288 53.0147 168.62 53.0846 168.998 53.0846C169.244 53.0846 169.467 53.0553 169.665 52.9967C169.866 52.9358 170.039 52.8456 170.185 52.7261C170.33 52.6044 170.443 52.4533 170.522 52.273L171.427 52.4894C171.332 52.7509 171.172 52.9809 170.947 53.1793C170.722 53.3754 170.444 53.5287 170.113 53.6392C169.783 53.7474 169.411 53.8015 168.998 53.8015Z" fill="white"/>
<path d="M172.5 53.6933V48.499H173.405V49.2836H173.468C173.579 49.0266 173.78 48.818 174.071 48.658C174.362 48.4979 174.69 48.4179 175.055 48.4179C175.124 48.4179 175.21 48.419 175.313 48.4212C175.416 48.4235 175.494 48.4269 175.547 48.4314V49.243C175.516 49.2362 175.443 49.2261 175.329 49.2126C175.218 49.1968 175.1 49.1889 174.976 49.1889C174.68 49.1889 174.415 49.2419 174.182 49.3478C173.952 49.4515 173.77 49.5958 173.635 49.7807C173.502 49.9633 173.436 50.1718 173.436 50.4063V53.6933H172.5Z" fill="white"/>
<path d="M179.367 53.6933H178.335L181.319 46.7676H182.335L185.319 53.6933H184.287L181.859 47.8633H181.795L179.367 53.6933ZM179.748 50.9879H183.906V51.7319H179.748V50.9879Z" fill="white"/>
<path d="M189.852 51.5696V48.499H190.789V53.6933H189.852V52.814H189.789C189.646 53.0778 189.424 53.3021 189.122 53.487C188.82 53.6696 188.44 53.7609 187.979 53.7609C187.598 53.7609 187.26 53.6899 186.963 53.5479C186.667 53.4036 186.434 53.1872 186.265 52.8986C186.096 52.6078 186.011 52.2414 186.011 51.7995V48.499H186.947V51.7454C186.947 52.1242 187.072 52.4263 187.32 52.6517C187.572 52.8772 187.892 52.9899 188.281 52.9899C188.514 52.9899 188.75 52.9392 188.991 52.8377C189.234 52.7363 189.438 52.5807 189.602 52.371C189.769 52.1614 189.852 51.8942 189.852 51.5696Z" fill="white"/>
<path d="M194.708 48.499V49.1754H191.549V48.499H194.708ZM192.47 47.2546H193.406V52.2053C193.406 52.4308 193.445 52.5999 193.521 52.7126C193.601 52.8231 193.701 52.8975 193.823 52.9358C193.947 52.9719 194.078 52.9899 194.216 52.9899C194.319 52.9899 194.404 52.9854 194.47 52.9764C194.536 52.9651 194.589 52.9561 194.628 52.9493L194.819 53.6662C194.755 53.6865 194.667 53.7068 194.553 53.7271C194.439 53.7496 194.295 53.7609 194.12 53.7609C193.856 53.7609 193.597 53.7124 193.343 53.6155C193.091 53.5186 192.882 53.3709 192.716 53.1725C192.552 52.9741 192.47 52.7239 192.47 52.4218V47.2546Z" fill="white"/>
<path d="M198.08 53.8015C197.53 53.8015 197.047 53.6899 196.632 53.4667C196.219 53.2435 195.896 52.9313 195.664 52.53C195.433 52.1287 195.318 51.6598 195.318 51.1232C195.318 50.5821 195.433 50.1098 195.664 49.7063C195.896 49.3027 196.219 48.9894 196.632 48.7662C197.047 48.543 197.53 48.4314 198.08 48.4314C198.63 48.4314 199.112 48.543 199.525 48.7662C199.94 48.9894 200.263 49.3027 200.493 49.7063C200.726 50.1098 200.842 50.5821 200.842 51.1232C200.842 51.6598 200.726 52.1287 200.493 52.53C200.263 52.9313 199.94 53.2435 199.525 53.4667C199.112 53.6899 198.63 53.8015 198.08 53.8015ZM198.08 53.0846C198.498 53.0846 198.842 52.9933 199.112 52.8107C199.382 52.6281 199.582 52.388 199.711 52.0904C199.841 51.7928 199.906 51.4704 199.906 51.1232C199.906 50.776 199.841 50.4525 199.711 50.1527C199.582 49.8528 199.382 49.6105 199.112 49.4256C198.842 49.2407 198.498 49.1483 198.08 49.1483C197.662 49.1483 197.318 49.2407 197.048 49.4256C196.779 49.6105 196.579 49.8528 196.449 50.1527C196.32 50.4525 196.255 50.776 196.255 51.1232C196.255 51.4704 196.32 51.7928 196.449 52.0904C196.579 52.388 196.779 52.6281 197.048 52.8107C197.318 52.9933 197.662 53.0846 198.08 53.0846Z" fill="white"/>
</g>
</g>
<defs>
<clipPath id="clip0_646_637">
<rect width="64" height="64" rx="32" fill="white"/>
</clipPath>
<clipPath id="clip1_646_637">
<rect width="39" height="25" fill="white" transform="translate(12 19)"/>
</clipPath>
</defs>
</svg>
