<svg width="1232" height="420" viewBox="0 0 1232 420" fill="none" xmlns="http://www.w3.org/2000/svg">
<path fill-rule="evenodd" clip-rule="evenodd" d="M542.522 7.46493C576.091 22.2211 597.019 56.1908 595.082 92.7811L593.995 113.33L675.833 34.5483C702.009 9.34897 740.978 2.77437 773.986 17.9885C806.993 33.2027 827.279 67.0894 825.079 103.341L824.621 110.887C841.815 93.5798 857.384 77.7975 869.712 65.2587C878.371 56.4514 885.419 49.2557 890.296 44.2698C892.734 41.7771 894.628 39.8374 895.908 38.5257C896.34 38.0832 896.702 37.7122 896.991 37.4156L897.831 36.5544L897.835 36.5501C897.835 36.55 897.835 36.5499 898.823 37.5102L897.835 36.5501C922.234 11.4989 959.147 3.22307 991.921 15.4564C1024.69 27.6898 1047.13 58.1195 1049.11 93.0178L1051.43 133.804L1091.04 104.276C1130.08 75.1675 1185.35 83.192 1214.48 122.199C1243.62 161.205 1235.58 216.423 1196.54 245.531L1025.41 373.117C999.387 392.52 964.795 396.067 935.367 382.35C905.939 368.633 886.435 339.871 884.596 307.48L884.199 300.5C844.852 339.303 805.243 377.393 780.227 398.801C753.334 421.816 715.272 426.532 683.567 410.778C651.861 395.023 632.659 361.853 634.802 326.54L635.3 318.322L555.303 395.332C529.215 420.446 490.412 427.069 457.459 412.034C424.506 396.999 404.105 363.362 406.018 327.219L406.606 316.1L330.45 393.607C307.211 417.258 272.656 425.883 241.015 415.93C209.374 405.976 185.997 379.128 180.513 346.442L173.896 307.005L147.611 330.931C111.601 363.709 55.8124 361.116 23.0041 325.138C-9.80423 289.161 -7.20859 233.423 28.8016 200.645L174.725 67.8177C198.594 46.0912 232.437 39.1312 262.954 49.6734C293.471 60.2155 315.783 86.5747 321.122 118.391L325.868 146.677L444.054 26.3931C469.746 0.24522 508.953 -7.29127 542.522 7.46493Z" fill="#4842FB"/>
</svg>
