<svg width="393" height="314" viewBox="0 0 393 314" fill="none" xmlns="http://www.w3.org/2000/svg">
<path fill-rule="evenodd" clip-rule="evenodd" d="M188.141 70.6589C188.409 42.777 172.056 17.2595 146.361 5.94139C119.733 -5.78747 88.6264 0.178532 68.2276 20.9267L-6.61847 97.0544L-7.73296 90.4163C-11.9737 65.1574 -29.6709 44.2312 -53.875 35.8553C-78.0791 27.4794 -104.925 32.9912 -123.871 50.2263L-228.104 145.047C-256.701 171.062 -258.795 215.334 -232.78 243.931C-206.765 272.529 -162.492 274.622 -133.895 248.607L-124.559 240.114L-121.961 255.592C-117.604 281.542 -99.0629 302.857 -73.9665 310.765C-48.8702 318.674 -21.4586 311.841 -3.01111 293.078L39.1973 250.146C41.3778 274.975 56.7047 297.094 79.8242 307.664C105.963 319.615 136.75 314.373 157.461 294.447L202.666 250.957C205.025 274.64 219.359 295.829 241.124 306.665C266.272 319.186 296.47 315.459 317.82 297.199C333.659 283.653 357.506 260.938 382.135 236.825C386.476 258.431 400.829 276.966 421.148 286.453C444.489 297.352 471.93 294.55 492.587 279.158L614.824 188.08C645.825 164.981 652.231 121.125 629.132 90.1242C606.034 59.1235 562.178 52.7175 531.177 75.8161L513.271 89.1574L512.358 73.0852C510.784 45.3755 492.987 21.2129 466.992 11.4907C440.996 1.76844 411.711 8.32299 392.34 28.1993L392.337 28.2023L392.002 28.5458C391.772 28.7823 391.425 29.1375 390.969 29.6048C390.056 30.5395 388.705 31.9223 386.965 33.6998C383.486 37.2553 378.455 42.3876 372.275 48.6699C366.43 54.6112 359.565 61.5729 352.018 69.1958C349.309 45.1732 334.276 23.8832 311.808 13.5062C285.627 1.41369 254.708 6.61595 233.925 26.6107L188.141 70.6589Z" fill="#4842FB"/>
</svg>
