<svg width="130" height="25" viewBox="0 0 130 25" fill="none" xmlns="http://www.w3.org/2000/svg">
<g id="Logo-svg">
<g id="Logo-svg_2">
<path d="M78.2965 6.61576C78.2965 3.23836 75.5119 0.5 72.0776 0.5H52.6723V17.4862H56.6064V4.17499H72.2066C73.5508 4.17499 74.6393 5.24542 74.6393 6.56731C74.6393 7.8892 73.5508 8.95963 72.2066 8.95963H61.2278C60.0924 8.95963 59.5552 10.8744 60.524 11.4581C61.4929 12.0417 70.7216 17.4839 70.7216 17.4839H77.9564L71.1791 12.7292H72.0799C75.5143 12.7292 78.2989 9.99084 78.2989 6.61345L78.2965 6.61576Z" fill="white"/>
<path d="M45.4423 0.5H33.063C29.6802 0.5 26.9402 3.19684 26.9402 6.52117V17.4839H30.7945V13.4282H47.685V17.4839H51.5651V6.52117C51.5651 3.19453 48.8227 0.5 45.4423 0.5ZM30.7945 9.73477V6.73572C30.7945 5.28925 31.9862 4.11501 33.4595 4.11501H45.0224C46.4933 4.11501 47.6873 5.28695 47.6873 6.73572V9.73477H30.7945Z" fill="white"/>
<path d="M79.2959 0.5V11.3081C79.2959 14.7201 82.1086 17.4862 85.5782 17.4862H100.134V13.7743H85.7823C84.3794 13.7743 83.244 12.6554 83.244 11.2781V0.5H79.2959Z" fill="white"/>
<path d="M121.365 0.516149H108.277C103.508 0.516149 99.6418 4.31802 99.6418 9.00807C99.6418 13.6981 103.508 17.5 108.277 17.5H121.365C126.134 17.5 130 13.6981 130 9.00807C130 4.31802 126.134 0.516149 121.365 0.516149ZM126.12 9.00807C126.12 11.6588 123.936 13.8066 121.24 13.8066H108.401C105.706 13.8066 103.522 11.6588 103.522 9.00807C103.522 6.35738 105.706 4.20959 108.401 4.20959H121.24C123.936 4.20959 126.12 6.35738 126.12 9.00807Z" fill="white"/>
<path d="M25.8893 0.5V4.29034H6.40663C5.03429 4.29034 3.91999 5.38384 3.91999 6.73572V11.315C3.91999 12.6646 5.03194 13.7604 6.40663 13.7604H25.8893V17.4862H6.59665C2.95348 17.4862 0 14.5817 0 10.999V6.98948C0 3.40446 2.95348 0.5 6.59665 0.5H25.8893Z" fill="white"/>
<path d="M81 20.1623V19.6493H85.196V20.1623H83.4367V24.4254H82.7593V20.1623H81Z" fill="white"/>
<path d="M87.9198 22.9608V20.8433H88.5645V24.4254H87.9198V23.819H87.8761C87.7778 24.0009 87.6248 24.1556 87.4172 24.2831C87.2096 24.409 86.9473 24.472 86.6304 24.472C86.3682 24.472 86.1351 24.423 85.9311 24.3251C85.7271 24.2256 85.5669 24.0763 85.4503 23.8773C85.3338 23.6768 85.2755 23.4241 85.2755 23.1194V20.8433H85.9202V23.0821C85.9202 23.3433 86.0058 23.5516 86.177 23.7071C86.35 23.8626 86.5704 23.9403 86.8381 23.9403C86.9983 23.9403 87.1613 23.9053 87.327 23.8354C87.4946 23.7654 87.6348 23.6581 87.7477 23.5135C87.8625 23.3689 87.9198 23.1847 87.9198 22.9608Z" fill="white"/>
<path d="M91.3809 24.4254V19.6493H93.2713C93.7102 19.6493 94.0689 19.7169 94.3476 19.8521C94.628 19.9859 94.8357 20.167 94.9704 20.3955C95.1052 20.6241 95.1726 20.879 95.1726 21.1604C95.1726 21.4419 95.1052 21.6976 94.9704 21.9277C94.8375 22.1578 94.6317 22.3413 94.353 22.4781C94.0744 22.6133 93.7175 22.681 93.2822 22.681H91.9272V22.1679H93.2603C93.5608 22.1679 93.8021 22.1236 93.9843 22.035C94.1664 21.9464 94.2984 21.8266 94.3804 21.6758C94.4641 21.5235 94.506 21.3517 94.506 21.1604C94.506 20.9692 94.4641 20.7982 94.3804 20.6474C94.2984 20.4966 94.1655 20.3784 93.9815 20.2929C93.7976 20.2058 93.5536 20.1623 93.2494 20.1623H92.0584V24.4254H91.3809Z" fill="white"/>
<path d="M95.8688 24.4254V20.8433H96.4916V21.3843H96.5353C96.6118 21.2071 96.7502 21.0633 96.9506 20.9529C97.1509 20.8425 97.3767 20.7873 97.628 20.7873C97.6754 20.7873 97.7346 20.7881 97.8056 20.7896C97.8766 20.7912 97.9304 20.7935 97.9668 20.7966V21.3563C97.9449 21.3517 97.8948 21.3447 97.8165 21.3354C97.74 21.3245 97.659 21.319 97.5734 21.319C97.3694 21.319 97.1873 21.3556 97.027 21.4286C96.8686 21.5002 96.743 21.5997 96.6501 21.7271C96.559 21.8531 96.5135 21.9969 96.5135 22.1586V24.4254H95.8688Z" fill="white"/>
<path d="M98.4233 24.4254V20.8433H99.068V24.4254H98.4233ZM98.7511 20.2463C98.6254 20.2463 98.5171 20.2097 98.426 20.1367C98.3368 20.0636 98.2922 19.9757 98.2922 19.8731C98.2922 19.7705 98.3368 19.6827 98.426 19.6096C98.5171 19.5365 98.6254 19.5 98.7511 19.5C98.8767 19.5 98.9842 19.5365 99.0734 19.6096C99.1645 19.6827 99.21 19.7705 99.21 19.8731C99.21 19.9757 99.1645 20.0636 99.0734 20.1367C98.9842 20.2097 98.8767 20.2463 98.7511 20.2463Z" fill="white"/>
<path d="M99.9411 24.4254V20.8433H100.564V21.403H100.619C100.706 21.2118 100.847 21.0633 101.042 20.9576C101.237 20.8503 101.471 20.7966 101.744 20.7966C102.021 20.7966 102.251 20.8503 102.435 20.9576C102.621 21.0633 102.766 21.2118 102.87 21.403H102.913C103.021 21.218 103.182 21.0711 103.397 20.9622C103.612 20.8518 103.869 20.7966 104.17 20.7966C104.545 20.7966 104.852 20.8969 105.09 21.0975C105.329 21.2965 105.448 21.6067 105.448 22.028V24.4254H104.804V22.028C104.804 21.7637 104.719 21.5748 104.55 21.4613C104.38 21.3478 104.181 21.291 103.951 21.291C103.656 21.291 103.428 21.3672 103.266 21.5196C103.104 21.6704 103.022 21.8616 103.022 22.0933V24.4254H102.367V21.972C102.367 21.7683 102.289 21.6043 102.135 21.4799C101.98 21.354 101.78 21.291 101.536 21.291C101.369 21.291 101.212 21.3291 101.067 21.4053C100.923 21.4815 100.806 21.5872 100.717 21.7225C100.629 21.8562 100.586 22.0109 100.586 22.1866V24.4254H99.9411Z" fill="white"/>
<path d="M108.079 24.5C107.674 24.5 107.326 24.4238 107.032 24.2715C106.741 24.1175 106.516 23.903 106.358 23.6278C106.201 23.3511 106.123 23.0292 106.123 22.6623C106.123 22.2954 106.201 21.972 106.358 21.6922C106.516 21.4108 106.736 21.1915 107.019 21.0345C107.303 20.8759 107.634 20.7966 108.013 20.7966C108.232 20.7966 108.447 20.8277 108.66 20.8899C108.874 20.9521 109.067 21.0532 109.242 21.1931C109.417 21.3315 109.556 21.5149 109.66 21.7435C109.764 21.972 109.816 22.2534 109.816 22.5877V22.8209H106.582V22.3451H109.16C109.16 22.143 109.113 21.9627 109.018 21.8041C108.925 21.6455 108.792 21.5204 108.619 21.4286C108.448 21.3369 108.246 21.291 108.013 21.291C107.756 21.291 107.534 21.3455 107.346 21.4543C107.161 21.5616 107.018 21.7015 106.918 21.8741C106.817 22.0466 106.767 22.2317 106.767 22.4291V22.7463C106.767 23.0168 106.822 23.2461 106.931 23.4342C107.042 23.6208 107.196 23.7631 107.393 23.861C107.59 23.9574 107.818 24.0056 108.079 24.0056C108.248 24.0056 108.401 23.9854 108.538 23.945C108.676 23.903 108.795 23.8408 108.895 23.7584C108.996 23.6744 109.073 23.5703 109.128 23.4459L109.75 23.5951C109.685 23.7755 109.575 23.9341 109.42 24.0709C109.265 24.2062 109.074 24.3119 108.846 24.3881C108.619 24.4627 108.363 24.5 108.079 24.5Z" fill="white"/>
<path d="M110.489 24.4254V20.8433H111.112V21.3843H111.156C111.232 21.2071 111.37 21.0633 111.571 20.9529C111.771 20.8425 111.997 20.7873 112.248 20.7873C112.296 20.7873 112.355 20.7881 112.426 20.7896C112.497 20.7912 112.551 20.7935 112.587 20.7966V21.3563C112.565 21.3517 112.515 21.3447 112.437 21.3354C112.36 21.3245 112.279 21.319 112.194 21.319C111.99 21.319 111.808 21.3556 111.647 21.4286C111.489 21.5002 111.363 21.5997 111.27 21.7271C111.179 21.8531 111.134 21.9969 111.134 22.1586V24.4254H110.489Z" fill="white"/>
<path d="M115.216 24.4254H114.506L116.56 19.6493H117.26L119.314 24.4254H118.604L116.932 20.4049H116.888L115.216 24.4254ZM115.478 22.5597H118.341V23.0728H115.478V22.5597Z" fill="white"/>
<path d="M122.434 22.9608V20.8433H123.079V24.4254H122.434V23.819H122.391C122.292 24.0009 122.139 24.1556 121.932 24.2831C121.724 24.409 121.462 24.472 121.145 24.472C120.883 24.472 120.65 24.423 120.446 24.3251C120.242 24.2256 120.082 24.0763 119.965 23.8773C119.848 23.6768 119.79 23.4241 119.79 23.1194V20.8433H120.435V23.0821C120.435 23.3433 120.52 23.5516 120.692 23.7071C120.865 23.8626 121.085 23.9403 121.353 23.9403C121.513 23.9403 121.676 23.9053 121.842 23.8354C122.009 23.7654 122.149 23.6581 122.262 23.5135C122.377 23.3689 122.434 23.1847 122.434 22.9608Z" fill="white"/>
<path d="M125.777 20.8433V21.3097H123.603V20.8433H125.777ZM124.236 19.9851H124.881V23.3993C124.881 23.5547 124.907 23.6713 124.96 23.7491C125.015 23.8252 125.084 23.8766 125.168 23.903C125.254 23.9279 125.344 23.9403 125.438 23.9403C125.509 23.9403 125.568 23.9372 125.613 23.931C125.659 23.9232 125.695 23.917 125.722 23.9123L125.854 24.4067C125.81 24.4207 125.749 24.4347 125.671 24.4487C125.592 24.4642 125.493 24.472 125.373 24.472C125.191 24.472 125.012 24.4386 124.837 24.3717C124.664 24.3049 124.52 24.203 124.406 24.0662C124.293 23.9294 124.236 23.7568 124.236 23.5485V19.9851Z" fill="white"/>
<path d="M128.099 24.5C127.72 24.5 127.388 24.423 127.102 24.2691C126.818 24.1152 126.595 23.8999 126.435 23.6231C126.277 23.3464 126.197 23.023 126.197 22.653C126.197 22.2799 126.277 21.9541 126.435 21.6758C126.595 21.3975 126.818 21.1814 127.102 21.0275C127.388 20.8736 127.72 20.7966 128.099 20.7966C128.477 20.7966 128.809 20.8736 129.093 21.0275C129.379 21.1814 129.601 21.3975 129.76 21.6758C129.92 21.9541 130 22.2799 130 22.653C130 23.023 129.92 23.3464 129.76 23.6231C129.601 23.8999 129.379 24.1152 129.093 24.2691C128.809 24.423 128.477 24.5 128.099 24.5ZM128.099 24.0056C128.386 24.0056 128.623 23.9426 128.809 23.8167C128.995 23.6908 129.132 23.5252 129.221 23.32C129.311 23.1147 129.355 22.8924 129.355 22.653C129.355 22.4136 129.311 22.1905 129.221 21.9837C129.132 21.7769 128.995 21.6098 128.809 21.4823C128.623 21.3548 128.386 21.291 128.099 21.291C127.811 21.291 127.574 21.3548 127.388 21.4823C127.203 21.6098 127.065 21.7769 126.976 21.9837C126.887 22.1905 126.842 22.4136 126.842 22.653C126.842 22.8924 126.887 23.1147 126.976 23.32C127.065 23.5252 127.203 23.6908 127.388 23.8167C127.574 23.9426 127.811 24.0056 128.099 24.0056Z" fill="white"/>
</g>
</g>
</svg>
