<svg width="1053" height="941" viewBox="0 0 1053 941" fill="none" xmlns="http://www.w3.org/2000/svg">
<path d="M591.743 1021.41C589.981 1018.03 589.86 1014.03 591.413 1010.55C592.966 1007.06 596.024 1004.48 599.717 1003.53L999.176 900.862C1018.09 896 1032.88 881.26 1037.81 862.361C1042.74 843.461 1037.03 823.376 1022.89 809.897L705.507 507.228C700.882 502.818 700.329 495.63 704.223 490.564L943.134 179.772C954.902 164.462 957.555 144.018 950.084 126.212C942.613 108.406 926.166 95.9753 906.998 93.6466L443.898 37.3886C437.289 36.5856 432.468 30.7424 432.937 24.1004L465.389 -436.04C466.739 -455.192 457.773 -473.61 441.865 -484.361C425.956 -495.111 405.522 -496.56 388.256 -488.163L45.8297 -321.629C41.785 -319.662 36.9954 -320.02 33.2875 -322.565C29.5797 -325.111 27.5253 -329.453 27.9081 -333.934L60.7754 -718.748C63.302 -748.329 41.3702 -774.357 11.7895 -776.883C-17.7912 -779.41 -43.8192 -757.478 -46.3457 -727.898L-89.142 -226.835C-90.788 -207.563 -81.9537 -188.893 -66.0082 -177.945C-50.0628 -166.997 -29.4652 -165.459 -12.071 -173.919L332.14 -341.32C336.155 -343.273 340.906 -342.936 344.605 -340.436C348.305 -337.936 350.39 -333.653 350.076 -329.2L321.26 79.3734C319.246 107.937 339.975 133.065 368.4 136.518L778.667 186.358C783.124 186.9 786.949 189.79 788.686 193.931C790.423 198.071 789.806 202.825 787.07 206.385L582.686 472.263C565.938 494.051 568.319 524.962 588.206 543.927L862.292 805.304C865.579 808.438 866.907 813.109 865.761 817.503C864.616 821.898 861.176 825.326 856.778 826.456L492.132 920.179C476.248 924.261 463.097 935.371 456.418 950.349C449.739 965.327 450.262 982.534 457.839 997.079L714.177 1489.12C727.894 1515.45 760.358 1525.68 786.688 1511.96C813.017 1498.24 823.242 1465.78 809.525 1439.45L591.743 1021.41Z" fill="#D3FF3C" stroke="white" stroke-width="25" stroke-linecap="round" stroke-linejoin="round"/>
</svg>
