<svg width="114" height="98" viewBox="0 0 114 98" fill="none" xmlns="http://www.w3.org/2000/svg">
<path fill-rule="evenodd" clip-rule="evenodd" d="M1.21909 -50.9464C-0.960815 -47.7536 -0.139693 -43.3981 3.0531 -41.2182L35.981 -18.7366L10.3905 4.67733C8.51258 6.39554 7.71532 8.99771 8.30845 11.473C8.90157 13.9483 10.7916 15.9065 13.2443 16.587L49.3348 26.6004L43.8594 59.4362C43.4459 61.916 44.394 64.4271 46.3431 66.0148C48.2923 67.6026 50.9432 68.0232 53.2881 67.1167L90.4633 52.7456L106.531 88.6433C107.552 90.9233 109.71 92.4867 112.194 92.7458C114.679 93.0048 117.113 91.9203 118.582 89.9L137.01 64.5537L149.569 93.7655C151.096 97.3171 155.213 98.9585 158.765 97.4315C162.317 95.9045 163.958 91.7875 162.431 88.2358L145.013 47.723C144.019 45.4111 141.861 43.8107 139.36 43.5312C136.859 43.2516 134.401 44.336 132.921 46.3714L114.369 71.8869L100.527 40.9605C99.0051 37.5609 95.0877 35.9482 91.6135 37.2912L59.6874 49.6332L64.1801 22.6904C64.7691 19.1583 62.5974 15.7512 59.1469 14.7939L29.165 6.47538L51.9498 -14.3714C53.5272 -15.8147 54.3586 -17.8997 54.2069 -20.0324C54.0553 -22.165 52.9374 -24.1115 51.1716 -25.317L10.9472 -52.7804C7.75441 -54.9603 3.39899 -54.1392 1.21909 -50.9464Z" fill="#4842FB"/>
</svg>
