<svg width="259" height="159" viewBox="0 0 259 159" fill="none" xmlns="http://www.w3.org/2000/svg">
<path fill-rule="evenodd" clip-rule="evenodd" d="M1.74823 -104.65C-1.37201 -100.093 -0.207305 -93.8691 4.34967 -90.7489L66.0452 -48.5048L17.7812 -4.21889C15.1048 -1.76311 13.9705 1.95084 14.8182 5.48289C15.6658 9.01494 18.362 11.8096 21.8614 12.7833L88.7514 31.3954L78.5574 92.7043C77.9682 96.248 79.325 99.8355 82.1119 102.102C84.8987 104.369 88.6873 104.967 92.0367 103.668L160.89 76.9745L190.671 143.7C192.127 146.963 195.213 149.2 198.767 149.57C202.32 149.94 205.802 148.386 207.899 145.494L243.54 96.3314L267.808 152.94C269.984 158.016 275.864 160.367 280.94 158.191C286.016 156.015 288.367 150.136 286.19 145.06L254.979 72.2541C253.561 68.946 250.474 66.6552 246.897 66.256C243.32 65.8568 239.804 67.4107 237.692 70.3247L201.874 119.73L175.277 60.1364C173.105 55.2702 167.499 52.962 162.53 54.8882L101.164 78.6794L109.955 25.8106C110.793 20.7689 107.695 15.9065 102.771 14.5364L44.5715 -1.65741L88.8402 -42.2773C91.0871 -44.3391 92.2705 -47.3134 92.0541 -50.3552C91.8377 -53.397 90.2452 -56.1738 87.729 -57.8967L15.649 -107.251C11.0921 -110.371 4.86847 -109.207 1.74823 -104.65Z" fill="#4842FB"/>
</svg>
