<svg width="186" height="148" viewBox="0 0 186 148" fill="none" xmlns="http://www.w3.org/2000/svg">
<path id="Vector (Stroke)" fill-rule="evenodd" clip-rule="evenodd" d="M1.53029 -82.2008C-1.19853 -78.222 -0.17993 -72.788 3.80539 -70.0637L57.7614 -33.1794L15.5519 5.48765C13.2113 7.63184 12.2193 10.8746 12.9606 13.9585C13.7019 17.0424 16.0599 19.4825 19.1203 20.3327L77.6192 36.5833L68.7041 90.1135C68.1888 93.2076 69.3754 96.3399 71.8126 98.3191C74.2499 100.298 77.5632 100.82 80.4924 99.6865L140.709 76.3794L166.753 134.639C168.027 137.488 170.726 139.442 173.834 139.765C176.941 140.088 179.986 138.731 181.82 136.205L212.991 93.2804L234.214 142.707C236.117 147.139 241.259 149.191 245.698 147.291C250.137 145.391 252.193 140.258 250.29 135.826L222.994 72.258C221.754 69.3696 219.054 67.3695 215.926 67.0209C212.798 66.6723 209.723 68.0291 207.875 70.5734L176.551 113.71L153.29 61.6777C151.391 57.429 146.488 55.4136 142.143 57.0954L88.4747 77.868L96.1625 31.7071C96.8957 27.3051 94.186 23.0596 89.8798 21.8633L38.9815 7.72413L77.6969 -27.7421C79.662 -29.5422 80.6969 -32.1391 80.5076 -34.795C80.3184 -37.4509 78.9256 -39.8754 76.7251 -41.3797L13.6873 -84.4722C9.70198 -87.1965 4.25911 -86.1796 1.53029 -82.2008Z" fill="#4842FB"/>
</svg>
