<svg width="289" height="186" viewBox="0 0 289 186" fill="none" xmlns="http://www.w3.org/2000/svg">
<path d="M141.146 22.1895H148.005L158.88 144.753H152.021C148.857 144.753 146.065 142.186 145.784 139.018L135.926 27.9244C135.646 24.7572 137.983 22.1895 141.146 22.1895Z" fill="#4842FB"/>
<path d="M228.941 144.753H154.055C150.51 144.753 147.386 141.876 147.076 138.328L137.489 28.6147C137.179 25.0658 139.8 22.1895 143.345 22.1895H218.231C221.776 22.1895 224.9 25.0658 225.21 28.6147L234.797 138.328C235.107 141.876 232.485 144.753 228.941 144.753Z" fill="#4842FB"/>
<path opacity="0.5" d="M228.941 144.753H154.055C150.51 144.753 147.386 141.876 147.076 138.328L137.489 28.6147C137.179 25.0658 139.8 22.1895 143.345 22.1895H218.231C221.776 22.1895 224.9 25.0658 225.21 28.6147L234.797 138.328C235.107 141.876 232.485 144.753 228.941 144.753Z" fill="white"/>
<path opacity="0.2" d="M154.798 130.749H228.152L218.877 26.2285H145.523L154.798 130.749Z" fill="black"/>
<path d="M158.005 129.319H231.359L218.877 26.2285H145.523L158.005 129.319Z" fill="#4842FB"/>
<path opacity="0.8" d="M158.005 129.319H231.359L218.877 26.2285H145.523L158.005 129.319Z" fill="white"/>
<path d="M185.887 39.7277C185.891 38.8735 185.22 38.1774 184.387 38.173L179.681 38.1485L179.658 42.4447L180.613 42.4497L180.63 39.083L184.413 39.1027C184.739 39.1044 185.002 39.3765 185 39.7108C184.998 40.0452 184.733 40.3145 184.407 40.3128L181.744 40.299C181.469 40.2975 181.336 40.7811 181.571 40.93C181.805 41.0788 184.036 42.4669 184.036 42.4669L185.79 42.476L184.153 41.2649L184.371 41.2661C185.204 41.2704 185.883 40.5813 185.887 39.7271L185.887 39.7277Z" fill="#677074"/>
<path d="M177.927 38.1394L174.925 38.1238C174.105 38.1195 173.437 38.7981 173.433 39.6389L173.418 42.4116L174.353 42.4165L174.358 41.3907L178.454 41.4121L178.449 42.4378L179.39 42.4427L179.404 39.67C179.409 38.8286 178.747 38.1437 177.927 38.1394ZM174.363 40.4566L174.367 39.6981C174.369 39.3322 174.659 39.0367 175.017 39.0386L177.821 39.0532C178.178 39.055 178.466 39.353 178.464 39.7194L178.46 40.4779L174.363 40.4566Z" fill="#677074"/>
<path d="M186.137 38.1821L186.123 40.9157C186.119 41.7787 186.797 42.4819 187.639 42.4862L191.169 42.5046L191.173 41.5658L187.693 41.5477C187.353 41.5459 187.079 41.2615 187.081 40.9131L187.095 38.1871L186.137 38.1821Z" fill="#677074"/>
<path d="M196.339 38.2393L193.166 38.2228C192.009 38.2168 191.066 39.1735 191.06 40.3597C191.054 41.5459 191.987 42.5124 193.143 42.5184L196.317 42.5349C197.474 42.5409 198.416 41.5842 198.422 40.398C198.429 39.2118 197.496 38.2454 196.339 38.2393ZM197.481 40.3931C197.478 41.0636 196.945 41.604 196.292 41.6006L193.178 41.5844C192.525 41.581 191.998 41.035 192.001 40.3646C192.005 39.6942 192.537 39.1537 193.191 39.1571L196.304 39.1733C196.958 39.1767 197.485 39.7227 197.481 40.3931Z" fill="#677074"/>
<path d="M173.186 38.1147L173.181 39.0734L168.456 39.0488C168.123 39.047 167.851 39.3222 167.85 39.6641L167.844 40.8223C167.842 41.1637 168.11 41.4422 168.443 41.444L173.168 41.4686L173.163 42.4109L168.485 42.3865C167.601 42.3819 166.889 41.6436 166.893 40.7374L166.899 39.7234C166.903 38.8166 167.623 38.0858 168.507 38.0904L173.186 38.1147Z" fill="#677074"/>
<path d="M186.525 43.1573L186.525 43.0275L187.543 43.0328L187.542 43.1626L187.116 43.1604L187.11 44.2386L186.946 44.2377L186.951 43.1595L186.525 43.1573Z" fill="#677074"/>
<path d="M188.199 43.8738L188.202 43.3383L188.358 43.3391L188.354 44.2451L188.197 44.2443L188.198 44.0909L188.187 44.0909C188.163 44.1367 188.126 44.1757 188.076 44.2076C188.025 44.2392 187.961 44.2548 187.885 44.2544C187.821 44.2541 187.764 44.2414 187.715 44.2164C187.666 44.191 187.627 44.153 187.599 44.1025C187.571 44.0517 187.557 43.9877 187.558 43.9106L187.561 43.3349L187.717 43.3358L187.714 43.902C187.714 43.9681 187.734 44.0209 187.776 44.0604C187.817 44.0999 187.871 44.1199 187.936 44.1202C187.974 44.1204 188.014 44.1118 188.054 44.0943C188.095 44.0768 188.129 44.0498 188.157 44.0134C188.185 43.977 188.199 43.9305 188.199 43.8738Z" fill="#677074"/>
<path d="M189.037 44.2486L189.043 43.0407L189.501 43.043C189.608 43.0436 189.695 43.0612 189.762 43.0957C189.83 43.1299 189.88 43.176 189.912 43.2339C189.945 43.2919 189.961 43.3565 189.96 43.4277C189.96 43.4988 189.943 43.5634 189.91 43.6215C189.878 43.6795 189.828 43.7256 189.76 43.7599C189.692 43.7937 189.606 43.8104 189.5 43.8098L189.171 43.8081L189.172 43.6784L189.495 43.68C189.568 43.6804 189.627 43.6695 189.671 43.6473C189.715 43.6252 189.748 43.595 189.768 43.557C189.788 43.5186 189.799 43.4752 189.799 43.4268C189.799 43.3784 189.789 43.3351 189.769 43.2969C189.749 43.2586 189.717 43.2286 189.673 43.2067C189.628 43.1845 189.569 43.1732 189.495 43.1728L189.207 43.1713L189.201 44.2495L189.037 44.2486Z" fill="#677074"/>
<path d="M190.125 44.2543L190.13 43.3483L190.281 43.3491L190.28 43.4859L190.291 43.486C190.309 43.4413 190.343 43.4051 190.392 43.3774C190.441 43.3497 190.495 43.3361 190.556 43.3364C190.568 43.3364 190.582 43.3367 190.599 43.3372C190.617 43.3377 190.63 43.3383 190.639 43.3392L190.638 43.4807C190.632 43.4795 190.62 43.4777 190.601 43.4752C190.583 43.4724 190.563 43.4709 190.542 43.4708C190.493 43.4705 190.449 43.4795 190.41 43.4978C190.371 43.5157 190.341 43.5407 190.318 43.5728C190.296 43.6046 190.285 43.6409 190.284 43.6818L190.281 44.2551L190.125 44.2543Z" fill="#677074"/>
<path d="M190.744 44.2575L190.749 43.3515L190.906 43.3524L190.901 44.2583L190.744 44.2575ZM190.829 43.201C190.799 43.2008 190.773 43.1914 190.751 43.1728C190.729 43.1542 190.719 43.132 190.719 43.106C190.719 43.0801 190.73 43.0579 190.751 43.0395C190.774 43.0212 190.8 43.0121 190.83 43.0122C190.861 43.0124 190.887 43.0217 190.908 43.0403C190.93 43.0589 190.941 43.0812 190.941 43.1072C190.941 43.1331 190.93 43.1553 190.908 43.1736C190.886 43.192 190.86 43.2011 190.829 43.201Z" fill="#677074"/>
<path d="M191.113 44.2594L191.117 43.3535L191.268 43.3542L191.268 43.4958L191.281 43.4959C191.302 43.4476 191.337 43.4102 191.384 43.3837C191.431 43.3569 191.488 43.3436 191.555 43.3439C191.622 43.3443 191.677 43.3581 191.722 43.3855C191.767 43.4125 191.802 43.4502 191.827 43.4987L191.837 43.4988C191.864 43.4521 191.903 43.4152 191.955 43.3879C192.007 43.3603 192.07 43.3466 192.143 43.347C192.234 43.3475 192.308 43.3732 192.366 43.4242C192.423 43.4749 192.452 43.5535 192.451 43.66L192.448 44.2664L192.292 44.2656L192.295 43.6592C192.295 43.5924 192.275 43.5445 192.234 43.5156C192.193 43.4867 192.145 43.4721 192.089 43.4718C192.018 43.4714 191.962 43.4904 191.923 43.5287C191.883 43.5666 191.863 43.6149 191.863 43.6735L191.86 44.2633L191.701 44.2625L191.704 43.642C191.704 43.5905 191.686 43.5489 191.648 43.5172C191.611 43.4852 191.563 43.469 191.504 43.4687C191.463 43.4685 191.425 43.4779 191.389 43.497C191.354 43.5161 191.326 43.5427 191.304 43.5768C191.283 43.6105 191.272 43.6496 191.272 43.694L191.269 44.2603L191.113 44.2594Z" fill="#677074"/>
<path d="M193.086 44.2886C192.988 44.2881 192.903 44.2684 192.832 44.2295C192.762 44.1902 192.708 44.1356 192.67 44.0658C192.632 43.9956 192.613 43.9141 192.614 43.8213C192.614 43.7285 192.634 43.6468 192.672 43.5763C192.711 43.5053 192.765 43.4501 192.833 43.4108C192.902 43.371 192.983 43.3514 193.075 43.3519C193.128 43.3521 193.18 43.3603 193.232 43.3763C193.283 43.3923 193.33 43.4181 193.372 43.4537C193.415 43.4889 193.448 43.5355 193.473 43.5934C193.498 43.6513 193.51 43.7226 193.51 43.8071L193.509 43.8661L192.725 43.862L192.726 43.7417L193.351 43.7449C193.351 43.6938 193.34 43.6482 193.317 43.6079C193.295 43.5677 193.263 43.5359 193.221 43.5125C193.18 43.489 193.131 43.4772 193.074 43.4769C193.012 43.4766 192.958 43.4901 192.912 43.5173C192.867 43.5442 192.832 43.5794 192.808 43.623C192.783 43.6665 192.771 43.7132 192.771 43.7632L192.77 43.8434C192.77 43.9118 192.783 43.9699 192.809 44.0176C192.836 44.0649 192.873 44.1011 192.92 44.1261C192.968 44.1507 193.023 44.1632 193.087 44.1635C193.128 44.1638 193.165 44.1588 193.198 44.1488C193.232 44.1383 193.261 44.1228 193.285 44.1021C193.309 44.0809 193.328 44.0547 193.342 44.0233L193.492 44.0618C193.476 44.1074 193.449 44.1473 193.412 44.1818C193.374 44.2158 193.327 44.2423 193.272 44.2612C193.217 44.2798 193.155 44.2889 193.086 44.2886Z" fill="#677074"/>
<path d="M193.671 44.2728L193.675 43.3668L193.826 43.3676L193.826 43.5044L193.836 43.5045C193.855 43.4597 193.889 43.4235 193.937 43.3959C193.986 43.3682 194.041 43.3545 194.102 43.3548C194.113 43.3549 194.128 43.3552 194.145 43.3557C194.162 43.3561 194.175 43.3568 194.184 43.3576L194.183 43.4992C194.178 43.498 194.166 43.4961 194.147 43.4937C194.128 43.4908 194.109 43.4894 194.088 43.4893C194.039 43.489 193.994 43.498 193.955 43.5163C193.917 43.5342 193.886 43.5592 193.864 43.5913C193.841 43.623 193.83 43.6594 193.83 43.7003L193.827 44.2736L193.671 44.2728Z" fill="#677074"/>
<path d="M194.817 44.2787L194.645 44.2778L195.149 43.0724L195.319 43.0733L195.811 44.2839L195.638 44.283L195.238 43.264L195.228 43.264L194.817 44.2787ZM194.883 43.8072L195.577 43.8108L195.577 43.9406L194.882 43.937L194.883 43.8072Z" fill="#677074"/>
<path d="M196.569 43.9174L196.572 43.3819L196.728 43.3827L196.724 44.2887L196.567 44.2878L196.568 44.1345L196.558 44.1344C196.534 44.1803 196.496 44.2192 196.446 44.2512C196.395 44.2828 196.332 44.2984 196.255 44.298C196.191 44.2977 196.135 44.285 196.085 44.26C196.036 44.2345 195.997 44.1966 195.969 44.1461C195.941 44.0952 195.927 44.0313 195.928 43.9542L195.931 43.3785L196.087 43.3793L196.084 43.9456C196.084 44.0116 196.104 44.0644 196.146 44.104C196.187 44.1435 196.241 44.1635 196.306 44.1638C196.345 44.164 196.384 44.1553 196.424 44.1379C196.465 44.1204 196.499 44.0934 196.527 44.057C196.555 44.0206 196.569 43.974 196.569 43.9174Z" fill="#677074"/>
<path d="M197.383 43.3861L197.382 43.504L196.855 43.5013L196.855 43.3833L197.383 43.3861ZM197.01 43.1671L197.167 43.1679L197.162 44.0314C197.162 44.0707 197.168 44.1002 197.181 44.12C197.194 44.1393 197.211 44.1524 197.231 44.1592C197.252 44.1656 197.274 44.1688 197.297 44.1689C197.314 44.169 197.328 44.1683 197.339 44.1668C197.35 44.1649 197.359 44.1634 197.365 44.1622L197.397 44.2874C197.386 44.2909 197.371 44.2944 197.352 44.2978C197.333 44.3017 197.309 44.3035 197.28 44.3033C197.236 44.3031 197.193 44.2944 197.15 44.2773C197.108 44.2602 197.074 44.2342 197.046 44.1995C197.019 44.1647 197.005 44.121 197.006 44.0683L197.01 43.1671Z" fill="#677074"/>
<path d="M197.941 44.3139C197.849 44.3134 197.769 44.2935 197.699 44.2542C197.631 44.2149 197.577 44.1602 197.539 44.09C197.501 44.0198 197.482 43.9379 197.482 43.8443C197.483 43.7499 197.502 43.6677 197.541 43.5975C197.58 43.5273 197.635 43.4729 197.704 43.4343C197.773 43.3958 197.854 43.3767 197.946 43.3772C198.038 43.3777 198.118 43.3976 198.187 43.4369C198.256 43.4761 198.309 43.5311 198.347 43.6017C198.386 43.6723 198.405 43.7547 198.404 43.8491C198.404 43.9427 198.384 44.0244 198.345 44.0942C198.306 44.164 198.252 44.2182 198.182 44.2567C198.113 44.2953 198.033 44.3143 197.941 44.3139ZM197.942 44.1888C198.011 44.1892 198.069 44.1736 198.114 44.1419C198.159 44.1103 198.193 44.0686 198.215 44.0168C198.237 43.965 198.248 43.9089 198.248 43.8483C198.248 43.7877 198.238 43.7313 198.217 43.6789C198.195 43.6264 198.162 43.584 198.117 43.5515C198.072 43.519 198.015 43.5026 197.945 43.5023C197.875 43.5019 197.818 43.5177 197.773 43.5497C197.727 43.5817 197.694 43.6238 197.672 43.676C197.65 43.7282 197.639 43.7846 197.639 43.8451C197.638 43.9057 197.649 43.962 197.67 44.014C197.692 44.066 197.725 44.1081 197.77 44.1401C197.814 44.1722 197.872 44.1885 197.942 44.1888Z" fill="#677074"/>
<path d="M214.378 54.7632H168.493C167.967 54.7632 167.503 54.3364 167.457 53.8093C167.411 53.2828 167.8 52.8555 168.326 52.8555H214.212C214.738 52.8555 215.202 53.2822 215.247 53.8093C215.294 54.3358 214.904 54.7632 214.378 54.7632Z" fill="#263238"/>
<path d="M212.945 60.1684H160.867C160.341 60.1684 159.877 59.7417 159.831 59.2146C159.785 58.6881 160.174 58.2607 160.7 58.2607H212.778C213.304 58.2607 213.768 58.6875 213.814 59.2146C213.861 59.7417 213.471 60.1684 212.945 60.1684Z" fill="#263238"/>
<path d="M215.323 65.5727H161.339C160.813 65.5727 160.349 65.146 160.304 64.6189C160.257 64.0924 160.647 63.665 161.173 63.665H215.156C215.682 63.665 216.146 64.0918 216.192 64.6189C216.238 65.146 215.849 65.5727 215.323 65.5727Z" fill="#263238"/>
<path d="M209.126 70.978H161.811C161.286 70.978 160.821 70.5512 160.775 70.0242C160.729 69.4977 161.118 69.0703 161.644 69.0703H208.959C209.485 69.0703 209.949 69.4971 209.995 70.0242C210.041 70.5506 209.653 70.978 209.126 70.978Z" fill="#263238"/>
<path d="M216.268 76.3833H170.382C169.856 76.3833 169.392 75.9565 169.346 75.4294C169.299 74.9024 169.689 74.4756 170.215 74.4756H216.1C216.627 74.4756 217.09 74.9024 217.136 75.4294C217.183 75.9565 216.793 76.3833 216.268 76.3833Z" fill="#263238"/>
<path d="M214.358 81.7876H162.756C162.23 81.7876 161.766 81.3608 161.721 80.8337C161.674 80.3072 162.064 79.8799 162.59 79.8799H214.191C214.717 79.8799 215.181 80.3066 215.227 80.8337C215.274 81.3602 214.884 81.7876 214.358 81.7876Z" fill="#263238"/>
<path d="M217.212 87.1919H163.228C162.703 87.1919 162.238 86.7651 162.192 86.238C162.146 85.7115 162.535 85.2842 163.061 85.2842H217.045C217.571 85.2842 218.035 85.7109 218.08 86.238C218.127 86.7651 217.738 87.1919 217.212 87.1919Z" fill="#263238"/>
<path d="M213.873 92.5981H163.701C163.175 92.5981 162.711 92.1714 162.665 91.6443C162.619 91.1172 163.008 90.6904 163.534 90.6904H213.707C214.232 90.6904 214.697 91.1172 214.743 91.6443C214.789 92.1708 214.399 92.5981 213.873 92.5981Z" fill="#263238"/>
<g opacity="0.3">
<path d="M214.378 54.7632H168.493C167.967 54.7632 167.503 54.3364 167.457 53.8093C167.411 53.2828 167.8 52.8555 168.326 52.8555H214.212C214.738 52.8555 215.202 53.2822 215.247 53.8093C215.294 54.3358 214.904 54.7632 214.378 54.7632Z" fill="white"/>
<path d="M212.945 60.1684H160.867C160.341 60.1684 159.877 59.7417 159.831 59.2146C159.785 58.6881 160.174 58.2607 160.7 58.2607H212.778C213.304 58.2607 213.768 58.6875 213.814 59.2146C213.861 59.7417 213.471 60.1684 212.945 60.1684Z" fill="white"/>
<path d="M215.323 65.5727H161.339C160.813 65.5727 160.349 65.146 160.304 64.6189C160.257 64.0924 160.647 63.665 161.173 63.665H215.156C215.682 63.665 216.146 64.0918 216.192 64.6189C216.238 65.146 215.849 65.5727 215.323 65.5727Z" fill="white"/>
<path d="M209.126 70.978H161.811C161.286 70.978 160.821 70.5512 160.775 70.0242C160.729 69.4977 161.118 69.0703 161.644 69.0703H208.959C209.485 69.0703 209.949 69.4971 209.995 70.0242C210.041 70.5506 209.653 70.978 209.126 70.978Z" fill="white"/>
<path d="M216.268 76.3833H170.382C169.856 76.3833 169.392 75.9565 169.346 75.4294C169.299 74.9024 169.689 74.4756 170.215 74.4756H216.1C216.627 74.4756 217.09 74.9024 217.136 75.4294C217.183 75.9565 216.793 76.3833 216.268 76.3833Z" fill="white"/>
<path d="M214.358 81.7876H162.756C162.23 81.7876 161.766 81.3608 161.721 80.8337C161.674 80.3072 162.064 79.8799 162.59 79.8799H214.191C214.717 79.8799 215.181 80.3066 215.227 80.8337C215.274 81.3602 214.884 81.7876 214.358 81.7876Z" fill="white"/>
<path d="M217.212 87.1919H163.228C162.703 87.1919 162.238 86.7651 162.192 86.238C162.146 85.7115 162.535 85.2842 163.061 85.2842H217.045C217.571 85.2842 218.035 85.7109 218.08 86.238C218.127 86.7651 217.738 87.1919 217.212 87.1919Z" fill="white"/>
<path d="M213.873 92.5981H163.701C163.175 92.5981 162.711 92.1714 162.665 91.6443C162.619 91.1172 163.008 90.6904 163.534 90.6904H213.707C214.232 90.6904 214.697 91.1172 214.743 91.6443C214.789 92.1708 214.399 92.5981 213.873 92.5981Z" fill="white"/>
</g>
<path d="M216.504 121.847H200.402C199.875 121.847 199.412 121.42 199.366 120.893C199.32 120.366 199.709 119.939 200.235 119.939H216.337C216.863 119.939 217.327 120.366 217.373 120.893C217.419 121.42 217.03 121.847 216.504 121.847Z" fill="#263238"/>
<path d="M199.23 118.548L199.229 118.547C199.094 118.371 199.116 118.134 199.28 118.013C200.42 117.173 201.679 116.19 202.856 115.204C203.133 113.395 204.35 111.078 205.586 110.001C206.51 109.194 207.198 109.293 207.612 109.518C207.899 109.674 208.08 109.929 208.119 110.235C208.268 111.4 205.909 113.7 203.583 115.659C203.546 116.041 203.57 116.371 203.669 116.615C203.772 116.868 203.942 116.985 204.239 117.004C205.54 117.088 206.251 116.397 206.938 115.73C207.71 114.98 208.509 114.204 209.962 114.92C211.244 115.552 211.274 116.187 211.203 116.732C211.194 116.796 211.181 116.893 211.189 116.922C211.195 116.922 211.354 117.073 212.349 117.199C214.569 117.484 215.767 115.868 216.169 115.182C216.266 115.017 216.476 114.965 216.659 115.058C216.871 115.166 216.959 115.424 216.847 115.614C216.365 116.43 214.958 118.299 212.318 117.966C211.324 117.84 210.839 117.668 210.588 117.351C210.368 117.072 210.406 116.78 210.434 116.567C210.475 116.261 210.506 116.02 209.669 115.607C208.752 115.155 208.295 115.536 207.503 116.306C206.782 117.007 205.884 117.88 204.257 117.775C203.643 117.735 203.181 117.407 202.955 116.848C202.887 116.682 202.843 116.494 202.819 116.291C201.577 117.304 200.427 118.168 199.775 118.648C199.608 118.771 199.365 118.724 199.23 118.548ZM207.051 110.131C206.72 110.131 206.344 110.408 206.124 110.601C205.198 111.408 204.327 112.951 203.88 114.327C205.887 112.567 207.436 110.936 207.35 110.267C207.346 110.236 207.344 110.22 207.288 110.189C207.214 110.149 207.133 110.131 207.051 110.131Z" fill="#263238"/>
<g opacity="0.3">
<path d="M216.504 121.847H200.402C199.875 121.847 199.412 121.42 199.366 120.893C199.32 120.366 199.709 119.939 200.235 119.939H216.337C216.863 119.939 217.327 120.366 217.373 120.893C217.419 121.42 217.03 121.847 216.504 121.847Z" fill="white"/>
<path d="M199.23 118.548L199.229 118.547C199.094 118.371 199.116 118.134 199.28 118.013C200.42 117.173 201.679 116.19 202.856 115.204C203.133 113.395 204.35 111.078 205.586 110.001C206.51 109.194 207.198 109.293 207.612 109.518C207.899 109.674 208.08 109.929 208.119 110.235C208.268 111.4 205.909 113.7 203.583 115.659C203.546 116.041 203.57 116.371 203.669 116.615C203.772 116.868 203.942 116.985 204.239 117.004C205.54 117.088 206.251 116.397 206.938 115.73C207.71 114.98 208.509 114.204 209.962 114.92C211.244 115.552 211.274 116.187 211.203 116.732C211.194 116.796 211.181 116.893 211.189 116.922C211.195 116.922 211.354 117.073 212.349 117.199C214.569 117.484 215.767 115.868 216.169 115.182C216.266 115.017 216.476 114.965 216.659 115.058C216.871 115.166 216.959 115.424 216.847 115.614C216.365 116.43 214.958 118.299 212.318 117.966C211.324 117.84 210.839 117.668 210.588 117.351C210.368 117.072 210.406 116.78 210.434 116.567C210.475 116.261 210.506 116.02 209.669 115.607C208.752 115.155 208.295 115.536 207.503 116.306C206.782 117.007 205.884 117.88 204.257 117.775C203.643 117.735 203.181 117.407 202.955 116.848C202.887 116.682 202.843 116.494 202.819 116.291C201.577 117.304 200.427 118.168 199.775 118.648C199.608 118.771 199.365 118.724 199.23 118.548ZM207.051 110.131C206.72 110.131 206.344 110.408 206.124 110.601C205.198 111.408 204.327 112.951 203.88 114.327C205.887 112.567 207.436 110.936 207.35 110.267C207.346 110.236 207.344 110.22 207.288 110.189C207.214 110.149 207.133 110.131 207.051 110.131Z" fill="white"/>
</g>
<path d="M193.157 115.564C190.15 115.564 187.359 113.283 186.77 110.222L186.55 109.076C185.921 105.804 188.042 102.864 191.28 102.52L221.094 99.3541C222.663 99.1861 224.255 99.6481 225.579 100.65C226.903 101.652 227.8 103.077 228.105 104.662L228.326 105.809C228.631 107.393 228.306 108.948 227.414 110.186C226.52 111.424 225.165 112.198 223.597 112.364L193.783 115.531C193.572 115.553 193.364 115.564 193.157 115.564ZM221.816 100.39C221.642 100.39 221.47 100.399 221.297 100.418L191.483 103.584C190.196 103.72 189.084 104.355 188.351 105.372C187.618 106.388 187.352 107.664 187.602 108.964L187.823 110.111C188.34 112.795 190.923 114.742 193.577 114.467L223.391 111.3C224.678 111.163 225.79 110.529 226.523 109.513C227.256 108.497 227.522 107.221 227.272 105.92L227.051 104.774C226.801 103.474 226.065 102.305 224.978 101.482C224.037 100.769 222.931 100.39 221.816 100.39Z" fill="#4842FB"/>
<path d="M193.195 110.055L190.928 110.295L190.667 111.422L190.039 111.489L191.141 106.974L191.745 106.909L194.512 111.014L193.872 111.081L193.195 110.055ZM192.887 109.585L191.561 107.57L191.047 109.78L192.887 109.585Z" fill="#4842FB"/>
<path d="M197.361 106.722C197.729 106.955 197.958 107.305 198.048 107.773C198.138 108.242 198.051 108.626 197.785 108.926C197.519 109.226 197.11 109.406 196.557 109.465L195.503 109.577L195.754 110.882L195.145 110.947L194.315 106.637L195.979 106.46C196.532 106.402 196.993 106.489 197.361 106.722ZM197.272 108.588C197.444 108.401 197.499 108.15 197.439 107.839C197.379 107.527 197.232 107.298 196.997 107.153C196.761 107.008 196.45 106.957 196.065 106.998L195.029 107.108L195.401 109.041L196.437 108.931C196.823 108.89 197.101 108.776 197.272 108.588Z" fill="#4842FB"/>
<path d="M201.7 106.261C202.068 106.494 202.297 106.844 202.387 107.312C202.477 107.781 202.39 108.165 202.124 108.464C201.858 108.765 201.449 108.944 200.896 109.003L199.842 109.115L200.093 110.42L199.483 110.485L198.654 106.175L200.318 105.998C200.871 105.94 201.331 106.027 201.7 106.261ZM201.611 108.126C201.783 107.939 201.838 107.689 201.778 107.377C201.718 107.065 201.571 106.836 201.335 106.691C201.1 106.547 200.789 106.495 200.404 106.536L199.367 106.646L199.74 108.579L200.776 108.47C201.161 108.428 201.44 108.314 201.611 108.126Z" fill="#4842FB"/>
<path d="M206.674 109.721L205.499 108.495C205.387 108.516 205.299 108.529 205.233 108.536L204.179 108.648L204.432 109.959L203.822 110.024L202.993 105.713L204.657 105.536C205.209 105.477 205.67 105.565 206.038 105.798C206.406 106.031 206.635 106.382 206.725 106.85C206.789 107.182 206.762 107.474 206.645 107.725C206.527 107.976 206.329 108.171 206.048 108.31L207.338 109.65L206.674 109.721ZM205.949 107.669C206.12 107.479 206.175 107.228 206.115 106.916C206.055 106.604 205.908 106.375 205.673 106.231C205.437 106.086 205.126 106.034 204.741 106.075L203.705 106.185L204.078 108.125L205.114 108.015C205.5 107.973 205.779 107.858 205.949 107.669Z" fill="#4842FB"/>
<path d="M208.968 109.237C208.586 109.082 208.264 108.848 208.003 108.531C207.741 108.216 207.57 107.851 207.49 107.436C207.411 107.021 207.437 106.635 207.569 106.278C207.701 105.92 207.921 105.628 208.23 105.4C208.539 105.173 208.908 105.037 209.339 104.99C209.765 104.944 210.17 105 210.552 105.154C210.934 105.308 211.254 105.542 211.514 105.856C211.773 106.17 211.943 106.537 212.023 106.955C212.104 107.374 212.079 107.76 211.948 108.116C211.817 108.472 211.598 108.763 211.29 108.99C210.981 109.218 210.613 109.354 210.187 109.399C209.756 109.445 209.35 109.391 208.968 109.237ZM210.884 108.547C211.107 108.376 211.266 108.157 211.361 107.89C211.457 107.622 211.474 107.332 211.415 107.02C211.355 106.708 211.228 106.434 211.035 106.197C210.843 105.961 210.608 105.783 210.33 105.666C210.053 105.549 209.758 105.507 209.445 105.54C209.132 105.573 208.863 105.675 208.636 105.845C208.41 106.016 208.249 106.235 208.153 106.503C208.058 106.77 208.04 107.061 208.1 107.372C208.16 107.684 208.286 107.959 208.479 108.196C208.672 108.433 208.909 108.61 209.19 108.727C209.472 108.843 209.769 108.885 210.082 108.852C210.395 108.818 210.662 108.716 210.884 108.547Z" fill="#4842FB"/>
<path d="M216.112 104.322L215.07 108.831L214.467 108.896L211.761 104.785L212.419 104.715L214.635 108.093L215.501 104.388L216.112 104.322Z" fill="#4842FB"/>
<path d="M220.475 107.71L220.578 108.245L217.482 108.574L216.653 104.264L219.664 103.944L219.766 104.48L217.366 104.734L217.62 106.059L219.758 105.832L219.859 106.355L217.721 106.582L217.989 107.974L220.475 107.71Z" fill="#4842FB"/>
<path d="M220.736 103.83L222.534 103.639C222.985 103.591 223.402 103.639 223.787 103.783C224.171 103.927 224.491 104.151 224.746 104.458C225.002 104.763 225.17 105.128 225.252 105.551C225.333 105.973 225.309 106.358 225.178 106.705C225.048 107.052 224.826 107.334 224.512 107.551C224.197 107.769 223.815 107.902 223.363 107.95L221.565 108.141L220.736 103.83ZM223.223 107.418C223.568 107.382 223.858 107.282 224.095 107.118C224.331 106.955 224.497 106.744 224.592 106.484C224.688 106.225 224.705 105.935 224.643 105.615C224.581 105.295 224.455 105.02 224.266 104.791C224.077 104.561 223.839 104.393 223.55 104.286C223.262 104.179 222.945 104.143 222.601 104.18L221.449 104.302L222.072 107.542L223.223 107.418Z" fill="#4842FB"/>
<path d="M167.992 19.3135H173.737L174.668 29.8052H168.924C166.986 29.8052 165.276 28.2329 165.104 26.2925L164.796 22.8256C164.623 20.8858 166.054 19.3135 167.992 19.3135Z" fill="#263238"/>
<path d="M193.558 29.8048H170.343C168.173 29.8048 166.259 28.0431 166.069 25.8695L165.839 23.2478C165.65 21.0748 167.255 19.3125 169.426 19.3125H192.641C194.812 19.3125 196.725 21.0742 196.916 23.2478L197.144 25.8695C197.335 28.0431 195.729 29.8048 193.558 29.8048Z" fill="#263238"/>
<path opacity="0.5" d="M193.558 29.8048H170.343C168.173 29.8048 166.259 28.0431 166.069 25.8695L165.839 23.2478C165.65 21.0748 167.255 19.3125 169.426 19.3125H192.641C194.812 19.3125 196.725 21.0742 196.916 23.2478L197.144 25.8695C197.335 28.0431 195.729 29.8048 193.558 29.8048Z" fill="white"/>
<path d="M193.38 25.6721C193.43 26.2431 193.008 26.7054 192.438 26.7054C191.867 26.7054 191.365 26.2431 191.316 25.6721C191.266 25.1017 191.687 24.6387 192.258 24.6387C192.828 24.6387 193.33 25.1011 193.38 25.6721Z" fill="#263238"/>
<path d="M171.865 25.6721C171.915 26.2431 171.493 26.7054 170.923 26.7054C170.353 26.7054 169.851 26.2431 169.801 25.6721C169.751 25.1017 170.173 24.6387 170.743 24.6387C171.313 24.6387 171.815 25.1011 171.865 25.6721Z" fill="#263238"/>
<path d="M250.096 167.585H231.684V167.724H250.096V167.585Z" fill="#D3FF3C"/>
<path d="M184.122 169.096H179.29V169.235H184.122V169.096Z" fill="#D3FF3C"/>
<path d="M231.127 162.417H220.458V162.556H231.127V162.417Z" fill="#D3FF3C"/>
<path d="M53.1717 163.352H29.1611V163.491H53.1717V163.352Z" fill="#D3FF3C"/>
<path d="M61.6415 163.352H58.1211V163.491H61.6415V163.352Z" fill="#D3FF3C"/>
<path d="M125.157 165.702H73.083V165.841H125.157V165.702Z" fill="#D3FF3C"/>
<path d="M277.945 158.627H0V158.766H277.945V158.627Z" fill="#D3FF3C"/>
<path d="M264.009 45.369C271.608 39.4422 281.401 38.501 289 32.5742C285.608 29.178 282.216 25.7819 278.824 22.3857C271.225 28.3126 261.431 29.2537 253.833 35.1806C257.225 38.5761 260.617 41.9723 264.009 45.369Z" fill="#D3FF3C"/>
<path d="M258.32 33.756C264.116 30.4868 270.851 29.4265 276.599 26.0732C277.839 26.6732 279.334 26.838 280.584 26.4122C282.292 28.1214 283.145 28.9757 284.852 30.6849C284.244 31.7535 284.079 32.9201 284.513 33.9976C278.766 37.3509 272.031 38.4106 266.235 41.6804C264.994 41.0809 263.499 40.9157 262.249 41.3414C260.542 39.6322 259.689 38.7779 257.981 37.0687C258.59 36.0001 258.755 34.8335 258.32 33.756Z" fill="#A5D503"/>
<path d="M267.959 35.1096C269.583 36.7354 272.434 37.4884 274.357 36.8205C276.28 36.1526 276.498 34.2704 274.875 32.6446C273.251 31.0189 270.4 30.2659 268.477 30.9332C266.555 31.6016 266.336 33.4839 267.959 35.1096Z" fill="#D3FF3C"/>
<path d="M227.155 7.9098C232.342 12.2721 233.54 19.3973 229.803 23.8308L228.499 25.3781C224.778 29.805 217.56 29.8534 212.378 25.4883C207.196 21.1232 205.998 13.9986 209.735 9.56446L211.036 8.01221C214.757 3.58587 221.968 3.54746 227.155 7.9098Z" fill="#A5D503"/>
<path d="M229.801 23.8313C233.523 19.4036 232.338 12.2742 227.156 7.90721C221.973 3.54025 214.755 3.58947 211.033 8.01715C207.311 12.4448 208.495 19.5743 213.678 23.9413C218.861 28.3082 226.079 28.259 229.801 23.8313Z" fill="#D3FF3C"/>
<path d="M228.172 22.4593C231.248 18.7999 230.269 12.9075 225.986 9.29819C221.702 5.68887 215.736 5.72944 212.66 9.3888C209.584 13.0482 210.563 18.9406 214.847 22.5499C219.13 26.1592 225.096 26.1186 228.172 22.4593Z" fill="#A5D503"/>
<path d="M224.887 19.2185L226 20.4536L225.227 21.1537L224.126 19.9232C223.246 20.6567 222.141 21.0652 220.996 21.0808L220.412 19.6081C221.371 19.6137 222.307 19.3093 223.08 18.7399L221.093 16.532C219.78 17.1732 218.301 17.7793 216.922 16.2465C215.909 15.1195 215.727 13.5077 217.047 12.0189L215.929 10.7688L216.699 10.0742L217.8 11.3048C218.521 10.7209 219.394 10.3575 220.316 10.2579L220.921 11.7395C220.182 11.8335 219.476 12.1007 218.859 12.5186L220.866 14.7538C222.181 14.1076 223.666 13.472 225.045 15.0054C226.045 16.1001 226.208 17.7114 224.887 19.2185ZM219.871 15.1835L218.107 13.2127C217.604 13.7186 217.586 14.5312 218.067 15.0588C218.533 15.6037 219.157 15.4846 219.871 15.1835ZM223.912 16.1625C223.43 15.6243 222.797 15.7211 222.059 16.05L223.817 17.988C224.384 17.275 224.344 16.6383 223.914 16.1574L223.912 16.1625Z" fill="#D3FF3C"/>
<path d="M71.0803 23.7201L73.4701 24.9162C80.3192 28.3224 82.6028 37.5797 78.6148 45.588C74.6269 53.5964 65.8599 57.3298 59.0336 53.9237L56.6438 52.7349C49.7947 49.3287 47.5117 40.0714 51.5069 32.063C55.5015 24.0557 64.2534 20.3145 71.0803 23.7201Z" fill="#A5D503"/>
<path d="M76.2225 44.3984C80.2097 36.3876 77.907 27.1321 71.0795 23.7256C64.2519 20.3191 55.4848 24.0517 51.4977 32.0625C47.5105 40.0733 49.8132 49.3289 56.6407 52.7353C63.4683 56.1418 72.2353 52.4092 76.2225 44.3984Z" fill="#D3FF3C"/>
<path d="M74.078 43.3294C77.3736 36.7081 75.4708 29.0583 69.8281 26.243C64.1853 23.4276 56.9394 26.513 53.6439 33.1342C50.3483 39.7555 52.2511 47.4053 57.8939 50.2206C63.5366 53.036 70.7825 49.9506 74.078 43.3294Z" fill="#A5D503"/>
<path d="M61.4462 44.8644L60.4723 46.8302L59.2393 46.2208L60.2133 44.27C58.8869 43.5448 57.8496 42.3855 57.2754 40.9858L58.7974 39.5532C59.256 40.7353 60.0837 41.7371 61.1566 42.4106L62.8993 38.8981C61.4762 37.5952 60.0148 36.0713 61.225 33.633C62.1155 31.8426 64.0028 30.8368 66.4687 31.7357L67.4582 29.7549L68.6834 30.3643L67.7094 32.3151C68.7745 32.9173 69.6439 33.8139 70.2132 34.8981L68.6911 36.3607C68.217 35.4986 67.5471 34.7595 66.735 34.2046L64.9695 37.7555C66.4003 39.0584 67.8996 40.5745 66.6894 43.0128C65.8294 44.7732 63.9344 45.7561 61.4462 44.8644ZM63.9572 36.742L65.5176 33.618C64.6532 33.2456 63.6487 33.6174 63.2345 34.464C62.7931 35.3021 63.2418 36.0106 63.9572 36.742ZM64.7182 42.1824C65.1446 41.3292 64.7182 40.5973 63.9572 39.8509L62.4352 42.9521C63.5842 43.3027 64.3452 42.9443 64.726 42.1824H64.7182Z" fill="#D3FF3C"/>
<path d="M32.5069 93.8205L34.4731 93.1643C40.0959 91.2709 46.4202 95.0951 48.6199 101.678C50.8195 108.26 48.0562 115.123 42.4462 117.004L40.4844 117.664C34.8616 119.557 28.5373 115.733 26.3415 109.146C24.1457 102.56 26.8968 95.7012 32.5069 93.8205Z" fill="#A5D503"/>
<path d="M40.4925 117.67C46.1042 115.789 48.8685 108.926 46.6667 102.342C44.4649 95.7578 38.1309 91.9452 32.5192 93.8264C26.9076 95.7075 24.1433 102.57 26.3451 109.154C28.5468 115.738 34.8809 119.551 40.4925 117.67Z" fill="#D3FF3C"/>
<path d="M39.8013 115.601C44.4391 114.046 46.7235 108.374 44.9036 102.932C43.0838 97.4898 37.8488 94.3384 33.211 95.893C28.5732 97.4477 26.2888 103.12 28.1086 108.562C29.9285 114.004 35.1635 117.155 39.8013 115.601Z" fill="#A5D503"/>
<path d="M38.8059 110.71L39.3484 112.323L38.3384 112.666L37.8041 111.061C36.6796 111.391 35.4755 111.325 34.3938 110.873L34.4438 109.251C35.3427 109.647 36.3455 109.742 37.3033 109.522L36.3349 106.639C34.8407 106.706 33.2042 106.672 32.5321 104.67C32.0396 103.199 32.5238 101.611 34.3688 100.75L33.8262 99.1196L34.8324 98.7812L35.3666 100.386C36.281 100.131 37.2488 100.146 38.1549 100.428L38.1216 102.067C37.3889 101.854 36.6168 101.817 35.8674 101.958L36.8441 104.875C38.3428 104.804 39.996 104.812 40.6681 106.814C41.1601 108.252 40.6592 109.832 38.8059 110.71ZM35.7335 104.875L34.8779 102.305C34.1998 102.575 33.8529 103.331 34.0891 104.022C34.3059 104.725 34.9402 104.867 35.7335 104.875ZM39.1316 107.441C38.8976 106.739 38.2633 106.572 37.4367 106.58L38.3006 109.117C39.1227 108.679 39.344 108.064 39.1355 107.437L39.1316 107.441Z" fill="#D3FF3C"/>
<path d="M85.9258 68.0929C99.9414 69.8361 111.07 79.026 125.086 80.7692C125.086 73.727 125.086 66.6843 125.086 59.6421C111.07 57.8989 99.942 48.709 85.9258 46.9658C85.9263 54.0086 85.9263 61.0507 85.9258 68.0929Z" fill="#D3FF3C"/>
<path d="M92.0517 50.1475C101.447 52.775 109.527 58.6668 118.959 61.1568C119.624 63.0664 121.003 64.7895 122.741 65.6455C122.741 69.1897 122.741 70.9612 122.741 74.5054C121.003 74.9818 119.624 76.0204 118.959 77.5888C109.528 75.0993 101.447 69.2069 92.0517 66.5794C91.3863 64.6699 90.0077 62.9467 88.2705 62.0907C88.2705 58.5465 88.2705 56.775 88.2705 53.2308C90.0071 52.7544 91.3857 51.7159 92.0517 50.1475Z" fill="#A5D503"/>
<path d="M100.645 61.5558C100.645 64.9263 102.821 68.6675 105.506 69.971C108.191 71.2745 110.366 69.5502 110.366 66.1791C110.366 62.808 108.19 59.0674 105.506 57.7639C102.821 56.4604 100.645 58.1847 100.645 61.5558Z" fill="#D3FF3C"/>
<path d="M111.354 15.0171C117.273 22.6253 118.213 32.4303 124.133 40.0379C127.525 36.6418 130.917 33.2457 134.31 29.8495C128.39 22.2413 127.45 12.4363 121.53 4.82812C118.138 8.22483 114.746 11.621 111.354 15.0171Z" fill="#D3FF3C"/>
<path d="M122.952 9.32039C126.217 15.1242 127.276 21.867 130.625 27.6213C130.026 28.8635 129.862 30.3601 130.287 31.6118C128.58 33.321 127.726 34.1754 126.019 35.8846C124.952 35.2757 123.787 35.1104 122.711 35.5456C119.361 29.7913 118.303 23.048 115.037 17.2447C115.636 16.0025 115.801 14.5059 115.376 13.2542C117.083 11.545 117.936 10.6906 119.643 8.98145C120.711 9.59088 121.875 9.75562 122.952 9.32039Z" fill="#A5D503"/>
<path d="M121.601 18.9713C119.977 20.5971 119.225 23.4517 119.892 25.3768C120.559 27.302 122.439 27.5207 124.062 25.8955C125.686 24.2704 126.438 21.4152 125.772 19.4901C125.105 17.5649 123.225 17.3456 121.601 18.9713Z" fill="#D3FF3C"/>
<path d="M108.041 186C160.931 186 203.807 182.932 203.807 179.148C203.807 175.364 160.931 172.296 108.041 172.296C55.1511 172.296 12.2754 175.364 12.2754 179.148C12.2754 182.932 55.1511 186 108.041 186Z" fill="#DAD9FF"/>
<path d="M244.174 185.945C262.567 185.945 277.477 182.419 277.477 178.07C277.477 173.721 262.567 170.195 244.174 170.195C225.781 170.195 210.87 173.721 210.87 178.07C210.87 182.419 225.781 185.945 244.174 185.945Z" fill="#DAD9FF"/>
<path d="M251.29 74.1052C249.882 72.927 248.49 71.7127 247.123 70.4852L243.016 66.7985C242.342 66.2442 241.741 65.2574 241.631 64.3129C241.5 63.3712 241.684 62.6027 241.899 61.9782C242.357 60.7291 243.017 59.8751 243.674 59.0676C245.026 57.4896 246.502 56.2802 248.147 55.1709L249.712 57.0035C248.593 58.3478 247.47 59.8028 246.633 61.2111C246.218 61.9038 245.883 62.6431 245.788 63.1661C245.734 63.422 245.772 63.5952 245.803 63.5687C245.845 63.5409 245.762 63.39 245.808 63.4143L246.922 64.2225L248.044 65.0765C248.788 65.6468 249.519 66.2248 250.24 66.8124C251.688 67.9829 253.099 69.1833 254.482 70.4317L251.29 74.1052Z" fill="#803E3C"/>
<path d="M253.96 75.4012C251.49 75.7643 245.776 69.9661 245.776 69.9661L249.693 65.4775C249.693 65.4775 252.766 67.3894 254.98 69.7102C257.251 72.0936 256.67 75.0027 253.96 75.4012Z" fill="#4842FB"/>
<path opacity="0.7" d="M253.96 75.4012C251.49 75.7643 245.776 69.9661 245.776 69.9661L249.693 65.4775C249.693 65.4775 252.766 67.3894 254.98 69.7102C257.251 72.0936 256.67 75.0027 253.96 75.4012Z" fill="white"/>
<path d="M247.621 56.2116L248.273 53.0527L251.119 55.217C251.119 55.217 250.366 58.0003 248.951 57.5517L247.621 56.2116Z" fill="#7F3E3B"/>
<path d="M250.451 50.7168L252.266 53.409L251.118 55.2165L248.273 53.0522L250.451 50.7168Z" fill="#7F3E3B"/>
<path opacity="0.2" d="M252.887 72.2688C251.731 73.2508 249.144 72.3599 247.616 71.6943C249.419 73.2932 252.112 75.4054 253.722 75.4005C253.912 73.6625 253.992 71.3306 252.887 72.2688Z" fill="black"/>
<path d="M237.526 170.743L234.34 169.584L236.094 161.896L239.281 163.055L237.526 170.743Z" fill="#7F3E3B"/>
<path d="M262.661 174.98H259.278L258.318 167.137H261.701L262.661 174.98Z" fill="#7F3E3B"/>
<path d="M258.834 174.588H262.958C263.097 174.588 263.218 174.684 263.249 174.819L263.947 177.829C264.019 178.142 263.777 178.437 263.458 178.432C262.131 178.409 261.162 178.331 259.491 178.331C258.463 178.331 255.363 178.438 253.944 178.438C252.555 178.438 252.324 177.032 252.904 176.905C255.505 176.334 257.461 175.547 258.288 174.797C258.436 174.661 258.632 174.588 258.834 174.588Z" fill="#4842FB"/>
<path d="M234.223 168.935L237.843 169.713C237.979 169.742 238.076 169.861 238.079 169.999L238.131 173.082C238.137 173.402 237.846 173.641 237.534 173.568C236.233 173.266 234.362 172.784 232.72 172.432C230.801 172.019 229.612 171.631 227.361 171.148C226 170.856 225.904 169.401 226.499 169.398C229.208 169.388 230.849 169.92 233.372 169.021C233.646 168.924 233.937 168.874 234.223 168.935Z" fill="#4842FB"/>
<path opacity="0.2" d="M236.095 161.897L235.189 165.86L238.377 167.019L239.282 163.057L236.095 161.897Z" fill="black"/>
<path opacity="0.2" d="M261.702 167.139H258.317L258.814 171.181H262.198L261.702 167.139Z" fill="black"/>
<path d="M272.548 71.9686C271.065 75.5482 269.947 79.9408 269.082 83.4446C268.45 86.0081 267.959 88.4694 267.57 90.7088C266.653 95.9568 266.282 100.002 265.961 101.346C263.36 100.82 253.559 98.834 248.215 97.7491C248.086 78.3036 253.929 69.0601 253.929 69.0601C253.929 69.0601 255.958 68.9238 258.277 69.0914C258.582 69.1116 258.892 69.1415 259.206 69.1762C261.239 69.3988 264.506 70.1374 266.751 70.7049C267.223 70.8245 267.699 70.9587 268.161 71.0964C270.509 71.8016 272.548 71.9686 272.548 71.9686Z" fill="#4842FB"/>
<path opacity="0.7" d="M272.548 71.9686C271.065 75.5482 269.947 79.9408 269.082 83.4446C268.45 86.0081 267.959 88.4694 267.57 90.7088C266.653 95.9568 266.282 100.002 265.961 101.346C263.36 100.82 253.559 98.834 248.215 97.7491C248.086 78.3036 253.929 69.0601 253.929 69.0601C253.929 69.0601 255.958 68.9238 258.277 69.0914C258.582 69.1116 258.892 69.1415 259.206 69.1762C261.239 69.3988 264.506 70.1374 266.751 70.7049C267.223 70.8245 267.699 70.9587 268.161 71.0964C270.509 71.8016 272.548 71.9686 272.548 71.9686Z" fill="white"/>
<path d="M259.444 72.8682C258.748 74.2104 254.608 90.794 253.487 94.3826C253.619 95.1824 253.792 95.9899 254.003 96.805C254.572 96.1151 255.172 95.4314 255.803 94.7526C256.565 91.2523 259.497 74.7223 260.27 72.9954L259.444 72.8682Z" fill="#4842FB"/>
<path d="M259.419 73.9064L259.131 72.1141L260.434 71.8311L261.226 72.5634L259.419 73.9064Z" fill="#4842FB"/>
<path d="M267.637 62.0449C266.694 64.3796 265.363 68.7382 266.75 70.705C265.258 71.7364 263.204 72.4555 260.489 71.8435C258.409 71.3747 258.585 69.8913 259.206 69.1756C262.037 69.0769 262.353 67.0516 262.245 65.0668L267.637 62.0449Z" fill="#7F3E3B"/>
<path d="M260.434 71.8314C260.434 71.8314 261.019 73.004 261.743 74.1933C263.265 73.7537 266.883 72.4817 267.138 70.6491C267.071 70.0851 266.441 69.6191 266.441 69.6191C266.441 69.6191 264.008 71.1179 260.434 71.8314Z" fill="white"/>
<path d="M260.434 71.8305C260.434 71.8305 259.175 72.4787 258.234 73.4426C257.392 72.544 258.662 69.3032 259.112 69.0111C260.017 68.6744 260.547 68.8469 260.547 68.8469C260.547 68.8469 258.944 71.1065 260.434 71.8305Z" fill="white"/>
<path opacity="0.2" d="M265.438 63.2783L262.247 65.065C262.274 65.5351 262.274 66.0067 262.222 66.4532C263.284 66.513 264.923 65.6645 265.241 64.6025C265.4 64.0726 265.477 63.5482 265.438 63.2783Z" fill="black"/>
<path d="M261.48 53.5903C260.558 54.598 259.631 57.1205 261.647 57.1017C263.664 57.0823 263.064 51.8579 261.48 53.5903Z" fill="#263238"/>
<path d="M269.24 59.1574C268.007 62.2787 267.443 64.1704 265.305 65.2644C262.09 66.9106 258.642 64.1273 258.92 60.6896C259.17 57.5954 261.145 53.0108 264.669 52.7918C268.14 52.5769 270.472 56.0361 269.24 59.1574Z" fill="#7F3E3B"/>
<path d="M262.333 54.821C260.239 53.775 259.582 50.8512 263.049 50.0987C263.127 50.082 263.206 50.0674 263.285 50.0549C264.068 49.9311 264.712 50.5069 264.834 51.2907C264.844 51.3568 264.862 51.425 264.887 51.4945C265.244 51.128 266.051 50.6078 267.046 50.5375C267.854 50.4805 268.45 51.2073 268.397 52.0168C268.362 52.5614 268.609 53.0906 269.296 53.1094C271.114 53.1588 273.227 54.4816 272.173 56.31C273.709 58.2343 271.316 60.9057 267.922 61.1783C267 59.313 268.49 56.5541 268.49 56.5541C266.784 56.5214 264.23 55.7689 262.333 54.821Z" fill="#263238"/>
<path d="M271.663 56.3792C271.663 56.3792 273.213 56.1615 272.686 54.7031C273.846 55.674 272.999 56.5691 271.663 56.3792Z" fill="#263238"/>
<path d="M271.345 56.6179C271.345 56.6179 272.847 56.1797 272.965 57.7265C273.624 56.3654 272.485 55.8967 271.345 56.6179Z" fill="#263238"/>
<path d="M269.602 62.2137C269.08 62.9509 268.267 63.3737 267.534 63.4815C266.431 63.6436 266.011 62.6157 266.428 61.6413C266.803 60.7643 267.83 59.6238 268.884 59.9075C269.922 60.1878 270.199 61.3715 269.602 62.2137Z" fill="#7F3E3B"/>
<path d="M234.255 164.69L239.651 166.65C239.651 166.65 243.867 148.067 246.107 137.765C246.789 134.631 248.159 130.322 249.782 125.731C251.83 119.946 254.274 113.723 256.247 108.856C258.328 103.731 259.878 100.114 259.878 100.114L248.211 97.749C248.211 97.749 239.31 123.397 237.31 133.533C235.229 144.073 234.255 164.69 234.255 164.69Z" fill="#263238"/>
<path opacity="0.6" d="M249.783 125.73C251.831 119.945 254.275 113.722 256.248 108.855L255.345 106.06C252.007 109.153 249.924 119.81 249.783 125.73Z" fill="black"/>
<path d="M254.507 99.0254C254.507 99.0254 252.423 128.269 252.298 138.206C252.159 149.087 257.242 170.399 257.242 170.399H263.438C263.438 170.399 260.963 151.169 261.786 140.389C262.707 128.333 265.958 101.348 265.958 101.348L254.507 99.0254Z" fill="#263238"/>
<path d="M256.502 170.534H263.797L263.776 168.351L256.159 167.911L256.502 170.534Z" fill="#263238"/>
<path d="M233.534 164.621L239.996 166.867L240.699 164.779L233.633 162.202L233.534 164.621Z" fill="#263238"/>
<path d="M264.129 58.4223C264.044 58.6817 263.839 58.8458 263.67 58.7888C263.5 58.7318 263.432 58.4751 263.516 58.2157C263.601 57.9563 263.807 57.7922 263.976 57.8492C264.145 57.9062 264.214 58.1629 264.129 58.4223Z" fill="#263238"/>
<path d="M261.205 57.435C261.12 57.6944 260.915 57.8585 260.746 57.8015C260.577 57.7445 260.508 57.4878 260.593 57.2284C260.678 56.969 260.883 56.8049 261.052 56.8619C261.221 56.9182 261.289 57.1749 261.205 57.435Z" fill="#263238"/>
<path d="M262.093 57.8779C262.093 57.8779 261.02 59.1159 260.139 59.5951C260.458 60.1528 261.301 60.2189 261.301 60.2189L262.093 57.8779Z" fill="#630F0F"/>
<path d="M265.339 57.7791C265.284 57.7686 265.236 57.729 265.217 57.672C264.984 56.9918 264.414 56.836 264.409 56.8346C264.324 56.8124 264.271 56.7247 264.293 56.6385C264.314 56.5529 264.402 56.5015 264.487 56.5237C264.517 56.5314 265.231 56.7268 265.519 57.5704C265.548 57.6546 265.504 57.7457 265.42 57.7742C265.393 57.7832 265.365 57.7846 265.339 57.7791Z" fill="#263238"/>
<path d="M260.273 56.0002C260.243 55.9946 260.215 55.98 260.191 55.957C260.128 55.8951 260.126 55.7929 260.187 55.7296C260.803 55.094 261.525 55.2379 261.558 55.24C261.645 55.2574 261.701 55.3422 261.685 55.4292C261.668 55.5161 261.585 55.5725 261.499 55.5551C261.469 55.5481 260.91 55.4445 260.416 55.9543C260.378 55.9953 260.324 56.0099 260.273 56.0002Z" fill="#263238"/>
<path d="M257.722 175.18C257.464 175.18 257.223 175.136 257.069 175.007C256.946 174.905 256.889 174.762 256.898 174.583C256.905 174.449 256.975 174.386 257.033 174.356C257.405 174.163 258.503 174.835 258.627 174.912C258.655 174.929 258.67 174.96 258.665 174.992C258.66 175.024 258.636 175.05 258.605 175.058C258.371 175.115 258.034 175.18 257.722 175.18ZM257.212 174.478C257.17 174.478 257.135 174.485 257.108 174.499C257.087 174.51 257.062 174.531 257.058 174.593C257.051 174.72 257.088 174.815 257.17 174.884C257.357 175.039 257.799 175.061 258.372 174.945C257.988 174.724 257.471 174.478 257.212 174.478Z" fill="#4842FB"/>
<path d="M258.585 175.06C258.572 175.06 258.559 175.057 258.547 175.051C258.195 174.86 257.511 174.118 257.579 173.74C257.591 173.672 257.641 173.553 257.832 173.53C257.956 173.515 258.071 173.549 258.174 173.633C258.571 173.954 258.661 174.932 258.665 174.973C258.667 175.002 258.654 175.03 258.629 175.046C258.616 175.056 258.601 175.06 258.585 175.06ZM257.889 173.688C257.877 173.688 257.864 173.688 257.853 173.69C257.748 173.702 257.74 173.75 257.737 173.771C257.696 173.994 258.133 174.555 258.484 174.819C258.442 174.534 258.328 173.964 258.074 173.758C258.016 173.71 257.955 173.688 257.889 173.688Z" fill="#4842FB"/>
<path d="M233.803 169.323C233.8 169.324 233.796 169.324 233.792 169.324C233.236 169.315 232.26 169.242 231.962 168.842C231.873 168.722 231.85 168.583 231.894 168.429C231.92 168.337 231.98 168.275 232.066 168.248C232.517 168.107 233.709 169.072 233.843 169.182C233.87 169.203 233.88 169.239 233.868 169.271C233.858 169.299 233.833 169.319 233.803 169.323ZM232.145 168.395C232.134 168.397 232.124 168.399 232.114 168.401C232.078 168.413 232.059 168.434 232.047 168.474C232.017 168.579 232.031 168.668 232.09 168.747C232.258 168.971 232.796 169.12 233.553 169.156C233.079 168.792 232.413 168.363 232.145 168.395Z" fill="#4842FB"/>
<path d="M233.803 169.322C233.783 169.324 233.763 169.319 233.745 169.307C233.382 169.041 232.736 168.156 232.873 167.794C232.906 167.709 232.991 167.614 233.211 167.637C233.374 167.656 233.512 167.732 233.619 167.866C233.97 168.302 233.876 169.213 233.872 169.252C233.869 169.28 233.851 169.304 233.825 169.316C233.818 169.319 233.81 169.32 233.803 169.322ZM233.112 167.796C233.042 167.804 233.029 167.839 233.024 167.852C232.942 168.069 233.365 168.747 233.723 169.08C233.734 168.81 233.725 168.252 233.494 167.965C233.414 167.866 233.316 167.81 233.195 167.797C233.16 167.793 233.133 167.794 233.112 167.796Z" fill="#4842FB"/>
<path opacity="0.2" d="M270.476 73.9062L268.092 74.9161V76.4252C268.092 76.4252 268.504 79.4735 269.806 80.5779C270.333 78.5541 270.941 76.4127 271.641 74.3882C270.996 74.0655 270.476 73.9062 270.476 73.9062Z" fill="black"/>
<path d="M270.98 72.8753C271.954 72.7237 272.999 72.5832 273.999 72.4017C275.011 72.2431 276.014 72.0665 276.992 71.8564C277.959 71.6367 278.933 71.4238 279.765 71.1352C280.175 70.9954 280.567 70.841 280.793 70.7186C280.823 70.6964 280.902 70.6616 280.898 70.6616C280.892 70.6693 280.942 70.6338 280.896 70.6818C280.836 70.7499 280.796 70.8077 280.769 70.855C280.671 71.0448 280.724 71.0219 280.744 70.9294C280.8 70.7228 280.838 70.2972 280.823 69.8639C280.814 69.4237 280.772 68.9473 280.713 68.4639C280.609 67.4896 280.418 66.4867 280.234 65.472C280.045 64.458 279.823 63.4377 279.581 62.4196C279.367 61.3951 279.103 60.3658 278.873 59.3539L281.126 58.502C281.636 59.4854 282.063 60.4694 282.507 61.4688C282.92 62.4752 283.316 63.4927 283.685 64.5317C284.059 65.5707 284.37 66.6383 284.644 67.7587C284.772 68.3227 284.885 68.9007 284.963 69.521C285.035 70.147 285.102 70.7938 284.993 71.6401C284.922 72.07 284.833 72.5714 284.45 73.2133C284.352 73.3726 284.232 73.5367 284.08 73.7015C283.944 73.8476 283.887 73.8928 283.784 73.9915C283.589 74.1779 283.436 74.2788 283.256 74.4186C282.591 74.8797 282.008 75.1613 281.428 75.411C280.278 75.893 279.192 76.233 278.095 76.5133C275.903 77.0767 273.784 77.4696 271.549 77.7088L270.98 72.8753Z" fill="#803E3C"/>
<path d="M268.991 77.3227C270.965 78.8305 278.17 77.2747 278.17 77.2747L276.975 71.0488C276.975 71.0488 273.631 71.2936 270.564 72.1804C267.223 73.1471 266.599 75.4964 268.991 77.3227Z" fill="#4842FB"/>
<path opacity="0.7" d="M268.991 77.3227C270.965 78.8305 278.17 77.2747 278.17 77.2747L276.975 71.0488C276.975 71.0488 273.631 71.2936 270.564 72.1804C267.223 73.1471 266.599 75.4964 268.991 77.3227Z" fill="white"/>
<path d="M281.504 59.2804L281.745 56.002L277.862 57.4812C277.862 57.4812 278.277 60.3118 279.807 60.2464L281.504 59.2804Z" fill="#7F3E3B"/>
<path d="M280.251 53.7617L277.098 55.1339L277.862 57.4818L281.745 56.0025L280.251 53.7617Z" fill="#7F3E3B"/>
<path d="M260.614 61.3434C260.614 61.3434 261.414 61.2272 263.602 61.4254C263.265 62.0868 262.722 62.6022 261.602 62.4902C260.484 62.3776 260.614 61.3434 260.614 61.3434Z" fill="white"/>
<path d="M27.9783 166.913L65.8683 168.157H149.68L185.844 166.316V158.409L181.21 151.703L168.601 147.243L152.601 151.703L146.255 157.7L74.4896 158.409L60.4286 148.15L49.441 144.181L33.331 148.352L29.4023 155.562L27.085 162.827L27.9783 166.913Z" fill="#263238"/>
<path opacity="0.6" d="M27.9783 166.913L65.8683 168.157H149.68L185.844 166.316V158.409L181.21 151.703L168.601 147.243L152.601 151.703L146.255 157.7L74.4896 158.409L60.4286 148.15L49.441 144.181L33.331 148.352L29.4023 155.562L27.085 162.827L27.9783 166.913Z" fill="black"/>
<path d="M30.1825 160.918C31.5351 157.609 36.9047 152.104 40.1976 150.723C43.4009 149.379 51.0044 149.128 54.0912 150.723C57.3556 152.409 61.4862 159.21 62.6031 162.714C63.0147 164.004 62.8951 167.118 62.7585 169.169L152.212 170.113C152.024 167.624 151.9 164.19 152.484 162.761C153.837 159.452 159.206 153.947 162.499 152.566C165.703 151.222 173.306 150.971 176.393 152.566C179.657 154.252 183.788 161.053 184.905 164.557C185.174 165.401 185.215 167.028 185.174 168.626C185.842 168.123 186.451 167.534 186.96 166.845L187.802 165.707C188.923 164.191 189.529 162.355 189.529 160.469V157.516C189.529 155.906 189.088 154.327 188.253 152.951L186.104 149.406V125.38C186.104 124.197 185.865 123.026 185.403 121.937L176.808 101.707C175.471 98.5604 172.436 96.4739 169.023 96.3583C159.796 96.0461 141.683 95.5002 134.326 95.7501C123.631 96.1132 94.9434 99.0421 86.3952 99.9323C84.8122 100.097 83.3284 100.768 82.1565 101.846L56.7609 125.201L31.5611 136.217C29.4161 137.155 27.8398 139.053 27.3109 141.336L24.9277 151.626L24.1407 152.657C22.9664 154.194 22.4393 156.131 22.672 158.053L23.1574 162.057C23.3883 163.96 24.3456 165.698 25.8289 166.909L26.142 167.164C27.2359 168.058 28.5584 168.61 29.9491 168.775C29.7424 166.27 29.5569 162.447 30.1825 160.918Z" fill="#4842FB"/>
<path d="M45.9818 180.68C53.5759 180.68 59.7322 174.516 59.7322 166.913C59.7322 159.309 53.5759 153.146 45.9818 153.146C38.3877 153.146 32.2314 159.309 32.2314 166.913C32.2314 174.516 38.3877 180.68 45.9818 180.68Z" fill="#263238"/>
<path opacity="0.5" d="M45.9819 176.505C51.2731 176.505 55.5624 172.21 55.5624 166.912C55.5624 161.615 51.2731 157.32 45.9819 157.32C40.6907 157.32 36.4014 161.615 36.4014 166.912C36.4014 172.21 40.6907 176.505 45.9819 176.505Z" fill="white"/>
<g opacity="0.5">
<path d="M42.4557 163.755L41.7866 161.759C41.4753 160.829 40.2641 160.554 39.6162 161.29C38.8788 162.127 38.304 163.111 37.9401 164.193C37.6258 165.126 38.4654 166.046 39.43 165.85L41.4886 165.433C42.2484 165.278 42.7023 164.492 42.4557 163.755Z" fill="black"/>
<path d="M46.9484 162.276L48.3422 160.697C48.9895 159.963 48.6251 158.778 47.6677 158.581C47.1231 158.469 46.5592 158.409 45.9814 158.409C45.403 158.409 44.8397 158.468 44.2951 158.581C43.3377 158.778 42.9738 159.963 43.6206 160.697L45.0143 162.276C45.5275 162.858 46.4347 162.858 46.9484 162.276Z" fill="black"/>
<path d="M50.4759 165.433L52.5345 165.851C53.4985 166.046 54.338 165.127 54.0244 164.193C53.6605 163.112 53.0857 162.127 52.3483 161.291C51.7004 160.555 50.4892 160.83 50.1779 161.76L49.5094 163.756C49.2616 164.492 49.7155 165.279 50.4759 165.433Z" fill="black"/>
<path d="M49.5081 170.07L50.1766 172.066C50.4879 172.996 51.6991 173.271 52.3471 172.536C53.0845 171.699 53.6592 170.715 54.0231 169.633C54.3368 168.7 53.4973 167.78 52.5332 167.976L50.4746 168.393C49.7149 168.547 49.2609 169.333 49.5081 170.07Z" fill="black"/>
<path d="M45.0143 171.549L43.6206 173.129C42.9738 173.862 43.3377 175.047 44.2951 175.244C44.8397 175.356 45.4036 175.416 45.9814 175.416C46.5592 175.416 47.1231 175.357 47.6677 175.244C48.6251 175.047 48.9889 173.862 48.3422 173.129L46.9484 171.549C46.4353 170.967 45.5281 170.967 45.0143 171.549Z" fill="black"/>
<path d="M41.4874 168.392L39.4288 167.975C38.4648 167.779 37.6252 168.699 37.9389 169.632C38.3028 170.714 38.8776 171.698 39.615 172.535C40.2629 173.27 41.4741 172.996 41.7854 172.066L42.4545 170.07C42.7017 169.333 42.2478 168.547 41.4874 168.392Z" fill="black"/>
</g>
<g opacity="0.5">
<path d="M44.7389 166.315C45.0957 166.315 45.385 166.026 45.385 165.668C45.385 165.311 45.0957 165.021 44.7389 165.021C44.382 165.021 44.0928 165.311 44.0928 165.668C44.0928 166.026 44.382 166.315 44.7389 166.315Z" fill="white"/>
<path d="M47.8704 165.668C47.8704 166.025 47.5808 166.315 47.2242 166.315C46.8676 166.315 46.5781 166.025 46.5781 165.668C46.5781 165.311 46.8676 165.021 47.2242 165.021C47.5808 165.021 47.8704 165.311 47.8704 165.668Z" fill="white"/>
<path d="M45.385 168.157C45.385 168.514 45.0955 168.804 44.7389 168.804C44.3823 168.804 44.0928 168.514 44.0928 168.157C44.0928 167.8 44.3823 167.51 44.7389 167.51C45.0955 167.51 45.385 167.799 45.385 168.157Z" fill="white"/>
<path d="M47.8704 168.157C47.8704 168.514 47.5808 168.804 47.2242 168.804C46.8676 168.804 46.5781 168.514 46.5781 168.157C46.5781 167.8 46.8676 167.51 47.2242 167.51C47.5808 167.51 47.8704 167.799 47.8704 168.157Z" fill="white"/>
</g>
<path d="M169.197 180.68C176.791 180.68 182.947 174.516 182.947 166.913C182.947 159.309 176.791 153.146 169.197 153.146C161.603 153.146 155.446 159.309 155.446 166.913C155.446 174.516 161.603 180.68 169.197 180.68Z" fill="#263238"/>
<path opacity="0.5" d="M169.197 176.505C174.488 176.505 178.777 172.21 178.777 166.912C178.777 161.615 174.488 157.32 169.197 157.32C163.906 157.32 159.616 161.615 159.616 166.912C159.616 172.21 163.906 176.505 169.197 176.505Z" fill="white"/>
<g opacity="0.5">
<path d="M165.669 163.755L165 161.759C164.689 160.829 163.478 160.554 162.83 161.29C162.092 162.127 161.518 163.111 161.154 164.193C160.84 165.126 161.679 166.046 162.644 165.85L164.702 165.433C165.463 165.278 165.917 164.492 165.669 163.755Z" fill="black"/>
<path d="M170.163 162.276L171.557 160.697C172.204 159.963 171.84 158.778 170.883 158.581C170.338 158.469 169.774 158.409 169.196 158.409C168.618 158.409 168.054 158.468 167.51 158.581C166.553 158.778 166.189 159.963 166.835 160.697L168.229 162.276C168.742 162.858 169.65 162.858 170.163 162.276Z" fill="black"/>
<path d="M173.69 165.433L175.748 165.851C176.712 166.046 177.552 165.127 177.238 164.193C176.874 163.112 176.3 162.127 175.562 161.291C174.914 160.555 173.703 160.83 173.392 161.76L172.723 163.756C172.476 164.492 172.93 165.279 173.69 165.433Z" fill="black"/>
<path d="M172.723 170.07L173.392 172.066C173.703 172.996 174.915 173.271 175.563 172.536C176.3 171.699 176.875 170.715 177.239 169.633C177.553 168.7 176.713 167.78 175.749 167.976L173.691 168.393C172.93 168.547 172.476 169.333 172.723 170.07Z" fill="black"/>
<path d="M168.229 171.549L166.835 173.129C166.189 173.862 166.553 175.047 167.51 175.244C168.054 175.356 168.618 175.416 169.196 175.416C169.775 175.416 170.338 175.357 170.883 175.244C171.84 175.047 172.204 173.862 171.557 173.129L170.163 171.549C169.65 170.967 168.743 170.967 168.229 171.549Z" fill="black"/>
<path d="M164.702 168.392L162.644 167.975C161.68 167.779 160.84 168.699 161.154 169.632C161.518 170.714 162.092 171.698 162.83 172.535C163.478 173.27 164.689 172.996 165 172.066L165.669 170.07C165.917 169.333 165.463 168.547 164.702 168.392Z" fill="black"/>
</g>
<g opacity="0.5">
<path d="M168.601 165.668C168.601 166.025 168.311 166.315 167.955 166.315C167.598 166.315 167.309 166.025 167.309 165.668C167.309 165.311 167.598 165.021 167.955 165.021C168.311 165.021 168.601 165.311 168.601 165.668Z" fill="white"/>
<path d="M170.439 166.315C170.796 166.315 171.085 166.026 171.085 165.668C171.085 165.311 170.796 165.021 170.439 165.021C170.082 165.021 169.793 165.311 169.793 165.668C169.793 166.026 170.082 166.315 170.439 166.315Z" fill="white"/>
<path d="M168.601 168.157C168.601 168.514 168.311 168.804 167.955 168.804C167.598 168.804 167.309 168.514 167.309 168.157C167.309 167.8 167.598 167.51 167.955 167.51C168.311 167.51 168.601 167.799 168.601 168.157Z" fill="white"/>
<path d="M171.085 168.157C171.085 168.514 170.796 168.804 170.439 168.804C170.082 168.804 169.793 168.514 169.793 168.157C169.793 167.8 170.082 167.51 170.439 167.51C170.796 167.51 171.085 167.799 171.085 168.157Z" fill="white"/>
</g>
<path d="M81.4205 105.764C82.3954 104.867 82.4649 103.356 81.5855 102.37L56.7598 125.201L56.0352 125.518C56.0805 125.578 56.118 125.642 56.1699 125.698C57.0735 126.682 58.6027 126.748 59.5861 125.843L81.4205 105.764Z" fill="#263238"/>
<path opacity="0.5" d="M28.2537 153.145C28.0911 153.145 27.9636 153.005 27.9799 152.842L29.1259 141.075C29.1428 140.9 29.3187 140.785 29.4861 140.84L30.542 141.188C31.8457 141.617 32.6158 142.963 32.3256 144.306L30.8751 151.027C30.6085 152.263 29.5163 153.145 28.2537 153.145Z" fill="white"/>
<g opacity="0.2">
<path d="M34.801 145.372C34.7913 144.871 35.189 144.457 35.69 144.447L179.338 141.658C179.839 141.649 180.253 142.047 180.262 142.549C180.272 143.05 179.874 143.464 179.373 143.474L35.7245 146.262C35.224 146.272 34.8106 145.874 34.801 145.372Z" fill="white"/>
</g>
<path d="M125.48 128.371L152.212 127.909C155.109 127.859 157.303 125.269 156.878 122.398L154.213 104.394C154.057 103.34 153.165 102.553 152.101 102.528C147.466 102.421 142.818 102.343 139.122 102.343C137.341 102.343 135.782 102.361 134.551 102.403C132.147 102.485 128.322 102.759 123.857 103.131C122.783 103.22 121.932 104.083 121.857 105.16L120.607 123.234C120.413 126.046 122.665 128.42 125.48 128.371Z" fill="#263238"/>
<path d="M179.124 124.163L170.691 104.313C170.366 103.549 169.631 103.041 168.801 103.013C167.318 102.963 165.434 102.901 163.306 102.835C161.945 102.793 160.875 103.994 161.075 105.342L163.766 123.526C164.12 125.913 166.188 127.668 168.598 127.627L176.845 127.484C177.948 127.465 178.971 126.756 179.242 125.686C179.37 125.171 179.326 124.637 179.124 124.163Z" fill="#263238"/>
<path d="M112.719 104.129C102.932 105.052 92.9933 106.082 88.7654 106.525C87.3934 106.669 86.1072 107.252 85.0912 108.185L70.265 121.82C67.359 124.492 69.2955 129.344 73.2405 129.275L109.172 128.653C111.662 128.61 113.706 126.667 113.878 124.179L115.103 106.457C115.197 105.111 114.061 104.003 112.719 104.129Z" fill="#263238"/>
<path d="M153.751 133.057L147.505 133.178C147.012 133.188 146.616 133.591 146.616 134.086C146.616 134.594 147.033 135.003 147.54 134.993L153.786 134.872C154.28 134.863 154.675 134.459 154.675 133.965C154.675 133.456 154.258 133.047 153.751 133.057Z" fill="#263238"/>
<path d="M109.948 134.833C109.948 134.324 109.532 133.915 109.024 133.925L102.779 134.046C102.285 134.056 101.89 134.459 101.89 134.954C101.89 135.462 102.307 135.871 102.814 135.861L109.059 135.74C109.553 135.731 109.948 135.327 109.948 134.833Z" fill="#263238"/>
<g opacity="0.2">
<path d="M30.1827 160.917C30.6451 159.786 31.5825 158.398 32.74 157.007L25.1788 157.154C24.1011 157.175 23.1764 156.51 22.8016 155.562C22.6227 156.372 22.5708 157.213 22.6729 158.053L23.1582 162.057C23.3891 163.959 24.3465 165.698 25.8297 166.909L26.1428 167.164C27.2368 168.057 28.5593 168.61 29.95 168.774C29.7427 166.27 29.5572 162.446 30.1827 160.917Z" fill="black"/>
<path d="M152.212 170.113C152.024 167.624 151.9 164.189 152.484 162.761C153.461 160.373 156.527 156.849 159.397 154.549L59.4473 156.489C60.893 158.712 62.0801 161.073 62.6035 162.713C63.0151 164.004 62.8954 167.118 62.7588 169.169L152.212 170.113Z" fill="black"/>
<path d="M184.905 164.556C185.174 165.4 185.216 167.027 185.175 168.625C185.842 168.122 186.451 167.533 186.961 166.844L187.803 165.706C188.924 164.191 189.529 162.354 189.529 160.468V157.515C189.529 155.905 189.088 154.326 188.253 152.95L187.497 151.702C187.411 152.991 186.365 154.024 185.053 154.05L178.472 154.177C181.222 156.904 184.017 161.769 184.905 164.556Z" fill="black"/>
</g>
<g opacity="0.2">
<path d="M68.2424 161.64C68.2297 160.972 68.7604 160.419 69.4277 160.406L146.403 158.912C147.07 158.899 147.622 159.431 147.635 160.099C147.648 160.767 147.117 161.32 146.45 161.332L69.4748 162.826C68.8069 162.84 68.2551 162.308 68.2424 161.64Z" fill="white"/>
</g>
<path opacity="0.6" d="M74.4898 117.936L70.265 121.821C67.359 124.493 69.2955 129.344 73.2399 129.276L74.4898 129.254V117.936Z" fill="black"/>
<path d="M80.2712 118.948H78.1352C77.0678 118.948 76.2029 119.814 76.2029 120.883V123.858L72.632 124.549C72.1902 124.635 71.8711 125.022 71.8711 125.473V126.319C71.8711 126.98 72.5341 127.435 73.1494 127.196L76.5408 125.882C76.9669 126.512 77.7417 126.876 78.5541 126.695L80.5686 126.247C81.196 126.107 81.642 125.55 81.642 124.907V120.321C81.6426 119.562 81.0285 118.948 80.2712 118.948Z" fill="#4842FB"/>
<path d="M224.554 120.749C228.075 127.805 226.063 135.963 220.028 138.964L217.923 140.011C211.908 143.012 204.183 139.723 200.669 132.666C197.155 125.61 199.167 117.453 205.202 114.452L207.308 113.398C213.323 110.397 221.034 113.693 224.554 120.749Z" fill="#A5D503"/>
<path d="M220.018 138.973C226.034 135.971 228.062 127.816 224.549 120.757C221.036 113.699 213.311 110.41 207.295 113.411C201.279 116.413 199.25 124.568 202.764 131.627C206.277 138.685 214.002 141.974 220.018 138.973Z" fill="#D3FF3C"/>
<path d="M218.914 136.759C223.886 134.278 225.562 127.538 222.659 121.704C219.755 115.87 213.37 113.151 208.399 115.632C203.427 118.112 201.75 124.853 204.654 130.687C207.558 136.521 213.942 139.24 218.914 136.759Z" fill="#A5D503"/>
<path d="M216.912 131.765L217.529 133.598L216.381 133.987L215.774 132.164C214.497 132.54 213.129 132.464 211.9 131.95L211.957 130.108C212.978 130.558 214.117 130.666 215.205 130.417L214.105 127.141C212.407 127.217 210.549 127.179 209.785 124.905C209.225 123.234 209.776 121.43 211.872 120.452L211.255 118.6L212.398 118.216L213.005 120.039C214.043 119.749 215.143 119.766 216.172 120.086L216.135 121.947C215.302 121.705 214.426 121.663 213.574 121.823L214.684 125.137C216.386 125.057 218.264 125.066 219.027 127.34C219.587 128.974 219.017 130.769 216.912 131.765ZM213.422 125.138L212.45 122.219C211.68 122.526 211.286 123.384 211.554 124.17C211.801 124.967 212.521 125.129 213.422 125.138ZM217.282 128.053C217.016 127.256 216.296 127.066 215.357 127.075L216.339 129.957C217.273 129.458 217.524 128.76 217.287 128.049L217.282 128.053Z" fill="#D3FF3C"/>
</svg>
