<svg width="502" height="322" viewBox="0 0 502 322" fill="none" xmlns="http://www.w3.org/2000/svg">
<path d="M245.186 38.4141H257.076L275.929 250.594H264.039C258.554 250.594 253.713 246.149 253.226 240.665L236.137 48.3423C235.651 42.8593 239.702 38.4141 245.186 38.4141Z" fill="#4842FB"/>
<path d="M397.384 250.594H267.564C261.419 250.594 256.003 245.614 255.465 239.471L238.846 49.5374C238.308 43.3936 242.853 38.4141 248.998 38.4141H378.818C384.963 38.4141 390.379 43.3936 390.917 49.5374L407.536 239.471C408.073 245.614 403.529 250.594 397.384 250.594Z" fill="#4842FB"/>
<path opacity="0.5" d="M397.384 250.594H267.564C261.419 250.594 256.003 245.614 255.465 239.471L238.846 49.5374C238.308 43.3936 242.853 38.4141 248.998 38.4141H378.818C384.963 38.4141 390.379 43.3936 390.917 49.5374L407.536 239.471C408.073 245.614 403.529 250.594 397.384 250.594Z" fill="white"/>
<path opacity="0.2" d="M268.853 226.352H396.017L379.939 45.4072H252.775L268.853 226.352Z" fill="black"/>
<path d="M274.413 223.875H401.577L379.939 45.4072H252.775L274.413 223.875Z" fill="#4842FB"/>
<path opacity="0.8" d="M274.413 223.875H401.577L379.939 45.4072H252.775L274.413 223.875Z" fill="white"/>
<path d="M322.748 68.7776C322.756 67.2988 321.591 66.0938 320.148 66.0863L311.99 66.0438L311.951 73.4813L313.605 73.4899L313.635 67.6615L320.194 67.6956C320.759 67.6986 321.214 68.1696 321.211 68.7484C321.208 69.3272 320.748 69.7935 320.183 69.7906L315.567 69.7666C315.09 69.7641 314.86 70.6013 315.265 70.859C315.671 71.1167 319.539 73.5197 319.539 73.5197L322.58 73.5355L319.742 71.4389L320.121 71.4408C321.565 71.4484 322.741 70.2554 322.749 68.7766L322.748 68.7776Z" fill="#677074"/>
<path d="M308.95 66.028L303.746 66.001C302.323 65.9936 301.165 67.1684 301.158 68.624L301.133 73.424L302.753 73.4324L302.763 71.6567L309.863 71.6936L309.854 73.4694L311.485 73.4778L311.51 68.6778C311.518 67.2212 310.371 66.0354 308.95 66.028ZM302.771 70.0395L302.778 68.7263C302.781 68.093 303.285 67.5815 303.904 67.5847L308.765 67.61C309.384 67.6132 309.883 68.1289 309.88 68.7633L309.873 70.0764L302.771 70.0395Z" fill="#677074"/>
<path d="M323.182 66.102L323.158 70.8344C323.15 72.3283 324.326 73.5456 325.785 73.5532L331.904 73.585L331.913 71.9597L325.879 71.9284C325.289 71.9253 324.814 71.4329 324.818 70.8299L324.842 66.1107L323.182 66.102Z" fill="#677074"/>
<path d="M340.868 66.2011L335.366 66.1724C333.361 66.162 331.727 67.8182 331.716 69.8718C331.706 71.9253 333.322 73.5984 335.327 73.6089L340.83 73.6375C342.835 73.6479 344.469 71.9917 344.479 69.9381C344.49 67.8846 342.873 66.2115 340.868 66.2011ZM342.848 69.9297C342.842 71.0903 341.919 72.0259 340.786 72.02L335.388 71.992C334.255 71.9861 333.342 71.0409 333.348 69.8803C333.354 68.7196 334.277 67.784 335.41 67.7899L340.808 67.818C341.941 67.8239 342.854 68.769 342.848 69.9297Z" fill="#677074"/>
<path d="M300.73 65.9853L300.721 67.6449L292.53 67.6023C291.954 67.5993 291.483 68.0757 291.479 68.6676L291.469 70.6727C291.466 71.2636 291.931 71.7458 292.509 71.7488L300.7 71.7914L300.691 73.4227L292.58 73.3806C291.049 73.3726 289.814 72.0944 289.822 70.5257L289.831 68.7701C289.839 67.2004 291.087 65.9352 292.619 65.9431L300.73 65.9853Z" fill="#677074"/>
<path d="M323.854 74.7149L323.855 74.4903L325.619 74.4995L325.618 74.7241L324.878 74.7203L324.869 76.5869L324.584 76.5854L324.594 74.7188L323.854 74.7149Z" fill="#677074"/>
<path d="M326.757 75.9554L326.762 75.0282L327.033 75.0296L327.024 76.5981L326.753 76.5967L326.755 76.3312L326.736 76.3311C326.695 76.4105 326.63 76.4779 326.542 76.5333C326.455 76.588 326.344 76.615 326.211 76.6143C326.101 76.6137 326.003 76.5917 325.918 76.5484C325.832 76.5044 325.765 76.4387 325.716 76.3513C325.668 76.2632 325.644 76.1525 325.645 76.0191L325.65 75.0225L325.921 75.0239L325.916 76.0041C325.915 76.1185 325.951 76.2099 326.022 76.2783C326.095 76.3468 326.187 76.3813 326.3 76.3819C326.367 76.3823 326.436 76.3673 326.505 76.337C326.576 76.3068 326.635 76.2601 326.683 76.197C326.732 76.134 326.756 76.0534 326.757 75.9554Z" fill="#677074"/>
<path d="M328.208 76.6042L328.219 74.513L329.014 74.5171C329.199 74.5181 329.349 74.5485 329.466 74.6083C329.584 74.6675 329.671 74.7472 329.727 74.8476C329.783 74.948 329.811 75.0597 329.81 75.183C329.809 75.3062 329.78 75.418 329.723 75.5185C329.667 75.6189 329.58 75.6988 329.462 75.7581C329.345 75.8167 329.195 75.8455 329.012 75.8446L328.442 75.8416L328.443 75.617L329.004 75.6199C329.13 75.6206 329.232 75.6017 329.308 75.5633C329.385 75.5249 329.441 75.4727 329.476 75.4069C329.511 75.3404 329.529 75.2652 329.53 75.1815C329.53 75.0978 329.513 75.0228 329.478 74.9566C329.444 74.8904 329.388 74.8383 329.311 74.8005C329.234 74.762 329.132 74.7424 329.004 74.7417L328.503 74.7391L328.493 76.6057L328.208 76.6042Z" fill="#677074"/>
<path d="M330.095 76.614L330.103 75.0456L330.365 75.047L330.364 75.2839L330.382 75.284C330.415 75.2065 330.473 75.1439 330.558 75.096C330.642 75.0481 330.737 75.0244 330.843 75.0249C330.863 75.0251 330.888 75.0255 330.918 75.0264C330.948 75.0272 330.97 75.0283 330.985 75.0298L330.984 75.2748C330.975 75.2727 330.954 75.2696 330.921 75.2653C330.889 75.2604 330.855 75.2578 330.819 75.2576C330.733 75.2572 330.656 75.2728 330.589 75.3044C330.522 75.3354 330.469 75.3787 330.43 75.4343C330.391 75.4893 330.372 75.5521 330.371 75.6229L330.366 76.6154L330.095 76.614Z" fill="#677074"/>
<path d="M331.169 76.6196L331.177 75.0512L331.448 75.0526L331.44 76.621L331.169 76.6196ZM331.316 74.7905C331.264 74.7902 331.218 74.774 331.18 74.7418C331.143 74.7096 331.124 74.6711 331.124 74.6261C331.125 74.5812 331.144 74.5428 331.181 74.511C331.22 74.4792 331.265 74.4635 331.318 74.4637C331.371 74.464 331.416 74.4803 331.453 74.5124C331.491 74.5446 331.51 74.5832 331.51 74.6281C331.51 74.6731 331.491 74.7114 331.452 74.7432C331.414 74.775 331.369 74.7908 331.316 74.7905Z" fill="#677074"/>
<path d="M331.807 76.6229L331.815 75.0545L332.077 75.0559L332.076 75.3009L332.099 75.3011C332.136 75.2175 332.196 75.1528 332.278 75.107C332.36 75.0604 332.459 75.0374 332.573 75.038C332.69 75.0386 332.787 75.0626 332.864 75.11C332.941 75.1567 333.002 75.222 333.045 75.306L333.064 75.3061C333.109 75.2253 333.177 75.1613 333.268 75.1141C333.358 75.0663 333.467 75.0427 333.593 75.0433C333.751 75.0442 333.88 75.0887 333.98 75.1771C334.079 75.2647 334.129 75.4008 334.128 75.5853L334.122 76.635L333.851 76.6336L333.857 75.5839C333.857 75.4681 333.822 75.3852 333.751 75.3352C333.68 75.2851 333.597 75.2598 333.5 75.2593C333.376 75.2587 333.28 75.2915 333.211 75.3579C333.143 75.4236 333.108 75.5071 333.108 75.6086L333.103 76.6297L332.827 76.6282L332.833 75.554C332.833 75.4649 332.801 75.3929 332.736 75.3381C332.671 75.2826 332.588 75.2546 332.485 75.2541C332.415 75.2537 332.349 75.27 332.287 75.3031C332.227 75.3361 332.177 75.3821 332.139 75.4412C332.102 75.4995 332.084 75.5672 332.083 75.6441L332.078 76.6243L331.807 76.6229Z" fill="#677074"/>
<path d="M335.228 76.6734C335.058 76.6725 334.912 76.6384 334.789 76.571C334.667 76.503 334.573 76.4086 334.507 76.2877C334.441 76.1662 334.409 76.0251 334.41 75.8645C334.411 75.7038 334.444 75.5624 334.511 75.4402C334.578 75.3174 334.671 75.2218 334.79 75.1537C334.91 75.0849 335.05 75.0509 335.209 75.0517C335.301 75.0522 335.391 75.0663 335.481 75.094C335.57 75.1217 335.652 75.1664 335.725 75.228C335.798 75.289 335.856 75.3696 335.899 75.4699C335.942 75.5702 335.964 75.6935 335.963 75.8399L335.962 75.942L334.603 75.9349L334.604 75.7266L335.688 75.7323C335.688 75.6438 335.669 75.5647 335.629 75.495C335.591 75.4254 335.535 75.3703 335.462 75.3298C335.391 75.2892 335.306 75.2687 335.208 75.2682C335.1 75.2676 335.006 75.291 334.927 75.3382C334.849 75.3848 334.788 75.4457 334.746 75.5211C334.703 75.5964 334.682 75.6773 334.682 75.7638L334.681 75.9027C334.68 76.0211 334.703 76.1216 334.748 76.2042C334.794 76.2862 334.859 76.3488 334.941 76.3921C335.024 76.4348 335.12 76.4564 335.229 76.4569C335.3 76.4573 335.365 76.4488 335.422 76.4314C335.481 76.4133 335.531 76.3863 335.573 76.3505C335.615 76.3139 335.648 76.2685 335.671 76.2141L335.933 76.2809C335.905 76.3597 335.858 76.4289 335.793 76.4884C335.728 76.5473 335.647 76.5932 335.551 76.6261C335.455 76.6582 335.348 76.674 335.228 76.6734Z" fill="#677074"/>
<path d="M336.242 76.646L336.25 75.0776L336.512 75.0789L336.51 75.3158L336.529 75.3159C336.561 75.2385 336.62 75.1758 336.704 75.1279C336.789 75.08 336.884 75.0564 336.989 75.0569C337.009 75.057 337.034 75.0575 337.064 75.0583C337.094 75.0591 337.117 75.0603 337.132 75.0617L337.131 75.3068C337.121 75.3047 337.1 75.3015 337.067 75.2973C337.035 75.2923 337.001 75.2898 336.965 75.2896C336.88 75.2892 336.803 75.3048 336.735 75.3364C336.669 75.3674 336.616 75.4107 336.576 75.4663C336.538 75.5212 336.518 75.5841 336.518 75.6549L336.513 76.6474L336.242 76.646Z" fill="#677074"/>
<path d="M338.229 76.6563L337.93 76.6548L338.805 74.568L339.099 74.5696L339.952 76.6653L339.653 76.6637L338.959 74.8997L338.941 74.8996L338.229 76.6563ZM338.343 75.84L339.547 75.8463L339.546 76.0709L338.342 76.0647L338.343 75.84Z" fill="#677074"/>
<path d="M341.267 76.0308L341.272 75.1037L341.543 75.1051L341.535 76.6735L341.264 76.6721L341.265 76.4066L341.247 76.4065C341.205 76.4859 341.14 76.5533 341.053 76.6087C340.965 76.6634 340.855 76.6904 340.721 76.6897C340.611 76.6891 340.513 76.6672 340.428 76.6238C340.342 76.5798 340.275 76.5141 340.227 76.4267C340.178 76.3387 340.154 76.2279 340.155 76.0945L340.16 75.0979L340.431 75.0993L340.426 76.0796C340.425 76.1939 340.461 76.2853 340.532 76.3538C340.605 76.4222 340.697 76.4568 340.81 76.4573C340.877 76.4577 340.946 76.4427 341.016 76.4125C341.086 76.3822 341.145 76.3355 341.193 76.2725C341.242 76.2094 341.266 76.1289 341.267 76.0308Z" fill="#677074"/>
<path d="M342.677 75.111L342.676 75.3152L341.762 75.3105L341.763 75.1062L342.677 75.111ZM342.031 74.7318L342.302 74.7333L342.294 76.2282C342.294 76.2962 342.305 76.3473 342.327 76.3815C342.35 76.415 342.379 76.4376 342.414 76.4493C342.45 76.4604 342.488 76.4661 342.528 76.4663C342.557 76.4664 342.582 76.4652 342.601 76.4626C342.62 76.4593 342.636 76.4566 342.647 76.4546L342.701 76.6714C342.683 76.6774 342.657 76.6834 342.624 76.6894C342.591 76.696 342.549 76.6992 342.499 76.6989C342.422 76.6985 342.347 76.6835 342.274 76.6539C342.201 76.6242 342.141 76.5793 342.093 76.5192C342.046 76.459 342.023 76.3833 342.023 76.2921L342.031 74.7318Z" fill="#677074"/>
<path d="M343.645 76.7172C343.485 76.7163 343.346 76.6819 343.226 76.6139C343.107 76.5459 343.014 76.4511 342.947 76.3296C342.881 76.2081 342.849 76.0663 342.85 75.9043C342.85 75.7409 342.884 75.5985 342.952 75.477C343.02 75.3555 343.114 75.2613 343.233 75.1945C343.354 75.1278 343.494 75.0948 343.653 75.0956C343.812 75.0965 343.952 75.1309 344.071 75.1989C344.19 75.2669 344.283 75.362 344.349 75.4842C344.416 75.6064 344.449 75.7492 344.448 75.9126C344.447 76.0746 344.413 76.216 344.345 76.3369C344.278 76.4577 344.184 76.5515 344.063 76.6182C343.943 76.685 343.804 76.718 343.645 76.7172ZM343.646 76.5007C343.767 76.5013 343.866 76.4743 343.945 76.4195C344.023 76.3648 344.081 76.2926 344.119 76.2029C344.157 76.1133 344.177 76.016 344.177 75.9112C344.178 75.8064 344.159 75.7086 344.122 75.6178C344.085 75.5271 344.028 75.4536 343.95 75.3974C343.872 75.3412 343.773 75.3127 343.652 75.3121C343.531 75.3115 343.431 75.3389 343.353 75.3943C343.275 75.4497 343.216 75.5226 343.178 75.6129C343.14 75.7033 343.121 75.8009 343.121 75.9057C343.12 76.0105 343.138 76.108 343.175 76.198C343.212 76.2881 343.27 76.3609 343.348 76.4164C343.425 76.472 343.525 76.5001 343.646 76.5007Z" fill="#677074"/>
<path d="M372.139 94.8065H292.593C291.681 94.8065 290.877 94.0677 290.797 93.1552C290.717 92.2437 291.393 91.5039 292.304 91.5039H371.85C372.763 91.5039 373.566 92.2427 373.646 93.1552C373.726 94.0666 373.051 94.8065 372.139 94.8065Z" fill="#263238"/>
<path d="M369.655 104.164H279.374C278.463 104.164 277.658 103.425 277.578 102.513C277.498 101.601 278.173 100.861 279.084 100.861H369.365C370.277 100.861 371.081 101.6 371.16 102.513C371.242 103.425 370.566 104.164 369.655 104.164Z" fill="#263238"/>
<path d="M373.776 113.52H280.193C279.281 113.52 278.476 112.782 278.397 111.869C278.317 110.958 278.992 110.218 279.904 110.218H373.487C374.399 110.218 375.204 110.957 375.284 111.869C375.363 112.782 374.689 113.52 373.776 113.52Z" fill="#263238"/>
<path d="M363.034 122.878H281.011C280.099 122.878 279.295 122.139 279.214 121.226C279.134 120.315 279.81 119.575 280.721 119.575H362.744C363.656 119.575 364.46 120.314 364.539 121.226C364.621 122.138 363.946 122.878 363.034 122.878Z" fill="#263238"/>
<path d="M375.414 132.234H295.868C294.957 132.234 294.152 131.495 294.072 130.583C293.992 129.67 294.667 128.932 295.579 128.932H375.125C376.037 128.932 376.841 129.67 376.92 130.583C377.001 131.495 376.326 132.234 375.414 132.234Z" fill="#263238"/>
<path d="M372.104 141.592H282.649C281.737 141.592 280.932 140.853 280.853 139.94C280.773 139.029 281.448 138.289 282.36 138.289H371.814C372.727 138.289 373.53 139.028 373.611 139.94C373.691 140.852 373.016 141.592 372.104 141.592Z" fill="#263238"/>
<path d="M377.052 150.947H283.468C282.556 150.947 281.752 150.208 281.671 149.296C281.591 148.384 282.267 147.645 283.178 147.645H376.762C377.673 147.645 378.478 148.383 378.557 149.296C378.639 150.208 377.963 150.947 377.052 150.947Z" fill="#263238"/>
<path d="M371.264 160.306H284.286C283.375 160.306 282.57 159.567 282.491 158.654C282.411 157.742 283.086 157.003 283.997 157.003H370.975C371.887 157.003 372.691 157.742 372.771 158.654C372.851 159.566 372.175 160.306 371.264 160.306Z" fill="#263238"/>
<g opacity="0.3">
<path d="M372.139 94.8065H292.593C291.681 94.8065 290.877 94.0677 290.797 93.1552C290.717 92.2437 291.393 91.5039 292.304 91.5039H371.85C372.763 91.5039 373.566 92.2427 373.646 93.1552C373.726 94.0666 373.051 94.8065 372.139 94.8065Z" fill="white"/>
<path d="M369.655 104.164H279.374C278.463 104.164 277.658 103.425 277.578 102.513C277.498 101.601 278.173 100.861 279.084 100.861H369.365C370.277 100.861 371.081 101.6 371.16 102.513C371.242 103.425 370.566 104.164 369.655 104.164Z" fill="white"/>
<path d="M373.776 113.52H280.193C279.281 113.52 278.476 112.782 278.397 111.869C278.317 110.958 278.992 110.218 279.904 110.218H373.487C374.399 110.218 375.204 110.957 375.284 111.869C375.363 112.782 374.689 113.52 373.776 113.52Z" fill="white"/>
<path d="M363.034 122.878H281.011C280.099 122.878 279.295 122.139 279.214 121.226C279.134 120.315 279.81 119.575 280.721 119.575H362.744C363.656 119.575 364.46 120.314 364.539 121.226C364.621 122.138 363.946 122.878 363.034 122.878Z" fill="white"/>
<path d="M375.414 132.234H295.868C294.957 132.234 294.152 131.495 294.072 130.583C293.992 129.67 294.667 128.932 295.579 128.932H375.125C376.037 128.932 376.841 129.67 376.92 130.583C377.001 131.495 376.326 132.234 375.414 132.234Z" fill="white"/>
<path d="M372.104 141.592H282.649C281.737 141.592 280.932 140.853 280.853 139.94C280.773 139.029 281.448 138.289 282.36 138.289H371.814C372.727 138.289 373.53 139.028 373.611 139.94C373.691 140.852 373.016 141.592 372.104 141.592Z" fill="white"/>
<path d="M377.052 150.947H283.468C282.556 150.947 281.752 150.208 281.671 149.296C281.591 148.384 282.267 147.645 283.178 147.645H376.762C377.673 147.645 378.478 148.383 378.557 149.296C378.639 150.208 377.963 150.947 377.052 150.947Z" fill="white"/>
<path d="M371.264 160.306H284.286C283.375 160.306 282.57 159.567 282.491 158.654C282.411 157.742 283.086 157.003 283.997 157.003H370.975C371.887 157.003 372.691 157.742 372.771 158.654C372.851 159.566 372.175 160.306 371.264 160.306Z" fill="white"/>
</g>
<path d="M375.825 210.941H347.911C346.999 210.941 346.195 210.202 346.116 209.29C346.036 208.377 346.711 207.639 347.622 207.639H375.537C376.448 207.639 377.253 208.377 377.332 209.29C377.412 210.201 376.738 210.941 375.825 210.941Z" fill="#263238"/>
<path d="M345.879 205.229L345.878 205.227C345.644 204.923 345.682 204.512 345.966 204.303C347.943 202.849 350.125 201.147 352.166 199.44C352.646 196.309 354.755 192.297 356.897 190.432C358.5 189.036 359.693 189.207 360.41 189.596C360.908 189.867 361.221 190.308 361.289 190.838C361.548 192.855 357.458 196.836 353.426 200.228C353.362 200.89 353.404 201.46 353.576 201.882C353.753 202.321 354.048 202.524 354.562 202.555C356.818 202.701 358.05 201.506 359.241 200.35C360.581 199.052 361.965 197.708 364.484 198.949C366.706 200.042 366.759 201.142 366.635 202.086C366.621 202.196 366.598 202.363 366.611 202.415C366.622 202.415 366.898 202.676 368.622 202.893C372.471 203.387 374.547 200.59 375.245 199.402C375.413 199.117 375.777 199.027 376.094 199.188C376.461 199.375 376.613 199.821 376.419 200.15C375.584 201.562 373.146 204.799 368.569 204.221C366.846 204.003 366.005 203.705 365.57 203.157C365.188 202.674 365.254 202.168 365.303 201.799C365.373 201.27 365.427 200.853 363.976 200.139C362.387 199.356 361.595 200.014 360.222 201.348C358.971 202.562 357.415 204.073 354.594 203.89C353.53 203.821 352.729 203.253 352.337 202.286C352.22 201.998 352.143 201.674 352.102 201.322C349.949 203.075 347.955 204.571 346.824 205.403C346.536 205.614 346.114 205.534 345.879 205.229ZM359.438 190.658C358.863 190.658 358.213 191.138 357.83 191.472C356.226 192.869 354.716 195.539 353.94 197.921C357.419 194.874 360.105 192.051 359.956 190.893C359.949 190.84 359.945 190.811 359.849 190.759C359.72 190.689 359.581 190.658 359.438 190.658Z" fill="#263238"/>
<g opacity="0.3">
<path d="M375.825 210.941H347.911C346.999 210.941 346.195 210.202 346.116 209.29C346.036 208.377 346.711 207.639 347.622 207.639H375.537C376.448 207.639 377.253 208.377 377.332 209.29C377.412 210.201 376.738 210.941 375.825 210.941Z" fill="white"/>
<path d="M345.879 205.229L345.878 205.227C345.644 204.923 345.682 204.512 345.966 204.303C347.943 202.849 350.125 201.147 352.166 199.44C352.646 196.309 354.755 192.297 356.897 190.432C358.5 189.036 359.693 189.207 360.41 189.596C360.908 189.867 361.221 190.308 361.289 190.838C361.548 192.855 357.458 196.836 353.426 200.228C353.362 200.89 353.404 201.46 353.576 201.882C353.753 202.321 354.048 202.524 354.562 202.555C356.818 202.701 358.05 201.506 359.241 200.35C360.581 199.052 361.965 197.708 364.484 198.949C366.706 200.042 366.759 201.142 366.635 202.086C366.621 202.196 366.598 202.363 366.611 202.415C366.622 202.415 366.898 202.676 368.622 202.893C372.471 203.387 374.547 200.59 375.245 199.402C375.413 199.117 375.777 199.027 376.094 199.188C376.461 199.375 376.613 199.821 376.419 200.15C375.584 201.562 373.146 204.799 368.569 204.221C366.846 204.003 366.005 203.705 365.57 203.157C365.188 202.674 365.254 202.168 365.303 201.799C365.373 201.27 365.427 200.853 363.976 200.139C362.387 199.356 361.595 200.014 360.222 201.348C358.971 202.562 357.415 204.073 354.594 203.89C353.53 203.821 352.729 203.253 352.337 202.286C352.22 201.998 352.143 201.674 352.102 201.322C349.949 203.075 347.955 204.571 346.824 205.403C346.536 205.614 346.114 205.534 345.879 205.229ZM359.438 190.658C358.863 190.658 358.213 191.138 357.83 191.472C356.226 192.869 354.716 195.539 353.94 197.921C357.419 194.874 360.105 192.051 359.956 190.893C359.949 190.84 359.945 190.811 359.849 190.759C359.72 190.689 359.581 190.658 359.438 190.658Z" fill="white"/>
</g>
<path d="M335.352 200.065C330.138 200.065 325.299 196.115 324.28 190.817L323.898 188.832C322.807 183.168 326.485 178.079 332.097 177.483L383.781 172.002C386.501 171.711 389.262 172.511 391.556 174.245C393.852 175.981 395.407 178.447 395.936 181.191L396.319 183.176C396.848 185.919 396.285 188.611 394.737 190.755C393.189 192.897 390.84 194.237 388.121 194.525L336.437 200.007C336.072 200.044 335.711 200.065 335.352 200.065ZM385.033 173.795C384.733 173.795 384.434 173.81 384.134 173.843L332.449 179.324C330.218 179.561 328.29 180.659 327.02 182.419C325.75 184.178 325.289 186.388 325.722 188.638L326.104 190.623C327 195.27 331.478 198.641 336.079 198.165L387.764 192.682C389.995 192.446 391.923 191.347 393.193 189.588C394.464 187.829 394.925 185.62 394.491 183.369L394.109 181.384C393.676 179.134 392.399 177.11 390.515 175.685C388.884 174.451 386.967 173.795 385.033 173.795Z" fill="#4842FB"/>
<path d="M335.417 190.528L331.487 190.944L331.034 192.894L329.946 193.01L331.857 185.193L332.903 185.082L337.7 192.187L336.59 192.305L335.417 190.528ZM334.884 189.714L332.584 186.227L331.693 190.053L334.884 189.714Z" fill="#4842FB"/>
<path d="M342.639 184.757C343.278 185.161 343.674 185.767 343.83 186.578C343.986 187.388 343.835 188.053 343.374 188.573C342.912 189.093 342.204 189.404 341.246 189.506L339.419 189.699L339.854 191.96L338.797 192.071L337.359 184.61L340.243 184.304C341.203 184.203 342.001 184.355 342.639 184.757ZM342.485 187.988C342.782 187.664 342.878 187.23 342.775 186.691C342.671 186.151 342.416 185.755 342.007 185.504C341.599 185.253 341.06 185.164 340.392 185.235L338.596 185.425L339.241 188.773L341.037 188.583C341.706 188.511 342.188 188.313 342.485 187.988Z" fill="#4842FB"/>
<path d="M350.161 183.959C350.8 184.363 351.196 184.97 351.352 185.78C351.509 186.591 351.357 187.256 350.896 187.774C350.436 188.296 349.726 188.605 348.769 188.707L346.941 188.901L347.376 191.161L346.319 191.272L344.882 183.811L347.766 183.505C348.725 183.404 349.522 183.556 350.161 183.959ZM350.008 187.19C350.305 186.865 350.401 186.432 350.297 185.892C350.194 185.352 349.938 184.956 349.53 184.705C349.121 184.455 348.583 184.365 347.914 184.436L346.118 184.626L346.763 187.974L348.56 187.784C349.228 187.713 349.711 187.515 350.008 187.19Z" fill="#4842FB"/>
<path d="M358.783 189.95L356.747 187.828C356.552 187.863 356.399 187.887 356.286 187.899L354.459 188.092L354.897 190.362L353.84 190.475L352.402 183.012L355.286 182.706C356.244 182.604 357.043 182.755 357.68 183.159C358.319 183.563 358.715 184.169 358.871 184.98C358.983 185.555 358.936 186.06 358.732 186.494C358.528 186.929 358.184 187.266 357.699 187.508L359.934 189.826L358.783 189.95ZM357.527 186.397C357.822 186.069 357.918 185.634 357.815 185.094C357.711 184.554 357.456 184.158 357.047 183.908C356.639 183.657 356.1 183.567 355.432 183.638L353.636 183.829L354.282 187.187L356.079 186.997C356.749 186.924 357.231 186.725 357.527 186.397Z" fill="#4842FB"/>
<path d="M362.761 189.111C362.099 188.843 361.54 188.438 361.087 187.89C360.634 187.344 360.337 186.711 360.199 185.993C360.061 185.276 360.106 184.607 360.335 183.988C360.564 183.37 360.946 182.864 361.482 182.469C362.017 182.076 362.658 181.84 363.403 181.759C364.143 181.68 364.844 181.776 365.506 182.042C366.168 182.31 366.724 182.715 367.174 183.258C367.623 183.801 367.918 184.437 368.057 185.161C368.197 185.887 368.153 186.555 367.927 187.171C367.7 187.786 367.319 188.291 366.786 188.684C366.25 189.078 365.613 189.313 364.873 189.392C364.127 189.471 363.423 189.378 362.761 189.111ZM366.083 187.916C366.468 187.621 366.744 187.242 366.909 186.779C367.075 186.315 367.106 185.814 367.002 185.274C366.899 184.734 366.679 184.259 366.345 183.849C366.01 183.439 365.603 183.131 365.122 182.929C364.641 182.726 364.13 182.653 363.587 182.711C363.046 182.768 362.579 182.944 362.186 183.24C361.794 183.535 361.514 183.914 361.349 184.378C361.183 184.841 361.152 185.344 361.256 185.884C361.359 186.423 361.579 186.898 361.913 187.31C362.247 187.72 362.659 188.026 363.146 188.229C363.634 188.43 364.149 188.503 364.692 188.445C365.234 188.387 365.698 188.21 366.083 187.916Z" fill="#4842FB"/>
<path d="M375.144 180.603L373.339 188.409L372.293 188.52L367.602 181.404L368.742 181.283L372.584 187.131L374.086 180.717L375.144 180.603Z" fill="#4842FB"/>
<path d="M382.71 186.467L382.888 187.394L377.522 187.963L376.085 180.502L381.304 179.948L381.482 180.875L377.32 181.316L377.761 183.608L381.468 183.216L381.643 184.122L377.936 184.515L378.4 186.924L382.71 186.467Z" fill="#4842FB"/>
<path d="M383.162 179.752L386.278 179.421C387.06 179.337 387.784 179.421 388.451 179.67C389.116 179.919 389.671 180.307 390.114 180.838C390.556 181.367 390.849 181.998 390.99 182.73C391.13 183.462 391.089 184.129 390.863 184.729C390.637 185.329 390.252 185.818 389.707 186.194C389.161 186.571 388.499 186.8 387.716 186.884L384.599 187.215L383.162 179.752ZM387.473 185.963C388.072 185.9 388.574 185.727 388.984 185.443C389.393 185.162 389.681 184.795 389.846 184.347C390.012 183.898 390.041 183.395 389.934 182.841C389.828 182.288 389.61 181.811 389.281 181.415C388.953 181.018 388.54 180.727 388.041 180.541C387.541 180.355 386.992 180.294 386.394 180.357L384.398 180.569L385.478 186.177L387.473 185.963Z" fill="#4842FB"/>
<path d="M291.726 33.4355H301.685L303.298 51.5987H293.341C289.982 51.5987 287.017 48.8767 286.719 45.5176L286.186 39.5156C285.886 36.1575 288.367 33.4355 291.726 33.4355Z" fill="#263238"/>
<path d="M336.047 51.5987H295.802C292.039 51.5987 288.722 48.5489 288.392 44.786L287.994 40.2473C287.665 36.4854 290.448 33.4346 294.212 33.4346H334.457C338.219 33.4346 341.537 36.4844 341.867 40.2473L342.263 44.786C342.593 48.5489 339.809 51.5987 336.047 51.5987Z" fill="#263238"/>
<path opacity="0.5" d="M336.047 51.5987H295.802C292.039 51.5987 288.722 48.5489 288.392 44.786L287.994 40.2473C287.665 36.4854 290.448 33.4346 294.212 33.4346H334.457C338.219 33.4346 341.537 36.4844 341.867 40.2473L342.263 44.786C342.593 48.5489 339.809 51.5987 336.047 51.5987Z" fill="white"/>
<path d="M335.735 44.4433C335.821 45.4318 335.091 46.2323 334.102 46.2323C333.113 46.2323 332.243 45.4318 332.156 44.4433C332.07 43.4558 332.801 42.6543 333.789 42.6543C334.778 42.6543 335.649 43.4548 335.735 44.4433Z" fill="#263238"/>
<path d="M298.439 44.4433C298.525 45.4318 297.795 46.2323 296.806 46.2323C295.818 46.2323 294.947 45.4318 294.86 44.4433C294.774 43.4558 295.505 42.6543 296.493 42.6543C297.482 42.6543 298.353 43.4548 298.439 44.4433Z" fill="#263238"/>
<path d="M434.056 290.12H402.138V290.361H434.056V290.12Z" fill="#D3FF3C"/>
<path d="M319.687 292.735H311.31V292.976H319.687V292.735Z" fill="#D3FF3C"/>
<path d="M401.173 281.173H382.678V281.414H401.173V281.173Z" fill="#D3FF3C"/>
<path d="M92.6765 282.792H51.0527V283.033H92.6765V282.792Z" fill="#D3FF3C"/>
<path d="M107.36 282.792H101.257V283.033H107.36V282.792Z" fill="#D3FF3C"/>
<path d="M217.467 286.861H127.194V287.102H217.467V286.861Z" fill="#D3FF3C"/>
<path d="M482.335 274.612H0.5V274.853H482.335V274.612Z" fill="#D3FF3C"/>
<path d="M458.176 78.5411C471.349 68.2807 488.326 66.6514 501.5 56.391C495.619 50.5116 489.738 44.6323 483.858 38.7529C470.685 49.0134 453.708 50.6427 440.535 60.9031C446.415 66.7815 452.296 72.6608 458.176 78.5411Z" fill="#D3FF3C"/>
<path d="M448.312 58.437C458.361 52.7774 470.036 50.9419 480 45.1367C482.151 46.1754 484.742 46.4606 486.909 45.7235C489.869 48.6824 491.348 50.1614 494.307 53.1204C493.253 54.9703 492.967 56.9898 493.721 58.8552C483.757 64.6603 472.081 66.4949 462.033 72.1555C459.882 71.1178 457.291 70.8316 455.124 71.5687C452.164 68.6098 450.685 67.1308 447.726 64.1719C448.78 62.3219 449.066 60.3024 448.312 58.437Z" fill="#A5D503"/>
<path d="M465.023 60.7794C467.838 63.5938 472.781 64.8974 476.114 63.7412C479.447 62.585 479.826 59.3264 477.012 56.512C474.197 53.6976 469.254 52.3939 465.921 53.5492C462.588 54.7064 462.208 57.965 465.023 60.7794Z" fill="#D3FF3C"/>
<path d="M394.286 13.6934C403.278 21.2455 405.356 33.5803 398.877 41.2557L396.618 43.9342C390.167 51.598 377.652 51.6818 368.669 44.125C359.686 36.5682 357.609 24.2343 364.088 16.558L366.344 13.8707C372.795 6.20793 385.294 6.14144 394.286 13.6934Z" fill="#A5D503"/>
<path d="M398.874 41.2561C405.326 33.591 403.273 21.2486 394.289 13.6886C385.304 6.12854 372.79 6.21375 366.339 13.8789C359.887 21.544 361.94 33.8864 370.924 41.4464C379.909 49.0064 392.422 48.9212 398.874 41.2561Z" fill="#D3FF3C"/>
<path d="M396.051 38.8805C401.383 32.5455 399.686 22.3446 392.261 16.0962C384.835 9.84783 374.492 9.91805 369.16 16.2531C363.828 22.5881 365.525 32.789 372.95 39.0373C380.376 45.2857 390.719 45.2155 396.051 38.8805Z" fill="#A5D503"/>
<path d="M390.356 33.2699L392.284 35.408L390.945 36.6201L389.035 34.4898C387.51 35.7597 385.595 36.4669 383.61 36.4939L382.597 33.9444C384.26 33.954 385.882 33.427 387.223 32.4413L383.779 28.6191C381.502 29.729 378.937 30.7783 376.546 28.1248C374.791 26.1737 374.476 23.3834 376.764 20.806L374.825 18.6419L376.161 17.4395L378.07 19.5698C379.319 18.5591 380.833 17.9299 382.43 17.7574L383.48 20.3223C382.199 20.4851 380.974 20.9476 379.905 21.6712L383.384 25.5407C385.665 24.422 388.239 23.3217 390.628 25.9762C392.362 27.8714 392.645 30.6608 390.356 33.2699ZM381.66 26.2845L378.602 22.8727C377.73 23.7485 377.699 25.1553 378.531 26.0687C379.34 27.0119 380.421 26.8057 381.66 26.2845ZM388.664 27.9793C387.829 27.0476 386.731 27.2152 385.453 27.7847L388.501 31.1396C389.484 29.9054 389.414 28.8031 388.668 27.9706L388.664 27.9793Z" fill="#D3FF3C"/>
<path d="M123.723 41.0627L127.865 43.1333C139.739 49.03 143.697 65.0561 136.784 78.9201C129.871 92.784 114.673 99.2473 102.839 93.3506L98.696 91.2925C86.8226 85.3958 82.8648 69.3697 89.7907 55.5058C96.7157 41.6437 111.888 35.167 123.723 41.0627Z" fill="#A5D503"/>
<path d="M132.636 76.8603C139.548 62.9922 135.556 46.9692 123.72 41.0719C111.884 35.1747 96.686 41.6365 89.774 55.5047C82.8621 69.3729 86.8538 85.3959 98.6898 91.2931C110.526 97.1903 125.724 90.7285 132.636 76.8603Z" fill="#D3FF3C"/>
<path d="M128.919 75.0101C134.632 63.5475 131.333 50.3042 121.551 45.4304C111.769 40.5565 99.2078 45.8978 93.4947 57.3604C87.7817 68.823 91.0803 82.0663 100.862 86.9401C110.644 91.8139 123.206 86.4727 128.919 75.0101Z" fill="#A5D503"/>
<path d="M107.019 77.6682L105.331 81.0713L103.194 80.0162L104.882 76.6391C102.583 75.3837 100.785 73.3767 99.7891 70.9534L102.428 68.4734C103.223 70.5199 104.658 72.2542 106.517 73.42L109.539 67.3393C107.072 65.0837 104.538 62.4456 106.636 58.2245C108.18 55.1249 111.451 53.3838 115.726 54.9399L117.442 51.5107L119.565 52.5658L117.877 55.9429C119.724 56.9854 121.231 58.5376 122.218 60.4145L119.579 62.9467C118.757 61.4542 117.596 60.1746 116.188 59.214L113.127 65.3612C115.608 67.6168 118.207 70.2414 116.109 74.4626C114.618 77.5101 111.333 79.2117 107.019 77.6682ZM111.372 63.6067L114.077 58.1985C112.579 57.5539 110.838 58.1975 110.12 59.663C109.354 61.1141 110.132 62.3406 111.372 63.6067ZM112.692 73.025C113.431 71.5479 112.692 70.2809 111.372 68.9888L108.734 74.3575C110.726 74.9645 112.045 74.344 112.705 73.025H112.692Z" fill="#D3FF3C"/>
<path d="M56.8524 162.42L60.2609 161.284C70.0084 158.006 80.9721 164.627 84.7853 176.022C88.5986 187.418 83.8082 199.299 74.0828 202.554L70.682 203.697C60.9345 206.975 49.9708 200.355 46.1643 188.952C42.3578 177.549 47.127 165.676 56.8524 162.42Z" fill="#A5D503"/>
<path d="M70.6965 203.706C80.4246 200.449 85.2167 188.569 81.3998 177.171C77.5828 165.772 66.6024 159.172 56.8742 162.429C47.146 165.685 42.354 177.565 46.1709 188.964C49.9878 200.362 60.9683 206.962 70.6965 203.706Z" fill="#D3FF3C"/>
<path d="M69.4989 200.125C77.5389 197.434 81.499 187.614 78.3442 178.193C75.1893 168.772 66.1141 163.316 58.0742 166.008C50.0343 168.699 46.0741 178.518 49.229 187.94C52.3838 197.361 61.459 202.817 69.4989 200.125Z" fill="#A5D503"/>
<path d="M67.772 191.658L68.7125 194.451L66.9615 195.045L66.0354 192.266C64.0859 192.838 61.9986 192.723 60.1233 191.94L60.21 189.132C61.7683 189.818 63.5067 189.983 65.1671 189.603L63.4884 184.611C60.8981 184.726 58.061 184.668 56.896 181.203C56.0422 178.656 56.8815 175.906 60.0799 174.416L59.1394 171.594L60.8836 171.008L61.8097 173.787C63.395 173.345 65.0727 173.37 66.6435 173.859L66.5857 176.695C65.3156 176.327 63.977 176.263 62.678 176.508L64.3712 181.557C66.9692 181.434 69.8352 181.448 71.0002 184.914C71.8531 187.404 70.9848 190.138 67.772 191.658ZM62.4457 181.557L60.9627 177.108C59.787 177.576 59.1857 178.885 59.5952 180.081C59.971 181.297 61.0706 181.543 62.4457 181.557ZM68.3367 186C67.931 184.784 66.8314 184.495 65.3984 184.51L66.896 188.901C68.3212 188.142 68.7048 187.078 68.3434 185.992L68.3367 186Z" fill="#D3FF3C"/>
<path d="M149.458 117.881C173.755 120.898 193.047 136.808 217.345 139.826C217.345 127.634 217.345 115.442 217.345 103.251C193.048 100.233 173.756 84.3234 149.458 81.3057C149.459 93.4979 149.459 105.689 149.458 117.881Z" fill="#D3FF3C"/>
<path d="M160.078 86.8125C176.366 91.3612 190.373 101.561 206.724 105.872C207.877 109.178 210.267 112.161 213.28 113.642C213.28 119.778 213.28 122.845 213.28 128.981C210.268 129.805 207.877 131.603 206.724 134.318C190.374 130.009 176.366 119.808 160.078 115.259C158.925 111.953 156.535 108.97 153.523 107.488C153.523 101.353 153.523 98.286 153.523 92.1504C156.534 91.3256 158.924 89.5277 160.078 86.8125Z" fill="#A5D503"/>
<path d="M174.974 106.564C174.974 112.399 178.746 118.876 183.401 121.132C188.055 123.389 191.827 120.404 191.827 114.568C191.827 108.732 188.054 102.256 183.401 99.9995C178.746 97.743 174.974 100.728 174.974 106.564Z" fill="#D3FF3C"/>
<path d="M193.538 25.9974C203.8 39.1686 205.43 56.1428 215.692 69.313C221.572 63.4337 227.453 57.5543 233.334 51.675C223.072 38.5038 221.442 21.5296 211.18 8.3584C205.3 14.2387 199.419 20.1181 193.538 25.9974Z" fill="#D3FF3C"/>
<path d="M213.645 16.1346C219.305 26.1821 221.141 37.8551 226.947 47.8168C225.908 49.9674 225.623 52.5583 226.36 54.7252C223.401 57.6841 221.922 59.1631 218.962 62.1221C217.112 61.068 215.092 60.7818 213.226 61.5353C207.42 51.5735 205.585 39.8996 199.924 29.8531C200.963 27.7026 201.248 25.1117 200.511 22.9447C203.47 19.9858 204.949 18.5068 207.909 15.5479C209.759 16.6029 211.778 16.8881 213.645 16.1346Z" fill="#A5D503"/>
<path d="M211.302 32.843C208.487 35.6574 207.183 40.5993 208.34 43.932C209.496 47.2648 212.755 47.6435 215.569 44.83C218.383 42.0166 219.688 37.0738 218.533 33.741C217.376 30.4082 214.117 30.0286 211.302 32.843Z" fill="#D3FF3C"/>
<path d="M187.795 322C279.483 322 353.811 316.689 353.811 310.138C353.811 303.586 279.483 298.275 187.795 298.275C96.1072 298.275 21.7793 303.586 21.7793 310.138C21.7793 316.689 96.1072 322 187.795 322Z" fill="#DAD9FF"/>
<path d="M423.791 321.904C455.676 321.904 481.525 315.801 481.525 308.271C481.525 300.742 455.676 294.639 423.791 294.639C391.905 294.639 366.057 300.742 366.057 308.271C366.057 315.801 391.905 321.904 423.791 321.904Z" fill="#DAD9FF"/>
<path d="M436.127 128.289C433.687 126.25 431.273 124.148 428.902 122.023L421.783 115.64C420.614 114.681 419.573 112.972 419.382 111.337C419.154 109.707 419.473 108.377 419.847 107.295C420.64 105.133 421.784 103.655 422.923 102.257C425.267 99.5248 427.826 97.4311 430.677 95.5107L433.39 98.6833C431.45 101.011 429.504 103.529 428.053 105.967C427.334 107.167 426.754 108.446 426.588 109.352C426.495 109.795 426.56 110.095 426.614 110.049C426.687 110.001 426.543 109.74 426.623 109.782L428.554 111.181L430.5 112.659C431.789 113.646 433.057 114.647 434.307 115.664C436.817 117.691 439.263 119.769 441.661 121.93L436.127 128.289Z" fill="#803E3C"/>
<path d="M440.755 130.533C436.473 131.162 426.568 121.124 426.568 121.124L433.359 113.354C433.359 113.354 438.685 116.663 442.523 120.681C446.46 124.807 445.454 129.843 440.755 130.533Z" fill="#4842FB"/>
<path opacity="0.7" d="M440.755 130.533C436.473 131.162 426.568 121.124 426.568 121.124L433.359 113.354C433.359 113.354 438.685 116.663 442.523 120.681C446.46 124.807 445.454 129.843 440.755 130.533Z" fill="white"/>
<path d="M429.768 97.3132L430.898 91.8447L435.831 95.5915C435.831 95.5915 434.527 100.41 432.072 99.6333L429.768 97.3132Z" fill="#7F3E3B"/>
<path d="M434.675 87.8008L437.821 92.4614L435.831 95.5906L430.899 91.8438L434.675 87.8008Z" fill="#7F3E3B"/>
<path opacity="0.2" d="M438.895 125.11C436.89 126.81 432.407 125.267 429.758 124.115C432.883 126.883 437.551 130.54 440.343 130.531C440.671 127.523 440.81 123.486 438.895 125.11Z" fill="black"/>
<path d="M412.267 295.586L406.743 293.581L409.785 280.271L415.309 282.278L412.267 295.586Z" fill="#7F3E3B"/>
<path d="M455.838 302.922H449.974L448.311 289.345H454.174L455.838 302.922Z" fill="#7F3E3B"/>
<path d="M449.205 302.243H456.354C456.594 302.243 456.804 302.409 456.858 302.643L458.068 307.855C458.193 308.396 457.774 308.907 457.22 308.898C454.92 308.858 453.24 308.723 450.343 308.723C448.561 308.723 443.188 308.908 440.726 308.908C438.319 308.908 437.919 306.475 438.925 306.255C443.433 305.266 446.824 303.903 448.257 302.604C448.515 302.37 448.853 302.243 449.205 302.243Z" fill="#4842FB"/>
<path d="M406.541 292.458L412.816 293.804C413.051 293.854 413.221 294.06 413.226 294.3L413.316 299.637C413.326 300.191 412.821 300.605 412.28 300.478C410.025 299.955 406.781 299.12 403.935 298.511C400.608 297.797 398.547 297.125 394.645 296.289C392.286 295.783 392.119 293.264 393.151 293.259C397.847 293.242 400.691 294.162 405.065 292.606C405.54 292.438 406.045 292.352 406.541 292.458Z" fill="#4842FB"/>
<path opacity="0.2" d="M409.786 280.274L408.217 287.134L413.743 289.141L415.312 282.281L409.786 280.274Z" fill="black"/>
<path opacity="0.2" d="M454.177 289.348H448.311L449.172 296.346H455.037L454.177 289.348Z" fill="black"/>
<path d="M472.979 124.591C470.408 130.788 468.471 138.393 466.97 144.458C465.876 148.896 465.025 153.157 464.349 157.034C462.761 166.12 462.118 173.122 461.56 175.449C457.052 174.538 440.06 171.1 430.797 169.222C430.573 135.559 440.702 119.556 440.702 119.556C440.702 119.556 444.22 119.32 448.239 119.611C448.769 119.645 449.306 119.697 449.851 119.757C453.374 120.143 459.038 121.421 462.93 122.404C463.748 122.611 464.573 122.843 465.374 123.082C469.445 124.302 472.979 124.591 472.979 124.591Z" fill="#4842FB"/>
<path opacity="0.7" d="M472.979 124.591C470.408 130.788 468.471 138.393 466.97 144.458C465.876 148.896 465.025 153.157 464.349 157.034C462.761 166.12 462.118 173.122 461.56 175.449C457.052 174.538 440.06 171.1 430.797 169.222C430.573 135.559 440.702 119.556 440.702 119.556C440.702 119.556 444.22 119.32 448.239 119.611C448.769 119.645 449.306 119.697 449.851 119.757C453.374 120.143 459.038 121.421 462.93 122.404C463.748 122.611 464.573 122.843 465.374 123.082C469.445 124.302 472.979 124.591 472.979 124.591Z" fill="white"/>
<path d="M450.262 126.148C449.056 128.472 441.879 157.181 439.937 163.394C440.165 164.779 440.464 166.176 440.83 167.587C441.817 166.393 442.858 165.21 443.951 164.034C445.272 157.975 450.355 129.358 451.694 126.369L450.262 126.148Z" fill="#4842FB"/>
<path d="M450.219 127.944L449.72 124.842L451.979 124.352L453.352 125.619L450.219 127.944Z" fill="#4842FB"/>
<path d="M464.464 107.41C462.83 111.452 460.523 118.997 462.927 122.402C460.341 124.188 456.78 125.433 452.073 124.373C448.468 123.562 448.773 120.994 449.849 119.755C454.757 119.584 455.305 116.078 455.117 112.642L464.464 107.41Z" fill="#7F3E3B"/>
<path d="M451.979 124.352C451.979 124.352 452.994 126.382 454.248 128.441C456.887 127.68 463.159 125.478 463.601 122.306C463.485 121.329 462.394 120.522 462.394 120.522C462.394 120.522 458.175 123.117 451.979 124.352Z" fill="white"/>
<path d="M451.979 124.352C451.979 124.352 449.795 125.474 448.164 127.143C446.705 125.587 448.906 119.977 449.687 119.471C451.256 118.888 452.174 119.187 452.174 119.187C452.174 119.187 449.394 123.099 451.979 124.352Z" fill="white"/>
<path opacity="0.2" d="M460.654 109.546L455.122 112.639C455.169 113.453 455.171 114.269 455.079 115.042C456.922 115.146 459.762 113.677 460.314 111.838C460.589 110.921 460.723 110.013 460.654 109.546Z" fill="black"/>
<path d="M453.793 92.7744C452.195 94.519 450.589 98.8859 454.083 98.8534C457.579 98.8197 456.54 89.7753 453.793 92.7744Z" fill="#263238"/>
<path d="M467.244 102.413C465.106 107.816 464.129 111.091 460.423 112.985C454.849 115.835 448.873 111.016 449.354 105.065C449.788 99.7084 453.211 91.7717 459.32 91.3925C465.338 91.0204 469.381 97.0091 467.244 102.413Z" fill="#7F3E3B"/>
<path d="M455.27 94.905C451.641 93.0942 450.502 88.0326 456.513 86.7299C456.648 86.701 456.784 86.6757 456.921 86.6541C458.278 86.4397 459.395 87.4367 459.607 88.7936C459.625 88.9079 459.655 89.0259 459.699 89.1463C460.317 88.5118 461.716 87.6112 463.441 87.4896C464.843 87.3909 465.876 88.6491 465.784 90.0505C465.723 90.9933 466.151 91.9095 467.341 91.942C470.494 92.0275 474.157 94.3175 472.33 97.4828C474.993 100.814 470.843 105.439 464.959 105.911C463.361 102.682 465.946 97.9054 465.946 97.9054C462.987 97.8488 458.559 96.5461 455.27 94.905Z" fill="#263238"/>
<path d="M471.445 97.6018C471.445 97.6018 474.132 97.225 473.219 94.7002C475.229 96.381 473.761 97.9305 471.445 97.6018Z" fill="#263238"/>
<path d="M470.895 98.0164C470.895 98.0164 473.499 97.2578 473.703 99.9355C474.845 97.5793 472.871 96.7678 470.895 98.0164Z" fill="#263238"/>
<path d="M467.872 107.704C466.968 108.98 465.558 109.712 464.288 109.899C462.375 110.179 461.647 108.4 462.371 106.713C463.021 105.195 464.801 103.22 466.627 103.711C468.428 104.197 468.907 106.246 467.872 107.704Z" fill="#7F3E3B"/>
<path d="M406.596 285.109L415.95 288.502C415.95 288.502 423.258 256.332 427.142 238.497C428.324 233.072 430.7 225.612 433.513 217.663C437.063 207.649 441.3 196.875 444.72 188.451C448.328 179.578 451.015 173.316 451.015 173.316L430.79 169.222C430.79 169.222 415.359 213.622 411.892 231.171C408.285 249.417 406.596 285.109 406.596 285.109Z" fill="#263238"/>
<path opacity="0.6" d="M433.515 217.661C437.065 207.647 441.302 196.873 444.722 188.448L443.157 183.608C437.37 188.964 433.759 207.414 433.515 217.661Z" fill="black"/>
<path d="M441.704 171.431C441.704 171.431 438.093 222.056 437.875 239.259C437.635 258.096 446.446 294.992 446.446 294.992H457.187C457.187 294.992 452.897 261.701 454.324 243.038C455.921 222.168 461.555 175.451 461.555 175.451L441.704 171.431Z" fill="#263238"/>
<path d="M445.163 295.224H457.81L457.772 291.446L444.568 290.684L445.163 295.224Z" fill="#263238"/>
<path d="M405.347 284.989L416.549 288.877L417.768 285.263L405.518 280.802L405.347 284.989Z" fill="#263238"/>
<path d="M458.384 101.14C458.237 101.589 457.881 101.873 457.588 101.774C457.294 101.675 457.176 101.231 457.322 100.782C457.469 100.333 457.826 100.049 458.118 100.148C458.412 100.246 458.531 100.691 458.384 101.14Z" fill="#263238"/>
<path d="M453.315 99.4306C453.168 99.8797 452.812 100.164 452.519 100.065C452.227 99.9664 452.107 99.5221 452.254 99.073C452.401 98.6239 452.758 98.3398 453.05 98.4385C453.343 98.5361 453.461 98.9803 453.315 99.4306Z" fill="#263238"/>
<path d="M454.855 100.197C454.855 100.197 452.996 102.34 451.468 103.17C452.022 104.136 453.482 104.25 453.482 104.25L454.855 100.197Z" fill="#630F0F"/>
<path d="M460.483 100.025C460.388 100.007 460.305 99.9383 460.271 99.8395C459.868 98.662 458.88 98.3923 458.871 98.3899C458.723 98.3514 458.632 98.1997 458.67 98.0504C458.707 97.9023 458.859 97.8132 459.006 97.8517C459.058 97.865 460.295 98.2033 460.795 99.6637C460.846 99.8094 460.768 99.9672 460.624 100.017C460.577 100.032 460.529 100.035 460.483 100.025Z" fill="#263238"/>
<path d="M451.701 96.9471C451.649 96.9375 451.6 96.9122 451.559 96.8725C451.45 96.7653 451.446 96.5883 451.552 96.4788C452.619 95.3783 453.871 95.6275 453.929 95.6312C454.079 95.6613 454.177 95.8081 454.148 95.9586C454.119 96.1091 453.976 96.2067 453.825 96.1766C453.774 96.1645 452.805 95.9851 451.949 96.8676C451.883 96.9387 451.789 96.964 451.701 96.9471Z" fill="#263238"/>
<path d="M447.276 303.268C446.829 303.268 446.412 303.192 446.144 302.969C445.932 302.792 445.834 302.546 445.849 302.235C445.861 302.004 445.983 301.894 446.083 301.842C446.727 301.508 448.631 302.671 448.846 302.804C448.895 302.835 448.92 302.889 448.912 302.944C448.903 303 448.862 303.044 448.808 303.057C448.402 303.156 447.818 303.268 447.276 303.268ZM446.392 302.054C446.32 302.054 446.259 302.065 446.213 302.089C446.176 302.109 446.132 302.145 446.126 302.252C446.114 302.472 446.178 302.637 446.32 302.756C446.644 303.025 447.41 303.062 448.403 302.862C447.737 302.479 446.843 302.054 446.392 302.054Z" fill="#4842FB"/>
<path d="M448.776 303.061C448.753 303.061 448.73 303.055 448.709 303.044C448.099 302.714 446.913 301.43 447.031 300.776C447.052 300.657 447.138 300.452 447.469 300.411C447.685 300.386 447.884 300.445 448.063 300.589C448.75 301.145 448.907 302.838 448.913 302.909C448.918 302.96 448.894 303.009 448.851 303.037C448.828 303.054 448.802 303.061 448.776 303.061ZM447.568 300.684C447.547 300.684 447.526 300.685 447.505 300.688C447.324 300.71 447.31 300.793 447.304 300.829C447.234 301.214 447.992 302.186 448.6 302.643C448.526 302.15 448.329 301.163 447.889 300.806C447.788 300.724 447.682 300.684 447.568 300.684Z" fill="#4842FB"/>
<path d="M405.812 293.129C405.806 293.13 405.8 293.13 405.793 293.13C404.83 293.115 403.137 292.988 402.621 292.297C402.466 292.088 402.426 291.848 402.502 291.582C402.548 291.423 402.651 291.314 402.801 291.269C403.582 291.024 405.649 292.694 405.882 292.884C405.928 292.922 405.946 292.984 405.926 293.04C405.908 293.088 405.864 293.123 405.812 293.129ZM402.938 291.523C402.919 291.525 402.901 291.529 402.884 291.533C402.822 291.553 402.789 291.59 402.768 291.66C402.717 291.84 402.741 291.994 402.843 292.132C403.133 292.519 404.066 292.777 405.379 292.84C404.558 292.21 403.403 291.466 402.938 291.523Z" fill="#4842FB"/>
<path d="M405.813 293.127C405.778 293.131 405.743 293.123 405.713 293.101C405.083 292.641 403.963 291.108 404.202 290.482C404.258 290.335 404.405 290.17 404.787 290.211C405.07 290.243 405.308 290.375 405.494 290.606C406.102 291.362 405.941 292.938 405.933 293.006C405.929 293.055 405.897 293.097 405.851 293.117C405.839 293.123 405.826 293.125 405.813 293.127ZM404.615 290.486C404.494 290.5 404.471 290.561 404.463 290.583C404.321 290.959 405.054 292.133 405.674 292.709C405.694 292.241 405.678 291.275 405.278 290.779C405.139 290.606 404.969 290.51 404.759 290.487C404.699 290.481 404.652 290.482 404.615 290.486Z" fill="#4842FB"/>
<path opacity="0.2" d="M469.387 127.945L465.254 129.694V132.306C465.254 132.306 465.969 137.583 468.226 139.495C469.14 135.992 470.194 132.284 471.406 128.78C470.289 128.221 469.387 127.945 469.387 127.945Z" fill="black"/>
<path d="M470.262 126.16C471.949 125.898 473.761 125.655 475.495 125.34C477.248 125.066 478.989 124.76 480.683 124.396C482.36 124.016 484.047 123.648 485.491 123.148C486.2 122.906 486.881 122.639 487.272 122.427C487.324 122.388 487.461 122.328 487.454 122.328C487.444 122.341 487.53 122.28 487.45 122.363C487.347 122.481 487.278 122.581 487.231 122.663C487.06 122.991 487.153 122.952 487.188 122.791C487.285 122.434 487.35 121.697 487.325 120.947C487.309 120.185 487.236 119.36 487.134 118.523C486.954 116.837 486.622 115.1 486.304 113.344C485.975 111.588 485.591 109.822 485.171 108.059C484.8 106.286 484.342 104.504 483.944 102.752L487.849 101.277C488.734 102.98 489.475 104.683 490.243 106.414C490.959 108.156 491.646 109.917 492.285 111.716C492.934 113.515 493.472 115.363 493.948 117.302C494.17 118.279 494.366 119.279 494.502 120.353C494.626 121.437 494.743 122.557 494.553 124.022C494.43 124.766 494.276 125.634 493.612 126.745C493.442 127.021 493.234 127.305 492.97 127.591C492.736 127.843 492.637 127.922 492.457 128.093C492.12 128.415 491.854 128.59 491.542 128.832C490.39 129.63 489.378 130.118 488.374 130.55C486.38 131.384 484.498 131.973 482.595 132.458C478.796 133.434 475.122 134.114 471.248 134.528L470.262 126.16Z" fill="#803E3C"/>
<path d="M466.813 133.86C470.235 136.47 482.725 133.777 482.725 133.777L480.654 122.999C480.654 122.999 474.858 123.423 469.54 124.958C463.748 126.631 462.667 130.699 466.813 133.86Z" fill="#4842FB"/>
<path opacity="0.7" d="M466.813 133.86C470.235 136.47 482.725 133.777 482.725 133.777L480.654 122.999C480.654 122.999 474.858 123.423 469.54 124.958C463.748 126.631 462.667 130.699 466.813 133.86Z" fill="white"/>
<path d="M488.505 102.625L488.924 96.9492L482.192 99.5101C482.192 99.5101 482.911 104.41 485.564 104.297L488.505 102.625Z" fill="#7F3E3B"/>
<path d="M486.334 93.0703L480.867 95.4458L482.193 99.5105L488.924 96.9496L486.334 93.0703Z" fill="#7F3E3B"/>
<path d="M452.29 106.196C452.29 106.196 453.677 105.995 457.469 106.338C456.887 107.483 455.944 108.375 454.004 108.182C452.065 107.987 452.29 106.196 452.29 106.196Z" fill="white"/>
<path d="M49.0008 288.956L114.686 291.11H259.979L322.671 287.922V274.235L314.638 262.625L292.779 254.903L265.043 262.625L254.041 273.006L129.631 274.235L105.255 256.475L86.2077 249.603L58.28 256.824L51.4694 269.305L47.4521 281.883L49.0008 288.956Z" fill="#263238"/>
<path opacity="0.6" d="M49.0008 288.956L114.686 291.11H259.979L322.671 287.922V274.235L314.638 262.625L292.779 254.903L265.043 262.625L254.041 273.006L129.631 274.235L105.255 256.475L86.2077 249.603L58.28 256.824L51.4694 269.305L47.4521 281.883L49.0008 288.956Z" fill="black"/>
<path d="M52.8222 278.578C55.1671 272.851 64.4756 263.321 70.184 260.929C75.7373 258.602 88.9184 258.169 94.2695 260.929C99.9286 263.849 107.089 275.622 109.025 281.687C109.739 283.921 109.532 289.312 109.295 292.863L264.368 294.498C264.042 290.189 263.827 284.243 264.84 281.769C267.185 276.042 276.493 266.512 282.202 264.12C287.755 261.793 300.936 261.36 306.287 264.12C311.946 267.04 319.107 278.813 321.043 284.879C321.509 286.34 321.582 289.156 321.51 291.923C322.668 291.052 323.723 290.032 324.607 288.84L326.066 286.869C328.01 284.246 329.06 281.067 329.06 277.802V272.689C329.06 269.902 328.295 267.169 326.848 264.786L323.122 258.65V217.057C323.122 215.008 322.708 212.981 321.906 211.096L307.007 176.074C304.689 170.627 299.427 167.014 293.51 166.814C277.515 166.274 246.115 165.329 233.362 165.762C214.821 166.39 165.089 171.461 150.271 173.002C147.526 173.287 144.954 174.448 142.922 176.314L98.8976 216.746L55.2122 235.818C51.4936 237.441 48.7609 240.727 47.8441 244.679L43.7127 262.493L42.3485 264.277C40.3126 266.939 39.399 270.293 39.8024 273.62L40.6437 280.551C41.044 283.844 42.7037 286.854 45.275 288.951L45.8177 289.393C47.7142 290.939 50.0068 291.895 52.4177 292.18C52.0594 287.844 51.7377 281.225 52.8222 278.578Z" fill="#4842FB"/>
<path d="M80.2112 312.791C93.3761 312.791 104.048 302.12 104.048 288.957C104.048 275.795 93.3761 265.124 80.2112 265.124C67.0463 265.124 56.374 275.795 56.374 288.957C56.374 302.12 67.0463 312.791 80.2112 312.791Z" fill="#263238"/>
<path opacity="0.5" d="M80.212 305.563C89.3846 305.563 96.8205 298.128 96.8205 288.957C96.8205 279.786 89.3846 272.352 80.212 272.352C71.0394 272.352 63.6035 279.786 63.6035 288.957C63.6035 298.128 71.0394 305.563 80.212 305.563Z" fill="white"/>
<g opacity="0.5">
<path d="M74.0976 283.491L72.9377 280.035C72.3981 278.426 70.2983 277.95 69.1751 279.223C67.8968 280.673 66.9004 282.377 66.2696 284.249C65.7248 285.864 67.1801 287.457 68.8524 287.118L72.4212 286.395C73.7382 286.128 74.5251 284.766 74.0976 283.491Z" fill="black"/>
<path d="M81.8873 280.931L84.3035 278.196C85.4257 276.927 84.7939 274.875 83.1342 274.534C82.1901 274.34 81.2126 274.236 80.2109 274.236C79.2081 274.236 78.2316 274.339 77.2875 274.534C75.6278 274.875 74.9971 276.927 76.1182 278.196L78.5344 280.931C79.424 281.938 80.9967 281.938 81.8873 280.931Z" fill="black"/>
<path d="M88.0023 286.396L91.571 287.119C93.2423 287.457 94.6976 285.865 94.1538 284.249C93.5231 282.377 92.5266 280.673 91.2483 279.224C90.1251 277.951 88.0253 278.427 87.4857 280.036L86.3269 283.492C85.8973 284.767 86.6842 286.129 88.0023 286.396Z" fill="black"/>
<path d="M86.3254 294.424L87.4843 297.88C88.0239 299.489 90.1236 299.965 91.2469 298.693C92.5252 297.243 93.5216 295.539 94.1524 293.667C94.6962 292.052 93.2408 290.459 91.5696 290.798L88.0008 291.521C86.6837 291.787 85.8969 293.148 86.3254 294.424Z" fill="black"/>
<path d="M78.5334 296.985L76.1172 299.719C74.9961 300.989 75.6269 303.04 77.2866 303.382C78.2306 303.576 79.2082 303.679 80.2099 303.679C81.2116 303.679 82.1892 303.577 83.1332 303.382C84.7929 303.04 85.4237 300.989 84.3025 299.719L81.8863 296.985C80.9968 295.976 79.4241 295.976 78.5334 296.985Z" fill="black"/>
<path d="M72.4198 291.52L68.851 290.797C67.1798 290.458 65.7244 292.051 66.2682 293.666C66.899 295.538 67.8955 297.243 69.1738 298.692C70.297 299.964 72.3967 299.489 72.9364 297.88L74.0963 294.424C74.5248 293.148 73.7379 291.787 72.4198 291.52Z" fill="black"/>
</g>
<g opacity="0.5">
<path d="M78.0576 287.923C78.6762 287.923 79.1777 287.422 79.1777 286.803C79.1777 286.185 78.6762 285.684 78.0576 285.684C77.439 285.684 76.9375 286.185 76.9375 286.803C76.9375 287.422 77.439 287.923 78.0576 287.923Z" fill="white"/>
<path d="M83.4863 286.803C83.4863 287.422 82.9844 287.923 82.3662 287.923C81.748 287.923 81.2461 287.422 81.2461 286.803C81.2461 286.185 81.748 285.684 82.3662 285.684C82.9844 285.684 83.4863 286.184 83.4863 286.803Z" fill="white"/>
<path d="M79.1777 291.111C79.1777 291.729 78.6758 292.231 78.0576 292.231C77.4394 292.231 76.9375 291.729 76.9375 291.111C76.9375 290.493 77.4394 289.991 78.0576 289.991C78.6758 289.991 79.1777 290.492 79.1777 291.111Z" fill="white"/>
<path d="M83.4863 291.111C83.4863 291.729 82.9844 292.231 82.3662 292.231C81.748 292.231 81.2461 291.729 81.2461 291.111C81.2461 290.493 81.748 289.991 82.3662 289.991C82.9844 289.991 83.4863 290.492 83.4863 291.111Z" fill="white"/>
</g>
<path d="M293.812 312.79C306.977 312.79 317.649 302.119 317.649 288.956C317.649 275.794 306.977 265.123 293.812 265.123C280.647 265.123 269.975 275.794 269.975 288.956C269.975 302.119 280.647 312.79 293.812 312.79Z" fill="#263238"/>
<path opacity="0.5" d="M293.813 305.562C302.985 305.562 310.421 298.127 310.421 288.956C310.421 279.785 302.985 272.351 293.813 272.351C284.64 272.351 277.204 279.785 277.204 288.956C277.204 298.127 284.64 305.562 293.813 305.562Z" fill="white"/>
<g opacity="0.5">
<path d="M287.697 283.49L286.537 280.034C285.997 278.425 283.898 277.949 282.774 279.222C281.496 280.672 280.5 282.376 279.869 284.248C279.325 285.863 280.779 287.456 282.452 287.117L286.02 286.394C287.339 286.127 288.125 284.765 287.697 283.49Z" fill="black"/>
<path d="M295.488 280.93L297.904 278.195C299.025 276.926 298.394 274.874 296.735 274.533C295.791 274.339 294.813 274.235 293.811 274.235C292.81 274.235 291.832 274.338 290.888 274.533C289.228 274.874 288.598 276.926 289.719 278.195L292.135 280.93C293.025 281.937 294.597 281.937 295.488 280.93Z" fill="black"/>
<path d="M301.602 286.395L305.17 287.118C306.841 287.456 308.296 285.864 307.753 284.248C307.122 282.376 306.125 280.672 304.847 279.223C303.724 277.95 301.624 278.426 301.084 280.035L299.925 283.491C299.497 284.766 300.284 286.128 301.602 286.395Z" fill="black"/>
<path d="M299.926 294.423L301.086 297.879C301.625 299.488 303.725 299.965 304.848 298.692C306.127 297.242 307.123 295.538 307.754 293.666C308.299 292.051 306.843 290.458 305.171 290.797L301.603 291.52C300.284 291.786 299.497 293.147 299.926 294.423Z" fill="black"/>
<path d="M292.134 296.984L289.718 299.718C288.597 300.988 289.227 303.039 290.887 303.381C291.831 303.575 292.809 303.678 293.81 303.678C294.813 303.678 295.79 303.576 296.734 303.381C298.394 303.039 299.024 300.988 297.903 299.718L295.487 296.984C294.597 295.975 293.025 295.975 292.134 296.984Z" fill="black"/>
<path d="M286.02 291.519L282.452 290.796C280.78 290.457 279.325 292.05 279.869 293.665C280.5 295.537 281.496 297.242 282.774 298.691C283.898 299.964 285.997 299.488 286.537 297.879L287.697 294.423C288.125 293.147 287.339 291.786 286.02 291.519Z" fill="black"/>
</g>
<g opacity="0.5">
<path d="M292.778 286.803C292.778 287.421 292.276 287.922 291.658 287.922C291.04 287.922 290.538 287.421 290.538 286.803C290.538 286.184 291.04 285.683 291.658 285.683C292.276 285.683 292.778 286.183 292.778 286.803Z" fill="white"/>
<path d="M295.966 287.922C296.584 287.922 297.086 287.421 297.086 286.803C297.086 286.184 296.584 285.683 295.966 285.683C295.347 285.683 294.846 286.184 294.846 286.803C294.846 287.421 295.347 287.922 295.966 287.922Z" fill="white"/>
<path d="M292.778 291.11C292.778 291.728 292.276 292.23 291.658 292.23C291.04 292.23 290.538 291.728 290.538 291.11C290.538 290.492 291.04 289.99 291.658 289.99C292.276 289.99 292.778 290.491 292.778 291.11Z" fill="white"/>
<path d="M297.086 291.11C297.086 291.728 296.584 292.23 295.966 292.23C295.348 292.23 294.846 291.728 294.846 291.11C294.846 290.492 295.348 289.99 295.966 289.99C296.584 289.99 297.086 290.491 297.086 291.11Z" fill="white"/>
</g>
<path d="M141.648 183.098C143.338 181.545 143.458 178.929 141.934 177.223L98.8969 216.747L97.6406 217.296C97.7192 217.4 97.7842 217.51 97.8743 217.607C99.4407 219.312 102.092 219.425 103.796 217.859L141.648 183.098Z" fill="#263238"/>
<path opacity="0.5" d="M49.479 265.123C49.1972 265.123 48.9761 264.88 49.0044 264.599L50.991 244.228C51.0203 243.925 51.3252 243.726 51.6155 243.821L53.446 244.423C55.706 245.166 57.0409 247.496 56.538 249.822L54.0233 261.456C53.5612 263.596 51.6679 265.123 49.479 265.123Z" fill="white"/>
<g opacity="0.2">
<path d="M60.8274 251.667C60.8107 250.799 61.5001 250.082 62.3687 250.065L311.392 245.238C312.26 245.221 312.977 245.91 312.994 246.779C313.011 247.646 312.322 248.364 311.453 248.38L62.4285 253.208C61.5609 253.225 60.8442 252.535 60.8274 251.667Z" fill="white"/>
</g>
<path d="M218.026 222.235L264.368 221.434C269.391 221.348 273.193 216.864 272.457 211.895L267.837 180.726C267.567 178.901 266.02 177.538 264.176 177.495C256.14 177.31 248.083 177.175 241.677 177.175C238.589 177.175 235.887 177.206 233.752 177.28C229.585 177.421 222.954 177.895 215.214 178.539C213.351 178.694 211.876 180.187 211.747 182.051L209.58 213.341C209.243 218.209 213.147 222.32 218.026 222.235Z" fill="#263238"/>
<path d="M311.022 214.949L296.402 180.587C295.839 179.262 294.565 178.383 293.126 178.335C290.555 178.248 287.29 178.141 283.599 178.027C281.241 177.955 279.386 180.033 279.732 182.367L284.398 213.846C285.011 217.98 288.595 221.018 292.774 220.946L307.071 220.699C308.982 220.666 310.756 219.438 311.225 217.586C311.449 216.695 311.371 215.771 311.022 214.949Z" fill="#263238"/>
<path d="M195.904 180.266C178.938 181.864 161.708 183.647 154.379 184.415C152 184.664 149.771 185.672 148.009 187.288L122.307 210.892C117.269 215.518 120.627 223.917 127.465 223.799L189.755 222.722C194.072 222.647 197.616 219.283 197.913 214.977L200.037 184.296C200.2 181.966 198.231 180.047 195.904 180.266Z" fill="#263238"/>
<path d="M267.036 230.347L256.209 230.557C255.353 230.573 254.668 231.272 254.668 232.128C254.668 233.008 255.391 233.716 256.27 233.699L267.097 233.49C267.953 233.473 268.638 232.774 268.638 231.918C268.638 231.038 267.915 230.33 267.036 230.347Z" fill="#263238"/>
<path d="M191.102 233.421C191.102 232.541 190.38 231.833 189.5 231.85L178.673 232.059C177.817 232.076 177.132 232.775 177.132 233.631C177.132 234.511 177.855 235.219 178.734 235.202L189.561 234.993C190.417 234.976 191.102 234.277 191.102 233.421Z" fill="#263238"/>
<g opacity="0.2">
<path d="M52.8234 278.578C53.625 276.62 55.2501 274.218 57.2566 271.809L44.1488 272.064C42.2806 272.101 40.6775 270.948 40.0278 269.307C39.7177 270.71 39.6276 272.166 39.8047 273.62L40.646 280.551C41.0463 283.844 42.706 286.854 45.2772 288.95L45.82 289.393C47.7165 290.939 50.009 291.895 52.42 292.18C52.0606 287.844 51.7389 281.225 52.8234 278.578Z" fill="black"/>
<path d="M264.369 294.497C264.043 290.189 263.827 284.242 264.841 281.769C266.533 277.636 271.849 271.535 276.824 267.553L103.555 270.911C106.061 274.759 108.119 278.847 109.026 281.687C109.74 283.921 109.532 289.312 109.296 292.863L264.369 294.497Z" fill="black"/>
<path d="M321.044 284.877C321.51 286.339 321.583 289.155 321.512 291.922C322.669 291.051 323.724 290.031 324.608 288.838L326.067 286.868C328.011 284.245 329.061 281.066 329.061 277.801V272.688C329.061 269.901 328.296 267.167 326.849 264.785L325.537 262.625C325.388 264.855 323.576 266.645 321.3 266.689L309.892 266.91C314.659 271.63 319.504 280.053 321.044 284.877Z" fill="black"/>
</g>
<g opacity="0.2">
<path d="M118.801 279.828C118.779 278.672 119.699 277.715 120.856 277.693L254.297 275.107C255.455 275.084 256.411 276.005 256.433 277.161C256.455 278.318 255.535 279.274 254.379 279.296L120.938 281.883C119.78 281.906 118.823 280.985 118.801 279.828Z" fill="white"/>
</g>
<path opacity="0.6" d="M129.631 204.169L122.307 210.895C117.269 215.521 120.627 223.92 127.464 223.801L129.631 223.764V204.169Z" fill="black"/>
<path d="M139.654 205.922H135.951C134.101 205.922 132.601 207.421 132.601 209.271V214.421L126.411 215.619C125.645 215.767 125.092 216.437 125.092 217.217V218.682C125.092 219.826 126.241 220.614 127.308 220.201L133.187 217.925C133.926 219.016 135.269 219.647 136.677 219.333L140.169 218.557C141.257 218.315 142.03 217.351 142.03 216.238V208.299C142.031 206.985 140.967 205.922 139.654 205.922Z" fill="#4842FB"/>
<path d="M389.78 209.04C395.883 221.255 392.395 235.377 381.934 240.572L378.283 242.386C367.856 247.581 354.464 241.886 348.373 229.67C342.281 217.455 345.769 203.333 356.231 198.137L359.882 196.313C370.309 191.117 383.677 196.824 389.78 209.04Z" fill="#A5D503"/>
<path d="M381.915 240.588C392.344 235.392 395.861 221.273 389.771 209.053C383.68 196.833 370.289 191.14 359.86 196.336C349.431 201.532 345.914 215.65 352.004 227.87C358.095 240.09 371.486 245.784 381.915 240.588Z" fill="#D3FF3C"/>
<path d="M380.002 236.756C388.621 232.462 391.527 220.793 386.493 210.693C381.459 200.593 370.392 195.886 361.773 200.181C353.154 204.475 350.248 216.144 355.282 226.244C360.316 236.344 371.383 241.05 380.002 236.756Z" fill="#A5D503"/>
<path d="M376.532 228.111L377.601 231.283L375.612 231.956L374.56 228.801C372.345 229.451 369.973 229.32 367.844 228.431L367.942 225.242C369.712 226.021 371.687 226.208 373.573 225.776L371.666 220.106C368.723 220.237 365.501 220.172 364.177 216.235C363.207 213.342 364.161 210.219 367.794 208.526L366.725 205.32L368.706 204.654L369.759 207.81C371.559 207.309 373.465 207.338 375.25 207.892L375.184 211.114C373.741 210.696 372.222 210.622 370.745 210.9L372.669 216.637C375.62 216.497 378.875 216.513 380.198 220.45C381.168 223.279 380.182 226.385 376.532 228.111ZM370.482 216.638L368.797 211.584C367.461 212.116 366.778 213.601 367.243 214.962C367.671 216.343 368.92 216.622 370.482 216.638ZM377.173 221.684C376.712 220.304 375.464 219.975 373.836 219.991L375.538 224.981C377.157 224.117 377.592 222.909 377.182 221.677L377.173 221.684Z" fill="#D3FF3C"/>
</svg>
