<svg width="553" height="493" viewBox="0 0 553 493" fill="none" xmlns="http://www.w3.org/2000/svg">
<path d="M542.415 462.547C542.415 462.865 420.981 463.121 271.22 463.121C121.408 463.121 0 462.863 0 462.547C0 462.229 121.408 461.972 271.22 461.972C420.981 461.97 542.415 462.229 542.415 462.547Z" fill="#263238"/>
<path d="M49.3395 276.466C41.4194 277.74 37.8784 287.472 38.5714 295.464C39.2643 303.456 42.5494 311.268 41.6708 319.241C40.5544 329.367 32.9037 337.924 32.0117 348.073C30.9611 360.041 39.4214 370.655 41.9492 382.401C43.1794 388.115 43.0073 394.158 45.134 399.601C48.7214 408.781 59.2426 414.675 68.9451 412.944C78.6476 411.211 86.4764 402.038 86.665 392.184C86.8401 382.995 81.1694 374.34 81.8594 365.175C82.3682 358.4 86.3387 351.981 85.4887 345.241C84.4769 337.223 77.0463 331.526 74.4227 323.88C71.8006 316.233 74.3194 307.805 73.414 299.77C71.7902 285.357 63.7998 275.309 49.3395 276.466Z" fill="#A5D503"/>
<path d="M8.89611 346.256C7.54916 359.612 13.4548 375.325 20.3227 386.856C27.1907 398.389 37.8376 407.629 50.2221 412.807C51.6184 413.392 53.3575 413.882 54.5323 412.928C55.4946 412.146 55.6158 410.743 55.6233 409.503C55.7176 395.448 51.144 381.402 42.7929 370.098C34.4388 358.791 22.3566 350.294 8.89611 346.256Z" fill="#A5D503"/>
<g opacity="0.1">
<path d="M8.89611 346.256C7.54916 359.612 13.4548 375.325 20.3227 386.856C27.1907 398.389 37.8376 407.629 50.2221 412.807C51.6184 413.392 53.3575 413.882 54.5323 412.928C55.4946 412.146 55.6158 410.743 55.6233 409.503C55.7176 395.448 51.144 381.402 42.7929 370.098C34.4388 358.791 22.3566 350.294 8.89611 346.256Z" fill="black"/>
</g>
<path d="M67.0749 440.731C67.0509 440.74 66.9207 440.484 66.6947 439.987C66.4433 439.411 66.1275 438.687 65.7414 437.799C64.9392 435.891 63.7389 433.146 62.2109 429.776C59.1608 423.034 54.641 413.855 48.9509 404.104C43.2473 394.359 37.4659 385.915 33.0898 379.949C30.9033 376.963 29.1013 374.57 27.8307 372.935C27.247 372.162 26.7726 371.534 26.3925 371.031C26.0707 370.589 25.9106 370.351 25.9315 370.335C25.9525 370.318 26.1515 370.525 26.5122 370.935C26.9208 371.414 27.4326 372.016 28.0627 372.75C29.4036 374.331 31.2744 376.678 33.5193 379.627C38.0152 385.522 43.8834 393.945 49.6064 403.721C55.313 413.5 59.7714 422.745 62.7018 429.556C64.1699 432.961 65.2969 435.743 66.0153 437.688C66.349 438.597 66.6199 439.338 66.8369 439.929C67.0165 440.448 67.1003 440.722 67.0749 440.731Z" fill="#263238"/>
<path d="M58.4757 313.415C58.5027 313.414 58.5521 313.855 58.6209 314.696C58.6867 315.603 58.7765 316.829 58.8873 318.375C59.0968 321.64 59.3932 326.247 59.7583 331.907C60.4797 343.334 61.4929 359.12 62.7186 376.547C63.9473 393.979 65.1551 409.75 66.0411 421.167C66.4736 426.822 66.8253 431.423 67.0753 434.689C67.18 436.233 67.2638 437.46 67.3252 438.367C67.3746 439.208 67.3881 439.653 67.3611 439.654C67.3357 439.656 67.2713 439.217 67.1725 438.381C67.0753 437.477 66.9451 436.252 66.7804 434.714C66.4721 431.453 66.0396 426.86 65.5053 421.212C64.4816 409.804 63.1886 394.036 61.9613 376.601C60.7356 359.17 59.8062 343.376 59.2225 331.939C58.9591 326.272 58.7451 321.661 58.5925 318.391C58.5401 316.844 58.4982 315.614 58.4667 314.707C58.4473 313.861 58.4503 313.417 58.4757 313.415Z" fill="#263238"/>
<path d="M46.1924 421.685H79.6387V446.239C79.6387 455.108 72.4504 462.295 63.583 462.295C55.0493 462.295 48.0063 455.62 47.5498 447.097L46.1924 421.685Z" fill="#455A64"/>
<path d="M481.793 219.663C479.775 217.958 477.02 217.74 475.32 217.8C475.329 216.553 475.274 215.784 475.274 215.784H439.972C439.972 215.784 438.863 239.092 456.71 239.917C464.697 240.285 469.269 236.705 471.885 232.2C472.738 232.404 474.222 232.686 475.89 232.686C477.749 232.686 479.822 232.332 481.45 231.115C482.661 230.211 484.104 228.441 484.104 225.143C484.105 222.228 482.846 220.555 481.793 219.663ZM479.374 228.324C477.867 229.454 475.167 229.28 473.409 228.963C474.404 226.303 474.895 223.58 475.127 221.297C476.335 221.222 478.369 221.323 479.548 222.321C480.274 222.933 480.626 223.856 480.626 225.143C480.626 226.654 480.215 227.692 479.374 228.324Z" fill="#A5D503"/>
<path d="M464.961 213.659C464.914 213.635 465.232 213.394 465.247 212.773C465.25 212.175 464.796 211.248 463.789 210.651C463.288 210.371 462.628 210.205 461.917 210.009C461.21 209.805 460.378 209.597 459.657 208.997C458.935 208.408 458.484 207.406 458.495 206.369C458.489 205.332 458.808 204.262 459.392 203.289C460.601 201.326 462.789 200.088 464.32 198.148C465.814 196.204 466.357 193.35 465.595 190.682C465.242 189.342 464.515 188.079 463.518 187.052C462.505 186.036 461.14 185.36 459.744 184.661C458.362 183.936 456.83 183.232 455.752 181.805C455.243 181.106 454.872 180.303 454.709 179.432C454.537 178.573 454.585 177.607 455.044 176.763C455.282 176.326 455.652 175.982 456.019 175.722L456.42 176.389C453.7 177.905 452.536 181.307 453.024 184.141C453.263 185.584 453.938 186.888 454.959 187.855C455.968 188.844 457.253 189.662 458.021 191.003C458.392 191.669 458.581 192.442 458.54 193.187C458.498 193.934 458.26 194.634 457.931 195.252C457.259 196.49 456.273 197.439 455.21 198.163C453.04 199.536 450.804 200.226 449.157 201.483C447.465 202.684 446.642 204.486 446.508 206.11C446.34 207.736 446.704 209.165 447.204 210.197C448.247 212.302 449.586 212.86 449.495 212.944C449.487 212.956 449.414 212.92 449.275 212.84C449.142 212.752 448.919 212.653 448.679 212.448C448.175 212.076 447.506 211.395 446.936 210.332C446.374 209.277 445.945 207.797 446.08 206.071C446.15 205.214 446.356 204.292 446.81 203.409C447.254 202.521 447.97 201.715 448.827 201.05C450.548 199.7 452.828 198.956 454.851 197.635C455.833 196.951 456.744 196.046 457.331 194.937C457.934 193.841 458.064 192.472 457.401 191.354C456.758 190.222 455.538 189.427 454.446 188.386C453.316 187.332 452.537 185.851 452.276 184.27C451.738 181.16 452.965 177.449 456.044 175.707L456.445 176.374C456.173 176.575 455.9 176.82 455.725 177.143C455.044 178.424 455.511 180.163 456.378 181.346C457.259 182.543 458.726 183.272 460.088 183.978C461.474 184.68 462.918 185.39 464.045 186.526C465.139 187.661 465.916 189.044 466.288 190.49C467.088 193.371 466.484 196.439 464.831 198.546C463.148 200.6 460.983 201.793 459.862 203.579C458.747 205.308 458.644 207.604 459.94 208.668C461.213 209.699 462.867 209.702 463.945 210.392C465.021 211.088 465.456 212.109 465.404 212.781C465.381 213.122 465.238 213.349 465.146 213.489C465.033 213.611 464.971 213.668 464.961 213.659Z" fill="#263238"/>
<path d="M244.8 153.842H72.5802C69.9102 153.842 67.7461 151.678 67.7461 149.008V107.681C67.7461 105.011 69.9102 102.847 72.5802 102.847H244.8C247.47 102.847 249.634 105.011 249.634 107.681V149.008C249.634 151.677 247.47 153.842 244.8 153.842Z" fill="#DFDFDF"/>
<g opacity="0.5">
<path d="M196.057 125.295C196.057 123.642 197.397 122.302 199.05 122.302H239.458C241.111 122.302 242.452 123.642 242.452 125.295V131.282C242.452 132.935 241.111 134.275 239.458 134.275H199.05C197.397 134.275 196.057 132.935 196.057 131.282V125.295Z" fill="#7A7A7A"/>
<path d="M204.479 130.115H202.158L201.774 131.231H200.547L202.642 125.363H204.003L206.098 131.231H204.863L204.479 130.115ZM204.162 129.174L203.318 126.723L202.475 129.174H204.162Z" fill="black"/>
<path d="M206.598 128.293C206.598 127.716 206.726 127.201 206.982 126.748C207.243 126.289 207.597 125.934 208.042 125.682C208.493 125.424 208.996 125.295 209.553 125.295C210.204 125.295 210.774 125.463 211.264 125.799C211.754 126.135 212.096 126.6 212.291 127.193H210.947C210.813 126.913 210.624 126.703 210.379 126.563C210.14 126.423 209.862 126.353 209.544 126.353C209.205 126.353 208.902 126.434 208.635 126.597C208.373 126.754 208.167 126.977 208.017 127.269C207.872 127.56 207.8 127.901 207.8 128.293C207.8 128.679 207.872 129.02 208.017 129.317C208.167 129.608 208.373 129.835 208.635 129.997C208.902 130.154 209.205 130.232 209.544 130.232C209.862 130.232 210.14 130.162 210.379 130.022C210.624 129.877 210.813 129.664 210.947 129.384H212.291C212.096 129.983 211.754 130.451 211.264 130.786C210.78 131.117 210.209 131.282 209.553 131.282C208.996 131.282 208.493 131.156 208.042 130.904C207.597 130.647 207.243 130.291 206.982 129.838C206.726 129.384 206.598 128.869 206.598 128.293Z" fill="black"/>
<path d="M214.458 126.32V127.789H216.42V128.721H214.458V130.274H216.67V131.231H213.289V125.363H216.67V126.32H214.458Z" fill="black"/>
<path d="M221.981 127.185C221.981 127.498 221.906 127.792 221.756 128.066C221.611 128.34 221.38 128.562 221.063 128.729C220.751 128.897 220.356 128.981 219.878 128.981H218.901V131.231H217.732V125.371H219.878C220.328 125.371 220.712 125.449 221.03 125.606C221.347 125.763 221.583 125.978 221.739 126.253C221.9 126.527 221.981 126.838 221.981 127.185ZM219.827 128.033C220.15 128.033 220.39 127.96 220.545 127.814C220.701 127.663 220.779 127.453 220.779 127.185C220.779 126.614 220.462 126.328 219.827 126.328H218.901V128.033H219.827Z" fill="black"/>
<path d="M226.776 125.371V126.32H225.224V131.231H224.055V126.32H222.502V125.371H226.776Z" fill="black"/>
<path d="M231.202 130.115H228.881L228.497 131.231H227.27L229.365 125.363H230.726L232.821 131.231H231.586L231.202 130.115ZM230.885 129.174L230.042 126.723L229.198 129.174H230.885Z" fill="black"/>
<path d="M236.61 131.231L235.324 128.948H234.773V131.231H233.605V125.371H235.792C236.243 125.371 236.627 125.452 236.944 125.614C237.261 125.771 237.497 125.987 237.653 126.261C237.815 126.53 237.895 126.832 237.895 127.168C237.895 127.554 237.784 127.904 237.561 128.217C237.339 128.525 237.008 128.738 236.568 128.855L237.962 131.231H236.61ZM234.773 128.066H235.75C236.067 128.066 236.304 127.991 236.46 127.839C236.615 127.683 236.693 127.467 236.693 127.193C236.693 126.924 236.615 126.717 236.46 126.572C236.304 126.42 236.067 126.345 235.75 126.345H234.773V128.066Z" fill="black"/>
</g>
<g opacity="0.5">
<path d="M85.4613 121.712C86.7254 119.445 87.357 118.312 88.3019 118.312C89.2467 118.312 89.8783 119.445 91.1424 121.712L91.4697 122.299C91.8289 122.944 92.0085 123.266 92.2878 123.478C92.5672 123.691 92.9164 123.77 93.6148 123.927L94.2494 124.071C96.7038 124.627 97.9301 124.904 98.2224 125.843C98.5137 126.781 97.6776 127.76 96.0044 129.716L95.5714 130.222C95.0965 130.778 94.858 131.056 94.7513 131.399C94.6445 131.744 94.6804 132.115 94.7523 132.856L94.8181 133.532C95.0705 136.143 95.1973 137.448 94.433 138.027C93.6687 138.607 92.5193 138.078 90.2225 137.021L89.6269 136.747C88.9743 136.446 88.6481 136.296 88.3019 136.296C87.9556 136.296 87.6294 136.446 86.9769 136.747L86.3822 137.021C84.0844 138.078 82.935 138.607 82.1717 138.028C81.4065 137.448 81.5332 136.143 81.7856 133.532L81.8515 132.857C81.9233 132.115 81.9592 131.744 81.8515 131.4C81.7457 131.056 81.5072 130.778 81.0323 130.223L80.5993 129.716C78.9261 127.761 78.09 126.782 78.3813 125.843C78.6727 124.904 79.9009 124.626 82.3553 124.071L82.9899 123.927C83.6873 123.77 84.0355 123.691 84.3159 123.478C84.5963 123.266 84.7749 122.944 85.134 122.299L85.4613 121.712Z" fill="#7A7A7A"/>
</g>
<g opacity="0.5">
<path d="M119.23 135.659C119.23 136.281 119.068 136.868 118.745 137.419C118.434 137.958 117.967 138.407 117.344 138.766C116.734 139.113 116.009 139.316 115.171 139.376V140.831H114.022V139.358C112.825 139.251 111.861 138.891 111.13 138.281C110.4 137.658 110.023 136.82 109.999 135.767H112.693C112.765 136.629 113.208 137.149 114.022 137.329V133.899C113.16 133.683 112.465 133.468 111.939 133.252C111.412 133.037 110.957 132.689 110.574 132.211C110.191 131.732 109.999 131.079 109.999 130.253C109.999 129.211 110.37 128.361 111.113 127.703C111.867 127.044 112.837 126.667 114.022 126.571V125.117H115.171V126.571C116.321 126.667 117.237 127.014 117.919 127.613C118.614 128.212 119.003 129.038 119.086 130.091H116.375C116.339 129.744 116.213 129.445 115.997 129.193C115.794 128.93 115.519 128.744 115.171 128.637V132.031C116.069 132.258 116.776 132.48 117.291 132.695C117.817 132.899 118.272 133.24 118.655 133.719C119.039 134.186 119.23 134.833 119.23 135.659ZM112.621 130.127C112.621 130.522 112.741 130.846 112.98 131.097C113.22 131.337 113.567 131.534 114.022 131.69V128.583C113.591 128.643 113.25 128.804 112.998 129.068C112.747 129.331 112.621 129.684 112.621 130.127ZM115.171 137.365C115.626 137.281 115.979 137.096 116.231 136.808C116.494 136.521 116.626 136.174 116.626 135.767C116.626 135.371 116.5 135.054 116.249 134.815C115.997 134.575 115.638 134.378 115.171 134.222V137.365Z" fill="#7A7A7A"/>
<path d="M126.819 136.431C127.969 135.473 128.885 134.677 129.567 134.042C130.25 133.396 130.818 132.725 131.273 132.031C131.728 131.337 131.956 130.654 131.956 129.984C131.956 129.373 131.812 128.894 131.525 128.547C131.237 128.2 130.794 128.026 130.196 128.026C129.597 128.026 129.136 128.23 128.813 128.637C128.49 129.032 128.322 129.577 128.31 130.271H125.868C125.915 128.834 126.34 127.745 127.143 127.002C127.957 126.26 128.986 125.889 130.232 125.889C131.597 125.889 132.644 126.254 133.375 126.984C134.105 127.703 134.47 128.655 134.47 129.84C134.47 130.774 134.219 131.666 133.716 132.516C133.213 133.366 132.638 134.108 131.992 134.743C131.345 135.365 130.501 136.12 129.459 137.006H134.757V139.089H125.885V137.221L126.819 136.431Z" fill="#7A7A7A"/>
<path d="M138.533 132.336C137.335 131.714 136.737 130.75 136.737 129.445C136.737 128.798 136.898 128.212 137.222 127.685C137.557 127.146 138.054 126.721 138.712 126.41C139.383 126.086 140.197 125.925 141.155 125.925C142.113 125.925 142.921 126.086 143.579 126.41C144.25 126.721 144.747 127.146 145.07 127.685C145.405 128.212 145.573 128.798 145.573 129.445C145.573 130.103 145.411 130.684 145.088 131.187C144.765 131.678 144.334 132.061 143.795 132.336C144.453 132.624 144.968 133.043 145.339 133.593C145.711 134.144 145.896 134.797 145.896 135.551C145.896 136.365 145.687 137.078 145.268 137.688C144.86 138.287 144.298 138.748 143.579 139.071C142.861 139.394 142.053 139.556 141.155 139.556C140.257 139.556 139.449 139.394 138.73 139.071C138.024 138.748 137.461 138.287 137.042 137.688C136.635 137.078 136.432 136.365 136.432 135.551C136.432 134.797 136.617 134.144 136.988 133.593C137.359 133.031 137.874 132.612 138.533 132.336ZM143.13 129.804C143.13 129.217 142.951 128.762 142.592 128.439C142.244 128.116 141.765 127.954 141.155 127.954C140.556 127.954 140.077 128.116 139.718 128.439C139.371 128.762 139.197 129.223 139.197 129.822C139.197 130.361 139.377 130.792 139.736 131.115C140.107 131.438 140.58 131.6 141.155 131.6C141.73 131.6 142.202 131.438 142.574 131.115C142.945 130.78 143.13 130.343 143.13 129.804ZM141.155 133.432C140.472 133.432 139.916 133.605 139.485 133.953C139.066 134.3 138.856 134.797 138.856 135.443C138.856 136.042 139.06 136.533 139.467 136.916C139.886 137.287 140.448 137.473 141.155 137.473C141.861 137.473 142.418 137.281 142.825 136.898C143.232 136.515 143.436 136.03 143.436 135.443C143.436 134.809 143.226 134.318 142.807 133.971C142.388 133.611 141.837 133.432 141.155 133.432Z" fill="#7A7A7A"/>
<path d="M149.283 139.394C148.828 139.394 148.451 139.257 148.151 138.981C147.864 138.694 147.72 138.341 147.72 137.922C147.72 137.503 147.864 137.155 148.151 136.88C148.451 136.593 148.828 136.449 149.283 136.449C149.726 136.449 150.091 136.593 150.378 136.88C150.666 137.155 150.809 137.503 150.809 137.922C150.809 138.341 150.666 138.694 150.378 138.981C150.091 139.257 149.726 139.394 149.283 139.394Z" fill="#7A7A7A"/>
<path d="M152.547 132.552C152.547 130.48 152.918 128.858 153.661 127.685C154.415 126.511 155.66 125.925 157.396 125.925C159.132 125.925 160.372 126.511 161.114 127.685C161.868 128.858 162.245 130.48 162.245 132.552C162.245 134.635 161.868 136.269 161.114 137.455C160.372 138.64 159.132 139.233 157.396 139.233C155.66 139.233 154.415 138.64 153.661 137.455C152.918 136.269 152.547 134.635 152.547 132.552ZM159.767 132.552C159.767 131.666 159.707 130.924 159.587 130.325C159.48 129.714 159.252 129.217 158.905 128.834C158.57 128.451 158.067 128.26 157.396 128.26C156.726 128.26 156.217 128.451 155.87 128.834C155.534 129.217 155.307 129.714 155.187 130.325C155.079 130.924 155.026 131.666 155.026 132.552C155.026 133.462 155.079 134.228 155.187 134.851C155.295 135.461 155.522 135.958 155.87 136.341C156.217 136.712 156.726 136.898 157.396 136.898C158.067 136.898 158.576 136.712 158.923 136.341C159.27 135.958 159.497 135.461 159.605 134.851C159.713 134.228 159.767 133.462 159.767 132.552Z" fill="#7A7A7A"/>
<path d="M164.158 132.552C164.158 130.48 164.529 128.858 165.271 127.685C166.025 126.511 167.271 125.925 169.007 125.925C170.743 125.925 171.982 126.511 172.724 127.685C173.479 128.858 173.856 130.48 173.856 132.552C173.856 134.635 173.479 136.269 172.724 137.455C171.982 138.64 170.743 139.233 169.007 139.233C167.271 139.233 166.025 138.64 165.271 137.455C164.529 136.269 164.158 134.635 164.158 132.552ZM171.377 132.552C171.377 131.666 171.317 130.924 171.198 130.325C171.09 129.714 170.862 129.217 170.515 128.834C170.18 128.451 169.677 128.26 169.007 128.26C168.336 128.26 167.827 128.451 167.48 128.834C167.145 129.217 166.917 129.714 166.798 130.325C166.69 130.924 166.636 131.666 166.636 132.552C166.636 133.462 166.69 134.228 166.798 134.851C166.905 135.461 167.133 135.958 167.48 136.341C167.827 136.712 168.336 136.898 169.007 136.898C169.677 136.898 170.186 136.712 170.533 136.341C170.88 135.958 171.108 135.461 171.216 134.851C171.323 134.228 171.377 133.462 171.377 132.552Z" fill="#7A7A7A"/>
<path d="M175.768 132.552C175.768 130.48 176.139 128.858 176.882 127.685C177.636 126.511 178.881 125.925 180.617 125.925C182.353 125.925 183.592 126.511 184.335 127.685C185.089 128.858 185.466 130.48 185.466 132.552C185.466 134.635 185.089 136.269 184.335 137.455C183.592 138.64 182.353 139.233 180.617 139.233C178.881 139.233 177.636 138.64 176.882 137.455C176.139 136.269 175.768 134.635 175.768 132.552ZM182.988 132.552C182.988 131.666 182.928 130.924 182.808 130.325C182.7 129.714 182.473 129.217 182.126 128.834C181.79 128.451 181.288 128.26 180.617 128.26C179.947 128.26 179.438 128.451 179.091 128.834C178.755 129.217 178.528 129.714 178.408 130.325C178.3 130.924 178.246 131.666 178.246 132.552C178.246 133.462 178.3 134.228 178.408 134.851C178.516 135.461 178.743 135.958 179.091 136.341C179.438 136.712 179.947 136.898 180.617 136.898C181.288 136.898 181.796 136.712 182.144 136.341C182.491 135.958 182.718 135.461 182.826 134.851C182.934 134.228 182.988 133.462 182.988 132.552Z" fill="#7A7A7A"/>
<path d="M114.765 121.309H113.927L112.029 118.442V121.309H111.191V117.125H112.029L113.927 119.998V117.125H114.765V121.309Z" fill="#7A7A7A"/>
<path d="M118.724 117.993V121.309H117.88V120.89C117.772 121.034 117.63 121.148 117.455 121.231C117.283 121.311 117.095 121.351 116.892 121.351C116.632 121.351 116.403 121.297 116.203 121.19C116.004 121.078 115.846 120.916 115.731 120.705C115.619 120.489 115.563 120.234 115.563 119.938V117.993H116.401V119.819C116.401 120.082 116.467 120.286 116.599 120.429C116.73 120.569 116.91 120.639 117.137 120.639C117.369 120.639 117.55 120.569 117.682 120.429C117.814 120.286 117.88 120.082 117.88 119.819V117.993H118.724Z" fill="#7A7A7A"/>
<path d="M122.634 119.579C122.634 119.699 122.626 119.807 122.61 119.902H120.185C120.205 120.142 120.289 120.329 120.437 120.465C120.584 120.601 120.766 120.669 120.981 120.669C121.293 120.669 121.514 120.535 121.646 120.268H122.55C122.454 120.587 122.271 120.85 121.999 121.058C121.728 121.261 121.395 121.363 120.999 121.363C120.68 121.363 120.393 121.293 120.137 121.154C119.886 121.01 119.688 120.808 119.545 120.549C119.405 120.29 119.335 119.99 119.335 119.651C119.335 119.308 119.405 119.006 119.545 118.747C119.684 118.488 119.88 118.288 120.131 118.148C120.383 118.009 120.672 117.939 120.999 117.939C121.315 117.939 121.596 118.007 121.843 118.142C122.095 118.278 122.288 118.472 122.424 118.723C122.564 118.971 122.634 119.256 122.634 119.579ZM121.766 119.34C121.762 119.124 121.684 118.953 121.532 118.825C121.381 118.693 121.195 118.627 120.975 118.627C120.768 118.627 120.592 118.691 120.449 118.819C120.309 118.943 120.223 119.116 120.191 119.34H121.766Z" fill="#7A7A7A"/>
<path d="M124.628 120.537L125.466 117.993H126.358L125.131 121.309H124.113L122.892 117.993H123.79L124.628 120.537Z" fill="#7A7A7A"/>
<path d="M126.614 119.639C126.614 119.304 126.679 119.006 126.811 118.747C126.947 118.488 127.128 118.288 127.356 118.148C127.587 118.009 127.845 117.939 128.128 117.939C128.376 117.939 128.591 117.989 128.775 118.089C128.962 118.188 129.112 118.314 129.224 118.466V117.993H130.068V121.309H129.224V120.824C129.116 120.98 128.966 121.11 128.775 121.213C128.587 121.313 128.37 121.363 128.122 121.363C127.843 121.363 127.587 121.291 127.356 121.148C127.128 121.004 126.947 120.802 126.811 120.543C126.679 120.28 126.614 119.978 126.614 119.639ZM129.224 119.651C129.224 119.447 129.184 119.274 129.104 119.13C129.024 118.983 128.916 118.871 128.781 118.795C128.645 118.715 128.499 118.675 128.344 118.675C128.188 118.675 128.044 118.713 127.913 118.789C127.781 118.865 127.673 118.977 127.589 119.124C127.51 119.268 127.47 119.439 127.47 119.639C127.47 119.839 127.51 120.014 127.589 120.166C127.673 120.314 127.781 120.427 127.913 120.507C128.048 120.587 128.192 120.627 128.344 120.627C128.499 120.627 128.645 120.589 128.781 120.513C128.916 120.433 129.024 120.322 129.104 120.178C129.184 120.03 129.224 119.855 129.224 119.651Z" fill="#7A7A7A"/>
<path d="M133.785 121.363C133.466 121.363 133.179 121.293 132.923 121.154C132.668 121.01 132.466 120.808 132.319 120.549C132.175 120.29 132.103 119.99 132.103 119.651C132.103 119.312 132.177 119.012 132.325 118.753C132.476 118.494 132.682 118.294 132.941 118.154C133.201 118.011 133.49 117.939 133.809 117.939C134.129 117.939 134.418 118.011 134.677 118.154C134.937 118.294 135.14 118.494 135.288 118.753C135.44 119.012 135.516 119.312 135.516 119.651C135.516 119.99 135.438 120.29 135.282 120.549C135.13 120.808 134.923 121.01 134.659 121.154C134.4 121.293 134.109 121.363 133.785 121.363ZM133.785 120.633C133.937 120.633 134.079 120.597 134.211 120.525C134.346 120.449 134.454 120.337 134.534 120.19C134.614 120.042 134.654 119.863 134.654 119.651C134.654 119.336 134.57 119.094 134.402 118.927C134.238 118.755 134.037 118.669 133.797 118.669C133.558 118.669 133.356 118.755 133.193 118.927C133.033 119.094 132.953 119.336 132.953 119.651C132.953 119.966 133.031 120.21 133.187 120.381C133.346 120.549 133.546 120.633 133.785 120.633Z" fill="#7A7A7A"/>
<path d="M137.651 118.681H137.07V121.309H136.22V118.681H135.843V117.993H136.22V117.825C136.22 117.418 136.336 117.119 136.567 116.927C136.799 116.736 137.148 116.646 137.615 116.658V117.364C137.411 117.36 137.27 117.394 137.19 117.466C137.11 117.538 137.07 117.668 137.07 117.855V117.993H137.651V118.681Z" fill="#7A7A7A"/>
<path d="M141.277 119.579C141.277 119.699 141.269 119.807 141.253 119.902H138.829C138.849 120.142 138.932 120.329 139.08 120.465C139.228 120.601 139.409 120.669 139.625 120.669C139.936 120.669 140.158 120.535 140.289 120.268H141.193C141.097 120.587 140.914 120.85 140.642 121.058C140.371 121.261 140.038 121.363 139.643 121.363C139.323 121.363 139.036 121.293 138.781 121.154C138.529 121.01 138.332 120.808 138.188 120.549C138.048 120.29 137.979 119.99 137.979 119.651C137.979 119.308 138.048 119.006 138.188 118.747C138.328 118.488 138.523 118.288 138.775 118.148C139.026 118.009 139.315 117.939 139.643 117.939C139.958 117.939 140.239 118.007 140.487 118.142C140.738 118.278 140.932 118.472 141.068 118.723C141.207 118.971 141.277 119.256 141.277 119.579ZM140.409 119.34C140.405 119.124 140.327 118.953 140.176 118.825C140.024 118.693 139.838 118.627 139.619 118.627C139.411 118.627 139.236 118.691 139.092 118.819C138.952 118.943 138.866 119.116 138.835 119.34H140.409Z" fill="#7A7A7A"/>
<path d="M142.727 118.508C142.835 118.332 142.974 118.194 143.146 118.095C143.322 117.995 143.521 117.945 143.745 117.945V118.825H143.523C143.26 118.825 143.06 118.887 142.924 119.01C142.793 119.134 142.727 119.35 142.727 119.657V121.309H141.889V117.993H142.727V118.508Z" fill="#7A7A7A"/>
<path d="M145.285 118.681V120.286C145.285 120.397 145.311 120.479 145.363 120.531C145.419 120.579 145.51 120.603 145.638 120.603H146.027V121.309H145.5C144.794 121.309 144.441 120.966 144.441 120.28V118.681H144.046V117.993H144.441V117.173H145.285V117.993H146.027V118.681H145.285Z" fill="#7A7A7A"/>
<path d="M146.414 119.639C146.414 119.304 146.48 119.006 146.612 118.747C146.748 118.488 146.929 118.288 147.157 118.148C147.388 118.009 147.646 117.939 147.929 117.939C148.176 117.939 148.392 117.989 148.576 118.089C148.763 118.188 148.913 118.314 149.025 118.466V117.993H149.869V121.309H149.025V120.824C148.917 120.98 148.767 121.11 148.576 121.213C148.388 121.313 148.171 121.363 147.923 121.363C147.644 121.363 147.388 121.291 147.157 121.148C146.929 121.004 146.748 120.802 146.612 120.543C146.48 120.28 146.414 119.978 146.414 119.639ZM149.025 119.651C149.025 119.447 148.985 119.274 148.905 119.13C148.825 118.983 148.717 118.871 148.582 118.795C148.446 118.715 148.3 118.675 148.145 118.675C147.989 118.675 147.845 118.713 147.714 118.789C147.582 118.865 147.474 118.977 147.39 119.124C147.31 119.268 147.271 119.439 147.271 119.639C147.271 119.839 147.31 120.014 147.39 120.166C147.474 120.314 147.582 120.427 147.714 120.507C147.849 120.587 147.993 120.627 148.145 120.627C148.3 120.627 148.446 120.589 148.582 120.513C148.717 120.433 148.825 120.322 148.905 120.178C148.985 120.03 149.025 119.855 149.025 119.651Z" fill="#7A7A7A"/>
</g>
<path d="M244.8 212.21H72.5802C69.9102 212.21 67.7461 210.046 67.7461 207.376V166.048C67.7461 163.378 69.9102 161.214 72.5802 161.214H244.8C247.47 161.214 249.634 163.378 249.634 166.048V207.376C249.634 210.044 247.47 212.21 244.8 212.21Z" fill="#DFDFDF"/>
<g opacity="0.5">
<path d="M119.231 192.027C119.231 192.65 119.069 193.236 118.746 193.787C118.435 194.326 117.968 194.775 117.345 195.134C116.735 195.481 116.01 195.685 115.172 195.745V197.199H114.023V195.727C112.826 195.619 111.862 195.26 111.131 194.649C110.401 194.026 110.024 193.188 110 192.135H112.694C112.766 192.997 113.209 193.518 114.023 193.697V190.267C113.161 190.051 112.466 189.836 111.94 189.62C111.413 189.405 110.958 189.058 110.575 188.579C110.192 188.1 110 187.447 110 186.621C110 185.58 110.371 184.729 111.113 184.071C111.868 183.412 112.838 183.035 114.023 182.94V181.485H115.172V182.94C116.322 183.035 117.238 183.382 117.92 183.981C118.614 184.58 119.004 185.406 119.087 186.46H116.376C116.34 186.112 116.214 185.813 115.998 185.562C115.795 185.298 115.52 185.113 115.172 185.005V188.399C116.07 188.627 116.777 188.848 117.291 189.064C117.818 189.267 118.273 189.608 118.656 190.087C119.04 190.554 119.231 191.201 119.231 192.027ZM112.622 186.495C112.622 186.891 112.742 187.214 112.981 187.465C113.221 187.705 113.568 187.902 114.023 188.058V184.951C113.592 185.011 113.251 185.172 112.999 185.436C112.748 185.699 112.622 186.052 112.622 186.495ZM115.172 193.733C115.627 193.649 115.98 193.464 116.232 193.176C116.495 192.889 116.627 192.542 116.627 192.135C116.627 191.74 116.501 191.422 116.25 191.183C115.998 190.943 115.639 190.746 115.172 190.59V193.733Z" fill="#7A7A7A"/>
<path d="M126.82 192.799C127.97 191.841 128.886 191.045 129.568 190.411C130.251 189.764 130.819 189.094 131.274 188.399C131.729 187.705 131.957 187.022 131.957 186.352C131.957 185.741 131.813 185.262 131.526 184.915C131.238 184.568 130.795 184.394 130.197 184.394C129.598 184.394 129.137 184.598 128.814 185.005C128.491 185.4 128.323 185.945 128.311 186.639H125.868C125.916 185.202 126.341 184.113 127.144 183.371C127.958 182.628 128.987 182.257 130.233 182.257C131.598 182.257 132.645 182.622 133.375 183.353C134.106 184.071 134.471 185.023 134.471 186.208C134.471 187.142 134.22 188.034 133.717 188.884C133.214 189.734 132.639 190.476 131.993 191.111C131.346 191.734 130.502 192.488 129.46 193.374H134.758V195.457H125.886V193.589L126.82 192.799Z" fill="#7A7A7A"/>
<path d="M136.343 188.92C136.343 186.849 136.714 185.226 137.456 184.053C138.21 182.88 139.456 182.293 141.192 182.293C142.928 182.293 144.167 182.88 144.909 184.053C145.664 185.226 146.041 186.849 146.041 188.92C146.041 191.003 145.664 192.638 144.909 193.823C144.167 195.008 142.928 195.601 141.192 195.601C139.456 195.601 138.21 195.008 137.456 193.823C136.714 192.638 136.343 191.003 136.343 188.92ZM143.562 188.92C143.562 188.034 143.502 187.292 143.383 186.693C143.275 186.082 143.048 185.586 142.7 185.202C142.365 184.819 141.862 184.628 141.192 184.628C140.521 184.628 140.012 184.819 139.665 185.202C139.33 185.586 139.102 186.082 138.983 186.693C138.875 187.292 138.821 188.034 138.821 188.92C138.821 189.83 138.875 190.596 138.983 191.219C139.09 191.829 139.318 192.326 139.665 192.709C140.012 193.081 140.521 193.266 141.192 193.266C141.862 193.266 142.371 193.081 142.718 192.709C143.065 192.326 143.293 191.829 143.401 191.219C143.508 190.596 143.562 189.83 143.562 188.92Z" fill="#7A7A7A"/>
<path d="M149.354 195.762C148.899 195.762 148.522 195.625 148.223 195.349C147.935 195.062 147.792 194.709 147.792 194.29C147.792 193.871 147.935 193.524 148.223 193.248C148.522 192.961 148.899 192.817 149.354 192.817C149.797 192.817 150.162 192.961 150.449 193.248C150.737 193.524 150.881 193.871 150.881 194.29C150.881 194.709 150.737 195.062 150.449 195.349C150.162 195.625 149.797 195.762 149.354 195.762Z" fill="#7A7A7A"/>
<path d="M161.418 184.717H155.6V187.789C155.851 187.477 156.21 187.226 156.677 187.034C157.144 186.831 157.641 186.729 158.168 186.729C159.126 186.729 159.91 186.938 160.52 187.358C161.131 187.777 161.574 188.315 161.849 188.974C162.125 189.62 162.263 190.315 162.263 191.057C162.263 192.434 161.867 193.542 161.077 194.38C160.299 195.218 159.185 195.637 157.737 195.637C156.372 195.637 155.282 195.296 154.468 194.613C153.654 193.931 153.193 193.039 153.085 191.937H155.528C155.636 192.416 155.875 192.799 156.246 193.087C156.629 193.374 157.114 193.518 157.701 193.518C158.407 193.518 158.94 193.296 159.299 192.853C159.658 192.41 159.838 191.823 159.838 191.093C159.838 190.351 159.652 189.788 159.281 189.405C158.922 189.01 158.389 188.812 157.683 188.812C157.18 188.812 156.761 188.938 156.426 189.189C156.091 189.441 155.851 189.776 155.707 190.195H153.301V182.508H161.418V184.717Z" fill="#7A7A7A"/>
<path d="M164.176 188.92C164.176 186.849 164.547 185.226 165.29 184.053C166.044 182.88 167.289 182.293 169.025 182.293C170.761 182.293 172 182.88 172.743 184.053C173.497 185.226 173.874 186.849 173.874 188.92C173.874 191.003 173.497 192.638 172.743 193.823C172 195.008 170.761 195.601 169.025 195.601C167.289 195.601 166.044 195.008 165.29 193.823C164.547 192.638 164.176 191.003 164.176 188.92ZM171.396 188.92C171.396 188.034 171.336 187.292 171.216 186.693C171.108 186.082 170.881 185.586 170.534 185.202C170.199 184.819 169.696 184.628 169.025 184.628C168.355 184.628 167.846 184.819 167.499 185.202C167.163 185.586 166.936 186.082 166.816 186.693C166.708 187.292 166.655 188.034 166.655 188.92C166.655 189.83 166.708 190.596 166.816 191.219C166.924 191.829 167.151 192.326 167.499 192.709C167.846 193.081 168.355 193.266 169.025 193.266C169.696 193.266 170.205 193.081 170.552 192.709C170.899 192.326 171.126 191.829 171.234 191.219C171.342 190.596 171.396 189.83 171.396 188.92Z" fill="#7A7A7A"/>
<path d="M175.787 188.92C175.787 186.849 176.158 185.226 176.9 184.053C177.654 182.88 178.9 182.293 180.636 182.293C182.372 182.293 183.611 182.88 184.353 184.053C185.108 185.226 185.485 186.849 185.485 188.92C185.485 191.003 185.108 192.638 184.353 193.823C183.611 195.008 182.372 195.601 180.636 195.601C178.9 195.601 177.654 195.008 176.9 193.823C176.158 192.638 175.787 191.003 175.787 188.92ZM183.006 188.92C183.006 188.034 182.946 187.292 182.827 186.693C182.719 186.082 182.491 185.586 182.144 185.202C181.809 184.819 181.306 184.628 180.636 184.628C179.965 184.628 179.456 184.819 179.109 185.202C178.774 185.586 178.546 186.082 178.427 186.693C178.319 187.292 178.265 188.034 178.265 188.92C178.265 189.83 178.319 190.596 178.427 191.219C178.534 191.829 178.762 192.326 179.109 192.709C179.456 193.081 179.965 193.266 180.636 193.266C181.306 193.266 181.815 193.081 182.162 192.709C182.509 192.326 182.737 191.829 182.845 191.219C182.952 190.596 183.006 189.83 183.006 188.92Z" fill="#7A7A7A"/>
<path d="M114.774 177.677H113.936L112.039 174.81V177.677H111.2V173.493H112.039L113.936 176.366V173.493H114.774V177.677Z" fill="#7A7A7A"/>
<path d="M118.734 174.361V177.677H117.889V177.258C117.782 177.402 117.64 177.516 117.464 177.6C117.293 177.679 117.105 177.719 116.902 177.719C116.642 177.719 116.413 177.665 116.213 177.558C116.014 177.446 115.856 177.284 115.74 177.073C115.629 176.857 115.573 176.602 115.573 176.307V174.361H116.411V176.187C116.411 176.45 116.477 176.654 116.608 176.797C116.74 176.937 116.92 177.007 117.147 177.007C117.379 177.007 117.56 176.937 117.692 176.797C117.824 176.654 117.889 176.45 117.889 176.187V174.361H118.734Z" fill="#7A7A7A"/>
<path d="M122.643 175.947C122.643 176.067 122.635 176.175 122.62 176.271H120.195C120.215 176.51 120.299 176.698 120.446 176.833C120.594 176.969 120.776 177.037 120.991 177.037C121.302 177.037 121.524 176.903 121.656 176.636H122.56C122.464 176.955 122.28 177.218 122.009 177.426C121.737 177.63 121.404 177.731 121.009 177.731C120.69 177.731 120.403 177.661 120.147 177.522C119.896 177.378 119.698 177.177 119.554 176.917C119.415 176.658 119.345 176.358 119.345 176.019C119.345 175.676 119.415 175.375 119.554 175.115C119.694 174.856 119.89 174.656 120.141 174.517C120.393 174.377 120.682 174.307 121.009 174.307C121.324 174.307 121.606 174.375 121.853 174.511C122.105 174.646 122.298 174.84 122.434 175.091C122.574 175.339 122.643 175.624 122.643 175.947ZM121.775 175.708C121.771 175.492 121.694 175.321 121.542 175.193C121.39 175.061 121.205 174.995 120.985 174.995C120.778 174.995 120.602 175.059 120.458 175.187C120.319 175.311 120.233 175.484 120.201 175.708H121.775Z" fill="#7A7A7A"/>
<path d="M124.638 176.905L125.476 174.361H126.368L125.141 177.677H124.123L122.902 174.361H123.8L124.638 176.905Z" fill="#7A7A7A"/>
<path d="M126.623 176.007C126.623 175.672 126.689 175.375 126.821 175.115C126.957 174.856 127.138 174.656 127.366 174.517C127.597 174.377 127.855 174.307 128.138 174.307C128.385 174.307 128.601 174.357 128.784 174.457C128.972 174.556 129.122 174.682 129.233 174.834V174.361H130.078V177.677H129.233V177.193C129.126 177.348 128.976 177.478 128.784 177.582C128.597 177.681 128.379 177.731 128.132 177.731C127.853 177.731 127.597 177.659 127.366 177.516C127.138 177.372 126.957 177.171 126.821 176.911C126.689 176.648 126.623 176.346 126.623 176.007ZM129.233 176.019C129.233 175.816 129.194 175.642 129.114 175.498C129.034 175.351 128.926 175.239 128.79 175.163C128.655 175.083 128.509 175.043 128.353 175.043C128.198 175.043 128.054 175.081 127.922 175.157C127.791 175.233 127.683 175.345 127.599 175.492C127.519 175.636 127.479 175.808 127.479 176.007C127.479 176.207 127.519 176.382 127.599 176.534C127.683 176.682 127.791 176.795 127.922 176.875C128.058 176.955 128.202 176.995 128.353 176.995C128.509 176.995 128.655 176.957 128.79 176.881C128.926 176.801 129.034 176.69 129.114 176.546C129.194 176.398 129.233 176.223 129.233 176.019Z" fill="#7A7A7A"/>
<path d="M133.795 177.731C133.476 177.731 133.189 177.661 132.933 177.522C132.678 177.378 132.476 177.177 132.329 176.917C132.185 176.658 132.113 176.358 132.113 176.019C132.113 175.68 132.187 175.381 132.335 175.121C132.486 174.862 132.692 174.662 132.951 174.523C133.211 174.379 133.5 174.307 133.819 174.307C134.138 174.307 134.428 174.379 134.687 174.523C134.947 174.662 135.15 174.862 135.298 175.121C135.449 175.381 135.525 175.68 135.525 176.019C135.525 176.358 135.447 176.658 135.292 176.917C135.14 177.177 134.933 177.378 134.669 177.522C134.41 177.661 134.118 177.731 133.795 177.731ZM133.795 177.001C133.947 177.001 134.089 176.965 134.22 176.893C134.356 176.817 134.464 176.706 134.544 176.558C134.623 176.41 134.663 176.231 134.663 176.019C134.663 175.704 134.579 175.462 134.412 175.295C134.248 175.123 134.047 175.037 133.807 175.037C133.568 175.037 133.366 175.123 133.203 175.295C133.043 175.462 132.963 175.704 132.963 176.019C132.963 176.334 133.041 176.578 133.197 176.75C133.356 176.917 133.556 177.001 133.795 177.001Z" fill="#7A7A7A"/>
<path d="M137.661 175.049H137.08V177.677H136.23V175.049H135.853V174.361H136.23V174.193C136.23 173.786 136.346 173.487 136.577 173.295C136.809 173.104 137.158 173.014 137.625 173.026V173.732C137.421 173.728 137.279 173.762 137.2 173.834C137.12 173.906 137.08 174.036 137.08 174.223V174.361H137.661V175.049Z" fill="#7A7A7A"/>
<path d="M141.287 175.947C141.287 176.067 141.279 176.175 141.263 176.271H138.838C138.858 176.51 138.942 176.698 139.09 176.833C139.237 176.969 139.419 177.037 139.635 177.037C139.946 177.037 140.167 176.903 140.299 176.636H141.203C141.107 176.955 140.924 177.218 140.652 177.426C140.381 177.63 140.048 177.731 139.652 177.731C139.333 177.731 139.046 177.661 138.79 177.522C138.539 177.378 138.341 177.177 138.198 176.917C138.058 176.658 137.988 176.358 137.988 176.019C137.988 175.676 138.058 175.375 138.198 175.115C138.337 174.856 138.533 174.656 138.784 174.517C139.036 174.377 139.325 174.307 139.652 174.307C139.968 174.307 140.249 174.375 140.497 174.511C140.748 174.646 140.942 174.84 141.077 175.091C141.217 175.339 141.287 175.624 141.287 175.947ZM140.419 175.708C140.415 175.492 140.337 175.321 140.185 175.193C140.034 175.061 139.848 174.995 139.629 174.995C139.421 174.995 139.245 175.059 139.102 175.187C138.962 175.311 138.876 175.484 138.844 175.708H140.419Z" fill="#7A7A7A"/>
<path d="M142.737 174.876C142.844 174.7 142.984 174.562 143.156 174.463C143.331 174.363 143.531 174.313 143.754 174.313V175.193H143.533C143.269 175.193 143.07 175.255 142.934 175.379C142.802 175.502 142.737 175.718 142.737 176.025V177.677H141.899V174.361H142.737V174.876Z" fill="#7A7A7A"/>
<path d="M145.295 175.049V176.654C145.295 176.765 145.321 176.847 145.372 176.899C145.428 176.947 145.52 176.971 145.648 176.971H146.037V177.677H145.51C144.804 177.677 144.451 177.334 144.451 176.648V175.049H144.055V174.361H144.451V173.541H145.295V174.361H146.037V175.049H145.295Z" fill="#7A7A7A"/>
<path d="M146.424 176.007C146.424 175.672 146.49 175.375 146.622 175.115C146.757 174.856 146.939 174.656 147.167 174.517C147.398 174.377 147.655 174.307 147.939 174.307C148.186 174.307 148.402 174.357 148.585 174.457C148.773 174.556 148.923 174.682 149.034 174.834V174.361H149.878V177.677H149.034V177.193C148.927 177.348 148.777 177.478 148.585 177.582C148.398 177.681 148.18 177.731 147.933 177.731C147.653 177.731 147.398 177.659 147.167 177.516C146.939 177.372 146.757 177.171 146.622 176.911C146.49 176.648 146.424 176.346 146.424 176.007ZM149.034 176.019C149.034 175.816 148.994 175.642 148.915 175.498C148.835 175.351 148.727 175.239 148.591 175.163C148.456 175.083 148.31 175.043 148.154 175.043C147.999 175.043 147.855 175.081 147.723 175.157C147.592 175.233 147.484 175.345 147.4 175.492C147.32 175.636 147.28 175.808 147.28 176.007C147.28 176.207 147.32 176.382 147.4 176.534C147.484 176.682 147.592 176.795 147.723 176.875C147.859 176.955 148.003 176.995 148.154 176.995C148.31 176.995 148.456 176.957 148.591 176.881C148.727 176.801 148.835 176.69 148.915 176.546C148.994 176.398 149.034 176.223 149.034 176.019Z" fill="#7A7A7A"/>
</g>
<g opacity="0.5">
<path d="M196.057 183.663C196.057 182.01 197.397 180.67 199.05 180.67H239.458C241.111 180.67 242.452 182.01 242.452 183.663V189.65C242.452 191.303 241.111 192.643 239.458 192.643H199.05C197.397 192.643 196.057 191.303 196.057 189.65V183.663Z" fill="#7A7A7A"/>
<path d="M204.479 188.482H202.158L201.774 189.599H200.547L202.642 183.73H204.003L206.098 189.599H204.863L204.479 188.482ZM204.162 187.542L203.318 185.09L202.475 187.542H204.162Z" fill="black"/>
<path d="M206.598 186.661C206.598 186.084 206.726 185.569 206.982 185.116C207.243 184.657 207.597 184.301 208.042 184.049C208.493 183.792 208.996 183.663 209.553 183.663C210.204 183.663 210.774 183.831 211.264 184.167C211.754 184.503 212.096 184.967 212.291 185.561H210.947C210.813 185.281 210.624 185.071 210.379 184.931C210.14 184.791 209.862 184.721 209.544 184.721C209.205 184.721 208.902 184.802 208.635 184.964C208.373 185.121 208.167 185.345 208.017 185.636C207.872 185.927 207.8 186.269 207.8 186.661C207.8 187.047 207.872 187.388 208.017 187.685C208.167 187.976 208.373 188.203 208.635 188.365C208.902 188.522 209.205 188.6 209.544 188.6C209.862 188.6 210.14 188.53 210.379 188.39C210.624 188.245 210.813 188.032 210.947 187.752H212.291C212.096 188.351 211.754 188.818 211.264 189.154C210.78 189.484 210.209 189.65 209.553 189.65C208.996 189.65 208.493 189.524 208.042 189.272C207.597 189.014 207.243 188.659 206.982 188.205C206.726 187.752 206.598 187.237 206.598 186.661Z" fill="black"/>
<path d="M214.458 184.687V186.157H216.42V187.089H214.458V188.642H216.67V189.599H213.289V183.73H216.67V184.687H214.458Z" fill="black"/>
<path d="M221.981 185.552C221.981 185.866 221.906 186.16 221.756 186.434C221.611 186.708 221.38 186.929 221.063 187.097C220.751 187.265 220.356 187.349 219.878 187.349H218.901V189.599H217.732V183.739H219.878C220.328 183.739 220.712 183.817 221.03 183.974C221.347 184.13 221.583 184.346 221.739 184.62C221.9 184.895 221.981 185.205 221.981 185.552ZM219.827 186.4C220.15 186.4 220.39 186.327 220.545 186.182C220.701 186.031 220.779 185.821 220.779 185.552C220.779 184.981 220.462 184.696 219.827 184.696H218.901V186.4H219.827Z" fill="black"/>
<path d="M226.776 183.739V184.687H225.224V189.599H224.055V184.687H222.502V183.739H226.776Z" fill="black"/>
<path d="M231.202 188.482H228.881L228.497 189.599H227.27L229.365 183.73H230.726L232.821 189.599H231.586L231.202 188.482ZM230.885 187.542L230.042 185.09L229.198 187.542H230.885Z" fill="black"/>
<path d="M236.61 189.599L235.324 187.315H234.773V189.599H233.605V183.739H235.792C236.243 183.739 236.627 183.82 236.944 183.982C237.261 184.139 237.497 184.354 237.653 184.629C237.815 184.897 237.895 185.2 237.895 185.535C237.895 185.922 237.784 186.271 237.561 186.585C237.339 186.893 237.008 187.106 236.568 187.223L237.962 189.599H236.61ZM234.773 186.434H235.75C236.067 186.434 236.304 186.358 236.46 186.207C236.615 186.05 236.693 185.835 236.693 185.561C236.693 185.292 236.615 185.085 236.46 184.939C236.304 184.788 236.067 184.713 235.75 184.713H234.773V186.434Z" fill="black"/>
</g>
<g opacity="0.5">
<path d="M85.4613 180.08C86.7254 177.813 87.357 176.68 88.3019 176.68C89.2467 176.68 89.8783 177.813 91.1424 180.08L91.4697 180.667C91.8289 181.311 92.0085 181.633 92.2878 181.846C92.5672 182.059 92.9164 182.137 93.6148 182.295L94.2494 182.439C96.7038 182.994 97.9301 183.272 98.2224 184.211C98.5137 185.149 97.6776 186.127 96.0044 188.084L95.5714 188.59C95.0965 189.145 94.858 189.424 94.7513 189.767C94.6445 190.111 94.6804 190.482 94.7523 191.224L94.8181 191.899C95.0705 194.51 95.1973 195.815 94.433 196.395C93.6687 196.975 92.5193 196.446 90.2225 195.388L89.6269 195.115C88.9743 194.814 88.6481 194.664 88.3019 194.664C87.9556 194.664 87.6294 194.814 86.9769 195.115L86.3822 195.388C84.0844 196.446 82.935 196.975 82.1717 196.396C81.4065 195.815 81.5332 194.51 81.7856 191.899L81.8515 191.225C81.9233 190.482 81.9592 190.111 81.8515 189.768C81.7457 189.424 81.5072 189.145 81.0323 188.591L80.5993 188.084C78.9261 186.128 78.09 185.15 78.3813 184.211C78.6727 183.272 79.9009 182.993 82.3553 182.439L82.9899 182.295C83.6873 182.137 84.0355 182.059 84.3159 181.846C84.5963 181.633 84.7749 181.311 85.134 180.667L85.4613 180.08Z" fill="#7A7A7A"/>
</g>
<path d="M352.713 338.627L349.851 462.298H344.395L344.742 338.937L352.713 338.627Z" fill="#3E5059"/>
<path d="M372.413 337.254L398.935 462.298H405.011L382.936 337.254H372.413Z" fill="#3E5059"/>
<path d="M322.699 338.626L293.352 462.298H287.275L313.905 338.121L322.699 338.626Z" fill="#3E5059"/>
<path d="M406.851 202.672C406.851 202.672 440.474 200.752 437.112 239.66C433.749 278.566 431.828 317.952 419.34 331.402C406.851 344.852 281.005 345.331 270.438 334.283C259.87 323.238 290.612 323.717 296.377 323.717C302.14 323.717 337.685 327.078 349.213 296.818C360.74 266.557 357.859 200.752 406.851 202.672Z" fill="#3E5059"/>
<path d="M409.007 202.693C409.007 202.693 434.71 207.957 432.307 234.856C429.904 261.754 423.18 308.826 410.692 320.833C398.203 332.843 349.269 335.458 322.792 333.803C292.052 331.881 272.647 326.028 272.647 326.028C272.647 326.028 267.036 329.635 268.737 331.96C270.436 334.283 285.423 343.629 358.084 342.073C430.743 340.515 425.69 329.795 428.707 318.085C431.724 306.373 438.052 243.94 437.174 230.213C436.298 216.486 429.382 205.101 409.007 202.693Z" fill="#263238"/>
<path d="M336.81 88.6128C344.806 85.6376 354.658 88.9017 359.298 96.0615C362.547 101.077 363.298 107.407 366.615 112.378C368.964 115.898 372.439 118.491 375.304 121.607C378.17 124.723 380.53 128.83 379.807 132.999C379.128 136.919 375.814 140.379 376.48 144.302C377.104 147.974 381.024 150.369 381.783 154.018C382.676 158.315 378.535 162.331 374.199 163.005C369.864 163.678 365.546 162.002 361.468 160.383C357.389 158.764 353.037 157.14 348.72 157.924C343.695 158.835 339.86 162.77 335.464 165.37C326.356 170.757 314.004 170.021 305.601 163.59C302.296 161.062 299.423 157.131 300.222 153.048C300.966 149.245 304.634 146.611 305.702 142.886C307.292 137.346 302.684 131.685 303.38 125.964C304.317 118.264 313.804 114.745 317.267 107.804C318.928 104.472 319.075 100.571 320.538 97.1495C322.004 93.7268 325.808 90.6722 329.234 92.1299" fill="#263238"/>
<path d="M333.576 158.627C334.08 155.895 333.196 144.368 333.196 144.368C333.196 144.368 322.978 143.08 322.538 132.651C322.098 122.221 323.136 98.2083 323.136 98.2083L341.941 89.1777L358.352 107.887L358.662 158.457L333.576 158.627Z" fill="#FFBE9D"/>
<path d="M324.473 116.616C324.461 117.352 325.033 117.958 325.749 117.972C326.466 117.984 327.059 117.399 327.071 116.662C327.083 115.926 326.511 115.318 325.796 115.306C325.077 115.291 324.485 115.878 324.473 116.616Z" fill="#263238"/>
<path d="M323.638 114.282C323.803 114.457 324.775 113.637 326.176 113.584C327.574 113.511 328.614 114.24 328.764 114.051C328.837 113.967 328.668 113.646 328.215 113.315C327.769 112.986 327.013 112.677 326.14 112.716C325.268 112.757 324.539 113.131 324.123 113.499C323.698 113.87 323.557 114.204 323.638 114.282Z" fill="#263238"/>
<path d="M339.697 116.618C339.685 117.354 340.257 117.96 340.974 117.974C341.691 117.986 342.284 117.401 342.296 116.664C342.309 115.928 341.736 115.32 341.02 115.308C340.304 115.293 339.711 115.88 339.697 116.618Z" fill="#263238"/>
<path d="M339.143 114.552C339.307 114.727 340.282 113.907 341.681 113.854C343.079 113.781 344.119 114.51 344.269 114.32C344.342 114.236 344.174 113.914 343.719 113.583C343.273 113.254 342.518 112.946 341.645 112.985C340.773 113.025 340.045 113.398 339.628 113.768C339.204 114.139 339.062 114.474 339.143 114.552Z" fill="#263238"/>
<path d="M333.885 126.589C333.889 126.503 333.017 126.378 331.604 126.241C331.246 126.216 330.906 126.153 330.842 125.894C330.754 125.62 330.897 125.203 331.064 124.749C331.385 123.809 331.722 122.825 332.075 121.791C333.479 117.581 334.488 114.125 334.331 114.07C334.173 114.014 332.907 117.382 331.504 121.591C331.167 122.629 330.844 123.619 330.537 124.565C330.408 125.005 330.184 125.508 330.375 126.075C330.475 126.358 330.742 126.554 330.972 126.611C331.203 126.677 331.403 126.672 331.581 126.677C332.999 126.702 333.88 126.674 333.885 126.589Z" fill="#263238"/>
<path d="M333.195 144.369C333.195 144.369 340.029 144.565 346.725 139.941C346.725 139.941 343.544 147.538 333.372 146.929L333.195 144.369Z" fill="#EB996E"/>
<path d="M334.389 130.266C334.549 129.384 335.182 128.603 336.011 128.265C336.586 128.03 337.267 128.008 337.816 128.298C338.365 128.588 338.743 129.22 338.648 129.833C338.542 130.525 337.886 131.029 337.203 131.176C336.519 131.323 335.809 131.185 335.125 131.035C334.937 130.993 334.742 130.948 334.583 130.836C334.426 130.724 334.313 130.526 334.356 130.338" fill="#EB996E"/>
<path d="M337.858 126.533C337.955 126.52 338.125 126.916 338.072 127.596C338.027 128.262 337.7 129.213 336.921 129.95C336.142 130.683 335.172 130.956 334.504 130.962C333.823 130.973 333.439 130.782 333.457 130.686C333.461 130.472 335.094 130.604 336.387 129.383C337.682 128.163 337.644 126.524 337.858 126.533Z" fill="#263238"/>
<path d="M322.278 97.0477C322.835 103.097 328.595 108.196 334.668 108.012C333.722 105.935 332.777 103.859 331.831 101.783C334.348 104.71 336.958 107.711 340.402 109.456C343.846 111.2 348.373 111.394 351.311 108.889C352.267 111.441 352.249 114.268 353.125 116.849C354 119.43 356.062 130.069 358.758 129.663C361.232 129.291 362.987 118.562 363.619 116.141C365.364 109.452 363.177 102.081 358.731 96.7888C353.452 90.5075 345.064 86.9994 336.88 87.5786C333.251 87.8361 329.593 88.8957 326.736 91.1511C324.226 93.1326 322.432 96.0001 321.748 99.1235" fill="#263238"/>
<path d="M308.27 144.033C308.263 144.059 308.02 144.003 307.562 143.872C307.108 143.738 306.437 143.502 305.639 143.066C304.035 142.248 301.847 140.571 300.193 137.728C298.523 134.958 297.64 130.716 299.231 126.589C300.003 124.553 301.284 122.585 303.05 120.994C304.777 119.373 307.091 118.221 309.522 117.715C310.698 117.44 311.828 117.099 312.543 116.283C313.271 115.484 313.607 114.375 313.69 113.285C313.869 111.079 313.004 108.948 312.76 106.785C312.458 104.596 313.003 102.448 313.983 100.771C314.95 99.063 316.416 97.8492 317.858 97.089C319.303 96.3212 320.676 95.8258 321.842 95.3244C323.014 94.8351 323.979 94.3352 324.702 93.8278C326.161 92.8071 326.59 91.8523 326.665 91.9092C326.688 91.9226 326.575 92.1426 326.331 92.5587C326.049 92.9403 325.618 93.5225 324.883 94.0718C324.163 94.636 323.186 95.1912 322.02 95.7225C320.858 96.2658 319.504 96.7986 318.127 97.5694C316.756 98.3356 315.432 99.4775 314.546 101.091C313.654 102.679 313.175 104.659 313.474 106.696C313.708 108.742 314.622 110.882 314.451 113.342C314.365 114.538 314.005 115.818 313.116 116.804C312.218 117.82 310.88 118.194 309.706 118.471C304.945 119.39 301.361 122.995 299.903 126.842C298.363 130.734 299.128 134.747 300.675 137.457C302.205 140.227 304.265 141.921 305.789 142.801C307.322 143.702 308.299 143.955 308.27 144.033Z" fill="#263238"/>
<path d="M376.048 157.747C376.014 157.69 376.932 157.155 378.481 156.04C379.962 154.913 382.317 153.174 383.604 150.062C384.191 148.524 384.444 146.615 383.892 144.761C383.624 143.839 383.137 142.949 382.407 142.25C381.698 141.53 380.719 141.048 379.733 140.46C377.654 139.379 376.008 137.031 375.937 134.405C375.826 131.696 377.515 129.446 378.112 127.038C378.725 124.594 378.109 122.046 376.977 119.946C375.856 117.809 374.242 116.077 372.537 114.631C369.104 111.753 365.534 109.651 363.066 107.193C360.566 104.782 359.168 102.227 358.666 100.352C358.391 99.4183 358.342 98.6581 358.306 98.1537C358.309 97.6434 358.322 97.3785 358.349 97.3785C358.436 97.371 358.363 98.459 358.957 100.262C359.534 102.058 360.956 104.487 363.448 106.794C365.904 109.145 369.464 111.173 373.004 114.082C374.756 115.544 376.466 117.345 377.652 119.585C378.851 121.785 379.543 124.537 378.869 127.225C378.181 129.85 376.582 132.009 376.702 134.378C376.774 136.733 378.172 138.811 380.105 139.845C381.05 140.423 382.087 140.937 382.891 141.762C383.708 142.561 384.236 143.568 384.516 144.582C385.089 146.623 384.776 148.642 384.121 150.267C383.435 151.906 382.406 153.145 381.419 154.106C380.424 155.064 379.462 155.761 378.658 156.291C377.851 156.819 377.202 157.188 376.756 157.426C376.304 157.66 376.061 157.77 376.048 157.747Z" fill="#263238"/>
<path d="M321.936 109.525C323.422 108.393 324.351 106.654 324.843 104.852C325.336 103.05 325.43 101.167 325.521 99.3012C325.548 98.7609 325.469 98.065 324.948 97.9213C324.444 97.7821 324.02 98.3044 323.775 98.7669C321.954 102.196 321.295 106.231 321.933 110.06C322.043 109.957 322.154 109.854 322.266 109.752" fill="#263238"/>
<path d="M295.817 454.881L295.541 441.425L320.744 440.747L321.356 460.429L319.797 460.571C312.852 461.144 284.448 462.997 279.762 461.713C274.533 460.279 295.817 454.881 295.817 454.881Z" fill="#A3A0FF"/>
<g opacity="0.5">
<path d="M312.215 460.476C312.517 458.361 313.635 456.372 315.286 455.016C316.937 453.66 318.994 452.912 321.127 453.025L321.322 460.069L312.215 460.476Z" fill="white"/>
</g>
<g opacity="0.4">
<path d="M285.43 457.89C285.43 457.89 277.983 460.258 278.952 461.469C279.922 462.679 308.696 461.888 321.357 460.428L321.302 459.867L287.746 461.076C287.746 461.076 286.898 457.913 285.43 457.89Z" fill="white"/>
</g>
<path d="M321.698 459.84C321.698 459.851 321.55 459.87 321.265 459.899C320.893 459.931 320.484 459.967 320.023 460.008C318.779 460.096 317.251 460.204 315.448 460.331C311.584 460.577 306.239 460.844 300.332 461.014C294.424 461.18 289.072 461.214 285.2 461.187C283.392 461.162 281.859 461.141 280.614 461.123C280.152 461.108 279.742 461.096 279.368 461.084C279.083 461.072 278.934 461.06 278.934 461.049C278.934 461.039 279.083 461.03 279.368 461.023C279.742 461.017 280.152 461.011 280.614 461.005C281.859 460.996 283.392 460.985 285.198 460.972C289.07 460.943 294.418 460.876 300.323 460.71C306.227 460.542 311.569 460.307 315.436 460.117C317.241 460.027 318.77 459.952 320.016 459.891C320.478 459.872 320.888 459.855 321.262 459.839C321.547 459.828 321.698 459.83 321.698 459.84Z" fill="#3E5059"/>
<path d="M287.767 461.467C287.675 461.482 287.573 460.39 286.851 459.305C286.15 458.206 285.192 457.674 285.241 457.594C285.258 457.518 286.35 457.962 287.107 459.137C287.877 460.303 287.844 461.484 287.767 461.467Z" fill="#3E5059"/>
<path d="M295.098 457.49C295.027 457.536 294.661 457.114 294.276 456.544C293.893 455.975 293.639 455.475 293.709 455.429C293.779 455.381 294.146 455.805 294.531 456.373C294.914 456.944 295.168 457.443 295.098 457.49Z" fill="#3E5059"/>
<path d="M297.108 456.354C297.052 456.419 296.648 456.164 296.204 455.786C295.759 455.407 295.442 455.049 295.497 454.985C295.553 454.921 295.957 455.175 296.403 455.554C296.844 455.931 297.162 456.29 297.108 456.354Z" fill="#3E5059"/>
<path d="M298.33 453.941C298.333 454.025 297.746 454.116 297.019 454.145C296.291 454.173 295.7 454.127 295.697 454.043C295.694 453.959 296.281 453.868 297.007 453.84C297.734 453.811 298.327 453.856 298.33 453.941Z" fill="#3E5059"/>
<path d="M298.729 452.252C298.759 452.326 298.126 452.633 297.273 452.718C296.42 452.808 295.737 452.638 295.752 452.558C295.764 452.472 296.432 452.501 297.241 452.415C298.052 452.334 298.699 452.168 298.729 452.252Z" fill="#3E5059"/>
<path d="M294.178 455.314C294.181 455.349 293.561 455.441 292.559 455.349C292.059 455.302 291.465 455.201 290.824 455.016C290.505 454.913 290.173 454.837 289.826 454.636C289.663 454.533 289.48 454.388 289.411 454.144C289.338 453.903 289.461 453.628 289.639 453.49C291.165 452.646 292.738 453.473 293.335 454.258C293.663 454.657 293.819 455.051 293.894 455.323C293.965 455.599 293.965 455.757 293.947 455.76C293.891 455.783 293.82 455.126 293.172 454.398C292.852 454.042 292.373 453.701 291.764 453.538C291.188 453.384 290.372 453.361 289.838 453.722C289.586 453.919 289.694 454.219 289.984 454.382C290.255 454.547 290.604 454.642 290.906 454.746C291.524 454.94 292.099 455.061 292.586 455.133C293.56 455.28 294.178 455.265 294.178 455.314Z" fill="#3E5059"/>
<path d="M293.763 455.405C293.741 455.423 293.491 455.016 293.546 454.286C293.576 453.926 293.696 453.5 293.956 453.09C294.232 452.723 294.586 452.217 295.282 452.228C295.659 452.265 295.854 452.687 295.801 452.963C295.779 453.247 295.659 453.494 295.546 453.693C295.315 454.104 295.053 454.44 294.808 454.694C294.314 455.204 293.917 455.405 293.899 455.375C293.869 455.336 294.214 455.076 294.646 454.55C294.862 454.289 295.094 453.956 295.297 453.56C295.51 453.211 295.646 452.593 295.237 452.53C294.83 452.502 294.428 452.918 294.19 453.247C293.944 453.605 293.814 453.986 293.76 454.312C293.655 454.975 293.817 455.392 293.763 455.405Z" fill="#3E5059"/>
<path d="M320.994 452.958C320.99 453.014 320.27 452.908 319.136 453.074C318.012 453.231 316.454 453.737 315.119 454.86C313.785 455.985 313.023 457.435 312.679 458.517C312.324 459.609 312.307 460.336 312.25 460.33C312.232 460.33 312.217 460.149 312.235 459.821C312.253 459.495 312.317 459.022 312.473 458.455C312.772 457.328 313.532 455.801 314.923 454.626C316.314 453.454 317.947 452.965 319.109 452.859C319.694 452.802 320.171 452.818 320.496 452.856C320.821 452.896 320.996 452.94 320.994 452.958Z" fill="#3E5059"/>
<path d="M318.094 442.542C318.178 442.539 318.34 444.854 318.455 447.713C318.57 450.573 318.596 452.893 318.51 452.896C318.427 452.899 318.265 450.585 318.15 447.725C318.036 444.866 318.011 442.545 318.094 442.542Z" fill="#3E5059"/>
<path d="M308.976 458.106C308.989 458.185 307.353 458.5 305.306 458.573C303.259 458.652 301.605 458.459 301.612 458.38C301.618 458.292 303.266 458.347 305.295 458.268C307.323 458.196 308.962 458.019 308.976 458.106Z" fill="#3E5059"/>
<path d="M313.914 457.962C313.977 458.022 313.788 458.316 313.631 458.697C313.468 459.077 313.39 459.417 313.303 459.414C313.222 459.416 313.162 459.019 313.348 458.579C313.532 458.139 313.857 457.904 313.914 457.962Z" fill="#3E5059"/>
<path d="M315.711 455.593C315.772 455.652 315.617 455.918 315.364 456.189C315.111 456.46 314.855 456.633 314.794 456.577C314.732 456.52 314.888 456.252 315.141 455.981C315.394 455.71 315.65 455.536 315.711 455.593Z" fill="#3E5059"/>
<path d="M318.349 454.462C318.334 454.547 317.999 454.555 317.632 454.695C317.262 454.827 317.003 455.04 316.936 454.984C316.867 454.939 317.069 454.576 317.526 454.408C317.982 454.239 318.373 454.384 318.349 454.462Z" fill="#3E5059"/>
<path d="M320.229 453.912C320.262 453.99 320.121 454.123 319.913 454.21C319.707 454.297 319.512 454.304 319.479 454.227C319.446 454.149 319.589 454.016 319.795 453.929C320.002 453.84 320.196 453.834 320.229 453.912Z" fill="#3E5059"/>
<path d="M234.953 382.886L240.796 370.761L263.577 381.559L255.217 399.388L253.762 398.809C247.31 396.178 221.142 384.977 217.543 381.711C213.53 378.07 234.953 382.886 234.953 382.886Z" fill="#A3A0FF"/>
<g opacity="0.5">
<path d="M247.042 395.295C248.269 393.546 250.165 392.278 252.252 391.816C254.338 391.353 256.51 391.617 258.362 392.684L255.35 399.053L247.042 395.295Z" fill="white"/>
</g>
<g opacity="0.4">
<path d="M224.326 380.869C224.326 380.869 216.614 379.611 216.931 381.13C217.249 382.647 243.267 394.962 255.219 399.39L255.424 398.863L224.953 384.759C224.953 384.759 225.627 381.553 224.326 380.869Z" fill="white"/>
</g>
<path d="M255.79 399.019C255.785 399.029 255.643 398.978 255.378 398.876C255.031 398.737 254.651 398.585 254.221 398.412C253.073 397.928 251.66 397.333 249.995 396.63C246.437 395.101 241.549 392.921 236.206 390.398C230.862 387.873 226.074 385.482 222.632 383.705C221.031 382.864 219.675 382.152 218.572 381.573C218.166 381.351 217.807 381.154 217.478 380.974C217.229 380.833 217.101 380.755 217.107 380.746C217.111 380.738 217.249 380.797 217.506 380.919C217.843 381.083 218.211 381.263 218.627 381.466C219.742 382.022 221.113 382.706 222.731 383.511C226.196 385.238 230.995 387.596 236.338 390.12C241.678 392.642 246.55 394.851 250.083 396.429C251.734 397.167 253.132 397.791 254.269 398.3C254.69 398.492 255.064 398.662 255.403 398.818C255.659 398.941 255.793 399.01 255.79 399.019Z" fill="#3E5059"/>
<path d="M224.79 385.117C224.701 385.087 225.105 384.068 224.952 382.773C224.822 381.475 224.21 380.567 224.291 380.519C224.34 380.458 225.112 381.35 225.256 382.74C225.416 384.127 224.852 385.165 224.79 385.117Z" fill="#3E5059"/>
<path d="M233.13 384.887C233.046 384.897 232.91 384.354 232.825 383.673C232.74 382.992 232.74 382.431 232.823 382.422C232.907 382.412 233.043 382.955 233.129 383.636C233.213 384.315 233.214 384.876 233.13 384.887Z" fill="#3E5059"/>
<path d="M235.438 384.784C235.36 384.817 235.114 384.407 234.888 383.868C234.662 383.329 234.543 382.867 234.62 382.834C234.698 382.801 234.944 383.211 235.17 383.75C235.396 384.289 235.515 384.751 235.438 384.784Z" fill="#3E5059"/>
<path d="M237.621 383.185C237.586 383.261 237.021 383.077 236.361 382.774C235.7 382.47 235.192 382.161 235.228 382.085C235.264 382.009 235.828 382.193 236.488 382.497C237.149 382.8 237.656 383.109 237.621 383.185Z" fill="#3E5059"/>
<path d="M238.741 381.858C238.733 381.939 238.03 381.925 237.23 381.615C236.43 381.31 235.898 380.848 235.946 380.785C235.996 380.711 236.578 381.042 237.34 381.331C238.098 381.626 238.753 381.771 238.741 381.858Z" fill="#3E5059"/>
<path d="M233.296 382.533C233.282 382.564 232.688 382.367 231.835 381.831C231.41 381.563 230.927 381.204 230.439 380.749C230.201 380.512 229.939 380.295 229.72 379.959C229.622 379.794 229.524 379.581 229.574 379.331C229.617 379.083 229.851 378.893 230.072 378.851C231.816 378.788 232.844 380.238 233.022 381.208C233.133 381.713 233.094 382.135 233.037 382.412C232.977 382.69 232.905 382.831 232.887 382.825C232.827 382.819 233.061 382.202 232.811 381.259C232.687 380.797 232.414 380.274 231.944 379.854C231.5 379.456 230.783 379.067 230.143 379.146C229.828 379.209 229.789 379.525 229.975 379.801C230.143 380.071 230.409 380.313 230.632 380.542C231.096 380.996 231.554 381.364 231.955 381.648C232.759 382.221 233.317 382.488 233.296 382.533Z" fill="#3E5059"/>
<path d="M232.883 382.426C232.855 382.432 232.816 381.956 233.196 381.329C233.384 381.022 233.685 380.696 234.101 380.449C234.514 380.247 235.058 379.957 235.674 380.28C235.993 380.484 235.977 380.949 235.806 381.169C235.658 381.413 235.438 381.579 235.248 381.705C234.857 381.968 234.471 382.148 234.137 382.263C233.465 382.494 233.022 382.494 233.019 382.459C233.01 382.411 233.435 382.335 234.058 382.063C234.369 381.926 234.725 381.735 235.088 381.474C235.435 381.26 235.836 380.77 235.501 380.529C235.15 380.321 234.604 380.508 234.242 380.693C233.862 380.901 233.573 381.183 233.377 381.449C232.98 381.994 232.937 382.438 232.883 382.426Z" fill="#3E5059"/>
<path d="M258.277 392.563C258.247 392.612 257.653 392.192 256.566 391.826C255.493 391.457 253.875 391.204 252.177 391.602C250.478 392.003 249.143 392.95 248.345 393.759C247.536 394.571 247.191 395.212 247.142 395.18C247.126 395.171 247.194 395.004 247.359 394.721C247.522 394.437 247.793 394.044 248.19 393.609C248.966 392.739 250.334 391.722 252.106 391.304C253.878 390.89 255.556 391.19 256.64 391.623C257.187 391.837 257.605 392.067 257.877 392.249C258.15 392.428 258.287 392.548 258.277 392.563Z" fill="#3E5059"/>
<path d="M260.399 381.962C260.475 381.997 259.573 384.135 258.381 386.737C257.19 389.339 256.162 391.419 256.086 391.384C256.009 391.349 256.912 389.212 258.103 386.609C259.294 384.008 260.322 381.926 260.399 381.962Z" fill="#3E5059"/>
<path d="M245.226 391.716C245.202 391.792 243.602 391.333 241.743 390.472C239.882 389.616 238.494 388.696 238.536 388.629C238.581 388.552 240.027 389.347 241.871 390.196C243.713 391.049 245.254 391.632 245.226 391.716Z" fill="#3E5059"/>
<path d="M249.697 393.823C249.726 393.905 249.426 394.08 249.112 394.35C248.795 394.615 248.572 394.882 248.496 394.841C248.422 394.805 248.548 394.424 248.913 394.116C249.278 393.808 249.673 393.745 249.697 393.823Z" fill="#3E5059"/>
<path d="M252.372 392.526C252.4 392.605 252.141 392.773 251.793 392.9C251.444 393.027 251.137 393.066 251.109 392.987C251.08 392.908 251.339 392.74 251.688 392.613C252.036 392.486 252.342 392.447 252.372 392.526Z" fill="#3E5059"/>
<path d="M255.234 392.709C255.182 392.779 254.881 392.632 254.49 392.592C254.101 392.542 253.773 392.616 253.739 392.535C253.697 392.465 254.043 392.23 254.525 392.288C255.006 392.342 255.289 392.649 255.234 392.709Z" fill="#3E5059"/>
<path d="M257.161 393.067C257.155 393.151 256.968 393.206 256.745 393.19C256.521 393.174 256.346 393.093 256.352 393.009C256.358 392.925 256.545 392.87 256.768 392.886C256.991 392.903 257.167 392.983 257.161 393.067Z" fill="#3E5059"/>
<path d="M401.157 206.75L395.798 179.871C391.848 157.87 361.007 156.356 361.007 156.356L336.803 155.964C336.803 155.964 318.86 153.551 307.785 166.037C296.322 178.959 282.245 194.231 282.245 194.231L293 221.279L318.463 200.265C318.463 200.265 315.048 205.814 315.048 212.489C315.048 219.654 322.525 222.96 322.525 222.96L324.816 244.771L317.216 279.987L396.256 276.818C394.713 264.051 390.637 253.116 384.603 243.604L386.071 206.751H401.157V206.75Z" fill="#A3A0FF"/>
<path d="M367.232 176.62C367.286 176.612 367.429 177.226 367.646 178.339C367.896 179.614 368.205 181.19 368.571 183.054C369.375 187.211 370.424 192.629 371.582 198.62C372.736 204.707 373.733 210.226 374.371 214.239C374.689 216.244 374.918 217.872 375.052 219.002C375.176 220.134 375.219 220.761 375.165 220.768C375.113 220.776 374.968 220.162 374.751 219.05C374.501 217.775 374.192 216.199 373.826 214.336C373.022 210.178 371.973 204.76 370.815 198.767C369.661 192.683 368.664 187.162 368.026 183.151C367.708 181.145 367.479 179.516 367.345 178.387C367.221 177.256 367.178 176.627 367.232 176.62Z" fill="#3E5059"/>
<path d="M401.553 205.341C401.554 205.557 395.015 205.754 386.952 205.783C378.885 205.811 372.348 205.66 372.348 205.444C372.346 205.229 378.883 205.031 386.95 205.003C395.014 204.975 401.553 205.126 401.553 205.341Z" fill="#3E5059"/>
<path d="M404.57 229.694C403.008 216.784 400.93 205.777 400.93 205.777H372.947C372.947 205.777 376.422 222.157 375.645 225.956C374.969 229.265 320.737 231.457 306.606 231.679C305.767 231.046 304.543 232.108 303.455 231.161C302.492 230.323 301.686 229.314 301.051 228.196C300.282 226.839 299.331 224.992 299.117 223.817C298.852 222.362 297.001 221.993 296.435 223.202C295.87 224.414 296.507 228.44 299.192 232.333C301.877 236.225 294.839 234.202 292.26 233.514C289.681 232.824 281.608 231.074 280.775 231.719C279.554 232.665 280.32 234.184 282.909 234.811C285.531 235.446 293.138 237.881 292.719 239.261C292.308 240.619 279.23 236.924 279.23 236.924C279.23 236.924 276.559 235.67 276.025 237.248C275.059 240.091 289.243 242.969 290.599 243.21C291.541 243.376 291.139 244.891 290.136 244.657C289.103 244.416 277.176 240.66 276.165 243.547C275.392 245.76 287.81 246.025 289.865 248.215C291.92 250.403 280.465 247.032 279.81 249.179C279.566 249.978 284.329 250.349 291.179 251.311C297.586 252.212 309.499 252.131 312.352 252.066C328.238 252.937 384.39 254.096 396.375 253.249C410.351 252.259 405.107 234.129 404.57 229.694Z" fill="#FFBE9D"/>
<path d="M315.639 207.513C315.538 207.475 315.929 206.1 316.589 203.88C316.923 202.771 317.328 201.451 317.836 200C318.09 199.274 318.37 198.515 318.692 197.737C318.868 197.316 319.09 196.957 319.201 196.608C319.313 196.257 319.355 195.855 319.344 195.448C319.322 194.63 319.114 193.789 318.969 192.967C318.817 192.156 318.672 191.369 318.53 190.605C318.28 189.17 318.047 187.831 317.831 186.599C317.456 184.314 317.276 182.89 317.382 182.869C317.487 182.848 317.858 184.236 318.371 186.493C318.636 187.714 318.925 189.043 319.234 190.468C319.389 191.228 319.551 192.012 319.717 192.82C319.87 193.634 320.093 194.477 320.123 195.429C320.134 195.902 320.088 196.384 319.935 196.851C319.775 197.321 319.539 197.686 319.394 198.033C319.07 198.79 318.779 199.534 318.509 200.245C318.008 201.61 317.541 202.884 317.111 204.054C316.318 206.23 315.74 207.55 315.639 207.513Z" fill="#3E5059"/>
<path d="M348.256 105.431C350.425 108.208 352.716 111.398 352.285 114.895C351.909 117.951 349.468 120.668 349.878 123.719C350.351 127.238 354.434 129.532 354.638 133.076C354.807 136.017 352.276 138.287 350.485 140.626C347.91 143.989 346.623 148.368 347.219 152.562C347.815 156.755 350.354 160.683 354.06 162.734C357.766 164.786 362.57 164.819 366.186 162.615C369.535 160.572 371.605 156.935 372.887 153.226C374.555 148.409 375.014 142.72 372.145 138.506C370.984 136.8 369.288 135.325 368.912 133.296C368.435 130.719 370.264 128.288 370.553 125.683C370.94 122.196 368.534 119.009 365.859 116.738C363.186 114.466 360.055 112.613 358.071 109.72" fill="#263238"/>
<g opacity="0.3">
<path d="M368.151 183.907C369.132 198.899 369.717 212.711 370.006 227.731C372.248 227.478 374.278 227.026 375.645 225.956C376.422 219.554 371.568 200.059 368.151 183.907Z" fill="black"/>
</g>
<path d="M331.678 177.016C331.47 176.99 331.497 175.438 332.02 173.614C332.538 171.788 333.333 170.454 333.523 170.543C333.724 170.633 333.269 172.063 332.77 173.828C332.263 175.589 331.896 177.045 331.678 177.016Z" fill="#5D5AC3"/>
<path d="M315.76 176.971C315.641 177.146 314.579 176.625 313.536 175.634C312.488 174.646 311.912 173.614 312.08 173.486C312.253 173.352 313.073 174.128 314.072 175.068C315.065 176.013 315.884 176.789 315.76 176.971Z" fill="#5D5AC3"/>
<path d="M300.59 189.379C300.529 189.385 300.457 189.244 300.378 188.973L300.719 188.946C300.885 189.589 301.008 191.024 300.719 192.646C300.336 194.933 299.336 196.557 299.158 196.459C298.953 196.364 299.592 194.677 299.951 192.514C300.225 190.971 300.283 189.612 300.378 188.964L300.719 188.938C300.695 189.22 300.651 189.373 300.59 189.379Z" fill="#5D5AC3"/>
<path d="M299.92 204.915C299.842 205.116 298.373 204.731 296.64 204.058C294.905 203.383 293.564 202.673 293.642 202.473C293.72 202.272 295.189 202.657 296.922 203.332C298.656 204.005 299.998 204.715 299.92 204.915Z" fill="#5D5AC3"/>
<path d="M312.729 196.314C312.521 196.281 312.562 194.961 313.044 193.424C313.52 191.886 314.235 190.775 314.425 190.867C314.624 190.959 314.246 192.175 313.788 193.656C313.324 195.135 312.945 196.35 312.729 196.314Z" fill="#5D5AC3"/>
<path d="M326.243 162.246C326.254 162.462 325.124 162.691 323.72 162.757C322.316 162.824 321.17 162.704 321.159 162.489C321.149 162.273 322.279 162.046 323.683 161.979C325.086 161.913 326.233 162.032 326.243 162.246Z" fill="#5D5AC3"/>
<path d="M329.002 191.473C328.87 191.63 327.647 190.725 326.841 189.081C326.023 187.441 326.046 185.921 326.251 185.912C326.475 185.883 326.788 187.238 327.539 188.736C328.273 190.241 329.16 191.313 329.002 191.473Z" fill="#5D5AC3"/>
<path d="M355.587 185.212C355.738 185.362 354.784 186.557 353.364 187.776C351.944 188.997 350.619 189.757 350.494 189.585C350.365 189.41 351.462 188.383 352.857 187.185C354.252 185.989 355.432 185.058 355.587 185.212Z" fill="#5D5AC3"/>
<path d="M342.436 181.08C342.565 181.254 341.732 182.087 340.579 182.942C339.425 183.798 338.386 184.35 338.257 184.177C338.129 184.005 338.961 183.171 340.115 182.315C341.268 181.46 342.309 180.907 342.436 181.08Z" fill="#5D5AC3"/>
<path d="M348.884 170.329C348.791 170.514 347.242 169.89 345.701 168.561C344.153 167.24 343.301 165.803 343.469 165.683C343.647 165.547 344.732 166.711 346.208 167.969C347.676 169.236 348.992 170.133 348.884 170.329Z" fill="#5D5AC3"/>
<path d="M364.018 166.134C364.149 166.306 363.297 167.17 362.118 168.063C360.937 168.958 359.876 169.543 359.746 169.371C359.615 169.201 360.467 168.336 361.648 167.442C362.826 166.549 363.888 165.963 364.018 166.134Z" fill="#5D5AC3"/>
<path d="M376.657 172.13C376.45 172.052 376.796 170.657 377.136 168.938C377.485 167.219 377.703 165.799 377.923 165.807C378.133 165.811 378.261 167.3 377.899 169.09C377.544 170.882 376.852 172.206 376.657 172.13Z" fill="#5D5AC3"/>
<path d="M378.886 186.538C378.741 186.697 377.382 185.69 375.851 184.287C374.32 182.885 373.198 181.62 373.343 181.462C373.488 181.303 374.847 182.31 376.378 183.713C377.909 185.113 379.031 186.38 378.886 186.538Z" fill="#5D5AC3"/>
<path d="M389.106 180.479C388.909 180.395 389.298 179.035 389.976 177.444C390.654 175.852 391.364 174.629 391.562 174.714C391.76 174.798 391.37 176.157 390.693 177.749C390.015 179.34 389.304 180.563 389.106 180.479Z" fill="#5D5AC3"/>
<path d="M389.638 197.79C389.449 197.686 390.103 196.13 391.097 194.314C392.092 192.497 393.052 191.11 393.24 191.213C393.429 191.317 392.775 192.873 391.781 194.689C390.786 196.505 389.826 197.893 389.638 197.79Z" fill="#5D5AC3"/>
<path d="M379.554 200.445C379.382 200.574 378.352 199.498 377.255 198.039C376.157 196.58 375.407 195.292 375.579 195.164C375.751 195.035 376.78 196.111 377.878 197.57C378.975 199.028 379.726 200.315 379.554 200.445Z" fill="#5D5AC3"/>
<path d="M360.523 207.846C360.335 207.758 361.108 205.747 362.575 203.548C364.036 201.343 365.591 199.851 365.745 199.992C365.912 200.139 364.651 201.825 363.225 203.979C361.791 206.128 360.724 207.944 360.523 207.846Z" fill="#5D5AC3"/>
<path d="M346.837 206.469C346.644 206.563 345.698 205.016 344.725 203.013C343.753 201.009 343.121 199.311 343.314 199.216C343.507 199.122 344.453 200.67 345.426 202.674C346.4 204.676 347.032 206.376 346.837 206.469Z" fill="#5D5AC3"/>
<path d="M329.614 202.459C329.757 202.621 328.353 204.081 326.479 205.719C324.605 207.357 322.972 208.555 322.83 208.392C322.688 208.23 324.092 206.771 325.966 205.132C327.838 203.493 329.472 202.297 329.614 202.459Z" fill="#5D5AC3"/>
<path d="M336.158 221.177C335.98 221.309 334.744 219.914 333.133 218.298C331.529 216.674 330.143 215.427 330.276 215.251C330.398 215.081 332.035 216.08 333.687 217.75C335.342 219.413 336.327 221.057 336.158 221.177Z" fill="#5D5AC3"/>
<path d="M348.214 221.741C348.017 221.681 348.421 219.881 349.554 217.931C350.678 215.976 352.036 214.728 352.188 214.869C352.355 215.017 351.306 216.445 350.229 218.32C349.141 220.191 348.427 221.813 348.214 221.741Z" fill="#5D5AC3"/>
<path d="M365.12 223.65C364.972 223.807 363.312 222.647 361.413 221.061C359.512 219.473 358.077 218.045 358.205 217.873C358.334 217.7 359.992 218.859 361.912 220.464C363.831 222.065 365.266 223.493 365.12 223.65Z" fill="#5D5AC3"/>
<path d="M363.639 179.146C363.548 179.333 362.047 178.771 360.474 177.606C358.895 176.448 357.915 175.18 358.067 175.038C358.226 174.884 359.417 175.864 360.936 176.979C362.451 178.102 363.741 178.949 363.639 179.146Z" fill="#5D5AC3"/>
<path d="M339.182 255.845C339.266 256.053 338.049 256.709 336.704 257.705C335.35 258.692 334.362 259.657 334.188 259.515C334.022 259.392 334.796 258.135 336.243 257.077C337.683 256.013 339.114 255.649 339.182 255.845Z" fill="#5D5AC3"/>
<path d="M357.282 263.248C357.08 263.323 356.365 261.885 355.684 260.037C355.003 258.188 354.615 256.63 354.816 256.556C355.018 256.481 355.733 257.919 356.414 259.767C357.095 261.616 357.484 263.174 357.282 263.248Z" fill="#5D5AC3"/>
<path d="M375.55 256.78C375.706 256.928 374.775 258.155 373.47 259.519C372.165 260.882 370.982 261.867 370.827 261.719C370.671 261.571 371.602 260.345 372.907 258.98C374.21 257.616 375.394 256.632 375.55 256.78Z" fill="#5D5AC3"/>
<path d="M389.055 266.624C388.904 266.795 387.69 265.835 385.896 265.488C384.109 265.102 382.615 265.508 382.543 265.291C382.436 265.114 384.013 264.297 386.051 264.723C388.093 265.132 389.223 266.504 389.055 266.624Z" fill="#5D5AC3"/>
<path d="M396.493 273.282C396.493 273.282 293.137 251.631 283.13 256.372C273.123 261.112 226.978 375.176 226.978 375.176L264.131 391.16L304.117 294.239C304.117 294.239 376.479 320.67 389.119 318.045C401.759 315.418 396.493 273.282 396.493 273.282Z" fill="#263238"/>
<path d="M350.297 279.363C348.717 279.89 288.93 304.466 284.717 312.367C280.502 320.267 290.855 451.45 290.855 451.45H324.861L322.753 334.859L389.118 318.045L350.297 279.363Z" fill="#263238"/>
<path d="M389.464 318.311C389.459 318.338 389.121 318.296 388.483 318.191C387.768 318.064 386.844 317.901 385.701 317.697C383.289 317.253 379.806 316.567 375.515 315.655C366.934 313.842 355.118 311.103 342.244 307.413C335.81 305.549 329.731 303.607 324.241 301.72C318.773 299.774 313.871 297.953 309.835 296.226C307.799 295.402 305.99 294.587 304.402 293.865C302.808 293.159 301.448 292.523 300.355 291.965C299.318 291.442 298.482 291.02 297.832 290.693C297.259 290.395 296.964 290.226 296.976 290.202C296.988 290.178 297.307 290.299 297.901 290.55C298.565 290.844 299.421 291.221 300.484 291.689C301.596 292.204 302.971 292.8 304.579 293.466C306.179 294.148 308 294.926 310.044 295.715C314.097 297.373 319.009 299.136 324.476 301.04C329.966 302.885 336.039 304.803 342.461 306.663C355.311 310.348 367.091 313.167 375.636 315.116C379.843 316.065 383.28 316.838 385.764 317.4C386.895 317.661 387.808 317.873 388.516 318.036C389.142 318.191 389.47 318.284 389.464 318.311Z" fill="#3E5059"/>
<path d="M284.731 342.503C284.677 342.507 284.568 341.807 284.416 340.539C284.265 339.116 284.075 337.312 283.848 335.16C283.631 332.833 283.381 330.138 283.105 327.174C282.863 324.182 282.436 320.809 283.09 317.282C283.722 313.724 285.795 310.777 288.053 308.733C290.323 306.648 292.778 305.322 294.855 304.358C296.944 303.399 298.696 302.787 299.903 302.369C301.114 301.959 301.795 301.763 301.813 301.813C301.87 301.952 299.183 302.887 295.093 304.855C293.073 305.87 290.705 307.218 288.543 309.258C286.384 311.271 284.455 314.059 283.855 317.428C283.228 320.788 283.613 324.112 283.821 327.114C284.035 330.084 284.229 332.784 284.397 335.115C284.526 337.275 284.633 339.086 284.717 340.515C284.777 341.79 284.785 342.498 284.731 342.503Z" fill="#3E5059"/>
<path d="M314.561 331.232C314.648 331.035 316.52 331.669 318.742 332.647C320.966 333.625 322.698 334.577 322.611 334.775C322.524 334.972 320.652 334.338 318.429 333.361C316.206 332.382 314.474 331.43 314.561 331.232Z" fill="#3E5059"/>
<path d="M317.561 327.647C317.77 327.557 318.713 329.443 320.268 331.485C321.808 333.54 323.365 334.962 323.221 335.139C323.104 335.305 321.259 334.102 319.646 331.955C318.022 329.818 317.369 327.712 317.561 327.647Z" fill="#3E5059"/>
<path d="M330.614 333.03C330.64 333.048 330.514 333.312 330.09 333.565C329.676 333.833 328.963 334.012 328.119 334.03C327.281 334.072 326.28 333.942 325.294 334.104C324.279 334.234 323.6 335.046 323.604 336.268C323.567 341.25 323.402 345.352 323.181 345.343C322.973 345.333 322.785 341.29 322.826 336.223C322.862 335.575 322.995 334.838 323.468 334.291C323.914 333.732 324.599 333.472 325.177 333.394C326.356 333.252 327.32 333.457 328.124 333.479C329.761 333.646 330.536 332.947 330.614 333.03Z" fill="#3E5059"/>
<path opacity="0.3" d="M322.46 255.693L392.913 261.353L389.903 253.475L323.147 252.507L322.46 255.693Z" fill="black"/>
<path d="M513.133 240.232H97.8311V251.321H120.045L108.595 461.954L114.916 462.298L126.386 251.321H490.481L500.251 462.126H506.589L496.82 251.321H513.133V240.232Z" fill="#263238"/>
<path d="M218.959 174.74L241.989 242.036H346.267L345.498 238.571L303.332 237.267L283.906 174.705L218.959 174.74Z" fill="#263238"/>
<path d="M265.17 206.348C265.859 209.105 264.678 211.807 262.532 212.381C260.387 212.956 258.09 211.186 257.401 208.427C256.713 205.671 257.894 202.969 260.04 202.396C262.184 201.821 264.482 203.59 265.17 206.348Z" fill="white"/>
<path d="M269.777 96.6377H48.1088C44.6722 96.6377 41.8867 93.8522 41.8867 90.4156V37.2221C41.8867 33.7855 44.6722 31 48.1088 31H269.777C273.213 31 275.999 33.7855 275.999 37.2221V90.4156C275.999 93.8503 273.213 96.6377 269.777 96.6377Z" fill="#4842FB"/>
<path d="M207.039 59.8942C207.039 57.7664 208.764 56.0415 210.892 56.0415H262.903C265.03 56.0415 266.755 57.7664 266.755 59.8942V67.5995C266.755 69.7272 265.03 71.4521 262.903 71.4521H210.892C208.764 71.4521 207.039 69.7272 207.039 67.5995V59.8942Z" fill="#D3FF3C"/>
<path d="M217.879 66.0967H214.892L214.398 67.534H212.818L215.515 59.98H217.267L219.964 67.534H218.373L217.879 66.0967ZM217.471 64.8863L216.386 61.7307L215.3 64.8863H217.471Z" fill="black"/>
<path d="M220.606 63.7516C220.606 63.0095 220.771 62.3467 221.101 61.7631C221.437 61.1724 221.892 60.7149 222.465 60.3907C223.045 60.0593 223.694 59.8936 224.41 59.8936C225.248 59.8936 225.982 60.1097 226.613 60.542C227.243 60.9742 227.684 61.5722 227.934 62.3359H226.204C226.033 61.9757 225.789 61.7055 225.474 61.5254C225.166 61.3453 224.808 61.2552 224.399 61.2552C223.962 61.2552 223.572 61.3597 223.228 61.5686C222.891 61.7703 222.626 62.0585 222.433 62.4332C222.247 62.8078 222.154 63.2473 222.154 63.7516C222.154 64.2487 222.247 64.6882 222.433 65.0701C222.626 65.4447 222.891 65.7365 223.228 65.9454C223.572 66.1471 223.962 66.248 224.399 66.248C224.808 66.248 225.166 66.1579 225.474 65.9778C225.789 65.7905 226.033 65.5167 226.204 65.1565H227.934C227.684 65.9274 227.243 66.529 226.613 66.9613C225.99 67.3863 225.255 67.5989 224.41 67.5989C223.694 67.5989 223.045 67.4368 222.465 67.1126C221.892 66.7811 221.437 66.3236 221.101 65.7401C220.771 65.1565 220.606 64.4937 220.606 63.7516Z" fill="black"/>
<path d="M230.723 61.212V63.1032H233.249V64.3028H230.723V66.302H233.571V67.534H229.219V59.98H233.571V61.212H230.723Z" fill="black"/>
<path d="M240.407 62.3251C240.407 62.7286 240.31 63.1068 240.117 63.4598C239.931 63.8129 239.633 64.0974 239.225 64.3136C238.824 64.5297 238.315 64.6378 237.699 64.6378H236.442V67.534H234.938V59.9908H237.699C238.28 59.9908 238.774 60.0917 239.182 60.2934C239.59 60.4951 239.895 60.7725 240.095 61.1255C240.303 61.4786 240.407 61.8784 240.407 62.3251ZM237.635 63.4166C238.05 63.4166 238.358 63.3229 238.559 63.1356C238.759 62.9411 238.86 62.6709 238.86 62.3251C238.86 61.5902 238.451 61.2228 237.635 61.2228H236.442V63.4166H237.635Z" fill="black"/>
<path d="M246.579 59.9908V61.212H244.58V67.534H243.076V61.212H241.077V59.9908H246.579Z" fill="black"/>
<path d="M252.275 66.0967H249.288L248.794 67.534H247.214L249.911 59.98H251.663L254.36 67.534H252.769L252.275 66.0967ZM251.867 64.8863L250.782 61.7307L249.696 64.8863H251.867Z" fill="black"/>
<path d="M259.236 67.534L257.581 64.5945H256.872V67.534H255.368V59.9908H258.183C258.763 59.9908 259.257 60.0953 259.666 60.3042C260.074 60.5059 260.378 60.7833 260.579 61.1363C260.787 61.4822 260.891 61.8712 260.891 62.3035C260.891 62.8006 260.747 63.2509 260.461 63.6543C260.174 64.0506 259.748 64.3244 259.182 64.4757L260.977 67.534H259.236ZM256.872 63.4598H258.129C258.537 63.4598 258.842 63.3626 259.042 63.168C259.243 62.9663 259.343 62.6889 259.343 62.3359C259.343 61.9901 259.243 61.7235 259.042 61.5362C258.842 61.3417 258.537 61.2444 258.129 61.2444H256.872V63.4598Z" fill="black"/>
<path d="M64.6883 55.2814C66.3154 52.3637 67.1283 50.9048 68.3444 50.9048C69.5606 50.9048 70.3735 52.3637 72.0006 55.2814L72.4218 56.0365C72.8841 56.8661 73.1153 57.2809 73.4749 57.5545C73.8345 57.828 74.2839 57.9295 75.1829 58.1324L75.9997 58.3173C79.1588 59.0326 80.7371 59.3896 81.1134 60.5981C81.4884 61.8052 80.4122 63.065 78.2586 65.5834L77.7012 66.2345C77.09 66.9498 76.783 67.3081 76.6456 67.7499C76.5082 68.1929 76.5544 68.6707 76.6469 69.6248L76.7317 70.4942C77.0566 73.855 77.2197 75.5348 76.236 76.2809C75.2522 77.0271 73.7728 76.3464 70.8166 74.9851L70.0499 74.6333C69.21 74.2454 68.7901 74.0528 68.3444 74.0528C67.8988 74.0528 67.4789 74.2454 66.639 74.6333L65.8736 74.9851C62.916 76.3464 61.4366 77.0271 60.4542 76.2822C59.4692 75.5348 59.6323 73.855 59.9572 70.4942L60.042 69.6261C60.1344 68.6707 60.1807 68.1929 60.042 67.7512C59.9058 67.3081 59.5989 66.9498 58.9876 66.2358L58.4303 65.5834C56.2766 63.0663 55.2005 61.8065 55.5755 60.5981C55.9504 59.3896 57.5313 59.0313 60.6905 58.3173L61.5073 58.1324C62.4049 57.9295 62.8531 57.828 63.214 57.5545C63.5748 57.2809 63.8047 56.8661 64.267 56.0365L64.6883 55.2814Z" fill="#D3FF3C"/>
<path d="M109.21 70.6597C109.21 71.461 109.002 72.2161 108.586 72.925C108.185 73.6185 107.584 74.1964 106.783 74.6587C105.997 75.1056 105.064 75.3676 103.986 75.4447V77.317H102.506V75.4215C100.965 75.2828 99.7245 74.8205 98.7844 74.0346C97.8444 73.2332 97.3589 72.1545 97.3281 70.7984H100.796C100.888 71.9079 101.458 72.5783 102.506 72.8094V68.3943C101.397 68.1169 100.503 67.8395 99.8246 67.5621C99.1466 67.2847 98.561 66.8378 98.0678 66.2214C97.5747 65.605 97.3281 64.7651 97.3281 63.7018C97.3281 62.361 97.8059 61.2669 98.7613 60.4193C99.7322 59.5717 100.98 59.0863 102.506 58.963V57.0906H103.986V58.963C105.465 59.0863 106.644 59.5332 107.522 60.3037C108.416 61.0743 108.917 62.1376 109.025 63.4937H105.534C105.488 63.0468 105.326 62.6616 105.049 62.3379C104.787 61.9989 104.432 61.76 103.986 61.6213V65.9902C105.141 66.283 106.051 66.5681 106.713 66.8455C107.391 67.1075 107.977 67.5467 108.47 68.1631C108.963 68.7642 109.21 69.5963 109.21 70.6597ZM100.703 63.54C100.703 64.0485 100.857 64.4646 101.165 64.7882C101.474 65.0964 101.92 65.3507 102.506 65.551V61.552C101.951 61.629 101.512 61.8371 101.188 62.1761C100.865 62.5152 100.703 62.9698 100.703 63.54ZM103.986 72.8557C104.571 72.7478 105.026 72.5089 105.349 72.1391C105.688 71.7692 105.858 71.3223 105.858 70.7984C105.858 70.2898 105.696 69.8814 105.372 69.5732C105.049 69.265 104.587 69.0107 103.986 68.8104V72.8557Z" fill="white"/>
<path d="M118.007 62.8927C118.084 61.3517 118.624 60.165 119.625 59.3329C120.642 58.4853 121.975 58.0615 123.624 58.0615C124.749 58.0615 125.712 58.2618 126.514 58.6625C127.315 59.0478 127.916 59.5794 128.317 60.2575C128.733 60.9202 128.941 61.6753 128.941 62.5229C128.941 63.4937 128.687 64.3182 128.178 64.9963C127.685 65.6589 127.092 66.1058 126.398 66.337V66.4294C127.292 66.7068 127.985 67.2 128.479 67.9089C128.987 68.6178 129.241 69.527 129.241 70.6365C129.241 71.5612 129.026 72.3857 128.594 73.1099C128.178 73.8342 127.554 74.4044 126.722 74.8205C125.905 75.2212 124.919 75.4215 123.763 75.4215C122.022 75.4215 120.604 74.9823 119.51 74.1039C118.416 73.2255 117.838 71.931 117.776 70.2205H120.92C120.951 70.9756 121.205 71.5843 121.683 72.0466C122.176 72.4935 122.846 72.717 123.694 72.717C124.48 72.717 125.081 72.5012 125.497 72.0697C125.928 71.6228 126.144 71.0526 126.144 70.3592C126.144 69.4345 125.851 68.7719 125.266 68.3712C124.68 67.9705 123.771 67.7702 122.538 67.7702H121.867V65.1118H122.538C124.726 65.1118 125.82 64.3798 125.82 62.9158C125.82 62.2532 125.62 61.7369 125.219 61.3671C124.834 60.9972 124.272 60.8123 123.532 60.8123C122.808 60.8123 122.245 61.0126 121.844 61.4133C121.459 61.7986 121.236 62.2917 121.174 62.8927H118.007Z" fill="white"/>
<path d="M132.816 71.6536C134.295 70.4208 135.474 69.396 136.353 68.5792C137.231 67.7471 137.963 66.8841 138.549 65.9902C139.134 65.0964 139.427 64.218 139.427 63.355C139.427 62.5691 139.242 61.9527 138.872 61.5058C138.502 61.0588 137.932 60.8354 137.162 60.8354C136.391 60.8354 135.798 61.0974 135.382 61.6213C134.966 62.1299 134.75 62.8311 134.735 63.7249H131.591C131.652 61.8756 132.2 60.4732 133.232 59.5178C134.28 58.5623 135.605 58.0846 137.208 58.0846C138.965 58.0846 140.313 58.5546 141.253 59.4947C142.193 60.4193 142.663 61.6445 142.663 63.1701C142.663 64.3721 142.34 65.5202 141.692 66.6144C141.045 67.7085 140.305 68.664 139.473 69.4808C138.641 70.2821 137.555 71.253 136.214 72.3934H143.033V75.0748H131.614V72.6707L132.816 71.6536Z" fill="white"/>
<path d="M146.875 75.4678C146.29 75.4678 145.804 75.2906 145.419 74.9361C145.049 74.5662 144.864 74.1116 144.864 73.5723C144.864 73.0329 145.049 72.586 145.419 72.2315C145.804 71.8617 146.29 71.6768 146.875 71.6768C147.446 71.6768 147.916 71.8617 148.286 72.2315C148.655 72.586 148.84 73.0329 148.84 73.5723C148.84 74.1116 148.655 74.5662 148.286 74.9361C147.916 75.2906 147.446 75.4678 146.875 75.4678Z" fill="white"/>
<path d="M151.077 66.6606C151.077 63.9946 151.555 61.9064 152.51 60.3962C153.481 58.886 155.084 58.1308 157.318 58.1308C159.553 58.1308 161.148 58.886 162.103 60.3962C163.074 61.9064 163.56 63.9946 163.56 66.6606C163.56 69.3421 163.074 71.4456 162.103 72.9713C161.148 74.4969 159.553 75.2597 157.318 75.2597C155.084 75.2597 153.481 74.4969 152.51 72.9713C151.555 71.4456 151.077 69.3421 151.077 66.6606ZM160.37 66.6606C160.37 65.5202 160.293 64.5648 160.139 63.7942C160 63.0083 159.707 62.3688 159.26 61.8756C158.829 61.3825 158.181 61.1359 157.318 61.1359C156.455 61.1359 155.8 61.3825 155.354 61.8756C154.922 62.3688 154.629 63.0083 154.475 63.7942C154.336 64.5648 154.267 65.5202 154.267 66.6606C154.267 67.8318 154.336 68.8181 154.475 69.6194C154.614 70.4054 154.907 71.0449 155.354 71.5381C155.8 72.0158 156.455 72.2547 157.318 72.2547C158.181 72.2547 158.836 72.0158 159.283 71.5381C159.73 71.0449 160.023 70.4054 160.162 69.6194C160.3 68.8181 160.37 67.8318 160.37 66.6606Z" fill="white"/>
<path d="M166.021 66.6606C166.021 63.9946 166.499 61.9064 167.454 60.3962C168.425 58.886 170.028 58.1308 172.263 58.1308C174.497 58.1308 176.092 58.886 177.048 60.3962C178.018 61.9064 178.504 63.9946 178.504 66.6606C178.504 69.3421 178.018 71.4456 177.048 72.9713C176.092 74.4969 174.497 75.2597 172.263 75.2597C170.028 75.2597 168.425 74.4969 167.454 72.9713C166.499 71.4456 166.021 69.3421 166.021 66.6606ZM175.314 66.6606C175.314 65.5202 175.237 64.5648 175.083 63.7942C174.944 63.0083 174.651 62.3688 174.204 61.8756C173.773 61.3825 173.126 61.1359 172.263 61.1359C171.4 61.1359 170.745 61.3825 170.298 61.8756C169.866 62.3688 169.573 63.0083 169.419 63.7942C169.281 64.5648 169.211 65.5202 169.211 66.6606C169.211 67.8318 169.281 68.8181 169.419 69.6194C169.558 70.4054 169.851 71.0449 170.298 71.5381C170.745 72.0158 171.4 72.2547 172.263 72.2547C173.126 72.2547 173.78 72.0158 174.227 71.5381C174.674 71.0449 174.967 70.4054 175.106 69.6194C175.244 68.8181 175.314 67.8318 175.314 66.6606Z" fill="white"/>
<path d="M180.965 66.6606C180.965 63.9946 181.443 61.9064 182.398 60.3962C183.369 58.886 184.972 58.1308 187.207 58.1308C189.441 58.1308 191.036 58.886 191.992 60.3962C192.962 61.9064 193.448 63.9946 193.448 66.6606C193.448 69.3421 192.962 71.4456 191.992 72.9713C191.036 74.4969 189.441 75.2597 187.207 75.2597C184.972 75.2597 183.369 74.4969 182.398 72.9713C181.443 71.4456 180.965 69.3421 180.965 66.6606ZM190.258 66.6606C190.258 65.5202 190.181 64.5648 190.027 63.7942C189.888 63.0083 189.595 62.3688 189.148 61.8756C188.717 61.3825 188.07 61.1359 187.207 61.1359C186.344 61.1359 185.689 61.3825 185.242 61.8756C184.81 62.3688 184.517 63.0083 184.363 63.7942C184.225 64.5648 184.155 65.5202 184.155 66.6606C184.155 67.8318 184.225 68.8181 184.363 69.6194C184.502 70.4054 184.795 71.0449 185.242 71.5381C185.689 72.0158 186.344 72.2547 187.207 72.2547C188.07 72.2547 188.725 72.0158 189.171 71.5381C189.618 71.0449 189.911 70.4054 190.05 69.6194C190.189 68.8181 190.258 67.8318 190.258 66.6606Z" fill="white"/>
<path d="M102.954 52.19H101.875L99.4328 48.4992V52.19H98.354V46.804H99.4328L101.875 50.5026V46.804H102.954V52.19Z" fill="#D3FF3C"/>
<path d="M108.05 47.9213V52.19H106.964V51.6507C106.825 51.8356 106.643 51.982 106.417 52.0899C106.196 52.1926 105.954 52.244 105.692 52.244C105.358 52.244 105.063 52.1746 104.806 52.0359C104.549 51.8921 104.346 51.6841 104.197 51.4118C104.054 51.1344 103.982 50.8057 103.982 50.4255V47.9213H105.06V50.2714C105.06 50.6105 105.145 50.8724 105.315 51.0574C105.484 51.2372 105.715 51.327 106.008 51.327C106.306 51.327 106.54 51.2372 106.709 51.0574C106.879 50.8724 106.964 50.6105 106.964 50.2714V47.9213H108.05Z" fill="#D3FF3C"/>
<path d="M113.083 49.9632C113.083 50.1173 113.072 50.256 113.052 50.3793H109.931C109.957 50.6875 110.065 50.9289 110.255 51.1036C110.445 51.2782 110.679 51.3656 110.956 51.3656C111.357 51.3656 111.642 51.1935 111.811 50.8493H112.975C112.851 51.2603 112.615 51.5993 112.266 51.8664C111.917 52.1284 111.488 52.2594 110.979 52.2594C110.568 52.2594 110.198 52.1695 109.87 51.9897C109.546 51.8048 109.292 51.5454 109.107 51.2115C108.927 50.8776 108.837 50.4923 108.837 50.0557C108.837 49.6139 108.927 49.2261 109.107 48.8922C109.286 48.5583 109.538 48.3014 109.862 48.1216C110.185 47.9419 110.558 47.852 110.979 47.852C111.385 47.852 111.747 47.9393 112.066 48.1139C112.389 48.2886 112.638 48.5377 112.813 48.8614C112.993 49.1798 113.083 49.5471 113.083 49.9632ZM111.965 49.655C111.96 49.3776 111.86 49.1567 111.665 48.9923C111.47 48.8228 111.231 48.7381 110.948 48.7381C110.681 48.7381 110.455 48.8203 110.27 48.9846C110.09 49.1439 109.98 49.3673 109.939 49.655H111.965Z" fill="#D3FF3C"/>
<path d="M115.65 51.1961L116.729 47.9213H117.877L116.297 52.19H114.987L113.415 47.9213H114.571L115.65 51.1961Z" fill="#D3FF3C"/>
<path d="M118.205 50.0403C118.205 49.6088 118.29 49.2261 118.46 48.8922C118.634 48.5583 118.868 48.3014 119.161 48.1216C119.459 47.9419 119.79 47.852 120.155 47.852C120.473 47.852 120.751 47.9162 120.987 48.0446C121.228 48.173 121.421 48.3348 121.565 48.53V47.9213H122.651V52.19H121.565V51.5659C121.426 51.7663 121.233 51.9332 120.987 52.0668C120.745 52.1952 120.465 52.2594 120.147 52.2594C119.787 52.2594 119.459 52.1669 119.161 51.982C118.868 51.7971 118.634 51.5377 118.46 51.2038C118.29 50.8647 118.205 50.4769 118.205 50.0403ZM121.565 50.0557C121.565 49.7937 121.513 49.5702 121.411 49.3853C121.308 49.1952 121.169 49.0514 120.995 48.9538C120.82 48.8511 120.632 48.7997 120.432 48.7997C120.232 48.7997 120.047 48.8485 119.877 48.9461C119.708 49.0437 119.569 49.1875 119.461 49.3776C119.358 49.5625 119.307 49.7834 119.307 50.0403C119.307 50.2971 119.358 50.5231 119.461 50.7183C119.569 50.9084 119.708 51.0548 119.877 51.1575C120.052 51.2603 120.237 51.3116 120.432 51.3116C120.632 51.3116 120.82 51.2628 120.995 51.1652C121.169 51.0625 121.308 50.9187 121.411 50.7337C121.513 50.5437 121.565 50.3177 121.565 50.0557Z" fill="#D3FF3C"/>
<path d="M127.436 52.2594C127.025 52.2594 126.656 52.1695 126.327 51.9897C125.998 51.8048 125.739 51.5454 125.549 51.2115C125.364 50.8776 125.271 50.4923 125.271 50.0557C125.271 49.619 125.366 49.2338 125.556 48.8999C125.751 48.566 126.016 48.3091 126.35 48.1293C126.684 47.9444 127.056 47.852 127.467 47.852C127.878 47.852 128.251 47.9444 128.584 48.1293C128.918 48.3091 129.18 48.566 129.37 48.8999C129.566 49.2338 129.663 49.619 129.663 50.0557C129.663 50.4923 129.563 50.8776 129.363 51.2115C129.167 51.5454 128.9 51.8048 128.561 51.9897C128.227 52.1695 127.852 52.2594 127.436 52.2594ZM127.436 51.3193C127.632 51.3193 127.814 51.2731 127.983 51.1806C128.158 51.083 128.297 50.9392 128.4 50.7492C128.502 50.5591 128.554 50.3279 128.554 50.0557C128.554 49.6499 128.446 49.3391 128.23 49.1233C128.019 48.9024 127.76 48.792 127.452 48.792C127.144 48.792 126.884 48.9024 126.674 49.1233C126.468 49.3391 126.365 49.6499 126.365 50.0557C126.365 50.4615 126.465 50.7748 126.666 50.9957C126.871 51.2115 127.128 51.3193 127.436 51.3193Z" fill="#D3FF3C"/>
<path d="M132.412 48.8074H131.664V52.19H130.57V48.8074H130.085V47.9213H130.57V47.7056C130.57 47.1816 130.719 46.7963 131.017 46.5498C131.315 46.3032 131.764 46.1876 132.365 46.203V47.1122C132.103 47.1071 131.921 47.1508 131.818 47.2432C131.716 47.3357 131.664 47.5026 131.664 47.7441V47.9213H132.412V48.8074Z" fill="#D3FF3C"/>
<path d="M137.079 49.9632C137.079 50.1173 137.069 50.256 137.048 50.3793H133.927C133.953 50.6875 134.061 50.9289 134.251 51.1036C134.441 51.2782 134.675 51.3656 134.952 51.3656C135.353 51.3656 135.638 51.1935 135.808 50.8493H136.971C136.848 51.2603 136.611 51.5993 136.262 51.8664C135.913 52.1284 135.484 52.2594 134.975 52.2594C134.564 52.2594 134.195 52.1695 133.866 51.9897C133.542 51.8048 133.288 51.5454 133.103 51.2115C132.923 50.8776 132.833 50.4923 132.833 50.0557C132.833 49.6139 132.923 49.2261 133.103 48.8922C133.283 48.5583 133.534 48.3014 133.858 48.1216C134.182 47.9419 134.554 47.852 134.975 47.852C135.381 47.852 135.743 47.9393 136.062 48.1139C136.385 48.2886 136.635 48.5377 136.809 48.8614C136.989 49.1798 137.079 49.5471 137.079 49.9632ZM135.962 49.655C135.957 49.3776 135.856 49.1567 135.661 48.9923C135.466 48.8228 135.227 48.7381 134.945 48.7381C134.677 48.7381 134.451 48.8203 134.266 48.9846C134.087 49.1439 133.976 49.3673 133.935 49.655H135.962Z" fill="#D3FF3C"/>
<path d="M138.945 48.584C139.084 48.3579 139.264 48.1807 139.484 48.0523C139.71 47.9239 139.967 47.8597 140.255 47.8597V48.9923H139.97C139.631 48.9923 139.374 49.072 139.199 49.2312C139.03 49.3904 138.945 49.6678 138.945 50.0634V52.19H137.866V47.9213H138.945V48.584Z" fill="#D3FF3C"/>
<path d="M142.238 48.8074V50.8724C142.238 51.0163 142.271 51.1216 142.338 51.1884C142.41 51.25 142.528 51.2808 142.692 51.2808H143.193V52.19H142.515C141.606 52.19 141.151 51.7483 141.151 50.8647V48.8074H140.643V47.9213H141.151V46.8657H142.238V47.9213H143.193V48.8074H142.238Z" fill="#D3FF3C"/>
<path d="M143.691 50.0403C143.691 49.6088 143.776 49.2261 143.946 48.8922C144.12 48.5583 144.354 48.3014 144.647 48.1216C144.945 47.9419 145.276 47.852 145.641 47.852C145.959 47.852 146.237 47.9162 146.473 48.0446C146.715 48.173 146.907 48.3348 147.051 48.53V47.9213H148.137V52.19H147.051V51.5659C146.912 51.7663 146.72 51.9332 146.473 52.0668C146.232 52.1952 145.952 52.2594 145.633 52.2594C145.274 52.2594 144.945 52.1669 144.647 51.982C144.354 51.7971 144.12 51.5377 143.946 51.2038C143.776 50.8647 143.691 50.4769 143.691 50.0403ZM147.051 50.0557C147.051 49.7937 147 49.5702 146.897 49.3853C146.794 49.1952 146.655 49.0514 146.481 48.9538C146.306 48.8511 146.119 48.7997 145.918 48.7997C145.718 48.7997 145.533 48.8485 145.364 48.9461C145.194 49.0437 145.055 49.1875 144.947 49.3776C144.845 49.5625 144.793 49.7834 144.793 50.0403C144.793 50.2971 144.845 50.5231 144.947 50.7183C145.055 50.9084 145.194 51.0548 145.364 51.1575C145.538 51.2603 145.723 51.3116 145.918 51.3116C146.119 51.3116 146.306 51.2628 146.481 51.1652C146.655 51.0625 146.794 50.9187 146.897 50.7337C147 50.5437 147.051 50.3177 147.051 50.0557Z" fill="#D3FF3C"/>
</svg>
