<svg width="545" height="471" viewBox="0 0 545 471" fill="none" xmlns="http://www.w3.org/2000/svg">
<g clip-path="url(#clip0_575_3347)">
<path d="M474.134 180.528C477.143 180.528 488.563 180.528 491.572 180.528C511.168 180.528 527.054 200.557 527.054 225.264C527.054 249.97 511.168 270 491.572 270C488.563 270 477.143 270 474.134 270C454.538 270 438.652 249.971 438.652 225.264C438.652 200.557 454.538 180.528 474.134 180.528Z" fill="#252525" stroke="#303030" stroke-width="1.1584" stroke-miterlimit="10" stroke-linecap="round" stroke-linejoin="round"/>
<path d="M474.134 269.999C493.73 269.999 509.616 249.97 509.616 225.263C509.616 200.556 493.73 180.527 474.134 180.527C454.538 180.527 438.652 200.556 438.652 225.263C438.652 249.97 454.538 269.999 474.134 269.999Z" fill="#303030" stroke="#252525" stroke-width="1.1584" stroke-miterlimit="10" stroke-linecap="round" stroke-linejoin="round"/>
<path d="M470.042 254.039C481.932 254.039 491.572 241.155 491.572 225.263C491.572 209.371 481.932 196.488 470.042 196.488C458.151 196.488 448.512 209.371 448.512 225.263C448.512 241.155 458.151 254.039 470.042 254.039Z" fill="#303030" stroke="#303030" stroke-width="1.1584" stroke-miterlimit="10" stroke-linecap="round" stroke-linejoin="round"/>
<path d="M448.518 225.263C448.518 226.084 448.539 226.895 448.605 227.696C448.93 232.992 450.329 237.867 452.519 241.952C453.354 243.533 454.318 245.005 455.402 246.327C459.23 251.112 464.38 254.035 470.039 254.035C476.967 254.035 483.125 249.67 487.05 242.883C487.917 241.411 488.676 239.819 489.294 238.127C490.562 234.784 491.343 231.06 491.517 227.125C491.56 226.514 491.571 225.893 491.571 225.263C491.571 224.252 491.527 223.25 491.452 222.26C491.116 217.855 490.032 213.74 488.373 210.156C487.603 208.494 486.714 206.953 485.705 205.541C481.791 199.964 476.219 196.491 470.039 196.491C463.578 196.491 457.777 200.305 453.841 206.342C452.908 207.753 452.085 209.275 451.39 210.907C449.84 214.471 448.864 218.515 448.604 222.84C448.539 223.641 448.518 224.442 448.518 225.263ZM454.231 213.45L462.622 220.978C462.471 221.518 462.351 222.079 462.254 222.66L452.214 222.79C452.442 219.436 453.147 216.283 454.231 213.45ZM462.146 202.808L465.615 215.682C465.398 215.892 465.192 216.112 464.997 216.343L456.562 208.784C458.113 206.312 460.01 204.27 462.146 202.808ZM472.283 200.456L470.136 212.348L466.981 200.625C467.968 200.375 468.998 200.255 470.038 200.255C470.798 200.256 471.547 200.325 472.283 200.456ZM483.202 208.284L475.872 216.312C475.579 215.962 475.254 215.642 474.918 215.351L477.282 202.377C479.536 203.769 481.554 205.791 483.202 208.284ZM487.841 222.31L478.593 222.44C478.518 222.01 478.431 221.589 478.322 221.179L485.705 213.081C486.823 215.872 487.57 218.986 487.841 222.31ZM486.389 235.524L478.528 228.466C478.603 228.086 478.668 227.696 478.723 227.295L487.917 227.164C487.766 230.128 487.234 232.941 486.389 235.524ZM479.363 246.626L475.981 234.072C476.155 233.862 476.328 233.642 476.48 233.412L484.307 240.42C482.951 242.892 481.271 245.004 479.363 246.626ZM468.596 250.18L471.004 236.946C471.112 236.936 471.221 236.936 471.318 236.926L474.69 249.419C473.205 249.98 471.643 250.271 470.038 250.271C469.551 250.271 469.074 250.24 468.596 250.18ZM457.874 243.623L465.746 234.984C465.822 235.054 465.908 235.114 465.985 235.194L463.556 248.578C461.441 247.437 459.512 245.746 457.874 243.623ZM452.204 227.645L462.2 227.516C462.34 228.577 462.601 229.578 462.937 230.519L455.11 239.098C453.516 235.764 452.485 231.86 452.204 227.645Z" fill="#303030" stroke="white" stroke-width="1.1584" stroke-miterlimit="10" stroke-linecap="round" stroke-linejoin="round"/>
<path d="M474.133 225.263C474.133 228.034 472.523 230.279 470.536 230.279C468.549 230.279 466.938 228.034 466.938 225.263C466.938 222.493 468.549 220.248 470.536 220.248C472.523 220.248 474.133 222.493 474.133 225.263Z" fill="#4842FB" stroke="#303030" stroke-width="1.1584" stroke-miterlimit="10" stroke-linecap="round" stroke-linejoin="round"/>
<path d="M285.525 180.528C288.533 180.528 299.954 180.528 302.962 180.528C322.559 180.528 338.444 200.557 338.444 225.264C338.444 249.97 322.559 269.999 302.962 269.999C299.954 269.999 288.533 269.999 285.525 269.999C265.928 269.999 250.043 249.971 250.043 225.264C250.042 200.557 265.928 180.528 285.525 180.528Z" fill="#252525" stroke="#303030" stroke-width="1.1584" stroke-miterlimit="10" stroke-linecap="round" stroke-linejoin="round"/>
<path d="M285.525 269.998C305.121 269.998 321.006 249.97 321.006 225.263C321.006 200.556 305.121 180.527 285.525 180.527C265.929 180.527 250.043 200.556 250.043 225.263C250.043 249.97 265.929 269.998 285.525 269.998Z" fill="#303030" stroke="#303030" stroke-width="1.1584" stroke-miterlimit="10" stroke-linecap="round" stroke-linejoin="round"/>
<path d="M281.433 254.037C293.324 254.037 302.963 241.154 302.963 225.262C302.963 209.369 293.324 196.486 281.433 196.486C269.543 196.486 259.903 209.369 259.903 225.262C259.903 241.154 269.543 254.037 281.433 254.037Z" fill="#303030" stroke="#303030" stroke-width="1.1584" stroke-miterlimit="10" stroke-linecap="round" stroke-linejoin="round"/>
<path d="M259.908 225.264C259.908 226.084 259.93 226.895 259.995 227.696C260.321 232.992 261.719 237.868 263.909 241.952C264.744 243.534 265.709 245.006 266.793 246.327C270.62 251.113 275.77 254.036 281.43 254.036C288.358 254.036 294.516 249.671 298.44 242.884C299.308 241.412 300.067 239.82 300.685 238.128C301.953 234.784 302.733 231.06 302.907 227.125C302.95 226.515 302.961 225.894 302.961 225.264C302.961 224.253 302.918 223.251 302.842 222.26C302.506 217.855 301.422 213.741 299.763 210.156C298.993 208.495 298.104 206.953 297.096 205.541C293.182 199.965 287.609 196.491 281.429 196.491C274.967 196.491 269.167 200.305 265.231 206.342C264.298 207.754 263.474 209.275 262.78 210.907C261.23 214.471 260.254 218.515 259.994 222.84C259.93 223.642 259.908 224.443 259.908 225.264ZM265.622 213.45L274.014 220.978C273.862 221.519 273.743 222.079 273.645 222.66L263.606 222.791C263.834 219.437 264.538 216.284 265.622 213.45ZM273.537 202.808L277.006 215.683C276.789 215.893 276.584 216.113 276.388 216.343L267.953 208.785C269.504 206.312 271.401 204.27 273.537 202.808ZM283.675 200.456L281.528 212.349L278.372 200.626C279.359 200.376 280.389 200.255 281.43 200.255C282.189 200.256 282.937 200.326 283.675 200.456ZM294.592 208.284L287.263 216.313C286.97 215.962 286.645 215.643 286.309 215.351L288.673 202.377C290.928 203.77 292.944 205.792 294.592 208.284ZM299.233 222.31L289.985 222.441C289.909 222.011 289.822 221.59 289.714 221.18L297.097 213.081C298.213 215.873 298.962 218.987 299.233 222.31ZM297.78 235.525L289.92 228.467C289.996 228.086 290.061 227.696 290.115 227.295L299.309 227.165C299.157 230.129 298.626 232.941 297.78 235.525ZM290.754 246.627L287.372 234.073C287.545 233.863 287.718 233.643 287.87 233.412L295.698 240.42C294.343 242.893 292.662 245.005 290.754 246.627ZM279.988 250.181L282.395 236.946C282.503 236.936 282.612 236.936 282.709 236.926L286.081 249.42C284.595 249.981 283.034 250.271 281.43 250.271C280.942 250.271 280.465 250.241 279.988 250.181ZM269.265 243.623L277.137 234.984C277.212 235.054 277.299 235.115 277.375 235.194L274.947 248.579C272.832 247.438 270.902 245.746 269.265 243.623ZM263.595 227.646L273.591 227.516C273.732 228.577 273.993 229.578 274.329 230.52L266.501 239.099C264.907 235.765 263.877 231.861 263.595 227.646Z" fill="#303030" stroke="white" stroke-width="1.1584" stroke-miterlimit="10" stroke-linecap="round" stroke-linejoin="round"/>
<path d="M286.733 225.263C286.733 228.033 285.122 230.279 283.135 230.279C281.149 230.279 279.538 228.033 279.538 225.263C279.538 222.493 281.148 220.247 283.135 220.247C285.122 220.247 286.733 222.493 286.733 225.263Z" fill="#4842FB" stroke="#303030" stroke-width="1.1584" stroke-miterlimit="10" stroke-linecap="round" stroke-linejoin="round"/>
<path d="M368.165 64.331L363.25 64.2244C361.568 60.316 359.784 57.1257 352.578 56.4647C341.058 55.4159 289.249 54.9263 281.107 55.4847C274.137 55.9712 272.509 58.6587 270.16 62.2721L265.333 62.174C268.841 57.0485 269.758 53.0211 278.55 52.3485C287.35 51.6766 343.244 51.9979 355.662 53.1254C364.88 53.9664 365.86 58.8417 368.165 64.331Z" fill="#303030"/>
<path d="M272.597 61.9419L267.695 62.3118C265.642 58.5848 263.558 55.5823 256.321 55.6224C244.754 55.695 202.633 60.2267 194.583 61.5712C187.693 62.7303 186.333 65.5638 184.345 69.3873L179.531 69.7572C182.525 64.3158 183.049 60.2189 191.734 58.6976C200.427 57.1762 246.596 52.0808 259.065 52.0005C268.322 51.9449 269.771 56.702 272.597 61.9419Z" fill="#303030"/>
<path d="M140.445 219.031H213.198C213.198 219.031 218.233 169.402 168.278 169.402C139.782 169.402 129.353 196.704 130.668 219.031H140.445Z" fill="#494949" stroke="#303030" stroke-width="1.1584" stroke-miterlimit="10" stroke-linecap="round" stroke-linejoin="round"/>
<path d="M172.76 178.928C151.339 178.928 145.389 204.343 145.389 219.031" stroke="#868686" stroke-width="1.1584" stroke-miterlimit="10" stroke-linecap="round" stroke-linejoin="round"/>
<path d="M168.654 202.734C169.831 202.734 174.302 202.734 175.48 202.734C183.151 202.734 189.37 210.575 189.37 220.247C189.37 229.919 183.151 237.76 175.48 237.76C174.302 237.76 169.831 237.76 168.654 237.76C160.983 237.76 154.764 229.919 154.764 220.247C154.764 210.575 160.982 202.734 168.654 202.734Z" fill="#303030" stroke="#303030" stroke-width="1.1584" stroke-miterlimit="10" stroke-linecap="round" stroke-linejoin="round"/>
<path d="M168.654 237.76C176.325 237.76 182.544 229.919 182.544 220.247C182.544 210.575 176.325 202.734 168.654 202.734C160.982 202.734 154.764 210.575 154.764 220.247C154.764 229.919 160.982 237.76 168.654 237.76Z" fill="#FBDC42" stroke="#303030" stroke-width="1.1584" stroke-miterlimit="10" stroke-linecap="round" stroke-linejoin="round"/>
<path d="M168.654 229.072C172.52 229.072 175.653 225.121 175.653 220.248C175.653 215.374 172.52 211.423 168.654 211.423C164.789 211.423 161.655 215.374 161.655 220.248C161.655 225.121 164.789 229.072 168.654 229.072Z" fill="#FBDC42" stroke="#303030" stroke-width="1.1584" stroke-miterlimit="10" stroke-linecap="round" stroke-linejoin="round"/>
<path d="M172.212 217.606C172.212 218.238 171.7 218.751 171.067 218.751C170.435 218.751 169.923 218.238 169.923 217.606C169.923 216.974 170.436 216.462 171.067 216.462C171.699 216.462 172.212 216.975 172.212 217.606Z" fill="#303030" stroke="#303030" stroke-width="1.1584" stroke-miterlimit="10" stroke-linecap="round" stroke-linejoin="round"/>
<path d="M167.379 217.606C167.379 218.238 166.867 218.751 166.234 218.751C165.603 218.751 165.09 218.238 165.09 217.606C165.09 216.974 165.602 216.462 166.234 216.462C166.867 216.462 167.379 216.975 167.379 217.606Z" fill="#303030" stroke="#303030" stroke-width="1.1584" stroke-miterlimit="10" stroke-linecap="round" stroke-linejoin="round"/>
<path d="M172.212 222.887C172.212 223.519 171.7 224.032 171.067 224.032C170.435 224.032 169.923 223.519 169.923 222.887C169.923 222.255 170.436 221.743 171.067 221.743C171.699 221.743 172.212 222.255 172.212 222.887Z" fill="#303030" stroke="#303030" stroke-width="1.1584" stroke-miterlimit="10" stroke-linecap="round" stroke-linejoin="round"/>
<path d="M167.379 222.887C167.379 223.519 166.867 224.032 166.234 224.032C165.603 224.032 165.09 223.519 165.09 222.887C165.09 222.255 165.602 221.743 166.234 221.743C166.867 221.743 167.379 222.255 167.379 222.887Z" fill="#303030" stroke="#303030" stroke-width="1.1584" stroke-miterlimit="10" stroke-linecap="round" stroke-linejoin="round"/>
<path d="M323.858 231.417L403.26 222.552C403.26 222.552 400.12 161.992 354.932 161.992C309.745 161.992 319.823 231.417 319.823 231.417H323.858Z" fill="#303030" stroke="#303030" stroke-width="1.1584" stroke-miterlimit="10" stroke-linecap="round" stroke-linejoin="round"/>
<path d="M359.004 180.528C362.013 180.528 373.433 180.528 376.442 180.528C396.038 180.528 411.924 200.557 411.924 225.264C411.924 249.97 396.038 270 376.442 270C373.433 270 362.013 270 359.004 270C339.408 270 323.522 249.971 323.522 225.264C323.522 200.557 339.408 180.528 359.004 180.528Z" fill="#252525" stroke="#303030" stroke-width="1.1584" stroke-miterlimit="10" stroke-linecap="round" stroke-linejoin="round"/>
<path d="M359.004 269.999C378.6 269.999 394.486 249.97 394.486 225.263C394.486 200.556 378.6 180.527 359.004 180.527C339.408 180.527 323.522 200.556 323.522 225.263C323.522 249.97 339.408 269.999 359.004 269.999Z" fill="#303030" stroke="#303030" stroke-width="1.1584" stroke-miterlimit="10" stroke-linecap="round" stroke-linejoin="round"/>
<path d="M354.912 254.038C366.803 254.038 376.442 241.155 376.442 225.263C376.442 209.37 366.803 196.487 354.912 196.487C343.021 196.487 333.382 209.37 333.382 225.263C333.382 241.155 343.021 254.038 354.912 254.038Z" fill="#303030" stroke="#303030" stroke-width="1.1584" stroke-miterlimit="10" stroke-linecap="round" stroke-linejoin="round"/>
<path d="M333.387 225.264C333.387 226.084 333.408 226.895 333.473 227.696C333.798 232.992 335.197 237.868 337.387 241.952C338.222 243.534 339.186 245.006 340.271 246.327C344.098 251.113 349.248 254.036 354.907 254.036C361.835 254.036 367.993 249.671 371.918 242.884C372.785 241.412 373.545 239.82 374.162 238.128C375.431 234.784 376.211 231.06 376.385 227.125C376.428 226.515 376.439 225.894 376.439 225.264C376.439 224.253 376.396 223.251 376.32 222.26C375.984 217.855 374.9 213.741 373.241 210.156C372.471 208.495 371.582 206.953 370.574 205.541C366.66 199.965 361.087 196.491 354.907 196.491C348.446 196.491 342.645 200.305 338.709 206.342C337.777 207.754 336.952 209.275 336.259 210.907C334.709 214.471 333.733 218.515 333.472 222.84C333.408 223.642 333.387 224.443 333.387 225.264ZM339.1 213.45L347.491 220.978C347.34 221.519 347.22 222.079 347.123 222.66L337.084 222.791C337.311 219.437 338.016 216.284 339.1 213.45ZM347.015 202.808L350.484 215.683C350.267 215.893 350.061 216.113 349.866 216.343L341.431 208.785C342.982 206.312 344.879 204.27 347.015 202.808ZM357.152 200.456L355.006 212.349L351.85 200.626C352.837 200.376 353.867 200.255 354.907 200.255C355.667 200.256 356.415 200.326 357.152 200.456ZM368.071 208.284L360.741 216.313C360.448 215.962 360.123 215.643 359.787 215.351L362.151 202.377C364.406 203.77 366.423 205.792 368.071 208.284ZM372.71 222.31L363.463 222.441C363.387 222.011 363.3 221.59 363.192 221.18L370.574 213.081C371.691 215.873 372.439 218.987 372.71 222.31ZM371.258 235.525L363.398 228.467C363.473 228.086 363.538 227.696 363.593 227.295L372.787 227.165C372.635 230.129 372.103 232.941 371.258 235.525ZM364.233 246.627L360.85 234.073C361.024 233.863 361.197 233.643 361.349 233.412L369.177 240.42C367.82 242.893 366.14 245.005 364.233 246.627ZM353.466 250.181L355.873 236.946C355.981 236.936 356.09 236.936 356.187 236.926L359.559 249.42C358.074 249.981 356.512 250.271 354.907 250.271C354.42 250.271 353.943 250.241 353.466 250.181ZM342.743 243.623L350.615 234.984C350.691 235.054 350.777 235.115 350.854 235.194L348.425 248.579C346.311 247.438 344.381 245.746 342.743 243.623ZM337.073 227.646L347.069 227.516C347.209 228.577 347.471 229.578 347.806 230.52L339.979 239.099C338.385 235.765 337.355 231.861 337.073 227.646Z" fill="white" stroke="#303030" stroke-width="1.1584" stroke-miterlimit="10" stroke-linecap="round" stroke-linejoin="round"/>
<path d="M359.003 225.263C359.003 228.033 357.393 230.279 355.406 230.279C353.42 230.279 351.809 228.033 351.809 225.263C351.809 222.493 353.419 220.247 355.406 220.247C357.393 220.247 359.003 222.493 359.003 225.263Z" fill="#4842FB" stroke="#303030" stroke-width="1.1584" stroke-miterlimit="10" stroke-linecap="round" stroke-linejoin="round"/>
<path d="M163.003 83.2982L161.192 79.0562C161.192 79.0562 133.121 105.403 123.939 129.027H163.003V83.2982Z" fill="#303030"/>
<path d="M420.472 221.397C420.42 226.945 415.905 231.415 410.356 231.415H408.139L400.569 231.316C398.943 231.296 397.628 229.987 397.613 228.36C397.555 221.897 396.584 206.1 388.58 194.218C383.808 187.133 374.125 177.53 359.005 177.53C345.959 177.53 336.408 185.039 330.758 192.185C321.215 204.255 319.821 222.796 319.821 231.417H217.997C214.076 231.417 210.853 228.403 210.498 224.497C210.333 222.691 210.105 220.864 209.811 219.028C207.284 203.316 199.878 187.201 186.259 180.528C182.097 178.483 177.364 177.324 172.004 177.324C146.471 177.324 135.089 193.777 130.847 219.028C130.839 219.052 130.839 219.085 130.831 219.108L130.67 219.028C119.611 213.571 112.39 202.438 112.141 190.107C112.052 185.728 112.27 181.284 112.72 177.123C112.84 175.964 113.331 174.917 114.072 174.096C114.82 173.275 115.81 172.679 116.946 172.438C117.533 153.699 119.256 141.746 123.941 129.028C124.931 126.363 127.024 124.262 129.664 123.208C131.25 122.572 132.9 122.073 134.607 121.686C136.772 121.195 138.672 119.892 139.895 118.04C143.654 112.34 145.282 107.755 150.79 99.1479C156.298 90.5417 160.169 85.4803 163.004 83.2979C161.845 82.1873 161.193 80.6575 161.193 79.0558V75.5142C161.193 72.826 163.013 70.4914 165.612 69.8234C190.702 63.3997 239.246 58.9406 274.825 59.2387C282.777 59.3113 290.288 62.917 295.31 69.0828C267.798 67.7228 224.284 69.7593 183.071 75.6756C181.679 75.8772 180.567 76.9553 180.31 78.3399C179.948 80.2636 179.65 82.1233 179.4 83.9018C177.058 100.846 189.213 121.187 206.213 123.038C219.471 124.47 238.001 126.008 262.052 126.925C276.235 127.465 274.06 127.739 290.722 127.867C300.534 127.947 309.96 127.98 318.034 127.98C318.041 127.98 318.041 127.98 318.05 127.98C320.803 127.98 323.395 127.972 325.793 127.972C336.137 127.956 342.842 127.908 342.842 127.908C350.256 129.083 356.816 130.419 362.942 132.037C395.92 140.747 419.264 170.095 420.447 204.184C420.566 207.69 420.532 215.164 420.472 221.397Z" fill="#4842FB" stroke="#303030" stroke-width="1.1584" stroke-miterlimit="10" stroke-linecap="round" stroke-linejoin="round"/>
<path d="M397.725 188.554H391.846C390.475 188.554 389.363 187.442 389.363 186.071C389.363 184.7 390.475 183.588 391.846 183.588H397.725C399.096 183.588 400.207 184.699 400.207 186.071C400.207 187.442 399.095 188.554 397.725 188.554Z" fill="#D3FF3C" stroke="#303030" stroke-width="1.1584" stroke-miterlimit="10" stroke-linecap="round" stroke-linejoin="round"/>
<path d="M316.207 115.674C316.005 114.643 315.603 113.621 314.959 112.663L292.582 74.1466C291.39 72.3596 289.41 71.2645 287.261 71.2167C283.639 71.1364 279.63 71.0962 275.275 71.0962C266.115 71.0962 275.422 71.2893 264.104 71.6839C260.941 71.7966 258.196 73.9296 257.319 76.9646C254.791 85.7221 250.001 108.672 250.042 120.383C250.05 122.403 251.652 124.061 253.673 124.15C256.458 124.287 259.283 124.408 262.141 124.512C277.016 125.084 275.291 125.349 290.722 125.47C297.113 125.526 303.03 125.55 308.029 125.559C313.502 125.574 317.164 120.544 316.207 115.674Z" stroke="#303030" stroke-width="1.1584" stroke-miterlimit="10" stroke-linecap="round" stroke-linejoin="round"/>
<path d="M331.968 121.397C320.408 105.998 305.405 81.455 295.311 69.0833C267.798 67.7234 224.285 69.7598 183.071 75.6761C181.679 75.8777 180.567 76.9558 180.31 78.3405C179.948 80.2642 179.65 82.1238 179.4 83.9023C177.058 100.847 189.213 121.187 206.214 123.038C219.471 124.471 238.001 126.009 262.052 126.926C276.236 127.465 274.06 127.739 290.722 127.867C300.534 127.948 309.96 127.98 318.034 127.98C318.041 127.98 318.041 127.98 318.05 127.98C320.803 127.98 323.395 127.972 325.793 127.972C336.137 127.956 342.842 127.908 342.842 127.908C338.503 127.224 334.607 124.906 331.968 121.397ZM186.701 109.04C182.548 103.229 180.809 91.3477 181.791 84.2321C182.009 82.6304 182.275 80.9963 182.58 79.3544C182.709 78.6378 183.28 78.0825 184.005 77.986C187.949 77.4307 192.086 76.9071 196.369 76.416C191.531 84.8677 186.701 109.04 186.701 109.04ZM237.51 123.264C226.482 122.556 216.106 121.678 206.471 120.632C201.206 120.061 196.345 118.08 192.296 114.909C192.296 114.909 195.644 87.9027 201.359 75.8769C216.38 74.2915 232.873 73.1238 248.795 72.3353C250.067 72.2712 250.984 73.5107 250.566 74.71C248.094 81.7531 241.357 106.908 241.212 119.819C241.196 121.823 239.506 123.393 237.51 123.264ZM308.028 125.558C303.029 125.551 297.113 125.526 290.722 125.47C275.291 125.349 277.016 125.083 262.14 124.512C259.283 124.408 256.457 124.286 253.672 124.15C251.652 124.061 250.05 122.403 250.042 120.383C250.002 108.67 254.791 85.7218 257.318 76.9643C258.195 73.9293 260.94 71.7963 264.104 71.6835C275.422 71.2889 266.114 71.0958 275.275 71.0958C279.63 71.0958 283.639 71.136 287.26 71.2163C289.41 71.265 291.39 72.3593 292.581 74.1463L314.959 112.663C315.603 113.621 316.005 114.643 316.207 115.673C317.164 120.543 313.502 125.574 308.028 125.558Z" fill="#303030"/>
<path d="M308.029 125.559C303.03 125.551 297.113 125.526 290.722 125.47C275.291 125.349 277.016 125.084 262.141 124.512C259.283 124.408 256.457 124.287 253.673 124.15C251.652 124.061 250.051 122.403 250.042 120.383C250.002 108.671 254.792 85.7221 257.319 76.9646C258.196 73.9296 260.94 71.7966 264.104 71.6839C275.422 71.2893 266.115 71.0962 275.275 71.0962C279.63 71.0962 283.639 71.1364 287.261 71.2167C289.41 71.2653 291.39 72.3596 292.582 74.1466L314.959 112.663C315.603 113.621 316.005 114.643 316.207 115.674C317.164 120.544 313.502 125.574 308.029 125.559Z" fill="white" stroke="#303030" stroke-width="1.1584" stroke-miterlimit="10" stroke-linecap="round" stroke-linejoin="round"/>
<path d="M250.566 74.7106C248.095 81.7537 241.358 106.909 241.213 119.819C241.197 121.823 239.506 123.394 237.51 123.265C226.482 122.556 216.106 121.679 206.471 120.633C201.206 120.061 196.345 118.081 192.296 114.909C192.296 114.909 195.644 87.9033 201.359 75.8776C216.38 74.2921 232.873 73.1244 248.795 72.3359C250.068 72.2711 250.985 73.5113 250.566 74.7106Z" fill="white" stroke="#303030" stroke-width="1.1584" stroke-miterlimit="10" stroke-linecap="round" stroke-linejoin="round"/>
<path d="M196.368 76.4165C191.531 84.8682 186.701 109.041 186.701 109.041C182.548 103.23 180.809 91.3483 181.791 84.2326C182.009 82.6309 182.275 80.9968 182.58 79.355C182.709 78.6383 183.28 78.083 184.005 77.9865C187.948 77.4305 192.086 76.9077 196.368 76.4165Z" fill="white" stroke="#303030" stroke-width="1.1584" stroke-miterlimit="10" stroke-linecap="round" stroke-linejoin="round"/>
<path d="M308.029 125.559C303.03 125.551 297.113 125.526 290.722 125.47C275.291 125.349 277.016 125.084 262.141 124.512C259.283 124.408 256.457 124.287 253.673 124.15C251.652 124.061 250.051 122.403 250.042 120.383C250.002 108.671 254.792 85.7221 257.319 76.9646C258.196 73.9296 260.94 71.7966 264.104 71.6839C275.422 71.2893 266.115 71.0962 275.275 71.0962C279.63 71.0962 283.639 71.1364 287.261 71.2167C289.41 71.2653 291.39 72.3596 292.582 74.1466L314.959 112.663C315.603 113.621 316.005 114.643 316.207 115.674C317.164 120.544 313.502 125.574 308.029 125.559Z" stroke="#303030" stroke-width="1.1584" stroke-miterlimit="10" stroke-linecap="round" stroke-linejoin="round"/>
<path d="M255.787 141.715C255.535 145.9 257.376 149.269 259.892 149.237C262.4 149.204 264.628 145.802 264.874 141.64C265.12 137.482 263.296 134.122 260.794 134.131C258.283 134.14 256.038 137.534 255.787 141.715Z" fill="#303030"/>
<path d="M253.5 143.776L266.848 143.762C267.946 143.761 268.884 142.755 268.901 141.563C268.916 140.461 268.137 139.6 267.124 139.598L253.785 139.577C252.668 139.576 251.71 140.589 251.692 141.794C251.674 142.907 252.469 143.777 253.5 143.776Z" fill="#5E59FD" stroke="#303030" stroke-width="1.1584" stroke-miterlimit="10" stroke-linecap="round" stroke-linejoin="round"/>
<path d="M184.482 140.343C184.203 144.417 186.056 147.698 188.613 147.669C191.163 147.64 193.446 144.33 193.718 140.278C193.991 136.231 192.156 132.959 189.611 132.966C187.061 132.972 184.761 136.273 184.482 140.343Z" fill="#303030"/>
<path d="M182.148 142.346L195.715 142.345C196.832 142.345 197.79 141.366 197.814 140.205C197.836 139.133 197.048 138.293 196.018 138.291L182.46 138.26C181.325 138.258 180.345 139.243 180.32 140.416C180.297 141.5 181.099 142.347 182.148 142.346Z" fill="#5E59FD" stroke="#303030" stroke-width="1.1584" stroke-miterlimit="10" stroke-linecap="round" stroke-linejoin="round"/>
<path d="M316.169 125.124C316.018 125.527 315.842 125.922 315.623 126.291C315.404 126.66 315.153 127.005 314.868 127.315C314.733 127.467 314.591 127.617 314.439 127.768C313.767 128.474 313.028 129.112 312.256 129.683C312.021 129.859 311.786 130.019 311.542 130.178C311.307 130.329 311.072 130.48 310.829 130.623C310.803 130.64 310.787 130.656 310.762 130.664C310.526 130.799 310.283 130.925 310.048 131.051C309.788 131.185 309.528 131.311 309.267 131.428C307.16 132.369 304.859 132.872 302.474 132.881L289.141 132.914C287.437 132.914 285.967 131.319 285.959 129.455L285.95 127.65V125.147L285.925 116.995C285.925 115.475 286.916 114.258 288.293 114.089L299.829 112.645C301.954 112.393 304.12 112.528 306.252 113.031L310.283 113.98C311.081 114.165 311.836 114.492 312.533 114.93C313.272 115.4 313.936 115.996 314.506 116.701C314.599 116.819 314.691 116.937 314.775 117.054C314.868 117.171 314.951 117.289 315.035 117.415C315.245 117.725 315.43 118.053 315.606 118.397C315.665 118.531 315.732 118.666 315.791 118.809C315.858 118.952 315.917 119.094 315.967 119.237C316.051 119.447 316.118 119.666 316.185 119.884L316.269 120.169C316.328 120.362 316.378 120.564 316.421 120.757C316.505 121.152 316.564 121.538 316.589 121.932C316.589 121.932 316.589 121.932 316.589 121.941C316.673 123.05 316.522 124.133 316.169 125.124Z" fill="#4842FB" stroke="#303030" stroke-width="1.1584" stroke-miterlimit="10" stroke-linecap="round" stroke-linejoin="round"/>
<path d="M305.04 115.828L289.667 116.43" stroke="white" stroke-width="1.1584" stroke-miterlimit="10" stroke-linecap="round" stroke-linejoin="round"/>
<path d="M323.482 124.763C323.281 125.771 322.936 126.803 322.533 127.76C322.172 128.634 321.769 129.448 321.391 130.145C320.66 131.513 320.282 131.235 318.241 131.303H309.553C309.72 131.228 309.88 131.144 310.048 131.052C310.291 130.934 310.527 130.808 310.761 130.666C310.787 130.657 310.803 130.64 310.828 130.624C311.072 130.489 311.307 130.338 311.542 130.179C311.785 130.028 312.029 129.86 312.256 129.684C313.036 129.121 313.775 128.483 314.456 127.77C314.599 127.627 314.742 127.475 314.876 127.325C315.162 127.006 315.405 126.661 315.624 126.292C315.842 125.923 316.018 125.528 316.17 125.125C316.522 124.134 316.665 123.043 316.59 121.943C316.59 121.934 316.59 121.934 316.59 121.934C316.556 121.54 316.505 121.154 316.421 120.759C316.38 120.566 316.329 120.364 316.27 120.171L316.186 119.885C316.119 119.667 316.051 119.449 315.967 119.239C315.917 119.096 315.858 118.953 315.791 118.81C315.732 118.668 315.665 118.533 315.607 118.399C315.43 118.054 315.246 117.727 315.036 117.417C314.952 117.291 314.868 117.173 314.776 117.056C314.691 116.939 314.599 116.821 314.507 116.703L317.177 116.594C318.041 116.56 318.914 116.905 319.603 117.552C321.249 119.104 324.011 122.161 323.482 124.763Z" fill="#4842FB" stroke="#303030" stroke-width="1.1584" stroke-miterlimit="10" stroke-linecap="round" stroke-linejoin="round"/>
<path d="M180.311 78.3408C178.057 88.6313 169.845 127.477 170.942 145.473C172.04 163.469 180.048 167.103 187.622 170.995C204.016 179.418 209.165 188.262 212.936 199.179C215.645 207.021 216.876 215.69 217.434 222.062C217.898 227.355 222.317 231.419 227.63 231.419H231.196" stroke="#303030" stroke-width="1.1584" stroke-miterlimit="10" stroke-linecap="round" stroke-linejoin="round"/>
<path d="M256.69 69.5493C250.247 82.4577 245.218 112.87 245.446 126.156C241.053 130.513 240.603 134.42 240.112 142.829C239.125 159.73 238.512 172.491 240.342 184.159C241.721 192.945 243.899 208.532 243.818 220.788C243.778 226.639 248.468 231.418 254.319 231.418" stroke="#303030" stroke-width="1.1584" stroke-miterlimit="10" stroke-linecap="round" stroke-linejoin="round"/>
<path d="M256.691 69.5493C250.248 82.4577 245.22 112.87 245.448 126.156" stroke="white" stroke-width="1.1584" stroke-miterlimit="10" stroke-linecap="round" stroke-linejoin="round"/>
<path d="M123.939 129.028C122.31 133.452 121.045 137.789 120.056 142.346C136.865 142.344 140.616 134.661 141.778 126.897C142.068 124.957 140.579 123.207 138.617 123.207H129.663C127.022 124.262 124.929 126.363 123.939 129.028Z" fill="white" stroke="#303030" stroke-width="1.1584" stroke-miterlimit="10" stroke-linecap="round" stroke-linejoin="round"/>
<path d="M213.297 213.081C229.545 215.636 296.456 215.253 316.358 213.081" stroke="#303030" stroke-width="1.1584" stroke-miterlimit="10" stroke-linecap="round" stroke-linejoin="round"/>
<path d="M522.23 144.038C506.547 136.424 469.578 123.86 463.766 123.204C451.142 121.776 438.436 121.163 425.721 121.403C403.687 121.82 378.311 123.641 353.496 126.575C350.835 126.844 348.219 125.841 346.412 123.851L305.006 73.4373C304.387 72.7608 304.885 71.6665 305.803 71.6742L398.116 74.4891C396.651 73.7562 395.194 73.0403 393.745 72.3322C383.192 67.2043 371.794 62.2564 360.115 61.2424C337.029 59.2222 294.195 59.2299 274.82 59.2384C282.669 59.311 290.082 62.8202 295.097 68.833C295.17 68.9133 295.234 69.0022 295.306 69.0825C305.4 81.4542 320.404 105.998 331.963 121.396C334.604 124.906 338.5 127.223 342.838 127.907C342.838 127.907 357.253 133.584 363.189 135.801C377.343 141.085 392.381 149.237 398.117 154.015C411.389 165.07 416.669 182.82 419.331 203.709C419.86 207.858 420.629 214.943 420.563 221.234C420.504 226.841 415.96 231.363 410.353 231.413H529.971C537.91 231.413 544.346 224.978 544.346 217.039C544.346 217.039 544.901 209.582 544.346 201.569C543.79 193.557 543.471 185.142 541.257 171.336C539.043 157.529 530.931 148.262 522.23 144.038Z" fill="#4842FB" stroke="#303030" stroke-width="1.1584" stroke-miterlimit="10" stroke-linecap="round" stroke-linejoin="round"/>
<path d="M350.836 126.42C365.555 132.034 370.049 133.428 383.572 138.544C404.518 146.47 417.927 149.189 430.221 152.811C447.256 157.83 453.618 158.735 460.424 159.342C467.229 159.949 478.152 160.512 496.273 160.512C515.535 160.512 519.093 158.452 522.745 155.948C528.869 151.749 531.501 150.408 525.409 145.828" stroke="#303030" stroke-width="1.1584" stroke-miterlimit="10" stroke-linecap="round" stroke-linejoin="round"/>
<path d="M522.746 202.836C502.427 204.655 480.361 204.82 453.066 202.836V215.287C478.764 216.348 502.351 217.293 522.566 215.22L522.746 202.836Z" fill="#303030" stroke="#303030" stroke-width="1.1584" stroke-miterlimit="10" stroke-linecap="round" stroke-linejoin="round"/>
<path d="M517.801 204.561V210.383C517.801 210.383 483.769 213.215 455.109 210.383" stroke="white" stroke-width="1.1584" stroke-miterlimit="10" stroke-linecap="round" stroke-linejoin="round"/>
<path d="M517.801 210.384L521.729 213.915" stroke="white" stroke-width="1.1584" stroke-miterlimit="10" stroke-linecap="round" stroke-linejoin="round"/>
<path d="M435.938 217.888C440.49 217.888 444.181 214.198 444.181 209.645C444.181 205.092 440.49 201.402 435.938 201.402C431.385 201.402 427.694 205.092 427.694 209.645C427.694 214.198 431.385 217.888 435.938 217.888Z" fill="#303030" stroke="#303030" stroke-width="1.1584" stroke-miterlimit="10" stroke-linecap="round" stroke-linejoin="round"/>
<path d="M434.408 201.549C437.291 202.172 439.453 204.734 439.453 207.803C439.453 211.339 436.586 214.205 433.051 214.205C430.968 214.205 429.123 213.207 427.955 211.667C427.791 211.019 427.694 210.344 427.694 209.645C427.694 205.616 430.587 202.267 434.408 201.549Z" fill="white" stroke="#303030" stroke-width="1.1584" stroke-miterlimit="10" stroke-linecap="round" stroke-linejoin="round"/>
<path d="M528.211 209.561C528.048 213.546 529.594 216.814 531.665 216.86C533.735 216.906 535.545 213.712 535.708 209.727C535.871 205.743 534.325 202.475 532.255 202.429C530.185 202.383 528.374 205.576 528.211 209.561Z" fill="#303030" stroke="#303030" stroke-width="1.1584" stroke-miterlimit="10" stroke-linecap="round" stroke-linejoin="round"/>
<path d="M530.037 203.711C530.742 204.214 531.345 204.875 531.757 205.703C533.168 208.532 531.947 212.068 529.028 213.6C528.93 213.652 528.829 213.69 528.729 213.736C528.345 212.55 528.147 211.112 528.211 209.562C528.31 207.13 529.025 204.997 530.037 203.711Z" fill="white" stroke="#303030" stroke-width="1.1584" stroke-miterlimit="10" stroke-linecap="round" stroke-linejoin="round"/>
<path d="M410.985 154.127C410.074 155.087 409.225 156.002 408.483 156.964C407.503 158.234 407.723 159.891 408.466 161.312C410.866 165.897 414.215 170.207 415.568 171.787C418.161 174.814 422.606 176.052 426.634 176.367C433.248 176.883 439.805 176.796 446.304 176.076C447.852 175.905 449.249 175.048 450.014 173.724C450.962 172.085 451.618 170.374 451.96 168.586C452.402 166.269 452.688 164.559 449.08 162.904C441.249 159.311 421.53 153.476 415.753 152.455C413.604 152.074 411.969 153.09 410.985 154.127Z" fill="white" stroke="#303030" stroke-width="1.1584" stroke-miterlimit="10" stroke-linecap="round" stroke-linejoin="round"/>
<path d="M541.898 175.538C541.703 174.19 541.494 172.799 541.259 171.336C540.008 163.533 536.872 157.183 532.812 152.371C522.611 158.913 521.403 159.925 522.513 163.837C523.451 167.144 524.103 168.577 525.575 171.724C527.056 174.886 529.766 175.552 532.399 175.538H541.898Z" fill="white" stroke="#303030" stroke-width="1.1584" stroke-miterlimit="10" stroke-linecap="round" stroke-linejoin="round"/>
<path d="M459.279 168.278C459.865 166.321 460.775 165.24 463.637 165.24C466.499 165.24 510.109 165.473 512.56 165.473C515.012 165.473 515.938 166.223 516.643 167.878L517.799 170.587C519.067 173.561 518.861 176.995 517.25 179.782L514.751 184.101C512.885 187.327 509.545 189.309 505.934 189.331L480.524 189.49C474.238 189.53 468.224 186.816 463.945 182.009L460.997 178.699C458.758 176.184 457.982 172.61 458.964 169.333L459.279 168.278Z" fill="#303030" stroke="#303030" stroke-width="1.1584" stroke-miterlimit="10" stroke-linecap="round" stroke-linejoin="round"/>
<path d="M517.257 169.318L516.814 168.277C499.266 169.29 479.347 169.046 459.352 168.091C459.33 168.155 459.298 168.213 459.279 168.279L459.02 169.145C469.915 170.223 508.553 170.284 517.257 169.318Z" fill="#4842FB"/>
<path d="M460.709 178.352C460.803 178.468 460.897 178.586 460.998 178.698L461.736 179.528C471.639 180.434 508.671 180.403 517.43 179.424C517.626 179.051 517.798 178.667 517.946 178.274C500.325 179.502 481.527 179.573 460.709 178.352Z" fill="#4842FB"/>
<path d="M514.3 184.81C514.458 184.579 514.611 184.345 514.752 184.101L515.013 183.649C499.525 184.774 483.302 184.856 465.793 183.854C466.263 184.274 466.749 184.672 467.249 185.048C475.163 185.648 506.518 185.57 514.3 184.81Z" fill="#4842FB"/>
<path d="M518.606 174.22C518.592 173.86 518.554 173.501 518.503 173.144C500.127 174.348 480.47 174.359 458.585 173.074C458.618 173.446 458.675 173.813 458.749 174.178C469.744 175.274 509.482 175.289 518.606 174.22Z" fill="#4842FB"/>
<path d="M463.764 123.208C451.135 121.775 438.425 121.164 425.706 121.405C403.707 121.823 378.368 123.643 353.584 126.573H353.551C350.871 126.862 348.23 125.856 346.412 123.852L305.005 73.4384C304.386 72.7619 304.884 71.6676 305.802 71.6753C336.35 70.737 367.119 71.653 398.116 74.4903C416.846 84.4533 447.594 107.459 463.764 123.208Z" fill="white" stroke="#303030" stroke-width="1.1584" stroke-miterlimit="10" stroke-linecap="round" stroke-linejoin="round"/>
<path d="M322.269 78.126C364.556 88.9995 403.35 101.595 438.651 115.914" stroke="#C1C1C1" stroke-width="1.1584" stroke-miterlimit="10" stroke-linecap="round" stroke-linejoin="round"/>
<path d="M345.52 95.5635C366.566 100.975 385.874 107.244 403.443 114.37" stroke="#C1C1C1" stroke-width="1.1584" stroke-miterlimit="10" stroke-linecap="round" stroke-linejoin="round"/>
<path d="M378.211 84.4531C390.883 87.7113 402.509 91.4861 413.087 95.7769" stroke="#C1C1C1" stroke-width="1.1584" stroke-miterlimit="10" stroke-linecap="round" stroke-linejoin="round"/>
<path d="M353.552 126.572C349.962 126.991 346.397 127.442 342.839 127.908C338.5 127.224 334.604 124.906 331.964 121.397C320.405 105.998 305.401 81.455 295.307 69.0833C295.307 69.0833 346.712 67.087 393.746 72.333C395.195 73.0412 396.652 73.7578 398.117 74.4899C367.708 71.6109 336.922 70.7491 305.803 71.675C304.886 71.6673 304.386 72.7616 305.006 73.4381L346.413 123.852C348.232 125.856 350.873 126.862 353.552 126.572Z" fill="#303030"/>
<path d="M346.697 127.411C341.397 128.083 335.995 126.214 332.55 122.13C332.35 121.891 332.154 121.647 331.966 121.396C320.406 105.998 305.403 81.4547 295.309 69.083" stroke="white" stroke-width="1.1584" stroke-miterlimit="10" stroke-linecap="round" stroke-linejoin="round"/>
<path d="M281.082 249.141H190.233V252.431H281.082V249.141Z" fill="#303030" stroke="#303030" stroke-width="1.1584" stroke-miterlimit="10" stroke-linecap="round" stroke-linejoin="round"/>
<path d="M202.918 249.916L228.024 232.123H239.818L212.264 251.65C209.217 253.81 204.988 253.025 202.918 249.916Z" fill="#303030" stroke="#303030" stroke-width="1.1584" stroke-miterlimit="10" stroke-linecap="round" stroke-linejoin="round"/>
<path d="M209.36 249.915C209.36 249.435 208.97 249.045 208.489 249.045C208.009 249.045 207.619 249.435 207.619 249.915C207.619 250.396 208.009 250.786 208.489 250.786C208.97 250.786 209.36 250.396 209.36 249.915Z" fill="#303030" stroke="#303030" stroke-width="1.1584" stroke-miterlimit="10" stroke-linecap="round" stroke-linejoin="round"/>
<path d="M268.396 249.916L243.29 232.123H231.496L259.051 251.65C262.098 253.81 266.327 253.025 268.396 249.916Z" fill="#303030" stroke="#303030" stroke-width="1.1584" stroke-miterlimit="10" stroke-linecap="round" stroke-linejoin="round"/>
<path d="M261.956 249.916C261.956 249.435 262.346 249.045 262.826 249.045C263.307 249.045 263.697 249.435 263.697 249.916C263.697 250.396 263.307 250.786 262.826 250.786C262.345 250.786 261.956 250.396 261.956 249.916Z" fill="#303030" stroke="#303030" stroke-width="1.1584" stroke-miterlimit="10" stroke-linecap="round" stroke-linejoin="round"/>
<path d="M239.051 239.359H232.266C230.803 239.359 229.529 238.357 229.187 236.933L228.027 232.123H243.29L242.131 236.933C241.788 238.356 240.515 239.359 239.051 239.359Z" fill="#303030" stroke="#303030" stroke-width="1.1584" stroke-miterlimit="10" stroke-linecap="round" stroke-linejoin="round"/>
<path d="M232.727 236.973C233.373 236.973 233.896 236.45 233.896 235.804C233.896 235.158 233.373 234.635 232.727 234.635C232.081 234.635 231.558 235.158 231.558 235.804C231.558 236.45 232.081 236.973 232.727 236.973Z" fill="#303030" stroke="#303030" stroke-width="1.1584" stroke-miterlimit="10" stroke-linecap="round" stroke-linejoin="round"/>
<path d="M237.422 235.804C237.422 235.158 237.945 234.635 238.591 234.635C239.237 234.635 239.76 235.158 239.76 235.804C239.76 236.45 239.237 236.973 238.591 236.973C237.945 236.973 237.422 236.45 237.422 235.804Z" fill="#303030" stroke="#303030" stroke-width="1.1584" stroke-miterlimit="10" stroke-linecap="round" stroke-linejoin="round"/>
<path d="M202.918 251.98L228.024 269.773H239.818L212.264 250.245C209.217 248.085 204.988 248.87 202.918 251.98Z" fill="#303030" stroke="#303030" stroke-width="1.1584" stroke-miterlimit="10" stroke-linecap="round" stroke-linejoin="round"/>
<path d="M209.36 251.98C209.36 252.46 208.97 252.85 208.489 252.85C208.009 252.85 207.619 252.46 207.619 251.98C207.619 251.499 208.009 251.109 208.489 251.109C208.97 251.109 209.36 251.499 209.36 251.98Z" fill="#303030" stroke="#303030" stroke-width="1.1584" stroke-miterlimit="10" stroke-linecap="round" stroke-linejoin="round"/>
<path d="M268.396 251.98L243.29 269.773H231.496L259.051 250.245C262.098 248.085 266.327 248.87 268.396 251.98Z" fill="#303030" stroke="#303030" stroke-width="1.1584" stroke-miterlimit="10" stroke-linecap="round" stroke-linejoin="round"/>
<path d="M261.956 251.98C261.956 252.46 262.346 252.85 262.826 252.85C263.307 252.85 263.697 252.46 263.697 251.98C263.697 251.499 263.307 251.109 262.826 251.109C262.345 251.109 261.956 251.499 261.956 251.98Z" fill="#303030" stroke="#303030" stroke-width="1.1584" stroke-miterlimit="10" stroke-linecap="round" stroke-linejoin="round"/>
<path d="M239.051 262.538H232.266C230.803 262.538 229.529 263.54 229.187 264.963L228.027 269.773H243.29L242.131 264.963C241.788 263.54 240.515 262.538 239.051 262.538Z" fill="#303030" stroke="#303030" stroke-width="1.1584" stroke-miterlimit="10" stroke-linecap="round" stroke-linejoin="round"/>
<path d="M232.727 267.261C233.373 267.261 233.896 266.737 233.896 266.092C233.896 265.446 233.373 264.922 232.727 264.922C232.081 264.922 231.558 265.446 231.558 266.092C231.558 266.737 232.081 267.261 232.727 267.261Z" fill="#303030" stroke="#303030" stroke-width="1.1584" stroke-miterlimit="10" stroke-linecap="round" stroke-linejoin="round"/>
<path d="M237.422 266.092C237.422 266.737 237.945 267.261 238.591 267.261C239.237 267.261 239.76 266.737 239.76 266.092C239.76 265.446 239.237 264.922 238.591 264.922C237.945 264.922 237.422 265.446 237.422 266.092Z" fill="#303030" stroke="#303030" stroke-width="1.1584" stroke-miterlimit="10" stroke-linecap="round" stroke-linejoin="round"/>
<path d="M285.246 249.141H194.397V252.431H285.246V249.141Z" fill="#657A1B" stroke="#303030" stroke-width="1.1584" stroke-miterlimit="10" stroke-linecap="round" stroke-linejoin="round"/>
<path d="M207.081 249.916L232.187 232.123H243.981L216.427 251.651C213.38 253.811 209.151 253.025 207.081 249.916Z" fill="#D3FF3C" stroke="#303030" stroke-width="1.1584" stroke-miterlimit="10" stroke-linecap="round" stroke-linejoin="round"/>
<path d="M213.52 249.916C213.52 249.435 213.13 249.045 212.65 249.045C212.169 249.045 211.779 249.435 211.779 249.916C211.779 250.396 212.169 250.786 212.65 250.786C213.131 250.786 213.52 250.396 213.52 249.916Z" fill="#303030" stroke="#303030" stroke-width="1.1584" stroke-miterlimit="10" stroke-linecap="round" stroke-linejoin="round"/>
<path d="M272.558 249.916L247.451 232.123H235.657L263.212 251.65C266.259 253.81 270.489 253.025 272.558 249.916Z" fill="#D3FF3C" stroke="#303030" stroke-width="1.1584" stroke-miterlimit="10" stroke-linecap="round" stroke-linejoin="round"/>
<path d="M266.117 249.916C266.117 249.436 266.507 249.046 266.988 249.046C267.468 249.046 267.858 249.436 267.858 249.916C267.858 250.397 267.468 250.787 266.988 250.787C266.507 250.787 266.117 250.397 266.117 249.916Z" fill="#303030" stroke="#303030" stroke-width="1.1584" stroke-miterlimit="10" stroke-linecap="round" stroke-linejoin="round"/>
<path d="M243.213 239.359H236.428C234.965 239.359 233.692 238.356 233.349 236.933L232.189 232.123H247.453L246.293 236.933C245.95 238.356 244.676 239.359 243.213 239.359Z" fill="#657A1B" stroke="#303030" stroke-width="1.1584" stroke-miterlimit="10" stroke-linecap="round" stroke-linejoin="round"/>
<path d="M236.888 236.973C237.534 236.973 238.057 236.449 238.057 235.803C238.057 235.158 237.534 234.634 236.888 234.634C236.242 234.634 235.719 235.158 235.719 235.803C235.719 236.449 236.242 236.973 236.888 236.973Z" fill="#303030" stroke="#303030" stroke-width="1.1584" stroke-miterlimit="10" stroke-linecap="round" stroke-linejoin="round"/>
<path d="M241.584 235.803C241.584 235.158 242.108 234.634 242.753 234.634C243.399 234.634 243.922 235.158 243.922 235.803C243.922 236.449 243.399 236.973 242.753 236.973C242.108 236.973 241.584 236.449 241.584 235.803Z" fill="#303030" stroke="#303030" stroke-width="1.1584" stroke-miterlimit="10" stroke-linecap="round" stroke-linejoin="round"/>
<path d="M207.081 251.98L232.187 269.773H243.981L216.427 250.246C213.38 248.086 209.151 248.87 207.081 251.98Z" fill="#D3FF3C" stroke="#303030" stroke-width="1.1584" stroke-miterlimit="10" stroke-linecap="round" stroke-linejoin="round"/>
<path d="M213.52 251.98C213.52 252.461 213.13 252.851 212.65 252.851C212.169 252.851 211.779 252.461 211.779 251.98C211.779 251.5 212.169 251.11 212.65 251.11C213.131 251.11 213.52 251.499 213.52 251.98Z" fill="#303030" stroke="#303030" stroke-width="1.1584" stroke-miterlimit="10" stroke-linecap="round" stroke-linejoin="round"/>
<path d="M272.558 251.98L247.451 269.773H235.657L263.212 250.245C266.259 248.085 270.489 248.87 272.558 251.98Z" fill="#D3FF3C" stroke="#303030" stroke-width="1.1584" stroke-miterlimit="10" stroke-linecap="round" stroke-linejoin="round"/>
<path d="M266.117 251.98C266.117 252.46 266.507 252.85 266.988 252.85C267.468 252.85 267.858 252.46 267.858 251.98C267.858 251.499 267.468 251.109 266.988 251.109C266.507 251.109 266.117 251.499 266.117 251.98Z" fill="#303030" stroke="#303030" stroke-width="1.1584" stroke-miterlimit="10" stroke-linecap="round" stroke-linejoin="round"/>
<path d="M243.213 262.537H236.428C234.965 262.537 233.692 263.54 233.349 264.963L232.189 269.772H247.453L246.293 264.963C245.95 263.54 244.676 262.537 243.213 262.537Z" fill="#657A1B" stroke="#303030" stroke-width="1.1584" stroke-miterlimit="10" stroke-linecap="round" stroke-linejoin="round"/>
<path d="M236.888 267.261C237.534 267.261 238.057 266.737 238.057 266.092C238.057 265.446 237.534 264.922 236.888 264.922C236.242 264.922 235.719 265.446 235.719 266.092C235.719 266.737 236.242 267.261 236.888 267.261Z" fill="#303030" stroke="#303030" stroke-width="1.1584" stroke-miterlimit="10" stroke-linecap="round" stroke-linejoin="round"/>
<path d="M241.584 266.092C241.584 266.737 242.108 267.261 242.753 267.261C243.399 267.261 243.922 266.737 243.922 266.092C243.922 265.446 243.399 264.922 242.753 264.922C242.108 264.922 241.584 265.446 241.584 266.092Z" fill="#303030" stroke="#303030" stroke-width="1.1584" stroke-miterlimit="10" stroke-linecap="round" stroke-linejoin="round"/>
<path d="M285.246 249.141H194.397V252.431H285.246V249.141Z" fill="#657A1B" stroke="#303030" stroke-width="1.1584" stroke-miterlimit="10" stroke-linecap="round" stroke-linejoin="round"/>
<path d="M207.081 249.916L232.187 232.123H243.981L216.427 251.651C213.38 253.811 209.151 253.025 207.081 249.916Z" fill="#D3FF3C" stroke="#303030" stroke-width="1.1584" stroke-miterlimit="10" stroke-linecap="round" stroke-linejoin="round"/>
<path d="M213.52 249.916C213.52 249.435 213.13 249.045 212.65 249.045C212.169 249.045 211.779 249.435 211.779 249.916C211.779 250.396 212.169 250.786 212.65 250.786C213.131 250.786 213.52 250.396 213.52 249.916Z" fill="#303030" stroke="#303030" stroke-width="1.1584" stroke-miterlimit="10" stroke-linecap="round" stroke-linejoin="round"/>
<path d="M272.558 249.916L247.451 232.123H235.657L263.212 251.65C266.259 253.81 270.489 253.025 272.558 249.916Z" fill="#D3FF3C" stroke="#303030" stroke-width="1.1584" stroke-miterlimit="10" stroke-linecap="round" stroke-linejoin="round"/>
<path d="M266.117 249.916C266.117 249.436 266.507 249.046 266.988 249.046C267.468 249.046 267.858 249.436 267.858 249.916C267.858 250.397 267.468 250.787 266.988 250.787C266.507 250.787 266.117 250.397 266.117 249.916Z" fill="#303030" stroke="#303030" stroke-width="1.1584" stroke-miterlimit="10" stroke-linecap="round" stroke-linejoin="round"/>
<path d="M243.213 239.359H236.428C234.965 239.359 233.692 238.356 233.349 236.933L232.189 232.123H247.453L246.293 236.933C245.95 238.356 244.676 239.359 243.213 239.359Z" fill="#657A1B" stroke="#303030" stroke-width="1.1584" stroke-miterlimit="10" stroke-linecap="round" stroke-linejoin="round"/>
<path d="M236.888 236.973C237.534 236.973 238.057 236.449 238.057 235.803C238.057 235.158 237.534 234.634 236.888 234.634C236.242 234.634 235.719 235.158 235.719 235.803C235.719 236.449 236.242 236.973 236.888 236.973Z" fill="#303030" stroke="#303030" stroke-width="1.1584" stroke-miterlimit="10" stroke-linecap="round" stroke-linejoin="round"/>
<path d="M241.584 235.803C241.584 235.158 242.108 234.634 242.753 234.634C243.399 234.634 243.922 235.158 243.922 235.803C243.922 236.449 243.399 236.973 242.753 236.973C242.108 236.973 241.584 236.449 241.584 235.803Z" fill="#303030" stroke="#303030" stroke-width="1.1584" stroke-miterlimit="10" stroke-linecap="round" stroke-linejoin="round"/>
<path d="M207.081 251.98L232.187 269.773H243.981L216.427 250.246C213.38 248.086 209.151 248.87 207.081 251.98Z" fill="#D3FF3C" stroke="#303030" stroke-width="1.1584" stroke-miterlimit="10" stroke-linecap="round" stroke-linejoin="round"/>
<path d="M213.52 251.98C213.52 252.461 213.13 252.851 212.65 252.851C212.169 252.851 211.779 252.461 211.779 251.98C211.779 251.5 212.169 251.11 212.65 251.11C213.131 251.11 213.52 251.499 213.52 251.98Z" fill="#303030" stroke="#303030" stroke-width="1.1584" stroke-miterlimit="10" stroke-linecap="round" stroke-linejoin="round"/>
<path d="M272.558 251.98L247.451 269.773H235.657L263.212 250.245C266.259 248.085 270.489 248.87 272.558 251.98Z" fill="#D3FF3C" stroke="#303030" stroke-width="1.1584" stroke-miterlimit="10" stroke-linecap="round" stroke-linejoin="round"/>
<path d="M266.117 251.98C266.117 252.46 266.507 252.85 266.988 252.85C267.468 252.85 267.858 252.46 267.858 251.98C267.858 251.499 267.468 251.109 266.988 251.109C266.507 251.109 266.117 251.499 266.117 251.98Z" fill="#303030" stroke="#303030" stroke-width="1.1584" stroke-miterlimit="10" stroke-linecap="round" stroke-linejoin="round"/>
<path d="M243.213 262.537H236.428C234.965 262.537 233.692 263.54 233.349 264.963L232.189 269.772H247.453L246.293 264.963C245.95 263.54 244.676 262.537 243.213 262.537Z" fill="#657A1B" stroke="#303030" stroke-width="1.1584" stroke-miterlimit="10" stroke-linecap="round" stroke-linejoin="round"/>
<path d="M236.888 267.261C237.534 267.261 238.057 266.737 238.057 266.092C238.057 265.446 237.534 264.922 236.888 264.922C236.242 264.922 235.719 265.446 235.719 266.092C235.719 266.737 236.242 267.261 236.888 267.261Z" fill="#303030" stroke="#303030" stroke-width="1.1584" stroke-miterlimit="10" stroke-linecap="round" stroke-linejoin="round"/>
<path d="M241.584 266.092C241.584 266.737 242.108 267.261 242.753 267.261C243.399 267.261 243.922 266.737 243.922 266.092C243.922 265.446 243.399 264.922 242.753 264.922C242.108 264.922 241.584 265.446 241.584 266.092Z" fill="#303030" stroke="#303030" stroke-width="1.1584" stroke-miterlimit="10" stroke-linecap="round" stroke-linejoin="round"/>
<path d="M476.834 306.381L430 387.504H523.67H528.047L481.212 306.381H476.834ZM476.834 333.422L500.252 373.983H453.417L476.834 333.422Z" fill="#303030" stroke="#303030" stroke-width="1.25989" stroke-miterlimit="10" stroke-linecap="round" stroke-linejoin="round"/>
<path d="M481.212 306.381L434.378 387.504H528.048L481.212 306.381ZM481.212 333.422L504.63 373.983H457.795L481.212 333.422Z" fill="#D3FF3C" stroke="#303030" stroke-width="1.25989" stroke-miterlimit="10" stroke-linecap="round" stroke-linejoin="round"/>
<path d="M481.214 319.819L446.016 380.786H516.414L481.214 319.819Z" stroke="#303030" stroke-width="1.25989" stroke-miterlimit="10" stroke-linecap="round" stroke-linejoin="round"/>
<path d="M481.213 306.381L481.216 319.819" stroke="#303030" stroke-width="1.25989" stroke-miterlimit="10" stroke-linecap="round" stroke-linejoin="round"/>
<path d="M516.416 380.786L528.048 387.504" stroke="#303030" stroke-width="1.25989" stroke-miterlimit="10" stroke-linecap="round" stroke-linejoin="round"/>
<path d="M446.016 380.786L434.376 387.504" stroke="#303030" stroke-width="1.25989" stroke-miterlimit="10" stroke-linecap="round" stroke-linejoin="round"/>
<path d="M191.111 284.294C194.968 284.294 209.61 284.294 213.467 284.294C238.591 284.294 258.957 309.972 258.957 341.648C258.957 373.323 238.591 399.002 213.467 399.002C209.61 399.002 194.968 399.002 191.111 399.002C165.987 399.002 145.621 373.324 145.621 341.648C145.62 309.972 165.987 284.294 191.111 284.294Z" fill="#252525" stroke="#303030" stroke-width="1.48513" stroke-miterlimit="10" stroke-linecap="round" stroke-linejoin="round"/>
<path d="M191.111 399C216.234 399 236.6 373.322 236.6 341.646C236.6 309.971 216.234 284.292 191.111 284.292C165.988 284.292 145.621 309.971 145.621 341.646C145.621 373.322 165.988 399 191.111 399Z" fill="#303030" stroke="#303030" stroke-width="1.48513" stroke-miterlimit="10" stroke-linecap="round" stroke-linejoin="round"/>
<path d="M185.864 378.537C201.109 378.537 213.467 362.02 213.467 341.646C213.467 321.271 201.109 304.754 185.864 304.754C170.62 304.754 158.262 321.271 158.262 341.646C158.262 362.02 170.62 378.537 185.864 378.537Z" fill="#303030" stroke="#303030" stroke-width="1.48513" stroke-miterlimit="10" stroke-linecap="round" stroke-linejoin="round"/>
<path d="M158.269 341.647C158.269 342.699 158.296 343.739 158.38 344.765C158.797 351.555 160.59 357.806 163.398 363.042C164.468 365.07 165.705 366.957 167.095 368.651C172.002 374.786 178.605 378.534 185.86 378.534C194.742 378.534 202.637 372.938 207.669 364.236C208.781 362.349 209.754 360.309 210.546 358.139C212.173 353.852 213.173 349.078 213.396 344.034C213.451 343.251 213.465 342.454 213.465 341.647C213.465 340.351 213.41 339.066 213.313 337.796C212.882 332.149 211.492 326.873 209.365 322.278C208.378 320.148 207.238 318.172 205.945 316.362C200.928 309.212 193.783 304.759 185.859 304.759C177.575 304.759 170.139 309.649 165.092 317.388C163.896 319.198 162.84 321.149 161.951 323.241C159.963 327.81 158.712 332.995 158.378 338.54C158.297 339.567 158.269 340.594 158.269 341.647ZM165.594 326.501L176.353 336.153C176.158 336.846 176.005 337.564 175.88 338.309L163.009 338.476C163.301 334.176 164.204 330.134 165.594 326.501ZM175.742 312.858L180.189 329.363C179.911 329.633 179.648 329.915 179.397 330.211L168.582 320.521C170.57 317.35 173.003 314.732 175.742 312.858ZM188.739 309.842L185.986 325.089L181.941 310.06C183.206 309.739 184.527 309.584 185.86 309.584C186.834 309.585 187.793 309.675 188.739 309.842ZM202.735 319.878L193.339 330.171C192.963 329.722 192.546 329.312 192.116 328.939L195.146 312.305C198.037 314.09 200.623 316.682 202.735 319.878ZM208.685 337.86L196.829 338.028C196.732 337.476 196.62 336.937 196.481 336.411L205.946 326.028C207.378 329.607 208.337 333.599 208.685 337.86ZM206.823 354.802L196.745 345.753C196.842 345.265 196.926 344.765 196.996 344.251L208.783 344.084C208.588 347.884 207.907 351.49 206.823 354.802ZM197.815 369.035L193.478 352.941C193.701 352.671 193.923 352.389 194.118 352.094L204.153 361.078C202.416 364.248 200.261 366.956 197.815 369.035ZM184.012 373.592L187.098 356.625C187.237 356.612 187.376 356.612 187.501 356.599L191.824 372.617C189.919 373.335 187.918 373.708 185.86 373.708C185.236 373.708 184.624 373.669 184.012 373.592ZM170.265 365.185L180.357 354.109C180.454 354.199 180.565 354.276 180.663 354.378L177.55 371.538C174.839 370.075 172.363 367.907 170.265 365.185ZM162.995 344.701L175.811 344.535C175.991 345.895 176.326 347.178 176.757 348.385L166.721 359.384C164.677 355.11 163.357 350.105 162.995 344.701Z" fill="white" stroke="#303030" stroke-width="1.48513" stroke-miterlimit="10" stroke-linecap="round" stroke-linejoin="round"/>
<path d="M191.11 341.646C191.11 345.198 189.046 348.077 186.499 348.077C183.952 348.077 181.887 345.198 181.887 341.646C181.887 338.095 183.951 335.216 186.499 335.216C189.045 335.216 191.11 338.095 191.11 341.646Z" fill="#263238" stroke="#303030" stroke-width="1.48513" stroke-miterlimit="10" stroke-linecap="round" stroke-linejoin="round"/>
<path d="M96.5246 294.417H54.8587C53.3379 304.721 51.9022 311.759 56.3606 324.114C61.5338 338.453 69.3387 361.992 69.3387 361.992C65.5833 361.439 57.0636 359.907 51.2379 358.982C45.7984 358.119 43.7825 357.138 38.344 356.262C35.7182 355.84 33.244 355.346 30.751 354.381C28.146 353.373 25.5975 352.15 22.8421 351.596C21.3243 351.291 19.6709 351.216 18.3065 351.947C16.3392 353 15.5432 355.364 14.9511 357.515C13.7491 361.877 12.6749 366.274 11.7303 370.7C10.5789 376.094 9.61552 381.608 10.1017 387.102C10.2294 388.546 10.471 390.022 11.1997 391.275C12.0185 392.682 13.3996 393.699 14.8986 394.332C16.3976 394.966 18.0204 395.249 19.6352 395.456C22.3075 395.8 27.2431 395.953 29.9371 395.913C30.7242 395.901 31.5648 395.855 32.1975 395.388C33.1351 394.695 33.2707 393.342 33.1173 392.186C33.0014 391.308 32.7589 390.426 32.25 389.702C31.3173 388.373 27.3807 387.735 26.4708 386.391C25.651 385.18 25.6154 383.571 26.0312 382.169C26.447 380.767 27.2619 379.524 28.0668 378.303C28.7431 377.276 29.4292 376.239 30.3341 375.407C31.7955 374.064 33.347 373.679 35.1192 374.396C36.2113 374.838 38.1301 375.689 39.2053 376.169L40.8202 377.056C40.8202 377.056 59.0547 385.815 66.5972 388.996C74.5971 392.37 79.2317 394.144 88.1603 395.4C102.016 397.347 107.385 383.873 106.362 373.14C105.099 359.902 98.3632 314.279 96.5246 294.417Z" fill="#FFCCCC"/>
<path d="M45.4418 356.782C44.4666 354.413 41.0696 355.114 37.4815 354.106C35.6429 353.59 32.3301 352.844 30.8301 352.449C29.3301 352.055 24.7846 349.956 22.6331 349.623C20.4817 349.289 18.5916 349.697 17.0866 351.139C15.5807 352.58 14.6708 357.182 14.0619 362.511C13.6768 365.88 11.8639 374.022 11.3293 376.458C9.88671 383.035 9.61641 385.606 11.4996 389.183C13.3817 392.76 18.3074 395.654 23.2004 397.408C28.0935 399.161 32.3825 395.449 33.2845 393.622C34.1865 391.794 33.533 389.707 32.0122 388.096C30.4915 386.485 25.5103 387.231 26.6361 384.279C27.7628 381.327 28.3172 378.56 30.6944 377.616C33.0716 376.671 36.6973 377.429 37.8132 377.715C38.929 378.001 40.9874 378.602 41.8329 377.545C42.6785 376.487 44.6567 375.532 45.9012 368.091C46.9864 361.596 46.222 358.678 45.4418 356.782Z" fill="#263238"/>
<path d="M12.5452 347.768C10.167 348.012 8.34924 349.512 6.97301 356.081C5.49976 363.109 -1.01503 380.629 0.135452 388.198C1.28594 395.767 7.81459 398.838 22.7788 398.838C26.9946 376.15 25.7639 357.508 12.5452 347.768Z" fill="#39474E" stroke="#39474E" stroke-width="1.48513" stroke-miterlimit="10" stroke-linecap="round" stroke-linejoin="round"/>
<path d="M17.0002 392.775C22.1942 395.338 34.2268 393.737 34.2268 393.333C34.2268 388.005 32.6496 387.636 31.1516 386.568C29.2347 385.202 27.3833 383.407 28.3357 381.098C29.3268 378.697 30.8981 376.379 36.6555 377.618C36.6604 370.071 34.9951 369.292 29.1367 369.642C29.1367 369.642 30.2565 365.816 34.002 360.439C35.9198 357.688 36.6555 355.576 36.4317 353.825C35.307 351.33 32.7189 352.528 30.0169 351.147C27.0991 349.654 24.9556 349.396 23.0576 348.985C21.1596 348.574 18.5863 348.468 18.3725 348.502C16.1616 351.611 16.7299 361.177 15.1408 368.337C14.3854 371.742 13.5398 375.519 12.8854 378.982C11.7735 384.862 10.2349 389.436 17.0002 392.775Z" fill="#A3A0FF"/>
<path d="M33.1879 352.063C28.2513 354.211 25.0801 359.206 25.0801 365.454" stroke="#39474E" stroke-width="1.48513" stroke-miterlimit="10" stroke-linecap="round" stroke-linejoin="round"/>
<path d="M29.5844 385.282C27.3963 384.707 23.3627 384.993 21.2825 385.941C19.2014 386.888 17.1717 389.294 15.9717 391.412" stroke="#39474E" stroke-width="1.48513" stroke-miterlimit="10" stroke-linecap="round" stroke-linejoin="round"/>
<path d="M27.327 349.965C24.2082 351.991 21.9726 356.455 20.9597 360.395C19.4568 366.236 20.0558 372.783 16.832 377.88C15.2528 380.377 12.7598 382.55 12.543 385.497" stroke="#39474E" stroke-width="1.48513" stroke-miterlimit="10" stroke-linecap="round" stroke-linejoin="round"/>
<path d="M29.5758 368.542C25.4649 372.832 23.6372 379.195 24.8471 385.013" stroke="#39474E" stroke-width="1.48513" stroke-miterlimit="10" stroke-linecap="round" stroke-linejoin="round"/>
<path d="M7.49126 379.061C5.22495 389.645 10.7496 396.913 17.2694 398.162C20.7703 398.832 27.0802 398.939 30.3802 398.767C32.2435 398.67 33.7029 397.134 33.7029 395.268V393.703C33.7029 393.703 21.9515 394.25 18.5506 393.089C10.8338 390.453 11.9675 383.852 12.8873 378.982L15.1427 368.337C16.1773 364.876 20.3387 349.168 18.3743 348.502C17.3733 347.501 13.2645 347.484 12.5467 347.767C14.6417 348.881 14.3496 351.456 13.1348 357.278C11.7942 363.698 9.75758 368.477 7.49126 379.061Z" fill="white" stroke="#39474E" stroke-width="1.48513" stroke-miterlimit="10" stroke-linecap="round" stroke-linejoin="round"/>
<path d="M107.153 365.454C106.361 357.952 104.526 344.533 102.275 327.869C100.023 311.204 95.5067 284.271 95.5067 284.271H52.9596C48.7873 297.168 49.3269 305.698 51.2279 314.57C52.6942 321.411 55.7566 329.342 60.3833 341.066C63.3822 348.667 67.8386 360.439 67.8386 360.439C62.7961 359.275 52.4318 357.63 52.4318 357.63C55.5199 366.519 50.6299 379.956 46.9854 384.985C46.9854 384.985 56.9348 389.062 64.7387 391.553C72.5425 394.044 81.5137 397.863 89.7028 397.863C108.332 397.864 108.539 378.585 107.153 365.454Z" fill="#263238"/>
<path d="M79.7902 285.747C78.1902 293.733 78.8753 322.75 81.0288 334.247C86.0376 360.989 85.8267 367.188 81.5951 370.626" stroke="#39474E" stroke-width="1.48513" stroke-miterlimit="10" stroke-linecap="round" stroke-linejoin="round"/>
<path d="M53.627 366.047C56.8546 366.869 71.5268 370.421 75.104 371.35C76.9455 368.744 80.1614 369.588 81.595 370.627" stroke="#39474E" stroke-width="1.48513" stroke-miterlimit="10" stroke-linecap="round" stroke-linejoin="round"/>
<path d="M77.3378 375.799C76.5448 371.49 74.23 367.261 70.7042 364.613C70.3815 364.371 69.8775 364.564 69.6884 364.88C69.4627 365.257 69.6359 365.656 69.9547 365.895C73.1666 368.307 75.1884 372.294 75.9052 376.194C76.0784 377.133 77.5101 376.735 77.3378 375.799Z" fill="#39474E"/>
<path d="M51.958 386.958C55.5897 381.474 60.8352 368.503 56.9877 358.676" stroke="#39474E" stroke-width="1.48513" stroke-miterlimit="10" stroke-linecap="round" stroke-linejoin="round"/>
<path d="M67.8389 360.439C76.118 364.765 81.8318 367.187 84.3971 377.54" stroke="#39474E" stroke-width="1.48513" stroke-miterlimit="10" stroke-linecap="round" stroke-linejoin="round"/>
<path d="M181.11 386.99C176.921 385.07 171.435 383.818 163.957 378.838C158.599 375.269 157.255 373.949 155.906 371.517C153.827 367.767 154.572 362.664 154.572 362.664C156.321 354.681 162.65 330.772 164.722 318.183C167.711 300.012 159.034 293.167 148.381 292.645C144.59 292.459 123.123 291.903 113.421 293.688L110.063 286.192H73.4751C70.5474 290.964 68.886 309.908 75.78 318.792C80.9968 325.514 84.5294 328.932 100.819 329.907C112.606 330.613 134.118 325.06 134.118 325.06C131.59 334.352 133.277 347.784 133.777 361.28C133.809 362.125 134.196 366.635 132.786 371.86C132.005 374.754 123.924 388.955 127.661 391.609C128.196 391.989 131.17 392.74 131.827 392.771C144.571 393.374 166.11 393.123 173.321 392.771C180.532 392.42 182.181 392.078 182.803 391.4C184.129 389.949 182.552 387.651 181.11 386.99Z" fill="#FFCCCC"/>
<path d="M161.785 295.218C153.734 287.563 132.733 288.679 114.021 290.84C114.021 290.84 112.114 287.32 111.018 284.493L71.3147 284.272C69.0266 296.457 67.4652 304.422 70.7711 313.746C74.077 323.07 80.5037 330.435 96.5214 331.464C114.19 332.598 131.755 327.267 131.755 327.267C131.288 331.457 130.571 337.352 130.632 342.384C130.708 348.636 130.81 353.038 131.282 357.316C131.282 357.316 134.645 358.743 143.736 358.743C152.826 358.743 160.089 356.111 160.089 356.111C161.433 349.311 165.005 326.538 165.972 319.423C167.448 308.578 167.022 300.198 161.785 295.218Z" fill="#263238"/>
<path d="M160.09 356.111C161.433 349.311 165.006 326.538 165.973 319.423C167.449 308.578 167.022 300.196 161.786 295.217" stroke="#39474E" stroke-width="1.48513" stroke-miterlimit="10" stroke-linecap="round" stroke-linejoin="round"/>
<path d="M71.3147 284.272C69.0266 296.457 67.4652 304.422 70.7711 313.746C74.077 323.07 80.5037 330.435 96.5214 331.464C98.6194 331.598 100.716 331.642 102.783 331.614" stroke="#39474E" stroke-width="1.48513" stroke-miterlimit="10" stroke-linecap="round" stroke-linejoin="round"/>
<path d="M133.836 362.658C131.916 362.527 131.649 363.803 131.689 365.553C131.724 367.135 131.831 369.241 131.785 370.364C130.992 372.697 128.862 380.095 127.923 383.215C125.227 392.168 127.087 392.293 133.446 393.374C140.479 394.57 159.704 394.58 168.94 394.356C178.175 394.131 183.067 393.5 183.252 391.292C183.436 389.084 182.783 388.526 179.95 387.255C177.116 385.984 173.791 384.525 166.866 379.88C160.038 375.301 157.526 372.102 156.394 369.419C155.825 368.072 156.21 366.127 156.143 365.065C156.061 363.773 155.995 362.883 154.573 362.666L153.931 364.838C153.931 364.838 150.823 366.626 144.64 366.925C138.456 367.224 134.054 364.632 134.054 364.632" fill="#263238"/>
<path d="M186.161 389.509C186.455 391.094 186.393 393.282 186.393 393.282C186.393 393.282 178.831 395.018 172.222 395.018C162.918 395.018 152.031 393.97 147.914 394.01C141.082 394.077 128.594 394.805 124.941 392.774C124.893 392.537 124.861 392.292 124.847 392.031C124.719 389.186 126.96 382.688 128.549 379.162C130.018 375.898 128.471 370.334 131.788 370.366C131.695 373.449 133.52 376.277 136.58 377.206C141.662 378.748 148.58 377.257 150.172 374.047C148.667 369.825 150.399 368.905 156.279 367.729C158.034 367.353 158.057 373.286 167.936 378.748C171.504 380.721 175.893 382.607 180.319 384.472C183.87 385.969 185.72 387.125 186.161 389.509Z" fill="#A3A0FF"/>
<path d="M149.949 373.638C154.267 378.801 159.998 384.069 170.841 386.282" stroke="#39474E" stroke-width="1.48513" stroke-miterlimit="10" stroke-linecap="round" stroke-linejoin="round"/>
<path d="M129.038 376.205C129.42 377.508 130.367 378.551 131.501 379.262C132.636 379.974 133.955 380.382 135.289 380.692C138.855 381.522 142.633 381.695 146.388 381.201" stroke="#39474E" stroke-width="1.48513" stroke-miterlimit="10" stroke-linecap="round" stroke-linejoin="round"/>
<path d="M126.793 383.807C132.047 386.551 138.413 386.844 144.59 386.695C145.947 386.662 147.309 386.611 148.651 386.699C153.743 387.034 155.14 389.196 159.796 390.955C164.508 392.735 166.077 394.036 169.44 394.036" stroke="#39474E" stroke-width="1.48513" stroke-miterlimit="10" stroke-linecap="round" stroke-linejoin="round"/>
<path d="M174.02 381.996C170.996 384.67 169.621 389.307 169.583 393.375" stroke="#39474E" stroke-width="1.48513" stroke-miterlimit="10" stroke-linecap="round" stroke-linejoin="round"/>
<path d="M186.062 394.904C186.118 396.819 184.55 398.544 182.611 398.693C179.648 398.919 174.085 399.003 162.295 399.003H131.395C127.235 399.003 124.842 398.867 124.288 397.145C123.882 395.883 124.39 394.037 124.94 392.774C128.593 394.806 140.124 393.929 147.913 394.011C152.022 394.053 162.203 394.037 171.507 394.037C176.025 394.037 185.909 393.561 185.909 393.561C185.909 393.561 186.038 394.092 186.062 394.904Z" fill="white" stroke="#39474E" stroke-width="1.48513" stroke-miterlimit="10" stroke-linecap="round" stroke-linejoin="round"/>
<path d="M144.203 313.246C136.692 316.236 132.398 321.411 131.756 327.267" stroke="#39474E" stroke-width="1.48513" stroke-miterlimit="10" stroke-linecap="round" stroke-linejoin="round"/>
<path d="M138.567 316.618C136.422 322.961 135.523 344.468 136.691 358.397" stroke="#39474E" stroke-width="1.48513" stroke-miterlimit="10" stroke-linecap="round" stroke-linejoin="round"/>
<path d="M130.875 352.075C137.306 353.986 154.025 353.216 161.03 350.983" stroke="#39474E" stroke-width="1.48513" stroke-miterlimit="10" stroke-linecap="round" stroke-linejoin="round"/>
<path d="M140.711 315.051C131.284 316.656 122.386 320.361 107.768 318.052C93.1507 315.744 89.4844 305.485 91.1804 294.494C98.2279 294.867 99.8358 291.563 101.275 284.445" stroke="#39474E" stroke-width="1.48513" stroke-miterlimit="10" stroke-linecap="round" stroke-linejoin="round"/>
<path d="M91.1816 294.495C91.546 291.68 92.6311 285.81 92.8826 284.272" stroke="#39474E" stroke-width="1.48513" stroke-miterlimit="10" stroke-linecap="round" stroke-linejoin="round"/>
<path d="M114.023 290.84C108.911 292.15 105.827 292.804 98.9717 296.535" stroke="#39474E" stroke-width="1.48513" stroke-miterlimit="10" stroke-linecap="round" stroke-linejoin="round"/>
<path d="M53.9688 287.32L69.4369 295.145L92.3466 287.32H112.113" stroke="#39474E" stroke-width="1.48513" stroke-miterlimit="10" stroke-linecap="round" stroke-linejoin="round"/>
<path d="M123.377 196.134C120.649 206.032 104.588 216.247 94.362 213.429C92.0532 209.018 87.8136 201.111 89.4997 191.698C90.9829 183.422 96.3502 179.5 110.958 178.958C125.565 178.418 132.344 186.952 123.377 196.134Z" fill="#141414"/>
<path d="M88.791 224.585L94.3603 213.428C96.3741 214.22 100.814 213.875 103.394 211.848C106.093 209.729 105.727 207.533 105.727 207.533C105.727 207.533 104.479 203.882 104.11 202.135C104.11 202.135 104.616 201.453 105.535 200.278C107.169 201.824 106.966 203.212 107.834 203.633C109.005 204.199 110.93 200.897 108.931 196.206C114.563 194.754 117.906 189.064 116.237 184.748C119.898 185.349 122.06 187.246 124.232 191.327C124.232 191.327 125.826 194.251 125.543 198.472C125.354 201.345 125.154 201.705 124.764 203.927C124.44 205.751 124.137 208.219 124.005 210.772C123.827 214.156 123.619 216.819 121.81 218.717C119.999 220.615 116.893 220.707 115.006 220.69C113.118 220.672 111.661 220.787 109.077 220.021L107.486 228.657L88.791 224.585Z" fill="#FFCCCC"/>
<path d="M115.225 183.959C117.172 184.792 117.841 185.517 118.535 186.883C119.23 188.248 119.199 190.371 118.823 191.699" stroke="#141414" stroke-width="1.48513" stroke-miterlimit="10" stroke-linecap="round" stroke-linejoin="round"/>
<path d="M106.149 200.865C105.143 199.457 103.053 198.422 100.577 199.175C98.3412 199.854 97.0273 201.987 97.2234 204.166C97.4164 206.32 98.9907 207.907 100.824 208.617C103.064 209.483 104.854 208.802 106.201 207.908" fill="#FFCCCC"/>
<path d="M106.149 200.865C105.143 199.457 103.053 198.422 100.577 199.175C98.3412 199.854 97.0273 201.987 97.2234 204.166C97.4164 206.32 98.9907 207.907 100.824 208.617C103.064 209.483 104.854 208.802 106.201 207.908" stroke="#141414" stroke-width="1.48513" stroke-miterlimit="10" stroke-linecap="round" stroke-linejoin="round"/>
<path d="M100.497 203.874C100.873 202.858 101.71 202.271 102.637 202.372C103.563 202.473 104.55 203.259 105.16 204.382" stroke="#DAB1B1" stroke-width="1.48513" stroke-miterlimit="10" stroke-linecap="round" stroke-linejoin="round"/>
<path d="M102.454 204.647C102.594 204.18 102.885 203.851 103.22 203.64C103.556 203.429 103.954 203.351 104.333 203.312" stroke="#DAB1B1" stroke-width="1.48513" stroke-miterlimit="10" stroke-linecap="round" stroke-linejoin="round"/>
<path d="M115.791 200.702C115.791 200.702 116.671 199.615 117.917 198.898C118.864 198.353 120.283 198.346 120.818 198.661C121.112 198.978 121.294 199.554 121.036 200.806C120.173 201.976 117.858 201.68 115.791 200.702Z" fill="white"/>
<path d="M120.981 200.091C120.905 200.995 120.23 201.656 119.472 201.568C118.715 201.48 118.161 200.675 118.237 199.771C118.314 198.867 118.989 198.206 119.746 198.294C120.505 198.383 121.057 199.187 120.981 200.091Z" fill="#39474E"/>
<path d="M118.128 198.965L119.663 199.899L117.676 200.054L118.128 198.965Z" fill="white"/>
<path d="M120.818 198.66C118.975 198.209 117.189 199.006 115.791 200.701" stroke="#39474E" stroke-width="1.48513" stroke-miterlimit="10" stroke-linecap="round" stroke-linejoin="round"/>
<path d="M124.166 208.545C125.941 208.288 127.219 207.945 127.271 205.899C127.299 204.813 126.281 200.783 124.309 197.618" fill="#FFCCCC"/>
<path d="M124.166 208.545C125.941 208.288 127.219 207.945 127.271 205.899C127.299 204.813 126.281 200.783 124.309 197.618" stroke="#DAB1B1" stroke-width="1.48513" stroke-miterlimit="10" stroke-linecap="round" stroke-linejoin="round"/>
<path d="M121.623 194.975C119.361 194.19 117.453 195.502 115.05 197.237" stroke="#39474E" stroke-width="1.48513" stroke-miterlimit="10" stroke-linecap="round" stroke-linejoin="round"/>
<path d="M118.016 209.774C119.704 211.288 121.459 211.357 122.242 211.312" stroke="#39474E" stroke-width="1.48513" stroke-miterlimit="10" stroke-linecap="round" stroke-linejoin="round"/>
<path d="M115.298 220.41C113.48 220.496 111.671 220.237 109.644 219.669L109.84 218.59C110.868 219.109 112.852 219.955 115.298 220.41Z" fill="#DAB1B1" stroke="#DAB1B1" stroke-width="0.99009"/>
<path d="M81.8461 222.094C74.7373 223.03 69.4403 224.526 61.4404 235.296C53.4404 246.065 47.286 253.911 45.7474 257.604C44.2088 261.296 43.1494 265.143 46.987 268.835C50.8246 272.527 56.979 273.28 61.5938 273.28C66.2096 273.28 81.8461 273.28 81.8461 273.28V222.094Z" fill="#FFCCCC"/>
<path d="M83.9548 221.163C73.2875 221.163 68.0559 224.219 61.0778 233.681C55.7966 240.842 50.3115 248.667 50.3115 248.667C51.6709 255.83 63.5956 263.833 70.3331 261.775L83.9538 244.286V221.163H83.9548Z" fill="#263238"/>
<path d="M83.9538 221.163C99.2299 219.838 116.665 223.898 116.665 223.898C116.665 223.898 126.613 234.387 124.503 244.916C122.393 255.444 119.38 257.645 115.752 267.317C113.754 272.641 111.134 278.743 111.287 282.8C113.404 284.446 114.909 286.957 114.909 290.84C103.414 291.036 93.7527 300.875 69.0312 298.839C58.2293 297.949 50.9739 295.146 50.3115 291.233C51.5452 278.406 56.8867 253.046 65.6342 236.33C69.4747 228.988 75.6786 223.445 83.9538 221.163Z" fill="#A3A0FF"/>
<path d="M119.164 224.914C127.088 226.214 129.216 231.501 133.204 244.902C136.857 257.181 138.876 264.825 140.727 273.544C142.949 284.009 134.86 287.731 130.182 287.731C125.504 287.731 123.087 283.537 120.826 276.978C118.708 270.835 111.287 251.638 111.287 251.638L119.164 224.914Z" fill="#FFCCCC"/>
<path d="M133.249 240.329C129.601 228.928 127.824 226.731 116.665 223.899C110.633 231.157 109.493 242.514 110.945 252.366L117.789 270.631C117.789 270.631 122.755 271.563 129.838 269.792C137.979 267.756 138.938 262.274 138.938 262.274C138.938 262.274 135.753 248.158 133.249 240.329Z" fill="#263238"/>
<path d="M175.12 281.336C175.225 281.582 175.328 281.827 175.431 282.073C175.626 282.536 175.821 283.003 175.934 283.492C176.045 283.972 176.046 284.545 175.68 284.875C175.457 285.075 175.141 285.139 174.841 285.139C173.837 285.139 172.933 284.516 172.254 283.776C171.596 283.059 171.037 282.244 170.418 281.499C169.765 280.714 169.009 280.028 168.249 279.35C167.663 278.826 167.032 278.281 166.256 278.154C167.229 279.308 167.814 280.731 168.373 282.134C168.61 282.732 168.848 283.335 168.96 283.968C169.005 284.223 169.024 284.507 168.883 284.723C168.73 284.957 168.436 285.048 168.162 285.098C167.838 285.156 167.503 285.18 167.182 285.112C166.377 284.94 165.808 284.247 165.286 283.612C164.157 282.238 162.939 280.938 161.642 279.723C161.224 279.331 160.797 278.945 160.453 278.488C160.109 278.03 159.852 277.488 159.831 276.916C159.825 276.756 159.84 276.59 159.925 276.455C160.013 276.317 160.163 276.231 160.307 276.151C160.849 275.852 161.338 275.553 161.934 275.404C162.621 275.231 163.267 275.076 163.977 275.01C166.295 274.793 169.098 274.785 171.188 276.004C172.281 276.641 173.064 277.443 173.716 278.51C174.268 279.409 174.706 280.369 175.12 281.336Z" fill="#AD6163"/>
<path d="M127.697 287.289C129.244 288.054 136.003 288.227 138.973 287.367C144.451 285.779 152.447 282.942 152.447 282.942C154.169 282.48 157.038 283.153 158.802 282.943C160.858 282.697 162.976 282.256 164.623 281.001C165.247 280.527 165.784 279.95 166.36 279.418C166.926 278.895 167.599 278.389 168.369 278.389C170.647 278.391 173.285 280.155 174.428 282.089C175.852 284.498 177.993 284.209 177.993 283.358C177.993 281.898 177.38 280.533 176.731 279.225C175.519 276.78 175.182 276 174.302 275.163C173.26 274.171 171.135 272.975 169.862 272.315C168.653 271.688 167.817 271.205 166.47 270.985C164.674 270.69 162.616 270.894 158.585 271.059C156.504 271.144 155.558 271.249 151.544 271.378C141.693 271.695 124.5 271.574 124.5 271.574L127.697 287.289Z" fill="#FFCCCC"/>
<path d="M139.182 269.99C139.705 272.085 139.77 274.263 139.1 276.332C138.805 277.244 140.239 277.634 140.532 276.727C141.28 274.413 141.198 271.935 140.614 269.594C140.383 268.668 138.951 269.06 139.182 269.99Z" fill="#DAB1B1"/>
<path d="M151.545 271.378C154.816 272.778 155.78 280.226 152.446 282.943L151.424 283.354C151.424 283.354 151.246 284.075 152.245 284.05C153.677 284.013 154.388 283.857 155.299 283.412C156.209 282.967 157.236 280.904 157.446 278.413C157.686 275.582 156.132 271.43 154.9 270.839C153.464 270.151 152.733 270.444 151.319 270.63C149.905 270.817 150.331 271.505 150.331 271.505L151.545 271.378Z" fill="#4842FB"/>
<path d="M384.312 357H286.688C283.546 357 281 359.546 281 362.688V383.225C281 386.367 283.546 388.913 286.688 388.913H384.312C387.454 388.913 390 386.367 390 383.225V362.688C390 359.547 387.454 357 384.312 357Z" fill="#303030" stroke="#252525" stroke-width="1.3368" stroke-miterlimit="10" stroke-linecap="round" stroke-linejoin="round"/>
<path d="M281 369.704H390" stroke="#252525" stroke-width="1.3368" stroke-miterlimit="10" stroke-linecap="round" stroke-linejoin="round"/>
<path d="M390 376.601H281" stroke="#252525" stroke-width="1.3368" stroke-miterlimit="10" stroke-linecap="round" stroke-linejoin="round"/>
<path d="M286.689 357V361.083" stroke="#252525" stroke-width="1.3368" stroke-miterlimit="10" stroke-linecap="round" stroke-linejoin="round"/>
<path d="M292.433 357V361.083" stroke="#252525" stroke-width="1.3368" stroke-miterlimit="10" stroke-linecap="round" stroke-linejoin="round"/>
<path d="M298.176 357V361.083" stroke="#252525" stroke-width="1.3368" stroke-miterlimit="10" stroke-linecap="round" stroke-linejoin="round"/>
<path d="M303.917 357V361.083" stroke="#252525" stroke-width="1.3368" stroke-miterlimit="10" stroke-linecap="round" stroke-linejoin="round"/>
<path d="M309.661 357V361.083" stroke="#252525" stroke-width="1.3368" stroke-miterlimit="10" stroke-linecap="round" stroke-linejoin="round"/>
<path d="M315.403 357V361.083" stroke="#252525" stroke-width="1.3368" stroke-miterlimit="10" stroke-linecap="round" stroke-linejoin="round"/>
<path d="M321.146 357V361.083" stroke="#252525" stroke-width="1.3368" stroke-miterlimit="10" stroke-linecap="round" stroke-linejoin="round"/>
<path d="M326.888 357V361.083" stroke="#252525" stroke-width="1.3368" stroke-miterlimit="10" stroke-linecap="round" stroke-linejoin="round"/>
<path d="M332.633 357V361.083" stroke="#252525" stroke-width="1.3368" stroke-miterlimit="10" stroke-linecap="round" stroke-linejoin="round"/>
<path d="M338.373 357V361.083" stroke="#252525" stroke-width="1.3368" stroke-miterlimit="10" stroke-linecap="round" stroke-linejoin="round"/>
<path d="M344.116 357V361.083" stroke="#252525" stroke-width="1.3368" stroke-miterlimit="10" stroke-linecap="round" stroke-linejoin="round"/>
<path d="M349.858 357V361.083" stroke="#252525" stroke-width="1.3368" stroke-miterlimit="10" stroke-linecap="round" stroke-linejoin="round"/>
<path d="M355.601 357V361.083" stroke="#252525" stroke-width="1.3368" stroke-miterlimit="10" stroke-linecap="round" stroke-linejoin="round"/>
<path d="M361.343 357V361.083" stroke="#252525" stroke-width="1.3368" stroke-miterlimit="10" stroke-linecap="round" stroke-linejoin="round"/>
<path d="M367.089 357V361.083" stroke="#252525" stroke-width="1.3368" stroke-miterlimit="10" stroke-linecap="round" stroke-linejoin="round"/>
<path d="M372.828 357V361.083" stroke="#252525" stroke-width="1.3368" stroke-miterlimit="10" stroke-linecap="round" stroke-linejoin="round"/>
<path d="M378.571 357V361.083" stroke="#252525" stroke-width="1.3368" stroke-miterlimit="10" stroke-linecap="round" stroke-linejoin="round"/>
<path d="M384.314 357V361.083" stroke="#252525" stroke-width="1.3368" stroke-miterlimit="10" stroke-linecap="round" stroke-linejoin="round"/>
<path d="M286.761 384.546V388.629" stroke="#252525" stroke-width="1.3368" stroke-miterlimit="10" stroke-linecap="round" stroke-linejoin="round"/>
<path d="M292.504 384.546V388.629" stroke="#252525" stroke-width="1.3368" stroke-miterlimit="10" stroke-linecap="round" stroke-linejoin="round"/>
<path d="M298.245 384.546V388.629" stroke="#252525" stroke-width="1.3368" stroke-miterlimit="10" stroke-linecap="round" stroke-linejoin="round"/>
<path d="M303.987 384.546V388.629" stroke="#252525" stroke-width="1.3368" stroke-miterlimit="10" stroke-linecap="round" stroke-linejoin="round"/>
<path d="M309.73 384.546V388.629" stroke="#252525" stroke-width="1.3368" stroke-miterlimit="10" stroke-linecap="round" stroke-linejoin="round"/>
<path d="M315.475 384.546V388.629" stroke="#252525" stroke-width="1.3368" stroke-miterlimit="10" stroke-linecap="round" stroke-linejoin="round"/>
<path d="M321.217 384.546V388.629" stroke="#252525" stroke-width="1.3368" stroke-miterlimit="10" stroke-linecap="round" stroke-linejoin="round"/>
<path d="M326.958 384.546V388.629" stroke="#252525" stroke-width="1.3368" stroke-miterlimit="10" stroke-linecap="round" stroke-linejoin="round"/>
<path d="M332.702 384.546V388.629" stroke="#252525" stroke-width="1.3368" stroke-miterlimit="10" stroke-linecap="round" stroke-linejoin="round"/>
<path d="M338.443 384.546V388.629" stroke="#252525" stroke-width="1.3368" stroke-miterlimit="10" stroke-linecap="round" stroke-linejoin="round"/>
<path d="M344.187 384.546V388.629" stroke="#252525" stroke-width="1.3368" stroke-miterlimit="10" stroke-linecap="round" stroke-linejoin="round"/>
<path d="M349.93 384.546V388.629" stroke="#252525" stroke-width="1.3368" stroke-miterlimit="10" stroke-linecap="round" stroke-linejoin="round"/>
<path d="M355.672 384.546V388.629" stroke="#252525" stroke-width="1.3368" stroke-miterlimit="10" stroke-linecap="round" stroke-linejoin="round"/>
<path d="M361.413 384.546V388.629" stroke="#252525" stroke-width="1.3368" stroke-miterlimit="10" stroke-linecap="round" stroke-linejoin="round"/>
<path d="M367.157 384.546V388.629" stroke="#252525" stroke-width="1.3368" stroke-miterlimit="10" stroke-linecap="round" stroke-linejoin="round"/>
<path d="M372.898 384.546V388.629" stroke="#252525" stroke-width="1.3368" stroke-miterlimit="10" stroke-linecap="round" stroke-linejoin="round"/>
<path d="M378.642 384.546V388.629" stroke="#252525" stroke-width="1.3368" stroke-miterlimit="10" stroke-linecap="round" stroke-linejoin="round"/>
<path d="M384.386 384.546V388.629" stroke="#252525" stroke-width="1.3368" stroke-miterlimit="10" stroke-linecap="round" stroke-linejoin="round"/>
<path d="M76.47 194.468L70.1934 197.596C68.1278 202.475 64.5856 206.81 59.6818 209.865C48.115 217.071 32.6842 214.247 24.4207 203.434C14.8731 190.94 18.1145 172.918 31.5852 164.539C43.0209 157.426 58.2344 160.087 66.5662 170.644C70.7008 175.883 72.537 182.134 72.2851 188.252L72.2897 188.237L76.47 194.468Z" fill="#D3FF3C"/>
<path d="M76.4713 194.467C76.4713 194.467 76.3627 194.325 76.1738 194.056C75.9758 193.771 75.7015 193.375 75.3467 192.864C74.6204 191.805 73.5683 190.272 72.2101 188.29L72.3848 188.265C72.3848 188.265 72.3821 188.274 72.3802 188.28C72.3641 188.331 72.3086 188.36 72.2576 188.345C72.214 188.331 72.1878 188.29 72.1889 188.246C72.2944 184.959 71.8582 180.473 69.5696 175.747C68.4401 173.394 66.8341 171.03 64.7557 168.841C62.6608 166.671 60.0371 164.734 56.9765 163.296C53.9135 161.874 50.4119 160.978 46.7211 160.828C43.0401 160.684 39.1466 161.245 35.4997 162.811C31.8504 164.34 28.4366 166.763 25.6765 169.902C22.8931 173.027 20.9062 176.964 19.9137 181.198C19.3553 183.333 19.2204 185.528 19.1874 187.683C19.2506 188.758 19.2981 189.835 19.4427 190.892L19.7213 192.464L19.8637 193.246L20.0825 194.008C21.1654 198.091 23.2315 201.774 25.8587 204.776C28.4793 207.803 31.7865 210.002 35.1964 211.469C38.622 212.93 42.2011 213.62 45.6054 213.643C49.0131 213.653 52.2378 213.017 55.0782 211.945C55.7746 211.643 56.4606 211.346 57.134 211.054C57.8004 210.748 58.4135 210.362 59.0387 210.03C60.2789 209.344 61.3881 208.536 62.4093 207.719C66.505 204.406 68.8123 200.54 70.106 197.555C70.1151 197.534 70.1319 197.516 70.1515 197.507C72.1612 196.533 73.7254 195.774 74.8078 195.249C75.3326 194.998 75.7407 194.803 76.0355 194.661C76.3162 194.532 76.4713 194.467 76.4713 194.467C76.4713 194.467 76.3486 194.54 76.0844 194.679C75.7992 194.827 75.4047 195.032 74.8965 195.296C73.8127 195.85 72.2485 196.65 70.2367 197.68L70.2822 197.632C69.0186 200.654 66.7251 204.58 62.605 207.959C61.5765 208.793 60.46 209.618 59.2087 210.32C58.5778 210.661 57.9578 211.053 57.2843 211.368C56.603 211.668 55.9102 211.972 55.2051 212.282C52.3309 213.383 49.0632 214.043 45.604 214.047C42.149 214.037 38.5117 213.348 35.0263 211.872C31.5565 210.392 28.1879 208.16 25.5138 205.085C22.8345 202.036 20.7272 198.29 19.6201 194.133L19.3973 193.357L19.2507 192.561C19.1557 192.028 19.0616 191.495 18.9658 190.959C18.8181 189.884 18.7687 188.787 18.7047 187.693C18.7358 185.498 18.8752 183.263 19.4421 181.091C20.4529 176.779 22.4792 172.771 25.3151 169.591C28.1278 166.395 31.6041 163.936 35.3214 162.386C39.0353 160.799 42.9987 160.237 46.7382 160.394C50.4884 160.556 54.0409 161.478 57.146 162.933C60.2471 164.403 62.9003 166.381 65.014 168.591C67.1103 170.821 68.7207 173.223 69.8491 175.612C72.1331 180.408 72.5318 184.945 72.384 188.254L72.1927 188.221C72.1945 188.216 72.1972 188.206 72.1972 188.206C72.2133 188.155 72.2673 188.126 72.319 188.142C72.3415 188.149 72.3602 188.163 72.372 188.181C73.7037 190.212 74.7363 191.784 75.4478 192.869C75.7806 193.382 76.0382 193.78 76.2234 194.067C76.3963 194.335 76.4713 194.467 76.4713 194.467Z" fill="#8AB200"/>
<path d="M33.8291 188.858L37.174 185.282L44.0537 190.983L56.7328 177.942L60.0659 181.291L43.7866 197.669L33.8291 188.858Z" fill="#4842FB"/>
</g>
<defs>
<clipPath id="clip0_575_3347">
<rect width="545" height="471" fill="white"/>
</clipPath>
</defs>
</svg>
