<svg width="316" height="273" viewBox="0 0 316 273" fill="none" xmlns="http://www.w3.org/2000/svg">
<path fill-rule="evenodd" clip-rule="evenodd" d="M-211.021 2.28501C-206.12 -1.29908 -199.241 -0.23117 -195.657 4.67032L-118.132 110.69L-82.7119 26.9814C-81.024 22.9922 -77.1511 20.3659 -72.8205 20.2738C-68.4898 20.1816 -64.5087 22.6408 -62.6526 26.5546L-20.768 114.87L47.0411 25.6728C49.8925 21.9219 54.817 20.4049 59.2848 21.901C63.7526 23.3971 66.7704 27.5737 66.7881 32.2853L67.2557 156.873L140.139 87.3773C143.57 84.1062 148.71 83.402 152.894 85.6301C157.078 87.8582 159.363 92.5169 158.563 97.189L139.088 210.979L244.199 200.282C248.947 199.799 253.465 202.434 255.381 206.806C257.298 211.177 256.175 216.286 252.601 219.45L184.728 279.563L305.716 298.156C310.239 298.851 313.858 302.274 314.803 306.752C315.749 311.229 313.822 315.823 309.966 318.287L187.124 396.783C182.007 400.052 175.209 398.555 171.939 393.438C168.67 388.322 170.167 381.523 175.284 378.254L273.553 315.46L158.225 297.737C154.011 297.089 150.551 294.064 149.348 289.973C148.144 285.883 149.414 281.466 152.606 278.639L212.478 225.613L126.925 234.32C123.506 234.668 120.122 233.398 117.777 230.887C115.432 228.376 114.395 224.914 114.974 221.527L131.29 126.198L63.9443 190.413C60.7658 193.444 56.0886 194.292 52.0481 192.571C48.0077 190.85 45.3792 186.889 45.3627 182.497L44.9209 64.7959L-14.2031 142.569C-16.5261 145.625 -20.2746 147.248 -24.0924 146.851C-27.9103 146.454 -31.2448 144.095 -32.8896 140.626L-72.0149 58.1287L-105.437 137.115C-106.98 140.761 -110.363 143.296 -114.295 143.752C-118.227 144.208 -122.101 142.516 -124.437 139.32L-213.406 17.6496C-216.991 12.7481 -215.923 5.86912 -211.021 2.28501Z" fill="#BEBCF5" fill-opacity="0.08"/>
</svg>
