<svg width="529" height="532" viewBox="0 0 529 532" fill="none" xmlns="http://www.w3.org/2000/svg">
<path d="M144.301 425.835C133.655 427.494 121.162 424.14 111.247 419.926C101.332 415.713 92.8485 407.514 89.7425 397.206C86.6365 386.897 89.6376 374.634 98.1004 367.971C107.164 360.835 120.792 361.346 130.585 367.445C140.377 373.543 146.056 386.976 146.755 398.483C147.545 411.48 148.109 415.537 144.301 425.835Z" fill="#FFCC12"/>
<path d="M148.79 424.958C146.87 424.703 144.948 424.108 143.431 422.903L143.275 424.376C143.001 425.958 144.059 428.974 144.761 430.418C144.964 430.835 145.316 431.292 145.775 431.23C146.265 431.163 146.47 430.554 146.437 430.061C146.404 429.568 146.241 429.055 146.422 428.595C146.725 429.012 147.043 429.443 147.496 429.689C147.949 429.936 148.577 429.943 148.926 429.563C149.281 429.176 149.211 428.538 148.911 428.107C148.612 427.676 148.138 427.406 147.681 427.149C148.305 427.315 148.969 427.479 149.589 427.298C150.209 427.114 150.734 426.442 150.511 425.835C150.278 425.197 149.463 425.046 148.79 424.958Z" fill="#FFCC12"/>
<path d="M145.12 423.479C145.282 423.473 145.324 424.381 144.629 425.166C143.938 425.956 143.033 426.031 143.018 425.87C142.975 425.704 143.632 425.41 144.179 424.771C144.742 424.147 144.949 423.458 145.12 423.479Z" fill="#FFCC12"/>
<path d="M138.476 381.195C137.735 381.245 137.127 381.8 136.905 382.508C136.485 383.845 137.097 385.076 137.636 386.256C141.954 395.73 142.373 406.909 138.778 416.678C138.256 418.098 137.72 419.884 138.783 420.959C139.573 421.757 140.937 421.699 141.907 421.13C142.552 420.751 143.294 420.097 143.931 419.035C144.45 418.169 144.775 417.197 144.923 416.199C146.678 404.366 145.236 394.822 140.869 383.528C140.437 382.41 139.711 381.111 138.476 381.195Z" fill="#FFCC12"/>
<path d="M131.909 372.768C130.652 372.886 129.753 374.184 130.369 375.474L130.328 375.416C130.866 376.375 131.602 377.432 132.536 378.015C133.471 378.597 134.875 378.585 135.516 377.69C136.176 376.77 135.728 375.463 135.058 374.549C134.312 373.532 133.167 372.651 131.909 372.768Z" fill="#FFCC12"/>
<path d="M92.1112 378.557C92.1204 378.56 92.0939 378.659 92.0328 378.841C91.959 379.054 91.8668 379.316 91.7562 379.633C91.6928 379.808 91.6248 379.997 91.5499 380.202C91.4807 380.412 91.4208 380.646 91.3482 380.893C91.211 381.391 91.0209 381.948 90.901 382.587C90.8319 382.905 90.7593 383.238 90.6843 383.582C90.6106 383.929 90.5726 384.296 90.5115 384.672C90.3766 385.424 90.3294 386.238 90.2579 387.093C90.1784 388.805 90.228 390.695 90.5022 392.656C90.8007 394.615 91.294 396.44 91.8599 398.058C92.1734 398.856 92.4511 399.624 92.7957 400.305C92.9617 400.649 93.1035 400.991 93.2729 401.301C93.4435 401.61 93.6083 401.908 93.7661 402.193C94.0635 402.772 94.4058 403.251 94.6789 403.689C94.8195 403.905 94.944 404.111 95.0696 404.293C95.1999 404.468 95.3197 404.629 95.4304 404.779C95.6274 405.052 95.79 405.276 95.9213 405.458C96.0308 405.616 96.085 405.703 96.0769 405.708C96.0689 405.715 95.9997 405.642 95.8752 405.495C95.7312 405.321 95.5537 405.107 95.3382 404.847C95.2206 404.702 95.0927 404.544 94.9555 404.374C94.8219 404.196 94.6905 403.993 94.5418 403.78C94.2537 403.348 93.8964 402.872 93.5852 402.296C93.4204 402.012 93.2498 401.715 93.0712 401.406C92.8949 401.095 92.7473 400.753 92.5745 400.409C92.2172 399.725 91.9279 398.955 91.6041 398.151C91.0174 396.522 90.5103 394.677 90.2095 392.697C89.9318 390.716 89.8903 388.804 89.9859 387.074C90.0666 386.212 90.1219 385.39 90.2694 384.633C90.3363 384.254 90.3812 383.885 90.4608 383.536C90.5426 383.189 90.6221 382.855 90.6982 382.536C90.8319 381.895 91.0382 381.338 91.1903 380.841C91.2721 380.595 91.3401 380.362 91.4173 380.154C91.5003 379.951 91.5775 379.764 91.649 379.591C91.7804 379.28 91.8887 379.024 91.9775 378.816C92.0558 378.643 92.1019 378.553 92.1112 378.557Z" fill="#FFCC12"/>
<path d="M97.8465 371.353C97.9076 371.407 97.2011 372.3 96.2676 373.344C95.3341 374.39 94.5296 375.193 94.4685 375.139C94.4074 375.085 95.1139 374.194 96.0475 373.148C96.9798 372.103 97.7866 371.299 97.8465 371.353Z" fill="#FFCC12"/>
<path d="M94.6334 378.497C89.5566 390.024 93.3034 401.318 102.938 409.436C106.012 412.026 109.791 414.039 113.955 413.533C115.051 413.401 116.125 413.059 117.087 412.514C121.97 409.745 121.582 404.204 119.461 400.133C117.89 397.12 115.495 394.628 113.562 391.832C111.629 389.036 110.118 385.666 110.704 382.319C111.285 378.994 113.884 375.861 111.944 372.523C111.012 370.919 109.268 369.964 107.423 369.751C105.936 369.579 104.538 369.786 103.208 370.223C99.754 371.356 96.9822 373.967 95.3099 377.192L94.6334 378.497Z" fill="#FFDB58"/>
<path d="M198.844 118.882L223.121 163.545L226.474 145.708L245.015 149.856L213.583 108.862L198.844 118.882Z" fill="#4842FB"/>
<g opacity="0.3">
<path d="M207.009 133.904C208.783 133.713 210.539 132.501 211.328 130.902C211.877 129.791 212.054 128.462 212.906 127.562C213.671 126.754 214.84 126.46 215.952 126.414C217.064 126.368 218.179 126.533 219.29 126.471C221.469 126.347 223.58 125.308 225.006 123.656L220.092 117.279L207.544 119.641L204.01 128.389L207.009 133.904Z" fill="black"/>
</g>
<path d="M225.279 144.007C225.233 144.036 222.306 139.528 218.741 133.939C215.175 128.347 212.323 123.793 212.368 123.764C212.414 123.735 215.34 128.242 218.906 133.834C222.472 139.423 225.325 143.979 225.279 144.007Z" fill="#263238"/>
<path d="M200.958 120.932L207.22 171.37L194.106 158.812L181.441 172.964L183.136 121.351L200.958 120.932Z" fill="#4842FB"/>
<g opacity="0.3">
<path d="M182.629 136.788C182.629 136.788 185.867 138.074 188.613 136.124C191.358 134.173 193.189 133.36 195.22 134.005C197.251 134.65 202.958 137.046 202.958 137.046L202.235 131.226L193.574 124.903L187.702 128.183L183.373 130.062L182.721 133.739L182.629 136.788Z" fill="black"/>
</g>
<path d="M239.991 61.0749C241.087 64.4869 237.665 68.8246 238.063 72.2538C238.472 75.7867 242.773 79.2389 242.486 82.7027C242.195 86.2263 237.371 88.9266 236.407 92.2844C235.435 95.6687 238.087 100.51 236.482 103.629C234.876 106.749 229.393 107.41 227.203 110.169C225.03 112.906 225.639 118.396 222.94 120.684C220.288 122.932 214.975 121.445 211.861 123.169C208.839 124.841 207.297 130.145 203.883 131.24C200.468 132.335 196.127 128.916 192.694 129.314C189.159 129.723 185.703 134.02 182.237 133.733C178.71 133.442 176.007 128.622 172.647 127.659C169.259 126.688 164.414 129.338 161.292 127.734C158.17 126.13 157.508 120.651 154.747 118.463C152.006 116.292 146.512 116.9 144.222 114.204C141.973 111.554 143.461 106.245 141.735 103.134C140.062 100.115 134.753 98.5752 133.657 95.1632C132.561 91.7513 135.983 87.4135 135.586 83.9843C135.176 80.4515 130.875 76.9992 131.162 73.5355C131.454 70.0118 136.277 67.3115 137.242 63.9537C138.213 60.5694 135.561 55.7284 137.167 52.609C138.772 49.4895 144.256 48.8286 146.446 46.0695C148.618 43.3312 148.01 37.842 150.709 35.5539C153.361 33.305 158.674 34.7928 161.788 33.0689C164.81 31.3969 166.352 26.0931 169.765 24.998C173.179 23.9029 177.522 27.3217 180.954 26.9244C184.49 26.5157 187.945 22.2182 191.412 22.5049C194.938 22.7974 197.641 27.6154 201.002 28.5803C204.389 29.5511 209.234 26.9014 212.356 28.5055C215.478 30.1095 216.14 35.5884 218.901 37.7763C221.642 39.9469 227.136 39.3389 229.426 42.0358C231.677 44.6854 230.188 49.9927 231.913 53.1053C233.586 56.1246 238.895 57.6641 239.991 61.0749Z" fill="#4842FB"/>
<path d="M164.821 52.3314C164.816 52.336 164.767 52.2969 164.677 52.2162C164.572 52.1184 164.445 51.9998 164.292 51.857C163.959 51.5438 163.49 51.0774 162.919 50.4924C161.778 49.3225 160.254 47.6528 158.678 45.7183C157.104 43.7814 155.781 41.9482 154.868 40.5929C154.41 39.9158 154.051 39.3607 153.811 38.9715C153.703 38.7919 153.613 38.6433 153.538 38.5213C153.477 38.4176 153.448 38.3612 153.454 38.3566C153.46 38.3532 153.5 38.4027 153.571 38.4994C153.654 38.6157 153.754 38.7573 153.875 38.9289C154.153 39.3285 154.527 39.8639 154.981 40.5134C155.923 41.8469 157.259 43.6616 158.83 45.5939C160.401 47.5238 161.906 49.2027 163.02 50.3957C163.564 50.9726 164.012 51.447 164.346 51.8017C164.489 51.9549 164.608 52.0815 164.705 52.1863C164.785 52.2773 164.826 52.3268 164.821 52.3314Z" fill="#263238"/>
<path d="M168.975 49.0175C168.964 49.0244 168.871 48.8989 168.712 48.6663C168.551 48.4337 168.329 48.0905 168.062 47.6633C167.526 46.8077 166.816 45.6067 166.086 44.2491C165.358 42.8903 164.749 41.6351 164.333 40.7151C164.125 40.2556 163.962 39.8802 163.857 39.6188C163.751 39.3574 163.698 39.21 163.711 39.2043C163.724 39.1985 163.8 39.3355 163.927 39.5866C164.072 39.8756 164.25 40.2337 164.46 40.6552C164.907 41.558 165.534 42.8005 166.261 44.1558C166.989 45.51 167.678 46.7191 168.183 47.5919C168.418 48.0007 168.617 48.3462 168.778 48.626C168.916 48.8712 168.987 49.0106 168.975 49.0175Z" fill="#263238"/>
<path d="M177.058 45.5124C177.007 45.5297 175.582 41.5489 173.876 36.6216C172.169 31.6919 170.828 27.6835 170.878 27.6651C170.929 27.6478 172.355 31.6275 174.062 36.5571C175.767 41.4856 177.109 45.4952 177.058 45.5124Z" fill="#263238"/>
<path d="M182.8 34.5537C182.854 34.5537 182.921 36.7508 182.949 39.4615C182.977 42.1733 182.956 44.3715 182.902 44.3727C182.847 44.3727 182.781 42.1756 182.753 39.4638C182.724 36.752 182.746 34.5537 182.8 34.5537Z" fill="#263238"/>
<path d="M189.568 43.8514C189.561 43.8514 189.558 43.7881 189.559 43.6672C189.562 43.5244 189.566 43.3505 189.57 43.1421C189.583 42.6861 189.618 42.0263 189.664 41.211C189.759 39.5816 189.928 37.3327 190.143 34.8512C190.359 32.3696 190.58 30.1253 190.753 28.5029C190.842 27.7152 190.915 27.0658 190.969 26.5821C190.997 26.3749 191.02 26.2033 191.04 26.0616C191.058 25.943 191.071 25.8809 191.078 25.8809C191.085 25.882 191.085 25.9453 191.079 26.0651C191.07 26.2079 191.059 26.3806 191.046 26.5902C191.006 27.0761 190.954 27.7267 190.891 28.5167C190.747 30.1703 190.553 32.4019 190.339 34.8696C190.13 37.3361 189.941 39.5678 189.802 41.2213C189.739 42.0113 189.686 42.6619 189.646 43.1478C189.627 43.3563 189.611 43.529 189.598 43.6718C189.585 43.7892 189.575 43.8526 189.568 43.8514Z" fill="#263238"/>
<path d="M194.809 44.7515C194.797 44.748 194.828 44.5949 194.897 44.3208C194.965 44.0468 195.073 43.6529 195.215 43.1681C195.499 42.1997 195.926 40.8709 196.457 39.4246C196.99 37.9783 197.525 36.6897 197.936 35.7674C198.141 35.3068 198.314 34.936 198.44 34.6826C198.564 34.4293 198.64 34.2923 198.652 34.298C198.665 34.3038 198.613 34.4512 198.509 34.7137C198.388 35.0143 198.239 35.3839 198.063 35.8215C197.685 36.7554 197.172 38.0497 196.641 39.4925C196.111 40.9354 195.663 42.2527 195.346 43.2096C195.198 43.6564 195.071 44.0352 194.968 44.3415C194.879 44.6087 194.822 44.7549 194.809 44.7515Z" fill="#263238"/>
<path d="M203.052 48.0056C203.004 47.9791 204.979 44.3702 207.461 39.9472C209.944 35.522 211.995 31.958 212.042 31.9845C212.09 32.011 210.115 35.6187 207.633 40.0428C205.149 44.4669 203.099 48.032 203.052 48.0056Z" fill="#263238"/>
<path d="M214.815 45.4639C214.835 45.4857 214.482 45.8312 213.922 46.4C213.362 46.9677 212.606 47.7692 211.776 48.6616C210.946 49.554 210.17 50.3451 209.583 50.8886C209.289 51.1604 209.047 51.3757 208.874 51.5185C208.701 51.6613 208.602 51.7362 208.593 51.7258C208.573 51.7039 208.926 51.3585 209.486 50.7896C210.046 50.2219 210.802 49.4205 211.632 48.528C212.462 47.6356 213.237 46.8457 213.824 46.301C214.118 46.0292 214.36 45.8139 214.533 45.6711C214.705 45.5272 214.806 45.4535 214.815 45.4639Z" fill="#263238"/>
<path d="M226.776 46.4547C226.808 46.4973 223.823 48.8153 220.108 51.6308C216.393 54.4474 213.355 56.694 213.323 56.6514C213.29 56.6088 216.274 54.2908 219.99 51.4753C223.704 48.6598 226.742 46.4121 226.776 46.4547Z" fill="#263238"/>
<path d="M236.293 64.5562C236.305 64.6092 232.532 65.4798 227.866 66.5C223.2 67.5214 219.408 68.3056 219.397 68.2526C219.385 68.1996 223.157 67.3291 227.825 66.3089C232.489 65.2886 236.282 64.5033 236.293 64.5562Z" fill="#263238"/>
<path d="M239.115 82.6258C239.109 82.68 235.167 82.2055 230.313 81.5676C225.457 80.9285 221.528 80.3677 221.535 80.3148C221.542 80.2606 225.483 80.7351 230.339 81.3741C235.192 82.0098 239.122 82.5717 239.115 82.6258Z" fill="#263238"/>
<path d="M233.069 102.617C233.04 102.663 229.64 100.585 225.475 97.9771C221.308 95.3689 217.956 93.2167 217.985 93.1707C218.013 93.1246 221.413 95.2019 225.58 97.8101C229.745 100.418 233.097 102.57 233.069 102.617Z" fill="#263238"/>
<path d="M224.331 107.803C224.323 107.813 224.17 107.704 223.902 107.495C223.634 107.288 223.251 106.981 222.783 106.595C221.847 105.823 220.575 104.734 219.204 103.49C217.832 102.247 216.624 101.086 215.766 100.23C215.336 99.802 214.992 99.452 214.761 99.2044C214.528 98.958 214.403 98.8175 214.413 98.8071C214.422 98.7979 214.565 98.92 214.814 99.1503C215.089 99.4071 215.441 99.7364 215.862 100.13C216.745 100.96 217.967 102.103 219.336 103.345C220.705 104.587 221.961 105.691 222.874 106.489C223.308 106.87 223.669 107.188 223.952 107.437C224.203 107.662 224.339 107.792 224.331 107.803Z" fill="#263238"/>
<path d="M221.112 117.912C221.107 117.917 221.059 117.877 220.971 117.795C220.869 117.696 220.745 117.576 220.596 117.432C220.272 117.115 219.814 116.645 219.259 116.053C218.149 114.87 216.67 113.183 215.15 111.228C213.632 109.271 212.363 107.42 211.492 106.052C211.056 105.368 210.713 104.808 210.486 104.415C210.383 104.235 210.298 104.085 210.228 103.962C210.17 103.857 210.143 103.8 210.149 103.797C210.155 103.794 210.193 103.843 210.262 103.941C210.341 104.06 210.436 104.202 210.551 104.375C210.818 104.779 211.175 105.319 211.608 105.976C212.507 107.322 213.79 109.155 215.304 111.107C216.82 113.056 218.279 114.754 219.36 115.958C219.889 116.541 220.324 117.02 220.65 117.379C220.788 117.533 220.903 117.661 220.999 117.767C221.078 117.857 221.116 117.908 221.112 117.912Z" fill="#263238"/>
<path d="M207.389 115.947C207.361 115.958 207.164 115.493 206.832 114.748C206.502 114.003 206.029 112.981 205.46 111.877C204.889 110.773 204.329 109.796 203.913 109.095C203.497 108.394 203.233 107.963 203.257 107.947C203.269 107.939 203.348 108.038 203.484 108.222C203.62 108.406 203.808 108.679 204.032 109.021C204.479 109.705 205.061 110.677 205.635 111.786C206.208 112.896 206.662 113.932 206.96 114.693C207.11 115.075 207.224 115.384 207.296 115.602C207.368 115.82 207.402 115.942 207.389 115.947Z" fill="#263238"/>
<path d="M202.943 128.761C202.936 128.763 202.911 128.701 202.868 128.582C202.82 128.441 202.762 128.268 202.691 128.057C202.539 127.601 202.329 126.937 202.081 126.113C201.583 124.467 200.932 122.182 200.261 119.645C199.589 117.107 199.026 114.8 198.634 113.126C198.439 112.288 198.286 111.609 198.187 111.138C198.143 110.92 198.107 110.742 198.077 110.596C198.054 110.471 198.046 110.404 198.053 110.403C198.06 110.402 198.081 110.466 198.117 110.586C198.156 110.73 198.204 110.907 198.262 111.121C198.389 111.615 198.56 112.281 198.769 113.092C199.207 114.783 199.798 117.068 200.452 119.595C201.121 122.13 201.75 124.42 202.215 126.074C202.441 126.88 202.626 127.544 202.765 128.034C202.821 128.248 202.868 128.426 202.908 128.57C202.936 128.694 202.949 128.76 202.943 128.761Z" fill="#263238"/>
<path d="M190.826 112.719C190.852 112.715 190.926 113.078 191.013 113.669C191.099 114.26 191.196 115.079 191.268 115.987C191.341 116.895 191.377 117.72 191.386 118.316C191.395 118.914 191.38 119.282 191.354 119.284C191.326 119.285 191.291 118.916 191.247 118.322C191.197 117.659 191.137 116.871 191.071 116.002C190.996 115.132 190.93 114.347 190.873 113.684C190.824 113.092 190.798 112.723 190.826 112.719Z" fill="#263238"/>
<path d="M177.655 110.899C177.705 110.917 177.323 112.138 176.798 113.625C176.274 115.114 175.807 116.306 175.756 116.288C175.706 116.269 176.088 115.049 176.613 113.56C177.137 112.072 177.604 110.88 177.655 110.899Z" fill="#263238"/>
<path d="M170.378 108.799C170.428 108.821 169.039 112.149 167.277 116.232C165.513 120.316 164.045 123.61 163.995 123.588C163.946 123.566 165.333 120.239 167.097 116.155C168.859 112.072 170.328 108.778 170.378 108.799Z" fill="#263238"/>
<path d="M165.953 105.311C165.999 105.34 165.105 106.813 163.956 108.599C162.807 110.386 161.839 111.81 161.793 111.78C161.747 111.751 162.641 110.279 163.79 108.493C164.939 106.707 165.907 105.282 165.953 105.311Z" fill="#263238"/>
<path d="M160.293 99.7212C160.33 99.7603 157.722 102.296 154.467 105.383C151.211 108.472 148.543 110.943 148.506 110.904C148.469 110.864 151.076 108.33 154.332 105.24C157.587 102.154 160.256 99.682 160.293 99.7212Z" fill="#263238"/>
<path d="M157.809 96.8252C157.816 96.8367 157.711 96.907 157.518 97.0244C157.324 97.1419 157.038 97.3031 156.682 97.4943C155.97 97.8777 154.967 98.3752 153.833 98.868C152.699 99.3597 151.651 99.7535 150.884 100.013C150.5 100.143 150.188 100.242 149.97 100.303C149.752 100.365 149.63 100.393 149.625 100.38C149.616 100.353 150.083 100.174 150.836 99.8813C151.589 99.5889 152.625 99.1766 153.755 98.6872C154.883 98.1967 155.891 97.7199 156.619 97.3687C157.346 97.0198 157.795 96.7999 157.809 96.8252Z" fill="#263238"/>
<path d="M154.191 89.4616C154.195 89.4743 153.969 89.541 153.559 89.6493C153.117 89.7667 152.532 89.921 151.823 90.1087C150.359 90.5014 148.345 91.0737 146.147 91.7911C143.949 92.5097 141.985 93.2351 140.571 93.7832C139.887 94.0504 139.324 94.2703 138.899 94.4361C138.503 94.5904 138.283 94.6699 138.277 94.6584C138.272 94.6457 138.483 94.5421 138.869 94.3659C139.255 94.1886 139.818 93.9444 140.519 93.6543C141.922 93.0727 143.882 92.3254 146.085 91.6046C148.287 90.886 150.312 90.3333 151.787 89.9752C152.525 89.7955 153.124 89.6597 153.54 89.5756C153.956 89.4892 154.188 89.4478 154.191 89.4616Z" fill="#263238"/>
<path d="M152.716 82.447C152.718 82.5011 150.199 82.6416 147.09 82.7614C143.981 82.8811 141.459 82.9329 141.457 82.88C141.455 82.8258 143.973 82.6854 147.084 82.5656C150.192 82.4458 152.714 82.3929 152.716 82.447Z" fill="#263238"/>
<path d="M152.391 76.2734C152.391 76.2803 152.329 76.2861 152.209 76.2895C152.067 76.2918 151.895 76.2941 151.688 76.2976C151.235 76.3022 150.58 76.2907 149.773 76.2596C148.156 76.1986 145.923 76.027 143.479 75.6666C141.034 75.3027 138.847 74.8202 137.282 74.4103C136.499 74.2065 135.869 74.0268 135.438 73.8909C135.241 73.8276 135.077 73.7746 134.941 73.732C134.828 73.694 134.77 73.6698 134.772 73.6641C134.774 73.6572 134.835 73.6687 134.951 73.694C135.09 73.7274 135.256 73.7689 135.457 73.8172C135.894 73.9301 136.529 74.0878 137.315 74.2755C138.886 74.6498 141.07 75.1104 143.508 75.472C145.945 75.8312 148.168 76.0247 149.779 76.1203C150.585 76.1698 151.239 76.202 151.69 76.2204C151.897 76.232 152.068 76.2412 152.21 76.2492C152.329 76.2596 152.391 76.2665 152.391 76.2734Z" fill="#263238"/>
<path d="M153.932 69.4701C153.916 69.522 151.704 68.8771 148.992 68.0296C146.28 67.1821 144.095 66.4532 144.111 66.4014C144.128 66.3495 146.339 66.9944 149.051 67.8419C151.763 68.6894 153.948 69.4183 153.932 69.4701Z" fill="#263238"/>
<path d="M141.191 54.3242C141.195 54.3185 141.253 54.338 141.36 54.3806C141.488 54.4348 141.641 54.4993 141.825 54.5764C142.255 54.7653 142.829 55.0174 143.524 55.3237C144.983 55.9709 146.947 56.8426 149.118 57.8064C151.294 58.7599 153.262 59.6235 154.724 60.2649C155.418 60.5723 155.991 60.8257 156.421 61.0157C156.602 61.0997 156.753 61.17 156.878 61.2276C156.982 61.2782 157.035 61.3082 157.033 61.3139C157.03 61.3197 156.972 61.3024 156.863 61.2644C156.734 61.216 156.579 61.1573 156.391 61.0859C155.982 60.927 155.394 60.691 154.669 60.3927C153.22 59.7962 151.226 58.951 149.039 57.986C146.851 57.0211 144.884 56.1183 143.467 55.4504C142.758 55.1165 142.186 54.8413 141.794 54.6467C141.616 54.5557 141.468 54.4808 141.345 54.4175C141.241 54.3611 141.189 54.33 141.191 54.3242Z" fill="#263238"/>
<path d="M152.497 51.059C152.505 51.0475 152.619 51.1085 152.82 51.2294C153.022 51.3492 153.309 51.5311 153.658 51.7626C154.358 52.2243 155.305 52.8922 156.317 53.6775C157.328 54.4629 158.211 55.216 158.832 55.7791C159.143 56.06 159.39 56.2926 159.556 56.4584C159.722 56.6243 159.809 56.7198 159.801 56.7302C159.782 56.7509 159.384 56.4193 158.741 55.8838C158.098 55.3484 157.205 54.616 156.197 53.833C155.189 53.0511 154.258 52.3683 153.58 51.8777C152.901 51.3849 152.48 51.0832 152.497 51.059Z" fill="#263238"/>
<g opacity="0.2">
<path d="M137.168 52.6088L157.174 61.2659L160.06 56.9178L146.541 45.9473C146.541 45.9473 146.011 46.6808 144.371 47.7736C142.783 48.833 137.679 50.6167 137.168 52.6088Z" fill="black"/>
</g>
<g opacity="0.2">
<path d="M150.842 35.4776L164.593 52.1055L168.976 49.0183L162.041 32.9961C162.041 32.9961 161.264 33.4613 159.327 33.8217C157.449 34.1718 152.522 33.8643 150.842 35.4776Z" fill="black"/>
</g>
<g opacity="0.3">
<path d="M169.895 24.9647L177.057 45.5135L181.696 44.2687L181.217 26.8889C181.126 26.9096 179.866 27.0858 178.17 26.6379C176.263 26.1346 172.054 24.0907 169.895 24.9647Z" fill="black"/>
</g>
<g opacity="0.2">
<path d="M191.071 22.4927L189.623 44.0168L194.382 44.6651L200.681 28.4576C200.59 28.4414 199.338 27.9359 197.953 26.766C196.448 25.4936 193.584 22.3902 191.071 22.4927Z" fill="black"/>
</g>
<g opacity="0.2">
<path d="M212.695 28.7012L203.299 47.9257L207.805 51.1534L218.644 37.5333C218.644 37.5333 217.771 36.8009 216.875 35.1404C215.971 33.4604 214.877 30.2212 212.695 28.7012Z" fill="black"/>
</g>
<g opacity="0.2">
<path d="M229.167 41.7227L212.668 55.6341L215.803 59.9811L231.766 52.8854C231.766 52.8854 231.499 52.4076 231.117 50.4753C230.75 48.6041 231.352 43.9647 229.167 41.7227Z" fill="black"/>
</g>
<g opacity="0.2">
<path d="M240.019 61.0664L219.527 68.435L220.822 73.0571L238.115 72.6103C238.094 72.5205 237.948 71.582 238.137 70.5238C238.594 67.9513 240.895 63.7943 240.019 61.0664Z" fill="black"/>
</g>
<g opacity="0.2">
<path d="M242.489 81.8705L221.021 80.5566L220.422 85.3182L236.707 91.4442C236.722 91.3532 237.255 90.4079 238.411 89.0134C239.67 87.4957 242.9 84.6606 242.489 81.8705Z" fill="black"/>
</g>
<g opacity="0.2">
<path d="M214.33 90.5713L210.879 96.0456C211.356 96.3047 221.084 104.976 227.084 110.34C227.125 110.284 227.16 110.223 227.203 110.168C229.21 107.64 233.973 106.868 235.993 104.357L214.33 90.5713Z" fill="black"/>
<path d="M208.053 100.846L201.773 105.508L211.255 123.566C211.451 123.419 211.652 123.285 211.86 123.169C214.974 121.446 220.286 122.933 222.939 120.684C223.303 120.375 223.604 120.003 223.863 119.592L208.053 100.846Z" fill="black"/>
<path d="M203.635 131.308L196.737 105.959L190.145 106.37L192.516 129.339C192.575 129.33 192.634 129.32 192.693 129.313C196.044 128.926 200.26 132.17 203.635 131.308Z" fill="black"/>
<path d="M178.918 106.992C178.918 106.992 174.323 120.357 171.977 127.513C172.205 127.548 172.429 127.594 172.646 127.657C176.007 128.621 178.71 133.44 182.236 133.732C182.398 133.745 182.56 133.745 182.721 133.74L187.141 108.846L178.918 106.992Z" fill="black"/>
<path d="M167.862 100.961L154.469 118.269C154.562 118.333 154.66 118.393 154.748 118.462C157.509 120.65 158.171 126.128 161.293 127.733C161.58 127.88 161.886 127.981 162.2 128.063C166.076 119.279 173.034 103.512 173.293 102.959L167.862 100.961Z" fill="black"/>
<path d="M161.22 93.7988L141.957 103.59C143.326 106.742 142.078 111.678 144.223 114.204C144.354 114.358 144.498 114.498 144.649 114.633C150.623 108.818 163.115 96.6995 163.72 96.46L161.22 93.7988Z" fill="black"/>
<path d="M156.479 82.8496L135.496 83.468C135.534 83.6396 135.566 83.8123 135.585 83.985C135.982 87.4142 132.561 91.752 133.657 95.1639C133.731 95.3931 133.824 95.613 133.934 95.826L157.374 88.3113L156.479 82.8496Z" fill="black"/>
<path d="M131.191 73.3585C139.601 74.9004 156.132 78.1753 156.132 78.1753L157.481 70.5143L137.339 63.5107C137.31 63.6593 137.284 63.809 137.242 63.9529C136.295 67.2555 131.628 69.9212 131.191 73.3585Z" fill="black"/>
</g>
<path d="M239.99 61.0752C239.99 61.0752 239.956 61.0015 239.894 60.8552C239.827 60.7113 239.76 60.481 239.585 60.2184C239.285 59.6692 238.686 58.9333 237.737 58.1584C236.802 57.365 235.512 56.5589 234.087 55.4673C233.385 54.9134 232.636 54.2755 232.064 53.4038C231.494 52.5309 231.197 51.4358 231.054 50.282C230.901 49.1247 230.865 47.8938 230.767 46.6075C230.65 45.3351 230.517 43.9452 229.828 42.7096C229.478 42.1028 228.967 41.58 228.353 41.1804C227.734 40.7843 227.029 40.5114 226.302 40.2765C224.839 39.8136 223.252 39.5764 221.658 39.1146C220.864 38.8809 220.058 38.5953 219.323 38.137C218.583 37.6821 217.984 37.012 217.488 36.2773C216.503 34.7941 215.84 33.0807 214.93 31.4501C214.472 30.6395 213.948 29.8346 213.232 29.2024C212.526 28.5598 211.594 28.1844 210.619 28.09C209.642 27.9852 208.639 28.09 207.639 28.2374C206.636 28.386 205.626 28.5875 204.591 28.728C203.559 28.865 202.485 28.9548 201.422 28.7452C200.355 28.5403 199.389 27.9714 198.522 27.3127C197.65 26.6483 196.844 25.8941 196.007 25.1629C195.17 24.434 194.303 23.7096 193.311 23.1765C192.321 22.6503 191.151 22.4176 190.033 22.6963C188.918 22.9646 187.88 23.5266 186.874 24.1334C185.867 24.7449 184.877 25.4139 183.813 25.9896C182.761 26.5677 181.579 27.0329 180.326 27.0364C179.08 27.0064 177.873 26.6449 176.695 26.251C175.514 25.8549 174.34 25.4058 173.117 25.1122C171.906 24.8381 170.581 24.7092 169.415 25.2319L169.196 25.3206C169.126 25.3575 169.059 25.4001 168.991 25.4392C168.856 25.521 168.715 25.5958 168.583 25.6833C168.333 25.8791 168.068 26.0576 167.842 26.2867C167.364 26.7128 166.952 27.2149 166.546 27.7204C165.748 28.7452 165.04 29.853 164.222 30.8997C163.821 31.4283 163.368 31.9246 162.876 32.384C162.374 32.8366 161.789 33.1993 161.157 33.4561C159.878 33.9363 158.507 34.0526 157.152 34.1389C155.796 34.2276 154.424 34.2702 153.09 34.5604C152.426 34.7135 151.781 34.9507 151.203 35.3077C150.62 35.6624 150.175 36.2001 149.812 36.7759C149.1 37.9573 148.781 39.3403 148.458 40.7026C148.14 42.0706 147.872 43.4777 147.292 44.8008C146.994 45.4549 146.61 46.087 146.087 46.5995C145.563 47.105 144.965 47.5218 144.343 47.8961C143.09 48.625 141.751 49.1927 140.471 49.8744C139.206 50.5492 137.931 51.3783 137.244 52.6622C136.922 53.3082 136.785 54.0313 136.746 54.7568C136.702 55.4857 136.78 56.2204 136.874 56.9516C137.066 58.4163 137.408 59.8741 137.521 61.3792C137.585 62.1288 137.567 62.8969 137.405 63.6453C137.243 64.3927 136.913 65.102 136.489 65.733C135.648 67.0078 134.574 68.096 133.582 69.2452C133.09 69.8221 132.61 70.4116 132.197 71.0473C131.796 71.6864 131.466 72.3784 131.326 73.1166C131.18 73.8524 131.252 74.6239 131.49 75.3447C131.719 76.069 132.06 76.7588 132.437 77.429C133.201 78.7647 134.11 80.0314 134.827 81.4282C135.189 82.1226 135.479 82.8676 135.622 83.6495C135.768 84.4336 135.707 85.242 135.556 86.017C135.228 87.5681 134.621 89.0305 134.147 90.5286C133.905 91.2759 133.705 92.0382 133.604 92.8132C133.505 93.5859 133.514 94.3816 133.747 95.1243C133.99 95.8647 134.441 96.52 134.971 97.0911C135.503 97.6646 136.111 98.1689 136.743 98.6364C138 99.5807 139.346 100.417 140.516 101.488C141.091 102.029 141.613 102.649 141.954 103.37C142.297 104.089 142.496 104.864 142.605 105.639C142.838 107.191 142.835 108.75 142.992 110.282C143.076 111.045 143.199 111.805 143.432 112.528C143.657 113.254 144.047 113.923 144.592 114.439C145.135 114.958 145.806 115.331 146.504 115.619C147.21 115.897 147.944 116.098 148.68 116.281C150.156 116.64 151.663 116.901 153.091 117.448C153.803 117.715 154.485 118.098 155.054 118.611C155.622 119.124 156.084 119.739 156.469 120.386C157.254 121.676 157.827 123.06 158.523 124.364C158.872 125.013 159.237 125.657 159.697 126.224C160.151 126.792 160.684 127.302 161.321 127.64C162.627 128.287 164.148 128.221 165.569 128.035C167.007 127.845 168.426 127.529 169.871 127.393C170.594 127.336 171.324 127.328 172.045 127.434C172.769 127.546 173.449 127.837 174.072 128.196C175.316 128.934 176.352 129.923 177.408 130.852C178.463 131.774 179.528 132.714 180.796 133.26C181.426 133.518 182.102 133.697 182.783 133.646C183.459 133.601 184.123 133.419 184.753 133.158C186.008 132.618 187.149 131.855 188.303 131.138C189.455 130.421 190.638 129.718 191.959 129.365C192.622 129.207 193.31 129.162 193.981 129.238C194.648 129.327 195.305 129.467 195.94 129.663C197.216 130.038 198.436 130.529 199.682 130.897C200.307 131.072 200.933 131.242 201.57 131.31C201.887 131.365 202.206 131.356 202.524 131.369C202.682 131.364 202.84 131.343 202.998 131.33C203.076 131.322 203.156 131.319 203.234 131.307L203.465 131.252C204.717 131 205.719 130.125 206.544 129.197C207.368 128.247 208.062 127.199 208.792 126.189C209.521 125.183 210.291 124.187 211.289 123.44C212.311 122.715 213.543 122.406 214.736 122.266C215.936 122.115 217.131 122.084 218.307 121.996C219.478 121.904 220.65 121.759 221.713 121.327C222.784 120.902 223.6 120.034 224.097 119.03C224.594 118.019 224.876 116.925 225.132 115.847C225.386 114.766 225.603 113.683 225.926 112.637C226.249 111.597 226.703 110.573 227.453 109.787C228.196 108.998 229.123 108.447 230.041 107.96C230.965 107.473 231.904 107.049 232.806 106.588C233.706 106.126 234.582 105.627 235.315 104.973C236.053 104.328 236.591 103.482 236.79 102.548C237.003 101.618 236.961 100.659 236.861 99.7327C236.651 97.8764 236.192 96.0985 236.131 94.3194C236.106 93.435 236.205 92.5403 236.543 91.7412C236.873 90.942 237.363 90.2419 237.873 89.5901C238.902 88.2889 240.053 87.1731 240.973 85.9467C241.428 85.333 241.842 84.7008 242.114 84.0191C242.381 83.3374 242.491 82.6154 242.422 81.9176C242.365 81.2152 242.112 80.5623 241.849 79.945C241.58 79.3255 241.24 78.7578 240.915 78.2005C240.246 77.0973 239.559 76.0759 239.009 75.0453C238.454 74.0239 238.058 72.9623 238.013 71.9201C237.971 70.8792 238.209 69.9246 238.457 69.0667C238.98 67.3509 239.56 65.9461 239.858 64.7566C240.179 63.5751 240.238 62.6286 240.162 62.0067C240.151 61.6924 240.071 61.4655 240.042 61.3089C240.005 61.1546 239.99 61.0752 239.99 61.0752C239.99 61.0752 240.012 61.1523 240.05 61.3066C240.082 61.4621 240.165 61.6889 240.18 62.0044C240.263 62.6274 240.21 63.5797 239.895 64.7658C239.603 65.9587 239.029 67.3693 238.512 69.0816C238.268 69.9372 238.034 70.8884 238.08 71.9155C238.126 72.9427 238.52 73.9929 239.076 75.0085C239.626 76.0322 240.314 77.0513 240.988 78.1556C241.315 78.7129 241.658 79.2829 241.931 79.907C242.197 80.5289 242.455 81.1898 242.515 81.9061C242.588 82.6177 242.476 83.3581 242.206 84.0536C241.93 84.748 241.512 85.3871 241.056 86.0066C240.132 87.2433 238.98 88.3615 237.96 89.6569C237.454 90.3052 236.971 90.9984 236.649 91.7826C236.32 92.5645 236.225 93.4385 236.25 94.3148C236.312 96.0755 236.772 97.85 236.986 99.7177C237.088 100.649 237.134 101.62 236.917 102.575C236.714 103.533 236.157 104.412 235.405 105.069C234.658 105.737 233.773 106.24 232.87 106.705C231.964 107.17 231.026 107.594 230.108 108.08C229.195 108.566 228.282 109.112 227.559 109.881C226.831 110.646 226.387 111.646 226.068 112.677C225.75 113.714 225.534 114.793 225.279 115.878C225.023 116.96 224.741 118.062 224.235 119.095C223.731 120.12 222.879 121.031 221.776 121.468C220.683 121.911 219.498 122.057 218.322 122.15C217.141 122.239 215.949 122.272 214.759 122.422C213.576 122.563 212.375 122.868 211.387 123.57C210.418 124.297 209.655 125.281 208.929 126.284C208.201 127.291 207.508 128.342 206.673 129.306C206.453 129.536 206.251 129.785 206.008 129.996C205.89 130.104 205.775 130.217 205.652 130.32L205.267 130.614C204.739 130.979 204.152 131.299 203.504 131.418L203.265 131.474C203.185 131.487 203.103 131.49 203.021 131.5C202.858 131.512 202.695 131.533 202.531 131.54C202.205 131.526 201.875 131.535 201.553 131.48C200.9 131.41 200.266 131.239 199.636 131.063C198.38 130.692 197.157 130.202 195.893 129.831C195.262 129.636 194.617 129.499 193.963 129.413C193.308 129.339 192.647 129.383 192.004 129.536C190.72 129.879 189.548 130.573 188.4 131.29C187.249 132.005 186.103 132.773 184.825 133.324C184.183 133.591 183.5 133.781 182.794 133.827C182.083 133.88 181.378 133.693 180.728 133.427C179.421 132.863 178.348 131.912 177.289 130.989C176.232 130.06 175.198 129.077 173.982 128.356C173.373 128.006 172.718 127.727 172.02 127.618C171.32 127.515 170.606 127.523 169.892 127.581C168.464 127.717 167.048 128.031 165.598 128.223C164.873 128.311 164.138 128.39 163.397 128.341C162.659 128.297 161.912 128.15 161.237 127.81C160.567 127.457 160.016 126.926 159.551 126.344C159.079 125.762 158.709 125.111 158.357 124.455C157.655 123.141 157.083 121.759 156.308 120.488C155.928 119.85 155.475 119.25 154.928 118.755C154.381 118.261 153.725 117.891 153.023 117.627C151.621 117.091 150.12 116.829 148.638 116.47C147.895 116.286 147.154 116.082 146.435 115.8C145.722 115.506 145.029 115.123 144.461 114.58C143.89 114.041 143.48 113.337 143.251 112.592C143.01 111.848 142.887 111.075 142.801 110.304C142.643 108.758 142.646 107.201 142.416 105.67C142.308 104.905 142.112 104.15 141.783 103.457C141.454 102.762 140.952 102.164 140.387 101.632C139.238 100.579 137.895 99.7453 136.629 98.7942C135.992 98.3232 135.376 97.8131 134.831 97.2247C134.288 96.6397 133.819 95.9603 133.564 95.1842C133.32 94.4046 133.312 93.579 133.413 92.789C133.517 91.9957 133.72 91.2218 133.964 90.4699C134.441 88.9614 135.046 87.5024 135.367 85.979C135.514 85.2178 135.573 84.4382 135.433 83.684C135.296 82.9298 135.015 82.202 134.657 81.518C133.95 80.1408 133.043 78.8753 132.272 77.5269C131.892 76.8498 131.545 76.1496 131.309 75.4046C131.064 74.6653 130.986 73.8535 131.139 73.0843C131.287 72.3128 131.629 71.6 132.038 70.9471C132.459 70.2988 132.944 69.7035 133.44 69.122C134.435 67.9681 135.505 66.8823 136.33 65.6317C136.747 65.011 137.064 64.3282 137.221 63.6073C137.377 62.8865 137.396 62.1369 137.333 61.3964C137.222 59.9121 136.883 58.4566 136.688 56.9804C136.594 56.2423 136.516 55.4984 136.561 54.7499C136.601 54.006 136.743 53.2552 137.08 52.5781C137.433 51.9103 137.954 51.3564 138.529 50.8923C139.103 50.4225 139.747 50.0598 140.388 49.7097C141.679 49.0234 143.015 48.4557 144.255 47.736C144.868 47.3675 145.453 46.9576 145.963 46.4682C146.468 45.973 146.836 45.3662 147.129 44.7271C147.698 43.434 147.967 42.0337 148.285 40.6634C148.609 39.2977 148.928 37.9009 149.662 36.6826C150.036 36.0884 150.501 35.5265 151.111 35.1569C151.711 34.7849 152.379 34.542 153.055 34.3853C154.415 34.0894 155.795 34.0491 157.147 33.9616C158.497 33.8775 159.854 33.7601 161.099 33.2926C161.711 33.0438 162.273 32.6961 162.764 32.255C163.245 31.806 163.691 31.3189 164.089 30.7938C164.902 29.7574 165.611 28.6473 166.416 27.6156C166.825 27.1055 167.243 26.5988 167.731 26.1624C167.962 25.9298 168.234 25.7444 168.492 25.544C168.628 25.4542 168.773 25.3759 168.914 25.2918C168.985 25.2515 169.054 25.2078 169.126 25.1698L169.353 25.0765C169.949 24.7955 170.612 24.7149 171.254 24.7034L171.738 24.7184C171.899 24.731 172.058 24.7575 172.217 24.7759C172.537 24.8059 172.846 24.8911 173.16 24.9498C174.398 25.2481 175.575 25.6995 176.753 26.0956C177.927 26.4894 179.121 26.8464 180.333 26.8752C181.544 26.8717 182.699 26.4238 183.744 25.8503C184.799 25.2815 185.788 24.6147 186.799 24.001C187.811 23.393 188.86 22.823 190.006 22.5478C191.156 22.2599 192.38 22.504 193.387 23.0441C194.4 23.5899 195.273 24.3223 196.111 25.0535C196.948 25.7881 197.753 26.5401 198.615 27.1999C199.475 27.8528 200.419 28.409 201.456 28.6082C202.491 28.8143 203.553 28.7291 204.578 28.5932C205.607 28.455 206.617 28.2547 207.624 28.1061C208.629 27.9599 209.642 27.854 210.639 27.9622C211.634 28.0589 212.599 28.4481 213.323 29.1091C214.055 29.7597 214.584 30.575 215.044 31.3926C215.958 33.0358 216.617 34.7469 217.591 36.2151C218.08 36.9417 218.666 37.5981 219.389 38.0437C220.108 38.4939 220.904 38.7784 221.693 39.0121C223.277 39.4727 224.864 39.7134 226.336 40.1821C227.069 40.4193 227.781 40.6968 228.409 41.101C229.034 41.5086 229.556 42.0452 229.912 42.6659C230.281 43.2831 230.456 43.9706 230.602 44.6315C230.743 45.2983 230.796 45.9604 230.855 46.6041C230.951 47.8938 230.983 49.1224 231.133 50.2751C231.272 51.4243 231.564 52.5067 232.123 53.3704C232.684 54.2329 233.427 54.8708 234.125 55.4247C235.542 56.5175 236.831 57.3304 237.763 58.1307C238.711 58.9126 239.308 59.6565 239.604 60.2115C239.777 60.4764 239.84 60.709 239.905 60.8541C239.962 61.0003 239.99 61.0752 239.99 61.0752Z" fill="#263238"/>
<path d="M192.68 130.61C192.734 130.607 193.133 136.4 193.57 143.548C194.008 150.697 194.318 156.495 194.265 156.499C194.21 156.502 193.812 150.71 193.374 143.56C192.937 136.412 192.626 130.614 192.68 130.61Z" fill="#263238"/>
<path d="M192.787 111.777C211.399 108.48 223.811 90.7315 220.511 72.1355C217.21 53.5395 199.447 41.1377 180.835 44.4353C162.223 47.733 149.81 65.4813 153.111 84.0773C156.411 102.673 174.175 115.075 192.787 111.777Z" fill="white"/>
<path d="M161.168 55.4749C161.168 55.4749 161.07 55.6039 160.87 55.8503C160.668 56.099 160.371 56.4629 159.982 56.9396C159.592 57.4187 159.167 58.0555 158.633 58.7821C158.374 59.1506 158.13 59.572 157.848 60.0084C157.71 60.2284 157.567 60.4552 157.42 60.689C157.277 60.925 157.149 61.1807 157.006 61.4363C155.862 63.4768 154.662 66.1092 153.812 69.3288C153.711 69.7318 153.608 70.1429 153.504 70.5598C153.388 70.9743 153.336 71.4107 153.248 71.846C153.173 72.2836 153.074 72.7246 153.014 73.1783C152.96 73.6332 152.905 74.0949 152.85 74.5636C152.825 74.7985 152.788 75.0334 152.773 75.2718C152.76 75.5101 152.747 75.7508 152.735 75.9926C152.712 76.4774 152.677 76.968 152.662 77.4654C152.689 78.4603 152.647 79.484 152.761 80.5261C152.883 82.6161 153.278 84.7856 153.864 86.9907C154.436 89.2028 155.296 91.4344 156.412 93.6269C158.651 98.0004 162.017 102.223 166.488 105.503C170.922 108.807 176.441 111.15 182.419 111.936C188.39 112.741 194.793 111.863 200.644 109.296C206.505 106.725 211.417 102.521 214.846 97.5778C215.716 96.3479 216.46 95.0525 217.158 93.7501C217.319 93.4185 217.481 93.0869 217.642 92.7564C217.806 92.4282 217.961 92.0954 218.099 91.7557C218.243 91.4195 218.386 91.0844 218.529 90.7493C218.656 90.4084 218.783 90.0687 218.909 89.729C219.919 87.0126 220.507 84.2156 220.797 81.4681C221.084 78.716 220.988 76.0007 220.632 73.4052C220.461 72.1051 220.19 70.8407 219.883 69.6075C219.728 68.9914 219.534 68.3903 219.363 67.7881C219.161 67.1962 218.939 66.617 218.731 66.0378C218.625 65.7487 218.52 65.4609 218.415 65.1741C218.304 64.8897 218.165 64.6191 218.043 64.3427C217.79 63.7935 217.54 63.2488 217.291 62.7099C217.024 62.1802 216.72 61.6758 216.438 61.1657C216.151 60.659 215.884 60.1466 215.549 59.6826C215.231 59.2081 214.915 58.7383 214.604 58.2743C214.454 58.037 214.283 57.8171 214.108 57.6029C213.936 57.3864 213.765 57.17 213.595 56.9558C213.248 56.532 212.934 56.0887 212.571 55.6949C212.206 55.3022 211.846 54.9141 211.49 54.5307C208.601 51.4918 205.442 49.3005 202.487 47.7747C199.523 46.2467 196.761 45.3946 194.487 44.843C193.914 44.7198 193.372 44.6046 192.864 44.4952C192.611 44.433 192.361 44.4031 192.121 44.372C191.88 44.3398 191.648 44.3087 191.423 44.2787C190.976 44.2189 190.563 44.1624 190.185 44.1118C189.809 44.0519 189.461 44.06 189.154 44.0335C188.54 43.9966 188.071 43.969 187.751 43.9506C187.436 43.931 187.273 43.916 187.273 43.916C187.273 43.916 187.436 43.9183 187.751 43.931C188.072 43.946 188.542 43.9667 189.156 43.9943C189.464 44.0173 189.812 44.0058 190.19 44.0634C190.569 44.1118 190.983 44.1647 191.431 44.2212C191.656 44.25 191.889 44.2799 192.13 44.311C192.372 44.3409 192.622 44.3697 192.875 44.4307C193.386 44.5367 193.929 44.6507 194.504 44.7704C196.785 45.3116 199.559 46.1546 202.537 47.6792C205.506 49.2003 208.682 51.3917 211.589 54.4374C211.947 54.822 212.31 55.2112 212.677 55.605C213.042 56 213.359 56.4445 213.708 56.8694C213.88 57.0847 214.052 57.3012 214.224 57.5189C214.401 57.7342 214.572 57.9553 214.723 58.1925C215.037 58.6589 215.355 59.1298 215.675 59.6054C216.013 60.0706 216.283 60.5853 216.571 61.0943C216.853 61.6067 217.16 62.1134 217.43 62.6443C217.68 63.1855 217.932 63.7324 218.187 64.284C218.31 64.5615 218.451 64.8333 218.562 65.1189C218.668 65.4067 218.775 65.6958 218.881 65.986C219.09 66.5675 219.315 67.149 219.519 67.7432C219.692 68.3477 219.887 68.9511 220.045 69.5706C220.353 70.8097 220.628 72.0809 220.802 73.3867C221.163 75.9938 221.262 78.724 220.976 81.4911C220.685 84.2536 220.098 87.0667 219.083 89.7981C218.957 90.139 218.829 90.481 218.702 90.8241C218.558 91.1604 218.414 91.4978 218.27 91.8363C218.131 92.1772 217.976 92.5111 217.81 92.8416C217.649 93.1744 217.486 93.5072 217.324 93.8411C216.623 95.1504 215.875 96.4539 215 97.6906C211.554 102.663 206.613 106.894 200.719 109.479C194.835 112.06 188.394 112.941 182.39 112.129C176.378 111.336 170.831 108.978 166.376 105.651C161.885 102.35 158.507 98.1017 156.264 93.7041C155.146 91.5001 154.286 89.2569 153.714 87.0333C153.13 84.8167 152.738 82.638 152.62 80.5388C152.508 79.4921 152.552 78.4649 152.527 77.4654C152.543 76.9657 152.579 76.4739 152.603 75.988C152.617 75.745 152.63 75.5032 152.644 75.2637C152.66 75.0242 152.698 74.7881 152.723 74.5532C152.78 74.0834 152.836 73.6205 152.892 73.1645C152.953 72.7097 153.053 72.2663 153.13 71.8276C153.22 71.3912 153.274 70.9536 153.391 70.5379C153.497 70.1199 153.601 69.7088 153.704 69.3035C154.566 66.0758 155.78 63.4411 156.937 61.4018C157.081 61.1461 157.211 60.8917 157.355 60.6556C157.504 60.4218 157.648 60.195 157.789 59.975C158.073 59.5386 158.32 59.1183 158.583 58.751C159.123 58.0255 159.553 57.3922 159.948 56.9166C160.344 56.4445 160.646 56.0852 160.852 55.8388C161.059 55.5958 161.168 55.4749 161.168 55.4749Z" fill="#263238"/>
<path d="M194.209 85.4359L186.611 64.6211L174.738 68.9462L176.903 74.8776L180.904 73.4198L186.337 88.3043L182.336 89.7621L184.554 95.8433L200.533 90.0212L198.313 83.9412L194.209 85.4359Z" fill="#263238"/>
<path d="M394.224 448.717C385.378 441.082 379.386 428.401 375.916 417.247C372.445 406.094 373.279 393.327 379.635 383.525C385.991 373.722 398.251 367.596 409.708 369.914C421.978 372.397 431.122 384.021 432.945 396.396C434.768 408.77 427.632 422.892 418.594 431.548C408.386 441.323 405.423 444.637 394.224 448.717Z" fill="#FF503C"/>
<path d="M398.1 451.814C396.964 450.048 396.106 448.042 396.041 445.942L394.712 446.846C393.21 447.732 391.455 450.722 390.753 452.316C390.55 452.777 390.418 453.388 390.792 453.724C391.191 454.082 391.84 453.824 392.225 453.45C392.609 453.076 392.92 452.582 393.428 452.409C393.295 452.953 393.163 453.518 393.276 454.065C393.389 454.613 393.826 455.137 394.385 455.158C394.954 455.18 395.433 454.674 395.58 454.124C395.725 453.573 395.618 452.992 395.509 452.433C395.811 453.067 396.14 453.731 396.726 454.116C397.313 454.5 398.237 454.461 398.584 453.852C398.947 453.212 398.499 452.433 398.1 451.814Z" fill="#FF503C"/>
<path d="M396.75 447.741C396.869 447.871 396.148 448.542 395.009 448.518C393.87 448.502 393.172 447.805 393.295 447.68C393.402 447.528 394.107 447.865 395.021 447.869C395.932 447.899 396.649 447.587 396.75 447.741Z" fill="#4842FB"/>
<g opacity="0.2">
<path d="M427.097 412.57C426.536 411.992 425.651 411.879 424.907 412.192C423.506 412.784 422.917 414.154 422.317 415.428C417.504 425.647 408.542 433.841 397.928 437.725C396.386 438.289 394.532 439.1 394.387 440.735C394.28 441.947 395.287 443.034 396.438 443.436C397.205 443.705 398.268 443.859 399.593 443.639C400.675 443.461 401.707 443.047 402.638 442.469C413.667 435.614 420.558 427.724 426.845 416.186C427.468 415.045 428.033 413.533 427.097 412.57Z" fill="black"/>
</g>
<g opacity="0.2">
<path d="M429.466 401.228C428.487 400.271 426.781 400.44 426.143 401.855L426.164 401.78C425.747 402.898 425.389 404.248 425.563 405.429C425.737 406.609 426.732 407.761 427.923 407.664C429.149 407.564 429.916 406.277 430.203 405.081C430.522 403.75 430.446 402.184 429.466 401.228Z" fill="black"/>
</g>
<path d="M396.737 372.394C396.741 372.405 396.641 372.451 396.447 372.529C396.219 372.618 395.938 372.725 395.598 372.857C395.409 372.927 395.203 373.005 394.982 373.086C394.76 373.176 394.525 373.291 394.268 373.404C393.759 373.64 393.165 373.874 392.552 374.224C392.239 374.39 391.913 374.563 391.575 374.743C391.238 374.926 390.906 375.152 390.552 375.366C389.834 375.782 389.127 376.315 388.369 376.855C386.895 377.991 385.365 379.359 383.934 380.962C382.522 382.583 381.357 384.272 380.415 385.876C379.974 386.695 379.533 387.464 379.211 388.228C379.044 388.605 378.861 388.962 378.721 389.322C378.585 389.68 378.455 390.024 378.33 390.354C378.059 391.006 377.902 391.626 377.731 392.159C377.652 392.427 377.568 392.675 377.506 392.906C377.451 393.136 377.402 393.35 377.356 393.545C377.268 393.9 377.196 394.191 377.137 394.428C377.084 394.63 377.05 394.735 377.039 394.732C377.028 394.73 377.04 394.622 377.073 394.416C377.117 394.174 377.169 393.878 377.234 393.518C377.272 393.318 377.313 393.102 377.357 392.869C377.41 392.634 377.486 392.383 377.557 392.11C377.713 391.569 377.855 390.941 378.114 390.278C378.234 389.943 378.36 389.593 378.491 389.229C378.625 388.866 378.803 388.503 378.968 388.118C379.283 387.343 379.718 386.562 380.158 385.731C381.095 384.103 382.267 382.389 383.693 380.751C385.14 379.131 386.693 377.753 388.192 376.62C388.962 376.081 389.682 375.551 390.413 375.141C390.773 374.93 391.111 374.706 391.454 374.528C391.799 374.353 392.131 374.184 392.449 374.022C393.074 373.683 393.68 373.462 394.198 373.239C394.46 373.134 394.7 373.026 394.927 372.945C395.153 372.871 395.362 372.803 395.555 372.741C395.904 372.631 396.192 372.542 396.427 372.469C396.628 372.409 396.734 372.383 396.737 372.394Z" fill="#FFCC12"/>
<path d="M406.73 372.079C406.728 372.168 405.494 372.209 403.973 372.173C402.452 372.136 401.222 372.033 401.225 371.945C401.227 371.856 402.461 371.814 403.981 371.851C405.5 371.889 406.732 371.991 406.73 372.079Z" fill="#FFCC12"/>
<g opacity="0.1">
<path d="M399.656 375.351C392.118 374.899 386.547 379.352 383.987 386.449C383.171 388.713 382.826 391.253 383.976 393.486C384.279 394.073 384.694 394.605 385.2 395.031C387.773 397.196 390.808 395.826 392.655 393.788C394.023 392.279 394.926 390.416 396.096 388.75C397.265 387.083 398.845 385.535 400.85 385.166C402.84 384.8 405.143 385.607 406.616 383.825C407.324 382.967 407.498 381.79 407.235 380.71C407.021 379.839 406.614 379.098 406.092 378.443C404.737 376.739 402.691 375.727 400.53 375.459L399.656 375.351Z" fill="#FFCC12"/>
</g>
<path d="M51.7421 129.909C41.3915 126.525 31.677 117.777 24.6813 109.438C17.6844 101.099 13.8074 89.8252 15.7425 79.1161C17.6787 68.407 26.0113 58.7366 36.6939 56.6132C48.1336 54.3389 60.1762 61.0465 66.1957 71.0278C72.2152 81.0092 71.1642 95.7117 66.5103 106.397C61.2538 118.467 59.9007 122.38 51.7421 129.909Z" fill="#FF503C"/>
<path d="M56.1891 131.178C54.5767 130.068 53.1177 128.651 52.3051 126.871L51.488 128.125C50.5153 129.425 50.0831 132.626 50.0532 134.249C50.0451 134.718 50.1511 135.291 50.5948 135.445C51.0662 135.61 51.5318 135.155 51.7266 134.696C51.9225 134.236 52.0124 133.7 52.3858 133.368C52.4677 133.883 52.5564 134.416 52.8514 134.846C53.1465 135.277 53.7089 135.57 54.1976 135.388C54.6943 135.202 54.9248 134.595 54.8522 134.069C54.7796 133.544 54.4776 133.082 54.1837 132.641C54.6712 133.077 55.1922 133.53 55.8353 133.65C56.4784 133.77 57.2586 133.404 57.337 132.755C57.4188 132.076 56.7538 131.567 56.1891 131.178Z" fill="#FF503C"/>
<path d="M53.5613 128.164C53.7111 128.233 53.332 129.07 52.3443 129.458C51.36 129.854 50.5095 129.506 50.5694 129.354C50.6074 129.184 51.3335 129.221 52.1195 128.896C52.9147 128.594 53.4184 128.067 53.5613 128.164Z" fill="#4842FB"/>
<g opacity="0.2">
<path d="M66.9916 87.0299C66.3012 86.7351 65.4991 86.9562 64.9736 87.4917C63.9813 88.5039 63.9686 89.8926 63.9109 91.203C63.4511 101.715 58.697 111.977 50.9718 119.128C49.8492 120.167 48.5469 121.53 49.0102 122.987C49.3548 124.068 50.6122 124.64 51.7451 124.572C52.5011 124.527 53.4704 124.277 54.5295 123.614C55.3951 123.071 56.1338 122.346 56.7262 121.513C63.7392 111.659 66.8233 102.401 68.0749 90.2265C68.2006 89.0243 68.1418 87.5216 66.9916 87.0299Z" fill="black"/>
</g>
<g opacity="0.2">
<path d="M64.9439 76.4315C63.758 75.9605 62.352 76.7182 62.3139 78.1633L62.3047 78.092C62.3485 79.2032 62.526 80.4917 63.1011 81.4452C63.675 82.3975 64.9462 83.0297 65.9339 82.5184C66.9516 81.9921 67.1475 80.6092 66.9643 79.4784C66.758 78.2198 66.1299 76.9013 64.9439 76.4315Z" fill="black"/>
</g>
<path d="M26.4395 63.405C26.4464 63.4131 26.3761 63.4891 26.2389 63.6261C26.0741 63.7839 25.8724 63.9773 25.6269 64.2134C25.4898 64.3424 25.3411 64.4805 25.1798 64.6314C25.0207 64.7891 24.8605 64.9711 24.6807 65.1611C24.3292 65.5468 23.9017 65.9602 23.5006 66.4819C23.292 66.7364 23.0742 67.0024 22.8483 67.2787C22.6235 67.5574 22.4195 67.8706 22.1925 68.1815C21.7257 68.7964 21.3097 69.5092 20.8521 70.2462C19.9935 71.7524 19.1706 73.4773 18.5183 75.3693C17.8879 77.2693 17.4937 79.1405 17.2621 80.8574C17.1779 81.7199 17.0754 82.5386 17.0731 83.3113C17.065 83.697 17.0362 84.069 17.0454 84.4271C17.0569 84.784 17.0685 85.1272 17.08 85.4565C17.0823 86.114 17.1699 86.7025 17.216 87.2218C17.2436 87.4809 17.2609 87.7239 17.2909 87.945C17.3278 88.1614 17.3612 88.363 17.3923 88.5484C17.4442 88.8834 17.488 89.161 17.5225 89.3855C17.549 89.5778 17.5583 89.6803 17.5479 89.6826C17.5375 89.6849 17.5087 89.587 17.4638 89.3982C17.4142 89.1748 17.3531 88.9007 17.2782 88.5679C17.239 88.3825 17.1964 88.1822 17.1514 87.9657C17.1123 87.7446 17.0869 87.5016 17.0512 87.2414C16.9901 86.7197 16.8864 86.129 16.8702 85.4669C16.8529 85.1353 16.8345 84.7898 16.8161 84.4294C16.7999 84.069 16.8241 83.6924 16.8264 83.3032C16.8184 82.5236 16.9117 81.6957 16.9889 80.824C17.2091 79.0875 17.5986 77.1933 18.2359 75.2725C18.8963 73.3599 19.7354 71.6188 20.6159 70.1057C21.0838 69.3653 21.5125 68.6513 21.992 68.0364C22.2259 67.7255 22.4357 67.4123 22.6673 67.1359C22.9001 66.8619 23.1249 66.597 23.3404 66.3448C23.7553 65.8278 24.1967 65.4213 24.562 65.0436C24.7487 64.8594 24.9159 64.6809 25.0818 64.5289C25.2501 64.385 25.4057 64.2502 25.5486 64.127C25.8102 63.9082 26.0246 63.7274 26.1998 63.58C26.3507 63.4568 26.4326 63.397 26.4395 63.405Z" fill="#FFCC12"/>
<path d="M34.914 59.5447C34.944 59.6219 33.8975 60.1009 32.5779 60.6145C31.2571 61.1292 30.1634 61.4839 30.1334 61.4067C30.1035 61.3296 31.1488 60.8505 32.4696 60.337C33.7892 59.8222 34.8841 59.4676 34.914 59.5447Z" fill="#FFCC12"/>
<g opacity="0.1">
<path d="M28.7363 64.5072C18.8708 72.5632 17.0614 84.4526 22.0126 96.1819C23.5915 99.9232 26.0728 103.469 30.0559 104.922C31.1047 105.304 32.2284 105.49 33.344 105.439C39.0143 105.183 41.2098 100.014 41.1672 95.3747C41.1361 91.9409 40.1219 88.598 39.6655 85.1942C39.2091 81.7903 39.3946 78.0617 41.4576 75.3153C43.5079 72.5862 47.287 70.9557 47.0726 67.0601C46.9689 65.1866 45.8371 63.5284 44.2732 62.4909C43.0123 61.6537 41.6593 61.2012 40.2602 60.9836C36.6298 60.4205 32.9325 61.5029 29.9464 63.6412L28.7363 64.5072Z" fill="#FFCC12"/>
</g>
<path d="M466.424 158.4C458.508 148.866 454.463 134.553 452.787 122.28C451.111 110.006 454.221 96.7967 462.588 87.656C470.955 78.5141 484.853 74.2501 496.431 78.6799C508.831 83.4242 516.358 97.1825 516.097 110.447C515.835 123.71 505.896 137.233 494.925 144.705C482.533 153.144 478.853 156.092 466.424 158.4Z" fill="#4842FB"/>
<path d="M469.937 162.317C469.057 160.271 468.512 158.022 468.811 155.815L467.262 156.528C465.535 157.191 463.176 160.013 462.162 161.558C461.869 162.004 461.624 162.621 461.957 163.038C462.312 163.482 463.036 163.326 463.502 163.002C463.97 162.678 464.382 162.216 464.943 162.123C464.709 162.668 464.472 163.236 464.495 163.829C464.518 164.422 464.882 165.046 465.463 165.166C466.054 165.289 466.645 164.843 466.894 164.293C467.143 163.744 467.132 163.116 467.117 162.513C467.321 163.228 467.549 163.98 468.094 164.485C468.64 164.991 469.614 165.11 470.084 164.534C470.576 163.928 470.245 163.035 469.937 162.317Z" fill="#4842FB"/>
<path d="M469.236 157.823C469.337 157.98 468.465 158.557 467.278 158.332C466.09 158.117 465.481 157.266 465.632 157.156C465.77 157.016 466.449 157.492 467.403 157.655C468.352 157.844 469.156 157.642 469.236 157.823Z" fill="#4842FB"/>
<g opacity="0.2">
<path d="M507.147 126.341C506.66 125.639 505.754 125.365 504.922 125.563C503.353 125.936 502.496 127.267 501.646 128.493C494.821 138.34 484.01 145.343 472.227 147.55C470.514 147.87 468.433 148.394 467.995 150.078C467.67 151.329 468.534 152.642 469.667 153.262C470.422 153.677 471.508 154.024 472.932 154.027C474.095 154.029 475.248 153.777 476.323 153.335C489.062 148.094 497.652 141.046 506.25 130.078C507.099 128.994 507.957 127.512 507.147 126.341Z" fill="black"/>
</g>
<g opacity="0.2">
<path d="M511.61 114.891C510.754 113.719 508.94 113.595 508.026 114.965L508.06 114.891C507.429 115.988 506.817 117.337 506.792 118.602C506.766 119.868 507.606 121.246 508.868 121.353C510.168 121.463 511.196 120.25 511.706 119.05C512.272 117.713 512.466 116.063 511.61 114.891Z" fill="black"/>
</g>
<path d="M482.431 79.0031C482.432 79.0146 482.319 79.0457 482.104 79.0941C481.849 79.1459 481.537 79.2104 481.157 79.2887C480.948 79.329 480.719 79.3727 480.473 79.4211C480.224 79.4764 479.959 79.5547 479.671 79.6284C479.098 79.7873 478.434 79.9266 477.732 80.1857C477.376 80.3043 477.005 80.4287 476.62 80.5576C476.234 80.6901 475.848 80.8685 475.44 81.0298C474.617 81.3395 473.782 81.7736 472.896 82.2055C471.156 83.1359 469.315 84.2989 467.537 85.7256C465.776 87.1742 464.261 88.7369 462.994 90.2499C462.389 91.0295 461.793 91.7561 461.323 92.4989C461.081 92.865 460.827 93.2059 460.62 93.5571C460.415 93.9083 460.218 94.2457 460.029 94.5693C459.631 95.2038 459.359 95.8244 459.087 96.3518C458.957 96.619 458.825 96.8631 458.72 97.0946C458.624 97.326 458.534 97.539 458.452 97.7371C458.299 98.0918 458.172 98.3843 458.068 98.6226C457.977 98.8241 457.923 98.9278 457.912 98.9243C457.901 98.9209 457.933 98.8092 458.004 98.5996C458.091 98.3543 458.198 98.0538 458.329 97.6876C458.403 97.4861 458.484 97.2673 458.572 97.0301C458.669 96.7929 458.792 96.5441 458.915 96.2712C459.172 95.7323 459.432 95.099 459.819 94.4518C460.003 94.1213 460.196 93.7782 460.396 93.4201C460.6 93.0631 460.85 92.7153 461.09 92.3423C461.556 91.5857 462.148 90.8464 462.752 90.053C464.017 88.5135 465.543 86.9255 467.324 85.4619C469.121 84.0203 470.986 82.8515 472.753 81.9279C473.653 81.4996 474.499 81.0701 475.335 80.7695C475.749 80.6118 476.142 80.4379 476.532 80.3112C476.924 80.188 477.301 80.0705 477.661 79.9565C478.374 79.7101 479.046 79.5858 479.628 79.4441C479.92 79.3796 480.189 79.3094 480.442 79.2633C480.691 79.2265 480.922 79.1919 481.135 79.1597C481.52 79.1067 481.837 79.063 482.096 79.0284C482.313 78.9996 482.429 78.9916 482.431 79.0031Z" fill="#FFCC12"/>
<path d="M492.935 80.422C492.917 80.5142 491.619 80.3414 490.036 80.0374C488.451 79.7323 487.182 79.411 487.199 79.3177C487.217 79.2256 488.516 79.3984 490.099 79.7035C491.684 80.0075 492.954 80.3299 492.935 80.422Z" fill="#FFCC12"/>
<g opacity="0.1">
<path d="M483.973 81.457C469.58 83.2373 460.617 93.5917 458.264 107.891C457.514 112.452 457.751 117.37 460.705 121.184C461.483 122.188 462.454 123.049 463.558 123.675C469.175 126.866 474.428 123.217 477.205 118.722C479.259 115.396 480.313 111.561 481.939 108.006C483.565 104.45 486.009 100.973 489.664 99.5773C493.296 98.1908 497.927 98.9105 500.084 95.0288C501.121 93.1622 501.038 90.8776 500.162 88.9303C499.456 87.3608 498.428 86.1034 497.212 85.0463C494.056 82.3034 489.839 81.1047 485.664 81.3545L483.973 81.457Z" fill="white" fill-opacity="0.5"/>
</g>
<path d="M297.076 64.6417C297.253 64.4206 303.051 53.1196 303.993 50.9237C304.935 48.7277 304.892 41.084 303.412 39.5006C301.932 37.9173 300.381 37.2368 299.743 37.2955C297.99 37.4567 297.198 39.4074 297.198 39.4074C297.198 39.4074 294.224 36.6863 292.029 40.5289C292.029 40.5289 289.066 39.2231 288.122 42.9333C288.122 42.9333 285.13 43.5712 285.479 45.9226L285.993 47.4518C285.993 47.4518 284.609 54.5187 284.564 57.2558C284.519 59.9941 285.427 63.3669 285.427 63.3669L297.076 64.6417Z" fill="#E1967C"/>
<path d="M304.41 43.6916C304.424 43.6927 304.451 43.5949 304.457 43.4014C304.464 43.2091 304.443 42.9189 304.33 42.5654C304.123 41.8595 303.48 40.8911 302.308 40.2163C301.733 39.8709 301.054 39.591 300.322 39.3274C299.606 39.104 298.783 38.6537 297.769 38.9358C297.276 39.0832 296.863 39.5438 296.741 40.0563C296.606 40.5675 296.662 41.1134 296.883 41.6074C297.364 42.608 298.359 43.1412 299.259 43.6144L299.123 43.3081C298.91 44.128 298.687 44.9859 298.458 45.8587C298.31 46.4333 298.163 47.001 298.018 47.5618C297.857 48.1088 297.781 48.7318 297.514 49.0611C297.24 49.402 296.712 49.5056 296.19 49.5862C295.652 49.6749 295.116 49.7969 294.615 49.957C292.593 50.6099 291.056 51.834 290.019 53.0189C288.973 54.2176 288.419 55.3979 288.137 56.2281C287.996 56.6461 287.91 56.9755 287.876 57.2046C287.833 57.4315 287.82 57.5524 287.838 57.5558C287.892 57.5697 287.994 57.0952 288.335 56.303C288.67 55.5142 289.261 54.3984 290.306 53.2757C291.342 52.1656 292.84 51.0279 294.767 50.4349C295.249 50.2886 295.744 50.1815 296.271 50.0998C296.786 50.0146 297.455 49.9443 297.928 49.3997C298.354 48.8227 298.366 48.2435 298.545 47.6977C298.69 47.1381 298.838 46.5704 298.987 45.9958C299.213 45.1218 299.435 44.2639 299.645 43.4429L299.7 43.2333L299.509 43.1366C298.606 42.6771 297.727 42.1716 297.352 41.3909C296.981 40.6309 297.195 39.6003 297.926 39.3838C298.645 39.1489 299.465 39.5001 300.185 39.7246C300.914 39.9664 301.575 40.2175 302.131 40.5238C303.261 41.1214 303.896 41.9827 304.149 42.6287C304.411 43.284 304.359 43.6939 304.41 43.6916Z" fill="#C37259"/>
<path d="M292.438 40.508C292.379 40.4596 291.849 41.2518 291.706 42.6993C291.617 43.4121 291.615 44.2596 291.488 45.1578C291.366 46.0433 291.049 47.0244 290.305 47.6784C289.607 48.359 288.386 48.3394 288.236 47.5057C288.063 46.6766 288.066 45.79 288.073 45.1117C288.11 43.7172 288.29 42.8582 288.206 42.8398C288.144 42.8225 287.828 43.6585 287.689 45.0887C287.639 45.8153 287.574 46.6317 287.751 47.6381C287.816 47.8915 287.949 48.1759 288.192 48.3751C288.429 48.5789 288.737 48.6756 289.033 48.6952C289.632 48.739 290.221 48.4753 290.663 48.0884C291.563 47.2915 291.882 46.1607 291.987 45.2211C292.092 44.2642 292.053 43.4236 292.091 42.7292C292.13 41.3336 292.507 40.5425 292.438 40.508Z" fill="#C37259"/>
<path d="M296.738 41.9306C296.642 41.9387 296.774 42.701 296.675 43.8675C296.614 44.4421 296.435 45.1284 295.976 45.7041C295.543 46.2822 294.725 46.6449 293.951 46.4031C293.17 46.1774 292.914 45.3115 292.868 44.5572C292.83 43.8237 292.793 43.1224 292.759 42.4453C292.686 41.2362 292.604 40.4901 292.528 40.4912C292.453 40.4924 292.399 41.242 292.373 42.4534C292.365 43.0637 292.342 43.7673 292.367 44.5918C292.39 45.0028 292.442 45.4577 292.648 45.9079C292.845 46.357 293.268 46.767 293.785 46.9224C294.82 47.2552 295.882 46.7244 296.372 46.0127C296.895 45.3068 297.043 44.5169 297.059 43.8962C297.061 42.6376 296.789 41.9237 296.738 41.9306Z" fill="#C37259"/>
<path d="M288.112 47.6819C287.995 47.5806 287.595 47.8466 287.047 47.91C286.5 47.994 286.044 47.8432 285.959 47.971C285.856 48.0815 286.355 48.5536 287.119 48.4489C287.882 48.3487 288.239 47.7626 288.112 47.6819Z" fill="#C37259"/>
<path d="M278.188 387.098C274.58 372.503 273.184 362.461 272.984 355.555H262.445H251.907C251.705 362.461 250.309 372.503 246.701 387.098C234.93 434.714 192.727 437.296 192.727 437.296V450.778H262.445H332.162V437.296C332.162 437.296 289.959 434.716 278.188 387.098Z" fill="#FFCC12"/>
<path d="M332.162 437.266C332.162 437.432 300.947 437.566 262.447 437.566C223.935 437.566 192.727 437.431 192.727 437.266C192.727 437.102 223.936 436.967 262.447 436.967C300.946 436.967 332.162 437.1 332.162 437.266Z" fill="#263238"/>
<path d="M342.283 450.779H184.447V456.246H342.283V450.779Z" fill="#FFCC12"/>
<path d="M339.049 450.78C339.049 450.946 304.522 451.079 261.941 451.079C219.344 451.079 184.824 450.946 184.824 450.78C184.824 450.614 219.344 450.48 261.941 450.48C304.521 450.479 339.049 450.614 339.049 450.78Z" fill="#263238"/>
<path d="M352.475 456.524H172.865V504.479H352.475V456.524Z" fill="#263238"/>
<path d="M316.084 494.597H208.438C207.091 494.597 206 493.507 206 492.162V469.435C206 468.09 207.091 467 208.438 467H316.084C317.43 467 318.521 468.09 318.521 469.435V492.162C318.521 493.507 317.43 494.597 316.084 494.597Z" fill="#455A64"/>
<path d="M268.785 479.358C268.794 477.615 267.421 476.195 265.719 476.186L256.103 476.136L256.057 484.903L258.007 484.913L258.042 478.043L265.773 478.083C266.44 478.086 266.976 478.642 266.973 479.324C266.969 480.006 266.427 480.556 265.761 480.552L260.32 480.524C259.757 480.521 259.486 481.508 259.964 481.812C260.443 482.115 265.002 484.948 265.002 484.948L268.587 484.967L265.241 482.495L265.688 482.498C267.39 482.506 268.777 481.1 268.786 479.357L268.785 479.358Z" fill="white"/>
<path d="M252.52 476.117L246.385 476.085C244.709 476.076 243.343 477.461 243.335 479.177L243.305 484.835L245.215 484.845L245.226 482.752L253.596 482.796L253.586 484.889L255.508 484.899L255.538 479.241C255.547 477.524 254.195 476.126 252.52 476.117ZM245.236 480.846L245.244 479.298C245.248 478.551 245.842 477.948 246.572 477.952L252.302 477.982C253.031 477.986 253.619 478.594 253.616 479.341L253.608 480.889L245.236 480.846Z" fill="white"/>
<path d="M269.297 476.204L269.268 481.783C269.258 483.544 270.645 484.979 272.364 484.988L279.578 485.025L279.588 483.109L272.475 483.072C271.78 483.069 271.22 482.488 271.224 481.777L271.253 476.214L269.297 476.204Z" fill="white"/>
<path d="M290.145 476.321L283.659 476.287C281.295 476.275 279.369 478.227 279.356 480.648C279.344 483.069 281.25 485.041 283.613 485.053L290.099 485.087C292.462 485.099 294.388 483.147 294.401 480.726C294.414 478.306 292.508 476.333 290.145 476.321ZM292.478 480.716C292.471 482.084 291.383 483.187 290.047 483.18L283.685 483.147C282.349 483.14 281.272 482.026 281.279 480.658C281.286 479.29 282.375 478.187 283.71 478.194L290.073 478.227C291.409 478.234 292.485 479.348 292.478 480.716Z" fill="white"/>
<path d="M242.83 476.067L242.82 478.023L233.165 477.973C232.485 477.969 231.93 478.531 231.926 479.229L231.914 481.592C231.91 482.289 232.458 482.857 233.139 482.861L242.794 482.911L242.784 484.834L233.223 484.784C231.418 484.775 229.962 483.268 229.972 481.419L229.983 479.349C229.992 477.499 231.464 476.008 233.269 476.017L242.83 476.067Z" fill="white"/>
<path d="M270.088 486.357L270.09 486.092L272.169 486.103L272.168 486.368L271.296 486.363L271.284 488.564L270.949 488.562L270.96 486.362L270.088 486.357Z" fill="white"/>
<path d="M273.51 487.819L273.516 486.726L273.835 486.728L273.826 488.577L273.506 488.575L273.508 488.262L273.486 488.262C273.437 488.356 273.361 488.435 273.257 488.5C273.154 488.565 273.024 488.597 272.867 488.596C272.737 488.595 272.622 488.569 272.521 488.518C272.42 488.466 272.341 488.389 272.284 488.286C272.227 488.182 272.198 488.052 272.199 487.894L272.205 486.72L272.525 486.721L272.519 487.877C272.518 488.012 272.56 488.119 272.644 488.2C272.73 488.281 272.839 488.321 272.971 488.322C273.051 488.322 273.132 488.305 273.214 488.269C273.297 488.233 273.367 488.178 273.423 488.104C273.48 488.03 273.509 487.935 273.51 487.819Z" fill="white"/>
<path d="M275.221 488.584L275.234 486.119L276.171 486.124C276.388 486.125 276.566 486.161 276.704 486.231C276.842 486.301 276.945 486.395 277.011 486.513C277.077 486.632 277.11 486.763 277.109 486.909C277.108 487.054 277.074 487.186 277.007 487.304C276.94 487.423 276.838 487.517 276.699 487.587C276.561 487.656 276.384 487.69 276.168 487.689L275.497 487.685L275.498 487.42L276.159 487.424C276.308 487.425 276.427 487.402 276.518 487.357C276.608 487.312 276.674 487.25 276.715 487.173C276.757 487.094 276.778 487.006 276.779 486.907C276.779 486.808 276.759 486.72 276.718 486.642C276.678 486.564 276.612 486.503 276.521 486.458C276.43 486.412 276.309 486.389 276.159 486.389L275.568 486.386L275.557 488.586L275.221 488.584Z" fill="white"/>
<path d="M277.445 488.596L277.455 486.747L277.764 486.748L277.762 487.028L277.784 487.028C277.822 486.937 277.891 486.863 277.991 486.806C278.09 486.75 278.202 486.722 278.327 486.722C278.35 486.723 278.38 486.723 278.415 486.724C278.45 486.725 278.477 486.726 278.495 486.728L278.493 487.017C278.482 487.015 278.458 487.011 278.419 487.006C278.381 487 278.341 486.997 278.298 486.997C278.197 486.996 278.107 487.015 278.027 487.052C277.949 487.088 277.886 487.139 277.84 487.205C277.794 487.27 277.771 487.344 277.771 487.427L277.765 488.597L277.445 488.596Z" fill="white"/>
<path d="M278.711 488.602L278.721 486.753L279.04 486.755L279.031 488.604L278.711 488.602ZM278.885 486.446C278.823 486.446 278.769 486.427 278.724 486.389C278.68 486.351 278.658 486.305 278.658 486.252C278.659 486.199 278.681 486.154 278.726 486.117C278.771 486.079 278.825 486.061 278.887 486.061C278.949 486.061 279.002 486.08 279.046 486.118C279.091 486.156 279.114 486.202 279.113 486.255C279.113 486.308 279.09 486.353 279.045 486.39C279.001 486.428 278.947 486.446 278.885 486.446Z" fill="white"/>
<path d="M279.463 488.606L279.473 486.757L279.782 486.759L279.78 487.048L279.807 487.048C279.851 486.949 279.921 486.873 280.018 486.819C280.115 486.764 280.231 486.737 280.367 486.738C280.504 486.739 280.618 486.767 280.709 486.823C280.8 486.878 280.872 486.955 280.923 487.054L280.944 487.054C280.998 486.959 281.078 486.883 281.185 486.828C281.292 486.771 281.42 486.743 281.569 486.744C281.755 486.745 281.907 486.798 282.024 486.902C282.142 487.005 282.2 487.166 282.199 487.383L282.193 488.62L281.873 488.619L281.88 487.381C281.88 487.245 281.839 487.147 281.755 487.088C281.672 487.029 281.573 486.999 281.459 486.999C281.313 486.998 281.199 487.037 281.119 487.115C281.038 487.192 280.997 487.291 280.997 487.41L280.99 488.614L280.666 488.612L280.672 487.346C280.673 487.241 280.635 487.156 280.558 487.092C280.482 487.026 280.383 486.993 280.262 486.993C280.179 486.992 280.102 487.011 280.029 487.05C279.958 487.089 279.9 487.144 279.855 487.213C279.811 487.282 279.789 487.362 279.789 487.452L279.783 488.608L279.463 488.606Z" fill="white"/>
<path d="M283.496 488.666C283.296 488.665 283.123 488.624 282.978 488.545C282.834 488.465 282.723 488.353 282.645 488.211C282.569 488.068 282.531 487.901 282.532 487.712C282.533 487.523 282.572 487.356 282.651 487.212C282.73 487.067 282.84 486.955 282.98 486.874C283.121 486.793 283.286 486.753 283.473 486.754C283.582 486.755 283.689 486.771 283.794 486.804C283.899 486.837 283.995 486.889 284.082 486.962C284.168 487.034 284.236 487.129 284.287 487.247C284.338 487.365 284.363 487.511 284.362 487.683L284.361 487.803L282.759 487.795L282.76 487.55L284.038 487.556C284.038 487.452 284.015 487.359 283.969 487.277C283.923 487.195 283.858 487.13 283.772 487.082C283.688 487.034 283.588 487.01 283.472 487.009C283.345 487.009 283.235 487.036 283.141 487.092C283.049 487.147 282.978 487.219 282.928 487.307C282.878 487.396 282.852 487.491 282.852 487.593L282.851 487.757C282.85 487.897 282.877 488.015 282.93 488.113C282.985 488.209 283.061 488.283 283.158 488.334C283.255 488.384 283.368 488.41 283.497 488.41C283.581 488.411 283.657 488.401 283.725 488.38C283.794 488.359 283.853 488.327 283.903 488.285C283.953 488.242 283.991 488.188 284.019 488.124L284.327 488.203C284.294 488.296 284.239 488.377 284.162 488.448C284.085 488.517 283.99 488.571 283.877 488.61C283.764 488.648 283.637 488.666 283.496 488.666Z" fill="white"/>
<path d="M284.691 488.633L284.7 486.785L285.009 486.786L285.007 487.065L285.029 487.065C285.067 486.974 285.136 486.9 285.236 486.844C285.336 486.787 285.448 486.76 285.572 486.76C285.596 486.76 285.625 486.761 285.66 486.762C285.695 486.763 285.722 486.764 285.74 486.766L285.739 487.055C285.728 487.052 285.703 487.049 285.664 487.043C285.626 487.038 285.586 487.035 285.544 487.034C285.443 487.034 285.352 487.052 285.273 487.09C285.194 487.126 285.131 487.177 285.085 487.243C285.04 487.307 285.017 487.382 285.016 487.465L285.01 488.635L284.691 488.633Z" fill="white"/>
<path d="M287.033 488.646L286.681 488.644L287.712 486.184L288.059 486.186L289.064 488.656L288.712 488.654L287.894 486.575L287.873 486.575L287.033 488.646ZM287.168 487.683L288.587 487.691L288.586 487.955L287.167 487.948L287.168 487.683Z" fill="white"/>
<path d="M290.614 487.908L290.62 486.815L290.94 486.817L290.93 488.666L290.61 488.664L290.612 488.351L290.59 488.351C290.541 488.445 290.465 488.524 290.362 488.589C290.259 488.654 290.128 488.686 289.971 488.685C289.841 488.684 289.726 488.658 289.625 488.607C289.524 488.555 289.445 488.478 289.388 488.375C289.331 488.271 289.303 488.141 289.303 487.983L289.31 486.808L289.629 486.81L289.623 487.966C289.622 488.1 289.664 488.208 289.749 488.289C289.834 488.37 289.943 488.41 290.076 488.411C290.155 488.411 290.236 488.394 290.318 488.358C290.401 488.322 290.471 488.267 290.528 488.193C290.585 488.119 290.614 488.024 290.614 487.908Z" fill="white"/>
<path d="M292.277 486.824L292.275 487.065L291.198 487.059L291.199 486.818L292.277 486.824ZM291.515 486.377L291.835 486.379L291.826 488.141C291.825 488.221 291.838 488.281 291.864 488.322C291.891 488.361 291.925 488.388 291.966 488.402C292.009 488.415 292.053 488.421 292.1 488.421C292.136 488.422 292.164 488.42 292.187 488.417C292.21 488.413 292.228 488.41 292.241 488.408L292.305 488.663C292.283 488.67 292.253 488.677 292.214 488.684C292.175 488.692 292.126 488.696 292.066 488.696C291.976 488.695 291.888 488.678 291.801 488.643C291.716 488.608 291.645 488.555 291.588 488.484C291.533 488.413 291.505 488.324 291.506 488.216L291.515 486.377Z" fill="white"/>
<path d="M293.417 488.717C293.23 488.716 293.065 488.676 292.924 488.595C292.783 488.515 292.674 488.404 292.595 488.26C292.517 488.117 292.479 487.95 292.48 487.759C292.481 487.566 292.521 487.399 292.6 487.255C292.681 487.112 292.791 487.001 292.932 486.922C293.075 486.844 293.239 486.805 293.427 486.806C293.615 486.807 293.779 486.847 293.919 486.928C294.061 487.008 294.17 487.12 294.248 487.264C294.327 487.408 294.365 487.576 294.364 487.769C294.363 487.96 294.323 488.127 294.243 488.269C294.163 488.411 294.053 488.522 293.911 488.601C293.769 488.679 293.605 488.718 293.417 488.717ZM293.419 488.462C293.561 488.463 293.679 488.431 293.771 488.366C293.863 488.302 293.932 488.217 293.977 488.111C294.022 488.005 294.044 487.891 294.045 487.767C294.046 487.644 294.024 487.528 293.98 487.421C293.937 487.314 293.869 487.228 293.777 487.162C293.686 487.095 293.568 487.062 293.426 487.061C293.283 487.06 293.166 487.093 293.073 487.158C292.981 487.223 292.912 487.309 292.868 487.416C292.823 487.522 292.8 487.637 292.799 487.761C292.799 487.884 292.82 487.999 292.864 488.105C292.908 488.211 292.975 488.297 293.067 488.363C293.159 488.428 293.276 488.461 293.419 488.462Z" fill="white"/>
<path opacity="0.3" d="M258.782 466.702L227.164 494.3H250.159L283.866 466.702H258.782Z" fill="white"/>
<path opacity="0.3" d="M278.188 387.098C277.773 385.418 277.391 383.805 277.032 382.243L277.03 382.242C277.03 382.242 276.619 393.285 282.425 412.081C288.231 430.878 269.883 437.266 269.883 437.266C269.883 437.266 269.58 443.597 253.323 446.382C243.183 448.118 192.727 450.778 192.727 450.778H262.445H332.162V437.296C332.162 437.296 289.959 434.716 278.188 387.098Z" fill="black"/>
<g opacity="0.3">
<path d="M234.858 439.518C223.123 440.598 211.3 440.731 199.545 439.911C198.811 439.86 198.052 439.808 197.359 440.051C196.665 440.294 196.047 440.917 196.053 441.653C196.059 442.388 196.485 443.028 197.416 443.067C213.081 444.145 228.872 443.392 244.364 440.827C241.7 438.926 238.116 439.218 234.858 439.518Z" fill="white"/>
</g>
<g opacity="0.3">
<path d="M251.412 386.973C251.548 386.172 251.67 385.367 251.777 384.561L255.515 387.067C255.515 387.067 249.284 427.585 244.364 432.791L212.258 434.375L212.918 434.106C232.935 425.954 247.806 408.267 251.412 386.973Z" fill="white"/>
</g>
<path d="M194.776 341.642C155.055 331.68 128.325 303.955 117.477 261.466C109.477 230.125 112.925 202.053 113.076 200.874C113.52 197.403 116.595 194.795 120.243 194.795H170.26V208.636H126.921C126.394 218.204 126.247 237.826 131.596 258.542C141.297 296.11 163.784 319.564 198.432 328.253L194.776 341.642Z" fill="#FFCC12"/>
<path d="M331.953 341.642L328.299 328.252C363.065 319.534 385.583 295.956 395.229 258.176C400.501 237.523 400.347 218.125 399.816 208.635H356.471V194.794H406.487C410.135 194.794 413.21 197.402 413.653 200.873C413.804 202.052 417.254 230.125 409.252 261.466C398.403 303.955 371.675 331.68 331.953 341.642Z" fill="#FFCC12"/>
<path d="M327.186 135.344C327.186 135.344 318.661 129.001 316.801 128.609C314.942 128.217 308.537 125.538 308.537 125.538L295.695 104.394L297.71 63.8469L283.654 62.9326L282.462 66.9422C282.462 66.9422 272.849 104.555 274.999 110.385C275.828 112.632 284.884 130.585 290.006 137.599C296.134 145.993 302.047 154.73 302.047 154.73L327.186 135.344Z" fill="#E0E0E0"/>
<path d="M329.68 89.5132C327.504 89.2287 325.718 87.1376 325.783 84.9451C325.847 82.7538 327.75 80.7685 329.94 80.6119C328.959 78.9376 329.179 76.645 330.461 75.1871C331.743 73.7293 333.989 73.2158 335.777 73.9723C336.317 72.1345 337.87 70.6283 339.727 70.147C341.583 69.6656 343.673 70.2241 345.04 71.5679C347.533 70.3174 350.863 71.0739 352.569 73.2779C354.46 73.3931 356.191 74.844 356.634 76.683C357.077 78.5219 356.196 80.6016 354.566 81.5619" fill="#263238"/>
<path d="M352.437 77.7969L351.482 77.5608C341.867 75.1852 332.04 80.5824 328.897 89.9661C325.974 98.6934 322.857 108.373 321.733 113.165C319.407 123.087 328.928 127.073 328.928 127.073L325.149 138.75L323.898 148.087L349.362 143.943L362.157 101.367C365.586 91.3157 362.588 80.944 352.437 77.7969Z" fill="#C17560"/>
<path d="M328.849 127.038C328.849 127.038 335.078 128.981 342.761 126.451C342.761 126.451 337.665 133.254 328.006 129.922L328.849 127.038Z" fill="#7C4236"/>
<path d="M329.599 99.8219C329.388 100.561 329.841 101.35 330.609 101.584C331.377 101.817 332.171 101.41 332.382 100.671C332.593 99.9313 332.141 99.1425 331.373 98.9076C330.605 98.6738 329.81 99.0826 329.599 99.8219Z" fill="#263238"/>
<path d="M342.923 103.126C342.712 103.865 343.164 104.654 343.934 104.887C344.701 105.121 345.495 104.714 345.706 103.974C345.917 103.235 345.465 102.446 344.698 102.211C343.929 101.978 343.134 102.386 342.923 103.126Z" fill="#263238"/>
<path d="M329.829 95.3323C329.958 95.5603 331.226 95.0329 332.746 95.4129C334.27 95.771 335.193 96.8281 335.404 96.683C335.505 96.6209 335.409 96.2432 335.011 95.7699C334.619 95.2989 333.888 94.7554 332.938 94.5251C331.99 94.2959 331.106 94.448 330.56 94.6909C330.004 94.9339 329.763 95.2275 329.829 95.3323Z" fill="#263238"/>
<path d="M344.325 98.6155C344.455 98.8435 345.723 98.3161 347.243 98.6961C348.766 99.0542 349.69 100.111 349.9 99.9662C350.002 99.9041 349.907 99.5275 349.506 99.0531C349.116 98.5833 348.384 98.0386 347.435 97.8083C346.487 97.5792 345.603 97.7311 345.056 97.9741C344.502 98.2182 344.26 98.5119 344.325 98.6155Z" fill="#263238"/>
<path d="M336.402 109.22C336.43 109.135 335.524 108.738 334.041 108.163C333.663 108.027 333.314 107.859 333.314 107.578C333.292 107.275 333.558 106.896 333.858 106.491C334.456 105.642 335.082 104.752 335.739 103.82C338.377 100.006 340.388 96.8311 340.234 96.7263C340.079 96.6215 337.816 99.6281 335.179 103.442C334.538 104.385 333.925 105.283 333.342 106.143C333.086 106.549 332.709 106.986 332.763 107.617C332.796 107.933 333.029 108.215 333.261 108.343C333.491 108.48 333.708 108.539 333.898 108.597C335.42 109.061 336.374 109.304 336.402 109.22Z" fill="#263238"/>
<path d="M344.84 93.1358C344.945 93.571 346.352 93.4755 347.97 93.8198C349.596 94.1284 350.874 94.7652 351.12 94.4001C351.23 94.2251 351.031 93.8083 350.529 93.3569C350.031 92.9066 349.218 92.4529 348.245 92.256C347.273 92.0614 346.361 92.1673 345.745 92.3942C345.123 92.6187 344.796 92.9296 344.84 93.1358Z" fill="#263238"/>
<path d="M331.306 89.0448C331.541 89.4697 332.886 89.4213 334.399 89.7771C335.923 90.0892 337.131 90.6983 337.514 90.4105C337.687 90.2677 337.571 89.8716 337.094 89.4063C336.624 88.9446 335.768 88.4506 334.724 88.2203C333.68 87.9911 332.704 88.0821 332.091 88.3055C331.47 88.53 331.206 88.8421 331.306 89.0448Z" fill="#263238"/>
<path d="M330.973 85.6648C330.973 85.6648 335.117 80.1157 338.465 79.4087C342.517 78.5531 343.094 82.907 346.78 82.7964C350.468 82.6859 354.339 81.8602 357.205 85.3954C360.341 89.2645 358.028 90.8639 357.179 95.3111C353.74 113.345 355.748 119.181 358.748 111.027C359.077 110.133 361.808 110.033 363.146 106.248C364.882 101.338 366.587 95.2777 366.348 91.4305C366.145 88.1867 364.943 85.6833 362.431 82.6306C358.466 77.8115 351.809 76.0831 347.161 75.4187C342.513 74.7531 332.479 77.8058 330.973 85.6648Z" fill="#263238"/>
<path d="M358.181 110.601C358.621 109.089 360.237 108.209 361.724 108.731C363.526 109.363 365.322 110.918 364.257 114.701C362.367 121.409 356.014 118.13 356.057 117.934C356.086 117.8 357.365 113.402 358.181 110.601Z" fill="#C17560"/>
<path d="M358.231 115.821C358.267 115.808 358.326 115.936 358.498 116.082C358.665 116.225 358.979 116.378 359.367 116.346C360.149 116.285 361.063 115.328 361.436 114.128C361.625 113.522 361.661 112.905 361.581 112.363C361.514 111.814 361.292 111.382 360.954 111.218C360.622 111.036 360.308 111.178 360.173 111.344C360.03 111.506 360.035 111.652 359.997 111.653C359.974 111.665 359.885 111.5 360.017 111.239C360.082 111.113 360.206 110.978 360.399 110.893C360.597 110.807 360.853 110.807 361.094 110.905C361.602 111.086 361.934 111.694 362.023 112.289C362.141 112.895 362.114 113.593 361.902 114.273C361.478 115.614 360.429 116.683 359.379 116.691C358.872 116.682 358.518 116.429 358.359 116.213C358.198 115.987 358.205 115.827 358.231 115.821Z" fill="#7C4236"/>
<path d="M361.293 97.4665C360.266 97.8488 359.184 98.238 358.098 98.0802C357.014 97.9236 355.952 97.0162 356.033 95.9234C356.07 95.4329 356.32 94.9147 356.1 94.4748C355.837 93.9497 355.121 93.9175 354.539 93.8369C352.52 93.5594 350.758 90.8188 350.73 88.7829C350.042 89.4093 348.887 89.3655 348.249 88.6885C347.61 88.0114 347.403 87.6636 346.976 86.8368C346.55 86.01 345.866 85.1959 344.941 85.1015C344.424 85.0485 343.881 85.2305 343.389 85.0623C342.52 84.7641 342.342 83.616 342.426 82.7017C342.51 81.7874 342.66 80.7326 342.026 80.0682C341.439 79.4522 340.47 79.4844 339.622 79.4038C338.774 79.3232 337.766 78.8695 337.754 78.0174C337.748 77.5706 338.038 77.1745 338.36 76.8659C339.825 75.4691 342.305 75.2998 343.945 76.487C345.161 74.4166 347.683 73.1937 350.063 73.523C352.444 73.8512 354.539 75.712 355.146 78.0346C356.898 77.0915 359.111 77.0605 360.888 77.9552C362.665 78.8499 363.959 80.6451 364.242 82.6131C365.996 82.5877 367.715 83.6874 368.426 85.2892C369.136 86.8909 368.796 88.9026 367.598 90.1831C368.642 91.178 369.386 92.6439 369.064 94.0499C368.743 95.4559 367.033 96.513 365.771 95.8106C366.048 97.0358 365.237 98.4049 364.03 98.7527C362.822 99.1005 361.407 98.3727 360.989 97.1878" fill="#263238"/>
<path d="M342.953 78.3506C342.947 78.3495 342.937 78.3921 342.924 78.475C342.912 78.5579 342.887 78.6822 342.878 78.8469C342.863 79.1751 342.874 79.6679 343.046 80.2713C343.222 80.8678 343.547 81.5852 344.151 82.2416C344.739 82.8991 345.618 83.5059 346.728 83.7167L346.651 83.5382C346.298 84.0644 346.183 84.7726 346.325 85.4393C346.448 86.1118 346.746 86.7532 347.072 87.3889C347.242 87.6975 347.373 88.0418 347.638 88.3527C347.896 88.6509 348.239 88.872 348.612 89.0159C349.351 89.3015 350.271 89.2796 350.983 88.7741L350.748 88.6394C350.588 90.0258 351.02 91.5608 352.032 92.6812C352.56 93.3053 353.286 93.7855 354.074 93.9582C354.86 94.1436 355.645 94.0941 356.384 94.0193L356.223 93.8949C356.378 94.8253 356.76 95.6809 357.308 96.3787C357.844 97.0719 358.656 97.6016 359.507 97.6028C361.189 97.6592 362.576 96.5941 363.1 95.3965L362.929 95.4299C363.615 96.0575 364.455 96.3096 365.171 96.3465C365.895 96.3914 366.511 96.2244 366.972 96.0241C367.435 95.8179 367.742 95.5646 367.933 95.385C368.115 95.1938 368.198 95.0833 368.191 95.0775C368.165 95.0407 367.84 95.5358 366.927 95.9158C366.474 96.0932 365.875 96.2371 365.183 96.1772C364.499 96.1266 363.707 95.8698 363.078 95.2744L362.968 95.1719L362.906 95.309C362.402 96.4213 361.076 97.4082 359.521 97.3391C358.751 97.3299 358.039 96.8601 357.531 96.2037C357.02 95.5473 356.658 94.7252 356.515 93.8512L356.493 93.713L356.355 93.7268C355.628 93.7993 354.872 93.8408 354.147 93.6669C353.419 93.5034 352.766 93.0739 352.263 92.482C351.306 91.4226 350.899 89.9867 351.046 88.6716L351.083 88.3412L350.81 88.5369C350.208 88.971 349.381 89.0056 348.716 88.7499C348.382 88.6233 348.077 88.4287 347.851 88.1707C347.63 87.922 347.49 87.5788 347.317 87.2668C346.99 86.6415 346.7 86.022 346.578 85.3956C346.441 84.7715 346.54 84.1485 346.849 83.6695L346.945 83.5221L346.772 83.491C345.723 83.3056 344.87 82.7425 344.292 82.1184C343.697 81.4977 343.365 80.8102 343.175 80.2368C342.807 79.0588 343.005 78.3472 342.953 78.3506Z" fill="#455A64"/>
<path d="M335.17 112.828C335.282 112.856 340.726 112.113 340.726 112.113C340.726 112.113 341.471 115.334 339.408 116.235C337.345 117.134 335.43 115.789 335.282 114.92C335.135 114.05 335.17 112.828 335.17 112.828Z" fill="#7C4236"/>
<path d="M335.684 115.601C335.72 115.571 335.885 115.805 336.329 115.991C336.762 116.185 337.461 116.341 338.303 116.346H338.289C338.86 116.27 339.521 116.101 340.004 115.616C340.483 115.133 340.702 114.364 340.694 113.567C340.694 113.087 340.632 112.602 340.522 112.172L340.754 112.324C339.108 112.526 337.664 112.685 336.63 112.782C335.596 112.878 334.972 112.91 334.965 112.858C334.958 112.806 335.57 112.678 336.595 112.508C337.619 112.338 339.056 112.125 340.699 111.902L340.883 111.877L340.93 112.053C341.06 112.541 341.126 113.039 341.127 113.567C341.138 114.426 340.889 115.329 340.294 115.905C339.694 116.481 338.931 116.636 338.315 116.688L338.306 116.689H338.301C337.4 116.643 336.687 116.428 336.241 116.163C335.784 115.904 335.661 115.607 335.684 115.601Z" fill="#263238"/>
<path d="M261.893 196.916L278.508 186.216L297.92 156.703C301.617 151.671 305.409 145.041 309.491 140.424C311.499 138.153 314.252 136.676 317.247 136.205L322.343 135.403L326.23 131.79C322.027 141.192 335.479 146.09 353.392 137.817C353.392 137.817 357.352 142.382 362.654 149.856C364.975 153.129 366.957 156.556 366.991 160.941C367.051 168.901 352.364 188.48 337.245 206.549C332.722 211.954 311.646 235.957 311.646 235.957L305.771 238.22C305.771 238.22 265.842 213.429 263.867 205.171C261.893 196.916 261.893 196.916 261.893 196.916Z" fill="#E0E0E0"/>
<path d="M271.266 190.394C271.258 190.38 271.423 190.269 271.743 190.067C272.105 189.846 272.574 189.559 273.158 189.203C274.445 188.441 276.231 187.382 278.428 186.081L278.376 186.13C279.841 183.877 281.591 181.185 283.541 178.186C285.527 175.193 287.627 171.843 289.792 168.286C294.013 161.306 297.921 155.016 301.126 150.721C302.703 148.556 304.085 146.884 305.048 145.74C305.522 145.208 305.902 144.781 306.194 144.452C306.459 144.161 306.604 144.014 306.616 144.024C306.627 144.034 306.505 144.201 306.262 144.511C305.986 144.853 305.628 145.298 305.182 145.851C304.262 147.028 302.922 148.724 301.383 150.908C298.254 155.239 294.399 161.536 290.176 168.521C288.011 172.076 285.89 175.436 283.886 178.413C281.905 181.391 280.125 184.064 278.636 186.303L278.615 186.335L278.584 186.352C276.358 187.603 274.547 188.62 273.244 189.352C272.642 189.679 272.159 189.943 271.787 190.146C271.453 190.322 271.274 190.408 271.266 190.394Z" fill="#263238"/>
<path d="M325.632 147.145L294.091 204.684L276.398 208.261L280.438 193.201L322.366 144.836L325.632 147.145Z" fill="#4842FB"/>
<g opacity="0.3">
<path d="M281.859 195.468C285.691 198.211 288.849 201.773 291.927 205.341C295.004 208.908 298.062 212.54 301.752 215.472C305.441 218.404 309.862 220.623 314.567 220.898C319.273 221.173 324.254 219.245 326.879 215.333L281.859 195.468Z" fill="black"/>
</g>
<path d="M322.395 135.213L327.813 130.364L327.162 138.821L332.151 135.517L353.528 131.725L354.933 139.664L330.618 146.445L324.913 144.453L322.02 138.283L322.395 135.213Z" fill="#E0E0E0"/>
<path d="M322.396 135.213C322.446 135.221 322.408 135.697 322.357 136.504C322.302 137.473 322.239 138.569 322.17 139.78L321.805 139.621C322.292 139.112 322.808 138.57 323.348 138.007C324.192 137.146 324.985 136.339 325.707 135.606L326.01 135.297L326.042 135.72C326.122 136.769 326.084 137.627 326.085 138.229C326.077 138.83 326.079 139.175 326.036 139.18C325.996 139.185 325.915 138.844 325.857 138.239C325.79 137.637 325.769 136.769 325.655 135.761L325.989 135.875C325.281 136.621 324.502 137.442 323.672 138.318C323.127 138.876 322.604 139.411 322.113 139.915L321.711 140.327L321.749 139.756C321.922 137.082 322.289 135.193 322.396 135.213Z" fill="#263238"/>
<path d="M327.989 139.894L325.65 138.952C324.797 139.512 322.789 140.599 321.936 141.158L321.922 141.228C321.776 142.916 321.631 144.604 321.484 146.292C322.854 146.588 324.184 147.061 325.433 147.697C326.62 146.498 327.514 145.594 328.701 144.395L327.989 139.894Z" fill="#4842FB"/>
<path d="M307.759 231.808C307.697 231.838 307.191 230.891 306.315 229.398C305.442 227.904 304.172 225.878 302.611 223.751C301.046 221.625 299.489 219.809 298.324 218.53C297.16 217.249 296.406 216.482 296.453 216.433C296.475 216.41 296.688 216.576 297.056 216.895C297.426 217.211 297.939 217.695 298.554 218.311C299.785 219.542 301.395 221.342 302.973 223.485C304.547 225.63 305.785 227.702 306.593 229.243C306.998 230.014 307.305 230.648 307.498 231.095C307.694 231.541 307.788 231.794 307.759 231.808Z" fill="#263238"/>
<path d="M328.047 140.44L331.086 139.838L330.737 144.778L328.447 144.377L328.047 140.44Z" fill="#4842FB"/>
<path opacity="0.3" d="M331.226 137.85L328.375 148.483L351.664 140.723L330.377 146.504L331.226 137.85Z" fill="black"/>
<path d="M354.931 139.664C354.941 139.693 354.449 139.891 353.548 140.224C352.643 140.544 351.325 140.986 349.674 141.458C346.383 142.438 341.754 143.477 336.709 144.816C334.573 145.392 332.541 146.002 330.687 146.645L330.379 146.751L330.405 146.429C330.675 143.021 330.911 140.065 331.087 137.839L331.291 137.968C330.221 138.536 329.349 138.999 328.68 139.355C328.071 139.669 327.738 139.827 327.725 139.804C327.712 139.781 328.021 139.58 328.608 139.226C329.26 138.842 330.111 138.342 331.156 137.729L331.376 137.6L331.36 137.859C331.222 140.087 331.037 143.047 330.825 146.459L330.544 146.245C332.405 145.583 334.446 144.961 336.589 144.382C341.654 143.038 346.283 142.05 349.587 141.152C351.243 140.719 352.571 140.325 353.49 140.057C354.409 139.777 354.921 139.634 354.931 139.664Z" fill="#263238"/>
<path d="M325.438 139.858L325.057 136.846L322.324 139.718L322.782 141.145L325.438 139.858Z" fill="#4842FB"/>
<path d="M328.579 140.277C328.65 140.389 326.915 141.564 324.944 143.219C322.967 144.868 321.506 146.369 321.408 146.28C321.32 146.205 322.65 144.548 324.655 142.875C326.656 141.195 328.522 140.177 328.579 140.277Z" fill="#263238"/>
<path d="M325.147 147.704C325.084 147.813 324.213 147.435 323.153 146.952C322.094 146.467 321.236 146.056 321.279 145.938C321.319 145.822 322.261 146.049 323.34 146.543C324.419 147.036 325.207 147.599 325.147 147.704Z" fill="#263238"/>
<path d="M152.641 176.945C152.641 176.945 163.419 378.245 264.019 388.389H270.683C371.284 378.245 382.061 176.945 382.061 176.945C311.572 194.135 235.343 194.836 152.641 176.945Z" fill="#FFCC12"/>
<path opacity="0.1" d="M184.737 317.395C184.737 317.395 267.185 313.726 297.13 255.708C327.076 197.692 314.92 188.107 314.92 188.107L151.949 182.232C151.949 182.232 161.478 272.593 184.737 317.395Z" fill="white"/>
<path d="M262.978 167.511C258.585 163.178 246.94 150.267 239.369 145.559C231.798 140.849 222.271 142.322 217.365 143.969C210.888 146.142 139.521 181.151 139.521 181.151L150.385 204.079L223.579 172.697L238.032 190.523C252.65 191.656 269.163 192.115 286.745 192.191L262.978 167.511Z" fill="#141414"/>
<path d="M150.775 228.035L168.078 247.939L225.359 189.303L238.029 190.523L243.392 168.207C243.392 168.207 221.357 163.261 217.995 162.055C213.683 160.509 203.937 165.58 197.498 173.065C191.901 179.571 150.775 228.035 150.775 228.035Z" fill="#141414"/>
<path opacity="0.3" d="M170.92 195.274C170.92 195.274 196.827 165.996 205.814 165.767C205.814 165.767 189.65 179.435 182.775 190.191L170.92 195.274Z" fill="black"/>
<path d="M220.278 164.962C220.249 165.016 219.539 164.447 218.027 163.953C216.533 163.442 214.173 163.163 211.403 163.8C208.625 164.407 205.624 166.127 202.764 168.56C199.912 171.014 196.942 173.927 194.002 177.131C188.167 183.598 183.359 189.875 179.676 194.247C177.853 196.449 176.328 198.191 175.267 199.386C174.748 199.951 174.333 200.401 174.02 200.742C173.73 201.048 173.574 201.205 173.563 201.194C173.552 201.184 173.686 201.009 173.954 200.684C174.251 200.331 174.645 199.862 175.139 199.276C176.16 198.047 177.646 196.277 179.437 194.052C183.056 189.634 187.824 183.328 193.68 176.838C196.635 173.618 199.616 170.711 202.507 168.253C205.407 165.813 208.489 164.081 211.337 163.5C214.171 162.888 216.579 163.224 218.081 163.793C219.603 164.347 220.278 164.962 220.278 164.962Z" fill="#ACACAC"/>
<path d="M163.889 218.32L147.478 236.647C147.478 236.647 122.726 227.611 119.557 230.901L155.922 261.836L180.958 232.759L163.889 218.32Z" fill="#141414"/>
<path d="M160.062 244.639C161.386 246.558 158.502 248.71 157.095 246.815C155.62 244.679 158.947 242.583 160.157 244.799" fill="#E0E0E0"/>
<path d="M155.921 261.837L158.33 258.807L122.562 230.28C122.562 230.28 120.343 229.606 119.555 230.901L155.921 261.837Z" fill="#ACACAC"/>
<path d="M147.044 235.962C146.899 236.144 147.719 236.98 148.106 238.293C148.528 239.597 148.324 240.748 148.547 240.818C149.868 240.39 148.372 235.565 147.044 235.962Z" fill="white"/>
<path d="M141.888 234.292C141.701 234.43 142.213 235.386 142.176 236.649C142.177 237.914 141.638 238.854 141.821 238.997C143.212 239.04 143.275 234.285 141.888 234.292Z" fill="white"/>
<path d="M135.836 237.011C136.918 237.42 138.146 232.983 137.009 232.781C137.03 232.931 135.926 236.896 135.836 237.011Z" fill="white"/>
<path d="M151.016 231.951C151.163 231.979 154.57 235.241 154.602 235.377C155.463 234.581 151.769 231.055 151.016 231.951Z" fill="white"/>
<path d="M157.247 177.152L134.403 186.305C134.403 186.305 116.23 167.238 111.928 168.782L130.788 212.624L165.624 196.482L157.247 177.152Z" fill="#141414"/>
<path d="M142.136 199.046C142.472 201.352 138.931 202.004 138.512 199.682C138.137 197.114 142.05 196.71 142.151 199.232" fill="#E0E0E0"/>
<path d="M130.788 212.624L134.291 210.977L114.897 169.559C114.897 169.559 113.207 167.972 111.926 168.784L130.788 212.624Z" fill="#ACACAC"/>
<path d="M134.321 185.499C134.11 185.598 134.473 186.71 134.237 188.059C134.036 189.414 133.341 190.356 133.511 190.516C134.887 190.72 135.687 185.733 134.321 185.499Z" fill="white"/>
<path d="M130.436 181.719C130.208 181.759 130.241 182.843 129.649 183.96C129.089 185.093 128.188 185.697 128.289 185.907C129.517 186.561 131.683 182.327 130.436 181.719Z" fill="white"/>
<path d="M123.807 181.472C124.595 182.318 127.664 178.886 126.736 178.202C126.688 178.345 123.939 181.41 123.807 181.472Z" fill="white"/>
<path opacity="0.3" d="M238.03 190.523C238.03 190.523 226.995 184.993 223.14 177.014C219.338 169.143 217.996 162.056 217.996 162.056L238.03 190.523Z" fill="black"/>
<path opacity="0.6" d="M272.896 290.67V239.595H243.762V254.149H253.581V290.67H243.762V305.59H282.966V290.67H272.896Z" fill="white"/>
<path opacity="0.3" d="M277.628 239.595H272.896V290.67H277.628V239.595Z" fill="black"/>
<path opacity="0.3" d="M286.421 290.67H282.967V305.59H286.421V290.67Z" fill="black"/>
<path opacity="0.3" d="M286.421 305.591H243.762V307.039H286.421V305.591Z" fill="black"/>
<path opacity="0.3" d="M253.581 254.148H243.762V256.268H253.581V254.148Z" fill="black"/>
<path opacity="0.3" d="M373.947 178.837C368.81 227.177 346.912 365.38 263.999 373.741H257.335C222.394 370.218 198.292 343.633 181.711 310.433C198.281 350.18 224.066 384.362 264.019 388.39H270.683C371.284 378.246 382.061 176.946 382.061 176.946C379.366 177.603 376.66 178.228 373.947 178.837Z" fill="black"/>
<path d="M356.939 142.176C356.939 142.176 371.546 144.836 375.657 154.731C381.386 168.521 399.17 198.039 386.083 207.92C379.591 212.822 326.49 196.017 326.49 196.017L331.89 181.695L362.912 187.218L346.034 157.676L356.939 142.176Z" fill="#E0E0E0"/>
<path d="M330.973 184.119C330.973 184.119 323.604 182.606 321.152 182.592C311.727 182.54 309.43 190.335 309.721 190.238C310.012 190.141 315.727 189.658 315.727 189.658C315.727 189.658 327.188 194.158 327.308 193.84C327.428 193.522 330.973 184.119 330.973 184.119Z" fill="#C17560"/>
<path d="M366.727 149.187C366.775 149.277 365.686 149.879 364.084 151.063C362.482 152.242 360.409 154.073 358.538 156.46C356.675 158.855 355.403 161.31 354.648 163.149C353.888 164.989 353.569 166.191 353.47 166.166C353.429 166.157 353.473 165.847 353.587 165.294C353.693 164.739 353.917 163.951 354.251 162.997C354.915 161.089 356.159 158.541 358.065 156.091C359.978 153.649 362.149 151.824 363.84 150.716C364.685 150.159 365.396 149.751 365.909 149.513C366.419 149.269 366.709 149.151 366.727 149.187Z" fill="#263238"/>
<path d="M327.186 195.467C327.16 195.459 327.254 195.108 327.45 194.457C327.677 193.738 327.972 192.801 328.337 191.645C329.161 189.15 330.295 185.719 331.651 181.613L331.719 181.407L331.935 181.446C336.813 182.333 342.618 183.388 348.849 184.52C353.686 185.424 358.265 186.279 362.311 187.035L362.258 187.03C364.933 186.99 367.438 187.023 369.622 187.475C371.807 187.902 373.619 188.769 374.898 189.744C376.193 190.717 376.951 191.779 377.357 192.538C377.559 192.92 377.69 193.226 377.757 193.439C377.828 193.651 377.857 193.763 377.843 193.768C377.804 193.783 377.65 193.345 377.208 192.623C376.764 191.908 375.989 190.911 374.706 190.004C373.433 189.095 371.674 188.297 369.536 187.916C367.4 187.511 364.938 187.507 362.266 187.571L362.24 187.572L362.213 187.568C358.164 186.83 353.582 185.994 348.741 185.111C342.516 183.943 336.717 182.856 331.845 181.943L332.13 181.776C330.692 185.853 329.49 189.262 328.615 191.74C328.196 192.876 327.858 193.799 327.597 194.507C327.352 195.143 327.211 195.476 327.186 195.467Z" fill="#263238"/>
</svg>
