<svg width="499" height="499" viewBox="0 0 499 499" fill="none" xmlns="http://www.w3.org/2000/svg">
<g clip-path="url(#clip0_574_1867)">
<path d="M468.067 468.065C468.067 470.276 371.993 472.057 253.507 472.057C134.979 472.057 38.9268 470.26 38.9268 468.065C38.9268 465.869 134.98 464.073 253.507 464.073C371.993 464.057 468.067 465.854 468.067 468.065Z" fill="#DAD9FF"/>
<path d="M76 330.383L76.1405 64.8586C76.1443 56.6476 82.8043 49.9963 91.014 50L485.002 50.2077C493.213 50.2114 499.864 56.8715 499.861 65.0812L499.72 330.605C499.715 338.816 493.056 345.469 484.845 345.464L90.8598 345.256C82.6489 345.254 75.995 338.594 76 330.383Z" fill="#141414"/>
<path d="M470.443 335.6L470.589 58.9629L116.732 58.7763L116.586 335.413L470.443 335.6Z" fill="#DAD9FF"/>
<path d="M97.3471 208.96C91.09 208.956 86.0207 203.882 86.0244 197.624C86.0281 191.367 91.1025 186.298 97.3596 186.302C103.617 186.305 108.686 191.38 108.682 197.637C108.679 203.894 103.603 208.963 97.3471 208.96Z" fill="#2F3233"/>
<path d="M482.877 240.798L482.922 154.894C482.922 154.059 483.6 153.383 484.434 153.383L486.092 153.384C486.926 153.384 487.603 154.062 487.603 154.896L487.558 240.801C487.558 241.635 486.88 242.312 486.046 242.312L484.388 242.31C483.552 242.31 482.877 241.633 482.877 240.798Z" fill="#2F3233"/>
<path d="M460.295 281.799H127.435V82.6925C127.435 74.0363 134.452 67.0205 143.108 67.0205H444.625C453.281 67.0205 460.298 74.0375 460.298 82.6925V281.799H460.295Z" fill="white"/>
<path d="M444.785 169.383C447.604 188.782 434.126 206.798 414.683 209.625C395.239 212.45 377.192 199.016 374.373 179.616C371.554 160.217 385.03 142.201 404.474 139.376C423.918 136.549 441.966 149.985 444.785 169.383Z" fill="#D3FF3C"/>
<path d="M436.41 170.601C438.558 185.384 428.289 199.114 413.47 201.268C398.653 203.42 384.898 193.182 382.751 178.4C380.603 163.616 390.873 149.886 405.69 147.733C420.508 145.579 434.261 155.817 436.41 170.601Z" fill="#A5D503"/>
<path d="M436.288 169.758C436.126 169.788 435.841 168.627 435.109 166.634C434.37 164.656 433.129 161.82 430.819 158.861C429.666 157.388 428.255 155.892 426.558 154.502C424.852 153.129 422.878 151.843 420.635 150.84C419.516 150.334 418.338 149.883 417.102 149.534C415.868 149.178 414.587 148.885 413.263 148.718C411.942 148.548 410.586 148.446 409.208 148.482C407.832 148.514 406.439 148.647 405.044 148.885C403.651 149.142 402.298 149.497 400.994 149.939C399.688 150.38 398.449 150.942 397.267 151.557C396.081 152.171 394.979 152.887 393.943 153.645C392.903 154.398 391.953 155.228 391.077 156.087C389.316 157.802 387.904 159.689 386.776 161.565C385.663 163.453 384.852 165.344 384.276 167.124C383.128 170.696 382.939 173.785 382.928 175.897C382.929 178.018 383.06 179.207 382.898 179.233C382.779 179.257 382.374 178.112 382.12 175.939C381.882 173.779 381.841 170.539 382.866 166.711C383.381 164.805 384.157 162.763 385.278 160.713C386.413 158.676 387.868 156.617 389.719 154.737C390.641 153.795 391.645 152.886 392.752 152.058C393.854 151.225 395.033 150.439 396.304 149.765C397.573 149.089 398.906 148.473 400.313 147.989C401.718 147.503 403.179 147.118 404.68 146.842C406.184 146.584 407.688 146.445 409.173 146.418C410.66 146.388 412.125 146.508 413.548 146.706C414.973 146.901 416.35 147.234 417.672 147.636C418.995 148.032 420.254 148.54 421.442 149.106C423.827 150.234 425.903 151.665 427.67 153.188C429.426 154.726 430.86 156.376 432 157.988C434.281 161.229 435.358 164.285 435.881 166.395C436.394 168.524 436.408 169.738 436.288 169.758Z" fill="#D3FF3C"/>
<path d="M414.941 190.06L415.689 194.724L411.526 195.389L410.8 190.852C406.638 191.261 402.476 190.605 399.9 189.181L401.376 183.735C403.705 184.942 406.881 185.586 409.927 185.398L408.812 178.444C404.011 178.062 398.602 177.346 397.649 171.393C396.942 166.98 399.541 162.678 405.999 160.876L405.259 156.253L409.423 155.587L410.15 160.125C413.312 159.875 416.484 160.221 419.007 161.311L417.746 166.767C415.43 165.9 413.151 165.538 411.029 165.621L412.162 172.7C416.956 173.042 422.282 173.77 423.223 179.64C423.915 183.969 421.351 188.222 414.941 190.06ZM407.832 172.323L406.883 166.412C404.758 167.265 404.077 168.613 404.296 169.986C404.53 171.443 405.907 172.035 407.832 172.323ZM416.599 181.211C416.365 179.753 415.031 179.156 413.141 178.817L414.061 184.562C416.071 183.772 416.813 182.544 416.599 181.211Z" fill="#D3FF3C"/>
<g opacity="0.5">
<path d="M405.774 101.87C405.785 99.8614 404.203 98.2242 402.241 98.214L391.158 98.1564L391.106 108.261L393.352 108.272L393.394 100.354L402.304 100.4C403.071 100.404 403.69 101.044 403.686 101.831C403.682 102.617 403.057 103.251 402.289 103.247L396.018 103.214C395.37 103.211 395.057 104.348 395.609 104.698C396.16 105.048 401.414 108.313 401.414 108.313L405.547 108.334L401.69 105.486L402.205 105.489C404.166 105.499 405.765 103.878 405.776 101.869L405.774 101.87Z" fill="#DAD9FF"/>
<path d="M387.029 98.1349L379.958 98.0982C378.026 98.0881 376.453 99.6842 376.443 101.662L376.409 108.183L378.61 108.194L378.623 105.782L388.27 105.832L388.257 108.244L390.473 108.256L390.507 101.735C390.517 99.756 388.959 98.145 387.029 98.1349ZM378.634 103.585L378.643 101.801C378.648 100.94 379.332 100.245 380.173 100.25L386.778 100.284C387.618 100.288 388.296 100.989 388.292 101.851L388.282 103.635L378.634 103.585Z" fill="#DAD9FF"/>
<path d="M406.364 98.2355L406.331 104.665C406.32 106.694 407.918 108.348 409.9 108.358L418.214 108.402L418.225 106.194L410.028 106.151C409.227 106.147 408.582 105.478 408.586 104.659L408.619 98.2472L406.364 98.2355Z" fill="#DAD9FF"/>
<path d="M430.392 98.37L422.917 98.3311C420.193 98.317 417.973 100.567 417.958 103.357C417.944 106.147 420.14 108.42 422.864 108.434L430.339 108.473C433.063 108.487 435.283 106.237 435.298 103.447C435.312 100.657 433.116 98.3842 430.392 98.37ZM433.081 103.436C433.073 105.012 431.819 106.283 430.28 106.275L422.947 106.237C421.407 106.229 420.166 104.945 420.175 103.368C420.183 101.792 421.437 100.521 422.976 100.529L430.309 100.567C431.849 100.575 433.09 101.859 433.081 103.436Z" fill="#DAD9FF"/>
<path d="M375.861 98.0769L375.849 100.332L364.722 100.274C363.938 100.27 363.298 100.917 363.294 101.721L363.28 104.445C363.275 105.248 363.907 105.903 364.692 105.907L375.82 105.965L375.808 108.181L364.789 108.124C362.709 108.113 361.031 106.377 361.042 104.245L361.054 101.86C361.065 99.7277 362.761 98.0088 364.842 98.0196L375.861 98.0769Z" fill="#DAD9FF"/>
<path d="M407.277 109.937L407.278 109.631L409.675 109.644L409.673 109.949L408.668 109.944L408.655 112.48L408.268 112.478L408.281 109.942L407.277 109.937Z" fill="#DAD9FF"/>
<path d="M411.22 111.622L411.227 110.362L411.595 110.364L411.584 112.495L411.216 112.493L411.218 112.132L411.193 112.132C411.136 112.24 411.048 112.332 410.929 112.407C410.81 112.481 410.66 112.518 410.479 112.517C410.329 112.516 410.196 112.486 410.08 112.428C409.964 112.368 409.873 112.279 409.807 112.16C409.741 112.04 409.708 111.89 409.709 111.708L409.716 110.354L410.085 110.356L410.078 111.688C410.077 111.843 410.125 111.968 410.222 112.061C410.321 112.154 410.446 112.201 410.599 112.201C410.691 112.202 410.784 112.182 410.879 112.14C410.975 112.099 411.055 112.036 411.12 111.95C411.186 111.865 411.22 111.755 411.22 111.622Z" fill="#DAD9FF"/>
<path d="M413.192 112.503L413.207 109.662L414.287 109.668C414.538 109.669 414.742 109.711 414.901 109.792C415.061 109.872 415.179 109.981 415.255 110.117C415.331 110.253 415.369 110.405 415.368 110.573C415.367 110.74 415.328 110.892 415.25 111.028C415.174 111.165 415.056 111.273 414.896 111.354C414.737 111.434 414.532 111.473 414.284 111.471L413.51 111.467L413.512 111.162L414.273 111.166C414.445 111.167 414.583 111.141 414.687 111.089C414.791 111.037 414.867 110.966 414.914 110.877C414.962 110.786 414.987 110.684 414.988 110.571C414.988 110.457 414.965 110.355 414.917 110.265C414.871 110.175 414.795 110.104 414.691 110.053C414.586 110.001 414.447 109.974 414.273 109.973L413.593 109.97L413.579 112.505L413.192 112.503Z" fill="#DAD9FF"/>
<path d="M415.756 112.517L415.767 110.386L416.123 110.388L416.121 110.71L416.146 110.71C416.19 110.605 416.27 110.519 416.384 110.454C416.499 110.389 416.628 110.357 416.772 110.358C416.799 110.358 416.833 110.359 416.873 110.36C416.914 110.361 416.944 110.362 416.965 110.364L416.964 110.697C416.951 110.694 416.922 110.69 416.878 110.684C416.834 110.678 416.788 110.674 416.739 110.674C416.622 110.673 416.518 110.695 416.427 110.738C416.336 110.78 416.264 110.838 416.21 110.914C416.158 110.989 416.131 111.074 416.131 111.17L416.124 112.519L415.756 112.517Z" fill="#DAD9FF"/>
<path d="M417.215 112.524L417.226 110.393L417.594 110.395L417.583 112.526L417.215 112.524ZM417.415 110.039C417.343 110.039 417.281 110.017 417.23 109.973C417.179 109.929 417.154 109.877 417.154 109.816C417.154 109.755 417.18 109.703 417.231 109.66C417.283 109.616 417.345 109.595 417.417 109.595C417.489 109.596 417.55 109.618 417.601 109.662C417.653 109.705 417.679 109.758 417.678 109.819C417.678 109.88 417.652 109.932 417.599 109.975C417.548 110.018 417.487 110.04 417.415 110.039Z" fill="#DAD9FF"/>
<path d="M418.082 112.529L418.093 110.398L418.448 110.4L418.447 110.733L418.478 110.733C418.528 110.619 418.61 110.532 418.721 110.469C418.833 110.406 418.967 110.375 419.123 110.376C419.281 110.376 419.412 110.409 419.517 110.473C419.623 110.537 419.705 110.626 419.764 110.74L419.789 110.74C419.85 110.63 419.943 110.543 420.066 110.479C420.189 110.414 420.337 110.382 420.508 110.383C420.722 110.384 420.897 110.444 421.033 110.565C421.169 110.684 421.236 110.868 421.235 111.119L421.227 112.545L420.859 112.543L420.866 111.117C420.867 110.96 420.819 110.847 420.723 110.779C420.627 110.711 420.513 110.677 420.382 110.676C420.213 110.675 420.083 110.72 419.989 110.81C419.896 110.899 419.85 111.013 419.849 111.151L419.842 112.538L419.467 112.536L419.475 111.077C419.475 110.955 419.432 110.858 419.344 110.783C419.256 110.708 419.142 110.67 419.003 110.669C418.907 110.669 418.817 110.691 418.734 110.736C418.651 110.781 418.585 110.843 418.533 110.923C418.483 111.003 418.457 111.094 418.457 111.199L418.45 112.531L418.082 112.529Z" fill="#DAD9FF"/>
<path d="M422.729 112.597C422.498 112.596 422.299 112.55 422.132 112.458C421.966 112.366 421.839 112.238 421.749 112.073C421.66 111.908 421.617 111.717 421.618 111.498C421.619 111.28 421.665 111.088 421.755 110.922C421.846 110.755 421.973 110.625 422.135 110.533C422.297 110.439 422.487 110.393 422.703 110.394C422.828 110.395 422.951 110.414 423.073 110.452C423.194 110.489 423.305 110.55 423.404 110.634C423.503 110.717 423.583 110.826 423.641 110.962C423.7 111.099 423.728 111.266 423.727 111.465L423.727 111.604L421.879 111.594L421.881 111.311L423.354 111.319C423.354 111.199 423.328 111.091 423.274 110.997C423.222 110.902 423.146 110.827 423.048 110.772C422.95 110.717 422.835 110.689 422.702 110.688C422.555 110.688 422.428 110.719 422.32 110.783C422.214 110.847 422.132 110.93 422.074 111.032C422.016 111.134 421.987 111.244 421.987 111.362L421.986 111.55C421.985 111.711 422.015 111.848 422.077 111.96C422.14 112.071 422.227 112.156 422.34 112.215C422.452 112.273 422.582 112.303 422.731 112.303C422.827 112.304 422.915 112.292 422.993 112.269C423.072 112.244 423.141 112.207 423.198 112.159C423.255 112.109 423.3 112.047 423.332 111.973L423.687 112.064C423.649 112.171 423.585 112.265 423.497 112.346C423.408 112.426 423.298 112.488 423.168 112.533C423.038 112.577 422.891 112.598 422.729 112.597Z" fill="#DAD9FF"/>
<path d="M424.106 112.56L424.117 110.429L424.473 110.431L424.471 110.753L424.496 110.753C424.54 110.648 424.62 110.563 424.735 110.498C424.849 110.433 424.979 110.401 425.122 110.401C425.149 110.401 425.183 110.402 425.224 110.403C425.264 110.404 425.295 110.406 425.316 110.408L425.314 110.741C425.301 110.738 425.273 110.734 425.228 110.728C425.184 110.721 425.138 110.718 425.089 110.717C424.973 110.717 424.869 110.738 424.777 110.781C424.686 110.823 424.614 110.882 424.561 110.957C424.508 111.032 424.482 111.117 424.481 111.214L424.474 112.562L424.106 112.56Z" fill="#DAD9FF"/>
<path d="M426.806 112.574L426.4 112.572L427.588 109.737L427.988 109.739L429.146 112.586L428.741 112.584L427.798 110.188L427.773 110.188L426.806 112.574ZM426.962 111.465L428.597 111.474L428.595 111.779L426.96 111.77L426.962 111.465Z" fill="#DAD9FF"/>
<path d="M430.933 111.724L430.94 110.465L431.308 110.467L431.297 112.598L430.929 112.596L430.931 112.235L430.906 112.235C430.849 112.343 430.761 112.434 430.642 112.509C430.523 112.584 430.373 112.62 430.192 112.62C430.042 112.619 429.909 112.589 429.793 112.53C429.677 112.47 429.586 112.381 429.52 112.262C429.454 112.143 429.422 111.992 429.423 111.811L429.43 110.457L429.798 110.459L429.791 111.791C429.79 111.946 429.838 112.07 429.936 112.163C430.034 112.256 430.16 112.303 430.312 112.304C430.404 112.304 430.497 112.284 430.592 112.243C430.688 112.202 430.768 112.138 430.833 112.053C430.899 111.967 430.933 111.858 430.933 111.724Z" fill="#DAD9FF"/>
<path d="M432.849 110.475L432.848 110.752L431.606 110.746L431.607 110.468L432.849 110.475ZM431.972 109.96L432.34 109.962L432.329 111.992C432.329 112.085 432.344 112.154 432.373 112.201C432.404 112.246 432.444 112.277 432.492 112.293C432.54 112.308 432.592 112.316 432.646 112.316C432.687 112.316 432.72 112.315 432.746 112.311C432.772 112.306 432.793 112.303 432.808 112.3L432.882 112.595C432.857 112.603 432.822 112.611 432.777 112.619C432.732 112.628 432.676 112.632 432.607 112.632C432.503 112.632 432.401 112.611 432.301 112.571C432.203 112.531 432.121 112.47 432.056 112.388C431.992 112.306 431.96 112.203 431.961 112.079L431.972 109.96Z" fill="#DAD9FF"/>
<path d="M434.164 112.657C433.947 112.656 433.758 112.609 433.595 112.517C433.433 112.424 433.307 112.295 433.216 112.13C433.127 111.965 433.082 111.773 433.083 111.552C433.085 111.331 433.131 111.137 433.222 110.972C433.315 110.807 433.442 110.679 433.605 110.588C433.769 110.498 433.959 110.453 434.175 110.454C434.391 110.455 434.581 110.502 434.742 110.594C434.905 110.687 435.031 110.816 435.121 110.982C435.212 111.148 435.256 111.342 435.255 111.564C435.254 111.784 435.207 111.976 435.115 112.14C435.024 112.304 434.896 112.432 434.732 112.522C434.57 112.613 434.38 112.658 434.164 112.657ZM434.165 112.363C434.33 112.364 434.465 112.327 434.571 112.252C434.678 112.178 434.757 112.08 434.809 111.958C434.86 111.836 434.886 111.704 434.887 111.562C434.888 111.419 434.863 111.287 434.813 111.163C434.762 111.04 434.684 110.94 434.579 110.864C434.473 110.787 434.338 110.749 434.174 110.748C434.009 110.747 433.874 110.784 433.767 110.86C433.661 110.935 433.582 111.034 433.53 111.157C433.479 111.279 433.452 111.412 433.452 111.554C433.451 111.697 433.476 111.829 433.526 111.952C433.576 112.074 433.654 112.173 433.76 112.248C433.866 112.324 434.001 112.362 434.165 112.363Z" fill="#DAD9FF"/>
</g>
<path d="M434.827 309.527C434.827 312.479 370.712 314.872 291.621 314.872C212.53 314.872 148.414 312.479 148.414 309.527C148.414 306.575 212.53 304.182 291.621 304.182C370.712 304.182 434.827 306.575 434.827 309.527Z" fill="#AAA8E3"/>
<path d="M160.308 105.165C160.308 104.148 160.535 103.24 160.989 102.441C161.452 101.632 162.079 101.005 162.869 100.561C163.668 100.107 164.561 99.8797 165.548 99.8797C166.703 99.8797 167.715 100.176 168.583 100.768C169.452 101.36 170.059 102.179 170.404 103.225H168.021C167.784 102.732 167.448 102.362 167.014 102.115C166.59 101.868 166.096 101.745 165.533 101.745C164.931 101.745 164.394 101.888 163.92 102.174C163.456 102.451 163.091 102.846 162.824 103.359C162.568 103.872 162.439 104.474 162.439 105.165C162.439 105.846 162.568 106.448 162.824 106.971C163.091 107.484 163.456 107.884 163.92 108.17C164.394 108.446 164.931 108.585 165.533 108.585C166.096 108.585 166.59 108.461 167.014 108.214C167.448 107.958 167.784 107.583 168.021 107.089H170.404C170.059 108.145 169.452 108.969 168.583 109.562C167.724 110.144 166.713 110.435 165.548 110.435C164.561 110.435 163.668 110.213 162.869 109.769C162.079 109.315 161.452 108.688 160.989 107.889C160.535 107.089 160.308 106.181 160.308 105.165Z" fill="#263238"/>
<path d="M176.971 110.45C176.004 110.45 175.115 110.223 174.306 109.769C173.497 109.315 172.855 108.688 172.382 107.889C171.908 107.079 171.671 106.167 171.671 105.15C171.671 104.143 171.908 103.24 172.382 102.441C172.855 101.632 173.497 101 174.306 100.546C175.115 100.092 176.004 99.8649 176.971 99.8649C177.948 99.8649 178.836 100.092 179.636 100.546C180.445 101 181.081 101.632 181.545 102.441C182.019 103.24 182.256 104.143 182.256 105.15C182.256 106.167 182.019 107.079 181.545 107.889C181.081 108.688 180.445 109.315 179.636 109.769C178.826 110.223 177.938 110.45 176.971 110.45ZM176.971 108.599C177.593 108.599 178.14 108.461 178.614 108.185C179.088 107.899 179.458 107.494 179.724 106.971C179.991 106.448 180.124 105.841 180.124 105.15C180.124 104.459 179.991 103.857 179.724 103.344C179.458 102.821 179.088 102.421 178.614 102.145C178.14 101.868 177.593 101.73 176.971 101.73C176.349 101.73 175.796 101.868 175.313 102.145C174.839 102.421 174.469 102.821 174.202 103.344C173.936 103.857 173.803 104.459 173.803 105.15C173.803 105.841 173.936 106.448 174.202 106.971C174.469 107.494 174.839 107.899 175.313 108.185C175.796 108.461 176.349 108.599 176.971 108.599Z" fill="#263238"/>
<path d="M190.83 100.013V101.686H188.076V110.346H186.004V101.686H183.25V100.013H190.83Z" fill="#263238"/>
<path d="M194.415 100.013V110.346H192.342V100.013H194.415Z" fill="#263238"/>
<path d="M198.579 108.599H203.228V110.346H196.181V108.747L200.8 101.76H196.181V100.013H203.228V101.612L198.579 108.599Z" fill="#263238"/>
<path d="M211.328 108.377H207.213L206.532 110.346H204.355L208.071 99.9982H210.484L214.2 110.346H212.009L211.328 108.377ZM210.766 106.719L209.27 102.396L207.775 106.719H210.766Z" fill="#263238"/>
<path d="M215.086 105.165C215.086 104.148 215.313 103.24 215.767 102.441C216.231 101.632 216.857 101.005 217.647 100.561C218.446 100.107 219.339 99.8797 220.326 99.8797C221.481 99.8797 222.493 100.176 223.361 100.768C224.23 101.36 224.837 102.179 225.182 103.225H222.799C222.562 102.732 222.226 102.362 221.792 102.115C221.368 101.868 220.874 101.745 220.312 101.745C219.71 101.745 219.172 101.888 218.698 102.174C218.234 102.451 217.869 102.846 217.602 103.359C217.346 103.872 217.218 104.474 217.218 105.165C217.218 105.846 217.346 106.448 217.602 106.971C217.869 107.484 218.234 107.884 218.698 108.17C219.172 108.446 219.71 108.585 220.312 108.585C220.874 108.585 221.368 108.461 221.792 108.214C222.226 107.958 222.562 107.583 222.799 107.089H225.182C224.837 108.145 224.23 108.969 223.361 109.562C222.503 110.144 221.491 110.435 220.326 110.435C219.339 110.435 218.446 110.213 217.647 109.769C216.857 109.315 216.231 108.688 215.767 107.889C215.313 107.089 215.086 106.181 215.086 105.165Z" fill="#263238"/>
<path d="M229.025 100.013V110.346H226.952V100.013H229.025Z" fill="#263238"/>
<path d="M235.869 110.45C234.902 110.45 234.014 110.223 233.205 109.769C232.395 109.315 231.754 108.688 231.28 107.889C230.806 107.079 230.569 106.167 230.569 105.15C230.569 104.143 230.806 103.24 231.28 102.441C231.754 101.632 232.395 101 233.205 100.546C234.014 100.092 234.902 99.8649 235.869 99.8649C236.846 99.8649 237.735 100.092 238.534 100.546C239.343 101 239.98 101.632 240.444 102.441C240.917 103.24 241.154 104.143 241.154 105.15C241.154 106.167 240.917 107.079 240.444 107.889C239.98 108.688 239.343 109.315 238.534 109.769C237.725 110.223 236.836 110.45 235.869 110.45ZM235.869 108.599C236.491 108.599 237.039 108.461 237.513 108.185C237.986 107.899 238.356 107.494 238.623 106.971C238.889 106.448 239.023 105.841 239.023 105.15C239.023 104.459 238.889 103.857 238.623 103.344C238.356 102.821 237.986 102.421 237.513 102.145C237.039 101.868 236.491 101.73 235.869 101.73C235.247 101.73 234.695 101.868 234.211 102.145C233.737 102.421 233.367 102.821 233.101 103.344C232.834 103.857 232.701 104.459 232.701 105.15C232.701 105.841 232.834 106.448 233.101 106.971C233.367 107.494 233.737 107.899 234.211 108.185C234.695 108.461 235.247 108.599 235.869 108.599ZM237.483 97.8664L234.078 99.4208V97.9404L237.483 96.1787V97.8664Z" fill="#263238"/>
<path d="M251.534 110.346H249.462L244.769 103.255V110.346H242.696V99.9982H244.769L249.462 107.104V99.9982H251.534V110.346Z" fill="#263238"/>
<path d="M260.441 100.028C261.566 100.028 262.538 100.24 263.357 100.664C264.186 101.079 264.818 101.676 265.252 102.456C265.696 103.235 265.918 104.153 265.918 105.209C265.918 106.265 265.696 107.183 265.252 107.963C264.818 108.733 264.186 109.325 263.357 109.739C262.538 110.144 261.566 110.346 260.441 110.346H257.228V100.028H260.441ZM260.441 109.236C261.773 109.236 262.79 108.886 263.491 108.185C264.191 107.474 264.542 106.482 264.542 105.209C264.542 103.926 264.186 102.924 263.476 102.204C262.775 101.484 261.763 101.123 260.441 101.123H258.576V109.236H260.441Z" fill="#263238"/>
<path d="M269.043 101.123V104.573H272.803V105.683H269.043V109.236H273.247V110.346H267.695V100.013H273.247V101.123H269.043Z" fill="#263238"/>
<path d="M285.332 108.052H280.831L280.002 110.346H278.581L282.312 100.087H283.866L287.582 110.346H286.161L285.332 108.052ZM284.947 106.956L283.081 101.745L281.216 106.956H284.947Z" fill="#263238"/>
<path d="M290.525 100.028V106.556C290.525 107.474 290.747 108.155 291.191 108.599C291.645 109.043 292.272 109.266 293.072 109.266C293.861 109.266 294.478 109.043 294.922 108.599C295.376 108.155 295.603 107.474 295.603 106.556V100.028H296.95V106.542C296.95 107.4 296.778 108.126 296.432 108.718C296.087 109.3 295.618 109.734 295.026 110.021C294.443 110.307 293.787 110.45 293.057 110.45C292.326 110.45 291.665 110.307 291.073 110.021C290.491 109.734 290.027 109.3 289.681 108.718C289.346 108.126 289.178 107.4 289.178 106.542V100.028H290.525Z" fill="#263238"/>
<path d="M305.549 100.028V101.123H302.736V110.346H301.389V101.123H298.561V100.028H305.549Z" fill="#263238"/>
<path d="M311.885 110.45C310.928 110.45 310.054 110.228 309.265 109.784C308.475 109.33 307.848 108.703 307.384 107.904C306.931 107.094 306.704 106.186 306.704 105.18C306.704 104.173 306.931 103.27 307.384 102.47C307.848 101.661 308.475 101.034 309.265 100.59C310.054 100.136 310.928 99.9093 311.885 99.9093C312.852 99.9093 313.731 100.136 314.52 100.59C315.31 101.034 315.931 101.656 316.385 102.456C316.839 103.255 317.066 104.163 317.066 105.18C317.066 106.196 316.839 107.104 316.385 107.904C315.931 108.703 315.31 109.33 314.52 109.784C313.731 110.228 312.852 110.45 311.885 110.45ZM311.885 109.28C312.605 109.28 313.252 109.113 313.824 108.777C314.407 108.441 314.861 107.963 315.186 107.341C315.522 106.719 315.69 105.999 315.69 105.18C315.69 104.351 315.522 103.63 315.186 103.018C314.861 102.396 314.412 101.918 313.839 101.582C313.267 101.247 312.615 101.079 311.885 101.079C311.155 101.079 310.503 101.247 309.931 101.582C309.358 101.918 308.904 102.396 308.569 103.018C308.243 103.63 308.08 104.351 308.08 105.18C308.08 105.999 308.243 106.719 308.569 107.341C308.904 107.963 309.358 108.441 309.931 108.777C310.513 109.113 311.164 109.28 311.885 109.28Z" fill="#263238"/>
<path d="M172.068 145.932V149.758H169.267V145.965C165.919 145.76 162.674 144.668 160.898 143.131L162.436 139.681C164.11 141.048 166.672 142.038 169.267 142.277V135.445C165.475 134.522 161.411 133.293 161.411 128.545C161.411 125.06 163.938 122.02 169.267 121.508V117.647H172.068V121.44C174.595 121.576 177.157 122.328 179.002 123.523L177.601 126.973C175.792 125.914 173.878 125.334 172.068 125.128V132.028C175.859 132.951 179.993 134.146 179.993 138.895C179.993 142.38 177.431 145.386 172.068 145.932ZM169.266 131.312V125.232C166.841 125.607 165.816 126.837 165.816 128.34C165.816 129.98 167.285 130.731 169.266 131.312ZM175.62 139.203C175.62 137.529 174.117 136.745 172.068 136.163V142.209C174.562 141.833 175.62 140.672 175.62 139.203Z" fill="#263238"/>
<path d="M200.012 141.903V145.661H182.384V142.688L191.88 133.67C194.203 131.45 194.613 130.049 194.613 128.717C194.613 126.531 193.11 125.267 190.173 125.267C187.849 125.267 185.902 126.052 184.571 127.761L181.463 125.371C183.307 122.877 186.622 121.408 190.549 121.408C195.742 121.408 199.09 124.039 199.09 128.275C199.09 130.598 198.441 132.715 195.128 135.824L188.74 141.904L200.012 141.903Z" fill="#263238"/>
<path d="M221.566 138.25C221.566 142.998 217.706 146.004 212.822 146.004C206.297 146.004 202.472 141.803 202.472 134.116C202.472 125.918 207.254 121.408 214.189 121.408C216.579 121.408 218.869 121.921 220.474 122.945L218.835 126.292C217.537 125.438 215.966 125.131 214.292 125.131C209.782 125.131 206.948 127.931 206.948 133.363V133.396C208.382 131.722 210.671 130.903 213.335 130.903C218.048 130.905 221.566 133.774 221.566 138.25ZM217.262 138.454C217.262 135.961 215.384 134.39 212.48 134.39C209.611 134.39 207.629 136.131 207.629 138.489C207.629 140.744 209.405 142.52 212.582 142.52C215.349 142.52 217.262 140.948 217.262 138.454Z" fill="#263238"/>
<path d="M224.096 143.063C224.096 141.354 225.359 140.228 226.897 140.228C228.434 140.228 229.697 141.354 229.697 143.063C229.697 144.702 228.434 145.899 226.897 145.899C225.359 145.899 224.096 144.704 224.096 143.063Z" fill="#263238"/>
<path d="M232.153 133.706C232.153 125.849 236.458 121.408 242.128 121.408C247.833 121.408 252.136 125.849 252.136 133.706C252.136 141.562 247.833 146.004 242.128 146.004C236.458 146.004 232.153 141.564 232.153 133.706ZM247.662 133.706C247.662 127.933 245.408 125.269 242.128 125.269C238.883 125.269 236.628 127.933 236.628 133.706C236.628 139.479 238.883 142.143 242.128 142.143C245.408 142.143 247.662 139.479 247.662 133.706Z" fill="#263238"/>
<path d="M255.145 133.706C255.145 125.849 259.448 121.408 265.119 121.408C270.824 121.408 275.127 125.849 275.127 133.706C275.127 141.562 270.824 146.004 265.119 146.004C259.449 146.004 255.145 141.564 255.145 133.706ZM270.652 133.706C270.652 127.933 268.397 125.269 265.119 125.269C261.874 125.269 259.619 127.933 259.619 133.706C259.619 139.479 261.874 142.143 265.119 142.143C268.399 142.143 270.652 139.479 270.652 133.706Z" fill="#263238"/>
<path d="M278.132 133.706C278.132 125.849 282.435 121.408 288.106 121.408C293.811 121.408 298.116 125.849 298.116 133.706C298.116 141.562 293.811 146.004 288.106 146.004C282.436 146.004 278.132 141.564 278.132 133.706ZM293.641 133.706C293.641 127.933 291.386 125.269 288.108 125.269C284.863 125.269 282.608 127.933 282.608 133.706C282.608 139.479 284.863 142.143 288.108 142.143C291.386 142.143 293.641 139.479 293.641 133.706Z" fill="#263238"/>
<path d="M394.134 269.914C394.134 270.093 341.643 270.238 276.907 270.238C212.148 270.238 159.669 270.093 159.669 269.914C159.669 269.735 212.148 269.591 276.907 269.591C341.643 269.59 394.134 269.735 394.134 269.914Z" fill="#E0E0E0"/>
<path d="M430.291 242.892H153.568V283.495H430.291V242.892Z" fill="#191414"/>
<g opacity="0.5">
<path d="M430.291 242.892H153.568V283.495H430.291V242.892Z" fill="black"/>
</g>
<path d="M164.073 282.848C163.86 297.584 175.633 309.701 190.369 309.914C205.104 310.127 217.222 298.354 217.434 283.618C217.647 268.883 205.874 256.765 191.139 256.553C176.403 256.34 164.286 268.113 164.073 282.848Z" fill="#263238"/>
<path d="M164.08 282.778C164.079 282.801 164.076 282.824 164.075 282.847C163.862 297.582 175.635 309.7 190.371 309.912C205.106 310.125 217.224 298.352 217.436 283.617C217.436 283.593 217.434 283.571 217.434 283.548L164.08 282.778Z" fill="#263238"/>
<path d="M172.028 282.964C171.879 293.309 180.145 301.816 190.489 301.965C200.834 302.114 209.342 293.848 209.491 283.503C209.641 273.158 201.375 264.651 191.03 264.502C180.685 264.353 172.178 272.618 172.028 282.964Z" fill="#FAFAFA"/>
<path d="M191.018 264.494C180.673 264.345 172.166 272.611 172.017 282.956L209.48 283.496C209.629 273.15 201.363 264.643 191.018 264.494Z" fill="#E0E0E0"/>
<path d="M179.336 283.052C179.245 289.353 184.28 294.536 190.582 294.627C196.884 294.718 202.066 289.683 202.157 283.381C202.248 277.079 197.212 271.897 190.911 271.806C184.609 271.714 179.427 276.75 179.336 283.052Z" fill="#263238"/>
<path d="M368.119 282.848C367.906 297.584 379.679 309.701 394.415 309.914C409.15 310.127 421.268 298.354 421.48 283.618C421.693 268.883 409.92 256.765 395.185 256.553C380.449 256.34 368.332 268.113 368.119 282.848Z" fill="#263238"/>
<path d="M368.127 282.778C368.127 282.801 368.123 282.824 368.122 282.847C367.909 297.582 379.682 309.7 394.418 309.912C409.153 310.125 421.271 298.352 421.483 283.617C421.483 283.593 421.481 283.571 421.481 283.548L368.127 282.778Z" fill="#263238"/>
<path d="M376.062 282.96C375.912 293.305 384.178 301.812 394.522 301.961C404.867 302.11 413.374 293.845 413.525 283.499C413.674 273.154 405.408 264.647 395.063 264.498C384.718 264.349 376.211 272.615 376.062 282.96Z" fill="#FAFAFA"/>
<path d="M395.068 264.494C384.723 264.345 376.216 272.611 376.066 282.956L413.529 283.496C413.679 273.15 405.413 264.643 395.068 264.494Z" fill="#E0E0E0"/>
<path d="M383.389 283.052C383.298 289.353 388.333 294.536 394.634 294.627C400.936 294.718 406.119 289.683 406.21 283.381C406.3 277.079 401.266 271.897 394.964 271.806C388.662 271.714 383.48 276.75 383.389 283.052Z" fill="#263238"/>
<path d="M225.722 220.047C225.722 220.047 186.429 222.945 171.866 226.212C161.602 228.515 141.811 232.487 142.05 244.939L143.619 253.864C143.619 253.864 136.276 257.217 136.276 265.774C136.276 274.329 134.484 287.603 151.62 288.133C154.444 288.22 159.808 288.133 159.808 288.133C159.808 288.133 156.519 251.636 190.048 250.568C224.158 249.481 221.892 287.798 221.892 287.798H364.252C364.252 287.798 358.409 250.467 395.128 250.415C431.847 250.363 426.26 288.043 426.26 288.043C426.26 288.043 439.768 289.213 446.053 277.86C452.337 266.507 450.702 258.427 450.702 258.427L450.494 251.252C450.423 248.809 448.472 246.838 446.029 246.745C446.029 246.745 448.483 228.676 444.718 225.55C440.955 222.422 420.318 203.557 420.318 203.557L421.3 202.94C422.947 201.905 422.661 199.426 420.823 198.792C412.989 196.099 397.498 190.768 393.856 189.493C393.307 189.302 392.742 189.182 392.164 189.138C389.991 188.971 383.838 188.58 372.541 188.46C358.779 188.313 304.143 188.46 304.143 188.46C304.143 188.46 285.341 190.006 274.865 194.617C263.851 199.465 225.722 220.047 225.722 220.047Z" fill="#191414"/>
<g opacity="0.4">
<path d="M146.243 264.788C144.818 264.498 142.634 264.469 141.547 265.436C140.74 266.153 140.526 267.314 140.404 268.386C140.236 269.858 140.152 271.368 140.502 272.808C140.853 274.248 141.693 275.628 142.996 276.335C144.299 277.043 146.087 276.927 147.1 275.844C148.027 274.854 148.133 273.369 148.108 272.014C148.073 270.09 148.227 268.459 147.874 266.567C147.807 266.208 147.616 265.751 147.384 265.469C147.005 265.014 146.715 264.816 146.243 264.788Z" fill="black"/>
</g>
<path d="M143.63 253.864C147.802 253.873 151.848 253.635 156.01 253.357C156.46 253.327 156.948 253.28 157.279 252.972C157.677 252.604 157.709 251.996 157.713 251.454C157.733 249.218 157.621 246.678 155.926 245.22C154.89 244.33 153.468 244.054 152.107 243.926C148.759 243.611 145.25 243.871 142.06 244.938L143.63 253.864Z" fill="#E8B18F"/>
<path d="M230.234 286.665C230.234 286.665 230.219 286.544 230.202 286.309C230.186 286.065 230.163 285.717 230.133 285.263C230.082 284.334 230.009 282.98 229.913 281.237C229.815 279.49 229.699 277.351 229.448 274.878C229.191 272.409 228.811 269.595 227.978 266.584C227.141 263.579 225.859 260.374 223.961 257.23C222.054 254.108 219.551 250.986 216.199 248.572C209.467 243.785 200.375 241.078 190.865 240.962C181.329 240.849 172.271 243.861 165.709 248.882C162.396 251.342 159.655 254.214 157.542 257.215C155.414 260.209 153.858 263.285 152.761 266.207C151.653 269.131 151.072 271.917 150.743 274.371C150.384 276.831 150.438 278.98 150.497 280.722C150.634 282.463 150.787 283.815 150.986 284.715C151.067 285.162 151.129 285.506 151.173 285.746C151.214 285.978 151.228 286.099 151.228 286.099C151.228 286.099 151.196 285.982 151.147 285.751C151.097 285.511 151.026 285.17 150.934 284.723C150.719 283.825 150.547 282.472 150.396 280.727C150.32 278.98 150.251 276.822 150.597 274.351C150.914 271.884 151.485 269.082 152.587 266.141C153.678 263.201 155.232 260.103 157.364 257.087C159.481 254.065 162.233 251.168 165.564 248.687C172.158 243.624 181.277 240.583 190.863 240.698C200.426 240.817 209.556 243.54 216.336 248.375C219.717 250.82 222.232 253.97 224.141 257.115C226.042 260.283 227.321 263.509 228.151 266.533C228.978 269.562 229.345 272.387 229.589 274.862C229.826 277.341 229.927 279.481 230.01 281.23C230.084 282.973 230.142 284.328 230.182 285.258C230.201 285.713 230.215 286.061 230.225 286.305C230.237 286.543 230.234 286.665 230.234 286.665Z" fill="white"/>
<path d="M231.752 287.271C231.752 287.271 231.744 287.17 231.736 286.973C231.729 286.77 231.719 286.475 231.704 286.088C231.679 285.304 231.643 284.147 231.597 282.641C231.511 279.616 231.384 275.191 231.225 269.562C231.071 263.929 230.884 257.094 230.669 249.261C230.617 247.302 230.562 245.281 230.505 243.2C230.436 242.162 230.545 241.101 230.642 240.031C230.718 239.5 230.793 238.964 230.869 238.426C230.979 237.893 231.088 237.356 231.199 236.816C231.701 234.671 232.434 232.521 233.419 230.428C234.408 228.337 235.578 226.271 237.073 224.357L237.083 224.345L237.099 224.335C244.713 219.538 252.994 214.322 261.753 208.803C263.943 207.424 266.163 206.026 268.411 204.611C270.616 203.116 272.997 201.837 275.457 200.677C277.921 199.52 280.481 198.505 283.11 197.62C284.42 197.161 285.762 196.784 287.102 196.385C288.459 196.043 289.811 195.657 291.195 195.38C296.505 194.201 301.848 193.616 307.085 193.374C312.325 193.129 317.466 193.144 322.467 193.425L322.614 193.433L322.582 193.578C320.222 204.133 317.996 214.088 315.956 223.212L315.953 223.23L315.941 223.249C314.698 225.292 313.709 227.444 312.97 229.614C312.261 231.789 311.805 234.024 311.964 236.202C312.133 238.392 312.194 240.534 312.25 242.612C312.291 244.692 312.331 246.711 312.368 248.669C312.483 256.499 312.512 263.33 312.535 268.956C312.541 274.58 312.545 279.003 312.549 282.025C312.544 283.53 312.539 284.686 312.536 285.47C312.532 285.857 312.53 286.151 312.527 286.353C312.525 286.551 312.519 286.652 312.519 286.652C312.519 286.652 312.513 286.551 312.51 286.353C312.508 286.151 312.505 285.856 312.5 285.47C312.495 284.686 312.488 283.53 312.478 282.025C312.46 279.003 312.434 274.58 312.402 268.956C312.361 263.33 312.314 256.499 312.183 248.671C312.141 246.715 312.097 244.695 312.054 242.617C311.994 240.539 311.93 238.403 311.758 236.217C311.592 233.999 312.052 231.74 312.764 229.546C313.507 227.354 314.495 225.196 315.751 223.127L315.736 223.163C317.768 214.038 319.986 204.082 322.337 193.524L322.451 193.677C317.466 193.399 312.326 193.386 307.099 193.632C301.87 193.876 296.543 194.46 291.253 195.635C289.873 195.911 288.525 196.296 287.173 196.636C285.836 197.034 284.499 197.41 283.193 197.867C280.573 198.749 278.022 199.759 275.567 200.912C273.116 202.067 270.746 203.338 268.552 204.825C266.304 206.239 264.083 207.637 261.891 209.015C253.125 214.527 244.839 219.737 237.22 224.527L237.246 224.504C235.771 226.387 234.597 228.449 233.614 230.522C232.634 232.6 231.903 234.737 231.4 236.866C230.279 241.14 230.844 245.357 230.853 249.263C231.047 257.096 231.216 263.931 231.356 269.562C231.489 275.19 231.593 279.616 231.665 282.641C231.696 284.147 231.721 285.304 231.739 286.09C231.745 286.476 231.75 286.771 231.752 286.974C231.756 287.17 231.752 287.271 231.752 287.271Z" fill="#263238"/>
<path d="M322.304 194.275C322.304 194.275 322.382 194.265 322.536 194.259C322.7 194.254 322.928 194.247 323.223 194.237C323.837 194.222 324.726 194.201 325.871 194.172C328.186 194.126 331.53 194.06 335.691 193.978C344.037 193.836 355.659 193.637 368.801 193.413L368.863 193.412L368.903 193.461C370.389 195.28 371.953 197.195 373.542 199.141C378.242 204.903 382.718 210.391 386.79 215.385C387.299 216.009 387.801 216.626 388.296 217.234C388.786 217.855 389.203 218.528 389.535 219.222C390.189 220.619 390.52 222.114 390.526 223.562C390.541 225.011 390.24 226.404 389.723 227.641C389.198 228.863 388.694 230.036 388.213 231.155C386.283 235.62 384.72 239.237 383.635 241.746C383.092 242.988 382.67 243.954 382.378 244.621C382.235 244.94 382.125 245.189 382.045 245.365C381.969 245.533 381.923 245.615 381.923 245.615C381.923 245.615 381.952 245.526 382.02 245.354C382.094 245.175 382.197 244.924 382.33 244.599C382.611 243.928 383.019 242.955 383.541 241.705C384.608 239.187 386.146 235.56 388.042 231.082C388.902 228.827 390.412 226.455 390.308 223.562C390.298 222.145 389.969 220.683 389.327 219.317C388.998 218.637 388.595 217.987 388.111 217.377C387.613 216.77 387.111 216.155 386.601 215.531C382.524 210.543 378.043 205.059 373.338 199.302C371.75 197.356 370.188 195.442 368.701 193.621L368.803 193.668C355.66 193.859 344.039 194.027 335.692 194.147C331.531 194.196 328.186 194.235 325.871 194.263C324.726 194.272 323.836 194.278 323.222 194.281C322.927 194.281 322.699 194.28 322.535 194.28C322.383 194.283 322.304 194.275 322.304 194.275Z" fill="#263238"/>
<path d="M305.587 238.307C305.587 238.293 305.726 238.295 305.983 238.249C306.238 238.205 306.619 238.102 307.032 237.832C307.439 237.565 307.879 237.106 308.099 236.444C308.213 236.114 308.251 235.749 308.235 235.346C308.226 234.956 308.126 234.544 307.925 234.16C307.527 233.399 306.656 232.759 305.628 232.761C304.573 232.764 303.449 232.767 302.266 232.77C299.894 232.774 297.291 232.777 294.559 232.78C293.906 232.78 293.269 233.034 292.803 233.464C292.334 233.892 292.035 234.486 291.969 235.097C291.907 235.724 291.989 236.339 292.289 236.859C292.576 237.378 293.045 237.771 293.565 237.992C294.09 238.225 294.657 238.192 295.224 238.194C295.785 238.197 296.33 238.199 296.857 238.201C297.908 238.207 298.889 238.212 299.788 238.217C301.561 238.234 303.003 238.248 304.032 238.258C304.513 238.268 304.898 238.276 305.186 238.283C305.449 238.29 305.587 238.299 305.587 238.307C305.587 238.316 305.449 238.325 305.185 238.334C304.898 238.34 304.513 238.347 304.031 238.358C303.002 238.368 301.56 238.382 299.787 238.4C298.889 238.404 297.908 238.409 296.856 238.416C296.329 238.418 295.784 238.419 295.223 238.422C294.939 238.418 294.666 238.433 294.361 238.414C294.061 238.392 293.759 238.331 293.473 238.212C292.903 237.974 292.39 237.548 292.073 236.979C291.742 236.418 291.65 235.721 291.717 235.069C291.788 234.397 292.114 233.743 292.63 233.274C293.141 232.8 293.842 232.521 294.56 232.521C297.292 232.524 299.895 232.528 302.267 232.53C303.451 232.535 304.577 232.54 305.633 232.544C306.746 232.554 307.676 233.253 308.089 234.074C308.299 234.487 308.397 234.927 308.401 235.342C308.412 235.747 308.365 236.148 308.237 236.49C307.991 237.184 307.518 237.652 307.088 237.917C306.651 238.184 306.255 238.273 305.992 238.301C305.726 238.331 305.587 238.307 305.587 238.307Z" fill="#263238"/>
<path d="M379.355 238.307C379.355 238.293 379.494 238.295 379.752 238.249C380.008 238.205 380.387 238.102 380.8 237.832C381.207 237.565 381.647 237.106 381.867 236.444C381.982 236.114 382.019 235.749 382.003 235.346C381.994 234.956 381.895 234.544 381.693 234.16C381.295 233.399 380.425 232.759 379.396 232.761C378.341 232.764 377.217 232.767 376.034 232.77C373.663 232.774 371.059 232.777 368.327 232.78C367.674 232.78 367.037 233.034 366.571 233.464C366.102 233.892 365.804 234.486 365.738 235.097C365.675 235.724 365.758 236.339 366.057 236.859C366.345 237.378 366.813 237.771 367.333 237.992C367.858 238.225 368.425 238.192 368.992 238.194C369.553 238.197 370.098 238.199 370.625 238.201C371.676 238.207 372.658 238.212 373.556 238.217C375.328 238.234 376.771 238.248 377.799 238.258C378.28 238.268 378.665 238.276 378.953 238.283C379.217 238.29 379.355 238.299 379.355 238.307C379.355 238.316 379.217 238.325 378.953 238.334C378.665 238.34 378.282 238.347 377.799 238.358C376.771 238.368 375.328 238.382 373.556 238.4C372.658 238.404 371.676 238.409 370.625 238.416C370.098 238.418 369.553 238.419 368.992 238.422C368.709 238.418 368.435 238.433 368.131 238.414C367.831 238.392 367.529 238.331 367.243 238.212C366.673 237.974 366.159 237.548 365.842 236.979C365.511 236.418 365.419 235.721 365.486 235.069C365.557 234.397 365.883 233.743 366.399 233.274C366.91 232.8 367.612 232.521 368.33 232.521C371.062 232.524 373.665 232.528 376.037 232.53C377.221 232.535 378.346 232.54 379.402 232.544C380.514 232.554 381.446 233.253 381.859 234.074C382.069 234.487 382.167 234.927 382.171 235.342C382.182 235.747 382.135 236.148 382.007 236.49C381.76 237.184 381.288 237.652 380.857 237.917C380.421 238.184 380.024 238.273 379.762 238.301C379.495 238.331 379.355 238.307 379.355 238.307Z" fill="#263238"/>
<path d="M444.06 226.258H429.297C427.274 226.258 425.417 227.38 424.476 229.171C423.703 230.641 423.642 232.382 424.311 233.902L430.101 247.053L444.884 246.907C444.884 246.907 448.028 230.236 444.06 226.258Z" fill="#E8B18F"/>
<path d="M239.028 224.405L315.205 223.001L364.783 222.091L381.132 212.653C382.455 211.888 382.808 210.137 381.884 208.919L371.707 195.548C370.646 194.154 368.998 193.329 367.246 193.315L311.795 192.864C311.795 192.864 290.913 191.65 274.464 200.863C257.15 210.557 239.028 224.405 239.028 224.405Z" fill="#263238"/>
<path d="M274.526 194.748C274.526 194.748 277.762 195.986 275.277 197.599C272.792 199.212 234.198 223.544 234.198 223.544L225.732 220.05C241.447 211.294 257.497 202.774 274.526 194.748Z" fill="#455A64"/>
<path d="M235.445 224.154C235.445 224.154 235.365 224.179 235.207 224.215C235.038 224.253 234.806 224.302 234.505 224.368C233.874 224.499 232.964 224.687 231.797 224.928C229.443 225.397 226.031 226.055 221.8 226.781C213.341 228.237 201.59 229.934 188.536 231.063C185.273 231.347 182.081 231.58 178.999 231.782C175.917 231.983 172.945 232.171 170.122 232.43C164.474 232.922 159.415 233.745 155.305 234.967C151.184 236.15 148.035 237.667 145.964 238.864C144.902 239.423 144.147 239.971 143.608 240.303C143.348 240.467 143.147 240.595 143.001 240.688C142.863 240.774 142.79 240.813 142.79 240.813C142.79 240.813 142.853 240.759 142.987 240.667C143.13 240.569 143.326 240.434 143.58 240.26C144.108 239.915 144.857 239.352 145.913 238.778C147.974 237.55 151.123 236.002 155.253 234.792C159.371 233.542 164.445 232.697 170.101 232.191C172.929 231.925 175.903 231.733 178.983 231.527C182.064 231.321 185.253 231.087 188.514 230.803C201.559 229.675 213.306 228.009 221.77 226.598C226.004 225.895 229.419 225.265 231.779 224.827C232.949 224.607 233.862 224.434 234.495 224.315C234.797 224.26 235.032 224.218 235.202 224.187C235.362 224.162 235.445 224.154 235.445 224.154Z" fill="#263238"/>
<path d="M449.968 258.269C449.968 258.341 444.891 258.399 438.629 258.399C432.366 258.399 427.289 258.34 427.289 258.269C427.289 258.197 432.366 258.139 438.629 258.139C444.891 258.139 449.968 258.197 449.968 258.269Z" fill="#263238"/>
<path d="M357.091 271.216C357.091 271.288 328.431 271.345 293.084 271.345C257.725 271.345 229.07 271.286 229.07 271.216C229.07 271.143 257.724 271.085 293.084 271.085C328.43 271.085 357.091 271.143 357.091 271.216Z" fill="#263238"/>
<path d="M156.413 258.694C156.413 258.766 152.361 258.823 147.362 258.823C142.363 258.823 138.311 258.765 138.311 258.694C138.311 258.623 142.363 258.564 147.362 258.564C152.361 258.564 156.413 258.623 156.413 258.694Z" fill="#263238"/>
<path d="M419.912 203.029C419.912 203.029 416.511 206.838 417.847 209.632C419.184 212.427 433.002 222.208 433.002 222.208L443.033 224.09L419.912 203.029Z" fill="#455A64"/>
<path d="M324.556 196.22L322.299 220.576L362.658 219.425L378.926 209.97L368.394 196.22H324.556Z" fill="#455A64"/>
<path d="M248.583 221.827C248.583 221.827 272.93 204.242 282.537 200.747C291.808 197.374 296.642 196.528 305.352 196.281C313.676 196.045 318.748 196.273 318.748 196.273L312.313 221.036L248.583 221.827Z" fill="#455A64"/>
<path d="M245.02 221.903C245.02 220.361 245.852 218.94 247.196 218.184L252.789 215.041C254.383 214.145 256.182 213.674 258.011 213.674C259.149 213.674 260.269 213.855 261.332 214.204C263.722 214.987 265.313 217.257 265.409 219.772C265.542 223.265 262.746 226.169 259.25 226.169H249.284C246.93 226.171 245.02 224.26 245.02 221.903Z" fill="#191414"/>
<path d="M245.02 221.916C245.034 221.916 245.036 222.105 245.085 222.456C245.131 222.807 245.257 223.324 245.576 223.917C245.903 224.498 246.453 225.15 247.291 225.605C247.71 225.826 248.198 225.992 248.73 226.058C249.258 226.12 249.843 226.085 250.45 226.09C252.885 226.083 255.774 226.073 258.982 226.063C259.779 226.068 260.584 225.969 261.357 225.673C262.128 225.386 262.855 224.93 263.467 224.333C264.077 223.736 264.58 222.998 264.891 222.171C265.205 221.345 265.33 220.437 265.262 219.533C265.126 217.72 264.153 216.04 262.745 215.068C262.047 214.567 261.244 214.285 260.433 214.094C259.625 213.903 258.811 213.81 258.017 213.808C256.427 213.806 254.925 214.162 253.639 214.746C252.995 215.033 252.406 215.398 251.823 215.713C251.245 216.035 250.689 216.343 250.156 216.639C249.097 217.226 248.137 217.758 247.29 218.227C246.448 218.68 245.898 219.333 245.577 219.916C245.252 220.506 245.134 221.027 245.081 221.375C245.03 221.728 245.035 221.917 245.02 221.916C245.02 221.916 244.994 221.727 245.03 221.369C245.067 221.013 245.17 220.48 245.489 219.869C245.803 219.265 246.359 218.579 247.22 218.1C248.061 217.622 249.015 217.078 250.068 216.479C250.597 216.179 251.15 215.864 251.726 215.537C252.306 215.218 252.89 214.849 253.55 214.55C254.859 213.945 256.392 213.573 258.018 213.568C258.83 213.567 259.662 213.658 260.49 213.853C261.312 214.043 262.162 214.338 262.891 214.861C264.365 215.874 265.378 217.624 265.521 219.515C265.591 220.457 265.46 221.404 265.132 222.266C264.806 223.129 264.281 223.896 263.644 224.517C263.006 225.139 262.248 225.611 261.443 225.908C260.641 226.213 259.788 226.313 258.982 226.304C255.774 226.293 252.885 226.284 250.45 226.277C249.843 226.265 249.267 226.296 248.709 226.224C248.157 226.148 247.653 225.969 247.222 225.734C246.362 225.251 245.81 224.569 245.488 223.967C245.175 223.353 245.063 222.822 245.034 222.465C245.001 222.105 245.02 221.916 245.02 221.916Z" fill="#263238"/>
<path d="M432.618 286.886C432.618 286.886 432.618 286.768 432.632 286.54C432.648 286.304 432.67 285.967 432.7 285.528C432.728 285.083 432.781 284.533 432.81 283.881C432.832 283.228 432.858 282.477 432.887 281.631C432.894 280.784 432.882 279.843 432.873 278.813C432.807 277.786 432.802 276.664 432.662 275.469C432.447 273.077 432.047 270.356 431.219 267.446C430.788 265.998 430.304 264.487 429.631 262.98C428.993 261.459 428.181 259.941 427.223 258.448C425.324 255.445 422.634 252.68 419.426 250.309C416.209 247.943 412.402 246.046 408.242 244.795C404.08 243.519 399.554 243.057 394.946 243.024C390.333 243.013 385.822 243.64 381.677 244.955C379.605 245.609 377.626 246.433 375.771 247.392C373.918 248.359 372.221 249.516 370.644 250.743C367.505 253.215 364.859 255.989 362.745 258.843C361.704 260.281 360.86 261.778 360.12 263.252C359.424 264.747 358.791 266.201 358.304 267.634C356.284 273.348 355.651 278.262 355.425 281.629C355.345 283.32 355.354 284.635 355.396 285.526C355.421 285.965 355.441 286.302 355.455 286.538C355.466 286.767 355.466 286.884 355.466 286.884C355.466 286.884 355.449 286.768 355.429 286.54C355.409 286.304 355.381 285.967 355.344 285.528C355.284 284.637 355.26 283.319 355.324 281.623C355.52 278.246 356.126 273.316 358.13 267.571C358.613 266.131 359.243 264.667 359.938 263.162C360.677 261.677 361.524 260.168 362.57 258.714C364.689 255.837 367.341 253.045 370.495 250.552C372.078 249.317 373.786 248.147 375.654 247.171C377.523 246.202 379.512 245.37 381.599 244.71C385.77 243.382 390.31 242.751 394.945 242.762C399.572 242.794 404.122 243.262 408.314 244.549C412.501 245.811 416.331 247.727 419.567 250.113C421.186 251.305 422.661 252.607 423.978 253.983C425.297 255.356 426.454 256.813 427.405 258.328C428.366 259.835 429.178 261.366 429.815 262.897C430.487 264.415 430.969 265.937 431.397 267.393C432.218 270.32 432.606 273.054 432.807 275.453C432.94 276.652 432.939 277.776 432.998 278.806C433 279.838 433.005 280.782 432.989 281.629C432.952 282.475 432.917 283.227 432.888 283.881C432.851 284.533 432.789 285.083 432.754 285.527C432.713 285.965 432.682 286.302 432.661 286.538C432.636 286.769 432.618 286.886 432.618 286.886Z" fill="white"/>
<path d="M311.247 224.41C311.247 224.415 311.209 224.419 311.132 224.424C311.04 224.428 310.929 224.433 310.794 224.438C310.474 224.445 310.04 224.454 309.493 224.466C308.34 224.487 306.71 224.516 304.709 224.552C300.67 224.628 295.09 224.776 288.928 224.944C282.763 225.112 277.181 225.231 273.14 225.26C271.119 225.276 269.485 225.277 268.354 225.264C267.807 225.255 267.373 225.249 267.054 225.244C266.918 225.239 266.807 225.235 266.715 225.232C266.639 225.229 266.6 225.224 266.6 225.22C266.6 225.216 266.638 225.211 266.715 225.206C266.807 225.203 266.918 225.198 267.054 225.193C267.373 225.185 267.807 225.176 268.354 225.164C269.507 225.143 271.135 225.114 273.138 225.078C277.177 225.002 282.757 224.854 288.922 224.686C295.084 224.519 300.666 224.399 304.707 224.371C306.728 224.354 308.363 224.353 309.493 224.367C310.04 224.376 310.474 224.382 310.794 224.387C310.929 224.392 311.04 224.395 311.132 224.398C311.209 224.402 311.247 224.407 311.247 224.41Z" fill="white"/>
<path d="M304.635 231.899C304.635 231.971 302.679 232.028 300.266 232.028C297.852 232.028 295.896 231.97 295.896 231.899C295.896 231.827 297.852 231.77 300.266 231.77C302.679 231.77 304.635 231.827 304.635 231.899Z" fill="white"/>
<path d="M306.243 205.209C306.271 205.275 300.846 207.534 294.128 210.253C287.409 212.973 281.943 215.123 281.915 215.056C281.888 214.99 287.312 212.731 294.031 210.011C300.749 207.294 306.217 205.144 306.243 205.209Z" fill="white"/>
<path d="M295.251 206.919C295.28 206.985 290.115 209.26 283.716 212.001C277.316 214.742 272.106 216.91 272.077 216.844C272.049 216.778 277.213 214.504 283.614 211.762C290.012 209.021 295.223 206.854 295.251 206.919Z" fill="white"/>
<path d="M364.963 204.275C364.99 204.341 359.565 206.599 352.848 209.318C346.128 212.038 340.662 214.189 340.635 214.121C340.608 214.055 346.031 211.797 352.751 209.077C359.467 206.358 364.936 204.208 364.963 204.275Z" fill="white"/>
<path d="M353.959 205.971C353.988 206.037 348.823 208.312 342.424 211.052C336.024 213.793 330.814 215.961 330.785 215.895C330.757 215.829 335.921 213.554 342.322 210.813C348.721 208.074 353.931 205.905 353.959 205.971Z" fill="white"/>
<path d="M366.021 224.409C366.021 224.481 355.233 224.603 341.928 224.682C328.618 224.762 317.831 224.768 317.831 224.696C317.831 224.624 328.616 224.502 341.927 224.422C355.232 224.344 366.021 224.338 366.021 224.409Z" fill="white"/>
<path d="M377.967 231.484C377.968 231.556 374.942 231.642 371.21 231.677C367.476 231.712 364.45 231.682 364.45 231.61C364.449 231.538 367.475 231.452 371.207 231.417C374.94 231.384 377.966 231.413 377.967 231.484Z" fill="white"/>
<path d="M171.401 227.801C171.402 227.81 171.3 227.829 171.107 227.857C170.886 227.886 170.606 227.923 170.262 227.968C169.894 228.01 169.445 228.066 168.926 228.151C168.407 228.233 167.813 228.309 167.165 228.439C165.863 228.666 164.324 229.008 162.637 229.457C160.954 229.924 159.122 230.509 157.243 231.239C155.367 231.981 153.626 232.797 152.074 233.6C150.53 234.418 149.17 235.213 148.06 235.931C147.496 236.276 147.009 236.625 146.573 236.916C146.134 237.206 145.767 237.471 145.47 237.69C145.186 237.89 144.956 238.054 144.774 238.184C144.614 238.295 144.527 238.349 144.521 238.342C144.516 238.334 144.592 238.266 144.742 238.142C144.916 238.002 145.138 237.826 145.409 237.608C145.699 237.375 146.058 237.099 146.49 236.797C146.92 236.492 147.4 236.132 147.96 235.776C149.06 235.034 150.416 234.219 151.961 233.386C153.514 232.569 155.261 231.741 157.146 230.995C159.035 230.261 160.878 229.681 162.572 229.224C164.271 228.785 165.819 228.461 167.131 228.257C167.784 228.136 168.381 228.075 168.904 228.005C169.426 227.933 169.877 227.892 170.248 227.865C170.595 227.84 170.877 227.819 171.1 227.803C171.298 227.794 171.4 227.791 171.401 227.801Z" fill="white"/>
<path d="M260.47 216.031C260.45 216.046 260.323 215.836 259.99 215.567C259.661 215.301 259.098 214.997 258.342 214.902C257.586 214.801 256.669 214.93 255.683 215.189C254.693 215.436 253.623 215.788 252.542 216.257C250.375 217.19 248.609 218.431 247.433 219.434C246.248 220.43 245.621 221.164 245.584 221.13C245.57 221.118 245.721 220.93 246.005 220.599C246.296 220.274 246.731 219.815 247.313 219.296C248.467 218.25 250.24 216.965 252.438 216.02C253.532 215.545 254.619 215.195 255.626 214.958C256.624 214.709 257.578 214.591 258.367 214.72C259.158 214.844 259.734 215.19 260.054 215.491C260.217 215.642 260.323 215.778 260.388 215.874C260.45 215.971 260.476 216.026 260.47 216.031Z" fill="white"/>
<path d="M421.051 202.848C421.051 202.848 420.311 203.07 418.928 203.064C418.239 203.047 417.395 202.967 416.438 202.756C415.481 202.548 414.414 202.215 413.264 201.776C412.113 201.34 410.884 200.791 409.558 200.224C408.89 199.954 408.199 199.675 407.487 199.388C406.775 199.104 406.022 198.859 405.262 198.582C402.198 197.528 398.757 196.585 395.098 195.811C387.771 194.272 380.999 193.636 376.1 193.445C374.875 193.379 373.766 193.378 372.792 193.351C371.823 193.351 370.985 193.351 370.292 193.351C369.621 193.366 369.093 193.377 368.712 193.386C368.544 193.387 368.409 193.387 368.301 193.388C368.207 193.387 368.16 193.384 368.16 193.381C368.16 193.376 368.207 193.37 368.299 193.362C368.406 193.355 368.542 193.345 368.71 193.333C369.09 193.314 369.618 193.285 370.289 193.249C370.983 193.236 371.822 193.222 372.792 193.204C373.767 193.218 374.879 193.205 376.106 193.26C381.015 193.403 387.805 194.013 395.15 195.555C398.819 196.33 402.27 197.283 405.34 198.353C406.102 198.634 406.856 198.884 407.57 199.173C408.282 199.465 408.974 199.748 409.643 200.023C410.967 200.599 412.189 201.159 413.33 201.602C414.47 202.049 415.524 202.391 416.471 202.61C417.416 202.833 418.249 202.927 418.932 202.959C419.615 202.976 420.147 202.942 420.504 202.9C420.671 202.88 420.805 202.864 420.912 202.85C421.003 202.847 421.05 202.844 421.051 202.848Z" fill="#263238"/>
<path d="M101.696 436.242L101.052 453.747C101.052 453.747 118.631 460.281 118.826 463.528L84.8384 463.5L84.7217 436.182L101.696 436.242Z" fill="#455A64"/>
<path d="M90.5597 452.276C89.902 452.455 89.4469 453.194 89.5986 453.858C89.7503 454.523 90.4988 454.993 91.1595 454.824C91.8202 454.657 92.394 453.787 92.1685 453.143C91.9429 452.499 91.0347 451.996 90.4329 452.318" fill="#E0E0E0"/>
<path d="M84.8428 463.503L84.9386 460.749L117.49 461.806C117.49 461.806 119.003 462.466 118.831 463.532L84.8428 463.503Z" fill="#263238"/>
<path d="M101.614 453.579C101.608 453.745 100.779 453.82 99.9613 454.352C99.1299 454.864 98.7088 455.583 98.5561 455.517C98.4034 455.485 98.6519 454.493 99.6519 453.864C100.647 453.228 101.65 453.426 101.614 453.579Z" fill="white"/>
<path d="M105.188 455.065C105.225 455.226 104.506 455.507 103.942 456.209C103.357 456.893 103.215 457.653 103.049 457.645C102.893 457.671 102.779 456.699 103.497 455.841C104.208 454.976 105.184 454.907 105.188 455.065Z" fill="white"/>
<path d="M107.196 459.317C107.045 459.352 106.815 458.523 107.242 457.615C107.663 456.703 108.446 456.345 108.515 456.483C108.609 456.62 108.105 457.107 107.766 457.858C107.409 458.602 107.361 459.302 107.196 459.317Z" fill="white"/>
<path d="M101.322 449.564C101.252 449.715 100.49 449.485 99.5522 449.549C98.6131 449.593 97.8825 449.907 97.7957 449.764C97.6999 449.644 98.4135 449.031 99.5193 448.972C100.625 448.904 101.403 449.433 101.322 449.564Z" fill="white"/>
<path d="M62.6938 437.846L61.3405 458.998L65.094 476.036C65.3645 477.263 64.5391 478.464 63.2956 478.65C62.599 478.754 61.9004 478.521 61.4124 478.013C58.3076 474.781 46.9464 462.835 47.132 461.293C47.3476 459.507 47.0781 438.888 47.0781 438.888L62.6938 437.846Z" fill="#455A64"/>
<path d="M63.3017 478.649L47.197 459.862L47.16 460.759C47.1281 461.534 47.3686 462.297 47.8477 462.909C49.1281 464.543 52.7598 468.983 61.3546 478.009C61.8546 478.534 62.5881 478.776 63.3017 478.649Z" fill="#263238"/>
<g opacity="0.6">
<path d="M51.8218 453.214C52.3378 453.602 52.4775 454.413 52.1113 454.944C51.744 455.474 50.9216 455.624 50.3997 455.245C49.8777 454.866 49.6791 453.899 50.1033 453.413C50.5274 452.926 51.5025 452.803 51.9186 453.297" fill="white"/>
</g>
<path d="M58.844 469.206C58.9618 469.27 59.4847 468.18 60.7682 467.635C62.0356 467.052 63.1933 467.398 63.2252 467.269C63.2462 467.218 62.9847 467.042 62.4917 466.951C62.0037 466.858 61.2841 466.898 60.5795 467.209C59.8759 467.521 59.363 468.026 59.1025 468.449C58.838 468.874 58.7921 469.186 58.844 469.206Z" fill="white"/>
<path d="M60.2392 472.1C60.336 472.196 61.0446 471.536 62.1523 471.267C63.2541 470.974 64.1912 471.216 64.2312 471.085C64.297 470.98 63.296 470.489 62.0376 470.816C60.7761 471.129 60.1314 472.039 60.2392 472.1Z" fill="white"/>
<path d="M56.1816 465.455C56.2774 465.559 57.3602 464.537 59.0468 463.969C60.7245 463.373 62.2075 463.507 62.2175 463.365C62.2564 463.253 60.6955 462.895 58.8942 463.528C57.0878 464.144 56.0818 465.392 56.1816 465.455Z" fill="white"/>
<path d="M56.0522 458.984C56.1031 459.114 57.2937 458.673 58.8176 458.68C60.3426 458.667 61.5342 459.103 61.5851 458.973C61.648 458.872 60.4554 458.204 58.8166 458.215C57.1789 458.211 55.9893 458.884 56.0522 458.984Z" fill="white"/>
<path d="M56.3099 452.768C56.3708 452.893 57.5754 452.235 59.1802 452.375C60.788 452.479 61.8808 453.31 61.9586 453.195C61.9956 453.153 61.775 452.877 61.2979 452.576C60.8249 452.273 60.0794 451.979 59.2141 451.911C58.3489 451.847 57.5674 452.027 57.0545 452.254C56.5395 452.481 56.28 452.72 56.3099 452.768Z" fill="white"/>
<path d="M59.1785 451.192C59.2054 451.193 59.2653 450.91 59.2403 450.392C59.2144 449.877 59.0966 449.117 58.6894 448.269C58.4769 447.865 58.2593 447.351 57.6795 447.047C57.391 446.894 56.9509 446.931 56.6884 447.201C56.428 447.463 56.3352 447.808 56.3142 448.143C56.2813 449.488 57.3811 450.836 58.885 451.09C60.396 451.319 61.8072 450.508 62.4559 449.372C62.5996 449.077 62.7064 448.713 62.5567 448.348C62.41 447.98 61.9858 447.819 61.6804 447.859C61.0477 447.926 60.6365 448.273 60.2553 448.526C59.5018 449.083 59.0248 449.682 58.7423 450.112C58.4589 450.546 58.3631 450.818 58.387 450.831C58.4589 450.889 58.9649 449.813 60.4439 448.796C60.8162 448.563 61.2463 448.268 61.7004 448.244C61.922 448.231 62.1086 448.327 62.1794 448.507C62.2533 448.681 62.1984 448.945 62.0737 449.177C61.5268 450.106 60.2353 450.844 58.9609 450.63C57.6914 450.428 56.7254 449.242 56.7423 448.159C56.7503 447.898 56.8302 447.639 56.9759 447.49C57.1196 447.344 57.3292 447.311 57.5218 447.397C57.927 447.58 58.1854 448.036 58.396 448.415C59.2254 450.009 59.0836 451.209 59.1785 451.192Z" fill="white"/>
<path d="M116.599 288.283C116.599 288.283 119.405 298.199 118.752 310.373C118.498 315.083 103.368 451.196 103.368 451.196L84.1179 449.465L87.4462 322.206L86.6389 322.926C86.6389 322.926 75.1708 376.466 74.4114 384.931C73.7287 392.54 64.5751 453.655 64.5751 453.655L45.8955 452.767L50.128 375.507L55.7937 305.366L58.0631 284.934L116.599 288.283Z" fill="#263238"/>
<path d="M83.7445 311.228C83.7325 311.256 84.0518 311.433 84.6496 311.712C85.2504 311.978 86.1327 312.385 87.3243 312.579C87.9181 312.673 88.5937 312.69 89.2983 312.547C89.9989 312.406 90.7434 312.09 91.3392 311.509C91.9351 310.927 92.3093 310.123 92.5398 309.292C92.7734 308.454 92.8971 307.585 93.0538 306.702C93.6556 303.157 94.0438 299.924 94.2594 297.58C94.3682 296.407 94.435 295.457 94.469 294.799C94.5019 294.142 94.5029 293.776 94.472 293.774C94.44 293.771 94.3802 294.132 94.2933 294.783C94.1975 295.531 94.0797 296.454 93.941 297.545C93.6436 299.876 93.2065 303.092 92.6067 306.627C92.3013 308.373 92.1067 310.151 91.0438 311.214C89.982 312.256 88.474 312.398 87.3672 312.261C86.2235 312.118 85.3323 311.763 84.7165 311.549C84.1017 311.321 83.7574 311.199 83.7445 311.228Z" fill="#455A64"/>
<path d="M89.8098 294.495C89.8158 294.475 89.6681 294.386 89.3667 294.374C89.0683 294.36 88.6162 294.46 88.1771 294.788C87.7559 295.113 87.3128 295.69 87.3128 296.463C87.2959 297.247 87.9246 298.003 88.728 298.271C89.5244 298.561 90.4865 298.36 90.9615 297.736C91.4426 297.13 91.4545 296.402 91.3278 295.885C91.1871 295.355 90.8967 294.995 90.6531 294.822C90.4096 294.643 90.238 294.62 90.231 294.64C90.1741 294.7 90.8428 294.985 91.0134 295.952C91.0893 296.408 91.0284 297.017 90.6412 297.465C90.2689 297.923 89.5374 298.073 88.8777 297.841C88.217 297.612 87.737 297.04 87.731 296.449C87.706 295.857 88.0374 295.343 88.3807 295.033C89.1162 294.385 89.8168 294.578 89.8098 294.495Z" fill="#455A64"/>
<path d="M56.0557 304.097C56.0547 304.128 56.3142 304.161 56.7882 304.194C57.2613 304.235 57.9509 304.231 58.7982 304.171C60.4928 304.056 62.8341 303.591 65.2153 302.527C67.5935 301.455 69.4987 300.015 70.7103 298.827C71.3191 298.234 71.7802 297.721 72.0636 297.341C72.354 296.965 72.5017 296.749 72.4778 296.73C72.4159 296.678 71.7462 297.482 70.4927 298.591C69.2442 299.702 67.355 301.065 65.0287 302.114C62.6994 303.154 60.4259 303.658 58.7662 303.853C57.1036 304.05 56.0577 304.016 56.0557 304.097Z" fill="#455A64"/>
<path d="M107.945 294.467C107.899 294.491 108.283 295.35 109.108 296.627C109.929 297.901 111.23 299.568 112.93 301.151C114.635 302.729 116.393 303.904 117.725 304.628C119.059 305.355 119.944 305.674 119.965 305.627C119.996 305.561 119.163 305.14 117.888 304.351C116.613 303.565 114.916 302.37 113.239 300.818C111.568 299.262 110.25 297.659 109.372 296.445C108.49 295.231 108.009 294.431 107.945 294.467Z" fill="#455A64"/>
<path d="M103.919 151.091C102.579 142.411 94.7975 136.216 86.037 136.854L85.1668 136.918C75.8205 138.149 71.6459 146.775 73.1359 156.083L76.3894 189.122L76.5471 195.95L98.8065 197.969L98.3284 183.55C98.3284 183.55 107.25 181.49 106.704 172.46C106.439 168.101 105.166 159.165 103.919 151.091Z" fill="#EBB373"/>
<path d="M98.4 183.528C98.4 183.528 92.6644 184.295 86.3271 180.93C86.3271 180.93 89.5806 187.22 98.5227 185.751L98.4 183.528Z" fill="#CD9A60"/>
<path d="M102.614 159.463C102.688 160.142 102.174 160.764 101.466 160.854C100.761 160.943 100.127 160.467 100.054 159.789C99.9801 159.11 100.494 158.487 101.2 158.398C101.907 158.308 102.541 158.785 102.614 159.463Z" fill="#263238"/>
<path d="M102.285 155.646C102.137 155.826 101.109 155.174 99.7228 155.279C98.3366 155.364 97.3715 156.151 97.2088 155.993C97.129 155.923 97.2697 155.608 97.6889 155.253C98.1021 154.9 98.8226 154.534 99.6869 154.475C100.551 154.417 101.301 154.681 101.742 154.977C102.192 155.271 102.358 155.565 102.285 155.646Z" fill="#263238"/>
<path d="M89.5425 161.001C89.6164 161.679 89.1024 162.301 88.3948 162.391C87.6893 162.481 87.0555 162.005 86.9817 161.326C86.9078 160.647 87.4218 160.025 88.1284 159.935C88.8359 159.845 89.4697 160.322 89.5425 161.001Z" fill="#263238"/>
<path d="M88.6969 156.903C88.5492 157.083 87.5192 156.432 86.134 156.537C84.7488 156.622 83.7827 157.409 83.62 157.25C83.5402 157.18 83.6799 156.865 84.1011 156.51C84.5133 156.157 85.2348 155.791 86.0981 155.732C86.9624 155.674 87.7118 155.938 88.153 156.234C88.6021 156.529 88.7687 156.822 88.6969 156.903Z" fill="#263238"/>
<path d="M94.4734 166.823C94.4615 166.744 95.3117 166.532 96.695 166.252C97.0463 166.19 97.3766 166.095 97.4185 165.848C97.4834 165.587 97.3077 165.216 97.1062 164.817C96.7109 163.984 96.2968 163.112 95.8626 162.197C94.1291 158.464 92.8467 155.385 92.9974 155.318C93.1481 155.25 94.676 158.219 96.4085 161.95C96.8277 162.871 97.2279 163.749 97.6091 164.589C97.7718 164.981 98.0363 165.421 97.8936 165.965C97.8177 166.237 97.5712 166.448 97.3497 166.525C97.1281 166.611 96.9285 166.629 96.7549 166.653C95.3557 166.83 94.4844 166.9 94.4734 166.823Z" fill="#263238"/>
<path d="M90.452 168.073C90.6765 168.043 90.7893 169.548 92.1545 170.522C93.5188 171.5 95.1106 171.213 95.1376 171.423C95.1655 171.516 94.8012 171.741 94.1256 171.809C93.4629 171.88 92.4779 171.737 91.6416 171.142C90.8082 170.544 90.407 169.694 90.3102 169.081C90.2074 168.456 90.3482 168.071 90.452 168.073Z" fill="#263238"/>
<path d="M88.6478 151.432C88.539 151.819 87.1408 151.742 85.5291 152.056C83.9103 152.338 82.6339 152.909 82.3934 152.588C82.2856 152.433 82.4882 152.062 82.9922 151.658C83.4912 151.256 84.3045 150.847 85.2736 150.668C86.2416 150.49 87.1478 150.58 87.7576 150.777C88.3714 150.975 88.6937 151.25 88.6478 151.432Z" fill="#263238"/>
<path d="M101.501 151.671C101.28 152.003 100.301 151.746 99.1514 151.814C97.9997 151.842 97.0456 152.181 96.7981 151.867C96.6883 151.715 96.818 151.388 97.2212 151.059C97.6184 150.732 98.3011 150.437 99.0915 150.404C99.8819 150.372 100.587 150.608 101.011 150.9C101.44 151.195 101.596 151.51 101.501 151.671Z" fill="#263238"/>
<path d="M75.2216 164.756C75.0629 163.367 73.7834 162.355 72.4052 162.588C70.7345 162.87 68.9322 163.962 69.2964 167.431C69.9431 173.585 75.987 171.667 75.979 171.489C75.974 171.367 75.515 167.328 75.2216 164.756Z" fill="#EBB373"/>
<path d="M74.4013 169.314C74.3724 169.298 74.3015 169.401 74.1299 169.503C73.9622 169.603 73.6638 169.691 73.3305 169.604C72.6558 169.433 71.9992 168.459 71.8534 167.353C71.7786 166.796 71.8405 166.25 71.9922 165.788C72.1329 165.317 72.3904 164.973 72.7117 164.88C73.0291 164.771 73.2816 164.942 73.3754 165.108C73.4762 165.272 73.4502 165.398 73.4832 165.405C73.5021 165.419 73.6039 165.289 73.5281 165.039C73.4892 164.919 73.4023 164.782 73.2457 164.679C73.085 164.574 72.8614 164.536 72.6369 164.584C72.1658 164.667 71.7846 165.148 71.6179 165.656C71.4243 166.169 71.3425 166.783 71.4263 167.409C71.596 168.645 72.3524 169.739 73.2696 169.902C73.7147 169.97 74.062 169.801 74.2327 169.637C74.4053 169.465 74.4233 169.324 74.4013 169.314Z" fill="#CD9A60"/>
<path d="M128.525 217.588C131.389 225.933 132.344 226.075 134.946 250.162C135.451 254.84 134.191 261.956 130.043 264.178C125.894 266.399 118.519 263.961 116.05 259.954L113.281 242.199L128.525 217.588Z" fill="#EBB373"/>
<path d="M118.303 253.019C118.392 253.044 118.813 251.326 119.859 249.442C120.89 247.549 122.117 246.275 122.047 246.213C122.021 246.187 121.681 246.472 121.205 247.008C120.729 247.542 120.13 248.339 119.6 249.299C119.073 250.26 118.72 251.193 118.523 251.881C118.325 252.571 118.268 253.011 118.303 253.019Z" fill="#CD9A60"/>
<path d="M58.0411 262.821L58.1509 242.989L58.072 241.045L37.9434 236.346C37.9434 236.346 41.8944 223.325 45.5202 209.335C47.613 201.256 54.58 197.195 56.2626 196.318V196.307L56.6299 196.134L56.6339 196.132L76.3334 188.624C80.2446 192.798 85.6218 195.452 91.1118 193.85C94.1138 192.973 96.8523 191.306 98.7355 188.96L112.137 192.891L112.138 192.896C115.489 194.121 119.039 196.457 121.164 200.215C123.896 205.047 132.624 227.209 132.775 227.704L116.606 229.156C116.606 229.156 119.475 281.603 118.459 290.973C118.459 290.973 114.533 293.688 104.622 294.157C84.531 295.106 54.6259 293.678 54.6259 293.678C55.095 290.651 55.586 285.597 55.8615 283.037L58.0411 262.821Z" fill="#A3A0FF"/>
<path d="M116.062 209.621C115.98 209.624 116.41 222.132 117.022 237.555C117.634 252.983 118.195 265.483 118.277 265.479C118.359 265.476 117.929 252.97 117.317 237.543C116.705 222.121 116.144 209.618 116.062 209.621Z" fill="#263238"/>
<path d="M134.443 220.053L128.198 246.057C127.851 247.498 126.565 248.516 124.495 249.09L89.0512 249.212C87.6211 248.651 86.0962 246.821 86.4664 244.839L91.1131 219.964C91.3925 218.47 92.68 217.376 94.1989 217.341L131.556 216.478C133.459 216.433 134.887 218.203 134.443 220.053Z" fill="#263238"/>
<path d="M136.793 225.272C137.458 224.505 137.37 223.26 136.742 222.462C136.115 221.662 135.065 221.279 134.05 221.264C133.034 221.25 132.042 221.563 131.102 221.948C129.941 222.423 128.827 223.011 127.78 223.702C127.041 224.19 126.278 224.821 126.152 225.698C126.025 226.575 126.997 227.55 127.756 227.093C126.766 227.538 125.782 228.618 125.648 229.727C125.513 230.836 126.117 231.416 127.194 231.71C126.387 232.046 125.89 233.08 126.281 233.862C126.692 234.683 127.843 234.885 128.693 234.538C129.544 234.189 130.16 233.45 130.741 232.738C130.156 233.8 130.204 235.501 130.462 236.686C132.805 235.825 135.117 233.217 134.418 230.74C135.557 229.842 136.073 227.989 135.359 226.726C136.305 226.407 137.352 224.929 137.254 223.935" fill="#EBB373"/>
<path d="M130.354 236.735C130.331 236.695 130.703 236.463 131.281 236.068C131.854 235.672 132.643 235.101 133.303 234.284C133.97 233.47 134.264 232.544 134.343 231.862C134.414 231.177 134.355 230.74 134.412 230.733C134.439 230.727 134.579 231.156 134.562 231.88C134.541 232.597 134.255 233.618 133.546 234.479C132.848 235.341 132.01 235.9 131.398 236.254C130.781 236.608 130.373 236.769 130.354 236.735Z" fill="#CD9A60"/>
<path d="M127.214 231.714C127.242 231.743 127.607 231.41 128.219 230.909C128.831 230.421 129.722 229.746 130.881 229.469C131.454 229.334 132.026 229.321 132.519 229.433C133.013 229.543 133.427 229.765 133.729 230.003C134.341 230.488 134.486 230.992 134.53 230.967C134.543 230.963 134.526 230.836 134.431 230.628C134.338 230.422 134.154 230.137 133.847 229.862C133.539 229.59 133.106 229.334 132.574 229.2C132.043 229.065 131.429 229.072 130.821 229.216C129.593 229.512 128.688 230.241 128.1 230.769C127.509 231.314 127.192 231.691 127.214 231.714Z" fill="#CD9A60"/>
<path d="M127.372 227.203C127.387 227.237 127.866 227.038 128.602 226.657C128.971 226.47 129.407 226.245 129.909 226.049C130.409 225.862 130.992 225.693 131.599 225.57C132.208 225.451 132.803 225.425 133.324 225.513C133.846 225.601 134.291 225.808 134.616 226.039C135.281 226.51 135.43 227.042 135.474 227.016C135.487 227.012 135.468 226.881 135.367 226.665C135.265 226.452 135.063 226.16 134.727 225.893C134.393 225.625 133.926 225.387 133.368 225.278C132.81 225.169 132.182 225.192 131.551 225.315C130.919 225.443 130.342 225.618 129.821 225.827C129.307 226.041 128.874 226.288 128.515 226.495C127.801 226.919 127.358 227.171 127.372 227.203Z" fill="#CD9A60"/>
<path d="M70.2926 158.484C70.8015 160.248 70.6159 163.177 72.1947 162.78C75.3245 161.992 74.574 168.406 76.076 167.778C77.557 167.159 78.8674 165.332 78.9592 161.386C79.0769 156.375 77.06 152.758 79.035 147.019C80.3574 144.716 82.7137 143.149 85.3683 143.088C88.023 143.026 90.5879 144.37 92.016 146.609C92.2974 144.86 93.1488 142.223 94.7066 141.381C96.2645 140.539 98.3433 140.639 99.6856 141.794C101.027 142.95 101.394 145.158 100.337 146.579C101.051 146.81 101.902 146.505 102.304 145.871C102.37 146.686 102.079 147.524 101.523 148.124C102.162 147.962 102.738 147.561 103.111 147.018C102.955 147.741 102.799 148.465 102.645 149.188C105.283 149.258 107.865 146.703 108.598 144.43C109.709 140.984 108.852 137.508 106.926 134.442C105.001 131.376 101.552 129.215 97.9322 129.248C94.3114 129.281 91.2795 130.997 89.8833 134.337C87.534 132.675 82.7735 132.098 80.1528 133.289C77.532 134.48 75.6309 137.126 75.3384 139.99C73.6997 139.296 71.7327 139.835 70.3514 140.958C70.2367 141.052 70.1249 141.149 70.0161 141.248C68.1229 142.997 67.3475 145.657 67.8305 148.188C68.0221 149.192 68.3694 150.231 68.574 151.037C69.1818 153.429 70.2926 158.484 70.2926 158.484Z" fill="#263238"/>
<path d="M102.722 145.706C102.728 145.713 102.8 145.657 102.932 145.54C103.064 145.424 103.25 145.238 103.451 144.971C103.861 144.447 104.344 143.556 104.484 142.35C104.633 141.17 104.358 139.607 103.256 138.402C102.202 137.207 100.419 136.357 98.5493 136.625C97.6261 136.754 96.7768 137.125 96.0523 137.603C95.3267 138.083 94.713 138.667 94.213 139.284C93.202 140.518 92.6222 141.862 92.3248 143.019C92.0224 144.18 91.9904 145.16 92.0174 145.825C92.0403 146.158 92.0613 146.416 92.0932 146.59C92.1202 146.763 92.1391 146.853 92.1481 146.852C92.224 146.859 91.8836 145.357 92.5104 143.07C92.8258 141.941 93.4116 140.637 94.4066 139.445C95.3816 138.267 96.8207 137.152 98.5872 136.894C100.35 136.64 102.054 137.439 103.068 138.57C104.126 139.706 104.41 141.184 104.293 142.33C104.181 143.496 103.74 144.376 103.365 144.908C102.987 145.448 102.701 145.685 102.722 145.706Z" fill="#455A64"/>
<path d="M103.925 148.464C103.933 148.468 103.998 148.366 104.111 148.164C104.225 147.962 104.391 147.664 104.594 147.274C104.994 146.492 105.592 145.358 106.043 143.838C106.262 143.078 106.433 142.217 106.449 141.281C106.462 140.349 106.333 139.331 105.914 138.353C105.503 137.375 104.765 136.472 103.8 135.838C102.835 135.206 101.671 134.804 100.451 134.729C99.2291 134.647 98.0365 134.887 96.9657 135.286C95.8938 135.693 94.9367 136.265 94.1104 136.912C92.4537 138.205 91.3639 139.878 90.9916 141.431C90.6064 142.988 90.8519 144.319 91.1733 145.135C91.329 145.551 91.5136 145.845 91.6344 146.043C91.7691 146.233 91.8439 146.33 91.8509 146.324C91.8789 146.308 91.5635 145.922 91.2731 145.099C90.9877 144.288 90.7801 142.986 91.1783 141.479C91.5635 139.978 92.6364 138.364 94.2651 137.109C95.8729 135.866 98.0605 134.857 100.434 135C101.606 135.071 102.727 135.457 103.653 136.06C104.579 136.668 105.283 137.518 105.683 138.452C106.09 139.387 106.226 140.371 106.222 141.279C106.216 142.192 106.061 143.035 105.858 143.787C105.437 145.29 104.869 146.434 104.5 147.228C104.32 147.604 104.175 147.906 104.063 148.14C103.965 148.348 103.917 148.46 103.925 148.464Z" fill="#455A64"/>
<path d="M72.4722 154.499C72.5041 154.459 71.9043 154.037 71.1548 153.146C70.4063 152.267 69.5481 150.859 69.1878 149.125C68.8285 147.389 69.056 145.755 69.3934 144.651C69.7267 143.537 70.1099 142.91 70.064 142.887C70.05 142.879 69.9403 143.026 69.7766 143.312C69.6119 143.599 69.4033 144.032 69.2097 144.593C68.8185 145.704 68.5501 147.387 68.9213 149.179C69.2936 150.971 70.2087 152.408 71.0101 153.272C71.4103 153.71 71.7746 154.025 72.0401 154.222C72.3035 154.42 72.4622 154.512 72.4722 154.499Z" fill="#455A64"/>
<path d="M78.0806 154.318C78.0915 154.292 77.7722 154.182 77.2842 153.848C76.8061 153.517 76.1474 152.925 75.7293 151.976L75.4698 151.387L75.5277 152.03C75.6055 152.897 75.6953 153.896 75.7931 154.98L75.9937 154.86C75.2662 154.366 74.5586 153.7 73.9798 152.888C73.2412 151.863 72.7922 150.717 72.6025 149.642C72.4139 148.563 72.4688 147.561 72.6205 146.745C72.9349 145.104 73.5496 144.222 73.4917 144.198C73.4838 144.193 73.4438 144.245 73.375 144.348C73.3031 144.45 73.2123 144.61 73.1005 144.818C72.882 145.238 72.6135 145.876 72.4309 146.708C72.2512 147.537 72.1744 148.567 72.355 149.684C72.5377 150.796 72.9947 151.987 73.7582 153.047C74.357 153.885 75.0925 154.573 75.85 155.076L76.0796 155.228L76.0506 154.955C75.9359 153.873 75.8301 152.875 75.7382 152.01L75.5367 152.064C76.0007 153.052 76.7083 153.64 77.2193 153.949C77.4788 154.107 77.6953 154.2 77.844 154.256C77.9957 154.308 78.0766 154.328 78.0806 154.318Z" fill="#455A64"/>
<path d="M79.7888 141.336C79.8427 141.374 80.1051 140.458 81.2159 139.557C81.7658 139.119 82.5223 138.706 83.4335 138.525C84.3406 138.338 85.3945 138.423 86.4005 138.793C87.4075 139.169 88.2618 139.781 88.8855 140.473C89.5163 141.162 89.9384 141.906 90.2239 142.555C90.7817 143.867 90.8406 144.773 90.8955 144.762C90.9105 144.76 90.9105 144.537 90.8516 144.135C90.7927 143.735 90.666 143.159 90.4015 142.481C90.132 141.807 89.7169 141.03 89.0722 140.305C88.4344 139.578 87.5472 138.931 86.4953 138.539C85.4434 138.151 84.3357 138.07 83.3836 138.28C82.4285 138.485 81.649 138.936 81.0942 139.41C80.5393 139.891 80.199 140.388 80.0153 140.749C79.9245 140.932 79.8606 141.076 79.8297 141.178C79.7938 141.278 79.7798 141.333 79.7888 141.336Z" fill="#455A64"/>
<path d="M81.2338 136.631C81.2618 136.682 81.8336 136.228 82.9334 135.976C84.0123 135.714 85.656 135.755 87.1649 136.573C88.6729 137.4 89.638 138.704 90.1619 139.689C90.6959 140.685 90.8675 141.378 90.9164 141.362C90.9324 141.358 90.9064 141.181 90.8216 140.872C90.7378 140.561 90.5841 140.12 90.3336 139.6C89.8426 138.572 88.8705 137.197 87.2957 136.334C85.7138 135.476 83.9923 135.47 82.8875 135.789C82.3276 135.944 81.9015 136.151 81.631 136.326C81.3576 136.5 81.2248 136.619 81.2338 136.631Z" fill="#455A64"/>
<path d="M60.2597 213.115C60.4034 213.122 59.9962 224.221 59.3515 237.903C58.7068 251.589 58.0681 262.675 57.9244 262.668C57.7807 262.661 58.1878 251.564 58.8325 237.878C59.4782 224.197 60.117 213.108 60.2597 213.115Z" fill="#263238"/>
<path d="M37.862 245.783C38.5177 240.861 39.0626 236.508 39.0626 236.508L55.1583 240.244L54.4707 242.837L66.9128 230.198L68.8828 230.368L75.1453 236.882C75.1453 236.882 69.6862 248.414 66.5106 252.904C62.3798 258.744 55.8829 267.649 46.9897 266.902C38.7682 266.211 36.6853 254.616 37.862 245.783Z" fill="#EBB373"/>
<path d="M46.5787 248.721C46.4819 248.626 47.95 247.026 50.1166 245.472C52.2783 243.91 54.2613 243.026 54.3202 243.148C54.3911 243.282 52.5458 244.356 50.42 245.893C48.2883 247.421 46.6825 248.829 46.5787 248.721Z" fill="#CD9A60"/>
<path d="M88.6359 213.704L83.106 210.88L75.9333 213.16L72.3765 216.437L66.9114 230.199L62.5332 235.739L70.2587 245.804L75.1449 236.883C75.1449 236.883 79.2926 235.07 80.9513 232.454C82.61 229.837 83.3585 228.413 83.3585 228.413C83.3585 228.413 85.7547 227.263 86.1978 226.159C86.6409 225.055 86.6209 224.196 86.6209 224.196L85.4084 222.427C85.4084 222.427 85.5271 220.783 85.0441 220.169C84.5611 219.555 84.089 219.41 84.089 219.41C84.089 219.41 84.4453 217.917 83.8864 217.383C83.3265 216.849 80.575 215.866 80.575 215.866L82.9872 214.496C82.9872 214.496 88.3385 216.153 88.6359 213.704Z" fill="#EBB373"/>
<path d="M80.4287 218.701C80.4297 218.771 81.277 218.792 82.289 219.009C83.303 219.219 84.0864 219.542 84.1153 219.479C84.1443 219.426 83.3828 218.995 82.3369 218.778C81.294 218.554 80.4237 218.64 80.4287 218.701Z" fill="#CD9A60"/>
<path d="M82.0821 221.79C82.0861 221.859 82.8086 221.858 83.6809 221.993C84.5551 222.122 85.2447 222.338 85.2687 222.273C85.2926 222.217 84.62 221.894 83.7168 221.759C82.8146 221.62 82.0751 221.729 82.0821 221.79Z" fill="#CD9A60"/>
<path d="M84.4276 226.627C84.4924 226.626 84.5393 226.309 84.5314 225.922C84.5234 225.534 84.4645 225.221 84.3986 225.223C84.3338 225.224 84.2868 225.54 84.2948 225.927C84.3028 226.314 84.3617 226.628 84.4276 226.627Z" fill="#CD9A60"/>
<path d="M83.3648 228.117C83.4327 228.118 83.3888 227.446 83.8758 226.843C84.3439 226.225 85.0066 226.104 84.9896 226.039C84.9866 226.012 84.8149 225.994 84.5515 226.077C84.29 226.158 83.9507 226.364 83.6892 226.697C83.4287 227.031 83.311 227.409 83.296 227.683C83.279 227.958 83.3379 228.121 83.3648 228.117Z" fill="#CD9A60"/>
<path d="M79.0428 223.706C79.1046 223.735 79.3392 223.121 80.0068 222.761C80.6645 222.381 81.3092 222.503 81.3172 222.435C81.3242 222.408 81.1735 222.331 80.904 222.313C80.6366 222.292 80.2543 222.352 79.8911 222.554C79.5288 222.757 79.2763 223.051 79.1545 223.29C79.0298 223.529 79.0158 223.698 79.0428 223.706Z" fill="#CD9A60"/>
<path d="M76.5235 220.65C76.5874 220.677 76.804 220.105 77.4077 219.73C78.0016 219.339 78.6113 219.383 78.6143 219.315C78.6183 219.287 78.4696 219.23 78.2161 219.235C77.9636 219.238 77.6103 219.322 77.281 219.531C76.9527 219.742 76.7271 220.027 76.6193 220.255C76.5075 220.483 76.4956 220.642 76.5235 220.65Z" fill="#CD9A60"/>
<path d="M74.8346 219.147C74.8705 219.141 74.8535 218.956 74.8925 218.673C74.9294 218.391 75.0412 218.004 75.2956 217.66C75.5521 217.316 75.8905 217.098 76.1489 216.981C76.4094 216.862 76.5911 216.825 76.5861 216.789C76.5841 216.76 76.3895 216.737 76.0901 216.825C75.7936 216.909 75.3954 217.129 75.105 217.519C74.8156 217.909 74.7198 218.355 74.7248 218.662C74.7288 218.973 74.8066 219.153 74.8346 219.147Z" fill="#CD9A60"/>
<path d="M77.1797 215.552C77.1747 215.636 78.3394 215.654 79.7326 215.866C81.1298 216.083 82.1827 216.572 82.2126 216.504C82.2446 216.457 81.2076 215.858 79.7705 215.634C79.0579 215.516 78.4062 215.497 77.9382 215.497C77.4701 215.498 77.1807 215.52 77.1797 215.552Z" fill="#CD9A60"/>
<rect x="162.002" y="157" width="74.85" height="13.972" fill="#D3FF3C"/>
<path d="M171.425 167.433H170.152L167.268 163.076V167.433H165.995V161.075H167.268L170.152 165.441V161.075H171.425V167.433Z" fill="#4842FB"/>
<path d="M173.938 161.084V165.013C173.938 165.444 174.051 165.774 174.275 166.005C174.499 166.229 174.815 166.341 175.221 166.341C175.633 166.341 175.951 166.229 176.176 166.005C176.4 165.774 176.512 165.444 176.512 165.013V161.084H177.795V165.004C177.795 165.544 177.677 166.002 177.44 166.378C177.21 166.747 176.897 167.026 176.503 167.214C176.115 167.402 175.682 167.496 175.203 167.496C174.73 167.496 174.299 167.402 173.911 167.214C173.529 167.026 173.226 166.747 173.002 166.378C172.777 166.002 172.665 165.544 172.665 165.004V161.084H173.938Z" fill="#4842FB"/>
<path d="M180.298 162.112V163.704H182.436V164.713H180.298V166.396H182.709V167.433H179.025V161.075H182.709V162.112H180.298Z" fill="#4842FB"/>
<path d="M189.568 161.084L187.24 167.433H185.694L183.365 161.084H184.73L186.476 166.132L188.213 161.084H189.568Z" fill="#4842FB"/>
<path d="M194.225 166.223H191.696L191.278 167.433H189.941L192.224 161.075H193.706L195.989 167.433H194.643L194.225 166.223ZM193.879 165.204L192.96 162.548L192.042 165.204H193.879Z" fill="#4842FB"/>
<path d="M201.956 167.496C201.362 167.496 200.816 167.357 200.319 167.078C199.822 166.799 199.428 166.414 199.137 165.923C198.846 165.426 198.7 164.865 198.7 164.24C198.7 163.622 198.846 163.067 199.137 162.576C199.428 162.079 199.822 161.69 200.319 161.412C200.816 161.133 201.362 160.993 201.956 160.993C202.557 160.993 203.102 161.133 203.594 161.412C204.091 161.69 204.482 162.079 204.767 162.576C205.058 163.067 205.203 163.622 205.203 164.24C205.203 164.865 205.058 165.426 204.767 165.923C204.482 166.414 204.091 166.799 203.594 167.078C203.096 167.357 202.551 167.496 201.956 167.496ZM201.956 166.359C202.338 166.359 202.675 166.274 202.966 166.105C203.257 165.929 203.484 165.68 203.648 165.359C203.812 165.037 203.894 164.665 203.894 164.24C203.894 163.816 203.812 163.446 203.648 163.131C203.484 162.809 203.257 162.564 202.966 162.394C202.675 162.224 202.338 162.139 201.956 162.139C201.574 162.139 201.235 162.224 200.938 162.394C200.647 162.564 200.419 162.809 200.256 163.131C200.092 163.446 200.01 163.816 200.01 164.24C200.01 164.665 200.092 165.037 200.256 165.359C200.419 165.68 200.647 165.929 200.938 166.105C201.235 166.274 201.574 166.359 201.956 166.359Z" fill="#4842FB"/>
<path d="M210.071 161.084V162.112H207.424V163.74H209.452V164.749H207.424V167.433H206.151V161.084H210.071Z" fill="#4842FB"/>
<path d="M212.247 162.112V163.704H214.384V164.713H212.247V166.396H214.657V167.433H210.974V161.075H214.657V162.112H212.247Z" fill="#4842FB"/>
<path d="M219.089 167.433L217.688 164.959H217.088V167.433H215.814V161.084H218.197C218.688 161.084 219.107 161.172 219.452 161.348C219.798 161.518 220.056 161.751 220.225 162.048C220.401 162.339 220.489 162.667 220.489 163.03C220.489 163.449 220.368 163.828 220.125 164.167C219.883 164.501 219.522 164.731 219.043 164.859L220.562 167.433H219.089ZM217.088 164.004H218.152C218.497 164.004 218.755 163.922 218.925 163.758C219.095 163.588 219.18 163.355 219.18 163.058C219.18 162.767 219.095 162.542 218.925 162.385C218.755 162.221 218.497 162.139 218.152 162.139H217.088V164.004Z" fill="#4842FB"/>
<path d="M225.961 161.084V162.112H224.269V167.433H222.996V162.112H221.304V161.084H225.961Z" fill="#4842FB"/>
<path d="M230.783 166.223H228.254L227.836 167.433H226.499L228.782 161.075H230.264L232.547 167.433H231.201L230.783 166.223ZM230.437 165.204L229.519 162.548L228.6 165.204H230.437Z" fill="#4842FB"/>
</g>
<defs>
<clipPath id="clip0_574_1867">
<rect width="499" height="499" fill="white"/>
</clipPath>
</defs>
</svg>
