<svg width="322" height="304" viewBox="0 0 322 304" fill="none" xmlns="http://www.w3.org/2000/svg">
<path fill-rule="evenodd" clip-rule="evenodd" d="M429.122 303.12C423.46 305.313 417.092 302.501 414.899 296.839L367.456 174.367L311.577 246.056C308.914 249.472 304.494 251.007 300.287 249.975C296.08 248.943 292.871 245.537 292.091 241.276L274.491 145.129L185.907 213.737C182.182 216.622 177.032 216.813 173.104 214.212C169.176 211.61 167.342 206.795 168.544 202.239L200.338 81.776L111.951 130.04C107.791 132.311 102.643 131.661 99.1785 128.426C95.7139 125.191 94.7127 120.1 96.6944 115.794L144.957 10.9212L40.6593 -5.95026C35.9474 -6.71247 32.2656 -10.4277 31.5461 -15.1462C30.8266 -19.8647 33.2336 -24.5085 37.5041 -26.6405L118.622 -67.1376L6.56961 -116.411C2.38086 -118.253 -0.229129 -122.497 0.0166602 -127.066C0.262449 -131.635 3.31265 -135.575 7.67483 -136.957L146.647 -180.984C152.436 -182.818 158.615 -179.612 160.449 -173.823C162.283 -168.034 159.077 -161.855 153.288 -160.021L42.1155 -124.801L148.927 -77.833C152.829 -76.1167 155.388 -72.2988 155.492 -68.0365C155.596 -63.7742 153.226 -59.8361 149.412 -57.9317L77.8552 -22.2082L162.747 -8.47583C166.139 -7.92718 169.079 -5.82458 170.694 -2.79242C172.31 0.23975 172.415 3.85285 170.979 6.97393L130.547 94.8318L212.217 50.2354C216.072 48.1306 220.809 48.5217 224.267 51.23C227.724 53.9383 229.238 58.4444 228.117 62.6908L198.08 176.496L275.319 116.675C278.354 114.325 282.395 113.728 285.98 115.099C289.565 116.471 292.175 119.612 292.866 123.388L309.306 213.201L362.033 145.556C364.466 142.434 368.39 140.861 372.306 141.438C376.223 142.015 379.526 144.653 380.956 148.344L435.403 288.896C437.596 294.558 434.785 300.926 429.122 303.12Z" fill="#BEBCF5" fill-opacity="0.08"/>
</svg>
