<svg width="100" height="100" viewBox="0 0 100 100" fill="none" xmlns="http://www.w3.org/2000/svg">
<path d="M50.5 16C39.7592 16 31 24.7592 31 35.5C31 46.2408 39.7592 55 50.5 55C61.2408 55 70 46.2408 70 35.5C69.9925 24.7592 61.2333 16 50.5 16ZM50.5 52.7483C40.9977 52.7483 33.2517 45.0023 33.2517 35.5C33.2517 25.9977 40.9977 18.2517 50.5 18.2517C60.0023 18.2517 67.7483 25.9977 67.7483 35.5C67.7483 45.0023 59.9948 52.7483 50.5 52.7483Z" fill="#242424"/>
<path d="M44.9157 48.6801C39.7893 46.496 36.1865 41.407 36.1865 35.5C36.1865 33.9988 36.4192 32.5502 36.8545 31.1842L44.9157 48.6801Z" fill="#242424"/>
<path d="M54.4705 49.2506C53.2096 49.6184 51.8736 49.8135 50.4925 49.8135C49.1114 49.8135 47.7829 49.6184 46.5219 49.2506L50.4925 39.9809L54.4705 49.2506Z" fill="#242424"/>
<path d="M64.1455 31.1917C64.5808 32.5502 64.8135 33.9988 64.8135 35.5C64.8135 41.407 61.2032 46.496 56.0843 48.6726L64.1455 31.1917Z" fill="#242424"/>
<path d="M57.713 23.1455C59.4619 24.1738 60.9706 25.5548 62.149 27.1986L55.0185 42.3528L52.6166 36.5658H48.3834L45.9815 42.3528L38.851 27.1986C40.0294 25.5548 41.5381 24.1663 43.287 23.1455L48.2858 34.817H52.7142L57.713 23.1455Z" fill="#242424"/>
<path d="M50.5 21.1865C51.8961 21.1865 53.2546 21.3891 54.5306 21.7644L50.5 31.4694L46.4694 21.7644C47.7454 21.3891 49.0964 21.1865 50.5 21.1865Z" fill="#242424"/>
<path d="M16.52 70.77L12.866 80.5H11.018L7.34998 70.77H9.05798L11.942 78.862L14.84 70.77H16.52ZM21.2007 80.626C20.4727 80.626 19.8147 80.4627 19.2267 80.136C18.6387 79.8 18.1767 79.3333 17.8407 78.736C17.5047 78.1293 17.3367 77.4293 17.3367 76.636C17.3367 75.852 17.5094 75.1567 17.8547 74.55C18.2 73.9433 18.6714 73.4767 19.2687 73.15C19.866 72.8233 20.5334 72.66 21.2707 72.66C22.008 72.66 22.6754 72.8233 23.2727 73.15C23.87 73.4767 24.3414 73.9433 24.6867 74.55C25.032 75.1567 25.2047 75.852 25.2047 76.636C25.2047 77.42 25.0274 78.1153 24.6727 78.722C24.318 79.3287 23.8327 79.8 23.2167 80.136C22.61 80.4627 21.938 80.626 21.2007 80.626ZM21.2007 79.24C21.6114 79.24 21.994 79.142 22.3487 78.946C22.7127 78.75 23.0067 78.456 23.2307 78.064C23.4547 77.672 23.5667 77.196 23.5667 76.636C23.5667 76.076 23.4594 75.6047 23.2447 75.222C23.03 74.83 22.7454 74.536 22.3907 74.34C22.036 74.144 21.6534 74.046 21.2427 74.046C20.832 74.046 20.4494 74.144 20.0947 74.34C19.7494 74.536 19.474 74.83 19.2687 75.222C19.0634 75.6047 18.9607 76.076 18.9607 76.636C18.9607 77.4667 19.1707 78.1107 19.5907 78.568C20.02 79.016 20.5567 79.24 21.2007 79.24ZM28.3784 70.14V80.5H26.7824V70.14H28.3784ZM33.5258 76.65L37.0818 80.5H34.9258L32.0698 77.182V80.5H30.4738V70.14H32.0698V76.16L34.8698 72.786H37.0818L33.5258 76.65ZM41.0258 80.626C40.4191 80.626 39.8731 80.5187 39.3878 80.304C38.9118 80.08 38.5338 79.7813 38.2538 79.408C37.9738 79.0253 37.8244 78.6007 37.8058 78.134H39.4578C39.4858 78.4607 39.6398 78.736 39.9198 78.96C40.2091 79.1747 40.5684 79.282 40.9978 79.282C41.4458 79.282 41.7911 79.198 42.0338 79.03C42.2858 78.8527 42.4118 78.6287 42.4118 78.358C42.4118 78.0687 42.2718 77.854 41.9918 77.714C41.7211 77.574 41.2871 77.42 40.6898 77.252C40.1111 77.0933 39.6398 76.9393 39.2758 76.79C38.9118 76.6407 38.5944 76.412 38.3238 76.104C38.0624 75.796 37.9318 75.39 37.9318 74.886C37.9318 74.4753 38.0531 74.102 38.2958 73.766C38.5384 73.4207 38.8838 73.15 39.3318 72.954C39.7891 72.758 40.3118 72.66 40.8998 72.66C41.7771 72.66 42.4818 72.884 43.0138 73.332C43.5551 73.7707 43.8444 74.3727 43.8818 75.138H42.2858C42.2578 74.7927 42.1178 74.5173 41.8658 74.312C41.6138 74.1067 41.2731 74.004 40.8438 74.004C40.4238 74.004 40.1018 74.0833 39.8778 74.242C39.6538 74.4007 39.5418 74.6107 39.5418 74.872C39.5418 75.0773 39.6164 75.25 39.7658 75.39C39.9151 75.53 40.0971 75.642 40.3118 75.726C40.5264 75.8007 40.8438 75.8987 41.2638 76.02C41.8238 76.1693 42.2811 76.3233 42.6358 76.482C42.9998 76.6313 43.3124 76.8553 43.5738 77.154C43.8351 77.4527 43.9704 77.8493 43.9798 78.344C43.9798 78.7827 43.8584 79.1747 43.6158 79.52C43.3731 79.8653 43.0278 80.136 42.5798 80.332C42.1411 80.528 41.6231 80.626 41.0258 80.626ZM56.0643 72.786L53.6703 80.5H51.9903L50.4363 74.802L48.8823 80.5H47.2023L44.7943 72.786H46.4183L48.0283 78.988L49.6663 72.786H51.3323L52.9003 78.96L54.4963 72.786H56.0643ZM56.725 76.608C56.725 75.8333 56.8837 75.1473 57.201 74.55C57.5277 73.9527 57.9664 73.4907 58.517 73.164C59.077 72.828 59.693 72.66 60.365 72.66C60.9717 72.66 61.499 72.7813 61.947 73.024C62.4044 73.2573 62.7684 73.5513 63.039 73.906V72.786H64.649V80.5H63.039V79.352C62.7684 79.716 62.3997 80.0193 61.933 80.262C61.4664 80.5047 60.9344 80.626 60.337 80.626C59.6744 80.626 59.0677 80.458 58.517 80.122C57.9664 79.7767 57.5277 79.3007 57.201 78.694C56.8837 78.078 56.725 77.3827 56.725 76.608ZM63.039 76.636C63.039 76.104 62.927 75.642 62.703 75.25C62.4884 74.858 62.2037 74.5593 61.849 74.354C61.4944 74.1487 61.1117 74.046 60.701 74.046C60.2904 74.046 59.9077 74.1487 59.553 74.354C59.1984 74.55 58.909 74.844 58.685 75.236C58.4704 75.6187 58.363 76.076 58.363 76.608C58.363 77.14 58.4704 77.6067 58.685 78.008C58.909 78.4093 59.1984 78.7173 59.553 78.932C59.917 79.1373 60.2997 79.24 60.701 79.24C61.1117 79.24 61.4944 79.1373 61.849 78.932C62.2037 78.7267 62.4884 78.428 62.703 78.036C62.927 77.6347 63.039 77.168 63.039 76.636ZM69.8533 72.66C70.4506 72.66 70.978 72.7813 71.4353 73.024C71.902 73.2573 72.266 73.5513 72.5273 73.906V72.786H74.1373V80.626C74.1373 81.3353 73.988 81.9653 73.6893 82.516C73.3906 83.076 72.9566 83.5147 72.3873 83.832C71.8273 84.1493 71.1553 84.308 70.3713 84.308C69.326 84.308 68.458 84.0607 67.7673 83.566C67.0766 83.0807 66.6846 82.418 66.5913 81.578H68.1733C68.2946 81.9793 68.5513 82.3013 68.9433 82.544C69.3446 82.796 69.8206 82.922 70.3713 82.922C71.0153 82.922 71.5333 82.726 71.9253 82.334C72.3266 81.942 72.5273 81.3727 72.5273 80.626V79.338C72.2566 79.702 71.888 80.01 71.4213 80.262C70.964 80.5047 70.4413 80.626 69.8533 80.626C69.1813 80.626 68.5653 80.458 68.0053 80.122C67.4546 79.7767 67.016 79.3007 66.6893 78.694C66.372 78.078 66.2133 77.3827 66.2133 76.608C66.2133 75.8333 66.372 75.1473 66.6893 74.55C67.016 73.9527 67.4546 73.4907 68.0053 73.164C68.5653 72.828 69.1813 72.66 69.8533 72.66ZM72.5273 76.636C72.5273 76.104 72.4153 75.642 72.1913 75.25C71.9766 74.858 71.692 74.5593 71.3373 74.354C70.9826 74.1487 70.6 74.046 70.1893 74.046C69.7786 74.046 69.396 74.1487 69.0413 74.354C68.6866 74.55 68.3973 74.844 68.1733 75.236C67.9586 75.6187 67.8513 76.076 67.8513 76.608C67.8513 77.14 67.9586 77.6067 68.1733 78.008C68.3973 78.4093 68.6866 78.7173 69.0413 78.932C69.4053 79.1373 69.788 79.24 70.1893 79.24C70.6 79.24 70.9826 79.1373 71.3373 78.932C71.692 78.7267 71.9766 78.428 72.1913 78.036C72.4153 77.6347 72.5273 77.168 72.5273 76.636ZM83.3036 76.454C83.3036 76.7433 83.2849 77.0047 83.2476 77.238H77.3536C77.4003 77.854 77.6289 78.3487 78.0396 78.722C78.4503 79.0953 78.9543 79.282 79.5516 79.282C80.4103 79.282 81.0169 78.9227 81.3716 78.204H83.0936C82.8603 78.9133 82.4356 79.4967 81.8196 79.954C81.2129 80.402 80.4569 80.626 79.5516 80.626C78.8143 80.626 78.1516 80.4627 77.5636 80.136C76.9849 79.8 76.5276 79.3333 76.1916 78.736C75.8649 78.1293 75.7016 77.4293 75.7016 76.636C75.7016 75.8427 75.8603 75.1473 76.1776 74.55C76.5043 73.9433 76.9569 73.4767 77.5356 73.15C78.1236 72.8233 78.7956 72.66 79.5516 72.66C80.2796 72.66 80.9283 72.8187 81.4976 73.136C82.0669 73.4533 82.5103 73.9013 82.8276 74.48C83.1449 75.0493 83.3036 75.7073 83.3036 76.454ZM81.6376 75.95C81.6283 75.362 81.4183 74.8907 81.0076 74.536C80.5969 74.1813 80.0883 74.004 79.4816 74.004C78.9309 74.004 78.4596 74.1813 78.0676 74.536C77.6756 74.8813 77.4423 75.3527 77.3676 75.95H81.6376ZM88.7662 72.66C89.3729 72.66 89.9142 72.786 90.3902 73.038C90.8756 73.29 91.2536 73.6633 91.5242 74.158C91.7949 74.6527 91.9302 75.25 91.9302 75.95V80.5H90.3482V76.188C90.3482 75.4973 90.1756 74.97 89.8302 74.606C89.4849 74.2327 89.0136 74.046 88.4162 74.046C87.8189 74.046 87.3429 74.2327 86.9882 74.606C86.6429 74.97 86.4702 75.4973 86.4702 76.188V80.5H84.8742V72.786H86.4702V73.668C86.7316 73.3507 87.0629 73.1033 87.4642 72.926C87.8749 72.7487 88.3089 72.66 88.7662 72.66Z" fill="#242424"/>
</svg>
