<svg width="100" height="100" viewBox="0 0 100 100" fill="none" xmlns="http://www.w3.org/2000/svg">
<path fill-rule="evenodd" clip-rule="evenodd" d="M27.2279 24C20.5223 24 14.8884 29.2913 15.0017 35.6892C15.1129 41.968 20.5568 47 27.2287 47C30.0935 47 32.7321 46.0723 34.8191 44.516C36.9063 46.0721 39.5449 47 42.4098 47C45.2746 47 47.9132 46.0723 50.0003 44.516C52.0873 46.0721 54.7259 47 57.5909 47C60.4559 47 63.0944 46.0723 65.1813 44.516C67.2686 46.0721 69.9072 47 72.7722 47C79.4432 47 84.8872 41.9689 84.9983 35.6892C85.1116 29.2908 79.4775 24 72.7717 24C69.9306 24 67.282 24.9497 65.1813 26.5308C63.0802 24.9497 60.4314 24 57.5902 24C54.7491 24 52.1007 24.9497 49.9998 26.5308C47.8992 24.9497 45.2505 24 42.4094 24C39.5683 24 36.9196 24.9497 34.8189 26.531C32.718 24.9497 30.0691 24 27.2279 24ZM42.4098 44.3901C40.3105 44.3901 38.3697 43.7468 36.7995 42.6576C38.4218 40.7413 39.4084 38.3252 39.455 35.6892C39.5035 32.942 38.4927 30.399 36.7925 28.3913C38.3756 27.2754 40.3269 26.6099 42.4094 26.6099C44.4921 26.6099 46.4432 27.2754 48.0263 28.3911C46.3259 30.399 45.3148 32.9424 45.3632 35.6894C45.4102 38.3252 46.397 40.7415 48.0197 42.6578C46.4495 43.747 44.509 44.3901 42.4098 44.3901ZM36.6858 35.6457C36.7213 33.6395 36.0168 31.7675 34.8189 30.2535C33.621 31.7675 32.9165 33.6395 32.952 35.6457C32.9863 37.579 33.6754 39.3607 34.8191 40.8042C35.9625 39.3607 36.6515 37.5792 36.6858 35.6457ZM30.1828 35.6892C30.1342 32.942 31.145 30.399 32.8453 28.3913C31.2621 27.2754 29.3107 26.6099 27.2279 26.6099C22.0501 26.6099 17.6837 30.7248 17.7709 35.6457C17.8568 40.4954 22.0632 44.3901 27.2287 44.3901C29.3278 44.3901 31.2685 43.747 32.8387 42.6576C31.216 40.7413 30.2295 38.3252 30.1828 35.6892ZM54.636 35.6892C54.6848 32.942 53.6739 30.399 51.9736 28.3911C53.5565 27.2754 55.5077 26.6099 57.5902 26.6099C59.673 26.6099 61.6244 27.2754 63.2077 28.3913C61.5074 30.399 60.4965 32.942 60.5451 35.6892C60.5917 38.3252 61.5783 40.7413 63.201 42.6576C61.6308 43.747 59.69 44.3901 57.5909 44.3901C55.4918 44.3901 53.551 43.7468 51.9806 42.6576C53.6031 40.7413 54.5894 38.3252 54.636 35.6892ZM63.3143 35.6457C63.2788 33.6395 63.9834 31.7673 65.1813 30.2533C66.3794 31.7673 67.0838 33.6395 67.0481 35.6457C67.0138 37.5792 66.3247 39.3607 65.1813 40.8042C64.0377 39.3607 63.3486 37.579 63.3143 35.6457ZM72.7722 44.3901C70.6728 44.3901 68.7321 43.7468 67.1616 42.6576C68.7841 40.7415 69.7705 38.3254 69.8173 35.6894C69.8663 32.9418 68.8554 30.3988 67.1551 28.3911C68.738 27.2754 70.6892 26.6099 72.7717 26.6099C77.95 26.6099 82.3164 30.7244 82.2292 35.6457C82.1432 40.4962 77.9368 44.3901 72.7722 44.3901ZM51.8668 35.707C51.9023 33.7008 51.1979 31.8288 49.9998 30.3148C48.8019 31.8288 48.0976 33.7008 48.133 35.707C48.1673 37.6403 48.8564 39.4219 50 40.8655C51.1434 39.4219 51.8325 37.6405 51.8668 35.707Z" fill="#242424"/>
<path d="M40.8994 78.512H36.8254L36.1254 80.5H34.4594L37.9454 70.756H39.7934L43.2794 80.5H41.5994L40.8994 78.512ZM40.4514 77.21L38.8694 72.688L37.2734 77.21H40.4514ZM51.7811 72.786V80.5H50.1851V79.59C49.9331 79.9073 49.6018 80.1593 49.1911 80.346C48.7898 80.5233 48.3605 80.612 47.9031 80.612C47.2965 80.612 46.7505 80.486 46.2651 80.234C45.7891 79.982 45.4111 79.6087 45.1311 79.114C44.8605 78.6193 44.7251 78.022 44.7251 77.322V72.786H46.3071V77.084C46.3071 77.7747 46.4798 78.3067 46.8251 78.68C47.1705 79.044 47.6418 79.226 48.2391 79.226C48.8365 79.226 49.3078 79.044 49.6531 78.68C50.0078 78.3067 50.1851 77.7747 50.1851 77.084V72.786H51.7811ZM53.3549 76.608C53.3549 75.8333 53.5136 75.1473 53.8309 74.55C54.1576 73.9527 54.5962 73.4907 55.1469 73.164C55.7069 72.828 56.3276 72.66 57.0089 72.66C57.5129 72.66 58.0076 72.772 58.4929 72.996C58.9876 73.2107 59.3796 73.5 59.6689 73.864V70.14H61.2789V80.5H59.6689V79.338C59.4076 79.7113 59.0436 80.0193 58.5769 80.262C58.1196 80.5047 57.5922 80.626 56.9949 80.626C56.3229 80.626 55.7069 80.458 55.1469 80.122C54.5962 79.7767 54.1576 79.3007 53.8309 78.694C53.5136 78.078 53.3549 77.3827 53.3549 76.608ZM59.6689 76.636C59.6689 76.104 59.5569 75.642 59.3329 75.25C59.1182 74.858 58.8336 74.5593 58.4789 74.354C58.1242 74.1487 57.7416 74.046 57.3309 74.046C56.9202 74.046 56.5376 74.1487 56.1829 74.354C55.8282 74.55 55.5389 74.844 55.3149 75.236C55.1002 75.6187 54.9929 76.076 54.9929 76.608C54.9929 77.14 55.1002 77.6067 55.3149 78.008C55.5389 78.4093 55.8282 78.7173 56.1829 78.932C56.5469 79.1373 56.9296 79.24 57.3309 79.24C57.7416 79.24 58.1242 79.1373 58.4789 78.932C58.8336 78.7267 59.1182 78.428 59.3329 78.036C59.5569 77.6347 59.6689 77.168 59.6689 76.636ZM64.1872 71.764C63.8979 71.764 63.6552 71.666 63.4592 71.47C63.2632 71.274 63.1652 71.0313 63.1652 70.742C63.1652 70.4527 63.2632 70.21 63.4592 70.014C63.6552 69.818 63.8979 69.72 64.1872 69.72C64.4672 69.72 64.7052 69.818 64.9012 70.014C65.0972 70.21 65.1952 70.4527 65.1952 70.742C65.1952 71.0313 65.0972 71.274 64.9012 71.47C64.7052 71.666 64.4672 71.764 64.1872 71.764ZM64.9712 72.786V80.5H63.3752V72.786H64.9712Z" fill="#242424"/>
</svg>
