<svg width="100" height="100" viewBox="0 0 100 100" fill="none" xmlns="http://www.w3.org/2000/svg">
<path d="M49.5202 53.5876C39.5427 53.5876 31.4528 45.4978 31.4528 35.5202C31.4528 25.5427 39.5427 17.4528 49.5202 17.4528C59.4978 17.4528 67.5876 25.5427 67.5876 35.5202C67.5876 45.4978 59.4978 53.5876 49.5202 53.5876ZM49.5202 16.5C39.0124 16.5 30.5 25.0124 30.5 35.5202C30.5 46.0281 39.0124 54.5405 49.5202 54.5405C60.0281 54.5405 68.5405 46.0281 68.5405 35.5202C68.5405 25.0124 60.0191 16.5 49.5202 16.5ZM49.5202 53.7405C51.9831 53.7405 54.3652 53.2551 56.6124 52.3112C58.7787 51.3944 60.7292 50.082 62.4011 48.4101C64.073 46.7382 65.3854 44.7876 66.3022 42.6213C67.2551 40.3742 67.7315 37.9921 67.7315 35.5292C67.7315 33.0663 67.2461 30.6843 66.3022 28.4371C65.3854 26.2708 64.073 24.3202 62.4011 22.6483C60.7292 20.9764 58.7787 19.664 56.6124 18.7472C54.3652 17.7944 51.9831 17.318 49.5202 17.318C47.0573 17.318 44.6753 17.8034 42.4281 18.7472C40.2618 19.664 38.3112 20.9764 36.6393 22.6483C34.9674 24.3202 33.6551 26.2708 32.7382 28.4371C31.7854 30.6843 31.309 33.0663 31.309 35.5292C31.309 37.9921 31.7944 40.3742 32.7382 42.6213C33.6551 44.7876 34.9674 46.7382 36.6393 48.4101C38.3112 50.082 40.2618 51.3944 42.4281 52.3112C44.6753 53.2551 47.0573 53.7405 49.5202 53.7405ZM49.5202 16.6528C52.064 16.6528 54.536 17.1472 56.864 18.136C59.1112 19.0888 61.1337 20.4461 62.8596 22.1809C64.5944 23.9157 65.9517 25.9292 66.9045 28.1764C67.8843 30.5045 68.3876 32.9764 68.3876 35.5202C68.3876 38.064 67.8933 40.536 66.9045 42.864C65.9517 45.1112 64.5944 47.1247 62.8596 48.8596C61.1247 50.5944 59.1112 51.9517 56.864 52.9045C54.536 53.8843 52.064 54.3876 49.5202 54.3876C46.9764 54.3876 44.5045 53.8933 42.1764 52.9045C39.9292 51.9517 37.9067 50.5944 36.1809 48.8596C34.4551 47.1247 33.0888 45.1112 32.136 42.864C31.1562 40.536 30.6528 38.064 30.6528 35.5202C30.6528 32.9764 31.1562 30.5045 32.136 28.1764C33.0888 25.9292 34.4461 23.9157 36.1809 22.1809C37.9157 20.4461 39.9292 19.0888 42.1764 18.136C44.4955 17.1472 46.9674 16.6528 49.5202 16.6528Z" fill="#242424"/>
<path d="M38.3147 23.897C38.081 23.6993 37.7125 23.6903 37.5507 23.888L36.1484 25.5599L37.0114 26.288L38.3956 24.6341C38.5754 24.4184 38.5754 24.1128 38.3147 23.897ZM40.0136 25.8296C40.2114 25.5959 40.1754 25.2364 39.8968 25.0026C39.6451 24.7959 39.2765 24.8498 39.1147 25.0476L37.6406 26.8004L38.5574 27.5644L40.0136 25.8296Z" fill="#242424"/>
<path d="M49.5205 17.4512C39.543 17.4512 31.4531 25.5411 31.4531 35.5186C31.4531 45.4961 39.543 53.586 49.5205 53.586C59.4981 53.586 67.588 45.4961 67.588 35.5186C67.588 25.5411 59.4981 17.4512 49.5205 17.4512ZM46.752 18.1163H48.1902L49.4936 21.5231L50.788 18.1163H52.2262V22.8894H51.2733V19.5545L50.0149 22.8894H48.9722L47.7138 19.5545V22.8894H46.761L46.752 18.1163ZM34.7071 25.9725L37.0351 23.195C37.5205 22.6197 38.1947 22.1613 38.8329 22.7006C39.0307 22.8714 39.1116 22.9253 39.3542 23.3568C39.4082 23.5096 39.4531 23.7972 39.3453 24.0669C39.9026 23.7253 40.4958 23.8332 40.8823 24.2107C41.4756 24.786 41.3857 25.4512 40.8284 26.1163L38.3745 29.0467L34.7071 25.9725ZM49.5205 47.6354C42.8329 47.6354 37.4037 42.2152 37.4037 35.5186C37.4037 28.8309 42.8239 23.4017 49.5205 23.4017C56.2082 23.4017 61.6374 28.822 61.6374 35.5186C61.6284 42.2062 56.2082 47.6354 49.5205 47.6354ZM60.7205 28.8759L59.9026 27.8871L61.4666 25.5321L61.4576 25.5231L58.8509 26.6377L58.0239 25.6579L60.7475 22.0534L61.4396 22.8894L59.7318 25.1815L62.3835 24.004L63.1295 24.9029L61.4936 27.2849L64.0554 26.0265L64.7475 26.8624L60.7205 28.8759Z" fill="#242424"/>
<path d="M38.125 35.5196H49.5138V24.1309C43.2306 24.1309 38.125 29.2275 38.125 35.5196ZM49.5228 35.5196V46.9084C55.8149 46.9084 60.9115 41.8118 60.9115 35.5196H49.5228Z" fill="#242424"/>
<path d="M38.6828 75.502C39.2055 75.5953 39.6488 75.8707 40.0128 76.328C40.3768 76.7853 40.5588 77.3033 40.5588 77.882C40.5588 78.3767 40.4281 78.8247 40.1668 79.226C39.9148 79.618 39.5461 79.9307 39.0608 80.164C38.5755 80.388 38.0108 80.5 37.3668 80.5H33.4748V70.77H37.1848C37.8475 70.77 38.4168 70.882 38.8928 71.106C39.3688 71.33 39.7281 71.6333 39.9708 72.016C40.2135 72.3893 40.3348 72.8093 40.3348 73.276C40.3348 73.836 40.1855 74.3027 39.8868 74.676C39.5881 75.0493 39.1868 75.3247 38.6828 75.502ZM35.0708 74.858H37.0448C37.5675 74.858 37.9735 74.7413 38.2628 74.508C38.5615 74.2653 38.7108 73.92 38.7108 73.472C38.7108 73.0333 38.5615 72.6927 38.2628 72.45C37.9735 72.198 37.5675 72.072 37.0448 72.072H35.0708V74.858ZM37.2268 79.198C37.7681 79.198 38.1928 79.0673 38.5008 78.806C38.8088 78.5447 38.9628 78.1807 38.9628 77.714C38.9628 77.238 38.7995 76.86 38.4728 76.58C38.1461 76.3 37.7121 76.16 37.1708 76.16H35.0708V79.198H37.2268ZM52.5412 70.77V80.5H50.9452V73.836L47.9772 80.5H46.8712L43.8892 73.836V80.5H42.2932V70.77H44.0152L47.4312 78.4L50.8332 70.77H52.5412ZM67.3089 70.77L64.4249 80.5H62.6189L60.5749 73.136L58.4049 80.5L56.6129 80.514L53.8549 70.77H55.5489L57.5649 78.694L59.7489 70.77H61.5409L63.5709 78.652L65.6009 70.77H67.3089Z" fill="#242424"/>
</svg>
