<svg width="100" height="100" viewBox="0 0 100 100" fill="none" xmlns="http://www.w3.org/2000/svg">
<path fill-rule="evenodd" clip-rule="evenodd" d="M37.8911 28.7344V24.4893H62.9668V28.7344H78.7282L85.4121 42.5764H62.9672V47.036H37.8915V42.5764H22.3785L15.4121 28.7344H37.8911ZM25.2794 38.2972H41.5605V42.5764H59.0265V38.2972H78.7282L76.0975 32.7989H59.0265V28.7344H41.5605V32.7989H22.3782L25.2794 38.2972Z" fill="#242424"/>
<path d="M16.2836 75.614C16.2836 74.662 16.503 73.808 16.9416 73.052C17.3896 72.296 17.9916 71.708 18.7476 71.288C19.513 70.8587 20.3483 70.644 21.2536 70.644C22.2896 70.644 23.209 70.9007 24.0116 71.414C24.8236 71.918 25.4116 72.6367 25.7756 73.57H23.8576C23.6056 73.0567 23.2556 72.674 22.8076 72.422C22.3596 72.17 21.8416 72.044 21.2536 72.044C20.6096 72.044 20.0356 72.1887 19.5316 72.478C19.0276 72.7673 18.631 73.1827 18.3416 73.724C18.0616 74.2653 17.9216 74.8953 17.9216 75.614C17.9216 76.3327 18.0616 76.9627 18.3416 77.504C18.631 78.0453 19.0276 78.4653 19.5316 78.764C20.0356 79.0533 20.6096 79.198 21.2536 79.198C21.8416 79.198 22.3596 79.072 22.8076 78.82C23.2556 78.568 23.6056 78.1853 23.8576 77.672H25.7756C25.4116 78.6053 24.8236 79.324 24.0116 79.828C23.209 80.332 22.2896 80.584 21.2536 80.584C20.339 80.584 19.5036 80.374 18.7476 79.954C17.9916 79.5247 17.3896 78.932 16.9416 78.176C16.503 77.42 16.2836 76.566 16.2836 75.614ZM31.6338 72.66C32.2218 72.66 32.7444 72.786 33.2018 73.038C33.6684 73.29 34.0324 73.6633 34.2938 74.158C34.5644 74.6527 34.6998 75.25 34.6998 75.95V80.5H33.1178V76.188C33.1178 75.4973 32.9451 74.97 32.5998 74.606C32.2544 74.2327 31.7831 74.046 31.1858 74.046C30.5884 74.046 30.1124 74.2327 29.7578 74.606C29.4124 74.97 29.2398 75.4973 29.2398 76.188V80.5H27.6438V70.14H29.2398V73.682C29.5104 73.3553 29.8511 73.1033 30.2618 72.926C30.6818 72.7487 31.1391 72.66 31.6338 72.66ZM43.8055 76.454C43.8055 76.7433 43.7869 77.0047 43.7495 77.238H37.8555C37.9022 77.854 38.1309 78.3487 38.5415 78.722C38.9522 79.0953 39.4562 79.282 40.0535 79.282C40.9122 79.282 41.5189 78.9227 41.8735 78.204H43.5955C43.3622 78.9133 42.9375 79.4967 42.3215 79.954C41.7149 80.402 40.9589 80.626 40.0535 80.626C39.3162 80.626 38.6535 80.4627 38.0655 80.136C37.4869 79.8 37.0295 79.3333 36.6935 78.736C36.3669 78.1293 36.2035 77.4293 36.2035 76.636C36.2035 75.8427 36.3622 75.1473 36.6795 74.55C37.0062 73.9433 37.4589 73.4767 38.0375 73.15C38.6255 72.8233 39.2975 72.66 40.0535 72.66C40.7815 72.66 41.4302 72.8187 41.9995 73.136C42.5689 73.4533 43.0122 73.9013 43.3295 74.48C43.6469 75.0493 43.8055 75.7073 43.8055 76.454ZM42.1395 75.95C42.1302 75.362 41.9202 74.8907 41.5095 74.536C41.0989 74.1813 40.5902 74.004 39.9835 74.004C39.4329 74.004 38.9615 74.1813 38.5695 74.536C38.1775 74.8813 37.9442 75.3527 37.8695 75.95H42.1395ZM48.3582 79.072L50.5422 72.786H52.2362L49.2962 80.5H47.3922L44.4662 72.786H46.1742L48.3582 79.072ZM55.0386 73.906C55.2719 73.514 55.5799 73.2107 55.9626 72.996C56.3546 72.772 56.8166 72.66 57.3486 72.66V74.312H56.9426C56.3172 74.312 55.8412 74.4707 55.5146 74.788C55.1972 75.1053 55.0386 75.656 55.0386 76.44V80.5H53.4426V72.786H55.0386V73.906ZM62.1616 80.626C61.4336 80.626 60.7756 80.4627 60.1876 80.136C59.5996 79.8 59.1376 79.3333 58.8016 78.736C58.4656 78.1293 58.2976 77.4293 58.2976 76.636C58.2976 75.852 58.4703 75.1567 58.8156 74.55C59.161 73.9433 59.6323 73.4767 60.2296 73.15C60.827 72.8233 61.4943 72.66 62.2316 72.66C62.969 72.66 63.6363 72.8233 64.2336 73.15C64.831 73.4767 65.3023 73.9433 65.6476 74.55C65.993 75.1567 66.1656 75.852 66.1656 76.636C66.1656 77.42 65.9883 78.1153 65.6336 78.722C65.279 79.3287 64.7936 79.8 64.1776 80.136C63.571 80.4627 62.899 80.626 62.1616 80.626ZM62.1616 79.24C62.5723 79.24 62.955 79.142 63.3096 78.946C63.6736 78.75 63.9676 78.456 64.1916 78.064C64.4156 77.672 64.5276 77.196 64.5276 76.636C64.5276 76.076 64.4203 75.6047 64.2056 75.222C63.991 74.83 63.7063 74.536 63.3516 74.34C62.997 74.144 62.6143 74.046 62.2036 74.046C61.793 74.046 61.4103 74.144 61.0556 74.34C60.7103 74.536 60.435 74.83 60.2296 75.222C60.0243 75.6047 59.9216 76.076 59.9216 76.636C59.9216 77.4667 60.1316 78.1107 60.5516 78.568C60.981 79.016 61.5176 79.24 62.1616 79.24ZM69.3394 70.14V80.5H67.7434V70.14H69.3394ZM78.5048 76.454C78.5048 76.7433 78.4861 77.0047 78.4488 77.238H72.5548C72.6014 77.854 72.8301 78.3487 73.2408 78.722C73.6514 79.0953 74.1554 79.282 74.7528 79.282C75.6114 79.282 76.2181 78.9227 76.5728 78.204H78.2948C78.0614 78.9133 77.6368 79.4967 77.0208 79.954C76.4141 80.402 75.6581 80.626 74.7528 80.626C74.0154 80.626 73.3528 80.4627 72.7648 80.136C72.1861 79.8 71.7288 79.3333 71.3928 78.736C71.0661 78.1293 70.9028 77.4293 70.9028 76.636C70.9028 75.8427 71.0614 75.1473 71.3788 74.55C71.7054 73.9433 72.1581 73.4767 72.7368 73.15C73.3248 72.8233 73.9968 72.66 74.7528 72.66C75.4808 72.66 76.1294 72.8187 76.6988 73.136C77.2681 73.4533 77.7114 73.9013 78.0288 74.48C78.3461 75.0493 78.5048 75.7073 78.5048 76.454ZM76.8388 75.95C76.8294 75.362 76.6194 74.8907 76.2088 74.536C75.7981 74.1813 75.2894 74.004 74.6828 74.004C74.1321 74.004 73.6608 74.1813 73.2688 74.536C72.8768 74.8813 72.6434 75.3527 72.5688 75.95H76.8388ZM81.9374 74.088V78.358C81.9374 78.6473 82.0027 78.8573 82.1334 78.988C82.2734 79.1093 82.5067 79.17 82.8334 79.17H83.8134V80.5H82.5534C81.8347 80.5 81.2841 80.332 80.9014 79.996C80.5187 79.66 80.3274 79.114 80.3274 78.358V74.088H79.4174V72.786H80.3274V70.868H81.9374V72.786H83.8134V74.088H81.9374Z" fill="#242424"/>
</svg>
