<svg width="100" height="100" viewBox="0 0 100 100" fill="none" xmlns="http://www.w3.org/2000/svg">
<path d="M48.1001 20.5H56.5001C60.5001 28.6 60.6001 42.6 60.5001 50.1H56.6001C56.6001 49.3 56.6001 39.2 56.2001 36.7H52.0001V50.1H48.2001V20.5H48.1001ZM51.9001 23.8V33.2H56.0001C56.0001 33.2 55.8001 31.6 55.5001 29.6C55.2001 27.8 54.7001 25.4 53.9001 23.8H51.9001Z" fill="#242424"/>
<path d="M39.5 50.1H44.3V20.5H39.5V50.1Z" fill="#242424"/>
<path d="M29 20.5V50.1H32.9V36.7H35.8V33.3H32.9V23.9H36.6V20.5H29Z" fill="#242424"/>
<path d="M60.5 20.5V23.9H63.6V50.1H67.9V23.9H71V20.5H60.5Z" fill="#242424"/>
<path d="M43.9791 70.77V72.072H39.8491V74.942H43.0691V76.244H39.8491V80.5H38.2531V70.77H43.9791ZM46.2702 71.764C45.9809 71.764 45.7382 71.666 45.5422 71.47C45.3462 71.274 45.2482 71.0313 45.2482 70.742C45.2482 70.4527 45.3462 70.21 45.5422 70.014C45.7382 69.818 45.9809 69.72 46.2702 69.72C46.5502 69.72 46.7882 69.818 46.9842 70.014C47.1802 70.21 47.2782 70.4527 47.2782 70.742C47.2782 71.0313 47.1802 71.274 46.9842 71.47C46.7882 71.666 46.5502 71.764 46.2702 71.764ZM47.0542 72.786V80.5H45.4582V72.786H47.0542ZM48.6176 76.608C48.6176 75.8333 48.7763 75.1473 49.0936 74.55C49.4203 73.9527 49.8589 73.4907 50.4096 73.164C50.9696 72.828 51.5856 72.66 52.2576 72.66C52.8643 72.66 53.3916 72.7813 53.8396 73.024C54.2969 73.2573 54.6609 73.5513 54.9316 73.906V72.786H56.5416V80.5H54.9316V79.352C54.6609 79.716 54.2923 80.0193 53.8256 80.262C53.3589 80.5047 52.8269 80.626 52.2296 80.626C51.5669 80.626 50.9603 80.458 50.4096 80.122C49.8589 79.7767 49.4203 79.3007 49.0936 78.694C48.7763 78.078 48.6176 77.3827 48.6176 76.608ZM54.9316 76.636C54.9316 76.104 54.8196 75.642 54.5956 75.25C54.3809 74.858 54.0963 74.5593 53.7416 74.354C53.3869 74.1487 53.0043 74.046 52.5936 74.046C52.1829 74.046 51.8003 74.1487 51.4456 74.354C51.0909 74.55 50.8016 74.844 50.5776 75.236C50.3629 75.6187 50.2556 76.076 50.2556 76.608C50.2556 77.14 50.3629 77.6067 50.5776 78.008C50.8016 78.4093 51.0909 78.7173 51.4456 78.932C51.8096 79.1373 52.1923 79.24 52.5936 79.24C53.0043 79.24 53.3869 79.1373 53.7416 78.932C54.0963 78.7267 54.3809 78.428 54.5956 78.036C54.8196 77.6347 54.9316 77.168 54.9316 76.636ZM60.4999 74.088V78.358C60.4999 78.6473 60.5652 78.8573 60.6959 78.988C60.8359 79.1093 61.0692 79.17 61.3959 79.17H62.3759V80.5H61.1159C60.3972 80.5 59.8466 80.332 59.4639 79.996C59.0812 79.66 58.8899 79.114 58.8899 78.358V74.088H57.9799V72.786H58.8899V70.868H60.4999V72.786H62.3759V74.088H60.4999Z" fill="#242424"/>
</svg>
