<svg width="100" height="100" viewBox="0 0 100 100" fill="none" xmlns="http://www.w3.org/2000/svg">
<path d="M64.8828 38.88C64.8955 38.9435 64.9719 39.0007 65.0545 39.0325C65.0863 39.0452 65.0991 39.0642 65.0673 39.1278C64.8383 39.6169 64.6284 39.8965 64.3486 40.3158C64.0878 40.7096 63.7889 41.0146 63.4327 41.3068C62.8921 41.7515 62.1416 42.2407 61.5246 41.9103C61.2512 41.7706 61.1303 41.383 61.1367 41.0717C61.1494 40.195 61.5374 39.2993 62.2624 38.4162C63.1401 37.3363 64.1132 36.7772 64.7492 37.0822C65.4107 37.3934 65.2008 38.1558 64.9019 38.7593C64.8764 38.7974 64.8765 38.8419 64.8828 38.88ZM71.9553 32.0571C71.9998 31.9745 71.9553 31.9109 71.8472 31.9109C71.2939 31.9109 70.5752 31.9109 70.0027 31.9109C69.8692 31.9109 69.7929 31.93 69.7293 32.0571C69.5194 32.4636 66.9371 36.3262 66.4601 37.0758C66.3775 37.1902 66.282 37.1711 66.2693 37.044C66.2184 36.5993 65.8368 36.0848 65.2263 35.8433C64.762 35.6591 64.3104 35.621 63.8397 35.6845C62.9938 35.7989 62.237 36.2436 61.5692 36.7518C60.5706 37.5141 59.7056 38.4988 58.5862 39.2294C57.9757 39.6233 57.1425 39.9727 56.5828 39.4581C56.0803 38.988 56.1376 37.9525 56.9072 37.1457C56.9898 37.0631 57.0852 37.133 57.0725 37.2092C57.0026 37.5713 57.0916 37.9334 57.3651 38.1875C57.7022 38.4925 58.1856 38.5242 58.599 38.321C59.0887 38.0795 59.3749 37.6158 59.4576 37.0885C59.5848 36.269 58.9551 35.5448 58.1665 35.4876C57.5241 35.4431 56.9072 35.6655 56.3093 36.161C56.0104 36.4088 55.8387 36.593 55.5779 36.9614C55.5143 37.0504 55.4189 37.0631 55.4189 36.9297C55.4507 35.8815 55.0118 35.2906 54.1468 35.2716C53.4727 35.2525 52.754 35.621 52.1879 36.0657C51.571 36.5612 51.0367 37.2156 50.4579 37.8318C50.388 37.908 50.3244 37.9017 50.3053 37.7556C50.2862 37.0631 50.1145 36.3833 49.7901 35.9069C49.6756 35.7417 49.434 35.6591 49.2368 35.7735C49.1414 35.8243 48.817 35.9704 48.5817 36.161C48.4672 36.2563 48.4163 36.396 48.4736 36.5739C48.7852 37.6158 48.7153 38.7911 48.2955 39.7948C47.9075 40.7096 47.157 41.5355 46.2666 41.8087C45.6815 41.9929 45.0772 41.904 44.702 41.3894C44.1868 40.6779 44.3967 39.4391 45.1599 38.4099C45.8405 37.5014 46.8199 36.9297 47.793 36.5549C47.9075 36.5104 47.933 36.4342 47.9012 36.3389C47.8503 36.18 47.7612 35.9577 47.7294 35.8624C47.6404 35.621 47.386 35.5829 47.0807 35.621C46.3684 35.7036 45.7323 35.945 45.0963 36.288C43.4363 37.1774 42.6095 38.8927 42.2406 39.8075C42.0625 40.2459 41.9162 40.5254 41.7191 40.7668C41.4583 41.0971 41.1276 41.3957 40.5297 41.9167C40.4725 41.9675 40.4343 42.0628 40.4788 42.1581C40.5424 42.2851 40.8541 42.7235 40.9431 42.7616C41.0385 42.8124 41.153 42.7425 41.1975 42.7108C41.6173 42.4249 42.1198 41.9738 42.3678 41.6689C42.4569 41.5673 42.5395 41.6054 42.5904 41.7642C42.8194 42.5837 43.4172 43.2508 44.2504 43.5303C45.7705 44.0449 47.3478 43.3016 48.5372 42.012C49.294 41.1924 49.5675 40.6652 49.8537 40.303C50.3435 39.6932 51.3166 38.3337 52.4678 37.4633C52.8939 37.1393 53.39 36.8979 53.6444 37.0567C53.8479 37.1902 53.9115 37.4887 53.5871 38.0795C52.4105 40.2268 50.6806 42.7489 50.3625 43.3588C50.3053 43.4668 50.3562 43.5493 50.4643 43.5493C51.0812 43.5493 51.6918 43.5493 52.2515 43.5493C52.3469 43.543 52.3851 43.5049 52.436 43.435C53.3391 42.0247 54.1914 40.6779 55.1009 39.2866C55.1518 39.204 55.1963 39.2675 55.2026 39.3056C55.2217 39.6296 55.298 40.068 55.4952 40.3602C55.8387 40.8939 56.3284 41.1226 56.869 41.1289C57.3015 41.1353 57.5177 41.0654 57.982 40.8939C58.3573 40.7541 58.6626 40.5699 58.8979 40.4047C59.0315 40.3094 59.0569 40.4682 59.0569 40.4936C58.847 41.6117 59.1078 42.9458 60.2208 43.4922C61.5564 44.1465 63.0193 43.2254 63.8652 42.3931C63.9479 42.3105 64.0369 42.3232 64.0433 42.4948C64.0624 42.8124 64.2023 43.1936 64.4694 43.4541C65.1754 44.1656 66.6064 43.8797 68.0375 42.7743C68.9597 42.0628 69.9201 41.0654 70.785 40.0045C70.8168 39.9663 70.8423 39.8965 70.7787 39.8329C70.6451 39.6932 70.4543 39.5344 70.3208 39.4136C70.2635 39.3628 70.1745 39.3755 70.1236 39.4136C69.2332 40.2586 68.4318 41.2242 67.2742 42.0247C66.8863 42.2978 66.263 42.5138 65.9831 42.139C65.875 41.9929 65.8877 41.7896 65.9958 41.5228C66.3266 40.6652 71.6755 32.5335 71.9553 32.0571Z" fill="#242424"/>
<path d="M46.7934 33.0326C46.8189 33.1533 46.8634 33.1787 46.9206 33.166C47.1941 33.1089 47.493 32.8865 47.6648 32.626C47.8238 32.391 47.9001 32.0543 47.7411 31.9145C47.6012 31.7938 47.3658 31.8256 47.1941 31.978C46.8507 32.283 46.7489 32.715 46.7934 33.0326ZM33.1572 43.5085C31.1601 43.5212 29.4047 42.2887 29.2012 40.1605C29.0867 38.9789 29.4238 37.9243 30.0916 37.0603C30.6831 36.2853 31.688 35.6436 32.5403 35.4912C32.8201 35.4403 33.189 35.4721 33.3417 35.6563C33.5833 35.9359 33.5134 36.2472 33.2717 36.3679C32.623 36.6982 31.8407 37.2636 31.459 38.0387C31.1474 38.6676 31.0838 39.4299 31.5608 40.1542C32.3622 41.3612 34.5946 41.393 36.668 39.468C37.1832 38.9979 37.6411 38.5405 38.1118 38.0069C39.0277 36.965 39.3329 36.5839 40.5477 34.9004C40.5605 34.8813 40.5668 34.8559 40.5605 34.8432C40.5477 34.8178 40.535 34.8178 40.4969 34.8114C39.6827 34.8368 38.9768 35.0782 38.2899 35.5865C38.0927 35.7326 37.8065 35.7135 37.6793 35.5229C37.5394 35.3069 37.6411 35.0274 37.8701 34.8686C38.9768 34.0999 40.1852 33.9601 41.4191 33.7505C41.4191 33.7505 41.5018 33.7568 41.5781 33.6616C42.0869 33.0136 42.4685 32.4291 43.0091 31.7684C43.5561 31.1014 44.2557 30.4915 44.79 30.0277C45.5405 29.3861 46.0175 29.1701 46.5072 28.9033C46.6344 28.8334 46.4881 28.7572 46.45 28.7572C43.7215 28.2426 40.8848 27.5819 38.1817 28.5856C36.3055 29.2844 35.485 30.771 35.8794 31.7621C36.1592 32.4672 37.0878 32.5816 37.9591 32.1559C38.6778 31.8002 39.3457 31.2348 39.8227 30.5042C40.0898 30.0976 40.6431 30.3898 40.3442 31.095C39.5492 32.9564 38.0355 34.4302 36.191 34.4938C34.6201 34.5446 33.6088 33.3884 33.6088 31.9653C33.6151 29.1574 36.7444 27.3087 40.0326 27.0355C43.9949 26.7115 47.7411 27.7598 51.6717 28.2362C54.6864 28.5983 57.5739 28.611 60.6013 27.9122C60.9575 27.836 61.2119 28.0647 61.1865 28.4268C61.1547 28.9477 60.754 29.4496 59.7554 29.996C58.6233 30.6185 57.434 30.8028 56.1938 30.8155C53.1981 30.8409 50.406 29.672 47.5185 29.0494C47.5248 29.1764 47.5566 29.3289 47.4485 29.4051C45.8458 30.5868 44.402 31.7811 43.4353 33.4646C43.4035 33.5027 43.4162 33.5408 43.4798 33.5345C44.3193 33.49 45.0762 33.471 45.8648 33.4074C46.0048 33.3947 46.0048 33.363 45.992 33.2613C45.9221 32.6832 46.0938 32.0225 46.6026 31.5651C47.1241 31.095 47.7792 31.0442 48.2117 31.3809C48.7015 31.7621 48.6633 32.4545 48.3898 32.9691C48.1163 33.4964 47.6648 33.7759 47.2259 33.9093C47.2259 33.9093 47.1369 33.9284 47.1496 34.011C47.1687 34.1444 47.7602 34.4747 47.811 34.5573C47.8619 34.6399 47.8365 34.7669 47.7474 34.8686C47.6838 34.9385 47.5884 35.0084 47.4612 35.0084C47.3595 35.0084 47.2959 34.9702 47.1687 34.9004C46.9015 34.7542 46.5708 34.5192 46.3482 34.2397C46.2719 34.1444 46.2337 34.1444 46.0429 34.1507C45.1907 34.2015 43.8677 34.3286 42.971 34.4366C42.7547 34.462 42.7229 34.5065 42.6784 34.5764C41.2474 36.9333 39.7209 39.4744 38.0418 41.177C36.2419 43.0129 34.7473 43.4957 33.1572 43.5085Z" fill="#242424"/>
<path d="M50.5 24.5292C31.8456 24.5292 16.7275 29.675 16.7275 35.977C16.7275 42.279 31.8456 47.4248 50.5 47.4248C69.148 47.4248 84.2661 42.279 84.2661 35.977C84.2661 29.6813 69.148 24.5292 50.5 24.5292ZM50.5 48.4667C31.1714 48.4667 15.5 42.8762 15.5 35.9833C15.5 29.0841 31.1714 23.5 50.5 23.5C69.8285 23.5 85.5 29.0905 85.5 35.9833C85.5 42.8762 69.8285 48.4667 50.5 48.4667Z" fill="#242424"/>
<path d="M41.2789 70.77V72.072H37.1489V74.942H40.3689V76.244H37.1489V80.5H35.5529V70.77H41.2789ZM46.104 80.626C45.376 80.626 44.718 80.4627 44.13 80.136C43.542 79.8 43.08 79.3333 42.744 78.736C42.408 78.1293 42.24 77.4293 42.24 76.636C42.24 75.852 42.4127 75.1567 42.758 74.55C43.1033 73.9433 43.5747 73.4767 44.172 73.15C44.7693 72.8233 45.4367 72.66 46.174 72.66C46.9113 72.66 47.5787 72.8233 48.176 73.15C48.7733 73.4767 49.2447 73.9433 49.59 74.55C49.9353 75.1567 50.108 75.852 50.108 76.636C50.108 77.42 49.9307 78.1153 49.576 78.722C49.2213 79.3287 48.736 79.8 48.12 80.136C47.5133 80.4627 46.8413 80.626 46.104 80.626ZM46.104 79.24C46.5147 79.24 46.8973 79.142 47.252 78.946C47.616 78.75 47.91 78.456 48.134 78.064C48.358 77.672 48.47 77.196 48.47 76.636C48.47 76.076 48.3627 75.6047 48.148 75.222C47.9333 74.83 47.6487 74.536 47.294 74.34C46.9393 74.144 46.5567 74.046 46.146 74.046C45.7353 74.046 45.3527 74.144 44.998 74.34C44.6527 74.536 44.3773 74.83 44.172 75.222C43.9667 75.6047 43.864 76.076 43.864 76.636C43.864 77.4667 44.074 78.1107 44.494 78.568C44.9233 79.016 45.46 79.24 46.104 79.24ZM53.2817 73.906C53.5151 73.514 53.8231 73.2107 54.2057 72.996C54.5977 72.772 55.0597 72.66 55.5917 72.66V74.312H55.1857C54.5604 74.312 54.0844 74.4707 53.7577 74.788C53.4404 75.1053 53.2817 75.656 53.2817 76.44V80.5H51.6857V72.786H53.2817V73.906ZM56.5268 76.608C56.5268 75.8333 56.6855 75.1473 57.0028 74.55C57.3295 73.9527 57.7681 73.4907 58.3188 73.164C58.8788 72.828 59.4995 72.66 60.1808 72.66C60.6848 72.66 61.1795 72.772 61.6648 72.996C62.1595 73.2107 62.5515 73.5 62.8408 73.864V70.14H64.4508V80.5H62.8408V79.338C62.5795 79.7113 62.2155 80.0193 61.7488 80.262C61.2915 80.5047 60.7641 80.626 60.1668 80.626C59.4948 80.626 58.8788 80.458 58.3188 80.122C57.7681 79.7767 57.3295 79.3007 57.0028 78.694C56.6855 78.078 56.5268 77.3827 56.5268 76.608ZM62.8408 76.636C62.8408 76.104 62.7288 75.642 62.5048 75.25C62.2901 74.858 62.0055 74.5593 61.6508 74.354C61.2961 74.1487 60.9135 74.046 60.5028 74.046C60.0921 74.046 59.7095 74.1487 59.3548 74.354C59.0001 74.55 58.7108 74.844 58.4868 75.236C58.2721 75.6187 58.1648 76.076 58.1648 76.608C58.1648 77.14 58.2721 77.6067 58.4868 78.008C58.7108 78.4093 59.0001 78.7173 59.3548 78.932C59.7188 79.1373 60.1015 79.24 60.5028 79.24C60.9135 79.24 61.2961 79.1373 61.6508 78.932C62.0055 78.7267 62.2901 78.428 62.5048 78.036C62.7288 77.6347 62.8408 77.168 62.8408 76.636Z" fill="#242424"/>
</svg>
