<svg width="100" height="100" viewBox="0 0 100 100" fill="none" xmlns="http://www.w3.org/2000/svg">
<path d="M50.3437 50.8804C66.7144 50.8804 80 44.0608 80 35.698C80 27.3353 66.7642 20.5156 50.3437 20.5156C33.9731 20.5156 20.6875 27.3353 20.6875 35.698C20.6875 44.0608 33.9233 50.8804 50.3437 50.8804ZM55.9167 43.4136C55.4192 44.5585 54.5732 46.9479 52.6327 47.9932C52.0355 48.2919 51.3389 48.4412 50.6423 48.4412C50.493 48.4412 50.3935 48.4412 50.3437 48.4412C45.3181 48.491 40.3422 47.7941 35.5156 46.4003L35.3663 46.3506C34.9683 46.2012 34.7692 46.0519 34.7692 45.803C34.7692 45.7034 34.819 45.6039 34.819 45.5541C34.8688 45.4545 34.9185 45.4048 34.9683 45.355L35.2171 45.1061C36.1625 44.2599 39.148 42.1194 44.7708 40.0287C47.0597 39.0829 49.3983 38.386 51.7868 37.7887C53.3293 37.4402 58.9023 36.594 55.9167 43.4136ZM70.9439 28.1317C70.9937 28.0321 71.0434 27.9326 71.1429 27.8828C71.2425 27.833 71.342 27.7833 71.4415 27.7833C71.6405 27.7833 71.8893 27.833 72.0386 27.9824C75.5217 30.1228 77.6116 32.8109 77.6116 35.698C77.6116 40.9247 70.8941 45.4545 61.2409 47.3959C60.6438 47.5452 60.196 47.4955 60.0965 47.3959C59.9472 47.2963 59.9472 47.147 60.0965 46.9479C60.1462 46.7986 60.2458 46.699 60.3453 46.5994C65.5699 40.4269 69.6004 31.3175 70.6951 28.6793C70.7946 28.4304 70.8444 28.2313 70.9439 28.1317ZM44.8703 27.9326C45.3679 26.7877 46.2138 24.3486 48.1544 23.353C48.7515 23.0543 49.4481 22.905 50.1447 22.905C50.294 22.905 50.3935 22.905 50.4433 22.905C55.4689 22.8552 60.4448 23.5521 65.2714 24.9459L65.4207 24.9957C65.8187 25.145 66.0178 25.2943 66.0178 25.5432C66.0178 25.6428 65.968 25.7423 65.968 25.7921C65.9183 25.8917 65.8685 25.9415 65.8187 25.9912L65.4704 26.2899C64.525 27.1361 61.5892 29.2766 55.9665 31.4171C53.6776 32.3629 51.3389 33.1095 48.9505 33.6571C47.5075 33.9558 41.9345 34.802 44.8703 27.9326ZM39.4963 24.0001C40.1432 23.9005 40.5413 23.9005 40.6905 24.0001C40.7403 24.0499 40.7403 24.1494 40.7403 24.249C40.7403 24.3486 40.6905 24.3983 40.6905 24.4979C40.591 24.6472 40.5413 24.7468 40.4417 24.8463C35.1673 31.0188 31.1368 40.1283 30.0422 42.7665C29.9426 42.9656 29.8929 43.115 29.7934 43.2643C29.7436 43.3639 29.6938 43.4634 29.5943 43.5132C29.4948 43.563 29.3953 43.6128 29.2958 43.6128C29.0967 43.6128 28.8479 43.563 28.6987 43.4136C25.2156 41.2732 23.1257 38.5851 23.1257 35.698C23.1257 30.4713 29.8431 25.9912 39.4963 24.0001Z" fill="#242424"/>
<path d="M29.3845 70.77V80.5H27.7885V76.244H23.2105V80.5H21.6145V70.77H23.2105V74.942H27.7885V70.77H29.3845ZM38.4295 72.786L33.6975 84.126H32.0455L33.6135 80.374L30.5755 72.786H32.3535L34.5235 78.666L36.7775 72.786H38.4295ZM46.62 72.786V80.5H45.024V79.59C44.772 79.9073 44.4407 80.1593 44.03 80.346C43.6287 80.5233 43.1993 80.612 42.742 80.612C42.1353 80.612 41.5893 80.486 41.104 80.234C40.628 79.982 40.25 79.6087 39.97 79.114C39.6993 78.6193 39.564 78.022 39.564 77.322V72.786H41.146V77.084C41.146 77.7747 41.3187 78.3067 41.664 78.68C42.0093 79.044 42.4807 79.226 43.078 79.226C43.6753 79.226 44.1467 79.044 44.492 78.68C44.8467 78.3067 45.024 77.7747 45.024 77.084V72.786H46.62ZM52.6178 72.66C53.2244 72.66 53.7658 72.786 54.2418 73.038C54.7271 73.29 55.1051 73.6633 55.3758 74.158C55.6464 74.6527 55.7818 75.25 55.7818 75.95V80.5H54.1998V76.188C54.1998 75.4973 54.0271 74.97 53.6818 74.606C53.3364 74.2327 52.8651 74.046 52.2678 74.046C51.6704 74.046 51.1944 74.2327 50.8398 74.606C50.4944 74.97 50.3218 75.4973 50.3218 76.188V80.5H48.7258V72.786H50.3218V73.668C50.5831 73.3507 50.9144 73.1033 51.3158 72.926C51.7264 72.7487 52.1604 72.66 52.6178 72.66ZM57.2856 76.608C57.2856 75.8333 57.4442 75.1473 57.7616 74.55C58.0882 73.9527 58.5269 73.4907 59.0776 73.164C59.6376 72.828 60.2582 72.66 60.9396 72.66C61.4436 72.66 61.9382 72.772 62.4236 72.996C62.9182 73.2107 63.3102 73.5 63.5996 73.864V70.14H65.2096V80.5H63.5996V79.338C63.3382 79.7113 62.9742 80.0193 62.5076 80.262C62.0502 80.5047 61.5229 80.626 60.9256 80.626C60.2536 80.626 59.6376 80.458 59.0776 80.122C58.5269 79.7767 58.0882 79.3007 57.7616 78.694C57.4442 78.078 57.2856 77.3827 57.2856 76.608ZM63.5996 76.636C63.5996 76.104 63.4876 75.642 63.2636 75.25C63.0489 74.858 62.7642 74.5593 62.4096 74.354C62.0549 74.1487 61.6722 74.046 61.2616 74.046C60.8509 74.046 60.4682 74.1487 60.1136 74.354C59.7589 74.55 59.4696 74.844 59.2456 75.236C59.0309 75.6187 58.9236 76.076 58.9236 76.608C58.9236 77.14 59.0309 77.6067 59.2456 78.008C59.4696 78.4093 59.7589 78.7173 60.1136 78.932C60.4776 79.1373 60.8602 79.24 61.2616 79.24C61.6722 79.24 62.0549 79.1373 62.4096 78.932C62.7642 78.7267 63.0489 78.428 63.2636 78.036C63.4876 77.6347 63.5996 77.168 63.5996 76.636ZM66.7739 76.608C66.7739 75.8333 66.9325 75.1473 67.2499 74.55C67.5765 73.9527 68.0152 73.4907 68.5659 73.164C69.1259 72.828 69.7419 72.66 70.4139 72.66C71.0205 72.66 71.5479 72.7813 71.9959 73.024C72.4532 73.2573 72.8172 73.5513 73.0879 73.906V72.786H74.6979V80.5H73.0879V79.352C72.8172 79.716 72.4485 80.0193 71.9819 80.262C71.5152 80.5047 70.9832 80.626 70.3859 80.626C69.7232 80.626 69.1165 80.458 68.5659 80.122C68.0152 79.7767 67.5765 79.3007 67.2499 78.694C66.9325 78.078 66.7739 77.3827 66.7739 76.608ZM73.0879 76.636C73.0879 76.104 72.9759 75.642 72.7519 75.25C72.5372 74.858 72.2525 74.5593 71.8979 74.354C71.5432 74.1487 71.1605 74.046 70.7499 74.046C70.3392 74.046 69.9565 74.1487 69.6019 74.354C69.2472 74.55 68.9579 74.844 68.7339 75.236C68.5192 75.6187 68.4119 76.076 68.4119 76.608C68.4119 77.14 68.5192 77.6067 68.7339 78.008C68.9579 78.4093 69.2472 78.7173 69.6019 78.932C69.9659 79.1373 70.3485 79.24 70.7499 79.24C71.1605 79.24 71.5432 79.1373 71.8979 78.932C72.2525 78.7267 72.5372 78.428 72.7519 78.036C72.9759 77.6347 73.0879 77.168 73.0879 76.636ZM77.6061 71.764C77.3168 71.764 77.0741 71.666 76.8781 71.47C76.6821 71.274 76.5841 71.0313 76.5841 70.742C76.5841 70.4527 76.6821 70.21 76.8781 70.014C77.0741 69.818 77.3168 69.72 77.6061 69.72C77.8861 69.72 78.1241 69.818 78.3201 70.014C78.5161 70.21 78.6141 70.4527 78.6141 70.742C78.6141 71.0313 78.5161 71.274 78.3201 71.47C78.1241 71.666 77.8861 71.764 77.6061 71.764ZM78.3901 72.786V80.5H76.7941V72.786H78.3901Z" fill="#242424"/>
</svg>
