<svg width="100" height="100" viewBox="0 0 100 100" fill="none" xmlns="http://www.w3.org/2000/svg">
<path d="M55.2939 41.8275C55.2939 41.9536 55.3281 42.0225 55.4079 42.0225C55.4649 42.0225 55.5104 41.9995 55.5674 41.9651L76.1276 28.5126C76.4923 28.2718 76.8228 28.1457 77.3129 28.1457H81.8375C82.5327 28.1457 83 28.6159 83 29.3154V37.997C83 39.0407 82.7721 39.6485 81.8375 40.2104L76.3556 43.5248C76.2872 43.5707 76.2188 43.5936 76.1732 43.5936C76.1048 43.5936 76.0478 43.5478 76.0478 43.3528V33.2147C76.0478 33.1 76.0136 33.0197 75.9339 33.0197C75.8769 33.0197 75.8313 33.0427 75.7743 33.0771L60.7417 42.9055C60.32 43.1808 59.9781 43.2611 59.5906 43.2611H49.6182C48.923 43.2611 48.4557 42.7908 48.4557 42.0913V29.5907C48.4557 29.4989 48.4101 29.4187 48.3417 29.4187C48.2848 29.4187 48.2392 29.4416 48.1822 29.476L38.2668 35.474C38.1642 35.5313 38.1414 35.5887 38.1414 35.6345C38.1414 35.6804 38.1528 35.7148 38.2326 35.7836L45.3101 42.9055C45.4013 42.9973 45.4697 43.0776 45.4697 43.1464C45.4697 43.2266 45.3671 43.2725 45.2418 43.2725H38.8366C38.3352 43.2725 37.9477 43.1922 37.6741 42.917L33.3775 38.5934C33.3319 38.5475 33.2977 38.5246 33.2521 38.5246C33.2179 38.5246 33.1609 38.5475 33.1154 38.5705L25.9352 42.917C25.5022 43.1808 25.2058 43.2611 24.7728 43.2611H18.1625C17.4673 43.2611 17 42.7908 17 42.0913V33.5702C17 32.5151 17.2279 31.9188 18.1625 31.3568L23.6786 28.0195C23.7356 27.9851 23.7812 27.9736 23.8268 27.9736C23.9066 27.9736 23.9522 28.0654 23.9522 28.2489V39.6485C23.9522 39.7632 23.9864 39.8205 24.0661 39.8205C24.1117 39.8205 24.1687 39.7861 24.2257 39.7517L42.8598 28.4782C43.3043 28.2145 43.5778 28.1342 44.0907 28.1342H54.12C54.8152 28.1342 55.2825 28.6044 55.2825 29.304L55.2939 41.8275Z" fill="#242424"/>
<path d="M45.2558 80.5L41.4898 76.146V80.5H39.8938V70.77H41.4898V75.208L45.2698 70.77H47.2718L43.0438 75.642L47.3418 80.5H45.2558ZM50.3491 70.77V80.5H48.7531V70.77H50.3491ZM58.3105 78.512H54.2365L53.5365 80.5H51.8705L55.3565 70.756H57.2045L60.6905 80.5H59.0105L58.3105 78.512ZM57.8625 77.21L56.2805 72.688L54.6845 77.21H57.8625Z" fill="#242424"/>
</svg>
