<svg width="112" height="100" viewBox="0 0 112 100" fill="none" xmlns="http://www.w3.org/2000/svg">
<path d="M65.5675 18.1938C62.8375 16.78 59.7663 16 56.5 16C53.2338 16 50.1625 16.78 47.4325 18.1938C41.2413 21.46 37 27.9925 37 35.5C37 43.0075 41.2413 49.54 47.4813 52.8063C50.1625 54.1713 53.2338 55 56.5 55C59.7663 55 62.7888 54.1713 65.5188 52.7575C71.7588 49.54 76 43.0075 76 35.5C76 27.9925 71.7588 21.46 65.5675 18.1938ZM38.95 35.5C38.95 29.1138 42.3625 23.5563 47.4813 20.4363C49.9675 18.925 52.8438 18.0475 56.0125 17.95L53.8188 33.8913L47.4813 38.815L41.0463 43.8362C39.73 41.35 38.95 38.5225 38.95 35.5ZM65.5675 50.515C62.8862 52.1238 59.815 53.05 56.5 53.05C53.185 53.05 50.065 52.1238 47.4325 50.515C45.0437 49.1013 43.0938 47.1513 41.6313 44.8112L47.4325 42.4225L56.5 38.7175L65.5675 42.3737L71.4175 44.7625C69.955 47.1513 67.9075 49.1013 65.5675 50.515ZM65.5675 38.815L59.2788 33.94L57.0362 17.95C60.1075 18.0475 63.0325 18.925 65.5188 20.4363C70.6375 23.5075 74.05 29.1138 74.05 35.5C74.05 38.5225 73.3187 41.35 71.9537 43.8362L65.5675 38.815Z" fill="#242424"/>
<path d="M12.132 70.77V80.5H10.536V73.836L7.56798 80.5H6.46198L3.47998 73.836V80.5H1.88398V70.77H3.60598L7.02198 78.4L10.424 70.77H12.132ZM21.2997 76.454C21.2997 76.7433 21.281 77.0047 21.2437 77.238H15.3497C15.3964 77.854 15.625 78.3487 16.0357 78.722C16.4464 79.0953 16.9504 79.282 17.5477 79.282C18.4064 79.282 19.013 78.9227 19.3677 78.204H21.0897C20.8564 78.9133 20.4317 79.4967 19.8157 79.954C19.209 80.402 18.453 80.626 17.5477 80.626C16.8104 80.626 16.1477 80.4627 15.5597 80.136C14.981 79.8 14.5237 79.3333 14.1877 78.736C13.861 78.1293 13.6977 77.4293 13.6977 76.636C13.6977 75.8427 13.8564 75.1473 14.1737 74.55C14.5004 73.9433 14.953 73.4767 15.5317 73.15C16.1197 72.8233 16.7917 72.66 17.5477 72.66C18.2757 72.66 18.9244 72.8187 19.4937 73.136C20.063 73.4533 20.5064 73.9013 20.8237 74.48C21.141 75.0493 21.2997 75.7073 21.2997 76.454ZM19.6337 75.95C19.6244 75.362 19.4144 74.8907 19.0037 74.536C18.593 74.1813 18.0844 74.004 17.4777 74.004C16.927 74.004 16.4557 74.1813 16.0637 74.536C15.6717 74.8813 15.4384 75.3527 15.3637 75.95H19.6337ZM24.4663 73.906C24.6996 73.514 25.0076 73.2107 25.3903 72.996C25.7823 72.772 26.2443 72.66 26.7763 72.66V74.312H26.3703C25.745 74.312 25.269 74.4707 24.9423 74.788C24.625 75.1053 24.4663 75.656 24.4663 76.44V80.5H22.8703V72.786H24.4663V73.906ZM27.7114 76.636C27.7114 75.8427 27.87 75.1473 28.1874 74.55C28.514 73.9433 28.962 73.4767 29.5314 73.15C30.1007 72.8233 30.754 72.66 31.4914 72.66C32.4247 72.66 33.1947 72.884 33.8014 73.332C34.4174 73.7707 34.8327 74.4007 35.0474 75.222H33.3254C33.1854 74.8393 32.9614 74.5407 32.6534 74.326C32.3454 74.1113 31.958 74.004 31.4914 74.004C30.838 74.004 30.3154 74.2373 29.9234 74.704C29.5407 75.1613 29.3494 75.8053 29.3494 76.636C29.3494 77.4667 29.5407 78.1153 29.9234 78.582C30.3154 79.0487 30.838 79.282 31.4914 79.282C32.4154 79.282 33.0267 78.876 33.3254 78.064H35.0474C34.8234 78.848 34.4034 79.4733 33.7874 79.94C33.1714 80.3973 32.406 80.626 31.4914 80.626C30.754 80.626 30.1007 80.4627 29.5314 80.136C28.962 79.8 28.514 79.3333 28.1874 78.736C27.87 78.1293 27.7114 77.4293 27.7114 76.636ZM43.7079 76.454C43.7079 76.7433 43.6892 77.0047 43.6519 77.238H37.7579C37.8046 77.854 38.0332 78.3487 38.4439 78.722C38.8546 79.0953 39.3586 79.282 39.9559 79.282C40.8146 79.282 41.4212 78.9227 41.7759 78.204H43.4979C43.2646 78.9133 42.8399 79.4967 42.2239 79.954C41.6172 80.402 40.8612 80.626 39.9559 80.626C39.2186 80.626 38.5559 80.4627 37.9679 80.136C37.3892 79.8 36.9319 79.3333 36.5959 78.736C36.2692 78.1293 36.1059 77.4293 36.1059 76.636C36.1059 75.8427 36.2646 75.1473 36.5819 74.55C36.9086 73.9433 37.3612 73.4767 37.9399 73.15C38.5279 72.8233 39.1999 72.66 39.9559 72.66C40.6839 72.66 41.3326 72.8187 41.9019 73.136C42.4712 73.4533 42.9146 73.9013 43.2319 74.48C43.5492 75.0493 43.7079 75.7073 43.7079 76.454ZM42.0419 75.95C42.0326 75.362 41.8226 74.8907 41.4119 74.536C41.0012 74.1813 40.4926 74.004 39.8859 74.004C39.3352 74.004 38.8639 74.1813 38.4719 74.536C38.0799 74.8813 37.8466 75.3527 37.7719 75.95H42.0419ZM44.7465 76.608C44.7465 75.8333 44.9052 75.1473 45.2225 74.55C45.5492 73.9527 45.9878 73.4907 46.5385 73.164C47.0985 72.828 47.7192 72.66 48.4005 72.66C48.9045 72.66 49.3992 72.772 49.8845 72.996C50.3792 73.2107 50.7712 73.5 51.0605 73.864V70.14H52.6705V80.5H51.0605V79.338C50.7992 79.7113 50.4352 80.0193 49.9685 80.262C49.5112 80.5047 48.9838 80.626 48.3865 80.626C47.7145 80.626 47.0985 80.458 46.5385 80.122C45.9878 79.7767 45.5492 79.3007 45.2225 78.694C44.9052 78.078 44.7465 77.3827 44.7465 76.608ZM51.0605 76.636C51.0605 76.104 50.9485 75.642 50.7245 75.25C50.5098 74.858 50.2252 74.5593 49.8705 74.354C49.5158 74.1487 49.1332 74.046 48.7225 74.046C48.3118 74.046 47.9292 74.1487 47.5745 74.354C47.2198 74.55 46.9305 74.844 46.7065 75.236C46.4918 75.6187 46.3845 76.076 46.3845 76.608C46.3845 77.14 46.4918 77.6067 46.7065 78.008C46.9305 78.4093 47.2198 78.7173 47.5745 78.932C47.9385 79.1373 48.3212 79.24 48.7225 79.24C49.1332 79.24 49.5158 79.1373 49.8705 78.932C50.2252 78.7267 50.5098 78.428 50.7245 78.036C50.9485 77.6347 51.0605 77.168 51.0605 76.636ZM61.8368 76.454C61.8368 76.7433 61.8181 77.0047 61.7808 77.238H55.8868C55.9335 77.854 56.1621 78.3487 56.5728 78.722C56.9835 79.0953 57.4875 79.282 58.0848 79.282C58.9435 79.282 59.5501 78.9227 59.9048 78.204H61.6268C61.3935 78.9133 60.9688 79.4967 60.3528 79.954C59.7461 80.402 58.9901 80.626 58.0848 80.626C57.3475 80.626 56.6848 80.4627 56.0968 80.136C55.5181 79.8 55.0608 79.3333 54.7248 78.736C54.3981 78.1293 54.2348 77.4293 54.2348 76.636C54.2348 75.8427 54.3935 75.1473 54.7108 74.55C55.0375 73.9433 55.4901 73.4767 56.0688 73.15C56.6568 72.8233 57.3288 72.66 58.0848 72.66C58.8128 72.66 59.4615 72.8187 60.0308 73.136C60.6001 73.4533 61.0435 73.9013 61.3608 74.48C61.6781 75.0493 61.8368 75.7073 61.8368 76.454ZM60.1708 75.95C60.1615 75.362 59.9515 74.8907 59.5408 74.536C59.1301 74.1813 58.6215 74.004 58.0148 74.004C57.4641 74.004 56.9928 74.1813 56.6008 74.536C56.2088 74.8813 55.9755 75.3527 55.9008 75.95H60.1708ZM66.2074 80.626C65.6008 80.626 65.0548 80.5187 64.5694 80.304C64.0934 80.08 63.7154 79.7813 63.4354 79.408C63.1554 79.0253 63.0061 78.6007 62.9874 78.134H64.6394C64.6674 78.4607 64.8214 78.736 65.1014 78.96C65.3908 79.1747 65.7501 79.282 66.1794 79.282C66.6274 79.282 66.9728 79.198 67.2154 79.03C67.4674 78.8527 67.5934 78.6287 67.5934 78.358C67.5934 78.0687 67.4534 77.854 67.1734 77.714C66.9028 77.574 66.4688 77.42 65.8714 77.252C65.2928 77.0933 64.8214 76.9393 64.4574 76.79C64.0934 76.6407 63.7761 76.412 63.5054 76.104C63.2441 75.796 63.1134 75.39 63.1134 74.886C63.1134 74.4753 63.2348 74.102 63.4774 73.766C63.7201 73.4207 64.0654 73.15 64.5134 72.954C64.9708 72.758 65.4934 72.66 66.0814 72.66C66.9588 72.66 67.6634 72.884 68.1954 73.332C68.7368 73.7707 69.0261 74.3727 69.0634 75.138H67.4674C67.4394 74.7927 67.2994 74.5173 67.0474 74.312C66.7954 74.1067 66.4548 74.004 66.0254 74.004C65.6054 74.004 65.2834 74.0833 65.0594 74.242C64.8354 74.4007 64.7234 74.6107 64.7234 74.872C64.7234 75.0773 64.7981 75.25 64.9474 75.39C65.0968 75.53 65.2788 75.642 65.4934 75.726C65.7081 75.8007 66.0254 75.8987 66.4454 76.02C67.0054 76.1693 67.4628 76.3233 67.8174 76.482C68.1814 76.6313 68.4941 76.8553 68.7554 77.154C69.0168 77.4527 69.1521 77.8493 69.1614 78.344C69.1614 78.7827 69.0401 79.1747 68.7974 79.52C68.5548 79.8653 68.2094 80.136 67.7614 80.332C67.3228 80.528 66.8048 80.626 66.2074 80.626ZM76.8079 74.76V76.104H71.0539V74.76H76.8079ZM84.2834 75.502C84.8061 75.5953 85.2494 75.8707 85.6134 76.328C85.9774 76.7853 86.1594 77.3033 86.1594 77.882C86.1594 78.3767 86.0287 78.8247 85.7674 79.226C85.5154 79.618 85.1467 79.9307 84.6614 80.164C84.1761 80.388 83.6114 80.5 82.9674 80.5H79.0754V70.77H82.7854C83.4481 70.77 84.0174 70.882 84.4934 71.106C84.9694 71.33 85.3287 71.6333 85.5714 72.016C85.8141 72.3893 85.9354 72.8093 85.9354 73.276C85.9354 73.836 85.7861 74.3027 85.4874 74.676C85.1887 75.0493 84.7874 75.3247 84.2834 75.502ZM80.6714 74.858H82.6454C83.1681 74.858 83.5741 74.7413 83.8634 74.508C84.1621 74.2653 84.3114 73.92 84.3114 73.472C84.3114 73.0333 84.1621 72.6927 83.8634 72.45C83.5741 72.198 83.1681 72.072 82.6454 72.072H80.6714V74.858ZM82.8274 79.198C83.3687 79.198 83.7934 79.0673 84.1014 78.806C84.4094 78.5447 84.5634 78.1807 84.5634 77.714C84.5634 77.238 84.4001 76.86 84.0734 76.58C83.7467 76.3 83.3127 76.16 82.7714 76.16H80.6714V79.198H82.8274ZM94.9638 76.454C94.9638 76.7433 94.9451 77.0047 94.9078 77.238H89.0138C89.0604 77.854 89.2891 78.3487 89.6998 78.722C90.1104 79.0953 90.6144 79.282 91.2118 79.282C92.0704 79.282 92.6771 78.9227 93.0318 78.204H94.7537C94.5204 78.9133 94.0958 79.4967 93.4798 79.954C92.8731 80.402 92.1171 80.626 91.2118 80.626C90.4744 80.626 89.8118 80.4627 89.2238 80.136C88.6451 79.8 88.1878 79.3333 87.8518 78.736C87.5251 78.1293 87.3618 77.4293 87.3618 76.636C87.3618 75.8427 87.5204 75.1473 87.8378 74.55C88.1644 73.9433 88.6171 73.4767 89.1958 73.15C89.7838 72.8233 90.4558 72.66 91.2118 72.66C91.9398 72.66 92.5884 72.8187 93.1578 73.136C93.7271 73.4533 94.1704 73.9013 94.4878 74.48C94.8051 75.0493 94.9638 75.7073 94.9638 76.454ZM93.2978 75.95C93.2884 75.362 93.0784 74.8907 92.6678 74.536C92.2571 74.1813 91.7484 74.004 91.1418 74.004C90.5911 74.004 90.1198 74.1813 89.7278 74.536C89.3358 74.8813 89.1024 75.3527 89.0278 75.95H93.2978ZM100.426 72.66C101.033 72.66 101.574 72.786 102.05 73.038C102.536 73.29 102.914 73.6633 103.184 74.158C103.455 74.6527 103.59 75.25 103.59 75.95V80.5H102.008V76.188C102.008 75.4973 101.836 74.97 101.49 74.606C101.145 74.2327 100.674 74.046 100.076 74.046C99.479 74.046 99.003 74.2327 98.6484 74.606C98.303 74.97 98.1304 75.4973 98.1304 76.188V80.5H96.5344V72.786H98.1304V73.668C98.3917 73.3507 98.723 73.1033 99.1244 72.926C99.535 72.7487 99.969 72.66 100.426 72.66ZM107.04 79.198H110.54V80.5H105.192V79.198L108.706 74.088H105.192V72.786H110.54V74.088L107.04 79.198Z" fill="#242424"/>
</svg>
