<svg width="100" height="100" viewBox="0 0 100 100" fill="none" xmlns="http://www.w3.org/2000/svg">
<g clip-path="url(#clip0_743_438)">
<path d="M32.9601 29.4666C35.4441 22.2648 42.3117 17.3987 50.056 17.3987C57.8003 17.3987 64.6679 22.2648 67.1519 29.4666V29.5152H72.607V28.8827L70.3665 28.6394C68.9541 28.4934 68.6618 27.8608 68.2722 27.0822L68.1748 26.8876C64.9114 19.9778 57.8003 15.501 50.056 15.501C42.3117 15.501 35.2006 19.9778 31.8885 26.8876L31.7911 27.0822C31.4502 27.8608 31.1092 28.4934 29.7455 28.6394L27.4563 28.8827V29.5152H32.9114L32.9601 29.4666Z" fill="#242424"/>
<path d="M67.2006 41.4862V41.5349C64.6679 48.7367 57.8003 53.6027 50.056 53.6027C42.3117 53.6027 35.4441 48.7367 32.9601 41.5349V41.4862H27.4563V42.1188L29.7455 42.3621C31.1579 42.5081 31.4502 43.1407 31.8398 43.9193L31.9372 44.1139C35.1519 51.0237 42.3117 55.5005 50.056 55.5005C57.8003 55.5005 64.9114 51.0237 68.2235 44.1139L68.3209 43.9193C68.7105 43.1407 69.0028 42.5568 70.4153 42.3621L72.7044 42.1188V41.4862H67.2006Z" fill="#242424"/>
<path d="M37.2492 32.9708H35.9828V38.5181H37.2492V32.9708Z" fill="#242424"/>
<path d="M33.0103 38.4695V32.9708H31.7926V37.107L27.75 32.9708H26.1914V38.4695H27.4091V34.3333L31.5004 38.4695H33.0103Z" fill="#242424"/>
<path d="M60.7236 32.9708L57.3142 38.5181H58.7754L59.3599 37.5449H63.3051L63.8895 38.5181H65.3507L61.9413 32.9708H60.7236ZM62.7206 36.4744H59.993L61.3568 34.236L62.7206 36.4744Z" fill="#242424"/>
<path d="M53.8524 37.3487C53.8037 37.3487 53.6576 37.3487 53.6089 37.3487H48.4947V38.4679H53.6576C53.7063 38.4679 53.9986 38.4679 54.0473 38.4679C55.1188 38.3706 55.5572 37.5433 55.5572 36.7648C55.5572 35.9862 55.0701 35.2076 54.096 35.1103C53.9499 35.1103 53.8037 35.1103 53.7063 35.1103H50.3456C50.1995 35.1103 50.1021 35.1103 49.9559 35.0617C49.7124 35.013 49.5663 34.8183 49.615 34.575C49.615 34.3317 49.7611 34.1371 50.0046 34.0884C50.1021 34.0398 50.2482 34.0398 50.3456 34.0398H55.2162V32.9206H50.2969C50.1508 32.9206 49.9559 32.9206 49.8098 32.9692C48.9818 33.0666 48.3486 33.7478 48.3486 34.575C48.3486 35.2563 48.787 36.0835 49.7611 36.1808C49.9559 36.1808 50.1021 36.2295 50.2969 36.1808H53.5602C53.6089 36.1808 53.755 36.1808 53.8037 36.1808C54.096 36.2295 54.2908 36.4728 54.2908 36.7161C54.2908 37.0567 54.096 37.3 53.8524 37.3487Z" fill="#242424"/>
<path d="M44.8943 37.3503C44.8456 37.3503 44.6995 37.3503 44.6508 37.3503H39.5853V38.4695H44.6995C44.7482 38.4695 45.0404 38.4695 45.0891 38.4695C46.1607 38.3721 46.6477 37.5449 46.6477 36.815C46.6477 36.0851 46.1607 35.2579 45.1866 35.1605C45.0404 35.1605 44.8943 35.1605 44.7969 35.1605H41.4362C41.29 35.1605 41.1926 35.1605 41.0465 35.1119C40.803 35.0632 40.6569 34.8686 40.7056 34.6253C40.7056 34.382 40.8517 34.1873 41.0952 34.1387C41.1926 34.09 41.3388 34.09 41.4362 34.09H46.3068V32.9708H41.3388C41.1926 32.9708 40.9978 32.9708 40.8517 33.0195C40.0237 33.1168 39.3905 33.798 39.3905 34.6253C39.3905 35.3065 39.8289 36.1337 40.803 36.2311C40.9978 36.2311 41.1439 36.2797 41.3388 36.2311H44.6021C44.6508 36.2311 44.7969 36.2311 44.8456 36.2311C45.1378 36.2797 45.3327 36.523 45.3327 36.7663C45.3814 37.0583 45.1378 37.3016 44.8943 37.3503Z" fill="#242424"/>
<path d="M73.9245 38.4695V32.9708H72.7069V37.107L68.6642 32.9708H67.1056V38.4695H68.3233V34.3333L72.4146 38.4695H73.9245Z" fill="#242424"/>
<path d="M70.7589 52.1427C71.3434 52.1427 71.8305 52.6293 71.8305 53.2133C71.8305 53.7972 71.3434 54.2838 70.7589 54.2838C70.1745 54.2838 69.6874 53.7972 69.6874 53.2133C69.6874 52.9213 69.7848 52.678 70.0284 52.4347C70.1745 52.2401 70.4667 52.0941 70.7589 52.1427ZM70.7589 54.0405C71.0025 54.0405 71.1973 53.9432 71.3434 53.7972C71.4895 53.6512 71.587 53.4079 71.587 53.2133C71.587 52.7753 71.1973 52.386 70.7589 52.4347C70.3206 52.4347 69.9309 52.824 69.9309 53.2619C69.9309 53.6512 70.2719 54.0405 70.7589 54.0405ZM70.3206 53.7485V52.678C70.4667 52.678 70.5641 52.6293 70.7102 52.6293C70.9051 52.6293 71.1973 52.678 71.1973 52.9213C71.1973 53.0673 71.0999 53.1646 70.9538 53.1646C71.0512 53.2133 71.0999 53.3106 71.1486 53.4079C71.1486 53.5052 71.1973 53.6026 71.246 53.6512H71.0025C70.9538 53.5539 70.9538 53.4566 70.9051 53.4079C70.8564 53.2619 70.7589 53.2619 70.5641 53.2619V53.6999L70.3206 53.7485ZM70.5641 53.1159C70.7589 53.1159 70.9538 53.1159 70.9538 52.97C70.9538 52.8726 70.9051 52.824 70.7102 52.824C70.6615 52.824 70.6128 52.824 70.5641 52.824V53.1159Z" fill="#242424"/>
</g>
<path d="M35.3848 80.5H33.7888L28.9868 73.234V80.5H27.3908V70.756H28.9868L33.7888 78.008V70.756H35.3848V80.5ZM38.2927 71.764C38.0033 71.764 37.7607 71.666 37.5647 71.47C37.3687 71.274 37.2707 71.0313 37.2707 70.742C37.2707 70.4527 37.3687 70.21 37.5647 70.014C37.7607 69.818 38.0033 69.72 38.2927 69.72C38.5727 69.72 38.8107 69.818 39.0067 70.014C39.2027 70.21 39.3007 70.4527 39.3007 70.742C39.3007 71.0313 39.2027 71.274 39.0067 71.47C38.8107 71.666 38.5727 71.764 38.2927 71.764ZM39.0767 72.786V80.5H37.4807V72.786H39.0767ZM43.9721 80.626C43.3654 80.626 42.8194 80.5187 42.3341 80.304C41.8581 80.08 41.4801 79.7813 41.2001 79.408C40.9201 79.0253 40.7707 78.6007 40.7521 78.134H42.4041C42.4321 78.4607 42.5861 78.736 42.8661 78.96C43.1554 79.1747 43.5147 79.282 43.9441 79.282C44.3921 79.282 44.7374 79.198 44.9801 79.03C45.2321 78.8527 45.3581 78.6287 45.3581 78.358C45.3581 78.0687 45.2181 77.854 44.9381 77.714C44.6674 77.574 44.2334 77.42 43.6361 77.252C43.0574 77.0933 42.5861 76.9393 42.2221 76.79C41.8581 76.6407 41.5407 76.412 41.2701 76.104C41.0087 75.796 40.8781 75.39 40.8781 74.886C40.8781 74.4753 40.9994 74.102 41.2421 73.766C41.4847 73.4207 41.8301 73.15 42.2781 72.954C42.7354 72.758 43.2581 72.66 43.8461 72.66C44.7234 72.66 45.4281 72.884 45.9601 73.332C46.5014 73.7707 46.7907 74.3727 46.8281 75.138H45.2321C45.2041 74.7927 45.0641 74.5173 44.8121 74.312C44.5601 74.1067 44.2194 74.004 43.7901 74.004C43.3701 74.004 43.0481 74.0833 42.8241 74.242C42.6001 74.4007 42.4881 74.6107 42.4881 74.872C42.4881 75.0773 42.5627 75.25 42.7121 75.39C42.8614 75.53 43.0434 75.642 43.2581 75.726C43.4727 75.8007 43.7901 75.8987 44.2101 76.02C44.7701 76.1693 45.2274 76.3233 45.5821 76.482C45.9461 76.6313 46.2587 76.8553 46.5201 77.154C46.7814 77.4527 46.9167 77.8493 46.9261 78.344C46.9261 78.7827 46.8047 79.1747 46.5621 79.52C46.3194 79.8653 45.9741 80.136 45.5261 80.332C45.0874 80.528 44.5694 80.626 43.9721 80.626ZM51.4506 80.626C50.8439 80.626 50.2979 80.5187 49.8126 80.304C49.3366 80.08 48.9586 79.7813 48.6786 79.408C48.3986 79.0253 48.2493 78.6007 48.2306 78.134H49.8826C49.9106 78.4607 50.0646 78.736 50.3446 78.96C50.6339 79.1747 50.9933 79.282 51.4226 79.282C51.8706 79.282 52.2159 79.198 52.4586 79.03C52.7106 78.8527 52.8366 78.6287 52.8366 78.358C52.8366 78.0687 52.6966 77.854 52.4166 77.714C52.1459 77.574 51.7119 77.42 51.1146 77.252C50.5359 77.0933 50.0646 76.9393 49.7006 76.79C49.3366 76.6407 49.0193 76.412 48.7486 76.104C48.4873 75.796 48.3566 75.39 48.3566 74.886C48.3566 74.4753 48.4779 74.102 48.7206 73.766C48.9633 73.4207 49.3086 73.15 49.7566 72.954C50.2139 72.758 50.7366 72.66 51.3246 72.66C52.2019 72.66 52.9066 72.884 53.4386 73.332C53.9799 73.7707 54.2693 74.3727 54.3066 75.138H52.7106C52.6826 74.7927 52.5426 74.5173 52.2906 74.312C52.0386 74.1067 51.6979 74.004 51.2686 74.004C50.8486 74.004 50.5266 74.0833 50.3026 74.242C50.0786 74.4007 49.9666 74.6107 49.9666 74.872C49.9666 75.0773 50.0413 75.25 50.1906 75.39C50.3399 75.53 50.5219 75.642 50.7366 75.726C50.9513 75.8007 51.2686 75.8987 51.6886 76.02C52.2486 76.1693 52.7059 76.3233 53.0606 76.482C53.4246 76.6313 53.7373 76.8553 53.9986 77.154C54.2599 77.4527 54.3953 77.8493 54.4046 78.344C54.4046 78.7827 54.2833 79.1747 54.0406 79.52C53.7979 79.8653 53.4526 80.136 53.0046 80.332C52.5659 80.528 52.0479 80.626 51.4506 80.626ZM55.5971 76.608C55.5971 75.8333 55.7558 75.1473 56.0731 74.55C56.3998 73.9527 56.8384 73.4907 57.3891 73.164C57.9491 72.828 58.5651 72.66 59.2371 72.66C59.8438 72.66 60.3711 72.7813 60.8191 73.024C61.2764 73.2573 61.6404 73.5513 61.9111 73.906V72.786H63.5211V80.5H61.9111V79.352C61.6404 79.716 61.2718 80.0193 60.8051 80.262C60.3384 80.5047 59.8064 80.626 59.2091 80.626C58.5464 80.626 57.9398 80.458 57.3891 80.122C56.8384 79.7767 56.3998 79.3007 56.0731 78.694C55.7558 78.078 55.5971 77.3827 55.5971 76.608ZM61.9111 76.636C61.9111 76.104 61.7991 75.642 61.5751 75.25C61.3604 74.858 61.0758 74.5593 60.7211 74.354C60.3664 74.1487 59.9838 74.046 59.5731 74.046C59.1624 74.046 58.7798 74.1487 58.4251 74.354C58.0704 74.55 57.7811 74.844 57.5571 75.236C57.3424 75.6187 57.2351 76.076 57.2351 76.608C57.2351 77.14 57.3424 77.6067 57.5571 78.008C57.7811 78.4093 58.0704 78.7173 58.4251 78.932C58.7891 79.1373 59.1718 79.24 59.5731 79.24C59.9838 79.24 60.3664 79.1373 60.7211 78.932C61.0758 78.7267 61.3604 78.428 61.5751 78.036C61.7991 77.6347 61.9111 77.168 61.9111 76.636ZM69.5094 72.66C70.116 72.66 70.6574 72.786 71.1334 73.038C71.6187 73.29 71.9967 73.6633 72.2674 74.158C72.5381 74.6527 72.6734 75.25 72.6734 75.95V80.5H71.0914V76.188C71.0914 75.4973 70.9187 74.97 70.5734 74.606C70.228 74.2327 69.7567 74.046 69.1594 74.046C68.562 74.046 68.086 74.2327 67.7314 74.606C67.386 74.97 67.2134 75.4973 67.2134 76.188V80.5H65.6174V72.786H67.2134V73.668C67.4747 73.3507 67.806 73.1033 68.2074 72.926C68.618 72.7487 69.052 72.66 69.5094 72.66Z" fill="#242424"/>
<defs>
<clipPath id="clip0_743_438">
<rect width="70" height="40" fill="white" transform="translate(15 15.5)"/>
</clipPath>
</defs>
</svg>
