<svg width="100" height="100" viewBox="0 0 100 100" fill="none" xmlns="http://www.w3.org/2000/svg">
<path fill-rule="evenodd" clip-rule="evenodd" d="M70.8784 31.7766C69.6742 27.2599 63.9204 24.9834 63.9204 24.9834C62.3852 24.4127 62.9982 25.309 62.9982 25.309C62.9982 25.309 69.6191 28.4048 69.6191 32.7141C69.6191 38.0512 62.4044 39.6475 62.4044 39.6475C68.9664 37.5267 68.9852 33.001 68.9852 33.001C68.87 28.4761 62.9982 25.309 62.9982 25.309C60.7344 24.0044 59.5063 23.6779 59.5063 23.6779C56.5515 22.6724 57.5103 23.8412 57.5103 23.8412C57.5103 23.8412 66.4243 26.6943 66.4243 32.9885C66.4243 39.4173 53.9995 41.4825 53.9995 41.4825C65.6829 39.2803 65.6852 33.0417 65.6852 33.0417C65.6852 27.4224 57.5103 23.8412 57.5103 23.8412C56.2826 23.162 54.2002 22.6148 54.2002 22.6148C52.2712 22.1972 53.3656 23.0532 53.3656 23.0532C61.1949 27.701 61.1949 32.8382 61.1949 32.8382C61.1949 38.5468 56.0425 39.9731 56.0425 39.9731C54.5455 40.5646 51.6489 41.0378 51.6489 41.0378C51.1799 41.1787 50.852 41.5063 50.852 41.8903C50.852 42.0453 50.889 42.1988 51.0004 42.3205C51.2832 42.6274 52.2354 43.3468 52.2354 43.3468C52.5764 43.6729 52.7756 44.0765 52.7756 44.5133C52.7756 45.585 51.5626 46.4548 50.0555 46.4747H49.9445C48.4379 46.4548 47.2237 45.5854 47.2237 44.5133C47.2237 44.0765 47.4241 43.6729 47.7643 43.3468C47.7643 43.3468 48.7161 42.6274 48.9989 42.3205C49.1103 42.1988 49.1484 42.0457 49.1484 41.8903C49.1484 41.5063 48.8197 41.1787 48.3512 41.0378C48.3512 41.0378 45.4542 40.565 43.9572 39.9731C43.9572 39.9731 38.8048 38.5471 38.8048 32.8382C38.8048 32.8382 38.8048 27.7007 46.6341 23.0532C46.6341 23.0532 47.7281 22.1972 45.7995 22.6148C45.7995 22.6148 43.7171 23.162 42.4894 23.8412C42.4894 23.8412 34.3149 27.422 34.3149 33.0417C34.3149 33.0417 34.3164 39.2803 46.001 41.4825C46.001 41.4825 33.5758 39.4177 33.5758 32.9885C33.5758 26.6943 42.4894 23.8412 42.4894 23.8412C42.4894 23.8412 43.4481 22.6724 40.4934 23.6779C40.4934 23.6779 39.2653 24.004 37.0011 25.309C37.0011 25.309 31.1289 28.4761 31.0141 33.001C31.0141 33.001 31.033 37.5267 37.5956 39.6475C37.5956 39.6475 30.3806 38.0508 30.3806 32.7141C30.3806 28.4048 37.0011 25.309 37.0011 25.309C37.0011 25.309 37.6149 24.4123 36.0801 24.9834C36.0801 24.9834 30.3251 27.2603 29.1217 31.7766C29.1217 31.7766 28.7568 33.4781 29.2908 34.7209C29.9382 36.2428 31.6264 38.7636 35.926 40.1763C35.926 40.1763 37.8835 40.9928 45.7132 42.5828L46.1744 42.6896C46.1744 42.6896 46.5112 42.8396 46.27 43.1096L45.1914 44.0514C45.1914 44.0514 43.6096 45.2875 45.8673 46.328C45.8673 46.328 47.2449 46.8047 48.2159 47.8608C48.2159 47.8608 48.8406 48.4644 49.8983 48.4945V48.4988H49.9688C49.9719 48.4988 49.9746 48.5 49.9769 48.5V48.4988H50.0224V48.5L50.0305 48.4988H50.079V48.4973C51.1507 48.4738 51.783 47.8608 51.783 47.8608C52.7544 46.8047 54.1312 46.328 54.1312 46.328C56.3897 45.2875 54.8071 44.0514 54.8071 44.0514L53.7293 43.1096C53.4885 42.8396 53.8249 42.6896 53.8249 42.6896L54.2854 42.5828C62.1147 40.9928 64.0729 40.1763 64.0729 40.1763C68.3725 38.7636 70.0607 36.2432 70.7088 34.7209C71.2433 33.4781 70.8784 31.7766 70.8784 31.7766Z" fill="#242424"/>
<path d="M14.4298 80.598C13.7765 80.598 13.1885 80.486 12.6658 80.262C12.1432 80.0287 11.7325 79.702 11.4338 79.282C11.1352 78.862 10.9858 78.372 10.9858 77.812H12.6938C12.7312 78.232 12.8945 78.5773 13.1838 78.848C13.4825 79.1187 13.8978 79.254 14.4298 79.254C14.9805 79.254 15.4098 79.1233 15.7178 78.862C16.0258 78.5913 16.1798 78.246 16.1798 77.826C16.1798 77.4993 16.0818 77.2333 15.8858 77.028C15.6992 76.8227 15.4612 76.664 15.1718 76.552C14.8918 76.44 14.4998 76.3187 13.9958 76.188C13.3612 76.02 12.8432 75.852 12.4418 75.684C12.0498 75.5067 11.7138 75.236 11.4338 74.872C11.1538 74.508 11.0138 74.0227 11.0138 73.416C11.0138 72.856 11.1538 72.366 11.4338 71.946C11.7138 71.526 12.1058 71.204 12.6098 70.98C13.1138 70.756 13.6972 70.644 14.3598 70.644C15.3025 70.644 16.0725 70.882 16.6698 71.358C17.2765 71.8247 17.6125 72.4687 17.6778 73.29H15.9138C15.8858 72.9353 15.7178 72.632 15.4098 72.38C15.1018 72.128 14.6958 72.002 14.1918 72.002C13.7345 72.002 13.3612 72.1187 13.0718 72.352C12.7825 72.5853 12.6378 72.9213 12.6378 73.36C12.6378 73.6587 12.7265 73.906 12.9038 74.102C13.0905 74.2887 13.3238 74.438 13.6038 74.55C13.8838 74.662 14.2665 74.7833 14.7518 74.914C15.3958 75.0913 15.9185 75.2687 16.3198 75.446C16.7305 75.6233 17.0758 75.8987 17.3558 76.272C17.6452 76.636 17.7898 77.126 17.7898 77.742C17.7898 78.2367 17.6545 78.7033 17.3838 79.142C17.1225 79.5807 16.7352 79.9353 16.2218 80.206C15.7178 80.4673 15.1205 80.598 14.4298 80.598ZM22.473 80.626C21.8664 80.626 21.3204 80.5187 20.835 80.304C20.359 80.08 19.981 79.7813 19.701 79.408C19.421 79.0253 19.2717 78.6007 19.253 78.134H20.905C20.933 78.4607 21.087 78.736 21.367 78.96C21.6564 79.1747 22.0157 79.282 22.445 79.282C22.893 79.282 23.2384 79.198 23.481 79.03C23.733 78.8527 23.859 78.6287 23.859 78.358C23.859 78.0687 23.719 77.854 23.439 77.714C23.1684 77.574 22.7344 77.42 22.137 77.252C21.5584 77.0933 21.087 76.9393 20.723 76.79C20.359 76.6407 20.0417 76.412 19.771 76.104C19.5097 75.796 19.379 75.39 19.379 74.886C19.379 74.4753 19.5004 74.102 19.743 73.766C19.9857 73.4207 20.331 73.15 20.779 72.954C21.2364 72.758 21.759 72.66 22.347 72.66C23.2244 72.66 23.929 72.884 24.461 73.332C25.0024 73.7707 25.2917 74.3727 25.329 75.138H23.733C23.705 74.7927 23.565 74.5173 23.313 74.312C23.061 74.1067 22.7204 74.004 22.291 74.004C21.871 74.004 21.549 74.0833 21.325 74.242C21.101 74.4007 20.989 74.6107 20.989 74.872C20.989 75.0773 21.0637 75.25 21.213 75.39C21.3624 75.53 21.5444 75.642 21.759 75.726C21.9737 75.8007 22.291 75.8987 22.711 76.02C23.271 76.1693 23.7284 76.3233 24.083 76.482C24.447 76.6313 24.7597 76.8553 25.021 77.154C25.2824 77.4527 25.4177 77.8493 25.427 78.344C25.427 78.7827 25.3057 79.1747 25.063 79.52C24.8204 79.8653 24.475 80.136 24.027 80.332C23.5884 80.528 23.0704 80.626 22.473 80.626ZM26.6196 76.608C26.6196 75.8333 26.7782 75.1473 27.0956 74.55C27.4222 73.9527 27.8609 73.4907 28.4116 73.164C28.9716 72.828 29.5876 72.66 30.2596 72.66C30.8662 72.66 31.3936 72.7813 31.8416 73.024C32.2989 73.2573 32.6629 73.5513 32.9336 73.906V72.786H34.5436V80.5H32.9336V79.352C32.6629 79.716 32.2942 80.0193 31.8276 80.262C31.3609 80.5047 30.8289 80.626 30.2316 80.626C29.5689 80.626 28.9622 80.458 28.4116 80.122C27.8609 79.7767 27.4222 79.3007 27.0956 78.694C26.7782 78.078 26.6196 77.3827 26.6196 76.608ZM32.9336 76.636C32.9336 76.104 32.8216 75.642 32.5976 75.25C32.3829 74.858 32.0982 74.5593 31.7436 74.354C31.3889 74.1487 31.0062 74.046 30.5956 74.046C30.1849 74.046 29.8022 74.1487 29.4476 74.354C29.0929 74.55 28.8036 74.844 28.5796 75.236C28.3649 75.6187 28.2576 76.076 28.2576 76.608C28.2576 77.14 28.3649 77.6067 28.5796 78.008C28.8036 78.4093 29.0929 78.7173 29.4476 78.932C29.8116 79.1373 30.1942 79.24 30.5956 79.24C31.0062 79.24 31.3889 79.1373 31.7436 78.932C32.0982 78.7267 32.3829 78.428 32.5976 78.036C32.8216 77.6347 32.9336 77.168 32.9336 76.636ZM40.5318 72.66C41.1385 72.66 41.6798 72.786 42.1558 73.038C42.6412 73.29 43.0192 73.6633 43.2898 74.158C43.5605 74.6527 43.6958 75.25 43.6958 75.95V80.5H42.1138V76.188C42.1138 75.4973 41.9412 74.97 41.5958 74.606C41.2505 74.2327 40.7792 74.046 40.1818 74.046C39.5845 74.046 39.1085 74.2327 38.7538 74.606C38.4085 74.97 38.2358 75.4973 38.2358 76.188V80.5H36.6398V72.786H38.2358V73.668C38.4972 73.3507 38.8285 73.1033 39.2298 72.926C39.6405 72.7487 40.0745 72.66 40.5318 72.66ZM48.8396 72.66C49.437 72.66 49.9643 72.7813 50.4216 73.024C50.8883 73.2573 51.2523 73.5513 51.5136 73.906V72.786H53.1236V80.626C53.1236 81.3353 52.9743 81.9653 52.6756 82.516C52.377 83.076 51.943 83.5147 51.3736 83.832C50.8136 84.1493 50.1416 84.308 49.3576 84.308C48.3123 84.308 47.4443 84.0607 46.7536 83.566C46.063 83.0807 45.671 82.418 45.5776 81.578H47.1596C47.281 81.9793 47.5376 82.3013 47.9296 82.544C48.331 82.796 48.807 82.922 49.3576 82.922C50.0016 82.922 50.5196 82.726 50.9116 82.334C51.313 81.942 51.5136 81.3727 51.5136 80.626V79.338C51.243 79.702 50.8743 80.01 50.4076 80.262C49.9503 80.5047 49.4276 80.626 48.8396 80.626C48.1676 80.626 47.5516 80.458 46.9916 80.122C46.441 79.7767 46.0023 79.3007 45.6756 78.694C45.3583 78.078 45.1996 77.3827 45.1996 76.608C45.1996 75.8333 45.3583 75.1473 45.6756 74.55C46.0023 73.9527 46.441 73.4907 46.9916 73.164C47.5516 72.828 48.1676 72.66 48.8396 72.66ZM51.5136 76.636C51.5136 76.104 51.4016 75.642 51.1776 75.25C50.963 74.858 50.6783 74.5593 50.3236 74.354C49.969 74.1487 49.5863 74.046 49.1756 74.046C48.765 74.046 48.3823 74.1487 48.0276 74.354C47.673 74.55 47.3836 74.844 47.1596 75.236C46.945 75.6187 46.8376 76.076 46.8376 76.608C46.8376 77.14 46.945 77.6067 47.1596 78.008C47.3836 78.4093 47.673 78.7173 48.0276 78.932C48.3916 79.1373 48.7743 79.24 49.1756 79.24C49.5863 79.24 49.969 79.1373 50.3236 78.932C50.6783 78.7267 50.963 78.428 51.1776 78.036C51.4016 77.6347 51.5136 77.168 51.5136 76.636ZM62.1639 72.786L57.4319 84.126H55.7799L57.3479 80.374L54.3099 72.786H56.0879L58.2579 78.666L60.5119 72.786H62.1639ZM66.7144 80.626C65.9864 80.626 65.3284 80.4627 64.7404 80.136C64.1524 79.8 63.6904 79.3333 63.3544 78.736C63.0184 78.1293 62.8504 77.4293 62.8504 76.636C62.8504 75.852 63.023 75.1567 63.3684 74.55C63.7137 73.9433 64.185 73.4767 64.7824 73.15C65.3797 72.8233 66.047 72.66 66.7844 72.66C67.5217 72.66 68.189 72.8233 68.7864 73.15C69.3837 73.4767 69.855 73.9433 70.2004 74.55C70.5457 75.1567 70.7184 75.852 70.7184 76.636C70.7184 77.42 70.541 78.1153 70.1864 78.722C69.8317 79.3287 69.3464 79.8 68.7304 80.136C68.1237 80.4627 67.4517 80.626 66.7144 80.626ZM66.7144 79.24C67.125 79.24 67.5077 79.142 67.8624 78.946C68.2264 78.75 68.5204 78.456 68.7444 78.064C68.9684 77.672 69.0804 77.196 69.0804 76.636C69.0804 76.076 68.973 75.6047 68.7584 75.222C68.5437 74.83 68.259 74.536 67.9044 74.34C67.5497 74.144 67.167 74.046 66.7564 74.046C66.3457 74.046 65.963 74.144 65.6084 74.34C65.263 74.536 64.9877 74.83 64.7824 75.222C64.577 75.6047 64.4744 76.076 64.4744 76.636C64.4744 77.4667 64.6844 78.1107 65.1044 78.568C65.5337 79.016 66.0704 79.24 66.7144 79.24ZM76.1881 72.66C76.7948 72.66 77.3361 72.786 77.8121 73.038C78.2974 73.29 78.6754 73.6633 78.9461 74.158C79.2168 74.6527 79.3521 75.25 79.3521 75.95V80.5H77.7701V76.188C77.7701 75.4973 77.5974 74.97 77.2521 74.606C76.9068 74.2327 76.4354 74.046 75.8381 74.046C75.2408 74.046 74.7648 74.2327 74.4101 74.606C74.0648 74.97 73.8921 75.4973 73.8921 76.188V80.5H72.2961V72.786H73.8921V73.668C74.1534 73.3507 74.4848 73.1033 74.8861 72.926C75.2968 72.7487 75.7308 72.66 76.1881 72.66ZM84.4959 72.66C85.0932 72.66 85.6206 72.7813 86.0779 73.024C86.5446 73.2573 86.9086 73.5513 87.1699 73.906V72.786H88.7799V80.626C88.7799 81.3353 88.6306 81.9653 88.3319 82.516C88.0332 83.076 87.5992 83.5147 87.0299 83.832C86.4699 84.1493 85.7979 84.308 85.0139 84.308C83.9686 84.308 83.1006 84.0607 82.4099 83.566C81.7192 83.0807 81.3272 82.418 81.2339 81.578H82.8159C82.9372 81.9793 83.1939 82.3013 83.5859 82.544C83.9872 82.796 84.4632 82.922 85.0139 82.922C85.6579 82.922 86.1759 82.726 86.5679 82.334C86.9692 81.942 87.1699 81.3727 87.1699 80.626V79.338C86.8992 79.702 86.5306 80.01 86.0639 80.262C85.6066 80.5047 85.0839 80.626 84.4959 80.626C83.8239 80.626 83.2079 80.458 82.6479 80.122C82.0972 79.7767 81.6586 79.3007 81.3319 78.694C81.0146 78.078 80.8559 77.3827 80.8559 76.608C80.8559 75.8333 81.0146 75.1473 81.3319 74.55C81.6586 73.9527 82.0972 73.4907 82.6479 73.164C83.2079 72.828 83.8239 72.66 84.4959 72.66ZM87.1699 76.636C87.1699 76.104 87.0579 75.642 86.8339 75.25C86.6192 74.858 86.3346 74.5593 85.9799 74.354C85.6252 74.1487 85.2426 74.046 84.8319 74.046C84.4212 74.046 84.0386 74.1487 83.6839 74.354C83.3292 74.55 83.0399 74.844 82.8159 75.236C82.6012 75.6187 82.4939 76.076 82.4939 76.608C82.4939 77.14 82.6012 77.6067 82.8159 78.008C83.0399 78.4093 83.3292 78.7173 83.6839 78.932C84.0479 79.1373 84.4306 79.24 84.8319 79.24C85.2426 79.24 85.6252 79.1373 85.9799 78.932C86.3346 78.7267 86.6192 78.428 86.8339 78.036C87.0579 77.6347 87.1699 77.168 87.1699 76.636Z" fill="#242424"/>
</svg>
