<svg width="100" height="100" viewBox="0 0 100 100" fill="none" xmlns="http://www.w3.org/2000/svg">
<path d="M62.2402 19.2693C58.8338 18.1499 54.6114 17.5 50.0341 17.5C45.4568 17.5 41.2343 18.1499 37.828 19.2693C28.7798 22.2302 22.5703 28.3686 22.5703 35.4458C22.5703 45.4117 34.8474 53.5 49.9986 53.5C65.1498 53.5 77.4269 45.4117 77.4269 35.4458C77.4978 28.3686 71.2883 22.2302 62.2402 19.2693ZM50.0341 45.7728C47.7632 45.7728 45.9181 41.2593 45.8116 35.5542C47.16 35.6625 48.5793 35.7347 50.0341 35.7347C51.4889 35.7347 52.8727 35.6625 54.2565 35.5542C54.1501 41.2232 52.305 45.7728 50.0341 45.7728ZM46.0955 31.0767C46.6987 27.0687 48.2244 24.2523 50.0341 24.2523C51.8082 24.2523 53.334 27.0687 53.9727 31.0767C52.7308 31.1851 51.3824 31.2573 50.0341 31.2573C48.6857 31.2573 47.3729 31.2212 46.0955 31.0767ZM56.3855 30.7879C55.4629 24.505 52.9791 20.0276 50.0341 20.0276C47.089 20.0276 44.6052 24.505 43.6826 30.7879C38.1118 29.8852 34.2087 27.8992 34.2087 25.5522C34.2087 22.3746 41.2698 19.8109 49.9986 19.8109C58.7274 19.8109 65.7885 22.3746 65.7885 25.5522C65.8594 27.8992 61.9563 29.9213 56.3855 30.7879ZM26.6154 34.7959C26.6154 31.7267 27.7863 28.8741 29.7733 26.4188C29.7379 26.5993 29.7379 26.7798 29.7379 26.9243C29.7379 30.7879 35.4151 34.0376 43.3278 35.2292C43.3278 35.5181 43.3278 35.8069 43.3278 36.0958C43.3278 43.2452 45.2794 49.3114 47.9761 51.4057C35.9828 50.6836 26.6154 43.5341 26.6154 34.7959ZM52.1276 51.4057C54.8243 49.3114 56.7758 43.2452 56.7758 36.0958C56.7758 35.8069 56.7758 35.5181 56.7758 35.2292C64.6885 34.0376 70.3658 30.7518 70.3658 26.9243C70.3658 26.7437 70.3658 26.5632 70.3303 26.4188C72.3528 28.8741 73.4883 31.7628 73.4883 34.7959C73.4883 43.5341 64.0853 50.6836 52.1276 51.4057Z" fill="#242424"/>
<path d="M33.0342 70.77V72.072H30.4442V80.5H28.8482V72.072H26.2442V70.77H33.0342ZM37.9966 80.626C37.2686 80.626 36.6106 80.4627 36.0226 80.136C35.4346 79.8 34.9726 79.3333 34.6366 78.736C34.3006 78.1293 34.1326 77.4293 34.1326 76.636C34.1326 75.852 34.3053 75.1567 34.6506 74.55C34.9959 73.9433 35.4673 73.4767 36.0646 73.15C36.6619 72.8233 37.3293 72.66 38.0666 72.66C38.8039 72.66 39.4713 72.8233 40.0686 73.15C40.6659 73.4767 41.1373 73.9433 41.4826 74.55C41.8279 75.1567 42.0006 75.852 42.0006 76.636C42.0006 77.42 41.8233 78.1153 41.4686 78.722C41.1139 79.3287 40.6286 79.8 40.0126 80.136C39.4059 80.4627 38.7339 80.626 37.9966 80.626ZM37.9966 79.24C38.4073 79.24 38.7899 79.142 39.1446 78.946C39.5086 78.75 39.8026 78.456 40.0266 78.064C40.2506 77.672 40.3626 77.196 40.3626 76.636C40.3626 76.076 40.2553 75.6047 40.0406 75.222C39.8259 74.83 39.5413 74.536 39.1866 74.34C38.8319 74.144 38.4493 74.046 38.0386 74.046C37.6279 74.046 37.2453 74.144 36.8906 74.34C36.5453 74.536 36.2699 74.83 36.0646 75.222C35.8593 75.6047 35.7566 76.076 35.7566 76.636C35.7566 77.4667 35.9666 78.1107 36.3866 78.568C36.8159 79.016 37.3526 79.24 37.9966 79.24ZM50.5223 72.786L45.7903 84.126H44.1383L45.7063 80.374L42.6683 72.786H44.4463L46.6163 78.666L48.8703 72.786H50.5223ZM55.0728 80.626C54.3448 80.626 53.6868 80.4627 53.0988 80.136C52.5108 79.8 52.0488 79.3333 51.7128 78.736C51.3768 78.1293 51.2088 77.4293 51.2088 76.636C51.2088 75.852 51.3814 75.1567 51.7268 74.55C52.0721 73.9433 52.5434 73.4767 53.1408 73.15C53.7381 72.8233 54.4054 72.66 55.1428 72.66C55.8801 72.66 56.5474 72.8233 57.1448 73.15C57.7421 73.4767 58.2134 73.9433 58.5588 74.55C58.9041 75.1567 59.0768 75.852 59.0768 76.636C59.0768 77.42 58.8994 78.1153 58.5448 78.722C58.1901 79.3287 57.7048 79.8 57.0888 80.136C56.4821 80.4627 55.8101 80.626 55.0728 80.626ZM55.0728 79.24C55.4834 79.24 55.8661 79.142 56.2208 78.946C56.5848 78.75 56.8788 78.456 57.1028 78.064C57.3268 77.672 57.4388 77.196 57.4388 76.636C57.4388 76.076 57.3314 75.6047 57.1168 75.222C56.9021 74.83 56.6174 74.536 56.2628 74.34C55.9081 74.144 55.5254 74.046 55.1148 74.046C54.7041 74.046 54.3214 74.144 53.9668 74.34C53.6214 74.536 53.3461 74.83 53.1408 75.222C52.9354 75.6047 52.8328 76.076 52.8328 76.636C52.8328 77.4667 53.0428 78.1107 53.4628 78.568C53.8921 79.016 54.4288 79.24 55.0728 79.24ZM62.5165 74.088V78.358C62.5165 78.6473 62.5818 78.8573 62.7125 78.988C62.8525 79.1093 63.0858 79.17 63.4125 79.17H64.3925V80.5H63.1325C62.4138 80.5 61.8632 80.332 61.4805 79.996C61.0978 79.66 60.9065 79.114 60.9065 78.358V74.088H59.9965V72.786H60.9065V70.868H62.5165V72.786H64.3925V74.088H62.5165ZM65.3315 76.608C65.3315 75.8333 65.4901 75.1473 65.8075 74.55C66.1341 73.9527 66.5728 73.4907 67.1235 73.164C67.6835 72.828 68.2995 72.66 68.9715 72.66C69.5781 72.66 70.1055 72.7813 70.5535 73.024C71.0108 73.2573 71.3748 73.5513 71.6455 73.906V72.786H73.2555V80.5H71.6455V79.352C71.3748 79.716 71.0061 80.0193 70.5395 80.262C70.0728 80.5047 69.5408 80.626 68.9435 80.626C68.2808 80.626 67.6741 80.458 67.1235 80.122C66.5728 79.7767 66.1341 79.3007 65.8075 78.694C65.4901 78.078 65.3315 77.3827 65.3315 76.608ZM71.6455 76.636C71.6455 76.104 71.5335 75.642 71.3095 75.25C71.0948 74.858 70.8101 74.5593 70.4555 74.354C70.1008 74.1487 69.7181 74.046 69.3075 74.046C68.8968 74.046 68.5141 74.1487 68.1595 74.354C67.8048 74.55 67.5155 74.844 67.2915 75.236C67.0768 75.6187 66.9695 76.076 66.9695 76.608C66.9695 77.14 67.0768 77.6067 67.2915 78.008C67.5155 78.4093 67.8048 78.7173 68.1595 78.932C68.5235 79.1373 68.9061 79.24 69.3075 79.24C69.7181 79.24 70.1008 79.1373 70.4555 78.932C70.8101 78.7267 71.0948 78.428 71.3095 78.036C71.5335 77.6347 71.6455 77.168 71.6455 76.636Z" fill="#242424"/>
</svg>
