<svg width="18" height="19" viewBox="0 0 18 19" fill="none" xmlns="http://www.w3.org/2000/svg">
<g id="Clock">
<path id="Subtract" fill-rule="evenodd" clip-rule="evenodd" d="M9.00195 18.5C13.97 18.5 18.002 14.468 18.002 9.5C18.002 4.532 13.97 0.5 9.00195 0.5C4.03395 0.5 0.00195312 4.532 0.00195312 9.5C0.00195312 14.468 4.03395 18.5 9.00195 18.5ZM9.31758 5.45908C9.31758 5.1001 9.02656 4.80908 8.66758 4.80908C8.30859 4.80908 8.01758 5.1001 8.01758 5.45908V9.14908C8.01758 9.57251 8.1611 9.99796 8.36169 10.3497C8.5621 10.7011 8.85457 11.0405 9.21733 11.2558L9.21821 11.2563L12.0065 12.9202C12.3147 13.1042 12.7138 13.0034 12.8977 12.6952C13.0817 12.3869 12.9809 11.9879 12.6727 11.8039L9.88268 10.1389L9.88095 10.1379C9.75811 10.0651 9.60989 9.91425 9.49096 9.70571C9.37206 9.4972 9.31758 9.29265 9.31758 9.14908V5.45908Z" fill="#FDFDFD"/>
</g>
</svg>
