<svg width="20" height="20" viewBox="0 0 20 20" fill="none" xmlns="http://www.w3.org/2000/svg">
<g id="Img">
<g id="Group">
<path id="Vector" fill-rule="evenodd" clip-rule="evenodd" d="M6.22148 0.887175C7.20065 0.845508 7.51315 0.833008 10.0007 0.833008C12.4882 0.833008 12.8007 0.845508 13.7798 0.887175C14.7548 0.928841 15.4215 1.08717 16.0048 1.31634C16.609 1.54967 17.1173 1.85801 17.6298 2.37051C18.0965 2.82882 18.4577 3.38336 18.6882 3.99551C18.9132 4.57884 19.0673 5.24551 19.1132 6.22051C19.1548 7.19968 19.1673 7.51218 19.1673 9.99967C19.1673 12.4872 19.1548 12.7997 19.1132 13.7788C19.0715 14.7538 18.9132 15.4205 18.6882 16.0038C18.4577 16.616 18.0965 17.1705 17.6298 17.6288C17.1715 18.0955 16.617 18.4567 16.0048 18.6872C15.4215 18.9122 14.7548 19.0663 13.7798 19.1122C12.8007 19.1538 12.4882 19.1663 10.0007 19.1663C7.51315 19.1663 7.20065 19.1538 6.22148 19.1122C5.24648 19.0705 4.57982 18.9122 3.99648 18.6872C3.38434 18.4567 2.8298 18.0955 2.37148 17.6288C1.9063 17.1701 1.54658 16.6156 1.31732 16.0038C1.08815 15.4205 0.933984 14.7538 0.888151 13.7788C0.846484 12.7997 0.833984 12.4872 0.833984 9.99967C0.833984 7.51218 0.846484 7.19968 0.888151 6.22051C0.929818 5.24551 1.08815 4.57884 1.31732 3.99551C1.54658 3.38374 1.9063 2.82923 2.37148 2.37051C2.83021 1.90533 3.38472 1.5456 3.99648 1.31634C4.57982 1.08717 5.24648 0.933008 6.22148 0.887175ZM13.7048 2.54134C12.7382 2.49967 12.4465 2.48717 10.0007 2.48717C7.55482 2.48717 7.26315 2.49967 6.29648 2.54134C5.40482 2.58301 4.91732 2.73301 4.59648 2.85801C4.16732 3.02467 3.86315 3.22467 3.54232 3.54551C3.23702 3.84091 3.00206 4.20119 2.85482 4.59967C2.72982 4.92051 2.57982 5.40801 2.53815 6.29967C2.49648 7.26634 2.48398 7.55801 2.48398 10.0038C2.48398 12.4497 2.49648 12.7413 2.53815 13.708C2.57982 14.5997 2.72982 15.0872 2.85482 15.4122C3.02148 15.8372 3.22148 16.1413 3.54232 16.4622C3.86315 16.783 4.16732 16.983 4.59648 17.1497C4.91732 17.2747 5.40482 17.4247 6.29648 17.4663C7.26315 17.508 7.55482 17.5205 10.0007 17.5205C12.4465 17.5205 12.7382 17.508 13.7048 17.4663C14.5965 17.4247 15.084 17.2747 15.409 17.1497C15.806 17.0019 16.1648 16.767 16.459 16.4622C16.7638 16.168 16.9987 15.8092 17.1465 15.4122C17.2715 15.0872 17.4215 14.5997 17.4632 13.708C17.5048 12.7413 17.5173 12.4497 17.5173 10.0038C17.5173 7.55801 17.5048 7.26634 17.4632 6.29967C17.4215 5.40801 17.2715 4.92051 17.1465 4.59967C16.9998 4.1997 16.7648 3.83795 16.459 3.54134C16.1648 3.23656 15.806 3.00163 15.409 2.85384C15.084 2.72884 14.5965 2.57884 13.7048 2.53717V2.54134ZM5.29232 9.99967C5.29232 9.38137 5.4141 8.76911 5.65072 8.19787C5.88733 7.62663 6.23415 7.10759 6.67136 6.67038C7.10857 6.23317 7.62761 5.88636 8.19885 5.64974C8.77009 5.41313 9.38234 5.29134 10.0007 5.29134C10.619 5.29134 11.2312 5.41313 11.8025 5.64974C12.3737 5.88636 12.8927 6.23317 13.3299 6.67038C13.7672 7.10759 14.114 7.62663 14.3506 8.19787C14.5872 8.76911 14.709 9.38137 14.709 9.99967C14.709 11.2484 14.2129 12.446 13.3299 13.329C12.447 14.212 11.2494 14.708 10.0007 14.708C8.75192 14.708 7.55434 14.212 6.67136 13.329C5.78837 12.446 5.29232 11.2484 5.29232 9.99967ZM6.94648 9.99967C6.94648 10.8097 7.26826 11.5865 7.84103 12.1593C8.4138 12.7321 9.19064 13.0538 10.0007 13.0538C10.8107 13.0538 11.5875 12.7321 12.1603 12.1593C12.733 11.5865 13.0548 10.8097 13.0548 9.99967C13.0548 9.18966 12.733 8.41282 12.1603 7.84005C11.5875 7.26729 10.8107 6.94551 10.0007 6.94551C9.19064 6.94551 8.4138 7.26729 7.84103 7.84005C7.26826 8.41282 6.94648 9.18966 6.94648 9.99967Z" fill="#717171"/>
<path id="Vector_2" fill-rule="evenodd" clip-rule="evenodd" d="M15.993 5.10781C15.993 5.39955 15.8771 5.67934 15.6708 5.88563C15.4645 6.09192 15.1847 6.20781 14.893 6.20781C14.6012 6.20781 14.3214 6.09192 14.1152 5.88563C13.9089 5.67934 13.793 5.39955 13.793 5.10781C13.793 4.81607 13.9089 4.53629 14.1152 4.33C14.3214 4.12371 14.6012 4.00781 14.893 4.00781C15.1847 4.00781 15.4645 4.12371 15.6708 4.33C15.8771 4.53629 15.993 4.81607 15.993 5.10781Z" fill="#717171"/>
</g>
</g>
</svg>
