<svg width="20" height="18" viewBox="0 0 20 18" fill="none" xmlns="http://www.w3.org/2000/svg">
<g id="Mail">
<path id="Subtract" fill-rule="evenodd" clip-rule="evenodd" d="M5.00195 17.5H15.002C18.002 17.5 20.002 16 20.002 12.5V5.5C20.002 2 18.002 0.5 15.002 0.5H5.00195C2.00195 0.5 0.00195312 2 0.00195312 5.5V12.5C0.00195312 16 2.00195 17.5 5.00195 17.5ZM15.4277 6.5327C15.7219 6.2977 15.7699 5.86867 15.5349 5.57445C15.2999 5.28022 14.8709 5.23221 14.5766 5.46722L11.4471 7.96687C10.6658 8.58847 9.32825 8.58795 8.54681 7.96654L5.4285 5.46788C5.13464 5.23242 4.70554 5.27976 4.47008 5.57361C4.23461 5.86747 4.28195 6.29657 4.57581 6.53204L7.6958 9.03204L7.69749 9.03338C8.97602 10.0512 11.0183 10.0512 12.2968 9.03338L15.4277 6.5327Z" fill="#FDFDFD"/>
</g>
</svg>
