<svg width="24" height="25" viewBox="0 0 24 25" fill="none" xmlns="http://www.w3.org/2000/svg">
<g id="Icons">
<path id="Phone" d="M20.2621 17.7138C20.2621 18.0126 20.1956 18.3197 20.0543 18.6185C19.913 18.9173 19.7301 19.1995 19.4891 19.4651C19.0817 19.9133 18.6329 20.237 18.1258 20.4445C17.6271 20.652 17.0867 20.7599 16.5049 20.7599C15.657 20.7599 14.7509 20.5607 13.795 20.154C12.8391 19.7473 11.8831 19.1995 10.9355 18.5106C9.97959 17.8134 9.07353 17.0415 8.20903 16.1866C7.35285 15.3234 6.57979 14.4187 5.88985 13.4725C5.20823 12.5263 4.65961 11.5801 4.26061 10.6422C3.86161 9.69601 3.66211 8.79131 3.66211 7.92811C3.66211 7.36371 3.76186 6.82421 3.96136 6.32621C4.16086 5.81991 4.47673 5.35511 4.91729 4.94011C5.44929 4.41721 6.03116 4.15991 6.64629 4.15991C6.87903 4.15991 7.11178 4.20971 7.3196 4.30931C7.53572 4.40891 7.72691 4.55831 7.87653 4.77411L9.80502 7.48821C9.95465 7.69571 10.0627 7.88661 10.1375 8.06921C10.2123 8.24351 10.2539 8.41781 10.2539 8.57551C10.2539 8.77471 10.1957 8.97391 10.0793 9.16481C9.97127 9.35571 9.81334 9.55491 9.61384 9.75411L8.98209 10.4098C8.89065 10.5011 8.84909 10.609 8.84909 10.7418C8.84909 10.8082 8.8574 10.8663 8.87403 10.9327C8.89897 10.9991 8.9239 11.0489 8.94053 11.0987C9.09015 11.3726 9.34784 11.7295 9.71359 12.1611C10.0876 12.5927 10.4866 13.0326 10.9189 13.4725C11.3678 13.9124 11.8 14.3191 12.2406 14.6926C12.6728 15.0578 13.0303 15.3068 13.3129 15.4562C13.3544 15.4728 13.4043 15.4977 13.4625 15.5226C13.529 15.5475 13.5955 15.5558 13.6703 15.5558C13.8116 15.5558 13.9197 15.506 14.0111 15.4147L14.6429 14.7922C14.8507 14.5847 15.0502 14.427 15.2414 14.3274C15.4326 14.2112 15.6238 14.1531 15.8316 14.1531C15.9895 14.1531 16.1558 14.1863 16.3386 14.261C16.5215 14.3357 16.7127 14.4436 16.9205 14.5847L19.6719 16.5352C19.8881 16.6846 20.0377 16.8589 20.1291 17.0664C20.2122 17.2739 20.2621 17.4814 20.2621 17.7138Z" fill="#FDFDFD"/>
</g>
</svg>
