<svg width="20" height="20" viewBox="0 0 20 20" fill="none" xmlns="http://www.w3.org/2000/svg">
<g id="ic:baseline-tiktok">
<path id="Vector" d="M14.421 4.2781C13.8036 3.55544 13.4632 2.62755 13.4633 1.66699H10.6715V13.1485C10.6505 13.7699 10.3946 14.3587 9.95807 14.7906C9.52149 15.2225 8.93829 15.4637 8.33151 15.4633C7.04856 15.4633 5.98245 14.3892 5.98245 13.0559C5.98245 11.4633 7.48224 10.2688 9.0272 10.7596V7.83366C5.91017 7.40773 3.18164 9.88921 3.18164 13.0559C3.18164 16.1392 5.67526 18.3337 8.32248 18.3337C11.1594 18.3337 13.4633 15.9725 13.4633 13.0559V7.23181C14.5954 8.065 15.9546 8.51204 17.3483 8.50958V5.64847C17.3483 5.64847 15.6498 5.73181 14.421 4.2781Z" fill="#717171"/>
</g>
</svg>
